<svg width="28" height="28" viewBox="0 0 28 28" fill="none" xmlns="http://www.w3.org/2000/svg">
<path fill-rule="evenodd" clip-rule="evenodd" d="M10.5224 19.9093C11.6472 20.6013 12.9714 21.0004 14.3889 21.0004C18.4697 21.0004 21.7778 17.6923 21.7778 13.6115C21.7778 9.53077 18.4697 6.22266 14.3889 6.22266C10.3081 6.22266 7 9.53077 7 13.6115C7 14.76 7.262 15.8472 7.72948 16.8167L7.38889 20.2227L10.5224 19.9093ZM11.6667 13.6115C11.6667 14.2559 11.1443 14.7782 10.5 14.7782C9.85567 14.7782 9.33333 14.2559 9.33333 13.6115C9.33333 12.9672 9.85567 12.4449 10.5 12.4449C11.1443 12.4449 11.6667 12.9672 11.6667 13.6115ZM15.5556 13.6115C15.5556 14.2559 15.0332 14.7782 14.3889 14.7782C13.7446 14.7782 13.2222 14.2559 13.2222 13.6115C13.2222 12.9672 13.7446 12.4449 14.3889 12.4449C15.0332 12.4449 15.5556 12.9672 15.5556 13.6115ZM19.4444 13.6115C19.4444 14.2559 18.9221 14.7782 18.2778 14.7782C17.6334 14.7782 17.1111 14.2559 17.1111 13.6115C17.1111 12.9672 17.6334 12.4449 18.2778 12.4449C18.9221 12.4449 19.4444 12.9672 19.4444 13.6115Z" fill="white"/>
</svg>
