<svg width="16" height="16" viewBox="0 0 16 16" fill="none" xmlns="http://www.w3.org/2000/svg">
<path d="M8.00016 1.3335C11.6802 1.3335 14.6668 4.32016 14.6668 8.00016C14.6668 11.6802 11.6802 14.6668 8.00016 14.6668C4.32016 14.6668 1.3335 11.6802 1.3335 8.00016C1.3335 4.32016 4.32016 1.3335 8.00016 1.3335ZM4.0155 10.2775C4.99416 11.7375 6.4635 12.6668 8.10683 12.6668C9.7495 12.6668 11.2195 11.7382 12.1975 10.2775C11.088 9.24056 9.62546 8.6647 8.10683 8.66683C6.58797 8.66453 5.12517 9.2404 4.0155 10.2775ZM8.00016 7.3335C8.5306 7.3335 9.0393 7.12278 9.41438 6.74771C9.78945 6.37264 10.0002 5.86393 10.0002 5.3335C10.0002 4.80306 9.78945 4.29436 9.41438 3.91928C9.0393 3.54421 8.5306 3.3335 8.00016 3.3335C7.46973 3.3335 6.96102 3.54421 6.58595 3.91928C6.21088 4.29436 6.00016 4.80306 6.00016 5.3335C6.00016 5.86393 6.21088 6.37264 6.58595 6.74771C6.96102 7.12278 7.46973 7.3335 8.00016 7.3335Z" fill="#5893FF"/>
</svg>
