<svg width="20" height="20" viewBox="0 0 20 20" fill="none" xmlns="http://www.w3.org/2000/svg">
<path d="M10 1.66666C14.6 1.66666 18.3334 5.39999 18.3334 9.99999C18.3334 14.6 14.6 18.3333 10 18.3333C5.40002 18.3333 1.66669 14.6 1.66669 9.99999C1.66669 5.39999 5.40002 1.66666 10 1.66666ZM5.01919 12.8467C6.24252 14.6717 8.07919 15.8333 10.1334 15.8333C12.1867 15.8333 14.0242 14.6725 15.2467 12.8467C13.8598 11.5505 12.0316 10.8307 10.1334 10.8333C8.23478 10.8305 6.40628 11.5503 5.01919 12.8467ZM10 9.16666C10.6631 9.16666 11.2989 8.90326 11.7678 8.43442C12.2366 7.96558 12.5 7.3297 12.5 6.66666C12.5 6.00362 12.2366 5.36773 11.7678 4.89889C11.2989 4.43005 10.6631 4.16666 10 4.16666C9.33698 4.16666 8.70109 4.43005 8.23225 4.89889C7.76341 5.36773 7.50002 6.00362 7.50002 6.66666C7.50002 7.3297 7.76341 7.96558 8.23225 8.43442C8.70109 8.90326 9.33698 9.16666 10 9.16666Z" fill="white"/>
</svg>
