<svg width="16" height="17" viewBox="0 0 16 17" fill="none" xmlns="http://www.w3.org/2000/svg">
<path d="M7.9987 1.54379C11.6787 1.54379 14.6654 4.53046 14.6654 8.21046C14.6654 11.8905 11.6787 14.8771 7.9987 14.8771C4.3187 14.8771 1.33203 11.8905 1.33203 8.21046C1.33203 4.53046 4.3187 1.54379 7.9987 1.54379ZM4.01403 10.4878C4.9927 11.9478 6.46203 12.8771 8.10536 12.8771C9.74803 12.8771 11.218 11.9485 12.196 10.4878C11.0865 9.45086 9.62399 8.875 8.10536 8.87713C6.5865 8.87483 5.12371 9.4507 4.01403 10.4878ZM7.9987 7.54379C8.52913 7.54379 9.03784 7.33308 9.41291 6.95801C9.78798 6.58293 9.9987 6.07423 9.9987 5.54379C9.9987 5.01336 9.78798 4.50465 9.41291 4.12958C9.03784 3.75451 8.52913 3.54379 7.9987 3.54379C7.46827 3.54379 6.95956 3.75451 6.58448 4.12958C6.20941 4.50465 5.9987 5.01336 5.9987 5.54379C5.9987 6.07423 6.20941 6.58293 6.58448 6.95801C6.95956 7.33308 7.46827 7.54379 7.9987 7.54379Z" fill="#B4C0D4"/>
</svg>
