<svg width="16" height="16" viewBox="0 0 16 16" fill="none" xmlns="http://www.w3.org/2000/svg">
<path d="M7.9987 14.6666C4.3167 14.6666 1.33203 11.6819 1.33203 7.99992C1.33203 4.31792 4.3167 1.33325 7.9987 1.33325C11.6807 1.33325 14.6654 4.31792 14.6654 7.99992C14.6654 11.6819 11.6807 14.6666 7.9987 14.6666ZM4.67403 12.1706C5.61773 12.9251 6.79048 13.3352 7.9987 13.3333C9.31203 13.3333 10.514 12.8586 11.4434 12.0719C11.0092 11.6264 10.4901 11.2725 9.91672 11.0311C9.34338 10.7897 8.72745 10.6658 8.10536 10.6666C7.46042 10.6658 6.82237 10.7992 6.23168 11.0581C5.64098 11.317 5.11055 11.6958 4.67403 12.1706ZM3.7427 11.2133C4.303 10.6186 4.97914 10.1451 5.72946 9.82173C6.47977 9.4984 7.28835 9.33216 8.10536 9.33325C8.89313 9.33223 9.67334 9.48683 10.4012 9.78817C11.129 10.0895 11.7902 10.5317 12.3467 11.0893C12.9174 10.286 13.2545 9.34034 13.3204 8.35719C13.3864 7.37404 13.1787 6.39184 12.7204 5.51956C12.262 4.64727 11.571 3.919 10.724 3.41555C9.87697 2.9121 8.90702 2.65314 7.92177 2.66742C6.93651 2.6817 5.97447 2.96864 5.14238 3.49642C4.31028 4.0242 3.64067 4.77219 3.20783 5.65739C2.77498 6.54259 2.59583 7.53039 2.69024 8.51122C2.78466 9.49204 3.14895 10.4275 3.7427 11.2139V11.2133ZM7.9987 8.66659C7.29145 8.66659 6.61318 8.38563 6.11308 7.88554C5.61298 7.38544 5.33203 6.70716 5.33203 5.99992C5.33203 5.29267 5.61298 4.6144 6.11308 4.1143C6.61318 3.6142 7.29145 3.33325 7.9987 3.33325C8.70594 3.33325 9.38422 3.6142 9.88432 4.1143C10.3844 4.6144 10.6654 5.29267 10.6654 5.99992C10.6654 6.70716 10.3844 7.38544 9.88432 7.88554C9.38422 8.38563 8.70594 8.66659 7.9987 8.66659ZM7.9987 7.33325C8.35232 7.33325 8.69146 7.19278 8.94151 6.94273C9.19156 6.69268 9.33203 6.35354 9.33203 5.99992C9.33203 5.6463 9.19156 5.30716 8.94151 5.05711C8.69146 4.80706 8.35232 4.66659 7.9987 4.66659C7.64508 4.66659 7.30594 4.80706 7.05589 5.05711C6.80584 5.30716 6.66536 5.6463 6.66536 5.99992C6.66536 6.35354 6.80584 6.69268 7.05589 6.94273C7.30594 7.19278 7.64508 7.33325 7.9987 7.33325Z" fill="#B4C0D4"/>
</svg>
