<svg width="16" height="16" viewBox="0 0 16 16" fill="none" xmlns="http://www.w3.org/2000/svg">
<path d="M7.99992 14.6663C4.31792 14.6663 1.33325 11.6817 1.33325 7.99967C1.33325 4.31767 4.31792 1.33301 7.99992 1.33301C11.6819 1.33301 14.6666 4.31767 14.6666 7.99967C14.6666 11.6817 11.6819 14.6663 7.99992 14.6663ZM4.67525 12.1703C5.61895 12.9248 6.7917 13.3349 7.99992 13.333C9.31325 13.333 10.5153 12.8583 11.4446 12.0717C11.0104 11.6262 10.4913 11.2723 9.91794 11.0309C9.3446 10.7895 8.72867 10.6655 8.10658 10.6663C7.46164 10.6656 6.82359 10.7989 6.2329 11.0578C5.6422 11.3167 5.11177 11.6956 4.67525 12.1703ZM3.74392 11.213C4.30422 10.6184 4.98037 10.1448 5.73068 9.82149C6.48099 9.49815 7.28957 9.33191 8.10658 9.33301C8.89435 9.33198 9.67456 9.48658 10.4024 9.78793C11.1303 10.0893 11.7914 10.5314 12.3479 11.089C12.9186 10.2858 13.2557 9.3401 13.3216 8.35695C13.3876 7.3738 13.1799 6.3916 12.7216 5.51931C12.2633 4.64702 11.5723 3.91876 10.7252 3.4153C9.87819 2.91185 8.90824 2.6529 7.92299 2.66718C6.93773 2.68145 5.97569 2.9684 5.1436 3.49618C4.31151 4.02396 3.64189 4.77194 3.20905 5.65714C2.7762 6.54234 2.59705 7.53015 2.69146 8.51097C2.78588 9.4918 3.15017 10.4273 3.74392 11.2137V11.213ZM7.99992 8.66634C7.29267 8.66634 6.6144 8.38539 6.1143 7.88529C5.6142 7.3852 5.33325 6.70692 5.33325 5.99967C5.33325 5.29243 5.6142 4.61415 6.1143 4.11406C6.6144 3.61396 7.29267 3.33301 7.99992 3.33301C8.70716 3.33301 9.38544 3.61396 9.88554 4.11406C10.3856 4.61415 10.6666 5.29243 10.6666 5.99967C10.6666 6.70692 10.3856 7.3852 9.88554 7.88529C9.38544 8.38539 8.70716 8.66634 7.99992 8.66634ZM7.99992 7.33301C8.35354 7.33301 8.69268 7.19253 8.94273 6.94248C9.19278 6.69243 9.33325 6.3533 9.33325 5.99967C9.33325 5.64605 9.19278 5.30691 8.94273 5.05687C8.69268 4.80682 8.35354 4.66634 7.99992 4.66634C7.6463 4.66634 7.30716 4.80682 7.05711 5.05687C6.80706 5.30691 6.66658 5.64605 6.66658 5.99967C6.66658 6.3533 6.80706 6.69243 7.05711 6.94248C7.30716 7.19253 7.6463 7.33301 7.99992 7.33301Z" fill="#687693"/>
</svg>
