<svg width="16" height="17" viewBox="0 0 16 17" fill="none" xmlns="http://www.w3.org/2000/svg">
<path d="M7.99967 1.99512C11.6797 1.99512 14.6663 4.98178 14.6663 8.66178C14.6663 12.3418 11.6797 15.3285 7.99967 15.3285C4.31967 15.3285 1.33301 12.3418 1.33301 8.66178C1.33301 4.98178 4.31967 1.99512 7.99967 1.99512ZM4.01501 10.9391C4.99367 12.3991 6.46301 13.3285 8.10634 13.3285C9.74901 13.3285 11.219 12.3998 12.197 10.9391C11.0875 9.90218 9.62497 9.32632 8.10634 9.32845C6.58748 9.32615 5.12468 9.90202 4.01501 10.9391ZM7.99967 7.99512C8.53011 7.99512 9.03882 7.7844 9.41389 7.40933C9.78896 7.03426 9.99967 6.52555 9.99967 5.99512C9.99967 5.46468 9.78896 4.95598 9.41389 4.5809C9.03882 4.20583 8.53011 3.99512 7.99967 3.99512C7.46924 3.99512 6.96053 4.20583 6.58546 4.5809C6.21039 4.95598 5.99967 5.46468 5.99967 5.99512C5.99967 6.52555 6.21039 7.03426 6.58546 7.40933C6.96053 7.7844 7.46924 7.99512 7.99967 7.99512Z" fill="#D5DFEF"/>
</svg>
