<svg width="15" height="14" viewBox="0 0 15 14" fill="none" xmlns="http://www.w3.org/2000/svg">
<path d="M5.75 6.25C6.30228 6.25 6.75 5.80228 6.75 5.25V2.5C6.75 2.08579 7.08579 1.75 7.5 1.75C7.91421 1.75 8.25 2.08579 8.25 2.5V5.25C8.25 5.80228 8.69771 6.25 9.25 6.25H12C12.4142 6.25 12.75 6.58579 12.75 7C12.75 7.41421 12.4142 7.75 12 7.75H9.25C8.69771 7.75 8.25 8.19771 8.25 8.75V11.5C8.25 11.9142 7.91421 12.25 7.5 12.25C7.08579 12.25 6.75 11.9142 6.75 11.5V8.75C6.75 8.19771 6.30228 7.75 5.75 7.75H3C2.58579 7.75 2.25 7.41421 2.25 7C2.25 6.58579 2.58579 6.25 3 6.25H5.75Z" fill="#5998F8"/>
</svg>
