<svg width="20" height="20" viewBox="0 0 20 20" fill="none" xmlns="http://www.w3.org/2000/svg">
<path d="M2.49996 2.5H17.5C17.721 2.5 17.9329 2.5878 18.0892 2.74408C18.2455 2.90036 18.3333 3.11232 18.3333 3.33333V16.6667C18.3333 16.8877 18.2455 17.0996 18.0892 17.2559C17.9329 17.4122 17.721 17.5 17.5 17.5H2.49996C2.27895 17.5 2.06698 17.4122 1.9107 17.2559C1.75442 17.0996 1.66663 16.8877 1.66663 16.6667V3.33333C1.66663 3.11232 1.75442 2.90036 1.9107 2.74408C2.06698 2.5878 2.27895 2.5 2.49996 2.5ZM5.83329 10.8333V14.1667H7.49996V10.8333H5.83329ZM9.16663 5.83333V14.1667H10.8333V5.83333H9.16663ZM12.5 8.33333V14.1667H14.1666V8.33333H12.5Z" fill="white"/>
</svg>
