<svg width="61" height="60" viewBox="0 0 61 60" fill="none" xmlns="http://www.w3.org/2000/svg">
<circle opacity="0.15" cx="30.5" cy="30" r="30" fill="#A5CEFF"/>
<path d="M31.5 38.9998V40.9998H29.5V38.9998H21.5C21.2348 38.9998 20.9804 38.8945 20.7929 38.7069C20.6054 38.5194 20.5 38.265 20.5 37.9998V21.9998C20.5 21.7346 20.6054 21.4802 20.7929 21.2927C20.9804 21.1052 21.2348 20.9998 21.5 20.9998H27.5C28.0676 20.9991 28.6288 21.1196 29.1461 21.3531C29.6635 21.5866 30.125 21.9277 30.5 22.3538C30.875 21.9277 31.3365 21.5866 31.8539 21.3531C32.3712 21.1196 32.9324 20.9991 33.5 20.9998H39.5C39.7652 20.9998 40.0196 21.1052 40.2071 21.2927C40.3946 21.4802 40.5 21.7346 40.5 21.9998V37.9998C40.5 38.265 40.3946 38.5194 40.2071 38.7069C40.0196 38.8945 39.7652 38.9998 39.5 38.9998H31.5ZM38.5 36.9998V22.9998H33.5C32.9696 22.9998 32.4609 23.2105 32.0858 23.5856C31.7107 23.9607 31.5 24.4694 31.5 24.9998V36.9998H38.5ZM29.5 36.9998V24.9998C29.5 24.4694 29.2893 23.9607 28.9142 23.5856C28.5391 23.2105 28.0304 22.9998 27.5 22.9998H22.5V36.9998H29.5Z" fill="#5998F8"/>
</svg>
