<svg width="20" height="20" viewBox="0 0 20 20" fill="none" xmlns="http://www.w3.org/2000/svg">
<path d="M4.16665 1.66667H15.8333C16.0543 1.66667 16.2663 1.75447 16.4226 1.91075C16.5788 2.06703 16.6666 2.27899 16.6666 2.50001V18.4525C16.6667 18.527 16.6469 18.6002 16.6091 18.6644C16.5713 18.7286 16.5169 18.7815 16.4518 18.8176C16.3866 18.8537 16.3129 18.8716 16.2384 18.8695C16.164 18.8675 16.0914 18.8455 16.0283 18.8058L9.99998 15.025L3.97165 18.805C3.90862 18.8446 3.83614 18.8666 3.76173 18.8687C3.68733 18.8708 3.61372 18.8529 3.54856 18.8169C3.4834 18.781 3.42907 18.7282 3.39122 18.6641C3.35336 18.6 3.33337 18.5269 3.33331 18.4525V2.50001C3.33331 2.27899 3.42111 2.06703 3.57739 1.91075C3.73367 1.75447 3.94563 1.66667 4.16665 1.66667ZM15 3.33334H4.99998V16.1933L9.99998 13.0592L15 16.1933V3.33334Z" fill="#B4C0D4"/>
</svg>
