<svg width="16" height="16" viewBox="0 0 16 16" fill="none" xmlns="http://www.w3.org/2000/svg">
<path d="M11.332 2.00008H13.9987C14.1755 2.00008 14.3451 2.07032 14.4701 2.19534C14.5951 2.32037 14.6654 2.48994 14.6654 2.66675V13.3334C14.6654 13.5102 14.5951 13.6798 14.4701 13.8048C14.3451 13.9298 14.1755 14.0001 13.9987 14.0001H1.9987C1.82189 14.0001 1.65232 13.9298 1.52729 13.8048C1.40227 13.6798 1.33203 13.5102 1.33203 13.3334V2.66675C1.33203 2.48994 1.40227 2.32037 1.52729 2.19534C1.65232 2.07032 1.82189 2.00008 1.9987 2.00008H4.66536V0.666748H5.9987V2.00008H9.9987V0.666748H11.332V2.00008ZM9.9987 3.33341H5.9987V4.66675H4.66536V3.33341H2.66536V6.00008H13.332V3.33341H11.332V4.66675H9.9987V3.33341ZM13.332 7.33341H2.66536V12.6667H13.332V7.33341Z" fill="#B4C0D4"/>
</svg>
