<svg width="20" height="20" viewBox="0 0 20 20" fill="none" xmlns="http://www.w3.org/2000/svg">
<path d="M14.1666 2.49998H17.5C17.721 2.49998 17.9329 2.58778 18.0892 2.74406C18.2455 2.90034 18.3333 3.1123 18.3333 3.33331V16.6666C18.3333 16.8877 18.2455 17.0996 18.0892 17.2559C17.9329 17.4122 17.721 17.5 17.5 17.5H2.49996C2.27895 17.5 2.06698 17.4122 1.9107 17.2559C1.75442 17.0996 1.66663 16.8877 1.66663 16.6666V3.33331C1.66663 3.1123 1.75442 2.90034 1.9107 2.74406C2.06698 2.58778 2.27895 2.49998 2.49996 2.49998H5.83329V0.833313H7.49996V2.49998H12.5V0.833313H14.1666V2.49998ZM3.33329 7.49998V15.8333H16.6666V7.49998H3.33329ZM4.99996 10.8333H9.16663V14.1666H4.99996V10.8333Z" fill="white"/>
</svg>
