<svg width="18" height="18" viewBox="0 0 18 18" fill="none" xmlns="http://www.w3.org/2000/svg">
<path d="M2.25 2.55C2.25 2.38431 2.38431 2.25 2.55 2.25H7.95C8.11569 2.25 8.25 2.38431 8.25 2.55V7.95C8.25 8.11569 8.11569 8.25 7.95 8.25H2.55C2.38431 8.25 2.25 8.11569 2.25 7.95V2.55ZM4.05 3.75C3.88431 3.75 3.75 3.88431 3.75 4.05V6.45C3.75 6.61569 3.88431 6.75 4.05 6.75H6.45C6.61569 6.75 6.75 6.61569 6.75 6.45V4.05C6.75 3.88431 6.61569 3.75 6.45 3.75H4.05Z" fill="#7B89A6"/>
<path d="M9.75 2.55C9.75 2.38431 9.88431 2.25 10.05 2.25H15.45C15.6157 2.25 15.75 2.38431 15.75 2.55V7.95C15.75 8.11569 15.6157 8.25 15.45 8.25H10.05C9.88431 8.25 9.75 8.11569 9.75 7.95V2.55ZM11.55 3.75C11.3843 3.75 11.25 3.88431 11.25 4.05V6.45C11.25 6.61569 11.3843 6.75 11.55 6.75H13.95C14.1157 6.75 14.25 6.61569 14.25 6.45V4.05C14.25 3.88431 14.1157 3.75 13.95 3.75H11.55Z" fill="#7B89A6"/>
<path d="M2.25 10.05C2.25 9.88431 2.38431 9.75 2.55 9.75H7.95C8.11569 9.75 8.25 9.88431 8.25 10.05V15.45C8.25 15.6157 8.11569 15.75 7.95 15.75H2.55C2.38431 15.75 2.25 15.6157 2.25 15.45V10.05ZM4.05 11.25C3.88431 11.25 3.75 11.3843 3.75 11.55V13.95C3.75 14.1157 3.88431 14.25 4.05 14.25H6.45C6.61569 14.25 6.75 14.1157 6.75 13.95V11.55C6.75 11.3843 6.61569 11.25 6.45 11.25H4.05Z" fill="#7B89A6"/>
<path d="M9.75 10.05C9.75 9.88431 9.88431 9.75 10.05 9.75H15.45C15.6157 9.75 15.75 9.88431 15.75 10.05V15.45C15.75 15.6157 15.6157 15.75 15.45 15.75H10.05C9.88431 15.75 9.75 15.6157 9.75 15.45V10.05ZM11.55 11.25C11.3843 11.25 11.25 11.3843 11.25 11.55V13.95C11.25 14.1157 11.3843 14.25 11.55 14.25H13.95C14.1157 14.25 14.25 14.1157 14.25 13.95V11.55C14.25 11.3843 14.1157 11.25 13.95 11.25H11.55Z" fill="#7B89A6"/>
</svg>
