<svg width="191" height="146" viewBox="0 0 191 146" fill="none" xmlns="http://www.w3.org/2000/svg">
<path opacity="0.54" d="M80.9058 137.847C85.4316 140.44 74.2422 143.942 72.6729 144.192C55.7296 146.921 37.3763 145.648 20.5922 142.191C19.9099 142.054 19.1821 141.895 18.6136 141.44C14.4516 138.211 27.8016 136.027 29.0297 135.868C33.6237 135.231 38.3087 134.822 42.9482 134.754C49.5436 134.663 75.2883 134.663 80.9058 137.847Z" fill="#E8EEF9"/>
<path opacity="0.54" d="M169.124 137.847C176.675 140.44 158.003 143.942 155.388 144.193C127.073 146.922 96.4389 145.648 68.3971 142.191C67.2373 142.055 66.0546 141.896 65.0994 141.441C58.1629 138.211 80.428 136.028 82.4976 135.869C90.1846 135.232 97.9854 134.823 105.741 134.754C116.748 134.663 159.755 134.663 169.124 137.847Z" fill="#E8EEF9"/>
<path d="M42.061 48.3529C42.061 72.3692 69.4887 92.178 104.922 95.0209C107.81 95.2483 121.66 95.1573 125.504 94.7252C129.006 94.3386 132.44 93.7928 135.738 93.0878C136.716 92.8831 163.962 105.05 163.962 105.05C163.962 105.05 155.865 86.4924 158.981 84.7867C174.969 75.9853 185.34 63.0447 185.34 48.3529C185.34 22.3807 153.273 1.34375 113.701 1.34375C74.1282 1.34375 42.061 22.3807 42.061 48.3529Z" fill="#EFEFEF"/>
<path d="M153.682 80.5786C168.919 72.2093 178.835 59.9282 178.835 45.9642C178.835 21.3111 149.361 1.32031 111.608 1.32031C94.4598 1.32031 78.6991 6.25548 66.5317 13.5559C95.6196 14.2382 118.863 29.9306 118.863 49.1709C118.863 66.5009 97.6665 82.6482 77.3345 85.0134C77.3345 85.0134 93.2089 89.5392 102.079 90.2442C104.83 90.4716 118.067 90.3807 121.728 89.9713C125.071 89.6074 128.346 89.0844 131.508 88.4248C132.463 88.2201 157.889 99.7734 157.889 99.7734C157.889 99.7734 150.702 82.1933 153.682 80.5786Z" fill="white"/>
<path d="M41.5151 48.3995C41.5606 58.6564 46.6095 67.89 53.8417 74.9174C62.5976 83.4005 74.0144 88.836 85.6587 92.0654C91.9812 93.8166 98.5993 95.0447 105.149 95.4086C109.811 95.6815 114.542 95.5223 119.204 95.4086C121.228 95.3631 123.275 95.3176 125.299 95.113C127.301 94.9083 129.279 94.6354 131.258 94.2942C132.145 94.135 133.054 93.9758 133.941 93.8166C134.419 93.7256 134.919 93.6574 135.397 93.521C135.602 93.4755 135.715 93.4755 135.556 93.4527C136.42 93.5437 137.376 94.0668 138.172 94.3852C139.786 95.022 141.401 95.7043 143.016 96.3865C149.748 99.2294 156.411 102.186 163.075 105.165C163.211 105.233 163.348 105.302 163.507 105.347C163.734 105.438 164.667 105.347 164.485 104.915C162.461 100.276 160.573 95.4541 159.391 90.5417C159.095 89.2908 158.799 87.9717 158.799 86.6527C158.799 86.2661 158.822 85.7657 159.004 85.4018C159.3 84.8105 160.096 84.5831 160.641 84.2647C165.213 81.6265 169.556 78.5108 173.354 74.8265C179.927 68.504 184.931 60.2712 185.749 51.0376C186.409 43.5098 184.226 36.0729 180.155 29.7732C170.421 14.6721 152.136 6.50744 135.101 3.0733C114.815 -1.02039 92.7089 0.617086 73.6733 8.98639C59.3454 15.2861 44.8128 26.7029 41.97 43.0094C41.6743 44.7834 41.5151 46.6028 41.5151 48.3995C41.5151 48.9226 42.6295 48.7179 42.6295 48.2858C42.6978 31.7973 55.4337 19.1296 69.1702 11.9202C87.3644 2.34553 109.152 -0.133423 129.325 2.84587C146.905 5.43854 165.736 12.7617 176.993 27.1578C181.519 32.9572 184.544 39.9847 184.771 47.3988C185.067 56.5868 181.087 65.1608 175.015 71.8927C171.535 75.7589 167.464 79.0566 163.12 81.8767C162.074 82.559 161.005 83.1958 159.936 83.8098C159.322 84.1737 158.504 84.4239 158.094 85.0607C157.639 85.743 157.662 86.6982 157.73 87.4714C157.912 90.4052 158.936 93.339 159.891 96.1136C160.801 98.7518 161.801 101.367 162.87 103.937C163.052 104.346 163.211 104.756 163.393 105.165C163.712 105.029 164.053 104.87 164.371 104.733C158.594 102.14 152.795 99.5933 146.973 97.0916C143.857 95.7498 140.741 94.3624 137.535 93.1798C136.58 92.8159 136.034 92.6567 135.01 92.8614C131.531 93.5665 127.96 94.1805 124.412 94.4307C113.996 95.1584 103.443 95.022 93.1865 92.9751C80.7918 90.5189 68.5562 85.7202 58.6176 77.7603C50.6122 71.3469 44.1305 62.4545 42.8115 52.0611C42.6523 50.7875 42.584 49.5139 42.5613 48.2403C42.6068 47.7627 41.5151 47.9674 41.5151 48.3995Z" fill="#6A79A8"/>
<path d="M149.201 42.3272C149.065 43.4416 149.884 44.465 150.998 44.5787C152.112 44.7151 153.136 43.8964 153.25 42.782C153.386 41.6676 152.567 40.6442 151.453 40.5305C150.339 40.394 149.338 41.2128 149.201 42.3272Z" fill="#6A79A8"/>
<path d="M130.12 36.1631C129.984 37.2775 130.803 38.3009 131.917 38.4146C133.031 38.5511 134.055 37.7323 134.169 36.618C134.305 35.5036 133.486 34.4801 132.372 34.3664C131.257 34.23 130.234 35.0487 130.12 36.1631Z" fill="#6A79A8"/>
<path d="M135.601 39.073C133.691 38.4134 131.78 37.7766 129.87 37.1171C129.392 36.9579 128.574 37.6402 129.233 37.8676C131.143 38.5271 133.054 39.1639 134.964 39.8235C135.442 39.9827 136.261 39.3004 135.601 39.073Z" fill="#6A79A8"/>
<path d="M155.524 45.8059C153.386 45.0099 151.248 44.1912 149.11 43.3952C148.815 43.2815 147.996 43.7363 148.064 43.7591C150.202 44.5551 152.34 45.3738 154.478 46.1698C154.796 46.2835 155.615 45.8286 155.524 45.8059Z" fill="#6A79A8"/>
<path d="M124.123 42.9298C124.743 40.8996 124.008 38.8763 122.483 38.4105C120.957 37.9447 119.218 39.2128 118.598 41.243C117.978 43.2732 118.712 45.2965 120.238 45.7623C121.764 46.2281 123.503 44.9599 124.123 42.9298Z" fill="#EF8F7F"/>
<path d="M159.472 53.8844C160.092 51.8542 159.358 49.8308 157.832 49.3651C156.307 48.8993 154.567 50.1674 153.947 52.1976C153.328 54.2278 154.062 56.2511 155.588 56.7169C157.113 57.1827 158.852 55.9146 159.472 53.8844Z" fill="#EF8F7F"/>
<path d="M148.246 51.9473C141.878 55.1767 132.417 52.0383 128.983 45.8068C128.755 45.3974 127.709 45.784 127.982 46.2844C129.642 49.3091 132.94 51.5834 136.078 52.7888C139.967 54.2898 144.925 54.4717 148.746 52.5386C149.406 52.1974 148.792 51.6744 148.246 51.9473Z" fill="#6A79A8"/>
<path d="M175.674 4.36883C174.514 7.09795 173.718 9.91804 173.286 12.8518C173.241 13.1475 174.332 12.9656 174.378 12.6699C174.787 9.7361 175.583 6.89326 176.766 4.18688C176.857 3.95945 175.81 4.05043 175.674 4.36883Z" fill="#6A79A8"/>
<path d="M179.199 15.6727C181.246 13.1255 183.566 10.8513 186.204 8.94089C186.795 8.50878 185.885 8.23587 185.499 8.50878C182.792 10.4647 180.382 12.8072 178.289 15.3998C177.857 15.9229 178.903 16.0139 179.199 15.6727Z" fill="#6A79A8"/>
<path d="M181.519 20.1964C184.271 19.2412 187.114 18.6726 190.002 18.4679C190.57 18.4225 190.889 17.7629 190.138 17.8084C187.136 18.0131 184.202 18.6044 181.337 19.5823C180.723 19.8098 180.859 20.4238 181.519 20.1964Z" fill="#6A79A8"/>
<path d="M114.087 47.6028C114.087 66.1608 92.8909 81.4666 65.5315 83.6499C63.3027 83.8319 52.5909 83.7637 49.6343 83.4225C46.9279 83.1269 44.2898 82.6947 41.7199 82.1717C40.9466 82.0125 18.8862 91.4052 18.8862 91.4052C18.8862 91.4052 26.1639 77.0773 23.7531 75.7582C11.4039 68.9582 3.39844 58.9741 3.39844 47.6028C3.39844 27.5437 28.1652 11.2827 58.7314 11.2827C89.2976 11.2827 114.087 27.5437 114.087 47.6028Z" fill="#C1D3FF"/>
<path d="M113.86 45.2823C114.224 62.6577 94.142 76.9856 68.3746 79.0325C66.2822 79.1917 56.2072 79.1235 53.4099 78.8278C50.8627 78.5549 48.3837 78.1455 45.973 77.6452C45.2453 77.486 24.6404 86.2874 24.6404 86.2874C24.6404 86.2874 31.3267 72.8692 29.0525 71.6184C17.4309 65.2504 9.88037 55.9032 9.88037 45.2596C9.88037 26.4741 33.2144 11.2593 61.9839 11.2593C90.7534 11.2593 113.519 30.022 113.86 45.2823Z" fill="#FDFDFF"/>
<path d="M113.541 47.6476C113.451 66.5695 93.4824 77.6679 77.3579 81.466C72.8321 82.5349 68.1471 83.2854 63.4848 83.3536C59.5731 83.4218 55.6386 83.3763 51.7041 83.1944C49.5208 83.0807 47.3603 82.785 45.1997 82.4212C43.8351 82.1937 42.4024 81.5569 41.0378 81.9663C38.7863 82.6486 36.6257 83.6265 34.4424 84.5135C29.1661 86.6513 23.8898 88.8801 18.659 91.1089C18.9092 91.2226 19.1593 91.3135 19.4095 91.4273C21.0697 88.1523 22.6162 84.7637 23.7988 81.284C24.2992 79.8512 25.2316 77.6224 24.6858 76.0759C24.5948 75.8258 24.4811 75.6438 24.2764 75.4846C23.5941 74.9161 22.639 74.5522 21.8884 74.0973C20.1373 73.0284 18.4316 71.8458 16.8168 70.5722C11.0402 66.0464 6.15051 59.9514 4.51303 52.6737C3.19396 46.7606 4.24012 40.5973 7.15119 35.321C13.7238 23.3356 27.4832 16.6493 40.2645 13.67C55.9797 10.0084 73.3552 11.0091 88.2744 17.3316C99.4183 22.0393 110.79 30.727 113.109 43.3037C113.405 44.7593 113.519 46.192 113.541 47.6476C113.541 48.1707 114.656 47.966 114.656 47.5339C114.588 34.8207 104.967 25.0186 94.4376 19.2874C80.3599 11.6459 63.3484 9.53083 47.5877 11.6686C33.7601 13.5335 19.0001 19.0145 9.81208 29.9765C6.12777 34.3658 3.51236 39.6876 2.98927 45.4188C2.35248 52.3781 4.87692 59.0872 9.17529 64.4772C11.586 67.4792 14.4516 70.0946 17.5673 72.3461C19.3185 73.6197 21.1607 74.7569 23.0256 75.8258C23.7306 76.2351 23.7761 76.7582 23.6851 77.5542C23.4804 79.874 22.4798 82.1937 21.5928 84.3088C20.7513 86.3556 19.8416 88.357 18.8637 90.3584C18.7045 90.6768 18.5453 91.0179 18.3861 91.3363C18.1586 91.7911 18.9092 91.7457 19.1366 91.6547C23.7079 89.6988 28.3019 87.7884 32.8959 85.878C35.4658 84.8319 38.0358 83.7402 40.6512 82.8078C40.9468 82.7168 41.2197 82.5804 41.5381 82.5121C41.7201 82.4666 41.7201 82.4894 41.5381 82.4894C42.2886 82.4894 43.1301 82.8078 43.8806 82.9442C46.2004 83.3536 48.5656 83.7175 50.9309 83.854C59.2774 84.3315 67.6013 84.1951 75.8114 82.4666C85.3633 80.4425 94.8243 76.6218 102.42 70.3903C109.357 64.7046 114.633 56.6992 114.679 47.5111C114.633 47.0108 113.541 47.2155 113.541 47.6476Z" fill="#6A79A8"/>
<path d="M58.2997 41.9393C57.8676 41.8938 57.4583 41.6891 57.1626 41.3253C56.5713 40.6202 56.6623 39.5741 57.3445 39.0055C57.6857 38.7326 58.1178 38.5961 58.5499 38.6644C58.982 38.7098 59.3686 38.9373 59.6643 39.2784C60.2556 39.9834 60.1646 41.0296 59.4824 41.5982C59.1412 41.8711 58.7091 41.9848 58.2997 41.9393Z" fill="#445069"/>
<path d="M80.6327 40.962C80.2006 40.9166 79.7913 40.7119 79.4956 40.348C78.9043 39.643 78.9953 38.5968 79.6776 38.0282C80.3598 37.4597 81.406 37.5734 81.9973 38.2784C82.2702 38.6195 82.4067 39.0517 82.3839 39.4838C82.3612 39.9159 82.1565 40.3253 81.8154 40.5982C81.4742 40.8938 81.0421 41.0075 80.6327 40.962Z" fill="#445069"/>
<path d="M63.9851 51.2196C62.6888 51.2423 61.7563 52.5159 62.143 53.744C63.2573 57.3373 66.646 59.93 70.6032 59.8845C74.5605 59.839 77.8809 57.1554 78.9043 53.5393C79.2682 52.2885 78.313 51.0376 76.9939 51.0604L63.9851 51.2196Z" fill="#445069"/>
<path d="M53.0008 51.2192C52.9553 53.2206 51.7045 54.8353 50.1807 54.7898C48.6797 54.7671 47.4743 53.1069 47.5198 51.0828C47.5653 49.0814 48.8161 47.4667 50.3399 47.5122C51.8409 47.5349 53.0463 49.1951 53.0008 51.2192Z" fill="#C1D3FF"/>
<path d="M92.1414 52.0825C92.0959 54.0839 90.8451 55.6986 89.3213 55.6531C87.8203 55.6304 86.6149 53.9702 86.6604 51.9461C86.7059 49.9447 87.9568 48.33 89.4805 48.3754C91.0043 48.4209 92.1869 50.0811 92.1414 52.0825Z" fill="#C1D3FF"/>
<path d="M4.7635 10.8738C6.17355 13.4892 7.92474 15.8999 9.99432 18.0377C10.199 18.2652 11.2224 17.8558 11.0177 17.6511C8.99364 15.5133 7.2652 13.1481 5.85515 10.5781C5.69595 10.2825 4.64979 10.6691 4.7635 10.8738Z" fill="#6A79A8"/>
<path d="M0.0100102 19.4922C2.53445 21.0842 5.24083 22.3123 8.10641 23.1765C8.35658 23.2447 9.31177 22.8581 9.01611 22.7671C6.19602 21.9029 3.55787 20.6976 1.05617 19.1283C0.78326 18.9691 -0.103703 19.424 0.0100102 19.4922Z" fill="#6A79A8"/>
<path d="M16.2486 15.5803C15.5209 12.3963 15.1797 9.14407 15.3162 5.86912C15.3389 5.34604 14.2245 5.55073 14.2018 5.98284C14.0653 9.32601 14.4065 12.6237 15.157 15.8759C15.2707 16.3308 16.3624 16.0351 16.2486 15.5803Z" fill="#6A79A8"/>
</svg>
