<svg width="16" height="16" viewBox="0 0 16 16" fill="none" xmlns="http://www.w3.org/2000/svg">
<path d="M4.86065 13.8827L1.33332 14.6667L2.11732 11.1393C1.60101 10.1736 1.33167 9.09511 1.33332 8.00001C1.33332 4.31801 4.31799 1.33334 7.99999 1.33334C11.682 1.33334 14.6667 4.31801 14.6667 8.00001C14.6667 11.682 11.682 14.6667 7.99999 14.6667C6.90489 14.6683 5.8264 14.399 4.86065 13.8827ZM5.05399 12.474L5.48932 12.7073C6.26169 13.1201 7.12425 13.3352 7.99999 13.3333C9.05482 13.3333 10.086 13.0205 10.963 12.4345C11.8401 11.8485 12.5237 11.0155 12.9273 10.041C13.331 9.06645 13.4366 7.99409 13.2308 6.95953C13.0251 5.92496 12.5171 4.97465 11.7712 4.22877C11.0253 3.48289 10.075 2.97494 9.04047 2.76916C8.0059 2.56337 6.93355 2.66899 5.95901 3.07265C4.98447 3.47632 4.15152 4.15991 3.56548 5.03697C2.97945 5.91403 2.66665 6.94518 2.66665 8.00001C2.66665 8.88934 2.88332 9.74534 3.29332 10.5107L3.52599 10.946L3.08932 12.9107L5.05399 12.474Z" fill="#50A98F"/>
</svg>
