<svg width="228" height="208" viewBox="0 0 228 208" fill="none" xmlns="http://www.w3.org/2000/svg">
<g clip-path="url(#clip0)">
<path d="M228 -6H0V222H228V-6Z" fill="white"/>
<path d="M228 -6H0V222H228V-6Z" fill="white"/>
<path d="M16.7844 41.8193H85.3668C91.5912 41.8193 96.6414 46.8695 96.6414 53.0939V60.5381C96.6414 62.1797 97.2912 63.7529 98.454 64.9157L102.832 69.2933L98.454 73.6709C97.2912 74.8337 96.6414 76.4069 96.6414 78.0485V85.5041C96.6414 91.7285 91.5912 96.7787 85.3668 96.7787H16.7844C10.56 96.7787 5.50983 91.7285 5.50983 85.5041V53.0825C5.50983 46.8581 10.56 41.8193 16.7844 41.8193Z" fill="white"/>
<path d="M16.7389 42.1841C17.8333 42.1841 18.9277 42.1841 20.0221 42.1841C22.8835 42.1841 25.7449 42.1841 28.6063 42.1841C32.5849 42.1841 36.5521 42.1841 40.5307 42.1841C45.0223 42.1841 49.5025 42.1841 53.9941 42.1841C58.3375 42.1841 62.6923 42.1841 67.0357 42.1841C70.6039 42.1841 74.1835 42.1841 77.7517 42.1841C79.9177 42.1841 82.0837 42.1841 84.2383 42.1841C84.5917 42.1841 84.9451 42.1841 85.2985 42.1841C88.0117 42.2069 90.6337 43.2443 92.6173 45.0911C94.8403 47.1545 96.1057 50.0957 96.1171 53.1167C96.1285 54.7925 96.1171 56.4797 96.1171 58.1669C96.1171 60.2531 95.9689 62.3051 97.1887 64.1519C97.6447 64.8359 98.2489 65.3945 98.8303 65.9759C99.5941 66.7397 100.358 67.5035 101.11 68.2559C101.532 68.6777 101.943 69.0881 102.364 69.5099C102.376 69.3845 102.387 69.2591 102.399 69.1337C101.532 70.0001 100.677 70.8551 99.8107 71.7215C98.8189 72.7133 97.6789 73.6709 96.9721 74.8907C96.1627 76.3043 96.1171 77.7863 96.1171 79.3595C96.1171 80.9669 96.1171 82.5743 96.1171 84.1817C96.1171 85.6409 96.1171 87.0659 95.7295 88.4909C95.1253 90.7139 93.7915 92.7089 91.9903 94.1339C89.9269 95.7641 87.4759 96.4025 84.8881 96.4025C81.4225 96.4025 77.9569 96.4025 74.4799 96.4025C68.2441 96.4025 61.9969 96.4025 55.7611 96.4025C49.0123 96.4025 42.2635 96.4025 35.5147 96.4025C30.5101 96.4025 25.5055 96.4025 20.5009 96.4025C19.3723 96.4025 18.2551 96.4025 17.1265 96.4025C14.1283 96.4025 11.2555 95.3081 9.1465 93.1535C7.5049 91.4663 6.4333 89.2889 6.1027 86.9633C6.0001 86.2565 6.00011 85.5383 6.00011 84.8315C6.00011 82.7225 6.00011 80.6021 6.00011 78.4931C6.00011 72.0065 6.00011 65.5199 6.00011 59.0333C6.00011 57.1637 6.00011 55.2827 6.00011 53.4131C6.00011 49.8335 7.45931 46.4705 10.3663 44.2931C12.2245 42.9023 14.4475 42.2069 16.7389 42.1841C17.3089 42.1841 17.4913 41.4317 16.8187 41.4317C12.0877 41.4659 7.65311 44.3501 5.86331 48.7619C5.01971 50.8253 5.00831 52.9115 5.00831 55.0775C5.00831 61.1993 5.00831 67.3211 5.00831 73.4429C5.00831 76.3841 5.00831 79.3253 5.00831 82.2665C5.00831 83.7485 4.92851 85.2647 5.06531 86.7467C5.52131 91.4435 8.99831 95.4905 13.5469 96.7217C15.0175 97.1207 16.4767 97.1435 17.9701 97.1435C22.0855 97.1435 26.2123 97.1435 30.3277 97.1435C36.9055 97.1435 43.4833 97.1435 50.0497 97.1435C56.7643 97.1435 63.4789 97.1435 70.1935 97.1435C74.6167 97.1435 79.0513 97.1435 83.4745 97.1435C84.3181 97.1435 85.1731 97.1777 86.0167 97.1207C90.6907 96.8243 94.9315 93.6893 96.4705 89.2433C97.0063 87.7043 97.1089 86.1425 97.1089 84.5237C97.1089 82.9277 97.1089 81.3431 97.1089 79.7471C97.1089 78.1967 97.0291 76.6919 97.7815 75.2555C98.4427 73.9787 99.6967 72.9641 100.711 71.9495C101.544 71.1173 102.387 70.2737 103.219 69.4415C103.299 69.3617 103.356 69.1565 103.254 69.0653C102.057 67.8683 100.848 66.6599 99.6511 65.4629C99.0469 64.8587 98.4313 64.2887 97.9753 63.5477C97.3369 62.5103 97.1089 61.3475 97.1089 60.1391C97.1089 58.1783 97.1089 56.2289 97.1089 54.2681C97.1089 52.0679 96.9265 49.9817 95.9461 47.9639C93.9169 43.8029 89.6761 41.4317 85.1161 41.4317C83.4517 41.4317 81.7987 41.4317 80.1343 41.4317C76.8739 41.4317 73.6135 41.4317 70.3645 41.4317C66.1465 41.4317 61.9285 41.4317 57.7105 41.4317C53.1847 41.4317 48.6475 41.4317 44.1217 41.4317C39.9037 41.4317 35.6857 41.4317 31.4791 41.4317C28.2529 41.4317 25.0381 41.4317 21.8119 41.4317C20.2159 41.4317 18.6085 41.3975 17.0125 41.4317C16.9441 41.4317 16.8643 41.4317 16.7959 41.4317C16.2487 41.4431 16.0663 42.1841 16.7389 42.1841Z" fill="#687693"/>
<path d="M71.9377 75.9737C71.9377 75.6887 72.0288 75.4037 72.2112 75.1187C72.3936 74.8337 72.6558 74.5943 73.0092 74.4005C73.3626 74.2067 73.7617 74.1155 74.2291 74.1155C74.6623 74.1155 75.0385 74.1953 75.3691 74.3549C75.6997 74.5145 75.9505 74.7311 76.1329 75.0047C76.3153 75.2783 76.4065 75.5747 76.3951 75.9053C76.3951 76.1561 76.3381 76.3841 76.2355 76.5665C76.1329 76.7603 76.0075 76.9199 75.8707 77.0567C75.7339 77.1935 75.4717 77.4215 75.1069 77.7521C75.0043 77.8433 74.9245 77.9231 74.8675 77.9915C74.8105 78.0599 74.7649 78.1283 74.7307 78.1853C74.6965 78.2423 74.6736 78.2993 74.6622 78.3563C74.6508 78.4133 74.6167 78.5159 74.5825 78.6641C74.5255 78.9719 74.3431 79.1315 74.0467 79.1315C73.8871 79.1315 73.7617 79.0745 73.6591 78.9833C73.5565 78.8807 73.4995 78.7325 73.4995 78.5273C73.4995 78.2765 73.5451 78.0599 73.6135 77.8775C73.6933 77.6951 73.7958 77.5355 73.9212 77.3987C74.0466 77.2619 74.2291 77.0909 74.4457 76.9085C74.6395 76.7375 74.7763 76.6121 74.8561 76.5323C74.9359 76.4525 75.0157 76.3499 75.0727 76.2473C75.1297 76.1447 75.1639 76.0307 75.1639 75.9053C75.1639 75.6659 75.0727 75.4607 74.9017 75.3011C74.7307 75.1415 74.4913 75.0503 74.2177 75.0503C73.8871 75.0503 73.6477 75.1301 73.4881 75.3011C73.3285 75.4607 73.2031 75.7115 73.0891 76.0307C72.9865 76.3727 72.7927 76.5323 72.5077 76.5323C72.3367 76.5323 72.1999 76.4753 72.0859 76.3499C71.9947 76.2359 71.9377 76.1105 71.9377 75.9737ZM74.1037 80.8871C73.9213 80.8871 73.7617 80.8301 73.6249 80.7047C73.4881 80.5907 73.4197 80.4197 73.4197 80.2145C73.4197 80.0321 73.4881 79.8725 73.6135 79.7357C73.7503 79.6103 73.9098 79.5419 74.0922 79.5419C74.2746 79.5419 74.4343 79.6103 74.5711 79.7357C74.6965 79.8611 74.7649 80.0207 74.7649 80.2145C74.7649 80.4197 74.6965 80.5907 74.5597 80.7047C74.4343 80.8187 74.2747 80.8871 74.1037 80.8871Z" fill="#687693"/>
<path d="M69.5893 80.2599C68.1073 80.2599 66.6253 80.2599 65.1319 80.2599C61.5865 80.2599 58.0411 80.2599 54.4957 80.2599C50.2093 80.2599 45.9229 80.2599 41.6365 80.2599C37.9087 80.2599 34.1809 80.2599 30.4645 80.2599C28.6633 80.2599 26.8393 80.1915 25.0381 80.2599C25.0153 80.2599 24.9925 80.2599 24.9583 80.2599C24.7759 80.2599 24.3769 80.3283 24.3085 80.5221C24.2287 80.7159 24.3769 80.7957 24.5707 80.7957C26.0527 80.7957 27.5347 80.7957 29.0281 80.7957C32.5735 80.7957 36.1189 80.7957 39.6643 80.7957C43.9507 80.7957 48.2371 80.7957 52.5235 80.7957C56.2513 80.7957 59.9791 80.7957 63.6955 80.7957C65.4967 80.7957 67.3207 80.8641 69.1219 80.7957C69.1447 80.7957 69.1675 80.7957 69.2017 80.7957C69.3841 80.7957 69.7831 80.7273 69.8515 80.5335C69.9313 80.3283 69.7945 80.2599 69.5893 80.2599Z" fill="#687693"/>
<path d="M57.1975 69.1562C53.5609 69.1562 49.9243 69.1562 46.2877 69.1562C40.4965 69.1562 34.7053 69.1562 28.9141 69.1562C27.5917 69.1562 26.2807 69.1562 24.9583 69.1562C24.7531 69.1562 24.3883 69.2133 24.3085 69.4413C24.2287 69.6465 24.3769 69.7719 24.5935 69.7719C28.2301 69.7719 31.8667 69.7719 35.5033 69.7719C41.2945 69.7719 47.0857 69.7719 52.8769 69.7719C54.1993 69.7719 55.5103 69.7719 56.8327 69.7719C57.0379 69.7719 57.4027 69.7149 57.4825 69.4869C57.5509 69.2817 57.4027 69.1562 57.1975 69.1562Z" fill="#687693"/>
<path d="M77.3298 57.6997C75.5856 57.6997 73.8528 57.6997 72.1086 57.6997C67.9362 57.6997 63.7524 57.6997 59.58 57.6997C54.5298 57.6997 49.4682 57.6997 44.418 57.6997C40.0404 57.6997 35.6742 57.6997 31.2966 57.6997C29.1762 57.6997 27.0216 57.5971 24.9012 57.6997C24.867 57.6997 24.8442 57.6997 24.81 57.6997C24.24 57.6997 24.0576 58.4293 24.7302 58.4293C26.4744 58.4293 28.2072 58.4293 29.9514 58.4293C34.1238 58.4293 38.3076 58.4293 42.48 58.4293C47.5302 58.4293 52.5918 58.4293 57.642 58.4293C62.0196 58.4293 66.3858 58.4293 70.7634 58.4293C72.8838 58.4293 75.0384 58.5319 77.1588 58.4293C77.193 58.4293 77.2158 58.4293 77.25 58.4293C77.8086 58.4293 78.0024 57.6997 77.3298 57.6997Z" fill="#687693"/>
<path d="M211.975 165.631H143.393C137.169 165.631 132.118 160.581 132.118 154.356V146.912C132.118 145.27 131.469 143.697 130.306 142.534L125.928 138.157L130.306 133.779C131.469 132.616 132.118 131.043 132.118 129.402V121.946C132.118 115.722 137.169 110.671 143.393 110.671H211.975C218.2 110.671 223.25 115.722 223.25 121.946V154.368C223.25 160.592 218.2 165.631 211.975 165.631Z" fill="white"/>
<path d="M212.181 165.391C211.086 165.391 209.992 165.391 208.897 165.391C206.036 165.391 203.175 165.391 200.313 165.391C196.323 165.391 192.333 165.391 188.332 165.391C183.84 165.391 179.36 165.391 174.868 165.391C170.525 165.391 166.182 165.391 161.827 165.391C158.259 165.391 154.69 165.391 151.122 165.391C148.968 165.391 146.813 165.391 144.658 165.391C144.305 165.391 143.963 165.391 143.61 165.391C140.817 165.38 138.126 164.286 136.108 162.359C133.874 160.25 132.643 157.297 132.631 154.231C132.62 152.578 132.631 150.936 132.631 149.283C132.631 147.208 132.791 145.156 131.583 143.332C131.127 142.648 130.522 142.09 129.941 141.508C129.177 140.745 128.413 139.981 127.661 139.228C127.239 138.807 126.829 138.396 126.407 137.974C126.407 138.031 126.407 138.088 126.396 138.145C127.262 137.279 128.117 136.424 128.983 135.558C129.952 134.589 131.115 133.62 131.799 132.411C132.597 131.009 132.631 129.538 132.631 127.988C132.631 126.381 132.631 124.773 132.631 123.166C132.631 121.729 132.643 120.327 133.019 118.914C133.635 116.634 134.98 114.582 136.827 113.122C138.844 111.538 141.216 110.911 143.735 110.911C147.223 110.911 150.712 110.911 154.189 110.911C160.459 110.911 166.729 110.911 172.999 110.911C179.725 110.911 186.451 110.911 193.177 110.911C198.147 110.911 203.118 110.911 208.088 110.911C209.217 110.911 210.345 110.911 211.474 110.911C214.54 110.911 217.436 112.051 219.591 114.251C221.198 115.904 222.27 118.047 222.623 120.327C222.748 121.114 222.76 121.889 222.76 122.676C222.76 124.739 222.76 126.802 222.76 128.866C222.76 135.352 222.76 141.85 222.76 148.337C222.76 150.264 222.76 152.19 222.76 154.117C222.76 157.628 221.358 160.968 218.565 163.168C216.729 164.616 214.506 165.369 212.181 165.391C212.01 165.391 211.599 165.46 211.519 165.642C211.44 165.836 211.588 165.882 211.77 165.882C216.456 165.847 220.89 163.146 222.794 158.814C223.706 156.727 223.74 154.596 223.74 152.373C223.74 146.285 223.74 140.197 223.74 134.121C223.74 131.157 223.74 128.182 223.74 125.218C223.74 123.724 223.831 122.185 223.683 120.692C223.227 115.995 219.739 111.971 215.167 110.797C213.754 110.432 212.34 110.421 210.904 110.421C206.766 110.421 202.627 110.421 198.489 110.421C191.889 110.421 185.288 110.421 178.687 110.421C171.996 110.421 165.304 110.421 158.612 110.421C154.2 110.421 149.788 110.421 145.388 110.421C144.476 110.421 143.553 110.386 142.641 110.466C137.989 110.842 133.783 113.886 132.244 118.332C131.719 119.848 131.628 121.387 131.628 122.972C131.628 124.579 131.628 126.187 131.628 127.783C131.628 129.322 131.697 130.804 130.978 132.24C130.306 133.574 129.029 134.611 127.992 135.649C127.159 136.481 126.316 137.325 125.484 138.157C125.438 138.202 125.427 138.282 125.472 138.328C126.669 139.525 127.878 140.733 129.075 141.93C129.702 142.557 130.351 143.161 130.807 143.948C131.412 144.997 131.64 146.148 131.64 147.345C131.64 149.272 131.64 151.21 131.64 153.136C131.64 155.325 131.788 157.423 132.78 159.429C134.786 163.545 138.97 165.87 143.473 165.87C145.137 165.87 146.813 165.87 148.477 165.87C151.738 165.87 155.01 165.87 158.27 165.87C162.488 165.87 166.706 165.87 170.924 165.87C175.45 165.87 179.987 165.87 184.513 165.87C188.708 165.87 192.903 165.87 197.11 165.87C200.336 165.87 203.551 165.87 206.777 165.87C208.373 165.87 209.98 165.882 211.576 165.87C211.645 165.87 211.725 165.87 211.793 165.87C212.112 165.882 212.842 165.391 212.181 165.391Z" fill="#687693"/>
<path d="M194.02 149.431C196.05 148.383 195.936 144.86 193.872 143.902C193.713 143.823 193.462 143.902 193.302 143.959C193.268 143.971 192.903 144.13 193.04 144.199C193.918 144.609 194.488 145.555 194.579 146.502C194.647 147.254 194.511 148.063 194.089 148.702C193.963 148.896 193.827 149.067 193.656 149.215C193.61 149.249 193.359 149.409 193.519 149.329C193.006 149.602 193.815 149.534 194.02 149.431Z" fill="#687693"/>
<path d="M191.695 148.565C191.718 148.884 191.467 149.158 191.148 149.181C190.828 149.203 190.555 148.953 190.532 148.633C190.509 148.314 190.76 148.041 191.079 148.018C191.398 147.995 191.683 148.246 191.695 148.565Z" fill="#687693"/>
<path d="M191.501 145.225C191.524 145.544 191.273 145.817 190.954 145.84C190.635 145.863 190.361 145.612 190.338 145.293C190.315 144.974 190.566 144.7 190.885 144.677C191.205 144.655 191.478 144.905 191.501 145.225Z" fill="#687693"/>
<path d="M185.607 149.044C181.777 149.044 177.946 149.044 174.105 149.044C167.971 149.044 161.85 149.044 155.716 149.044C154.314 149.044 152.912 149.044 151.51 149.044C150.963 149.044 150.735 149.728 151.407 149.728C155.238 149.728 159.068 149.728 162.91 149.728C169.043 149.728 175.165 149.728 181.298 149.728C182.7 149.728 184.102 149.728 185.505 149.728C186.063 149.728 186.291 149.044 185.607 149.044Z" fill="#687693"/>
<path d="M204.178 137.986C202.434 137.986 200.701 137.986 198.957 137.986C194.784 137.986 190.6 137.986 186.428 137.986C181.378 137.986 176.316 137.986 171.266 137.986C166.888 137.986 162.522 137.986 158.145 137.986C156.013 137.986 153.881 137.94 151.749 137.986C151.715 137.986 151.692 137.986 151.658 137.986C151.453 137.986 151.099 138.043 151.008 138.271C150.928 138.476 151.077 138.636 151.293 138.636C153.037 138.636 154.77 138.636 156.514 138.636C160.687 138.636 164.871 138.636 169.043 138.636C174.093 138.636 179.155 138.636 184.205 138.636C188.583 138.636 192.949 138.636 197.326 138.636C199.458 138.636 201.59 138.681 203.722 138.636C203.756 138.636 203.779 138.636 203.813 138.636C204.018 138.636 204.372 138.579 204.463 138.351C204.543 138.146 204.394 137.986 204.178 137.986Z" fill="#687693"/>
<path d="M189.643 126.654C185.368 126.654 181.093 126.654 176.818 126.654C170.001 126.654 163.183 126.654 156.366 126.654C154.793 126.654 153.231 126.654 151.658 126.654C151.476 126.654 151.077 126.723 151.008 126.916C150.928 127.11 151.077 127.19 151.27 127.19C155.545 127.19 159.82 127.19 164.095 127.19C170.913 127.19 177.73 127.19 184.547 127.19C186.12 127.19 187.682 127.19 189.255 127.19C189.438 127.19 189.837 127.122 189.905 126.928C189.985 126.734 189.848 126.654 189.643 126.654Z" fill="#687693"/>
<mask id="mask0" mask-type="alpha" maskUnits="userSpaceOnUse" x="52" y="107" width="62" height="62">
<path d="M82.9501 168.697C99.8172 168.697 113.491 155.024 113.491 138.157C113.491 121.289 99.8172 107.616 82.9501 107.616C66.083 107.616 52.4095 121.289 52.4095 138.157C52.4095 155.024 66.083 168.697 82.9501 168.697Z" fill="#F6F9FE"/>
</mask>
<g mask="url(#mask0)">
<path d="M82.9501 168.697C99.8172 168.697 113.491 155.024 113.491 138.157C113.491 121.289 99.8172 107.616 82.9501 107.616C66.083 107.616 52.4095 121.289 52.4095 138.157C52.4095 155.024 66.083 168.697 82.9501 168.697Z" fill="#F6F9FE"/>
<path d="M80.2369 123.246H85.0135V120.065C85.0135 119.187 84.2953 118.469 83.4175 118.469H81.8329C80.9551 118.469 80.2369 119.187 80.2369 120.065V123.246Z" fill="#F6F9FE"/>
<path d="M85.4352 120.145C84.66 117.409 80.6472 117.728 79.8378 120.27C79.7352 120.601 80.727 120.464 80.8296 120.145C81.0918 119.313 81.7872 118.629 82.7106 118.765C83.577 118.902 84.2154 119.598 84.4434 120.407C84.5346 120.738 85.5264 120.475 85.4352 120.145Z" fill="#687693"/>
<path d="M74.7763 153.057H90.4627C92.1955 153.057 93.6091 151.655 93.6091 149.91V130.69C93.6091 125.309 89.2543 120.954 83.8735 120.954H81.3883C76.0075 120.954 71.6527 125.309 71.6527 130.69V149.91C71.6413 151.643 73.0435 153.057 74.7763 153.057Z" fill="white"/>
<path d="M71.1396 138.521C71.1396 141.816 71.1396 145.111 71.1396 148.405C71.1396 148.873 71.1396 149.351 71.1396 149.819C71.1396 150.035 72.1314 149.876 72.1314 149.557C72.1314 146.262 72.1314 142.967 72.1314 139.673C72.1314 139.205 72.1314 138.727 72.1314 138.259C72.1314 138.031 71.1396 138.191 71.1396 138.521Z" fill="#687693"/>
<path d="M93.3924 127.919C92.07 124.488 89.0946 121.855 85.4922 121.034C81.9582 120.224 78.0936 121.114 75.2778 123.405C73.6818 124.705 72.4848 126.403 71.778 128.33C71.6982 128.546 72.6558 128.444 72.7584 128.17C73.8984 125.047 76.4406 122.459 79.6668 121.547C82.95 120.623 86.541 121.49 89.1516 123.656C90.6108 124.864 91.7166 126.426 92.4006 128.193C92.5032 128.444 93.4836 128.147 93.3924 127.919Z" fill="#687693"/>
<path d="M94.0993 149.75C94.0993 146.422 94.0993 143.093 94.0993 139.764C94.0993 139.285 94.0993 138.806 94.0993 138.328C94.0993 137.883 93.1075 138.077 93.1075 138.442C93.1075 141.77 93.1075 145.099 93.1075 148.428C93.1075 148.907 93.1075 149.386 93.1075 149.864C93.1075 150.298 94.0993 150.104 94.0993 149.75Z" fill="#687693"/>
<path d="M73.0891 137.496H92.1499C93.6091 137.496 94.7947 136.31 94.7947 134.851V131.362C94.7947 129.903 93.6091 128.718 92.1499 128.718H73.0891C71.6299 128.718 70.4443 129.903 70.4443 131.362V134.851C70.4443 136.31 71.6299 137.496 73.0891 137.496Z" fill="#73ABFF"/>
<path d="M72.8953 137.769C76.7371 137.769 80.5675 137.769 84.4093 137.769C86.5525 137.769 88.6957 137.769 90.8389 137.769C91.2151 137.769 91.5799 137.781 91.9561 137.769C93.5635 137.735 95.1823 136.652 95.2963 134.942C95.3647 133.905 95.2963 132.856 95.2963 131.818C95.2963 131.34 95.3191 130.872 95.1595 130.405C94.9087 129.641 94.3159 129.003 93.5749 128.683C92.9707 128.433 92.3551 128.433 91.7281 128.433C90.9415 128.433 90.1663 128.433 89.3797 128.433C84.5689 128.433 79.7695 128.433 74.9587 128.433C73.2487 128.433 71.2993 128.307 70.3075 130.051C69.7489 131.043 69.9313 132.366 69.9313 133.449C69.9313 134.646 69.7945 135.9 70.6951 136.846C71.2765 137.473 72.0745 137.746 72.8953 137.769C73.2601 137.781 73.9555 137.245 73.2829 137.222C72.3481 137.199 71.5159 136.606 71.1397 135.74C70.9459 135.284 70.9345 134.805 70.9345 134.326C70.9345 133.312 70.9117 132.286 70.9345 131.271C70.9687 130.097 71.7439 129.003 72.9751 128.98C73.4425 128.968 73.9099 128.98 74.3773 128.98C78.8689 128.98 83.3719 128.98 87.8635 128.98C89.2087 128.98 90.5539 128.946 91.8991 128.98C93.2899 129.014 94.2703 130.131 94.3045 131.499C94.3273 132.48 94.3045 133.46 94.3045 134.44C94.3045 135.706 93.8485 137.165 92.3437 137.233C92.0131 137.245 91.6711 137.233 91.3405 137.233C89.4025 137.233 87.4531 137.233 85.5151 137.233C81.5137 137.233 77.5123 137.233 73.5223 137.233C73.4425 137.233 73.3627 137.233 73.2829 137.233C73.1005 137.233 72.7015 137.302 72.6331 137.496C72.5533 137.689 72.6901 137.769 72.8953 137.769Z" fill="#687693"/>
<path d="M88.479 141.03H76.7712V145.396H88.479V141.03Z" fill="white"/>
<path d="M76.5775 145.669C79.9975 145.669 83.4175 145.669 86.8375 145.669C87.3163 145.669 87.7951 145.669 88.2853 145.669C88.5247 145.669 88.9693 145.567 88.9693 145.259C88.9693 143.8 88.9693 142.352 88.9693 140.893C88.9693 140.779 88.7413 140.745 88.6729 140.745C85.2529 140.745 81.8329 140.745 78.4129 140.745C77.9341 140.745 77.4553 140.745 76.9651 140.745C76.7257 140.745 76.2811 140.847 76.2811 141.155C76.2811 142.614 76.2811 144.062 76.2811 145.521C76.2811 145.818 77.2729 145.635 77.2729 145.259C77.2729 143.8 77.2729 142.352 77.2729 140.893C77.0449 141.03 76.8169 141.166 76.5889 141.303C80.0089 141.303 83.4289 141.303 86.8489 141.303C87.3277 141.303 87.8065 141.303 88.2967 141.303C88.1941 141.258 88.0915 141.212 88.0003 141.155C88.0003 142.614 88.0003 144.062 88.0003 145.521C88.2283 145.384 88.4563 145.248 88.6843 145.111C85.2643 145.111 81.8443 145.111 78.4243 145.111C77.9455 145.111 77.4667 145.111 76.9765 145.111C76.7941 145.111 76.3951 145.179 76.3267 145.384C76.2355 145.59 76.3723 145.669 76.5775 145.669Z" fill="#687693"/>
<path d="M66.4087 196.49L60.4807 161.732C59.5345 156.191 63.8095 151.13 69.4297 151.13H95.7979C101.418 151.13 105.693 156.191 104.747 161.732L98.8303 196.49C98.0893 200.857 94.3045 204.049 89.8813 204.049H75.3577C70.9231 204.049 67.1497 200.857 66.4087 196.49Z" fill="white"/>
<path d="M66.8989 196.354C66.2491 192.569 65.6107 188.773 64.9609 184.988C63.9121 178.809 62.8519 172.63 61.8031 166.452C61.5409 164.901 61.2787 163.351 61.0165 161.8C60.4123 158.209 61.8487 154.504 65.0065 152.544C66.3403 151.711 67.8337 151.358 69.3955 151.347C70.0453 151.347 70.7065 151.347 71.3563 151.347C74.1151 151.347 76.8739 151.347 79.6441 151.347C84.8653 151.347 90.0979 151.347 95.3191 151.347C99.0241 151.347 102.387 153.535 103.766 157.012C104.382 158.563 104.53 160.239 104.257 161.88C104.177 162.336 104.097 162.792 104.029 163.248C103.105 168.652 102.193 174.055 101.27 179.47C100.369 184.771 99.4687 190.061 98.5681 195.362C98.4997 195.761 98.4313 196.149 98.3629 196.548C98.0323 198.44 97.1431 200.184 95.7523 201.529C94.2133 203.011 92.1955 203.821 90.0637 203.832C89.2657 203.832 88.4563 203.832 87.6583 203.832C84.5575 203.832 81.4681 203.832 78.3673 203.832C77.4667 203.832 76.5661 203.832 75.6541 203.832C73.7275 203.821 71.8579 203.194 70.3189 202.031C68.4949 200.629 67.2979 198.6 66.8989 196.354C66.8533 196.103 65.8615 196.331 65.9071 196.616C66.7165 201.119 70.6495 204.243 75.1753 204.265C77.5921 204.277 79.9975 204.265 82.4143 204.265C84.8311 204.265 87.2365 204.277 89.6533 204.265C94.0879 204.243 98.2489 201.29 99.2407 196.878C99.5143 195.647 99.6853 194.37 99.8905 193.128C100.358 190.38 100.825 187.621 101.293 184.874C102.364 178.593 103.436 172.3 104.507 166.018C104.747 164.582 104.998 163.146 105.237 161.709C105.898 157.719 103.949 153.706 100.312 151.882C98.2489 150.845 96.0829 150.891 93.8599 150.891C91.0213 150.891 88.1713 150.891 85.3327 150.891C80.1457 150.891 74.9587 150.879 69.7831 150.891C65.8957 150.902 62.1907 153.057 60.6175 156.682C59.8993 158.335 59.7169 160.147 60.0133 161.914C60.0817 162.359 60.1615 162.804 60.2413 163.248C61.1875 168.8 62.1337 174.352 63.0799 179.904C63.9805 185.182 64.8811 190.46 65.7703 195.727C65.8159 196.023 65.8729 196.308 65.9185 196.605C65.9527 196.878 66.9445 196.65 66.8989 196.354Z" fill="#687693"/>
<path d="M72.576 176.051H92.6629V162.496C92.6629 160.683 91.1923 159.224 89.3911 159.224H75.8593C74.0467 159.224 72.5875 160.695 72.5875 162.496V176.051H72.576Z" fill="#73ABFF"/>
<path d="M81.6505 135.672C80.1229 134.144 78.5839 132.605 77.0563 131.077C76.8739 130.895 75.9619 131.26 76.1215 131.419C77.6491 132.947 79.1881 134.486 80.7157 136.014C80.8981 136.196 81.8101 135.831 81.6505 135.672Z" fill="white"/>
<path d="M77.9455 135.991C77.4325 135.478 76.9195 134.965 76.3951 134.44C76.1899 134.235 75.2551 134.588 75.4717 134.805C75.9847 135.318 76.4977 135.831 77.0221 136.355C77.2273 136.561 78.1507 136.196 77.9455 135.991Z" fill="white"/>
<path d="M83.1553 132.799C82.1635 131.807 81.1717 130.815 80.1799 129.823C79.8607 129.504 78.9145 129.915 79.2793 130.268C80.2711 131.26 81.2629 132.252 82.2547 133.243C82.5739 133.563 83.5087 133.152 83.1553 132.799Z" fill="white"/>
<path d="M87.5785 142.74C86.7691 142.74 85.9483 142.74 85.1389 142.74C85.2301 142.774 85.3327 142.797 85.4239 142.831C85.2871 142.591 85.1617 142.363 84.9565 142.17C84.7741 141.999 84.1813 142.204 84.0445 142.375C83.6227 142.865 83.3833 143.629 83.1325 144.222C83.4517 144.142 83.7709 144.051 84.0901 143.971C83.5999 143.435 83.2237 142.842 82.9159 142.181C82.7905 141.907 82.1065 142.215 81.9697 142.341C81.5023 142.751 81.1375 143.23 80.8297 143.766C81.1603 143.697 81.4909 143.617 81.8101 143.549C81.6277 143.196 81.4567 142.831 81.2743 142.477C81.1489 142.227 80.5447 142.477 80.3965 142.58C80.2825 142.66 80.1685 142.728 80.0545 142.797C80.0203 142.819 79.9747 142.842 79.9405 142.865C79.7581 142.945 79.7581 142.968 79.9405 142.933C79.9405 142.945 80.1799 142.933 79.9633 142.922C79.7923 142.911 79.6099 142.922 79.4389 142.922C78.9829 142.922 78.5155 142.922 78.0595 142.922C77.7631 142.922 76.9879 143.355 77.6377 143.355C78.2077 143.355 78.7891 143.355 79.3591 143.355C79.5871 143.355 79.7695 143.355 80.0659 143.253C80.4649 143.116 80.8069 142.865 81.1603 142.637C80.8639 142.671 80.5789 142.705 80.2825 142.74C80.4649 143.093 80.6359 143.458 80.8183 143.811C80.9551 144.085 81.6961 143.788 81.7987 143.595C82.0837 143.093 82.4371 142.66 82.8589 142.284C82.5397 142.341 82.2319 142.386 81.9127 142.443C82.2319 143.139 82.6309 143.754 83.1439 144.313C83.3149 144.507 84.0103 144.267 84.1015 144.062C84.3295 143.526 84.5461 142.774 84.9337 142.329C84.6259 142.398 84.3181 142.466 84.0217 142.534C84.3181 142.808 84.3067 143.161 84.7399 143.196C84.9907 143.218 85.2529 143.196 85.5037 143.196C86.0509 143.196 86.6095 143.196 87.1567 143.196C87.4531 143.173 88.2397 142.74 87.5785 142.74Z" fill="#687693"/>
<path d="M83.1211 118.161C83.1211 116.235 83.1211 114.32 83.1211 112.393C83.1211 112.176 82.1293 112.336 82.1293 112.655C82.1293 114.582 82.1293 116.497 82.1293 118.424C82.1293 118.64 83.1211 118.481 83.1211 118.161Z" fill="#687693"/>
<path d="M82.8282 113.607C83.632 113.491 84.1895 112.745 84.0733 111.941C83.9572 111.137 83.2114 110.58 82.4076 110.696C81.6037 110.812 81.0463 111.558 81.1624 112.362C81.2786 113.166 82.0243 113.723 82.8282 113.607Z" fill="#687693"/>
</g>
<path d="M52.8997 138.02C52.9111 131.761 54.8491 125.583 58.4743 120.475C61.9741 115.539 66.9445 111.686 72.6445 109.6C78.6181 107.422 85.2643 107.286 91.3405 109.11C97.1431 110.854 102.342 114.365 106.172 119.062C110.071 123.85 112.431 129.812 112.898 135.968C113.365 142.204 111.895 148.508 108.68 153.877C105.556 159.11 100.848 163.339 95.2963 165.859C89.5393 168.481 82.9501 169.119 76.7713 167.763C70.7977 166.452 65.3143 163.317 61.1419 158.859C56.9581 154.402 54.1879 148.713 53.2531 142.671C53.0251 141.132 52.9111 139.582 52.8997 138.02C52.8997 137.815 51.9079 137.974 51.9079 138.282C51.9193 144.689 53.9371 150.97 57.6877 156.169C61.3357 161.23 66.5341 165.118 72.4165 167.181C78.5269 169.324 85.2871 169.473 91.4887 167.671C97.4737 165.939 102.9 162.427 106.879 157.628C110.914 152.76 113.377 146.718 113.867 140.414C114.369 133.962 112.795 127.418 109.375 121.923C106.104 116.656 101.247 112.45 95.5585 109.965C89.6533 107.377 82.9615 106.738 76.6573 108.072C70.5355 109.36 64.8583 112.461 60.5035 116.964C56.1259 121.501 53.1961 127.35 52.2385 133.585C51.9991 135.147 51.8851 136.72 51.8851 138.294C51.9193 138.487 52.8997 138.339 52.8997 138.02Z" fill="#687693"/>
<path d="M145.969 99.8339C162.837 99.8339 176.51 86.1604 176.51 69.2933C176.51 52.4262 162.837 38.7527 145.969 38.7527C129.102 38.7527 115.429 52.4262 115.429 69.2933C115.429 86.1604 129.102 99.8339 145.969 99.8339Z" fill="#F6F9FE"/>
<path d="M166.763 102.547C163.822 94.4984 160.106 89.2088 158.612 86.3132C158.418 85.937 158.236 85.5494 158.065 85.1618C157.609 84.0788 157.313 82.916 157.05 81.7646C155.945 76.9994 155.751 72.0974 155.101 67.2638C154.337 61.6208 152.582 55.7156 145.525 55.7156C136.781 55.7156 135.96 65.5196 135.47 71.9264C135.311 74.0582 135.288 76.19 135.105 78.3104C134.946 80.1686 134.934 82.3232 134.022 83.999C132.974 85.9142 131.777 87.7382 130.614 89.585C128.231 93.3698 126.407 97.5764 125.051 102.547H166.763Z" fill="white"/>
<path d="M131.982 65.5082C132.404 67.9592 135.63 69.635 138.491 68.9054C141.353 68.1758 143.211 65.189 142.253 62.8748C143.074 63.9122 144.613 64.505 146.141 64.3568C147.657 64.2086 149.105 63.3422 149.789 62.1566C150.404 63.8324 152.502 64.961 154.611 64.7558C156.72 64.5506 158.635 63.0344 159.034 61.256C159.433 59.4776 158.259 57.6194 156.344 56.9696C158.27 56.7074 159.798 55.0202 159.798 53.3786C159.786 51.737 158.407 50.2778 156.594 49.7762C154.782 49.2746 152.673 49.6394 151.008 50.5742C151.259 48.7502 149.595 46.9832 147.463 46.8236C145.331 46.664 143.097 48.1346 142.721 49.9586C141.375 48.7046 138.89 48.4652 137.1 49.4228C135.311 50.3804 134.421 52.421 135.094 54.0398C132.939 53.7662 130.58 55.214 130.146 57.0608C129.713 58.9076 131.298 60.8228 133.452 61.0622C131.856 62.3162 131.469 63.7982 131.982 65.5082Z" fill="#67BAE4"/>
<path d="M148.352 78.379C148.215 79.1542 148.033 79.9636 147.474 80.5108C147.303 80.6818 147.087 80.8186 146.847 80.83C146.642 80.8414 146.448 80.7616 146.266 80.659C145.81 80.3854 145.514 79.918 145.331 79.4164C145.16 78.9148 145.092 78.3904 145.046 77.866C145.001 77.3416 144.955 76.8058 144.795 76.3042C144.818 76.3612 145.24 76.441 145.308 76.4638C145.491 76.5094 145.662 76.5436 145.844 76.5778C146.209 76.6348 146.574 76.669 146.939 76.669C147.315 76.669 147.68 76.6348 148.044 76.5664C148.17 76.5436 148.341 76.4638 148.455 76.5778C148.557 76.6918 148.512 76.9426 148.512 77.0794C148.5 77.5126 148.432 77.9458 148.352 78.379Z" fill="#687693"/>
<path d="M162.796 92.9367C161.816 91.2609 160.881 89.5623 159.98 87.8523C159.08 86.1651 158.27 84.5121 157.791 82.6539C156.845 78.9603 156.469 75.1527 156.081 71.3679C155.785 68.4609 155.534 65.4969 154.691 62.6811C154.052 60.5379 153.003 58.4289 151.191 57.0381C149.219 55.5333 146.54 55.1115 144.123 55.4535C142.002 55.7499 140.076 56.7417 138.696 58.3833C135.926 61.6665 135.425 66.4203 135.083 70.5357C134.809 73.8303 134.752 77.1249 134.444 80.4195C134.364 81.2631 134.25 82.1295 133.988 82.9389C133.715 83.7711 133.236 84.5349 132.791 85.2873C131.834 86.9061 130.796 88.4907 129.793 90.0867C129.303 90.8733 128.801 91.6599 128.311 92.4465C128.026 92.9025 129.029 92.9253 129.257 92.5605C130.215 91.0329 131.172 89.5167 132.13 88.0005C132.632 87.2025 133.133 86.4045 133.623 85.5951C134.057 84.8655 134.535 84.1245 134.832 83.3265C135.379 81.8673 135.447 80.2941 135.573 78.7551C135.71 76.9197 135.789 75.0729 135.892 73.2375C136.017 70.9917 136.188 68.7345 136.542 66.5229C136.872 64.4367 137.374 62.3391 138.354 60.4581C139.266 58.7253 140.646 57.2433 142.527 56.5593C144.75 55.7613 147.566 55.9095 149.629 57.0951C153.984 59.5917 154.451 65.6907 154.941 70.1253C155.34 73.7847 155.625 77.4555 156.378 81.0579C156.743 82.7793 157.164 84.4893 157.928 86.0739C158.726 87.7269 159.615 89.3343 160.505 90.9417C160.961 91.7625 161.417 92.5719 161.895 93.3813C162.112 93.7575 163.058 93.3813 162.796 92.9367Z" fill="#687693"/>
<path d="M131.731 90.4858C135.561 92.5948 139.574 94.2592 143.883 95.08C144.089 95.1142 144.453 94.9888 144.533 94.7836C145.103 93.3016 145.992 91.945 146.369 90.3946C146.049 90.4744 145.73 90.5656 145.411 90.6454C146.437 91.888 147.144 93.3016 147.52 94.8634C147.566 95.0344 147.816 95.1028 147.965 95.0686C151.829 94.4188 155.375 92.857 158.532 90.5428C159.08 90.1438 158.259 89.8474 157.883 90.121C154.941 92.2642 151.658 93.7804 148.056 94.3732C148.204 94.4416 148.352 94.51 148.5 94.5784C148.113 92.9596 147.36 91.4776 146.312 90.2008C146.072 89.9044 145.445 90.1096 145.354 90.4516C144.989 91.945 144.111 93.2446 143.576 94.6696C143.792 94.567 144.009 94.4758 144.225 94.3732C140.064 93.5752 136.188 91.945 132.495 89.9158C132.141 89.7448 131.264 90.235 131.731 90.4858Z" fill="#687693"/>
<path d="M156.606 85.6293C153.357 87.5331 149.789 88.9239 145.992 89.0151C142.173 89.1063 138.48 87.8523 135.151 86.0511C134.934 85.9371 134.638 85.9371 134.444 86.1081C134.296 86.2221 134.159 86.5071 134.399 86.6325C137.898 88.5249 141.717 89.8245 145.73 89.7675C149.766 89.7105 153.608 88.2513 157.062 86.2335C157.632 85.8915 157.107 85.3443 156.606 85.6293Z" fill="#687693"/>
<path d="M177 69.1679C176.989 62.7611 174.971 56.4797 171.22 51.2813C167.572 46.2197 162.374 42.3323 156.491 40.2689C150.381 38.1257 143.621 37.9775 137.419 39.7787C131.434 41.5115 126.008 45.0227 122.029 49.8221C117.994 54.6899 115.531 60.7319 115.041 67.0361C114.539 73.4885 116.113 80.0321 119.533 85.5269C122.804 90.7937 127.661 95.0003 133.349 97.4855C139.255 100.073 145.946 100.712 152.251 99.3779C158.372 98.0897 164.05 94.9889 168.404 90.4859C172.782 85.9487 175.712 80.1005 176.67 73.8647C176.886 72.3143 177 70.7411 177 69.1679C177 68.9627 176.008 69.1223 176.008 69.4301C175.997 75.6887 174.059 81.8675 170.434 86.9747C166.934 91.9109 161.964 95.7641 156.263 97.8503C150.29 100.028 143.644 100.164 137.567 98.3405C131.765 96.5963 126.566 93.0851 122.736 88.3883C118.837 83.6003 116.477 77.6381 116.01 71.4821C115.543 65.2463 117.013 58.9421 120.228 53.5727C123.352 48.3401 128.06 44.1107 133.612 41.5913C139.369 38.9693 145.958 38.3309 152.137 39.6875C158.11 40.9985 163.594 44.1335 167.766 48.5909C171.95 53.0483 174.72 58.7369 175.655 64.7789C175.894 66.3179 176.008 67.8797 176.008 69.4415C176.02 69.6353 177.012 69.4757 177 69.1679Z" fill="#687693"/>
</g>
<defs>
<clipPath id="clip0">
<rect width="228" height="228" fill="white" transform="translate(0 -6)"/>
</clipPath>
</defs>
</svg>
