<svg width="20" height="20" viewBox="0 0 20 20" fill="none" xmlns="http://www.w3.org/2000/svg">
<path d="M10 18.3333C5.39752 18.3333 1.66669 14.6025 1.66669 10C1.66669 5.39751 5.39752 1.66667 10 1.66667C14.6025 1.66667 18.3334 5.39751 18.3334 10C18.3334 14.6025 14.6025 18.3333 10 18.3333ZM10 16.6667C11.7681 16.6667 13.4638 15.9643 14.7141 14.7141C15.9643 13.4638 16.6667 11.7681 16.6667 10C16.6667 8.2319 15.9643 6.5362 14.7141 5.28596C13.4638 4.03572 11.7681 3.33334 10 3.33334C8.23191 3.33334 6.53622 4.03572 5.28598 5.28596C4.03573 6.5362 3.33335 8.2319 3.33335 10C3.33335 11.7681 4.03573 13.4638 5.28598 14.7141C6.53622 15.9643 8.23191 16.6667 10 16.6667ZM9.16919 13.3333L6.50018 10.5L7.67852 9.32167L9.16919 10.9767L13.0002 7.00001L14.1793 8.17834L9.16919 13.3333Z" fill="#B4C0D4"/>
</svg>
