<svg width="20" height="20" viewBox="0 0 20 20" fill="none" xmlns="http://www.w3.org/2000/svg">
<path d="M5.83342 5.83317V2.49984C5.83342 2.27882 5.92121 2.06686 6.07749 1.91058C6.23377 1.7543 6.44573 1.6665 6.66675 1.6665H17.5001C17.7211 1.6665 17.9331 1.7543 18.0893 1.91058C18.2456 2.06686 18.3334 2.27882 18.3334 2.49984V13.3332C18.3334 13.5542 18.2456 13.7661 18.0893 13.9224C17.9331 14.0787 17.7211 14.1665 17.5001 14.1665H14.1667V17.494C14.1667 17.9573 13.7926 18.3332 13.3276 18.3332H2.50592C2.39568 18.3333 2.28651 18.3116 2.18465 18.2695C2.08279 18.2274 1.99024 18.1656 1.91229 18.0876C1.83434 18.0097 1.77254 17.9171 1.7304 17.8153C1.68827 17.7134 1.66664 17.6042 1.66675 17.494L1.66925 6.67234C1.66925 6.209 2.04342 5.83317 2.50842 5.83317H5.83342ZM7.50008 5.83317H13.3276C13.7909 5.83317 14.1667 6.20734 14.1667 6.67234V12.4998H16.6667V3.33317H7.50008V5.83317Z" fill="#B4C0D4"/>
</svg>
