<svg width="15" height="15" viewBox="0 0 15 15" fill="none" xmlns="http://www.w3.org/2000/svg">
<path d="M6.66699 6.75488V4.75488L10.0003 7.42155L6.66699 10.0882V8.08822H0.666992V6.75488H6.66699ZM1.63899 9.42155H3.05499C3.52036 10.5676 4.36946 11.5164 5.45707 12.1055C6.54468 12.6947 7.8032 12.8876 9.01736 12.6514C10.2315 12.4151 11.3259 11.7644 12.1132 10.8104C12.9006 9.85639 13.332 8.65848 13.3337 7.42155C13.3343 6.18332 12.9042 4.98344 12.1169 4.0277C11.3297 3.07196 10.2344 2.41992 9.01897 2.18342C7.80354 1.94693 6.54369 2.14071 5.45551 2.73153C4.36733 3.32236 3.51864 4.2734 3.05499 5.42155H1.63899C2.48833 2.71688 5.01499 0.754883 8.00033 0.754883C11.6823 0.754883 14.667 3.73955 14.667 7.42155C14.667 11.1035 11.6823 14.0882 8.00033 14.0882C5.01499 14.0882 2.48833 12.1262 1.63899 9.42155Z" fill="#B4C0D4"/>
</svg>
