<svg width="44" height="44" viewBox="0 0 44 44" fill="none" xmlns="http://www.w3.org/2000/svg">
<circle cx="22" cy="22" r="22" fill="#4489F2"/>
<path d="M21.9998 26.1666C25.0515 26.1666 27.7206 27.4791 29.1723 29.4375L27.6373 30.1633C26.4556 28.7633 24.3723 27.8333 21.9998 27.8333C19.6273 27.8333 17.544 28.7633 16.3623 30.1633L14.8281 29.4366C16.2798 27.4783 18.9481 26.1666 21.9998 26.1666ZM21.9998 13.6666C23.1049 13.6666 24.1647 14.1056 24.9461 14.887C25.7275 15.6684 26.1665 16.7282 26.1665 17.8333V20.3333C26.1665 21.4384 25.7275 22.4982 24.9461 23.2796C24.1647 24.061 23.1049 24.5 21.9998 24.5C20.8947 24.5 19.8349 24.061 19.0535 23.2796C18.2721 22.4982 17.8331 21.4384 17.8331 20.3333V17.8333C17.8331 16.7282 18.2721 15.6684 19.0535 14.887C19.8349 14.1056 20.8947 13.6666 21.9998 13.6666Z" fill="white"/>
</svg>
