<svg width="16" height="16" viewBox="0 0 16 16" fill="none" xmlns="http://www.w3.org/2000/svg">
<path d="M7.99984 2C7.2665 2 6.6665 2.6 6.6665 3.33333C6.6665 4.06667 7.2665 4.66667 7.99984 4.66667C8.73317 4.66667 9.33317 4.06667 9.33317 3.33333C9.33317 2.6 8.73317 2 7.99984 2ZM7.99984 11.3333C7.2665 11.3333 6.6665 11.9333 6.6665 12.6667C6.6665 13.4 7.2665 14 7.99984 14C8.73317 14 9.33317 13.4 9.33317 12.6667C9.33317 11.9333 8.73317 11.3333 7.99984 11.3333ZM7.99984 6.66667C7.2665 6.66667 6.6665 7.26667 6.6665 8C6.6665 8.73333 7.2665 9.33333 7.99984 9.33333C8.73317 9.33333 9.33317 8.73333 9.33317 8C9.33317 7.26667 8.73317 6.66667 7.99984 6.66667Z" fill="#B4C0D4"/>
</svg>
