<svg width="14" height="14" viewBox="0 0 14 14" fill="none" xmlns="http://www.w3.org/2000/svg">
<path d="M1.75 11.6667C1.75 11.3445 2.01117 11.0834 2.33333 11.0834H11.6667C11.9888 11.0834 12.25 11.3445 12.25 11.6667C12.25 11.9889 11.9888 12.25 11.6667 12.25H2.33333C2.01117 12.25 1.75 11.9889 1.75 11.6667ZM7.58333 5.26919C7.58333 6.16014 8.66056 6.60629 9.2905 5.97624L10.7123 4.55417C10.9401 4.32637 11.3094 4.32635 11.5372 4.55413C11.765 4.78189 11.765 5.15116 11.5372 5.37893L7.70711 9.2095C7.31659 9.60006 6.68339 9.60008 6.29285 9.20954L2.46285 5.37954C2.23505 5.15173 2.23498 4.78241 2.4627 4.55452C2.69053 4.32654 3.06005 4.32646 3.28798 4.55434L4.70962 5.97575C5.33961 6.60564 6.41667 6.15945 6.41667 5.26859V1.75002C6.41667 1.42785 6.67783 1.16669 7 1.16669C7.32217 1.16669 7.58333 1.42785 7.58333 1.75002V5.26919Z" fill="#4F8AF4"/>
</svg>
