<svg width="16" height="16" viewBox="0 0 16 16" fill="none" xmlns="http://www.w3.org/2000/svg">
<path d="M2 13.3333C2 12.9651 2.29848 12.6667 2.66667 12.6667H13.3333C13.7015 12.6667 14 12.9651 14 13.3333C14 13.7015 13.7015 14 13.3333 14H2.66667C2.29848 14 2 13.7015 2 13.3333ZM8.66667 6.36683C8.66667 7.25778 9.74389 7.70393 10.3738 7.07388L12.2427 5.20473C12.503 4.94439 12.925 4.94437 13.1854 5.20469C13.4457 5.46499 13.4457 5.88701 13.1854 6.14732L8.70711 10.6261C8.31659 11.0167 7.68339 11.0167 7.29285 10.6262L2.81469 6.14801C2.55434 5.88767 2.55426 5.46558 2.81452 5.20514C3.07489 4.94459 3.4972 4.9445 3.75769 5.20494L5.62629 7.07323C6.25627 7.70311 7.33333 7.25693 7.33333 6.36606V1.99999C7.33333 1.6318 7.63181 1.33333 8 1.33333C8.36819 1.33333 8.66667 1.63181 8.66667 1.99999V6.36683Z" fill="white"/>
</svg>
