<svg width="61" height="60" viewBox="0 0 61 60" fill="none" xmlns="http://www.w3.org/2000/svg">
<circle opacity="0.15" cx="30.5" cy="30" r="30" fill="#A5CEFF"/>
<path d="M19.5 32.4998C19.4994 31.3953 19.7804 30.3088 20.3166 29.3431C20.8527 28.3774 21.6262 27.5644 22.564 26.9808C22.8115 25.0509 23.7538 23.2773 25.2145 21.992C26.6752 20.7066 28.5543 19.9976 30.5 19.9976C32.4457 19.9976 34.3248 20.7066 35.7855 21.992C37.2462 23.2773 38.1885 25.0509 38.436 26.9808C39.5992 27.7045 40.5041 28.7772 41.0213 30.0458C41.5385 31.3144 41.6417 32.714 41.3161 34.0447C40.9906 35.3754 40.2528 36.5692 39.2083 37.4557C38.1638 38.3422 36.866 38.8759 35.5 38.9808L25.5 38.9998C22.144 38.7258 19.5 35.9218 19.5 32.4998ZM35.348 36.9868C36.2938 36.9141 37.1925 36.5443 37.9156 35.9304C38.6387 35.3164 39.1493 34.4896 39.3745 33.5681C39.5996 32.6466 39.5278 31.6775 39.1692 30.7992C38.8107 29.921 38.1837 29.1785 37.378 28.6778L36.571 28.1748L36.451 27.2328C36.2641 25.7865 35.5569 24.4578 34.4616 23.4949C33.3663 22.5321 31.9578 22.001 30.4995 22.001C29.0412 22.001 27.6327 22.5321 26.5374 23.4949C25.4421 24.4578 24.7349 25.7865 24.548 27.2328L24.428 28.1748L23.623 28.6778C22.8173 29.1784 22.1904 29.9208 21.8318 30.799C21.4732 31.6771 21.4013 32.6462 21.6263 33.5676C21.8513 34.4891 22.3618 35.3159 23.0848 35.93C23.8077 36.544 24.7063 36.9139 25.652 36.9868L25.825 36.9998H35.175L35.348 36.9868ZM31.5 29.9998H34.5L30.5 34.9998L26.5 29.9998H29.5V25.9998H31.5V29.9998Z" fill="#5998F8"/>
</svg>
