<svg width="250" height="250" viewBox="0 0 250 250" fill="none" xmlns="http://www.w3.org/2000/svg">
<rect width="250" height="250" fill="white"/>
<path d="M68.0956 82.5906L67.9792 154.757L182.053 154.941L182.169 82.7745L68.0956 82.5906Z" fill="#8AD4EB"/>
<path d="M75.6846 147.145C72.9726 144.604 73.5435 139.951 73.6863 136.611C73.8861 132.272 73.9432 127.904 74.0003 123.565C74.0859 116.457 74.0574 109.32 73.9432 102.212C73.8861 99.0435 73.9146 95.8748 73.6863 92.7061C73.6292 91.8497 71.8593 82.9431 71.8593 82.9716C74.0288 81.5443 80.3377 82.629 83.1639 82.629C87.1604 82.629 91.1284 82.629 95.125 82.6576C105.659 82.6861 116.193 82.6861 126.726 82.7147C144.34 82.7432 161.982 82.7718 179.595 82.8003C180.452 82.8003 181.308 82.8003 182.165 82.8003C182.165 82.8003 182.165 90.9076 182.165 91.3644C182.136 101.927 182.136 112.461 182.108 123.023C182.108 128.161 182.079 133.271 182.079 138.41C182.079 142.435 181.422 146.745 181.565 150.685C170.889 152.369 159.441 151.17 148.736 150.571C137.346 149.943 125.927 149.515 114.508 149.429C103.404 149.315 91.6994 150.828 80.6803 149.172C79.1102 148.944 77.5401 148.544 76.2269 147.659C76.0557 147.459 75.8558 147.316 75.6846 147.145Z" fill="#CFF2FB"/>
<path d="M68.0912 82.6001L182.165 82.7714L127.24 129.417C125.756 130.673 123.615 130.73 122.073 129.531L72.8014 91.5353L68.0912 82.6001Z" fill="#8AD4EB"/>
<path d="M68.0912 82.6001L182.165 82.7714L125.442 127.362L68.0912 82.6001Z" fill="#CFF2FB"/>
<path d="M67.4062 82.7999C67.4062 90.9358 67.3776 99.1002 67.3776 107.236C67.3491 120.168 67.3491 133.1 67.3205 146.031C67.3205 149 67.3205 151.969 67.292 154.938C67.292 155.081 67.606 155.081 67.6917 155.081C71.4599 155.081 75.2281 155.081 79.0248 155.109C88.1027 155.138 97.1521 155.138 106.23 155.166C117.249 155.195 128.268 155.195 139.287 155.224C148.765 155.252 158.271 155.252 167.749 155.281C172.316 155.281 177.026 155.595 181.594 155.309C181.651 155.309 181.737 155.309 181.794 155.309C182.079 155.309 182.764 155.166 182.764 154.795C182.764 146.688 182.793 138.552 182.793 130.445C182.821 117.513 182.821 104.61 182.85 91.678C182.85 88.7377 182.85 85.7974 182.85 82.8285C182.85 82.5145 181.48 82.7428 181.48 83.1996C181.48 91.3069 181.451 99.4428 181.451 107.55C181.423 120.482 181.423 133.385 181.394 146.317C181.394 149.257 181.394 152.198 181.394 155.166C181.708 154.995 182.051 154.824 182.365 154.653C178.597 154.653 174.828 154.653 171.032 154.624C161.954 154.595 152.904 154.595 143.826 154.567C132.807 154.538 121.788 154.538 110.769 154.51C101.291 154.481 91.7853 154.481 82.3077 154.453C79.1675 154.453 76.0559 154.453 72.9157 154.424C71.9451 154.424 70.9745 154.424 70.004 154.424C69.5472 154.424 68.8906 154.281 68.4624 154.424C68.4053 154.453 68.3197 154.424 68.2626 154.424C68.4053 154.481 68.5195 154.51 68.6623 154.567C68.6623 146.431 68.6908 138.267 68.6908 130.131C68.7193 117.199 68.7193 104.267 68.7479 91.3355C68.7479 88.3666 68.7479 85.3977 68.7764 82.4288C68.7764 82.1148 67.4062 82.3432 67.4062 82.7999Z" fill="#6A79A6"/>
<path d="M181.594 82.6573C175.199 87.6816 168.776 92.7344 162.382 97.7586C152.219 105.752 142.056 113.745 131.894 121.738C129.553 123.565 127.212 125.421 124.871 127.248C125.271 127.191 125.67 127.162 126.07 127.105C119.619 122.052 113.138 116.999 106.687 111.975C96.3813 103.925 86.1044 95.9031 75.799 87.8528C73.4581 86.0258 71.0887 84.1703 68.7479 82.3433C68.4624 82.5717 68.1484 82.8 67.8629 83.0284C71.6311 83.0284 75.3993 83.0284 79.1961 83.057C88.274 83.0855 97.3234 83.0855 106.401 83.1141C117.42 83.1426 128.44 83.1426 139.459 83.1711C148.936 83.1997 158.442 83.1997 167.92 83.2282C172.516 83.2282 177.169 83.5137 181.765 83.2568C181.822 83.2568 181.908 83.2568 181.965 83.2568C182.507 83.2568 183.421 82.4289 182.479 82.4289C178.711 82.4289 174.943 82.4289 171.146 82.4004C162.068 82.3718 153.018 82.3718 143.941 82.3433C132.921 82.3147 121.902 82.3147 110.883 82.2862C101.406 82.2576 91.8995 82.2576 82.4219 82.2291C77.8258 82.2291 73.1727 81.9722 68.5766 82.2006C68.5195 82.2006 68.4339 82.2006 68.3768 82.2006C68.177 82.2006 67.0351 82.5431 67.4918 82.8857C73.9434 87.9385 80.4236 92.9913 86.8752 98.0155C97.1807 106.066 107.458 114.087 117.763 122.138C120.104 123.965 122.473 125.82 124.814 127.647C125.185 127.933 125.699 127.761 126.013 127.505C132.408 122.48 138.831 117.427 145.225 112.403C155.388 104.41 165.551 96.4169 175.713 88.4238C178.054 86.5968 180.395 84.7412 182.736 82.9142C183.364 82.4289 181.994 82.3433 181.594 82.6573Z" fill="#6A79A6"/>
<path d="M115.194 94.4476C114.823 94.4191 114.48 94.2193 114.223 93.9338C113.709 93.3343 113.795 92.4208 114.394 91.9355C114.68 91.7071 115.051 91.593 115.422 91.6215C115.793 91.6786 116.136 91.8499 116.364 92.1353C116.878 92.7348 116.792 93.6483 116.193 94.1336C115.936 94.362 115.565 94.4762 115.194 94.4476Z" fill="#445069"/>
<path d="M134.406 94.2163C134.035 94.1878 133.692 93.9879 133.435 93.7025C132.921 93.103 133.007 92.1895 133.606 91.7042C134.206 91.2189 135.091 91.3045 135.605 91.9326C135.833 92.218 135.976 92.5891 135.947 92.9603C135.919 93.3314 135.747 93.6739 135.462 93.9308C135.148 94.1592 134.777 94.2449 134.406 94.2163Z" fill="#445069"/>
<path d="M120.104 102.412C118.99 102.441 118.191 103.526 118.533 104.582C119.504 107.665 122.416 109.92 125.813 109.863C129.21 109.806 132.065 107.522 132.95 104.411C133.264 103.326 132.436 102.241 131.323 102.27L120.104 102.412Z" fill="#445069"/>
<path d="M111.083 101.331C111.251 99.6049 110.343 98.1045 109.056 97.9798C107.77 97.8552 106.591 99.1534 106.424 100.879C106.256 102.606 107.164 104.106 108.451 104.231C109.737 104.355 110.916 103.057 111.083 101.331Z" fill="white"/>
<path d="M143.526 101.274C143.093 99.5951 141.727 98.4954 140.476 98.8182C139.224 99.141 138.56 100.764 138.993 102.443C139.426 104.123 140.792 105.222 142.044 104.899C143.296 104.577 143.959 102.954 143.526 101.274Z" fill="white"/>
<path d="M189.07 96.1321C193.908 91.2938 193.908 83.4494 189.07 78.6111C184.232 73.7728 176.387 73.7728 171.549 78.6111C166.711 83.4494 166.711 91.2938 171.549 96.1321C176.387 100.97 184.232 100.97 189.07 96.1321Z" fill="#96E296"/>
<path d="M208.28 187.037C208.137 187.222 207.135 187.408 204.987 187.624C189.969 189.121 172.212 188.658 156.765 188.658C127.75 188.674 98.7168 188.349 69.7195 188.349C51.623 188.041 30.5552 187.238 48.4906 186.157C68.8782 184.922 90.9842 185.107 111.605 184.953C130.292 184.814 148.979 184.922 167.648 185.246C170.816 185.293 209.032 186.018 208.28 187.037Z" fill="#E8EEF9"/>
<path d="M180.457 92.2915C178.883 92.2915 177.743 91.6187 177.034 90.273C176.511 89.2755 176.25 87.9886 176.25 86.4124C176.25 85.0668 176.595 83.8858 177.284 82.8695C178.111 81.6508 179.242 81.0415 180.678 81.0415C182.037 81.0415 183.092 81.5849 183.843 82.6718C184.476 83.5893 184.792 84.6974 184.792 85.996C184.792 88.0945 184.43 89.6684 183.708 90.7176C182.985 91.7669 181.902 92.2915 180.457 92.2915ZM180.671 82.8765C179.901 82.8765 179.283 83.2553 178.817 84.0128C178.408 84.6715 178.204 85.4361 178.204 86.3066C178.204 87.4546 178.313 88.3392 178.532 88.9603C178.883 89.9625 179.525 90.4636 180.457 90.4636C181.236 90.4636 181.821 90.113 182.211 89.412C182.6 88.7062 182.795 87.6499 182.795 86.243C182.795 85.1185 182.617 84.2763 182.261 83.7164C181.909 83.1565 181.379 82.8765 180.671 82.8765Z" fill="white"/>
</svg>
