<svg width="38" height="38" viewBox="0 0 38 38" fill="none" xmlns="http://www.w3.org/2000/svg">
<path d="M6.97987 10.0269C4.95459 12.7399 3.90668 16.0583 4.00652 19.4424C4.10637 22.8265 5.34811 26.0773 7.52982 28.6662C9.71153 31.2551 12.7049 33.0297 16.0231 33.7016C19.3414 34.3735 22.7893 33.9031 25.8063 32.3669C28.8233 30.8307 31.2319 28.319 32.6403 25.2403C34.0488 22.1616 34.3743 18.697 33.564 15.4098C32.7537 12.1226 30.8552 9.20625 28.1771 7.13492C25.4991 5.06359 22.1992 3.95914 18.8138 4.00116" stroke="#67BAE4" stroke-width="8"/>
<path d="M18.0583 4.0293C16.007 4.15831 14.0041 4.70752 12.1739 5.64284C10.3437 6.57816 8.72523 7.87963 7.41895 9.4665" stroke="#D5DFEF" stroke-width="8"/>
</svg>
