<svg width="20" height="20" viewBox="0 0 20 20" fill="none" xmlns="http://www.w3.org/2000/svg">
<path d="M1.86913 5.71166L9.57496 1.09166C9.70447 1.01395 9.85267 0.9729 10.0037 0.9729C10.1547 0.9729 10.3029 1.01395 10.4325 1.09166L18.1308 5.71249C18.1926 5.7495 18.2437 5.80189 18.2792 5.86455C18.3147 5.9272 18.3333 5.99798 18.3333 6.06999V16.6667C18.3333 16.8877 18.2455 17.0996 18.0892 17.2559C17.9329 17.4122 17.721 17.5 17.5 17.5H2.49996C2.27895 17.5 2.06698 17.4122 1.9107 17.2559C1.75442 17.0996 1.66663 16.8877 1.66663 16.6667V6.06916C1.66661 5.99715 1.68526 5.92637 1.72075 5.86371C1.75624 5.80106 1.80736 5.74867 1.86913 5.71166ZM15.2883 6.86999L10.0508 11.4025L4.70579 6.86499L3.62746 8.13499L10.0608 13.5975L16.3783 8.13083L15.2883 6.86999Z" fill="#56ACD8"/>
</svg>
