<svg width="44" height="44" viewBox="0 0 44 44" fill="none" xmlns="http://www.w3.org/2000/svg">
<circle cx="22" cy="22" r="22" fill="#73ABFF"/>
<path d="M30 32H14C13.7348 32 13.4804 31.8946 13.2929 31.7071C13.1054 31.5196 13 31.2652 13 31V13C13 12.7348 13.1054 12.4804 13.2929 12.2929C13.4804 12.1054 13.7348 12 14 12H30C30.2652 12 30.5196 12.1054 30.7071 12.2929C30.8946 12.4804 31 12.7348 31 13V31C31 31.2652 30.8946 31.5196 30.7071 31.7071C30.5196 31.8946 30.2652 32 30 32ZM18 17V19H26V17H18ZM18 21V23H26V21H18ZM18 25V27H23V25H18Z" fill="white"/>
</svg>
