<svg width="25" height="24" viewBox="0 0 25 24" fill="none" xmlns="http://www.w3.org/2000/svg">
<path d="M23.0911 12.0005C23.0911 17.9304 18.2842 22.7373 12.3543 22.7373C6.42438 22.7373 1.61743 17.9304 1.61743 12.0005C1.61743 6.07057 6.42438 1.26362 12.3543 1.26362C18.2842 1.26362 23.0911 6.07057 23.0911 12.0005Z" fill="#FFCC4D"/>
<path d="M15.8187 18.871C15.8111 18.8432 15.0949 16.1053 12.3545 16.1053C9.61277 16.1053 8.89656 18.8432 8.89025 18.871C8.85677 19.0055 8.91741 19.1432 9.03614 19.2146C9.15488 19.2853 9.30962 19.2689 9.41256 19.1767C9.41888 19.1722 10.053 18.6316 12.3545 18.6316C14.6212 18.6316 15.2705 19.1558 15.2951 19.1767C15.3551 19.2335 15.4334 19.2632 15.5124 19.2632C15.5654 19.2632 15.6191 19.2499 15.6677 19.2228C15.7915 19.152 15.8534 19.0087 15.8187 18.871Z" fill="#664500"/>
<path d="M10.9033 11.7463C10.8951 11.7519 10.1063 12.3159 8.5646 12.3159C7.02228 12.3159 6.23407 11.7519 6.22839 11.7475C6.10523 11.6559 5.93344 11.6642 5.82165 11.7709C5.70986 11.8764 5.69028 12.0475 5.77554 12.1751C5.81407 12.2326 6.73239 13.5791 8.5646 13.5791C10.3968 13.5791 11.3158 12.2326 11.3536 12.1751C11.4389 12.0482 11.4193 11.8789 11.3088 11.7728C11.1976 11.6654 11.0259 11.6559 10.9033 11.7463Z" fill="#664500"/>
<path d="M18.8879 11.7728C18.7774 11.666 18.6056 11.6553 18.4818 11.7463C18.4748 11.7526 17.6854 12.3159 16.1437 12.3159C14.602 12.3159 13.8131 11.7526 13.8068 11.7475C13.6849 11.6559 13.5125 11.6648 13.4007 11.7709C13.2889 11.877 13.27 12.0475 13.3546 12.1757C13.3931 12.2332 14.3115 13.5791 16.1437 13.5791C17.9759 13.5791 18.8948 12.2332 18.9327 12.1757C19.018 12.0482 18.9984 11.8789 18.8879 11.7728Z" fill="#664500"/>
<path d="M20.5655 10.7373C20.3729 10.7373 20.1834 10.6501 20.0596 10.4847C18.3923 8.26088 16.2316 8.21162 16.1401 8.21099C15.7927 8.2072 15.5123 7.92299 15.5142 7.57625C15.5161 7.22825 15.7965 6.94783 16.1439 6.94783C16.2601 6.94783 19.0093 6.97941 21.0702 9.72678C21.2799 10.0059 21.223 10.4019 20.9439 10.611C20.8302 10.6963 20.6975 10.7373 20.5655 10.7373Z" fill="#664500"/>
<path d="M4.14312 10.7373C4.01175 10.7373 3.87849 10.6963 3.76481 10.611C3.48565 10.4019 3.42944 10.0059 3.63849 9.72678C5.6987 6.97941 8.4486 6.94783 8.56481 6.94783C8.91344 6.94783 9.19639 7.23078 9.19639 7.57941C9.19639 7.92741 8.91533 8.20973 8.56733 8.21099C8.46944 8.21225 6.31386 8.2653 4.64902 10.4847C4.5246 10.6501 4.33512 10.7373 4.14312 10.7373Z" fill="#664500"/>
<path d="M15.5122 15.1581C19.4349 15.1581 23.7227 17.6844 23.7227 20.8423C23.7227 23.3687 21.828 23.3687 21.828 23.3687C16.7754 23.3687 21.1964 17.6844 15.5122 15.1581Z" fill="#5DADEC"/>
</svg>
