<svg width="20" height="20" viewBox="0 0 20 20" fill="none" xmlns="http://www.w3.org/2000/svg">
<path d="M18.9475 9.9999C18.9475 14.9415 14.9417 18.9473 10.0001 18.9473C5.05905 18.9473 1.05273 14.9415 1.05273 9.9999C1.05273 5.05884 5.05905 1.05253 10.0001 1.05253C14.9417 1.05253 18.9475 5.05884 18.9475 9.9999Z" fill="#FFCC4D"/>
<path d="M5.78955 7.36837C5.78955 7.36837 5.78955 6.31574 6.84218 6.31574C7.89481 6.31574 7.89481 7.36837 7.89481 7.36837V8.421C7.89481 8.421 7.89481 9.47363 6.84218 9.47363C5.78955 9.47363 5.78955 8.421 5.78955 8.421V7.36837Z" fill="#664500"/>
<path d="M12.1055 7.36837C12.1055 7.36837 12.1055 6.31574 13.1581 6.31574C14.2107 6.31574 14.2107 7.36837 14.2107 7.36837V8.421C14.2107 8.421 14.2107 9.47363 13.1581 9.47363C12.1055 9.47363 12.1055 8.421 12.1055 8.421V7.36837Z" fill="#664500"/>
<path d="M14.9132 12.4364C14.8195 12.3516 14.6795 12.3464 14.579 12.4211C14.5585 12.4364 12.5148 13.9474 10 13.9474C7.49162 13.9474 5.44109 12.4364 5.42109 12.4211C5.32057 12.3464 5.18057 12.3527 5.08688 12.4364C4.99372 12.5206 4.97267 12.6595 5.03741 12.7669C5.1053 12.8801 6.73057 15.5264 10 15.5264C13.2695 15.5264 14.8953 12.8801 14.9627 12.7669C15.0274 12.659 15.0069 12.5206 14.9132 12.4364Z" fill="#664500"/>
</svg>
