<svg width="25" height="24" viewBox="0 0 25 24" fill="none" xmlns="http://www.w3.org/2000/svg">
<path d="M8.8366 14.5262C8.8366 14.5262 8.38376 12.2267 9.02481 7.65845C9.90902 7.94582 10.8021 8.21045 11.0913 8.21045C11.7223 8.21045 13.6177 7.57887 13.6177 6.94729C13.6177 6.31571 12.9861 5.68414 12.9861 5.68414L14.2492 5.05256C14.8808 4.42098 14.2492 0.631504 11.7229 0.631504C7.30186 0.631504 5.6787 5.05256 5.6787 5.05256L5.68313 5.0595H5.6787C5.6787 5.0595 1.88923 11.9999 1.88923 17.6911C1.93028 17.6911 1.25765 20.849 1.88923 21.4806C2.52081 22.1121 5.04712 22.1121 5.04712 22.1121C11.3629 24.6315 23.0913 22.7368 23.0913 17.0526C23.0913 8.84203 10.7313 10.7368 8.8366 14.5262Z" fill="#D99E82"/>
<path d="M13.2981 21.001C11.2909 21.001 9.63936 20.1907 9.54589 20.1439C9.23389 19.9879 9.10821 19.6096 9.26294 19.2976C9.41831 18.9856 9.79663 18.858 10.1099 19.0134C10.1364 19.026 12.7878 20.3145 15.1347 19.4176C16.4326 18.9218 17.4242 17.8342 18.0836 16.1865C18.213 15.8612 18.5832 15.7046 18.9046 15.834C19.2286 15.9635 19.3865 16.3311 19.257 16.6551C18.4594 18.6477 17.2215 19.9759 15.5762 20.6012C14.8095 20.893 14.0295 21.001 13.2981 21.001Z" fill="#BF6952"/>
</svg>
