<svg width="25" height="24" viewBox="0 0 25 24" fill="none" xmlns="http://www.w3.org/2000/svg">
<path d="M19.9331 13.3545C19.9331 13.3545 19.9925 11.8627 18.8019 11.4168C17.7491 11.0221 17.3436 11.8096 17.3436 11.8096C17.3436 11.8096 17.3809 10.6008 16.1177 10.1536C14.9272 9.73174 14.3809 10.7587 14.3809 10.7587C14.3809 10.7587 14.187 9.577 12.9333 9.23216C11.8779 8.94227 11.091 9.96921 11.091 9.96921V2.2589C11.091 1.65321 10.7487 0.632582 9.48551 0.631319C8.22235 0.630686 7.93309 1.67974 7.93309 2.2589V12.68V15.2063C7.93309 15.8378 7.30151 15.8378 7.30151 15.2063V13.5225C7.30151 11.1275 6.01499 9.64332 5.56467 9.23279C5.11435 8.82227 4.51183 8.61385 3.78362 8.76858C2.54825 9.03132 2.81793 9.98122 3.16846 10.7884C4.01225 12.7324 4.59141 15.5018 4.76762 16.8124C5.2672 20.5115 8.43646 23.365 12.2733 23.3682C16.4581 23.3707 19.9299 20.0227 19.9331 15.8378V13.3545Z" fill="#D99E82"/>
</svg>
