<svg width="25" height="24" viewBox="0 0 25 24" fill="none" xmlns="http://www.w3.org/2000/svg">
<path d="M22.0204 11.5812C22.0204 11.5812 22.7353 10.5391 21.6926 9.82479C20.6511 9.11048 19.9368 10.1526 19.9368 10.1526L16.6204 14.9892C16.5067 14.7985 16.381 14.6103 16.2421 14.4246L20.845 7.71153C20.845 7.71153 21.5593 6.67006 20.5172 5.95574C19.4758 5.2408 18.7614 6.2829 18.7614 6.2829L14.4313 12.5968C14.2703 12.4648 14.1061 12.3334 13.9356 12.204L18.9547 4.88395C18.9547 4.88395 19.669 3.84248 18.6276 3.12816C17.5861 2.41322 16.8718 3.45532 16.8718 3.45532L11.852 10.7747C11.6676 10.661 11.485 10.5631 11.3025 10.4602L15.9932 3.6189C15.9932 3.6189 16.7076 2.57743 15.6654 1.86311C14.624 1.14816 13.9097 2.19027 13.9097 2.19027L8.94924 9.42374L8.55197 10.0035L8.19513 10.5246C11.3202 12.6675 11.6177 16.7008 9.83218 19.3048C9.47471 19.8258 8.95429 19.469 8.95429 19.469C11.0972 16.3433 10.4423 12.8311 7.31661 10.6882L8.23997 6.07637C8.23997 6.07637 8.58419 4.86058 7.36903 4.51637C6.15387 4.17216 5.80966 5.38732 5.80966 5.38732L4.74545 8.54774C4.32355 9.80079 3.8745 11.0494 3.28019 12.2298C1.60208 15.5646 2.6044 19.7096 5.76924 21.8797C9.22082 24.2463 13.9387 23.3671 16.3059 19.9155C16.4309 19.7324 16.5358 19.5536 16.6356 19.3749L16.6633 19.3945L22.0204 11.5812Z" fill="#D99E82"/>
<path d="M2.27512 5.05273H1.01196C1.01196 2.62937 2.98375 0.658208 5.40649 0.658208V1.92137C3.68038 1.92137 2.27512 3.326 2.27512 5.05273Z" fill="#77B255"/>
<path d="M3.51218 8.21094H2.24902C2.24902 4.72841 5.08229 1.89515 8.56481 1.89515V3.15831C5.77892 3.15831 3.51218 5.42504 3.51218 8.21094Z" fill="#77B255"/>
<path d="M19.3015 23.3687V22.1055C21.1963 22.1055 22.4594 20.8423 22.4594 18.9476H23.7226C23.7226 21.4739 21.8278 23.3687 19.3015 23.3687Z" fill="#77B255"/>
<path d="M16.1436 22.1318V20.8687C18.6699 20.8687 21.2227 18.3158 21.2227 15.7895H22.4859C22.4859 19.579 19.933 22.1318 16.1436 22.1318Z" fill="#77B255"/>
</svg>
