<svg width="25" height="24" viewBox="0 0 25 24" fill="none" xmlns="http://www.w3.org/2000/svg">
<g clip-path="url(#clip0)">
<path d="M23.7227 13.2634C23.7227 19.5792 16.7753 23.3687 12.3543 23.3687C7.93321 23.3687 0.98584 19.5419 0.98584 13.2634C0.98584 6.98487 3.51216 0.631813 12.3543 0.631813C21.1964 0.631813 23.7227 6.9476 23.7227 13.2634Z" fill="#FFCC4D"/>
<path d="M23.0912 1.26357C23.7228 1.89515 23.0912 8.21094 23.0912 8.21094L18.0386 1.89515C18.0386 1.89515 22.4596 0.63199 23.0912 1.26357Z" fill="#FFCC4D"/>
<path d="M1.61737 1.26357C0.985793 1.89515 1.61737 8.21094 1.61737 8.21094L6.67 1.89515C6.67 1.89515 2.24895 0.63199 1.61737 1.26357Z" fill="#FFCC4D"/>
<path d="M20.8202 15.6032C20.7425 15.4965 20.6067 15.4485 20.4779 15.4858C20.4343 15.4984 16.0568 16.7369 12.3539 16.7369C8.65411 16.7369 4.27411 15.4984 4.23053 15.4858C4.09853 15.4466 3.95832 15.4997 3.8819 15.6127C3.80611 15.7258 3.81053 15.8754 3.89453 15.9834C4.07895 16.2209 8.45516 21.7896 12.3539 21.7896C16.8918 21.7896 20.6693 16.2026 20.8278 15.9645C20.9011 15.854 20.8979 15.7106 20.8202 15.6032Z" fill="#292F33"/>
<path d="M9.82783 9.78947C9.82783 11.0103 9.26193 12 8.56467 12C7.86741 12 7.30151 11.0103 7.30151 9.78947C7.30151 8.56863 7.86741 7.57895 8.56467 7.57895C9.26193 7.57895 9.82783 8.56863 9.82783 9.78947Z" fill="#292F33"/>
<path d="M17.4069 9.78947C17.4069 11.0103 16.841 12 16.1438 12C15.4465 12 14.8806 11.0103 14.8806 9.78947C14.8806 8.56863 15.4465 7.57895 16.1438 7.57895C16.841 7.57895 17.4069 8.56863 17.4069 9.78947Z" fill="#292F33"/>
<path d="M6.03809 16.4214C6.03809 16.4214 9.19598 17.6846 12.3539 17.6846C15.5118 17.6846 18.6697 16.4214 18.6697 16.4214C18.6697 16.4214 18.6697 18.3162 18.0381 18.3162C17.4065 18.3162 16.7749 17.6846 16.7749 17.6846C16.7749 17.6846 14.2486 18.9478 12.3539 18.9478C10.4591 18.9478 7.93282 17.6846 7.93282 17.6846C7.93282 17.6846 7.30124 18.3162 6.66966 18.3162C6.03809 18.3162 6.03809 16.4214 6.03809 16.4214Z" fill="#F5F8FA"/>
<path d="M12.354 12.9474C14.2487 12.9474 14.2487 13.2632 14.2487 13.8948C14.2487 14.5264 13.3013 15.7896 12.354 15.7896C11.4066 15.7896 10.4592 14.5264 10.4592 13.8948C10.4592 13.2632 10.4592 12.9474 12.354 12.9474Z" fill="#67757F"/>
<path d="M17.407 13.5791C17.275 13.5791 17.1518 13.4951 17.107 13.3631C17.052 13.1976 17.1417 13.0189 17.3072 12.9633L22.9914 11.0692C23.1575 11.0136 23.3356 11.1033 23.3912 11.2688C23.4461 11.4343 23.3565 11.613 23.191 11.6679L17.5068 13.5633C17.4733 13.574 17.4405 13.5791 17.407 13.5791Z" fill="#9AAAB4"/>
<path d="M16.7747 14.8423C16.6275 14.8423 16.4961 14.7387 16.4658 14.5884C16.4311 14.4172 16.5422 14.2505 16.7134 14.217L23.0292 12.9539C23.1934 12.9198 23.3665 13.0297 23.4006 13.2014C23.4353 13.3726 23.3241 13.5393 23.153 13.5728L16.8372 14.836C16.8164 14.8404 16.7955 14.8423 16.7747 14.8423Z" fill="#9AAAB4"/>
<path d="M7.30156 13.5791C7.26872 13.5791 7.23525 13.574 7.20177 13.5633L1.51756 11.6679C1.35209 11.613 1.26241 11.4343 1.31799 11.2688C1.37293 11.1033 1.55041 11.0136 1.71714 11.0692L7.40135 12.9633C7.56683 13.0189 7.65651 13.1976 7.60093 13.3631C7.55672 13.4951 7.43356 13.5791 7.30156 13.5791Z" fill="#9AAAB4"/>
<path d="M7.93356 14.8423C7.91335 14.8423 7.89251 14.8404 7.87103 14.836L1.55524 13.5728C1.38472 13.5393 1.27356 13.3726 1.30767 13.2014C1.34177 13.0303 1.50535 12.9179 1.67967 12.9539L7.99546 14.217C8.16598 14.2505 8.27714 14.4172 8.24303 14.5884C8.21272 14.7387 8.08072 14.8423 7.93356 14.8423Z" fill="#9AAAB4"/>
</g>
<defs>
<clipPath id="clip0">
<path d="M0.354248 0H24.3542V24H0.354248V0Z" fill="white"/>
</clipPath>
</defs>
</svg>
