<svg width="25" height="24" viewBox="0 0 25 24" fill="none" xmlns="http://www.w3.org/2000/svg">
<path d="M23.0911 12C23.0911 17.9299 18.2842 22.7368 12.3543 22.7368C6.42438 22.7368 1.61743 17.9299 1.61743 12C1.61743 6.07008 6.42438 1.26313 12.3543 1.26313C18.2842 1.26313 23.0911 6.07008 23.0911 12Z" fill="#FFCC4D"/>
<path d="M8.56481 11.9998C8.56481 13.7442 7.15071 15.1577 5.40692 15.1577C3.66313 15.1577 2.24902 13.7442 2.24902 11.9998C2.24902 10.256 3.66313 8.84193 5.40692 8.84193C7.15071 8.84193 8.56481 10.256 8.56481 11.9998Z" fill="#FF7892"/>
<path d="M22.4596 11.9998C22.4596 13.7442 21.0461 15.1577 19.3017 15.1577C17.5573 15.1577 16.1438 13.7442 16.1438 11.9998C16.1438 10.256 17.5573 8.84193 19.3017 8.84193C21.0461 8.84193 22.4596 10.256 22.4596 11.9998Z" fill="#FF7892"/>
<path d="M18.2501 14.292C18.1377 14.1903 17.9697 14.184 17.849 14.2737C17.8244 14.292 15.372 16.1053 12.3543 16.1053C9.34419 16.1053 6.88356 14.292 6.85956 14.2737C6.73893 14.184 6.57093 14.1916 6.45851 14.292C6.34672 14.3931 6.32145 14.5598 6.39914 14.6886C6.48061 14.8244 8.43093 18 12.3543 18C16.2777 18 18.2286 14.8244 18.3095 14.6886C18.3871 14.5592 18.3625 14.3931 18.2501 14.292Z" fill="#664500"/>
<path d="M6.03785 10.1055C5.94311 10.1055 5.84648 10.084 5.75616 10.0392C5.44416 9.88252 5.31721 9.50294 5.47321 9.19157C5.50669 9.12526 6.30627 7.57915 8.56479 7.57915C10.824 7.57915 11.6229 9.12589 11.6557 9.19157C11.8124 9.50357 11.6854 9.88252 11.3734 10.0392C11.0633 10.1933 10.6882 10.0695 10.5296 9.76315C10.5025 9.71326 10.0054 8.84231 8.56479 8.84231C7.10142 8.84231 6.60753 9.74736 6.60374 9.75621C6.49258 9.97789 6.26964 10.1055 6.03785 10.1055Z" fill="#664500"/>
<path d="M18.6708 10.1055C18.439 10.1061 18.216 9.97789 18.1049 9.7562C18.0891 9.72715 17.5958 8.84231 16.1438 8.84231C14.6918 8.84231 14.1986 9.72715 14.1783 9.76441C14.0141 10.0682 13.6352 10.1876 13.3289 10.0297C13.0226 9.87052 12.8981 9.50041 13.0522 9.19157C13.0851 9.12589 13.8847 7.57915 16.1438 7.57915C18.403 7.57915 19.2026 9.12589 19.2348 9.19157C19.3914 9.50357 19.2645 9.88252 18.9525 10.0392C18.8621 10.084 18.7655 10.1055 18.6708 10.1055Z" fill="#664500"/>
</svg>
