<svg width="25" height="24" viewBox="0 0 25 24" fill="none" xmlns="http://www.w3.org/2000/svg">
<path d="M18.0916 8.21029L7.84862 7.72271C8.2004 6.42102 8.61093 4.7625 8.61093 4.10502C8.61093 2.52608 8.24651 0.631342 7.02567 0.631342C5.44672 0.631342 4.80188 0.631342 4.80188 2.21029C4.80188 4.42081 2.90714 7.57934 2.90714 8.8425C2.90714 9.1526 2.91662 9.49429 2.93114 9.83408L2.88062 18.3951C2.88062 21.8953 3.51219 23.353 7.30167 23.353C11.0918 23.353 17.9223 23.3518 17.9223 23.3518C19.3029 23.3701 20.4404 22.5503 20.6021 21.4261C20.6526 21.0768 22.4596 11.432 22.4596 11.432C22.7488 10.0267 22.3541 8.34229 18.0916 8.21029Z" fill="#D99E82"/>
<path d="M22.0056 12.8667C21.8818 12.6533 21.655 12.5421 21.4226 12.5535C20.839 12.5408 12.9904 11.9989 11.9224 11.8625C11.834 11.8467 11.0609 11.6851 11.1411 10.7926C11.1664 10.5128 11.2428 10.1434 11.4645 9.96968C11.647 9.82631 11.887 9.856 11.8908 9.85663L20.3565 10.5432C20.7146 10.5792 21.0089 10.312 21.0367 9.96463C21.0645 9.61663 20.8056 9.31221 20.4576 9.28442L12.0873 8.60926C11.9035 8.58337 11.2769 8.53158 10.7142 8.95347C10.2329 9.3141 9.95315 9.89516 9.88304 10.6802C9.77694 11.8638 10.4104 12.5333 11.0433 12.8648C10.7395 13.2211 10.4862 13.7023 10.4603 14.3427C10.4003 15.8131 11.3546 16.6044 11.5782 16.7693C11.1614 17.2335 10.9422 17.7324 10.9359 18.2693C10.9258 19.1074 11.4266 19.7573 11.858 20.1653C11.7108 20.3276 11.5833 20.5101 11.5018 20.728C11.2346 21.4436 11.3843 22.3316 11.8643 22.8874C12.1441 23.2107 12.5079 23.3838 12.8931 23.3838C12.9847 23.3838 13.0782 23.3743 13.1717 23.3535C13.5127 23.2802 13.7294 22.9448 13.6561 22.6038C13.5835 22.2627 13.2475 22.0442 12.9064 22.1187C12.8976 22.1175 12.8755 22.1251 12.8205 22.0619C12.6626 21.8794 12.5704 21.4771 12.6854 21.1695C12.7586 20.9724 12.8957 20.8695 13.1294 20.8347C13.2506 20.8177 13.3504 20.7583 13.4382 20.6851L19.855 20.8423H19.8816C20.2182 20.8423 20.498 20.6952 20.5119 20.3547C20.5258 20.0067 20.2555 19.8299 19.9068 19.816L12.9993 19.5349C12.7011 19.3076 12.1927 18.8143 12.199 18.3122C12.2054 17.7893 12.7877 17.3149 13.3018 16.9979L20.6818 17.4728C20.6963 17.4735 20.7096 17.4741 20.7235 17.4741C21.0538 17.4741 21.3317 17.2177 21.3532 16.8829C21.3753 16.5349 21.1113 16.2343 20.7633 16.2122L12.2205 15.6627C12.0361 15.4872 11.6944 15.0684 11.7222 14.3945C11.7557 13.5766 12.5982 13.2349 12.6291 13.2217C12.6468 13.2154 12.6582 13.2015 12.6746 13.1939C14.7462 13.3707 19.6409 13.7712 21.2597 13.7712C21.5451 13.7712 21.7289 13.7585 21.7776 13.7301C22.0788 13.5552 22.1811 13.1686 22.0056 12.8667Z" fill="#C1694F"/>
</svg>
