<svg width="25" height="24" viewBox="0 0 25 24" fill="none" xmlns="http://www.w3.org/2000/svg">
<path d="M23.0911 12C23.0911 17.9299 18.2842 22.7368 12.3543 22.7368C6.42501 22.7368 1.61743 17.9299 1.61743 12C1.61743 6.07071 6.42501 1.26313 12.3543 1.26313C18.2842 1.26313 23.0911 6.07071 23.0911 12Z" fill="#FFCC4D"/>
<path d="M14.2489 17.0525C14.2489 18.0991 13.4007 18.9473 12.3542 18.9473C11.3077 18.9473 10.4595 18.0991 10.4595 17.0525C10.4595 16.0066 11.3077 15.1578 12.3542 15.1578C13.4007 15.1578 14.2489 16.0066 14.2489 17.0525Z" fill="#664500"/>
<path d="M11.92 11.123C11.8088 11.0327 11.6503 11.0302 11.5347 11.1142C11.5265 11.1205 10.7383 11.6839 9.19659 11.6839C7.6549 11.6839 6.86606 11.1205 6.85911 11.1155C6.74417 11.0296 6.58501 11.0315 6.47322 11.1211C6.3608 11.2108 6.3229 11.3649 6.38101 11.4963C6.41953 11.5816 7.32838 13.5786 9.19659 13.5786C11.0648 13.5786 11.9736 11.5816 12.0115 11.4963C12.069 11.3656 12.0311 11.2127 11.92 11.123Z" fill="#664500"/>
<path d="M18.2359 11.123C18.1247 11.0327 17.9668 11.0296 17.8506 11.1142C17.843 11.1205 17.0542 11.6839 15.5125 11.6839C13.9708 11.6839 13.1813 11.1205 13.175 11.1155C13.0601 11.0296 12.9016 11.0315 12.7891 11.1211C12.6767 11.2108 12.6388 11.3649 12.6969 11.4963C12.7348 11.5816 13.6443 13.5786 15.5125 13.5786C17.3807 13.5786 18.2896 11.5816 18.3275 11.4963C18.3849 11.3656 18.3477 11.2127 18.2359 11.123Z" fill="#664500"/>
<path d="M11.0903 3.87211H9.82523C9.55238 3.87211 9.33259 3.69779 9.33259 3.39463C9.33259 3.09211 9.55238 2.91779 9.82523 2.91779H12.3023C12.4008 2.91779 12.6579 2.96263 12.6579 3.25821C12.6579 3.40221 12.6282 3.47042 12.5448 3.58411L10.825 5.99295H12.2644C12.5372 5.99295 12.7564 6.16727 12.7564 6.47042C12.7564 6.77295 12.5372 6.94727 12.2644 6.94727H9.7267C9.48417 6.94727 9.27954 6.826 9.27954 6.5759C9.27954 6.45463 9.34017 6.34158 9.37807 6.28032L11.0903 3.87211Z" fill="#2A6797"/>
<path d="M15.8291 2.09229H14.3512C14.0329 2.09229 13.7765 1.88892 13.7765 1.53524C13.7765 1.18092 14.0329 0.977556 14.3512 0.977556H17.2439C17.3601 0.977556 17.6607 1.03061 17.6607 1.37545C17.6607 1.54345 17.6253 1.62303 17.5274 1.75629L15.5197 4.56935H17.2009C17.5192 4.56935 17.7757 4.77271 17.7757 5.12703C17.7757 5.48071 17.5192 5.68408 17.2009 5.68408H14.2369C13.9533 5.68408 13.7146 5.54261 13.7146 5.25019C13.7146 5.10871 13.7853 4.97608 13.8295 4.90598L15.8291 2.09229Z" fill="#2A6797"/>
<path d="M20.8819 4.22495H18.9821C18.5728 4.22495 18.2432 3.96348 18.2432 3.50874C18.2432 3.05401 18.5728 2.7919 18.9821 2.7919H22.7015C22.8493 2.7919 23.2358 2.86011 23.2358 3.30411C23.2358 3.51948 23.1897 3.62243 23.0653 3.79295L20.4834 7.40938H22.6446C23.0533 7.40938 23.3836 7.67085 23.3836 8.12559C23.3836 8.58032 23.0533 8.8418 22.6446 8.8418H18.8343C18.4705 8.8418 18.1636 8.6599 18.1636 8.28474C18.1636 8.10285 18.2545 7.93232 18.3114 7.84138L20.8819 4.22495Z" fill="#2A6797"/>
</svg>
