<svg width="44" height="44" viewBox="0 0 44 44" fill="none" xmlns="http://www.w3.org/2000/svg">
<circle cx="22" cy="22" r="22" fill="#8ACEEB"/>
<path d="M31 18V30.993C31.0009 31.1243 30.976 31.2545 30.9266 31.3762C30.8772 31.4979 30.8043 31.6087 30.7121 31.7022C30.6199 31.7957 30.5101 31.8701 30.3892 31.9212C30.2682 31.9723 30.1383 31.9991 30.007 32H13.993C13.7298 32 13.4774 31.8955 13.2912 31.7095C13.105 31.5235 13.0003 31.2712 13 31.008V12.992C13 12.455 13.449 12 14.002 12H24.997L31 18ZM29 19H24V14H15V30H29V19Z" fill="white"/>
</svg>
