<svg width="16" height="16" viewBox="0 0 16 16" fill="none" xmlns="http://www.w3.org/2000/svg">
<path fill-rule="evenodd" clip-rule="evenodd" d="M5.06689 7.99928C5.06689 7.48382 5.48476 7.06595 6.00023 7.06595H11.3336C11.849 7.06595 12.2669 7.48382 12.2669 7.99928C12.2669 8.51475 11.849 8.93262 11.3336 8.93262H6.00023C5.48476 8.93262 5.06689 8.51475 5.06689 7.99928Z" fill="#73ABFF"/>
<path fill-rule="evenodd" clip-rule="evenodd" d="M2.40015 3.99928C2.40015 3.48382 2.81801 3.06595 3.33348 3.06595L14.0001 3.06595C14.5156 3.06595 14.9335 3.48382 14.9335 3.99928C14.9335 4.51475 14.5156 4.93262 14.0001 4.93262L3.33348 4.93262C2.81801 4.93262 2.40015 4.51475 2.40015 3.99928Z" fill="#73ABFF"/>
<path fill-rule="evenodd" clip-rule="evenodd" d="M7.06689 11.9993C7.06689 11.4838 7.48476 11.066 8.00023 11.066H9.33356C9.84903 11.066 10.2669 11.4838 10.2669 11.9993C10.2669 12.5147 9.84903 12.9326 9.33356 12.9326H8.00023C7.48476 12.9326 7.06689 12.5147 7.06689 11.9993Z" fill="#73ABFF"/>
</svg>
