<svg width="16" height="16" viewBox="0 0 16 16" fill="none" xmlns="http://www.w3.org/2000/svg">
<path fill-rule="evenodd" clip-rule="evenodd" d="M5.06671 7.99992C5.06671 7.48446 5.48458 7.06659 6.00004 7.06659H11.3334C11.8488 7.06659 12.2667 7.48446 12.2667 7.99992C12.2667 8.51539 11.8488 8.93326 11.3334 8.93326H6.00004C5.48458 8.93326 5.06671 8.51539 5.06671 7.99992Z" fill="#818AE6"/>
<path fill-rule="evenodd" clip-rule="evenodd" d="M2.40005 3.99992C2.40005 3.48446 2.81792 3.06659 3.33339 3.06659L14.0001 3.06659C14.5155 3.06659 14.9334 3.48446 14.9334 3.99992C14.9334 4.51539 14.5155 4.93326 14.0001 4.93326L3.33339 4.93326C2.81792 4.93326 2.40005 4.51539 2.40005 3.99992Z" fill="#818AE6"/>
<path fill-rule="evenodd" clip-rule="evenodd" d="M7.06671 11.9999C7.06671 11.4845 7.48458 11.0666 8.00004 11.0666H9.33338C9.84884 11.0666 10.2667 11.4845 10.2667 11.9999C10.2667 12.5154 9.84884 12.9333 9.33338 12.9333H8.00004C7.48458 12.9333 7.06671 12.5154 7.06671 11.9999Z" fill="#818AE6"/>
</svg>
