<svg width="20" height="20" viewBox="0 0 20 20" fill="none" xmlns="http://www.w3.org/2000/svg">
<path d="M9.99999 19.1667C8.74761 19.1666 7.52416 18.7902 6.48824 18.0864C5.45233 17.3826 4.65174 16.3839 4.19028 15.2196C3.72881 14.0554 3.62776 12.7793 3.90022 11.5569C4.17268 10.3346 4.80609 9.22223 5.71832 8.36417C6.83665 7.31167 9.58332 5.41667 9.16665 1.25C14.1667 4.58333 16.6667 7.91667 11.6667 12.9167C12.5 12.9167 13.75 12.9167 15.8333 10.8583C16.0583 11.5025 16.25 12.195 16.25 12.9167C16.25 14.5743 15.5915 16.164 14.4194 17.3361C13.2473 18.5082 11.6576 19.1667 9.99999 19.1667Z" fill="#B4C0D4"/>
</svg>
