<svg width="14" height="14" viewBox="0 0 14 14" fill="none" xmlns="http://www.w3.org/2000/svg">
<path d="M1.69727 2.22705H11.8462C11.8927 2.22697 11.9384 2.23911 11.9787 2.26226C12.019 2.2854 12.0525 2.31873 12.0759 2.35891C12.0992 2.39908 12.1116 2.4447 12.1118 2.49117C12.112 2.53765 12.0999 2.58336 12.0769 2.62372L10.1821 5.93917L12.0769 9.25463C12.0999 9.29498 12.112 9.34069 12.1118 9.38717C12.1116 9.43365 12.0992 9.47926 12.0759 9.51944C12.0525 9.55962 12.019 9.59295 11.9787 9.61609C11.9384 9.63923 11.8927 9.65137 11.8462 9.65129H2.75787V12.3028H1.69727V2.22705Z" fill="white"/>
</svg>
