<svg width="15" height="16" viewBox="0 0 15 16" fill="none" xmlns="http://www.w3.org/2000/svg">
<path d="M7.27665 3.33333H13.0007C13.1775 3.33333 13.347 3.40357 13.4721 3.5286C13.5971 3.65362 13.6673 3.82319 13.6673 4V13.3333C13.6673 13.5101 13.5971 13.6797 13.4721 13.8047C13.347 13.9298 13.1775 14 13.0007 14H1.00065C0.82384 14 0.654271 13.9298 0.529246 13.8047C0.404222 13.6797 0.333984 13.5101 0.333984 13.3333V2.66667C0.333984 2.48986 0.404222 2.32029 0.529246 2.19526C0.654271 2.07024 0.82384 2 1.00065 2H5.94332L7.27665 3.33333ZM1.66732 4.66667V12.6667H12.334V4.66667H1.66732Z" fill="#B4C0D4"/>
</svg>
