<svg width="16" height="16" viewBox="0 0 16 16" fill="none" xmlns="http://www.w3.org/2000/svg">
<path d="M7.99992 14.6663C4.31792 14.6663 1.33325 11.6817 1.33325 7.99967C1.33325 4.31767 4.31792 1.33301 7.99992 1.33301C11.6819 1.33301 14.6666 4.31767 14.6666 7.99967C14.6666 11.6817 11.6819 14.6663 7.99992 14.6663ZM6.47325 13.111C5.81553 11.7159 5.4345 10.2065 5.35125 8.66634H2.70792C2.83764 9.69227 3.26253 10.6585 3.93096 11.4475C4.5994 12.2365 5.48259 12.8144 6.47325 13.111ZM6.68659 8.66634C6.78725 10.2923 7.25192 11.8197 7.99992 13.1677C8.76813 11.784 9.21688 10.246 9.31325 8.66634H6.68659ZM13.2919 8.66634H10.6486C10.5653 10.2065 10.1843 11.7159 9.52659 13.111C10.5172 12.8144 11.4004 12.2365 12.0689 11.4475C12.7373 10.6585 13.1622 9.69227 13.2919 8.66634ZM2.70792 7.33301H5.35125C5.4345 5.79286 5.81553 4.28347 6.47325 2.88834C5.48259 3.18493 4.5994 3.76284 3.93096 4.55187C3.26253 5.3409 2.83764 6.30708 2.70792 7.33301ZM6.68725 7.33301H9.31259C9.21642 5.75341 8.7679 4.21536 7.99992 2.83167C7.23171 4.21531 6.78296 5.75336 6.68659 7.33301H6.68725ZM9.52659 2.88834C10.1843 4.28347 10.5653 5.79286 10.6486 7.33301H13.2919C13.1622 6.30708 12.7373 5.3409 12.0689 4.55187C11.4004 3.76284 10.5172 3.18493 9.52659 2.88834Z" fill="#B4C0D4"/>
</svg>
