<svg width="16" height="16" viewBox="0 0 16 16" fill="none" xmlns="http://www.w3.org/2000/svg">
<path d="M2.04259 5.00634C2.59726 3.90184 3.44817 2.97335 4.50021 2.32465C5.55225 1.67596 6.76396 1.33262 7.99992 1.33301C9.79659 1.33301 11.3059 1.99301 12.4599 3.06967L10.5486 4.98167C9.85725 4.32101 8.97859 3.98434 7.99992 3.98434C6.26325 3.98434 4.79325 5.15768 4.26992 6.73301C4.13659 7.13301 4.06059 7.55968 4.06059 7.99968C4.06059 8.43968 4.13659 8.86634 4.26992 9.26634C4.79392 10.8423 6.26325 12.015 7.99992 12.015C8.89659 12.015 9.65992 11.7783 10.2573 11.3783C10.6035 11.1503 10.9 10.8545 11.1287 10.5087C11.3574 10.1629 11.5136 9.77425 11.5879 9.36634H7.99992V6.78768H14.2786C14.3573 7.22368 14.3999 7.67834 14.3999 8.15101C14.3999 10.1817 13.6733 11.891 12.4119 13.051C11.3093 14.0697 9.79992 14.6663 7.99992 14.6663C7.12434 14.6667 6.25728 14.4945 5.44828 14.1596C4.63929 13.8247 3.90422 13.3336 3.28509 12.7145C2.66597 12.0954 2.17492 11.3603 1.84001 10.5513C1.5051 9.74232 1.3329 8.87525 1.33325 7.99968C1.33325 6.92368 1.59059 5.90634 2.04259 5.00634Z" fill="#B4C0D4"/>
</svg>
