<svg width="15" height="16" viewBox="0 0 15 16" fill="none" xmlns="http://www.w3.org/2000/svg">
<path d="M7.00094 14.6667L0.872938 8.53868C-0.580395 6.82668 -0.504395 4.25868 1.10827 2.64535C1.88161 1.87202 2.91877 1.41971 4.01168 1.37916C5.10458 1.3386 6.17241 1.7128 7.00094 2.42668C7.82863 1.7128 8.89552 1.33807 9.98783 1.37759C11.0801 1.41711 12.1172 1.86796 12.8911 2.63979C13.665 3.41162 14.1187 4.44741 14.1612 5.5396C14.2037 6.6318 13.8319 7.69971 13.1203 8.52935L7.00094 14.6667ZM12.1089 7.66068C12.6015 7.08628 12.8588 6.34697 12.8293 5.59088C12.7998 4.83479 12.4857 4.11777 11.9499 3.58348C11.4141 3.0492 10.6962 2.73712 9.94002 2.70977C9.18385 2.68242 8.44527 2.94183 7.87227 3.43601L7.00094 4.18801L6.1296 3.43601C5.55661 2.94183 4.81803 2.68242 4.06186 2.70977C3.30568 2.73712 2.58777 3.0492 2.05197 3.58348C1.51617 4.11777 1.20205 4.83479 1.17256 5.59088C1.14307 6.34697 1.40038 7.08628 1.89294 7.66068L1.96894 7.74868L7.00094 12.7813L12.0329 7.74868L12.1089 7.66068Z" fill="#B4C0D4"/>
</svg>
