<svg width="36" height="36" viewBox="0 0 36 36" fill="none" xmlns="http://www.w3.org/2000/svg">
<path opacity="0.25" d="M18 36C27.9411 36 36 27.9411 36 18C36 8.05887 27.9411 0 18 0C8.05887 0 0 8.05887 0 18C0 27.9411 8.05887 36 18 36Z" fill="#D5DFEF"/>
<path d="M23.6313 23.6347H21.262V19.922C21.262 19.0367 21.244 17.8973 20.0273 17.8973C18.792 17.8973 18.6033 18.8607 18.6033 19.8567V23.6347H16.234V16H18.51V17.0407H18.5407C18.8587 16.4407 19.632 15.8073 20.7873 15.8073C23.188 15.8073 23.632 17.3873 23.632 19.444V23.6347H23.6313ZM13.558 14.9553C12.7953 14.9553 12.1827 14.338 12.1827 13.5787C12.1827 12.82 12.796 12.2033 13.558 12.2033C14.318 12.2033 14.934 12.82 14.934 13.5787C14.934 14.338 14.3173 14.9553 13.558 14.9553ZM14.746 23.6347H12.37V16H14.746V23.6347ZM24.8167 10H11.1807C10.528 10 10 10.516 10 11.1527V24.8473C10 25.4847 10.528 26 11.1807 26H24.8147C25.4667 26 26 25.4847 26 24.8473V11.1527C26 10.516 25.4667 10 24.8147 10H24.8167Z" fill="#B4C0D4"/>
</svg>
