<svg width="16" height="16" viewBox="0 0 16 16" fill="none" xmlns="http://www.w3.org/2000/svg">
<path d="M8.70659 5.40715L9.64993 6.35048C10.0833 6.78383 10.4271 7.2983 10.6617 7.86451C10.8962 8.43073 11.0169 9.03761 11.0169 9.65048C11.0169 10.2634 10.8962 10.8702 10.6617 11.4364C10.4271 12.0027 10.0833 12.5171 9.64993 12.9505L9.41393 13.1858C8.53871 14.061 7.35167 14.5527 6.11393 14.5527C4.87619 14.5527 3.68914 14.061 2.81393 13.1858C1.93871 12.3106 1.44702 11.1236 1.44702 9.88581C1.44702 8.64807 1.93871 7.46103 2.81393 6.58581L3.75726 7.52915C3.44551 7.83818 3.19786 8.20575 3.02855 8.61075C2.85923 9.01575 2.77157 9.4502 2.77061 9.88917C2.76965 10.3281 2.8554 10.763 3.02294 11.1687C3.19049 11.5744 3.43652 11.9431 3.74691 12.2535C4.05731 12.5639 4.42596 12.8099 4.8317 12.9775C5.23744 13.145 5.67227 13.2308 6.11124 13.2298C6.5502 13.2288 6.98466 13.1412 7.38966 12.9719C7.79466 12.8025 8.16222 12.5549 8.47126 12.2431L8.70726 12.0071C9.33216 11.3821 9.68321 10.5344 9.68321 9.65048C9.68321 8.7666 9.33216 7.91891 8.70726 7.29381L7.76393 6.35048L8.70726 5.40781L8.70659 5.40715ZM13.1853 9.41448L12.2426 8.47181C12.5543 8.16278 12.802 7.79521 12.9713 7.39021C13.1406 6.98521 13.2283 6.55076 13.2292 6.11179C13.2302 5.67282 13.1445 5.23799 12.9769 4.83225C12.8094 4.42652 12.5633 4.05787 12.2529 3.74747C11.9425 3.43707 11.5739 3.19104 11.1682 3.0235C10.7624 2.85596 10.3276 2.7702 9.88862 2.77117C9.44965 2.77213 9.0152 2.85978 8.6102 3.0291C8.2052 3.19842 7.83763 3.44606 7.52859 3.75781L7.29259 3.99381C6.66769 4.61891 6.31664 5.4666 6.31664 6.35048C6.31664 7.23436 6.66769 8.08205 7.29259 8.70715L8.23593 9.65048L7.29259 10.5931L6.34993 9.65048C5.91654 9.21713 5.57275 8.70266 5.3382 8.13645C5.10365 7.57023 4.98292 6.96336 4.98292 6.35048C4.98292 5.7376 5.10365 5.13073 5.3382 4.56451C5.57275 3.9983 5.91654 3.48383 6.34993 3.05048L6.58593 2.81515C7.46114 1.93993 8.64819 1.44824 9.88593 1.44824C11.1237 1.44824 12.3107 1.93993 13.1859 2.81515C14.0611 3.69036 14.5528 4.87741 14.5528 6.11515C14.5528 7.35289 14.0611 8.53993 13.1859 9.41515L13.1853 9.41448Z" fill="#B4C0D4"/>
</svg>
