<svg width="18" height="19" viewBox="0 0 18 19" fill="none" xmlns="http://www.w3.org/2000/svg">
<path d="M5.25 4.17188C5.25 3.75766 5.58579 3.42188 6 3.42188H15C15.4142 3.42188 15.75 3.75766 15.75 4.17188C15.75 4.58609 15.4142 4.92188 15 4.92188H6C5.58579 4.92188 5.25 4.58609 5.25 4.17188ZM5.25 9.42188C5.25 9.00766 5.58579 8.67188 6 8.67188H15C15.4142 8.67188 15.75 9.00766 15.75 9.42188C15.75 9.83609 15.4142 10.1719 15 10.1719H6C5.58579 10.1719 5.25 9.83609 5.25 9.42188ZM5.25 14.6719C5.25 14.2577 5.58579 13.9219 6 13.9219H15C15.4142 13.9219 15.75 14.2577 15.75 14.6719C15.75 15.0861 15.4142 15.4219 15 15.4219H6C5.58579 15.4219 5.25 15.0861 5.25 14.6719Z" fill="#7B89A6"/>
<path d="M2.25 4.17188C2.25 3.75766 2.58579 3.42188 3 3.42188C3.41421 3.42188 3.75 3.75766 3.75 4.17188C3.75 4.58609 3.41421 4.92188 3 4.92188C2.58579 4.92188 2.25 4.58609 2.25 4.17188ZM2.25 9.42188C2.25 9.00766 2.58579 8.67188 3 8.67188C3.41421 8.67188 3.75 9.00766 3.75 9.42188C3.75 9.83609 3.41421 10.1719 3 10.1719C2.58579 10.1719 2.25 9.83609 2.25 9.42188ZM2.25 14.6719C2.25 14.2577 2.58579 13.9219 3 13.9219C3.41421 13.9219 3.75 14.2577 3.75 14.6719C3.75 15.0861 3.41421 15.4219 3 15.4219C2.58579 15.4219 2.25 15.0861 2.25 14.6719Z" fill="#7B89A6"/>
</svg>
