<svg width="44" height="44" viewBox="0 0 44 44" fill="none" xmlns="http://www.w3.org/2000/svg">
<path d="M22 44C34.1503 44 44 34.1503 44 22C44 9.84974 34.1503 0 22 0C9.84974 0 0 9.84974 0 22C0 34.1503 9.84974 44 22 44Z" fill="#4489F2"/>
<path d="M22.3453 16.1667H29.5003C29.7213 16.1667 29.9333 16.2545 30.0896 16.4107C30.2459 16.567 30.3337 16.779 30.3337 17V28.6667C30.3337 28.8877 30.2459 29.0996 30.0896 29.2559C29.9333 29.4122 29.7213 29.5 29.5003 29.5H14.5003C14.2793 29.5 14.0674 29.4122 13.9111 29.2559C13.7548 29.0996 13.667 28.8877 13.667 28.6667V15.3333C13.667 15.1123 13.7548 14.9004 13.9111 14.7441C14.0674 14.5878 14.2793 14.5 14.5003 14.5H20.6787L22.3453 16.1667Z" fill="white"/>
</svg>
