<svg width="250" height="250" viewBox="0 0 250 250" fill="none" xmlns="http://www.w3.org/2000/svg">
<path d="M250 0H0V250H250V0Z" fill="white"/>
<path d="M208.28 203.704C208.137 203.889 207.135 204.075 204.987 204.291C189.969 205.788 172.212 205.325 156.765 205.325C127.75 205.34 98.7168 205.016 69.7195 205.016C51.623 204.707 30.5552 203.905 48.4906 202.824C68.8782 201.589 90.9842 201.774 111.604 201.62C130.292 201.481 148.979 201.589 167.648 201.913C170.816 201.96 209.032 202.685 208.28 203.704Z" fill="#E8EEF9"/>
<path d="M192.437 65.459H56.1875C54.375 65.459 52.9166 66.9173 52.9166 68.7298V186.251H194.562V67.6048C194.562 66.4173 193.604 65.459 192.437 65.459Z" fill="#DBE6FF"/>
<path d="M194.958 65.459H58.7083C56.8958 65.459 55.4375 66.9173 55.4375 68.7298V186.251H197.083V67.6048C197.083 66.4173 196.125 65.459 194.958 65.459Z" fill="white"/>
<path d="M195.146 65.1462C191.083 65.1462 187.021 65.1462 182.937 65.1462C173.021 65.1462 163.104 65.1462 153.187 65.1462C140.833 65.1462 128.479 65.1462 116.146 65.1462C104.792 65.1462 93.4375 65.1462 82.0833 65.1462C75.1458 65.1462 68.2083 65.1462 61.25 65.1462C59.375 65.1462 57.3333 64.8962 55.9166 66.417C54.625 67.792 54.9583 69.9378 54.9583 71.6878C54.9583 79.542 54.9583 87.3962 54.9583 95.2295C54.9583 107.229 54.9583 119.209 54.9583 131.209C54.9583 142.75 54.9583 154.313 54.9583 165.854C54.9583 172.375 54.9583 178.896 54.9583 185.417C54.9583 185.729 54.9583 186.021 54.9583 186.334C54.9583 186.5 55.1041 186.604 55.2708 186.604C60 186.604 64.7291 186.604 69.4791 186.604C80.7708 186.604 92.0625 186.604 103.333 186.604C116.958 186.604 130.604 186.604 144.229 186.604C156 186.604 167.771 186.604 179.562 186.604C185.271 186.604 190.979 186.75 196.687 186.604C196.771 186.604 196.833 186.604 196.917 186.604C197.104 186.604 197.604 186.521 197.604 186.229C197.604 182.146 197.604 178.042 197.604 173.959C197.604 164.188 197.604 154.438 197.604 144.667C197.604 133.021 197.604 121.375 197.604 109.75C197.604 99.9378 197.604 90.1253 197.604 80.3128C197.604 76.0837 197.812 71.792 197.604 67.5837C197.521 66.1462 196.521 65.2295 195.146 65.1462C194.708 65.1253 194.104 65.7503 194.771 65.792C197.062 65.9378 196.583 68.8128 196.583 70.3962C196.583 73.1878 196.583 75.9587 196.583 78.7503C196.583 88.1878 196.583 97.6045 196.583 107.042C196.583 118.542 196.583 130.042 196.583 141.542C196.583 151.521 196.583 161.521 196.583 171.5C196.583 174.792 196.583 178.104 196.583 181.396C196.583 182.417 196.583 183.459 196.583 184.479C196.583 184.959 196.458 185.625 196.583 186.104C196.604 186.167 196.583 186.25 196.583 186.313C196.812 186.188 197.042 186.063 197.271 185.938C192.542 185.938 187.812 185.938 183.062 185.938C171.771 185.938 160.479 185.938 149.208 185.938C135.583 185.938 121.937 185.938 108.312 185.938C96.5417 185.938 84.7708 185.938 72.9791 185.938C69.125 185.938 65.25 185.938 61.3958 185.938C60.1875 185.938 58.9583 185.938 57.75 185.938C57.1875 185.938 56.4166 185.792 55.8541 185.938C55.7916 185.959 55.6875 185.938 55.625 185.938C55.7291 186.021 55.8333 186.125 55.9375 186.209C55.9375 181.646 55.9375 177.104 55.9375 172.542C55.9375 161.875 55.9375 151.229 55.9375 140.563C55.9375 128.375 55.9375 116.188 55.9375 104C55.9375 94.6462 55.9375 85.2712 55.9375 75.917C55.9375 73.7295 55.9375 71.542 55.9375 69.3545C55.9375 68.4378 55.9583 67.5628 56.5833 66.7712C57.2916 65.8753 58.1666 65.7503 59.1666 65.7503C64.7291 65.7503 70.3125 65.7503 75.875 65.7503C86.5208 65.7503 97.1666 65.7503 107.812 65.7503C120.104 65.7503 132.396 65.7503 144.687 65.7503C155.417 65.7503 166.125 65.7503 176.854 65.7503C182.562 65.7503 188.271 65.7503 193.979 65.7503C194.25 65.7503 194.521 65.7503 194.771 65.7503C195.187 65.792 195.812 65.1462 195.146 65.1462Z" fill="#56627F"/>
<path d="M197.083 74.9795H55.4375V67.3962C55.4375 66.3337 56.2917 65.4795 57.3542 65.4795H195.146C196.208 65.4795 197.063 66.3337 197.063 67.3962V74.9795H197.083Z" fill="#DBE6FF"/>
<path d="M197.292 74.7505C192.562 74.7505 187.833 74.7505 183.083 74.7505C171.792 74.7505 160.5 74.7505 149.229 74.7505C135.604 74.7505 121.958 74.7505 108.333 74.7505C96.5625 74.7505 84.7917 74.7505 73 74.7505C69.1458 74.7505 65.2708 74.7505 61.4167 74.7505C60.2083 74.7505 58.9792 74.7505 57.7708 74.7505C57.1667 74.7505 56.4792 74.6671 55.875 74.7505C55.7917 74.7713 55.7083 74.7505 55.6458 74.7505C55.75 74.7921 55.8333 74.813 55.9375 74.8546C55.9375 72.3546 55.75 69.7713 55.9375 67.2713C56.0625 65.6671 57.0625 65.7088 58.1667 65.7088C60.9583 65.7088 63.7708 65.7088 66.5625 65.7088C71.6042 65.7088 76.6458 65.7088 81.6875 65.7088C88.2708 65.7088 94.875 65.7088 101.458 65.7088C108.812 65.7088 116.187 65.7088 123.542 65.7088C131.021 65.7088 138.5 65.7088 145.979 65.7088C152.771 65.7088 159.583 65.7088 166.375 65.7088C171.833 65.7088 177.292 65.7088 182.75 65.7088C186.104 65.7088 189.438 65.7088 192.792 65.7088C193.458 65.7088 194.125 65.6671 194.792 65.7088C195.812 65.7713 196.521 66.5213 196.562 67.5421C196.646 68.8546 196.562 70.2088 196.562 71.5421C196.562 72.7296 196.562 73.938 196.562 75.1255C196.562 75.3546 197.562 75.188 197.562 74.8546C197.562 73.563 197.562 72.2505 197.562 70.9588C197.562 69.688 197.667 68.3755 197.542 67.1255C197.375 65.5213 195.937 65.2505 194.646 65.2505C191.979 65.2505 189.312 65.2505 186.625 65.2505C181.562 65.2505 176.5 65.2505 171.437 65.2505C164.75 65.2505 158.083 65.2505 151.396 65.2505C143.875 65.2505 136.333 65.2505 128.812 65.2505C121.208 65.2505 113.604 65.2505 105.979 65.2505C99.0625 65.2505 92.1458 65.2505 85.2292 65.2505C79.7708 65.2505 74.3125 65.2505 68.8542 65.2505C65.625 65.2505 62.3958 65.2505 59.1667 65.2505C58.625 65.2505 58.0833 65.2296 57.5625 65.2505C56.2083 65.2921 54.9792 66.1046 54.8958 67.5421C54.8333 68.8338 54.8958 70.1463 54.8958 71.438C54.8958 72.6671 54.8958 73.8963 54.8958 75.1255C54.8958 75.2296 55.1458 75.2296 55.1875 75.2296C59.9167 75.2296 64.6458 75.2296 69.3958 75.2296C80.6875 75.2296 91.9792 75.2296 103.25 75.2296C116.875 75.2296 130.521 75.2296 144.146 75.2296C155.917 75.2296 167.687 75.2296 179.479 75.2296C185.167 75.2296 190.896 75.4171 196.604 75.2296C196.687 75.2296 196.75 75.2296 196.833 75.2296C197.187 75.2088 197.958 74.7505 197.292 74.7505Z" fill="#56627F"/>
<path d="M63.1876 72.4372C64.4072 72.4372 65.3959 71.4485 65.3959 70.2288C65.3959 69.0092 64.4072 68.0205 63.1876 68.0205C61.9679 68.0205 60.9792 69.0092 60.9792 70.2288C60.9792 71.4485 61.9679 72.4372 63.1876 72.4372Z" fill="white"/>
<path d="M65.9167 70.0835C65.7292 66.7918 60.5 67.1877 60.4792 70.3127C60.4584 73.6251 65.75 73.2501 65.9167 70.146C65.9375 69.7502 64.9375 69.9585 64.9167 70.271C64.8542 71.2501 64.1875 72.3543 63.0417 72.1043C62.125 71.896 61.5 71.021 61.5 70.1043C61.5 69.0418 62.3959 67.9793 63.5417 68.3752C64.4167 68.6668 64.875 69.4585 64.9167 70.3543C64.9167 70.6668 65.9375 70.4585 65.9167 70.0835Z" fill="#56627F"/>
<path d="M69.8335 72.4382C71.0531 72.4382 72.0418 71.4494 72.0418 70.2298C72.0418 69.0102 71.0531 68.0215 69.8335 68.0215C68.6138 68.0215 67.6251 69.0102 67.6251 70.2298C67.6251 71.4494 68.6138 72.4382 69.8335 72.4382Z" fill="white"/>
<path d="M72.5626 70.0837C72.3751 66.792 67.1251 67.1462 67.1251 70.3129C67.1251 73.6462 72.3959 73.2921 72.5626 70.1462C72.5834 69.7087 71.5834 69.917 71.5626 70.2712C71.5001 71.2712 70.8126 72.3129 69.6876 72.0837C68.7709 71.8962 68.1668 71.0212 68.1668 70.1045C68.1668 69.0212 69.0626 68.0212 70.2084 68.3962C71.0834 68.667 71.5418 69.4795 71.5834 70.3545C71.5626 70.7087 72.5834 70.5004 72.5626 70.0837Z" fill="#56627F"/>
<path d="M76.4999 72.4381C77.7196 72.4381 78.7083 71.4494 78.7083 70.2298C78.7083 69.0102 77.7196 68.0215 76.4999 68.0215C75.2803 68.0215 74.2916 69.0102 74.2916 70.2298C74.2916 71.4494 75.2803 72.4381 76.4999 72.4381Z" fill="white"/>
<path d="M79.2083 70.0839C79.0416 66.8339 73.7708 67.313 73.7708 70.3547C73.75 73.6464 79.0416 73.0839 79.2083 70.0839C79.2083 69.9589 78.2083 70.063 78.2083 70.3547C78.1458 71.5214 77.2291 72.6464 75.9583 72.0005C75.25 71.6464 74.7708 70.8755 74.7916 70.0839C74.7916 68.9589 75.75 67.8547 76.9375 68.3755C77.7291 68.7297 78.1666 69.5005 78.2083 70.3547C78.2083 70.5214 79.2291 70.3547 79.2083 70.0839Z" fill="#56627F"/>
<path d="M160.937 170.188H87.7291V177.271H160.937V170.188Z" fill="#DBE6FF"/>
<path d="M103.417 173.896C108.062 173.896 112.729 173.896 117.375 173.896C124.812 173.896 132.229 173.896 139.667 173.896C141.396 173.896 143.104 173.896 144.833 173.896C145.417 173.896 145.604 173.125 144.917 173.125C140.271 173.125 135.604 173.125 130.958 173.125C123.521 173.125 116.104 173.125 108.667 173.125C106.937 173.125 105.229 173.125 103.5 173.125C102.917 173.125 102.729 173.896 103.417 173.896Z" fill="white"/>
<path d="M184.271 84.4375H68.25V94.5208H184.271V84.4375Z" fill="#DBE6FF"/>
<path d="M184.271 100.854H68.6875V163H184.271V100.854Z" fill="#DBE6FF"/>
<path d="M177.521 151.979C172.813 151.979 168.083 151.979 163.375 151.979C155.813 151.979 148.25 151.979 140.708 151.979C138.979 151.979 137.25 151.979 135.521 151.979C135.188 151.979 134.438 152.5 135.104 152.5C139.813 152.5 144.542 152.5 149.25 152.5C156.813 152.5 164.375 152.5 171.917 152.5C173.646 152.5 175.375 152.5 177.104 152.5C177.458 152.5 178.188 151.979 177.521 151.979Z" fill="white"/>
<path d="M177.146 143.584C172.479 143.584 167.813 143.584 163.146 143.584C155.708 143.584 148.25 143.584 140.812 143.584C139.083 143.584 137.354 143.584 135.646 143.584C135.437 143.584 134.521 143.98 134.979 143.98C139.646 143.98 144.312 143.98 148.979 143.98C156.417 143.98 163.875 143.98 171.313 143.98C173.042 143.98 174.771 143.98 176.479 143.98C176.688 143.98 177.604 143.584 177.146 143.584Z" fill="white"/>
<path d="M177.5 134.417C172.75 134.417 168.021 134.417 163.271 134.417C155.708 134.417 148.146 134.417 140.562 134.417C138.812 134.417 137.062 134.417 135.312 134.417C134.875 134.417 134.271 135.084 134.958 135.084C139.708 135.084 144.437 135.084 149.187 135.084C156.75 135.084 164.312 135.084 171.896 135.084C173.646 135.084 175.396 135.084 177.146 135.084C177.583 135.084 178.167 134.417 177.5 134.417Z" fill="white"/>
<path d="M177.5 125.667C172.792 125.667 168.062 125.667 163.354 125.667C155.792 125.667 148.229 125.667 140.687 125.667C138.958 125.667 137.229 125.667 135.5 125.667C135.083 125.667 134.437 126.292 135.125 126.292C139.833 126.292 144.562 126.292 149.271 126.292C156.833 126.292 164.396 126.292 171.938 126.292C173.667 126.292 175.396 126.292 177.125 126.292C177.542 126.292 178.188 125.667 177.5 125.667Z" fill="white"/>
<path d="M177.146 117.313C172.479 117.313 167.812 117.313 163.146 117.313C155.708 117.313 148.25 117.313 140.812 117.313C139.083 117.313 137.354 117.313 135.646 117.313C135.417 117.313 134.5 117.73 135 117.73C139.667 117.73 144.333 117.73 149 117.73C156.437 117.73 163.896 117.73 171.333 117.73C173.062 117.73 174.792 117.73 176.5 117.73C176.708 117.751 177.625 117.313 177.146 117.313Z" fill="white"/>
<path d="M177.521 108.271C172.771 108.271 168.042 108.271 163.292 108.271C155.729 108.271 148.167 108.271 140.583 108.271C138.833 108.271 137.083 108.271 135.333 108.271C135.042 108.271 134.25 108.73 134.917 108.73C139.667 108.73 144.396 108.73 149.146 108.73C156.708 108.73 164.271 108.73 171.854 108.73C173.604 108.73 175.354 108.73 177.104 108.73C177.396 108.73 178.187 108.271 177.521 108.271Z" fill="white"/>
<path d="M84.6041 89.9376C87.2708 89.9376 89.9375 89.9376 92.625 89.9376C99.0416 89.9376 105.458 89.9376 111.875 89.9376C119.667 89.9376 127.479 89.9376 135.271 89.9376C141.979 89.9376 148.687 89.9376 155.417 89.9376C157.625 89.9376 159.833 89.9376 162.042 89.9376C163.083 89.9376 164.188 90.0417 165.208 89.9376C165.25 89.9376 165.292 89.9376 165.354 89.9376C165.917 89.9376 166.125 89.2084 165.437 89.2084C162.771 89.2084 160.104 89.2084 157.417 89.2084C151 89.2084 144.583 89.2084 138.167 89.2084C130.375 89.2084 122.562 89.2084 114.771 89.2084C108.062 89.2084 101.354 89.2084 94.625 89.2084C92.4166 89.2084 90.2083 89.2084 88 89.2084C86.9583 89.2084 85.8541 89.1042 84.8333 89.2084C84.7916 89.2084 84.75 89.2084 84.6875 89.2084C84.125 89.2084 83.9166 89.9376 84.6041 89.9376Z" fill="white"/>
<path d="M125.146 159.021L75.25 159.188C74 159.188 72.9792 158.376 72.9792 157.376L72.875 106.521C72.875 105.521 73.8958 104.709 75.1458 104.688L125.042 104.521C126.292 104.521 127.312 105.334 127.312 106.334L127.417 157.188C127.417 158.188 126.396 159.021 125.146 159.021Z" fill="white"/>
<path d="M125.146 159.021C125.146 159.021 76.1667 159.187 75.2709 159.208C74.5625 159.208 73.7084 158.896 73.2917 158.167C72.5 156.792 73.2084 156.604 74.1667 156.187C76.4792 155.167 79.2292 154.854 81.6459 154.271C86.6459 153.062 91.6667 152.021 96.7084 151.104C106.896 149.271 117.167 148.042 127.479 147.438C127.458 150.583 127.396 153.75 127.417 156.896C127.417 158.062 126.396 159 125.146 159.021Z" fill="#DBE6FF"/>
<path d="M91.1198 122.222C93.1129 120.069 92.9831 116.707 90.8298 114.714C88.6765 112.721 85.3152 112.851 83.3222 115.004C81.3291 117.158 81.4589 120.519 83.6122 122.512C85.7655 124.505 89.1268 124.375 91.1198 122.222Z" fill="#DBE6FF"/>
<path d="M127.375 139.979C127.479 143.333 127.479 146.292 127.25 146.292C120.021 146.271 112.792 145.729 105.646 144.646C104.021 144.646 102.229 144.104 100.646 143.813C98.9167 143.5 97.2084 143.125 95.5 142.771C93.9584 142.438 92.2501 142.5 90.6667 142.375C88.8959 142.25 87.1251 142.125 85.3542 141.979C85.1042 141.958 84.8126 141.938 84.6459 141.729C84.3751 141.417 84.6251 140.938 84.9376 140.646C87.5001 138.292 90.6042 136.896 93.4167 134.875C95.8542 133.125 98.1459 131.104 99.8959 128.646C100.938 127.188 101.813 126.479 103.375 127.667C104.75 128.708 108.729 134.5 110.646 133.813C111.354 133.563 111.771 132.833 112.083 132.146C113.979 128.167 115 123.667 117.875 120.333C120.417 117.396 122.188 123.396 123.188 124.021C123.625 124.292 123.938 124.708 124.083 125.208C124.813 127.5 126.417 128.667 126.813 130.771C127.042 131.625 127.271 136.063 127.375 139.979Z" fill="#DBE6FF"/>
<path d="M115.625 125.521C116.437 124.917 117.417 124.375 118.437 124.75C118.979 124.938 119.625 125.834 120.229 125.605C120.625 125.459 120.917 125.084 121.333 124.938C121.75 124.813 122.187 124.813 122.604 124.875C123 124.938 123.375 125.042 123.729 125.146C123.479 124.75 123.229 124.355 122.979 123.959C121.937 122.334 120.312 118.334 118.146 120.834C116.875 122.313 115.958 124.021 115.188 125.813C115.354 125.73 115.479 125.625 115.625 125.521Z" fill="white"/>
<path d="M99.125 131.354C99.6458 132 100.833 132.896 101.75 132.646C102.104 132.542 102.292 132.167 102.604 131.979C102.958 131.75 103.375 131.709 103.792 131.75C104.979 131.875 106.021 132.542 107.25 132.229C105.792 130.709 104.396 128.896 103.687 128.375C102.125 127.209 101.25 127.896 100.208 129.354C99.7708 129.979 99.2916 130.563 98.7916 131.146C98.875 131.146 99 131.209 99.125 131.354Z" fill="white"/>
<path d="M127.646 130.542C126.208 127.98 124.604 125.501 123.083 122.98C122.375 121.792 121.625 119.855 120.167 119.376C118.604 118.876 117.396 120.355 116.604 121.459C115.104 123.584 114.167 126.042 113.229 128.438C112.771 129.605 112.313 130.771 111.792 131.896C111.583 132.355 111.333 133.001 110.917 133.355C110.417 133.792 110 133.459 109.521 133.167C108.083 132.23 106.917 130.792 105.792 129.501C104.938 128.521 103.938 127.042 102.521 126.855C100.604 126.605 99.625 128.542 98.6042 129.771C96.625 132.188 94.1459 134.126 91.5625 135.855C90.2709 136.709 88.9792 137.521 87.6459 138.313C87 138.709 86.3334 139.105 85.7084 139.521C85.125 139.938 84.6042 140.542 83.9792 140.876C83.3959 141.188 84.3125 141.167 84.5625 141.021C85.5834 140.48 86.4167 139.584 87.4167 138.959C88.5625 138.251 89.7084 137.563 90.8542 136.834C92.8334 135.563 94.7917 134.23 96.5834 132.688C97.5417 131.855 98.4584 130.938 99.2917 129.98C99.8542 129.313 100.938 127.188 101.938 127.292C103.188 127.396 104.438 129.355 105.167 130.188C106.542 131.751 109.146 135.355 111.563 133.521C112.333 132.938 112.688 131.938 113.063 131.105C113.563 129.959 114.021 128.792 114.479 127.626C115.333 125.438 116.229 123.209 117.604 121.271C117.875 120.876 118.542 119.771 119.083 119.709C119.5 119.667 119.958 120.126 120.208 120.396C120.896 121.105 121.354 122.021 121.833 122.876C123.375 125.542 125.083 128.105 126.604 130.792C126.792 131.084 127.729 130.709 127.646 130.542Z" fill="#DBE6FF"/>
<path d="M73.1458 154.938C73.1458 155.563 73.1458 156.209 73.1458 156.834C73.1458 156.605 78.6042 155.438 79.1458 155.313C81.0625 154.834 83.0417 154.417 84.9583 153.896C88.5 152.938 91.9583 152.001 95.6875 151.73C99.75 151.438 103.833 151.209 107.896 150.98C111.792 150.751 115.688 150.563 119.563 150.209C122.167 149.959 124.646 149.209 127.188 148.73C127.167 148.334 127.021 144.376 126.958 144.376C126.667 144.396 126.375 144.417 126.104 144.438C120.354 144.834 114.563 144.542 108.875 143.563C103.354 142.605 97.6875 142.376 92.0833 141.792C88.4375 141.417 84.7917 141.105 81.1667 141.188C79.9167 141.209 78.6458 141.438 77.3958 141.334C77.0417 141.313 73.1667 141.063 73.1667 141.021C73.1458 141.709 72.9583 142.334 72.8958 143.001C72.8542 143.563 72.9167 144.167 72.9583 144.73C73.0208 146.084 73.0833 147.417 73.1458 148.771C73.1875 149.896 73.25 151.021 73.2917 152.167C73.3125 152.855 73.1667 153.459 73.1458 154.146C73.1458 154.417 73.1458 154.667 73.1458 154.938Z" fill="white"/>
<path d="M73.9792 141.563C80.9167 141.167 87.875 141.25 94.7917 141.958C101.604 142.646 108.271 144.333 115.083 144.875C118.854 145.188 122.625 145.083 126.396 144.833C126.667 144.813 127.479 144.375 126.833 144.417C123.333 144.667 119.833 144.75 116.333 144.5C112.854 144.25 109.417 143.625 105.979 143.042C99.3125 141.917 92.6667 141.104 85.9167 140.938C82.0834 140.854 78.25 140.917 74.4375 141.146C74.1459 141.167 73.3125 141.583 73.9792 141.563Z" fill="#EFEFEF"/>
<path d="M125.208 158.688C119.313 158.709 113.438 158.729 107.542 158.75C98.4792 158.792 89.4167 158.813 80.375 158.854C79.125 158.854 77.8958 158.854 76.6458 158.875C76.0208 158.875 75.2917 158.979 74.6875 158.771C73.4375 158.354 73.5208 157.396 73.5208 156.375C73.5208 155.229 73.5208 154.084 73.5208 152.938C73.5 144.042 73.4792 135.146 73.4583 126.25C73.4583 121.896 73.4375 117.542 73.4375 113.167C73.4375 111 73.2917 108.771 73.4167 106.604C73.4792 105.417 74.4792 105.063 75.5 105.042C76.4167 105.042 77.3333 105.042 78.25 105.042C81.9583 105.021 85.6458 105.021 89.3542 105C98.6875 104.959 108.021 104.938 117.354 104.896C119.792 104.896 122.229 104.854 124.667 104.875C125.729 104.875 126.729 105.354 126.792 106.521C126.833 107.292 126.792 108.063 126.792 108.813C126.813 117.167 126.833 125.521 126.854 133.875C126.875 141.375 126.896 148.875 126.896 156.354C126.896 157.542 126.854 158.584 125.208 158.688C124.625 158.729 124.438 159.479 125.125 159.438C126.729 159.354 127.938 158.396 127.938 156.792C127.938 155.834 127.938 154.875 127.938 153.896C127.938 150.042 127.917 146.209 127.917 142.354C127.896 132.729 127.875 123.104 127.854 113.479C127.854 111.125 127.896 108.771 127.833 106.417C127.771 103.813 124.896 104.104 123.042 104.104C114.521 104.125 105.979 104.167 97.4583 104.188C90.1667 104.209 82.875 104.188 75.5625 104.271C74.1458 104.292 72.5208 104.875 72.3958 106.5C72.3542 107.021 72.3958 107.542 72.3958 108.063C72.3958 111.375 72.4167 114.688 72.4167 118.021C72.4375 127.792 72.4583 137.563 72.4792 147.334C72.4792 150.375 72.5 153.417 72.5 156.459C72.5 157.229 72.4167 158 72.9375 158.646C73.7083 159.584 74.875 159.604 75.9792 159.584C83.7083 159.563 91.4167 159.521 99.1458 159.5C107.333 159.479 115.542 159.438 123.729 159.417C124.188 159.417 124.667 159.417 125.125 159.417C125.688 159.438 125.875 158.688 125.208 158.688Z" fill="white"/>
</svg>
