<svg width="360" height="12" viewBox="0 0 360 12" fill="none" xmlns="http://www.w3.org/2000/svg">
<rect y="5" width="146" height="1" rx="0.5" fill="#E8EEF9"/>
<path d="M177.47 9.1C176.563 9.1 175.857 8.87 175.35 8.41C174.843 7.95 174.577 7.26667 174.55 6.36C174.543 6.16667 174.54 5.88333 174.54 5.51C174.54 5.13 174.543 4.84333 174.55 4.65C174.577 3.76333 174.85 3.08333 175.37 2.61C175.89 2.13667 176.59 1.9 177.47 1.9C178.35 1.9 179.05 2.13667 179.57 2.61C180.097 3.08333 180.373 3.76333 180.4 4.65C180.413 5.03667 180.42 5.32333 180.42 5.51C180.42 5.69 180.413 5.97333 180.4 6.36C180.367 7.26667 180.097 7.95 179.59 8.41C179.083 8.87 178.377 9.1 177.47 9.1ZM177.47 7.95C177.917 7.95 178.273 7.81667 178.54 7.55C178.807 7.27667 178.95 6.86333 178.97 6.31C178.983 5.91 178.99 5.64 178.99 5.5C178.99 5.34667 178.983 5.07667 178.97 4.69C178.95 4.13667 178.807 3.72667 178.54 3.46C178.273 3.18667 177.917 3.05 177.47 3.05C177.03 3.05 176.677 3.18667 176.41 3.46C176.143 3.72667 176 4.13667 175.98 4.69C175.973 4.88333 175.97 5.15333 175.97 5.5C175.97 5.84 175.973 6.11 175.98 6.31C176 6.86333 176.14 7.27667 176.4 7.55C176.667 7.81667 177.023 7.95 177.47 7.95ZM182.373 9C182.306 9 182.25 8.97667 182.203 8.93C182.156 8.88333 182.133 8.82667 182.133 8.76V2.25C182.133 2.17667 182.153 2.11667 182.193 2.07C182.24 2.02333 182.3 2 182.373 2H184.963C185.776 2 186.413 2.19 186.873 2.57C187.34 2.95 187.573 3.49 187.573 4.19C187.573 4.67667 187.453 5.08667 187.213 5.42C186.98 5.74667 186.653 5.98333 186.233 6.13L187.693 8.68C187.713 8.72 187.723 8.75667 187.723 8.79C187.723 8.85 187.7 8.9 187.653 8.94C187.613 8.98 187.566 9 187.513 9H186.603C186.496 9 186.413 8.97667 186.353 8.93C186.3 8.88333 186.25 8.81667 186.203 8.73L184.913 6.36H183.523V8.76C183.523 8.82667 183.5 8.88333 183.453 8.93C183.413 8.97667 183.356 9 183.283 9H182.373ZM184.933 5.23C185.333 5.23 185.633 5.14 185.833 4.96C186.04 4.78 186.143 4.52 186.143 4.18C186.143 3.84 186.04 3.57667 185.833 3.39C185.633 3.20333 185.333 3.11 184.933 3.11H183.523V5.23H184.933Z" fill="#B4C0D4"/>
<rect x="214" y="5" width="146" height="1" rx="0.5" fill="#E8EEF9"/>
</svg>
