<svg width="26" height="36" viewBox="0 0 26 36" fill="none" xmlns="http://www.w3.org/2000/svg">
<mask id="mask0" mask-type="alpha" maskUnits="userSpaceOnUse" x="0" y="5" width="26" height="31">
<path d="M8.49118 35.2383C7.61903 35.7366 6.62038 35.9999 5.6025 35.9999C2.50832 35.9999 0 33.6184 0 30.6806L0 5.02832L22.635 18.0605C23.4116 18.5077 24.0621 19.1274 24.5304 19.8662C26.1257 22.3834 25.2698 25.6519 22.6187 27.1666L8.49118 35.2383Z" fill="white"/>
</mask>
<g mask="url(#mask0)">
<path opacity="0.6" d="M8.49118 35.2383C7.61903 35.7366 6.62038 35.9999 5.6025 35.9999C2.50832 35.9999 0 33.6184 0 30.6806L0 5.02832L22.635 18.0605C23.4116 18.5077 24.0621 19.1274 24.5304 19.8662C26.1257 22.3834 25.2698 25.6519 22.6187 27.1666L8.49118 35.2383Z" fill="white"/>
</g>
<path fill-rule="evenodd" clip-rule="evenodd" d="M0 24.8091L0 5.32005C0 4.33604 0.287481 3.37131 0.83047 2.53316C2.45157 0.0308667 5.90224 -0.749914 8.53775 0.78924L17.0755 5.77533C17.8232 6.21199 18.4524 6.80935 18.9123 7.51925C20.5334 10.0215 19.711 13.2978 17.0755 14.8369L0 24.8091Z" fill="url(#paint0_linear)"/>
<defs>
<linearGradient id="paint0_linear" x1="6.47637e-08" y1="5.2461" x2="15.4942" y2="11.4314" gradientUnits="userSpaceOnUse">
<stop stop-color="white" stop-opacity="0.8"/>
<stop offset="1" stop-color="white"/>
</linearGradient>
</defs>
</svg>
