<svg width="36" height="36" viewBox="0 0 36 36" fill="none" xmlns="http://www.w3.org/2000/svg">
<circle cx="18" cy="18" r="18" fill="#3A7EFF" fill-opacity="0.1"/>
<circle cx="18" cy="18" r="18" fill="white" fill-opacity="0.1"/>
<path opacity="0.6" d="M17.3392 27.582C16.8777 27.8554 16.3492 27.9999 15.8105 27.9999C14.1731 27.9999 12.8457 26.693 12.8457 25.0809L12.8457 11.0039L24.8241 18.1555C25.2351 18.4008 25.5793 18.7409 25.8271 19.1464C26.6714 20.5277 26.2185 22.3213 24.8155 23.1525L17.3392 27.582Z" fill="white"/>
<path opacity="0.94" fill-rule="evenodd" clip-rule="evenodd" d="M12.8457 21.8584V11.1636C12.8457 10.6236 12.9978 10.0942 13.2852 9.63424C14.1431 8.26108 15.9692 7.83262 17.3639 8.67724L21.882 11.4134C22.2777 11.653 22.6107 11.9808 22.8541 12.3704C23.7119 13.7436 23.2768 15.5414 21.882 16.3861L12.8457 21.8584Z" fill="white"/>
</svg>
