<svg width="16" height="17" viewBox="0 0 16 17" fill="none" xmlns="http://www.w3.org/2000/svg">
<g filter="url(#filter0_dd)">
<path d="M1.49501 5.02636L7.65967 1.33036C7.76329 1.26819 7.88184 1.23535 8.00268 1.23535C8.12351 1.23535 8.24206 1.26819 8.34567 1.33036L14.5043 5.02702C14.5538 5.05663 14.5947 5.09854 14.623 5.14867C14.6514 5.19879 14.6664 5.25542 14.6663 5.31302V13.7904C14.6663 13.9672 14.5961 14.1367 14.4711 14.2618C14.3461 14.3868 14.1765 14.457 13.9997 14.457H1.99967C1.82286 14.457 1.65329 14.3868 1.52827 14.2618C1.40325 14.1367 1.33301 13.9672 1.33301 13.7904V5.31236C1.333 5.25475 1.34791 5.19813 1.3763 5.148C1.4047 5.09788 1.44559 5.05597 1.49501 5.02636ZM12.2303 5.95302L8.04034 9.57902L3.76434 5.94902L2.90167 6.96502L8.04834 11.335L13.1023 6.96169L12.2303 5.95302Z" fill="white"/>
</g>
<defs>
<filter id="filter0_dd" x="-1" y="-0.542969" width="18" height="19" filterUnits="userSpaceOnUse" color-interpolation-filters="sRGB">
<feFlood flood-opacity="0" result="BackgroundImageFix"/>
<feColorMatrix in="SourceAlpha" type="matrix" values="0 0 0 0 0 0 0 0 0 0 0 0 0 0 0 0 0 0 127 0"/>
<feOffset dy="2"/>
<feColorMatrix type="matrix" values="0 0 0 0 0 0 0 0 0 0.153 0 0 0 0 0.45 0 0 0 0.01 0"/>
<feBlend mode="normal" in2="BackgroundImageFix" result="effect1_dropShadow"/>
<feColorMatrix in="SourceAlpha" type="matrix" values="0 0 0 0 0 0 0 0 0 0 0 0 0 0 0 0 0 0 127 0"/>
<feOffset/>
<feGaussianBlur stdDeviation="0.5"/>
<feColorMatrix type="matrix" values="0 0 0 0 0 0 0 0 0 0.152941 0 0 0 0 0.45098 0 0 0 0.01 0"/>
<feBlend mode="normal" in2="effect1_dropShadow" result="effect2_dropShadow"/>
<feBlend mode="normal" in="SourceGraphic" in2="effect2_dropShadow" result="shape"/>
</filter>
</defs>
</svg>
