<svg width="16" height="16" viewBox="0 0 16 16" fill="none" xmlns="http://www.w3.org/2000/svg">
<path d="M1.49501 4.56933L7.65967 0.873327C7.76329 0.811159 7.88184 0.77832 8.00268 0.77832C8.12351 0.77832 8.24206 0.811159 8.34567 0.873327L14.5043 4.56999C14.5538 4.5996 14.5947 4.64151 14.623 4.69164C14.6514 4.74176 14.6664 4.79839 14.6663 4.85599V13.3333C14.6663 13.5101 14.5961 13.6797 14.4711 13.8047C14.3461 13.9298 14.1765 14 13.9997 14H1.99967C1.82286 14 1.65329 13.9298 1.52827 13.8047C1.40325 13.6797 1.33301 13.5101 1.33301 13.3333V4.85533C1.333 4.79772 1.34791 4.74109 1.3763 4.69097C1.4047 4.64085 1.44559 4.59894 1.49501 4.56933ZM2.66634 5.42199V12.6667H13.333V5.42133L8.00234 2.22133L2.66634 5.42133V5.42199ZM8.03967 9.13199L11.5703 6.15666L12.429 7.17666L8.04901 10.868L3.57567 7.18133L4.42367 6.15199L8.03967 9.13199Z" fill="#B4C0D4"/>
</svg>
