<svg width="16" height="16" viewBox="0 0 16 16" fill="none" xmlns="http://www.w3.org/2000/svg">
<path d="M1.4955 4.56933L7.66016 0.873327C7.76377 0.811159 7.88233 0.77832 8.00316 0.77832C8.12399 0.77832 8.24255 0.811159 8.34616 0.873327L14.5048 4.56999C14.5542 4.5996 14.5951 4.64151 14.6235 4.69164C14.6519 4.74176 14.6668 4.79839 14.6668 4.85599V13.3333C14.6668 13.5101 14.5966 13.6797 14.4716 13.8047C14.3465 13.9298 14.177 14 14.0002 14H2.00016C1.82335 14 1.65378 13.9298 1.52876 13.8047C1.40373 13.6797 1.3335 13.5101 1.3335 13.3333V4.85533C1.33348 4.79772 1.3484 4.74109 1.37679 4.69097C1.40518 4.64085 1.44608 4.59894 1.4955 4.56933ZM12.2308 5.49599L8.04083 9.12199L3.76483 5.49199L2.90216 6.50799L8.04883 10.878L13.1028 6.50466L12.2308 5.49599Z" fill="#B4C0D4"/>
</svg>
