<svg width="272" height="272" viewBox="0 0 272 272" fill="none" xmlns="http://www.w3.org/2000/svg">
<path d="M272 0H0V272H272V0Z" fill="white"/>
<path d="M80.6139 226.195C76.9646 218.606 76.3073 209.488 67.1907 203.642C56.1747 196.579 45.3877 192.164 36.1941 182.709C27.1999 173.461 22.6507 163.982 22.6643 152.032C22.6825 137.972 23.5914 124.048 32.0483 112.334C46.2263 92.6954 64.1602 75.2149 84.9773 61.0981C106.436 46.5461 132.865 31.7855 160.906 37.5406C166.122 38.6105 172.167 39.6758 176.034 43.2866C184.4 51.0998 175.546 61.5582 178.232 70.4277C182.537 84.6487 198.46 80.8974 209.1 79.8479C223.332 78.4449 237.664 79.381 245.158 93.8469C256.12 115.008 243.483 139.749 230.395 157.617C214.76 178.962 192.773 196.563 170.938 212.711C150.466 227.852 118.569 249.302 90.5215 236.205C85.281 233.757 82.5338 230.187 80.6139 226.195Z" fill="#F6F9FE"/>
<path d="M112.046 132.92C132.963 132.92 149.919 115.963 149.919 95.046C149.919 74.1289 132.963 57.1722 112.046 57.1722C91.1286 57.1722 74.172 74.1289 74.172 95.046C74.172 115.963 91.1286 132.92 112.046 132.92Z" fill="white"/>
<mask id="mask0" mask-type="alpha" maskUnits="userSpaceOnUse" x="74" y="57" width="76" height="76">
<path d="M112.046 132.92C132.963 132.92 149.919 115.963 149.919 95.046C149.919 74.1289 132.963 57.1722 112.046 57.1722C91.1286 57.1722 74.172 74.1289 74.172 95.046C74.172 115.963 91.1286 132.92 112.046 132.92Z" fill="white"/>
</mask>
<g mask="url(#mask0)">
<path d="M124.934 115.024C124.353 112.948 123.982 110.815 123.9 108.63C123.682 102.766 124.63 96.8752 123.846 91.0295C123.084 85.347 119.698 78.0188 112.977 78.2115C106.882 78.386 102.698 83.6107 101.712 89.2502C100.349 97.052 101.739 105.09 100.705 112.932C100.413 115.154 99.9163 117.35 99.1207 119.447C97.1442 124.662 94.1001 129.388 92.017 134.556C87.5222 145.708 85.3213 157.663 85.2986 169.676C85.2963 171.183 85.4346 190.742 85.3802 190.745C86.4206 190.697 87.5358 189.582 88.4923 189.156C96.9561 185.37 106.789 184.527 115.937 183.827C123.397 183.253 131.486 184.235 138.66 181.712C138.66 181.712 139.719 166.766 139.418 162.021C138.923 154.288 137.686 146.592 135.333 139.196C134.064 135.202 132.826 130.959 130.646 127.366C128.315 123.531 126.16 119.404 124.934 115.024Z" fill="#E3E3E3"/>
<path d="M123.504 132.961C126.369 131.364 127.396 127.747 125.799 124.882C124.203 122.017 120.585 120.989 117.721 122.586C114.856 124.183 113.828 127.8 115.425 130.665C117.022 133.53 120.639 134.558 123.504 132.961Z" fill="white"/>
<path d="M98.5687 129.349C101.788 128.722 103.891 125.605 103.264 122.385C102.638 119.166 99.5208 117.064 96.3013 117.69C93.0818 118.316 90.9795 121.433 91.6056 124.653C92.2317 127.872 95.3492 129.975 98.5687 129.349Z" fill="white"/>
<path d="M124.104 99.2892C124.439 83.3002 119.471 78.2908 112.977 78.3271C106.483 78.3611 100.653 83.7852 100.716 95.7396C100.719 96.0162 100.737 98.9946 100.739 99.4842C100.755 102.512 101.056 113.488 101.025 114.236C100.954 115.911 104.502 118.171 105.674 119.012C107.847 120.576 110.361 121.487 113.061 121.482C117.089 121.475 121.493 121.382 124.621 113.807C124.847 113.256 124.099 99.5794 124.104 99.2892Z" fill="white"/>
<path d="M101.829 116.663C103.115 118.522 105.513 120.047 107.53 120.99C109.634 121.972 112.029 122.418 114.339 122.096C117.911 121.598 122.535 119.682 123.891 116.035C124.104 115.464 123.009 115.509 122.85 115.936C121.626 119.229 117.451 120.993 114.194 121.376C111.97 121.639 109.672 121.095 107.707 120.05C105.984 119.134 103.953 117.812 102.836 116.194C102.573 115.811 101.523 116.217 101.829 116.663Z" fill="#56627F"/>
<path d="M117.313 107.114C117.066 108.562 115.903 109.573 114.718 109.369C113.834 109.217 113.247 108.442 113.049 107.608C112.777 106.452 112.646 105.255 112.471 104.076C113.988 104.033 115.502 103.988 117.018 103.945C117.136 103.943 117.261 103.94 117.363 103.999C117.549 104.108 117.576 104.362 117.574 104.577C117.574 105.443 117.458 106.271 117.313 107.114Z" fill="#56627F"/>
<path d="M98.7558 71.722C98.8328 72.8508 98.987 74.2992 97.8808 74.9837C97.3958 75.2852 96.8291 75.4212 96.3032 75.6456C93.8938 76.6747 92.536 79.7732 93.6014 82.2076C94.0343 83.1959 94.7347 83.6379 95.4804 84.336C96.4846 85.2767 96.3055 86.0292 96.5684 87.4617C97.3142 91.5259 98.8918 95.828 101.075 99.3391C100.2 97.9337 101.648 94.9372 102.131 93.5409C103.334 90.0616 104.49 85.8093 109.092 86.9563C111.349 87.5184 110.962 89.4564 112.512 90.5489C113.612 91.3241 115.083 91.2697 116.205 90.5716C117.469 89.7828 117.803 88.5225 117.905 87.1308C118.653 87.1897 119.271 87.7383 119.994 87.9355C121.116 88.2437 122.112 87.9151 122.941 87.1625C123.263 86.8701 123.651 85.9431 124.12 85.8796C124.856 85.7821 125.264 86.8928 125.836 87.2827C127.504 88.4183 129.383 86.4236 130.224 85.1293C130.623 84.5151 130.951 83.8328 131.013 83.1029C131.246 80.2469 128.084 78.1253 125.507 79.2541C125.5 78.4812 125.947 77.7899 126.241 77.0736C127.021 75.1877 126.103 72.5312 124.349 71.5475C123.413 71.0239 122.132 70.9355 121.341 71.6563C122.18 70.8924 120.11 68.1792 119.582 67.7327C118.072 66.4611 116.096 65.8423 114.142 65.7607C112.635 65.6995 111.463 66.0485 110.062 66.5563C108.07 67.2793 107.117 65.7697 105.254 65.6111C103.022 65.4207 99.6942 66.3727 98.8079 68.6937C98.5314 69.4191 98.6764 70.5751 98.7558 71.722Z" fill="#5D82F1"/>
<path d="M130.566 126.172C128.402 122.484 126.468 118.613 125.369 114.462C124.22 110.128 124.383 105.738 124.571 101.3C124.85 94.7537 125.092 87.5207 120.99 81.9742C119.414 79.8435 117.17 78.2637 114.496 77.9554C111.751 77.6381 108.904 78.4881 106.682 80.1042C100.723 84.4449 100.501 92.2331 100.519 98.9402C100.531 103.764 100.791 108.621 100.1 113.415C99.3973 118.307 97.3255 122.645 95.0997 127.004C94.8594 127.475 95.9519 127.366 96.1219 127.036C97.8401 123.674 99.6149 120.256 100.551 116.577C101.551 112.649 101.687 108.567 101.671 104.534C101.655 100.434 101.474 96.3199 101.859 92.2286C102.169 88.9193 102.861 85.7233 104.86 82.9965C106.789 80.3649 109.74 78.5153 113.07 78.5266C115.928 78.5379 118.322 80.1722 119.974 82.4071C124.047 87.9129 123.739 95.1685 123.465 101.651C123.277 106.067 123.129 110.441 124.274 114.755C125.389 118.959 127.357 122.869 129.551 126.605C129.737 126.922 130.802 126.573 130.566 126.172Z" fill="#56627F"/>
</g>
<path d="M74.7204 94.8987C74.7839 79.3244 84.6484 64.9741 99.3432 59.6429C114.206 54.2528 131.244 59.3007 141.088 71.5679C150.844 83.724 152.045 101.227 143.985 114.582C135.805 128.135 119.63 135.164 104.149 131.732C89.141 128.405 77.411 115.736 75.1398 100.552C74.8587 98.6795 74.7272 96.7913 74.7204 94.8987C74.7182 94.5813 73.6234 94.7808 73.6256 95.1911C73.6914 111.282 84.1316 125.979 99.4067 131.168C114.407 136.263 131.485 131.465 141.635 119.311C151.987 106.917 153.301 88.7945 144.847 75.0359C136.421 61.3225 119.893 54.4205 104.192 57.7117C88.7738 60.944 76.4703 73.7031 74.0676 89.3113C73.7684 91.2584 73.6324 93.2213 73.6234 95.1911C73.6234 95.5084 74.7182 95.3112 74.7204 94.8987Z" fill="#56627F"/>
<path d="M98.4458 214.302C119.363 214.302 136.32 197.346 136.32 176.429C136.32 155.511 119.363 138.555 98.4458 138.555C77.5287 138.555 60.5721 155.511 60.5721 176.429C60.5721 197.346 77.5287 214.302 98.4458 214.302Z" fill="white"/>
<mask id="mask1" mask-type="alpha" maskUnits="userSpaceOnUse" x="60" y="138" width="77" height="77">
<path d="M98.4458 214.302C119.363 214.302 136.32 197.346 136.32 176.429C136.32 155.511 119.363 138.555 98.4458 138.555C77.5287 138.555 60.5721 155.511 60.5721 176.429C60.5721 197.346 77.5287 214.302 98.4458 214.302Z" fill="white"/>
</mask>
<g mask="url(#mask1)">
<path d="M78.8727 208.688C81.0623 202.065 84.1495 195.51 89.0841 190.686C89.0841 190.589 89.0841 190.494 89.0841 190.396C89.0841 185.269 89.0161 180.13 89.0161 175.012C89.0161 164.366 94.1863 155.528 100.565 155.528C106.943 155.528 112.113 164.366 112.113 175.012C112.113 175.259 112.113 176.486 112.113 176.921C112.113 179.527 112.234 182.243 112.252 184.89C112.261 186.302 112.243 187.717 112.163 189.127C112.159 189.226 112.15 189.324 112.143 189.424C113.045 190.283 113.866 191.196 114.657 192.119C128.835 208.645 127.291 241.741 124.952 246.115C124.952 246.115 121.346 248.484 100.993 248.366C84.4419 249.087 75.7991 245.895 75.7991 245.895C75.7991 245.895 73.197 225.849 78.8727 208.688Z" fill="white"/>
<path d="M115.645 193.678C114.852 194.306 114.908 195.748 114.065 196.321C112.746 198.073 110.903 199.42 109.135 200.734C108.24 201.401 107.032 202.053 105.955 201.369C105.397 201.015 105.112 200.417 104.706 199.92C104.162 199.254 103.491 198.669 102.879 198.055C102.707 198.207 102.537 198.406 102.371 198.628C101.687 199.549 101.131 201.521 100.184 202.196C99.6852 202.552 94.8051 200.954 92.8784 199.32C91.6386 198.268 90.4803 197.244 89.084 196.4C87.9824 195.736 86.9375 195.029 86.0784 194.113C82.8326 198.404 80.575 203.522 78.8682 208.683C73.1947 225.844 75.79 245.891 75.79 245.891C75.79 245.891 84.4328 249.082 100.984 248.361C121.336 248.479 124.943 246.111 124.943 246.111C127.175 241.945 127.785 210.814 115.645 193.678Z" fill="#E8EEF9"/>
<path d="M85.7498 158.053C84.0589 161.392 83.5964 165.367 84.664 168.962C86.559 168.922 88.4562 168.926 90.3534 168.908C91.2102 166.92 92.4999 164.706 94.1274 163.332C94.6532 164.624 95.6755 166.673 96.1107 168.022C100.492 168.017 104.25 166.907 108.688 167.364C109.21 167.419 117.118 168.602 117.118 168.287C117.089 163.475 115.151 158.699 111.816 155.229C105.089 148.227 96.3102 147.61 89.2631 153.569C87.7966 154.809 86.6134 156.348 85.7498 158.053Z" fill="#FFDD85"/>
<path d="M86.4159 194.941C89.0385 197.543 92.1053 199.379 95.3511 201.115C96.2646 201.605 97.1894 202.085 98.1482 202.48C98.6831 202.699 99.3042 202.987 99.889 202.831C100.58 202.645 100.88 201.902 101.222 201.342C101.788 200.417 102.353 199.49 102.92 198.565C102.972 198.479 103.148 198.282 103.155 198.177C103.173 198.148 103.189 198.121 103.207 198.091C102.781 198.166 102.682 198.3 102.908 198.49C102.969 198.9 103.865 199.642 104.137 199.957C104.758 200.678 105.37 201.419 106.029 202.108C106.204 202.289 106.48 202.296 106.7 202.187C109.84 200.632 113.582 198.59 115.216 195.342C115.47 194.839 114.473 194.823 114.271 195.222C112.748 198.248 109.182 200.145 106.258 201.591C106.483 201.618 106.705 201.643 106.929 201.67C106.27 200.981 105.658 200.24 105.037 199.519C104.597 199.007 103.783 197.5 102.983 197.536C102.319 197.568 101.999 198.404 101.709 198.878C101.17 199.76 100.632 200.641 100.093 201.523C99.7258 202.124 99.7122 202.187 99.0594 201.942C98.1255 201.593 97.2279 201.131 96.3462 200.664C93.089 198.944 89.9451 197.108 87.3181 194.501C86.9962 194.184 86.0646 194.592 86.4159 194.941Z" fill="#56627F"/>
<path d="M90.6909 191.824C93.8892 194.666 98.0213 196.514 102.362 196.248C105.927 196.029 109.84 194.598 111.812 191.45C112.025 191.11 111.055 191.235 110.905 191.473C108.96 194.58 105.075 195.897 101.544 195.779C97.8128 195.655 94.3606 193.907 91.6112 191.461C91.3845 191.257 90.4733 191.631 90.6909 191.824Z" fill="#56627F"/>
<path d="M80.2554 206.134C81.9849 201.519 84.1767 197.015 87.3274 193.193C87.9281 192.466 88.6647 191.829 89.2178 191.065C89.7505 190.333 89.7686 189.727 89.7301 188.859C89.6167 186.384 89.5873 183.904 89.5533 181.427C89.4445 173.736 89.0274 164.833 94.6555 158.753C96.7499 156.491 99.7397 155.181 102.772 156.28C105.91 157.416 108.056 160.456 109.368 163.384C112.036 169.336 111.633 175.853 111.59 182.213C111.578 183.791 111.567 185.371 111.547 186.948C111.535 187.803 111.223 189.104 111.828 189.743C115.602 193.708 118.505 198.046 120.622 203.11C120.802 203.54 121.781 203.257 121.608 202.847C119.723 198.338 117.238 194.222 113.954 190.591C113.566 190.163 113.086 189.768 112.732 189.315C112.419 188.916 112.585 189.249 112.508 188.825C112.426 188.383 112.53 187.819 112.537 187.37C112.56 185.883 112.571 184.396 112.583 182.909C112.63 176.467 113.124 169.792 110.606 163.708C109.355 160.687 107.385 157.656 104.409 156.106C101.92 154.809 99.0143 154.896 96.5754 156.274C90.0746 159.955 88.5197 168.849 88.5197 175.617C88.5197 178.383 88.5423 181.148 88.599 183.916C88.6285 185.416 88.6602 186.919 88.7169 188.42C88.7373 188.959 88.8415 189.603 88.7078 190.122C88.5378 190.781 88.0255 191.242 87.5699 191.72C83.7551 195.725 81.2391 200.909 79.317 206.036C79.1175 206.553 80.1035 206.535 80.2554 206.134Z" fill="#56627F"/>
<path d="M105.205 183.238C105.325 182.909 105.39 182.558 105.406 182.207C105.409 182.141 105.409 182.071 105.381 182.009C105.329 181.896 105.193 181.848 105.069 181.833C104.169 181.717 103.366 182.168 102.498 182.295C101.698 182.411 100.64 181.54 100.021 181.828C99.0619 182.272 99.7691 183.22 100.236 183.743C101.276 184.915 103.094 185.482 104.407 184.398C104.778 184.09 105.041 183.684 105.205 183.238Z" fill="#56627F"/>
<path d="M102.711 203.119C103.355 205.435 103.65 207.788 103.584 210.191C103.568 210.782 104.681 210.64 104.697 210.118C104.763 207.643 104.47 205.209 103.806 202.824C103.659 202.296 102.564 202.588 102.711 203.119Z" fill="#56627F"/>
</g>
<path d="M136.866 176.281C136.8 160.19 126.36 145.493 111.085 140.305C96.0837 135.209 79.0067 140.008 68.8565 152.161C58.5047 164.556 57.19 182.678 65.6447 196.436C74.0699 210.15 90.5984 217.052 106.3 213.76C121.717 210.528 134.021 197.769 136.424 182.161C136.721 180.214 136.857 178.251 136.866 176.281C136.868 175.966 135.773 176.163 135.771 176.573C135.707 192.148 125.843 206.498 111.148 211.829C96.2854 217.219 79.2469 212.172 69.4028 199.904C59.6471 187.748 58.4457 170.245 66.506 156.89C74.6864 143.337 90.8613 136.308 106.343 139.74C121.35 143.068 133.08 155.736 135.351 170.92C135.633 172.793 135.762 174.681 135.771 176.573C135.771 176.893 136.868 176.691 136.866 176.281Z" fill="#56627F"/>
<path d="M180.991 178.357C201.908 178.357 218.864 161.401 218.864 140.484C218.864 119.567 201.908 102.61 180.991 102.61C160.074 102.61 143.117 119.567 143.117 140.484C143.117 161.401 160.074 178.357 180.991 178.357Z" fill="white"/>
<mask id="mask2" mask-type="alpha" maskUnits="userSpaceOnUse" x="143" y="102" width="76" height="77">
<path d="M180.991 178.357C201.908 178.357 218.864 161.401 218.864 140.484C218.864 119.567 201.908 102.61 180.991 102.61C160.074 102.61 143.117 119.567 143.117 140.484C143.117 161.401 160.074 178.357 180.991 178.357Z" fill="white"/>
</mask>
<g mask="url(#mask2)">
<path d="M157.336 215.737C156.425 215.599 156.443 210.533 156.368 209.748C155.523 200.92 156.23 191.159 158.521 182.496C160.978 173.21 163.923 165.877 166.534 156.844C167.869 152.229 167.717 146.812 168.159 142.025C168.579 137.487 168.588 132.648 170.505 128.45C172.334 124.445 175.834 119.972 180.717 120.174C187.258 120.446 192.2 129.415 191.753 140.207C191.742 140.47 191.69 141.714 191.674 142.14C191.538 145.425 191.705 148.523 191.49 151.803C191.433 152.669 191.792 156.398 191.853 156.715C193.065 163.05 203.227 167.409 204.927 185.429C204.925 185.432 163.109 216.612 157.336 215.737Z" fill="white"/>
<path d="M185.273 116.137C190.608 117.438 195.439 119.608 198.027 125.471C200.373 130.784 199.306 137.009 197.177 142.412C196.654 143.743 195.221 147.206 193.419 147.304C191.334 147.417 192.329 146.39 191.597 144.672C190.123 141.213 190.166 137.378 187.594 134.332C183.929 129.993 179.171 132.668 174.694 132.099C172.185 131.78 169.635 130.168 167.982 128.312C162.508 122.16 166.208 115.958 167.912 109.396C169.658 111.953 172.355 113.365 175.32 114.086C178.561 114.873 182.011 115.342 185.273 116.137Z" fill="#E3E3E3"/>
<mask id="mask3" mask-type="alpha" maskUnits="userSpaceOnUse" x="156" y="120" width="49" height="96">
<path d="M157.336 215.737C156.425 215.599 156.443 210.533 156.368 209.748C155.522 200.92 156.23 191.159 158.521 182.496C160.978 173.21 163.923 165.877 166.534 156.844C167.869 152.229 167.717 146.812 168.159 142.025C168.578 137.487 168.588 132.648 170.505 128.45C172.334 124.445 175.834 119.972 180.717 120.174C187.258 120.446 192.199 129.415 191.753 140.207C191.742 140.47 191.689 141.714 191.674 142.14C191.538 145.425 191.705 148.523 191.49 151.803C191.433 152.669 191.791 156.398 191.853 156.715C193.065 163.05 203.227 167.409 204.927 185.429C204.924 185.432 163.109 216.612 157.336 215.737Z" fill="white"/>
</mask>
<g mask="url(#mask3)">
<path d="M237.63 145.513C228.944 150.085 220.2 154.58 211.221 158.558C204.723 161.439 198.274 164.007 191.368 165.712C188.462 166.428 186.417 166.818 183.461 167.103C180.66 167.373 178.64 167.4 176.027 167.169C171.095 166.732 166.541 165.353 161.885 163.143C155.874 160.29 150.107 156.139 144.763 151.994C143.271 150.835 139.416 152.959 141.376 154.483C150.631 161.666 160.847 168.493 172.717 170.091C185.438 171.802 198.168 167.427 209.719 162.552C219.909 158.25 229.765 153.175 239.548 148.025C240.325 147.617 241.221 146.728 240.595 145.817C240.008 144.951 238.419 145.098 237.63 145.513Z" fill="#FFDD85"/>
<path d="M238.31 153.963C229.624 158.535 220.88 163.03 211.901 167.008C205.403 169.889 198.954 172.457 192.048 174.162C189.142 174.878 187.097 175.268 184.142 175.553C181.34 175.823 179.32 175.85 176.707 175.619C171.775 175.182 167.221 173.804 162.565 171.591C156.554 168.738 150.788 164.587 145.443 160.442C143.951 159.283 140.096 161.407 142.056 162.93C151.311 170.113 161.527 176.941 173.398 178.539C186.118 180.25 198.848 175.875 210.399 171C220.59 166.698 230.445 161.623 240.228 156.473C241.005 156.065 241.901 155.176 241.275 154.265C240.688 153.401 239.099 153.549 238.31 153.963Z" fill="#FFDD85"/>
</g>
<path d="M200.609 169.959C198.544 166.115 196.11 162.486 193.192 159.236C192.963 158.982 192.583 159.034 192.324 159.215C188.281 162.058 183.668 163.631 178.69 163.483C174.794 163.368 170.333 162.316 167.443 159.528C167.074 159.172 166.137 159.73 166.604 160.181C169.698 163.164 174.535 164.236 178.695 164.327C183.94 164.442 188.802 162.744 193.061 159.75C192.771 159.743 192.483 159.737 192.193 159.73C195.112 162.98 197.544 166.609 199.609 170.453C199.854 170.907 200.892 170.485 200.609 169.959Z" fill="#56627F"/>
<path d="M192.678 157.715C192.075 155.895 191.993 153.669 192.043 151.772C192.141 147.977 192.15 144.178 192.299 140.384C192.537 134.368 191.404 127.378 187.084 122.844C185.504 121.185 183.455 119.95 181.134 119.773C178.26 119.553 175.646 120.897 173.658 122.892C168.334 128.239 168.096 135.78 167.536 142.843C167.185 147.27 167.273 151.792 166.183 156.126C164.997 160.834 163.293 165.437 161.765 170.041C161.561 170.655 162.656 170.678 162.817 170.188C164.048 166.478 165.303 162.774 166.434 159.032C167.513 155.462 168.089 151.957 168.318 148.233C168.547 144.505 168.771 140.778 169.111 137.056C169.438 133.491 170.09 130.023 171.87 126.872C173.395 124.173 175.73 121.416 178.901 120.736C181.474 120.183 183.967 121.271 185.798 123.051C190.234 127.355 191.415 134.404 191.193 140.307C191.048 144.171 191.032 148.038 190.928 151.903C190.876 153.841 190.969 156.153 191.583 158.009C191.755 158.531 192.85 158.232 192.678 157.715Z" fill="#56627F"/>
<path d="M176.285 147.619C176.317 147.646 176.351 147.673 176.383 147.701C176.73 147.982 177.231 148.177 177.682 148.149C178.387 148.106 178.928 147.531 179.395 147C179.447 146.939 179.504 146.878 179.581 146.851C179.783 146.783 179.969 147.018 179.985 147.231C180.023 147.71 179.615 148.1 179.209 148.358C178.568 148.77 177.779 148.986 177.015 148.886C176.152 148.773 175.562 148.247 175.027 147.599C174.857 147.392 174.685 147.188 174.751 146.919C174.798 146.726 174.923 146.547 175.134 146.531C175.268 146.52 175.397 146.588 175.492 146.683C175.784 146.971 175.961 147.34 176.285 147.619Z" fill="#56627F"/>
</g>
<path d="M219.411 140.339C219.345 124.248 208.905 109.55 193.63 104.362C178.629 99.2666 161.552 104.065 151.402 116.219C141.05 128.613 139.735 146.735 148.19 160.494C156.615 174.207 173.144 181.109 188.845 177.818C204.263 174.586 216.566 161.827 218.969 146.218C219.268 144.271 219.402 142.308 219.411 140.339C219.413 140.024 218.318 140.221 218.316 140.631C218.252 156.205 208.388 170.556 193.693 175.887C178.831 181.277 161.792 176.229 151.948 163.962C142.192 151.806 140.991 134.302 149.051 120.947C157.232 107.395 173.406 100.366 188.888 103.798C203.895 107.125 215.625 119.794 217.897 134.978C218.178 136.85 218.307 138.738 218.316 140.631C218.318 140.948 219.413 140.749 219.411 140.339Z" fill="#56627F"/>
</svg>
