<svg width="17" height="16" viewBox="0 0 17 16" fill="none" xmlns="http://www.w3.org/2000/svg">
<path d="M2.0918 5.99601C2.09145 5.47081 2.1947 4.9507 2.39564 4.46546C2.59659 3.98023 2.89127 3.53939 3.26283 3.16821C3.63439 2.79702 4.07551 2.50278 4.56095 2.30232C5.04639 2.10186 5.5666 1.99913 6.0918 2.00001H11.4251C13.6338 2.00001 15.4251 3.79667 15.4251 5.99601V14H6.0918C3.88313 14 2.0918 12.2033 2.0918 10.004V5.99601ZM14.0918 12.6667V5.99601C14.09 5.28967 13.8084 4.61283 13.3086 4.11375C12.8087 3.61467 12.1315 3.33404 11.4251 3.33334H6.0918C5.7417 3.33246 5.39487 3.4007 5.0712 3.53416C4.74753 3.66761 4.45338 3.86364 4.20564 4.11102C3.95789 4.35839 3.76142 4.65224 3.62748 4.97571C3.49354 5.29918 3.42478 5.6459 3.42513 5.99601V10.004C3.42689 10.7103 3.70854 11.3872 4.20837 11.8863C4.7082 12.3853 5.38546 12.666 6.0918 12.6667H14.0918ZM10.0918 7.33334H11.4251V8.66667H10.0918V7.33334ZM6.0918 7.33334H7.42513V8.66667H6.0918V7.33334Z" fill="white"/>
</svg>
