<svg width="69" height="68" viewBox="0 0 69 68" fill="none" xmlns="http://www.w3.org/2000/svg">
<g clip-path="url(#clip0)">
<path d="M12 56.5H52C54.75 56.5 57 54.25 57 51.5V20.5C57 17.75 54.75 15.5 52 15.5H12C9.25 15.5 7 17.75 7 20.5V51.5C7 54.25 9.25 56.5 12 56.5Z" fill="white"/>
<path d="M52 58H12C8.4 58 5.5 55.1 5.5 51.5V27C5.5 26.15 6.15 25.5 7 25.5C7.85 25.5 8.5 26.15 8.5 27V51.5C8.5 53.45 10.05 55 12 55H52C53.95 55 55.5 53.4 55.5 52V29.5C55.5 28.65 56.15 28 57 28C57.85 28 58.5 28.65 58.5 29.5V52C58.5 55.2 55.45 58 52 58Z" fill="#56627F"/>
<path d="M32 38.5C24.9 38.5 18.3 35.7 13.4 30.55C12.85 29.95 12.85 29 13.45 28.45C14.05 27.9 15 27.9 15.55 28.5C19.9 33 25.7 35.5 31.95 35.5C38.2 35.5 44.05 33 48.35 28.5C48.9 27.9 49.85 27.9 50.45 28.45C51.05 29 51.05 29.95 50.5 30.55C45.7 35.7 39.1 38.5 32 38.5Z" fill="#56627F"/>
<path d="M7 22C6.15 22 5.5 21.35 5.5 20.5C5.5 16.9 8.4 14 12 14H38C38.85 14 39.5 14.65 39.5 15.5C39.5 16.35 38.85 17 38 17H12C10.05 17 8.5 18.55 8.5 20.5C8.5 21.35 7.85 22 7 22Z" fill="#56627F"/>
<path d="M61.7484 21.2513C66.0283 16.9714 66.0283 10.0325 61.7484 5.75264C57.4686 1.47281 50.5296 1.47281 46.2498 5.75264C41.97 10.0325 41.97 16.9714 46.2498 21.2513C50.5296 25.5311 57.4686 25.5311 61.7484 21.2513Z" fill="#67BAE4"/>
<path d="M54.7401 17.6925C54.5427 17.8899 54.296 17.9885 54 17.9885C53.4079 17.9885 52.9392 17.5198 52.9638 16.9524L52.9638 10.0447C52.9638 9.4526 53.4326 8.98387 54 9.00854C54.5921 9.00854 55.0608 9.47728 55.0361 10.0447L55.0361 16.9524C55.0361 17.2484 54.9375 17.4951 54.7401 17.6925Z" fill="white"/>
<path d="M58.1939 14.2386C57.9966 14.436 57.7499 14.5347 57.4538 14.5347L50.5461 14.5347C49.954 14.5347 49.4853 14.066 49.51 13.4985C49.51 12.9064 49.9787 12.4377 50.5461 12.4624L57.4538 12.4624C58.0459 12.4624 58.5146 12.9311 58.49 13.4985C58.49 13.7946 58.3913 14.0413 58.1939 14.2386Z" fill="white"/>
</g>
<defs>
<clipPath id="clip0">
<rect width="69" height="68" fill="white"/>
</clipPath>
</defs>
</svg>
