<svg width="16" height="16" viewBox="0 0 16 16" fill="none" xmlns="http://www.w3.org/2000/svg">
<path d="M7.99992 14.6666C4.31792 14.6666 1.33325 11.6819 1.33325 7.99992C1.33325 4.31792 4.31792 1.33325 7.99992 1.33325C11.6819 1.33325 14.6666 4.31792 14.6666 7.99992C14.6666 11.6819 11.6819 14.6666 7.99992 14.6666ZM4.67525 12.1706C5.61895 12.9251 6.7917 13.3352 7.99992 13.3333C9.31325 13.3333 10.5153 12.8586 11.4446 12.0719C11.0104 11.6264 10.4913 11.2725 9.91794 11.0311C9.3446 10.7897 8.72867 10.6658 8.10659 10.6666C7.46164 10.6658 6.82359 10.7992 6.2329 11.0581C5.6422 11.317 5.11177 11.6958 4.67525 12.1706ZM3.74392 11.2133C4.30422 10.6186 4.98037 10.1451 5.73068 9.82173C6.48099 9.4984 7.28957 9.33216 8.10659 9.33325C8.89435 9.33223 9.67456 9.48683 10.4024 9.78817C11.1303 10.0895 11.7914 10.5317 12.3479 11.0893C12.9186 10.286 13.2557 9.34034 13.3216 8.35719C13.3876 7.37404 13.1799 6.39184 12.7216 5.51956C12.2633 4.64727 11.5723 3.919 10.7252 3.41555C9.87819 2.9121 8.90824 2.65314 7.92299 2.66742C6.93773 2.6817 5.97569 2.96864 5.1436 3.49642C4.31151 4.0242 3.64189 4.77219 3.20905 5.65739C2.7762 6.54259 2.59705 7.53039 2.69146 8.51122C2.78588 9.49204 3.15017 10.4275 3.74392 11.2139V11.2133ZM7.99992 8.66659C7.29268 8.66659 6.6144 8.38563 6.1143 7.88554C5.6142 7.38544 5.33325 6.70716 5.33325 5.99992C5.33325 5.29267 5.6142 4.6144 6.1143 4.1143C6.6144 3.6142 7.29268 3.33325 7.99992 3.33325C8.70716 3.33325 9.38544 3.6142 9.88554 4.1143C10.3856 4.6144 10.6666 5.29267 10.6666 5.99992C10.6666 6.70716 10.3856 7.38544 9.88554 7.88554C9.38544 8.38563 8.70716 8.66659 7.99992 8.66659ZM7.99992 7.33325C8.35354 7.33325 8.69268 7.19278 8.94273 6.94273C9.19278 6.69268 9.33325 6.35354 9.33325 5.99992C9.33325 5.6463 9.19278 5.30716 8.94273 5.05711C8.69268 4.80706 8.35354 4.66659 7.99992 4.66659C7.6463 4.66659 7.30716 4.80706 7.05711 5.05711C6.80706 5.30716 6.66659 5.6463 6.66659 5.99992C6.66659 6.35354 6.80706 6.69268 7.05711 6.94273C7.30716 7.19278 7.6463 7.33325 7.99992 7.33325Z" fill="#687693"/>
</svg>
