<svg width="250" height="250" viewBox="0 0 250 250" fill="none" xmlns="http://www.w3.org/2000/svg">
<path d="M250 0H0V250H250V0Z" fill="white"/>
<path d="M159.059 130.333V119.666C159.059 117.069 161.165 114.96 163.765 114.96H179.988C182.586 114.96 184.694 117.066 184.694 119.666V130.331C184.694 132.929 182.588 135.037 179.988 135.037H163.765C161.165 135.037 159.059 132.931 159.059 130.333Z" fill="white"/>
<path d="M159.059 161.887V151.223C159.059 148.623 161.165 146.517 163.765 146.517H179.988C182.586 146.517 184.694 148.623 184.694 151.223V161.887C184.694 164.487 182.588 166.594 179.988 166.594H163.765C161.165 166.592 159.059 164.485 159.059 161.887Z" fill="white"/>
<path d="M159.059 98.7793V88.1147C159.059 85.5168 161.165 83.4084 163.765 83.4084H179.988C182.586 83.4084 184.694 85.5147 184.694 88.1147V98.7793C184.694 101.379 182.588 103.486 179.988 103.486H163.765C161.165 103.483 159.059 101.377 159.059 98.7793Z" fill="white"/>
<path d="M176.75 83.6626C178.894 83.6626 181.027 83.473 182.685 85.1313C184.077 86.523 184.189 88.2376 184.189 90.0605C184.189 91.9605 184.189 93.8626 184.189 95.7626C184.189 97.2126 184.371 98.848 183.831 100.223C183.139 101.988 181.525 103.171 179.627 103.225C178.806 103.248 177.981 103.225 177.158 103.225C176.819 103.225 176.077 103.738 176.752 103.738C178.923 103.738 181.091 103.898 182.941 102.527C184.741 101.196 185.196 99.273 185.196 97.1667C185.196 95.0313 185.196 92.8959 185.196 90.7605C185.196 88.8605 185.344 86.9959 184.15 85.3647C182.427 83.0105 179.756 83.148 177.158 83.148C176.816 83.1522 176.077 83.6626 176.75 83.6626Z" fill="#56627F"/>
<path d="M171.643 192.708H72.0164C70.6122 192.708 69.4727 191.569 69.4727 190.165V59.8355C69.4727 58.4313 70.6122 57.2917 72.0164 57.2917H171.643C173.048 57.2917 174.187 58.4313 174.187 59.8355V190.165C174.189 191.569 173.05 192.708 171.643 192.708Z" fill="white"/>
<path d="M171.844 192.438C167.438 192.438 163.032 192.438 158.626 192.438C148.642 192.438 138.657 192.438 128.673 192.438C117.713 192.438 106.755 192.438 95.7943 192.438C88.6693 192.438 81.5422 192.438 74.4172 192.438C72.5339 192.438 70.0985 192.727 69.9776 190.008C69.9297 188.923 69.9776 187.825 69.9776 186.74C69.9776 180.102 69.9776 173.465 69.9776 166.827C69.9776 156.538 69.9776 146.246 69.9776 135.956C69.9776 124.733 69.9776 113.508 69.9776 102.285C69.9776 92.9792 69.9776 83.6729 69.9776 74.3667C69.9776 69.6271 69.9776 64.8854 69.9776 60.1458C69.9776 58.9542 70.4047 57.7062 71.8214 57.5646C72.1485 57.5312 72.4964 57.5646 72.8255 57.5646C75.1193 57.5646 77.413 57.5646 79.7068 57.5646C88.8214 57.5646 97.9339 57.5646 107.048 57.5646C118.153 57.5646 129.259 57.5646 140.363 57.5646C148.871 57.5646 157.378 57.5646 165.886 57.5646C167.651 57.5646 169.421 57.525 171.186 57.5646C172.607 57.5958 173.623 58.5417 173.69 60.0042C173.705 60.3354 173.69 60.6687 173.69 61C173.69 66.35 173.69 71.6979 173.69 77.0479C173.69 86.675 173.69 96.3021 173.69 105.927C173.69 117.185 173.69 128.444 173.69 139.702C173.69 149.742 173.69 159.779 173.69 169.819C173.69 175.919 173.69 182.019 173.69 188.119C173.686 189.627 174.055 192.319 171.844 192.438C171.492 192.456 170.773 193.017 171.446 192.981C173.248 192.883 174.665 191.744 174.692 189.873C174.698 189.417 174.692 188.958 174.692 188.502C174.692 186.296 174.692 184.09 174.692 181.883C174.692 173.581 174.692 165.281 174.692 156.979C174.692 145.894 174.692 134.806 174.692 123.721C174.692 112.731 174.692 101.74 174.692 90.7479C174.692 82.7333 174.692 74.7188 174.692 66.7021C174.692 64.7104 174.692 62.7187 174.692 60.7271C174.692 60.3958 174.707 60.0583 174.692 59.7271C174.617 58.05 173.319 57.0521 171.715 57.0188C166.521 56.9062 161.315 57.0188 156.121 57.0188C145.659 57.0188 135.198 57.0188 124.736 57.0188C113.863 57.0188 102.988 57.0188 92.1151 57.0188C85.7797 57.0188 79.4464 57.0188 73.111 57.0188C71.0818 57.0188 69.0047 57.7 68.9714 60.1438C68.9526 61.5375 68.9714 62.9354 68.9714 64.3292C68.9714 71.5292 68.9714 78.7292 68.9714 85.9271C68.9714 96.6063 68.9714 107.283 68.9714 117.962C68.9714 129.24 68.9714 140.517 68.9714 151.794C68.9714 160.769 68.9714 169.744 68.9714 178.717C68.9714 182.554 68.7985 186.438 68.9714 190.275C69.0943 193.021 71.611 192.977 73.6026 192.977C76.3026 192.977 79.0047 192.977 81.7047 192.977C91.363 192.977 101.021 192.977 110.682 192.977C121.913 192.977 133.144 192.977 144.376 192.977C152.255 192.977 160.134 192.977 168.011 192.977C169.157 192.977 170.301 192.977 171.446 192.977C171.807 192.979 172.519 192.438 171.844 192.438Z" fill="#56627F"/>
<path d="M140.396 122.752C150.649 112.499 150.649 95.876 140.396 85.6232C130.143 75.3704 113.52 75.3704 103.267 85.6232C93.0147 95.876 93.0147 112.499 103.267 122.752C113.52 133.005 130.143 133.005 140.396 122.752Z" fill="#73ABFF"/>
<path d="M126.852 104.727C129.544 103.021 131.338 100.023 131.348 96.5983C131.365 91.2671 127.057 86.9296 121.725 86.9129C116.394 86.8962 112.057 91.2046 112.04 96.5358C112.029 99.9587 113.802 102.969 116.486 104.692C109.007 106.494 103.025 112.152 100.777 119.455C105.461 125.875 113.032 130.061 121.59 130.088C130.148 130.115 137.744 125.977 142.467 119.586C140.265 112.271 134.319 106.575 126.852 104.727Z" fill="white"/>
<path d="M142.336 117.642C139.673 111.132 134.076 106.242 127.257 104.502C127.253 104.596 127.251 104.688 127.246 104.782C130.232 102.825 132.036 99.4774 131.834 95.8857C131.651 92.6107 129.757 89.6045 126.917 87.9774C121.213 84.7107 113.363 87.9066 111.807 94.3587C110.832 98.4087 112.567 102.592 116.011 104.879C116.148 104.746 116.286 104.613 116.423 104.482C109.509 106.198 103.753 111.025 100.969 117.596C100.861 117.852 101.842 117.748 101.969 117.448C104.603 111.234 109.969 106.536 116.536 104.904C116.586 104.892 117.171 104.654 116.948 104.507C111.473 100.869 111.013 92.6024 116.517 88.7337C122.003 84.8774 129.584 88.6795 130.694 95.0274C131.357 98.8149 129.642 102.579 126.451 104.671C126.353 104.736 126.28 104.909 126.44 104.95C133.173 106.669 138.692 111.479 141.323 117.911C141.455 118.217 142.444 117.907 142.336 117.642Z" fill="#56627F"/>
<path d="M147.576 104.223C147.518 114.944 140.809 124.848 130.666 128.533C120.497 132.227 108.837 128.954 101.989 120.613C95.1511 112.283 94.2032 100.254 99.6657 90.9584C105.18 81.5772 116.297 76.6584 126.949 78.8376C137.318 80.9584 145.507 89.5917 147.23 100.006C147.462 101.402 147.57 102.81 147.576 104.223C147.578 104.756 148.599 104.61 148.597 104.15C148.537 93.0584 141.522 82.9271 131.051 79.1459C120.545 75.3521 108.453 78.6272 101.282 87.1772C94.0782 95.7647 93.0761 108.331 98.8657 117.938C104.651 127.538 116.118 132.471 127.078 130.29C137.836 128.148 146.453 119.296 148.243 108.467C148.478 107.04 148.589 105.598 148.595 104.152C148.599 103.619 147.58 103.763 147.576 104.223Z" fill="#56627F"/>
<path d="M94.1227 145.404C100.329 145.404 106.537 145.404 112.744 145.404C122.629 145.404 132.512 145.404 142.398 145.404C144.656 145.404 146.912 145.404 149.171 145.404C149.606 145.404 150.216 144.746 149.539 144.746C143.333 144.746 137.125 144.746 130.919 144.746C121.033 144.746 111.15 144.746 101.264 144.746C99.0061 144.746 96.7498 144.746 94.4915 144.746C94.0561 144.746 93.4456 145.404 94.1227 145.404Z" fill="#56627F"/>
<path d="M94.2548 158.119C100.461 158.119 106.669 158.119 112.876 158.119C122.761 158.119 132.644 158.119 142.53 158.119C144.788 158.119 147.044 158.119 149.303 158.119C149.859 158.119 150.09 157.431 149.405 157.431C143.199 157.431 136.99 157.431 130.784 157.431C120.899 157.431 111.015 157.431 101.13 157.431C98.8715 157.431 96.6153 157.431 94.3569 157.431C93.8007 157.431 93.5694 158.119 94.2548 158.119Z" fill="#56627F"/>
<path d="M94.1196 170.792C100.326 170.792 106.534 170.792 112.74 170.792C122.626 170.792 132.509 170.792 142.395 170.792C144.653 170.792 146.909 170.792 149.168 170.792C149.588 170.792 150.22 170.154 149.54 170.154C143.334 170.154 137.126 170.154 130.92 170.154C121.034 170.154 111.151 170.154 101.265 170.154C99.0071 170.154 96.7509 170.154 94.4925 170.154C94.0717 170.154 93.4404 170.792 94.1196 170.792Z" fill="#56627F"/>
<path d="M195.617 210.512C195.491 210.675 194.61 210.838 192.722 211.028C179.522 212.344 163.914 211.937 150.336 211.937C124.833 211.951 99.3135 211.666 73.8257 211.666C57.9194 211.394 39.4013 210.689 55.166 209.739C73.0862 208.653 92.5168 208.816 110.641 208.68C127.067 208.558 143.492 208.653 159.902 208.938C162.687 208.979 196.277 209.617 195.617 210.512Z" fill="#E8EEF9"/>
</svg>
