<svg width="23" height="23" viewBox="0 0 23 23" fill="none" xmlns="http://www.w3.org/2000/svg">
<path fill-rule="evenodd" clip-rule="evenodd" d="M5.48779 1.48767C3.27865 1.48767 1.48779 3.27853 1.48779 5.48767V16.7377C1.48779 18.9468 3.27865 20.7377 5.48779 20.7377H16.7378C18.9469 20.7377 20.7378 18.9468 20.7378 16.7377V5.48767C20.7378 3.27853 18.9469 1.48767 16.7378 1.48767H5.48779ZM11.1128 10.0127C12.3278 10.0127 13.3128 9.0277 13.3128 7.81267C13.3128 6.59764 12.3278 5.61267 11.1128 5.61267C9.89776 5.61267 8.91278 6.59764 8.91278 7.81267C8.91278 9.0277 9.89776 10.0127 11.1128 10.0127ZM5.61319 16.0621C5.60029 16.2409 5.90412 16.6127 6.05738 16.6127H16.1524C16.6115 16.6127 16.6187 16.1971 16.6115 16.0627C16.4324 12.6892 14.0285 11.1127 11.1026 11.1127C8.21729 11.1127 5.85006 12.7809 5.61319 16.0621Z" fill="white"/>
</svg>
