<svg width="16" height="16" viewBox="0 0 16 16" fill="none" xmlns="http://www.w3.org/2000/svg">
<path d="M8.00001 14.6666C4.31801 14.6666 1.33334 11.6819 1.33334 7.99992C1.33334 4.31792 4.31801 1.33325 8.00001 1.33325C11.682 1.33325 14.6667 4.31792 14.6667 7.99992C14.6667 11.6819 11.682 14.6666 8.00001 14.6666ZM4.67534 12.1706C5.61904 12.9251 6.7918 13.3352 8.00001 13.3333C9.31334 13.3333 10.5153 12.8586 11.4447 12.0719C11.0105 11.6264 10.4914 11.2725 9.91803 11.0311C9.34469 10.7897 8.72876 10.6658 8.10668 10.6666C7.46174 10.6658 6.82368 10.7992 6.23299 11.0581C5.6423 11.317 5.11186 11.6958 4.67534 12.1706ZM3.74401 11.2133C4.30431 10.6186 4.98046 10.1451 5.73077 9.82173C6.48108 9.4984 7.28966 9.33216 8.10668 9.33325C8.89444 9.33223 9.67465 9.48683 10.4025 9.78817C11.1304 10.0895 11.7915 10.5317 12.348 11.0893C12.9187 10.286 13.2558 9.34034 13.3217 8.35719C13.3877 7.37404 13.18 6.39184 12.7217 5.51956C12.2634 4.64727 11.5724 3.919 10.7253 3.41555C9.87829 2.9121 8.90834 2.65314 7.92308 2.66742C6.93782 2.6817 5.97578 2.96864 5.14369 3.49642C4.3116 4.0242 3.64198 4.77219 3.20914 5.65739C2.77629 6.54259 2.59714 7.53039 2.69155 8.51122C2.78597 9.49204 3.15026 10.4275 3.74401 11.2139V11.2133ZM8.00001 8.66659C7.29277 8.66659 6.61449 8.38563 6.11439 7.88554C5.6143 7.38544 5.33334 6.70716 5.33334 5.99992C5.33334 5.29267 5.6143 4.6144 6.11439 4.1143C6.61449 3.6142 7.29277 3.33325 8.00001 3.33325C8.70725 3.33325 9.38553 3.6142 9.88563 4.1143C10.3857 4.6144 10.6667 5.29267 10.6667 5.99992C10.6667 6.70716 10.3857 7.38544 9.88563 7.88554C9.38553 8.38563 8.70725 8.66659 8.00001 8.66659ZM8.00001 7.33325C8.35363 7.33325 8.69277 7.19278 8.94282 6.94273C9.19287 6.69268 9.33334 6.35354 9.33334 5.99992C9.33334 5.6463 9.19287 5.30716 8.94282 5.05711C8.69277 4.80706 8.35363 4.66659 8.00001 4.66659C7.64639 4.66659 7.30725 4.80706 7.0572 5.05711C6.80715 5.30716 6.66668 5.6463 6.66668 5.99992C6.66668 6.35354 6.80715 6.69268 7.0572 6.94273C7.30725 7.19278 7.64639 7.33325 8.00001 7.33325Z" fill="#687693"/>
</svg>
