<svg width="125" height="124" viewBox="0 0 125 124" fill="none" xmlns="http://www.w3.org/2000/svg">
<circle cx="62.5" cy="62" r="62" fill="#F6F9FE"/>
<path d="M74 75.9062H50C49.6022 75.9062 49.2206 75.7482 48.9393 75.4669C48.658 75.1856 48.5 74.8041 48.5 74.4062V47.4062C48.5 47.0084 48.658 46.6269 48.9393 46.3456C49.2206 46.0643 49.6022 45.9062 50 45.9062H74C74.3978 45.9062 74.7794 46.0643 75.0607 46.3456C75.342 46.6269 75.5 47.0084 75.5 47.4062V74.4062C75.5 74.8041 75.342 75.1856 75.0607 75.4669C74.7794 75.7482 74.3978 75.9062 74 75.9062ZM72.5 72.9062V48.9062H51.5V72.9062H72.5ZM56 53.4062H68V56.4062H56V53.4062ZM56 59.4062H68V62.4062H56V59.4062ZM56 65.4062H63.5V68.4062H56V65.4062Z" fill="#B4C0D4"/>
</svg>
