<svg width="40" height="40" viewBox="0 0 40 40" fill="none" xmlns="http://www.w3.org/2000/svg">
<circle opacity="0.2" cx="20" cy="20" r="19" fill="#73ABFF" stroke="white" stroke-width="2"/>
<path d="M24.4193 20.084C24.4193 20.5007 24.0859 20.834 23.6693 20.834H20.6693V23.6673C20.6693 24.084 20.3359 24.4173 19.9193 24.4173C19.5026 24.4173 19.1693 24.084 19.1693 23.6673V20.834H16.3359C15.9193 20.834 15.5859 20.5007 15.5859 20.084C15.5859 19.6673 15.9193 19.334 16.3359 19.334H19.1693V16.334C19.1693 15.9173 19.5026 15.584 19.9193 15.584C20.3359 15.584 20.6693 15.9173 20.6693 16.334V19.334H23.6693C24.0859 19.334 24.4193 19.6673 24.4193 20.084Z" fill="#4489F2"/>
</svg>
