<svg width="12" height="12" viewBox="0 0 12 12" fill="none" xmlns="http://www.w3.org/2000/svg">
<path d="M11.3051 6.09995C11.3051 6.59995 10.9051 6.99995 10.4051 6.99995H6.80508V10.4C6.80508 10.9 6.40508 11.3 5.90508 11.3C5.40508 11.3 5.00508 10.9 5.00508 10.4V6.99995H1.60508C1.10508 6.99995 0.705078 6.59995 0.705078 6.09995C0.705078 5.59995 1.10508 5.19995 1.60508 5.19995H5.00508V1.59995C5.00508 1.09995 5.40508 0.699951 5.90508 0.699951C6.40508 0.699951 6.80508 1.09995 6.80508 1.59995V5.19995H10.4051C10.9051 5.19995 11.3051 5.59995 11.3051 6.09995Z" fill="white"/>
</svg>
