<svg width="44" height="44" viewBox="0 0 44 44" fill="none" xmlns="http://www.w3.org/2000/svg">
<circle cx="22" cy="22" r="22" fill="#5998F8"/>
<path d="M30.0838 20.4998L31.2858 21.2208C31.36 21.2652 31.4214 21.3281 31.464 21.4033C31.5066 21.4784 31.529 21.5634 31.529 21.6498C31.529 21.7363 31.5066 21.8212 31.464 21.8964C31.4214 21.9716 31.36 22.0344 31.2858 22.0788L22.0008 27.6498L12.7158 22.0788C12.6417 22.0344 12.5803 21.9716 12.5377 21.8964C12.4951 21.8212 12.4727 21.7363 12.4727 21.6498C12.4727 21.5634 12.4951 21.4784 12.5377 21.4033C12.5803 21.3281 12.6417 21.2652 12.7158 21.2208L13.9178 20.4998L22.0008 25.3498L30.0838 20.4998ZM30.0838 25.1998L31.2858 25.9208C31.36 25.9652 31.4214 26.0281 31.464 26.1033C31.5066 26.1784 31.529 26.2634 31.529 26.3498C31.529 26.4363 31.5066 26.5212 31.464 26.5964C31.4214 26.6716 31.36 26.7344 31.2858 26.7788L22.5158 32.0408C22.3603 32.1343 22.1823 32.1836 22.0008 32.1836C21.8194 32.1836 21.6414 32.1343 21.4858 32.0408L12.7158 26.7788C12.6417 26.7344 12.5803 26.6716 12.5377 26.5964C12.4951 26.5212 12.4727 26.4363 12.4727 26.3498C12.4727 26.2634 12.4951 26.1784 12.5377 26.1033C12.5803 26.0281 12.6417 25.9652 12.7158 25.9208L13.9178 25.1998L22.0008 30.0498L30.0838 25.1998ZM22.5148 11.3088L31.2858 16.5708C31.36 16.6152 31.4214 16.6781 31.464 16.7533C31.5066 16.8284 31.529 16.9134 31.529 16.9998C31.529 17.0863 31.5066 17.1712 31.464 17.2464C31.4214 17.3216 31.36 17.3844 31.2858 17.4288L22.0008 22.9998L12.7158 17.4288C12.6417 17.3844 12.5803 17.3216 12.5377 17.2464C12.4951 17.1712 12.4727 17.0863 12.4727 16.9998C12.4727 16.9134 12.4951 16.8284 12.5377 16.7533C12.5803 16.6781 12.6417 16.6152 12.7158 16.5708L21.4858 11.3088C21.6414 11.2154 21.8194 11.166 22.0008 11.166C22.1823 11.166 22.3603 11.2154 22.5158 11.3088H22.5148Z" fill="white"/>
</svg>
