<svg width="12" height="13" viewBox="0 0 12 13" fill="none" xmlns="http://www.w3.org/2000/svg">
<g clip-path="url(#clip0)">
<g clip-path="url(#clip1)">
<g filter="url(#filter0_dd)">
<path d="M6.26077 9.70377C6.10077 9.60604 5.89954 9.60604 5.73954 9.70377L3.10733 11.3114C2.72779 11.5432 2.25719 11.2013 2.36036 10.7687L3.07597 7.76832C3.11947 7.58595 3.05728 7.39456 2.91489 7.27259L0.573213 5.26672C0.235433 4.97738 0.415216 4.4241 0.858559 4.38858L3.93237 4.14232C4.11928 4.12735 4.2821 4.00905 4.35411 3.83592L5.53849 0.988025C5.70928 0.577356 6.29103 0.577356 6.46182 0.988025L7.6462 3.83591C7.71821 4.00905 7.88103 4.12735 8.06795 4.14232L11.1422 4.38858C11.5856 4.4241 11.7654 4.97742 11.4276 5.26675L9.08547 7.27259C8.94305 7.39456 8.88085 7.58596 8.92435 7.76835L9.63995 10.7687C9.74313 11.2013 9.27252 11.5432 8.89298 11.3114L6.26077 9.70377Z" fill="white"/>
</g>
</g>
</g>
<defs>
<filter id="filter0_dd" x="-1.60205" y="-1.32031" width="15.2052" height="15.7062" filterUnits="userSpaceOnUse" color-interpolation-filters="sRGB">
<feFlood flood-opacity="0" result="BackgroundImageFix"/>
<feColorMatrix in="SourceAlpha" type="matrix" values="0 0 0 0 0 0 0 0 0 0 0 0 0 0 0 0 0 0 127 0"/>
<feOffset dy="1"/>
<feGaussianBlur stdDeviation="1"/>
<feColorMatrix type="matrix" values="0 0 0 0 0 0 0 0 0 0.153 0 0 0 0 0.45 0 0 0 0.1 0"/>
<feBlend mode="normal" in2="BackgroundImageFix" result="effect1_dropShadow"/>
<feColorMatrix in="SourceAlpha" type="matrix" values="0 0 0 0 0 0 0 0 0 0 0 0 0 0 0 0 0 0 127 0"/>
<feOffset/>
<feGaussianBlur stdDeviation="1"/>
<feColorMatrix type="matrix" values="0 0 0 0 0 0 0 0 0 0.152941 0 0 0 0 0.45098 0 0 0 0.05 0"/>
<feBlend mode="normal" in2="effect1_dropShadow" result="effect2_dropShadow"/>
<feBlend mode="normal" in="SourceGraphic" in2="effect2_dropShadow" result="shape"/>
</filter>
<clipPath id="clip0">
<rect y="0.210938" width="12" height="12" fill="white"/>
</clipPath>
<clipPath id="clip1">
<path d="M-2 -1.78906H14V14.2109H-2V-1.78906Z" fill="white"/>
</clipPath>
</defs>
</svg>
