<svg width="14" height="14" viewBox="0 0 14 14" fill="none" xmlns="http://www.w3.org/2000/svg">
<path d="M6.35833 1.22498L12.1327 2.05039L12.9576 7.82539L7.59558 13.1874C7.48619 13.2968 7.33784 13.3582 7.18316 13.3582C7.02848 13.3582 6.88013 13.2968 6.77074 13.1874L0.995743 7.41239C0.886385 7.303 0.824951 7.15465 0.824951 6.99998C0.824951 6.8453 0.886385 6.69695 0.995743 6.58756L6.35833 1.22498ZM8.00799 6.17514C8.11635 6.28346 8.24498 6.36938 8.38654 6.42798C8.5281 6.48659 8.67982 6.51674 8.83303 6.51671C8.98625 6.51669 9.13795 6.48648 9.27949 6.42783C9.42103 6.36917 9.54963 6.28321 9.65795 6.17485C9.76627 6.06649 9.85219 5.93786 9.91079 5.7963C9.9694 5.65474 9.99955 5.50302 9.99952 5.34981C9.9995 5.1966 9.96929 5.04489 9.91063 4.90335C9.85198 4.76181 9.76602 4.63321 9.65766 4.52489C9.5493 4.41657 9.42067 4.33066 9.27911 4.27205C9.13755 4.21344 8.98583 4.18329 8.83262 4.18332C8.52319 4.18338 8.22646 4.30635 8.0077 4.52518C7.78894 4.74402 7.66608 5.0408 7.66613 5.35022C7.66618 5.65965 7.78916 5.95638 8.00799 6.17514Z" fill="#7B89A6"/>
</svg>
