<svg width="240" height="240" viewBox="0 0 240 240" fill="none" xmlns="http://www.w3.org/2000/svg">
<path d="M240 0H0V240H240V0Z" fill="white"/>
<path d="M199.949 189.556C199.811 189.734 198.849 189.912 196.787 190.119C182.37 191.557 165.324 191.112 150.495 191.112C122.64 191.127 94.7682 190.816 66.9307 190.816C49.5581 190.519 29.333 189.749 46.551 188.711C66.1231 187.525 87.3449 187.703 107.14 187.555C125.08 187.422 143.02 187.525 160.942 187.837C163.984 187.881 200.671 188.578 199.949 189.556Z" fill="#E8EEF9"/>
<path d="M163.414 49.3679L145.42 49.2939C145.14 46.9419 143.14 45.1199 140.714 45.1179L125.064 45.1139V41.7059C125.064 39.2719 123.092 37.2979 120.658 37.2979C118.224 37.2979 116.25 39.2699 116.25 41.7039V45.1119L100.6 45.1079C98.2299 45.1079 96.2679 46.8439 95.9139 49.1139L77.0059 49.0359C73.3559 49.0219 70.3839 51.9719 70.3719 55.6219L69.9999 167.738C69.9859 171.388 72.9359 174.36 76.5859 174.372L162.998 174.702C166.648 174.716 169.62 171.766 169.632 168.116L170 56.0019C170.014 52.3499 167.064 49.3799 163.414 49.3679ZM120.656 43.9559C119.284 43.9559 118.17 42.8419 118.17 41.4699C118.17 40.0979 119.284 38.9839 120.656 38.9839C122.028 38.9839 123.142 40.0979 123.142 41.4699C123.142 42.8419 122.028 43.9559 120.656 43.9559Z" fill="#F9F9F9"/>
<path d="M96.1919 48.934C92.6079 48.92 89.0259 48.904 85.4439 48.89C83.28 48.882 81.1179 48.872 78.9539 48.864C77.4659 48.858 76.0179 48.808 74.5859 49.326C71.8419 50.32 69.994 52.816 69.934 55.744C69.928 56.012 69.932 56.282 69.932 56.55C69.926 58.312 69.92 60.076 69.914 61.838C69.89 69.062 69.8659 76.286 69.8439 83.512C69.8119 93.374 69.7799 103.236 69.7479 113.098C69.7159 122.872 69.684 132.646 69.652 142.42C69.63 149.296 69.606 156.172 69.584 163.05C69.58 164.53 69.572 166.012 69.57 167.492C69.566 171.372 72.386 174.48 76.338 174.554C80.764 174.638 85.1959 174.588 89.6239 174.604C98.9879 174.64 108.354 174.676 117.718 174.712C127.354 174.748 136.99 174.786 146.626 174.822C151.866 174.842 157.106 174.874 162.346 174.882C166.37 174.888 169.98 172.258 170.072 167.992C170.092 167.022 170.078 166.05 170.082 165.08C170.102 158.876 170.122 152.672 170.142 146.468C170.174 136.988 170.204 127.51 170.236 118.03C170.268 108.006 170.302 97.98 170.334 87.956C170.36 80.12 170.386 72.286 170.41 64.45C170.418 62.24 170.424 60.03 170.432 57.818C170.438 56.074 170.53 54.392 169.676 52.774C168.456 50.466 166.08 49.212 163.518 49.186C161.904 49.17 160.29 49.172 158.676 49.166C154.466 49.148 150.256 49.132 146.044 49.114C140.49 49.092 134.936 49.074 129.382 49.054C120.04 49.02 110.7 48.986 101.358 48.952C99.632 48.946 97.9119 48.94 96.1919 48.934C96.0019 48.934 95.2059 49.292 95.6299 49.294C101.644 49.316 107.658 49.338 113.672 49.36C122.708 49.392 131.744 49.426 140.78 49.458C146.31 49.478 151.84 49.502 157.368 49.524C159.134 49.532 160.898 49.538 162.664 49.546C165.316 49.556 167.738 50.772 168.92 53.242C169.658 54.784 169.564 56.382 169.558 58.024C169.54 63.57 169.522 69.114 169.504 74.66C169.474 83.75 169.444 92.84 169.414 101.93C169.382 111.916 169.348 121.904 169.316 131.89C169.29 140.104 169.262 148.32 169.236 156.534C169.224 160.39 169.238 164.248 169.198 168.104C169.176 170.286 168.182 172.364 166.336 173.588C165.244 174.312 164.03 174.524 162.758 174.52C160.896 174.512 159.032 174.506 157.17 174.498C149.232 174.468 141.296 174.438 133.358 174.408C123.43 174.37 113.504 174.332 103.576 174.294C96.1179 174.266 88.6579 174.238 81.2 174.208C79.7839 174.202 78.368 174.216 76.952 174.192C73.076 174.124 70.43 171.01 70.432 167.256C70.436 162.974 70.4599 158.692 70.4739 154.412C70.5019 145.942 70.53 137.47 70.558 129C70.59 118.988 70.6239 108.976 70.6559 98.962C70.6859 90.056 70.7139 81.15 70.7439 72.244C70.7599 67.092 70.7779 61.94 70.7939 56.786C70.7959 56.394 70.7919 56.004 70.7979 55.612C70.8359 53.304 71.9519 51.112 73.9919 49.942C75.5339 49.058 77.2599 49.218 78.9599 49.226C81.1979 49.236 83.4359 49.244 85.6719 49.254C88.9899 49.268 92.3079 49.282 95.6259 49.294C95.8179 49.296 96.6139 48.936 96.1919 48.934Z" fill="#56627F"/>
<path d="M166.114 77.8996L166.112 163.346C166.112 165.524 164.308 167.29 162.084 167.29L79.996 167.288C77.772 167.288 75.968 165.522 75.968 163.344V149.402L76.036 141.718L76.038 56.7616C76.038 54.5836 77.842 52.8176 80.066 52.8176L159.824 52.8196C163.298 52.8196 166.114 55.5856 166.114 58.9956V73.8676V77.8996Z" fill="#EFEFEF"/>
<path d="M164.398 79.1875L164.396 164.633C164.396 166.811 162.624 168.577 160.44 168.577L79.836 168.575C77.652 168.575 75.88 166.809 75.88 164.631V150.689L75.946 143.005L75.948 58.0495C75.948 55.8715 77.72 54.1055 79.904 54.1055L158.22 54.1075C161.63 54.1075 164.396 56.8735 164.396 60.2835V75.1555L164.398 79.1875Z" fill="#F9F9F9"/>
<path d="M162.46 78.3815L162.458 164.712C162.458 166.845 160.74 168.576 158.622 168.576L79.716 168.574C77.598 168.574 75.88 166.843 75.88 164.709V151.043L75.944 143.511L75.946 60.2415C75.946 58.1075 77.664 56.3775 79.782 56.3775L159.012 56.3795C160.916 56.3795 162.458 57.8995 162.458 59.7735L162.46 78.3815Z" fill="white"/>
<path d="M163.914 79.3176C163.914 82.7996 163.914 86.2816 163.914 89.7656C163.914 97.8396 163.914 105.912 163.914 113.986C163.914 123.06 163.914 132.132 163.914 141.206C163.914 147.78 163.914 154.352 163.914 160.926C163.914 162.174 163.942 163.426 163.914 164.674C163.87 166.578 162.62 168.276 160.612 168.354C160.254 168.368 159.892 168.354 159.532 168.354C154.072 168.354 148.61 168.354 143.15 168.354C134.284 168.354 125.418 168.354 116.55 168.354C108.222 168.354 99.894 168.354 91.566 168.354C87.738 168.354 83.878 168.496 80.052 168.354C77.676 168.266 76.368 166.268 76.368 164.076C76.368 162.324 76.368 160.572 76.368 158.82C76.368 155.826 76.348 152.83 76.374 149.836C76.408 145.902 76.434 141.97 76.434 138.036C76.434 131.138 76.434 124.242 76.434 117.344C76.434 108.198 76.434 99.0536 76.434 89.9076C76.434 82.1216 76.434 74.3356 76.434 66.5496C76.434 64.2876 76.434 62.0276 76.434 59.7656C76.434 57.7536 76.32 55.4036 78.662 54.5176C79.796 54.0896 81.382 54.3236 82.564 54.3236C85.226 54.3236 87.888 54.3236 90.55 54.3236C98.856 54.3236 107.164 54.3236 115.47 54.3236C124.314 54.3236 133.158 54.3236 142.002 54.3236C147.132 54.3236 152.26 54.3236 157.39 54.3236C158.038 54.3236 158.658 54.3276 159.3 54.4836C162.096 55.1556 163.88 57.7076 163.914 60.5136C163.96 64.1976 163.914 67.8856 163.914 71.5716C163.914 74.1556 163.914 76.7356 163.914 79.3176C163.914 79.5216 164.88 79.3696 164.88 79.0596C164.88 72.7616 164.998 66.4536 164.88 60.1576C164.824 57.1416 162.68 54.5476 159.694 53.9996C159.08 53.8856 158.47 53.8876 157.85 53.8876C156.014 53.8876 154.176 53.8876 152.34 53.8876C144.71 53.8876 137.078 53.8876 129.448 53.8876C120.216 53.8876 110.986 53.8876 101.754 53.8876C95.322 53.8876 88.89 53.8876 82.46 53.8876C81.01 53.8876 79.438 53.7316 78.08 54.3276C76.464 55.0376 75.492 56.5276 75.466 58.2856C75.46 58.7256 75.466 59.1676 75.466 59.6076C75.466 65.2276 75.466 70.8456 75.466 76.4656C75.466 85.4616 75.466 94.4576 75.466 103.456C75.466 112.082 75.466 120.71 75.466 129.336C75.466 133.846 75.472 138.358 75.466 142.868C75.458 148.532 75.4 154.194 75.4 159.858C75.4 161.45 75.382 163.042 75.4 164.634C75.428 167.044 77.27 168.744 79.638 168.8C80.702 168.826 81.768 168.8 82.832 168.8C89.504 168.8 96.176 168.8 102.848 168.8C112.136 168.8 121.424 168.8 130.712 168.8C138.37 168.8 146.026 168.8 153.684 168.8C155.61 168.8 157.536 168.8 159.462 168.8C162.13 168.8 164.798 167.548 164.88 164.496C164.982 160.746 164.88 156.978 164.88 153.226C164.88 144.904 164.88 136.582 164.88 128.258C164.88 119.086 164.88 109.912 164.88 100.74C164.88 94.4316 164.88 88.1236 164.88 81.8176C164.88 80.8976 164.88 79.9796 164.88 79.0596C164.88 78.8536 163.914 79.0056 163.914 79.3176Z" fill="#56627F"/>
<path d="M145.418 49.2937C145.138 46.9417 143.138 45.1197 140.712 45.1177L125.062 45.1137V41.7057C125.062 39.2717 123.09 37.2977 120.656 37.2977C118.222 37.2977 116.248 39.2697 116.248 41.7037V45.1117L100.598 45.1077C98.228 45.1077 96.266 46.8437 95.912 49.1137C95.874 49.3537 95.856 49.5977 95.856 49.8477V51.7637C95.856 54.3837 97.978 56.5057 100.596 56.5077L140.712 56.5177C143.33 56.5177 145.454 54.3957 145.456 51.7777V49.8617C145.454 49.6697 145.44 49.4797 145.418 49.2937ZM120.656 43.9557C119.284 43.9557 118.17 42.8417 118.17 41.4697C118.17 40.0977 119.284 38.9837 120.656 38.9837C122.028 38.9837 123.142 40.0977 123.142 41.4697C123.142 42.8417 122.028 43.9557 120.656 43.9557Z" fill="#EFEFEF"/>
<path d="M145.418 49.2936C145.138 46.9416 143.138 45.1196 140.712 45.1176L125.062 45.1136V41.8116C125.062 39.4216 123.204 37.3856 120.816 37.2996C118.308 37.2096 116.248 39.2156 116.246 41.7036V45.1116L100.596 45.1076C98.226 45.1076 96.264 46.8436 95.91 49.1136C95.872 49.3536 95.854 49.5976 95.854 49.8476V50.4596C95.854 53.0116 97.922 55.0816 100.472 55.0816L140.71 55.0916C143.328 55.0916 145.452 52.3576 145.454 49.7396V50.4716C145.454 50.2796 145.44 49.4796 145.418 49.2936ZM120.978 43.9336C119.352 44.1376 117.984 42.7696 118.19 41.1436C118.33 40.0356 119.224 39.1416 120.332 39.0016C121.958 38.7976 123.324 40.1656 123.12 41.7916C122.982 42.8996 122.086 43.7956 120.978 43.9336Z" fill="white"/>
<path d="M145.854 49.1776C145.5 46.7976 143.572 45.0356 141.166 44.9016C140.358 44.8556 139.542 44.8936 138.734 44.8936C135.232 44.8936 131.728 44.8916 128.226 44.8916C127.23 44.8916 126.234 44.8916 125.238 44.8916C125.324 44.9276 125.412 44.9656 125.498 45.0016C125.498 43.6296 125.678 42.1276 125.422 40.7716C124.982 38.4376 122.762 36.9196 120.444 37.0916C118.2 37.2576 116.132 38.9136 115.85 41.2156C115.688 42.5296 115.814 43.9116 115.812 45.2336C116.016 45.1196 116.218 45.0056 116.422 44.8916C111.312 44.8896 106.2 44.8656 101.09 44.8876C99.698 44.8936 98.354 45.2276 97.256 46.1256C95.63 47.4536 95.42 49.2576 95.42 51.2136C95.42 53.2396 96.064 55.0676 97.928 56.1096C98.802 56.5996 99.764 56.7376 100.748 56.7416C105.61 56.7616 110.47 56.7436 115.332 56.7456C121.97 56.7476 128.61 56.7496 135.248 56.7516C136.92 56.7516 138.592 56.7616 140.264 56.7536C143.398 56.7376 145.868 54.6216 145.888 51.4016C145.892 50.6576 145.92 49.9096 145.854 49.1776C145.832 48.9276 144.956 49.1056 144.984 49.4096C145.13 51.0056 145.194 52.9336 144.312 54.3236C143.492 55.6156 142.17 56.2736 140.666 56.2936C139.204 56.3116 137.742 56.2936 136.28 56.2916C130.264 56.2896 124.248 56.2876 118.232 56.2876C112.966 56.2856 107.702 56.2856 102.436 56.2836C100.508 56.2836 98.652 56.2816 97.298 54.5676C96.194 53.1716 96.234 51.4416 96.286 49.7556C96.36 47.3896 98.054 45.3816 100.502 45.3336C105.524 45.2356 110.558 45.3356 115.58 45.3376C115.744 45.3376 115.906 45.3376 116.07 45.3376C116.26 45.3376 116.68 45.2456 116.68 44.9956C116.68 43.9016 116.66 42.8056 116.68 41.7136C116.724 39.2976 118.632 37.1216 121.206 37.5936C123.306 37.9796 124.604 39.9036 124.626 41.9476C124.638 43.0416 124.626 44.1356 124.626 45.2296C124.626 45.3276 124.83 45.3396 124.886 45.3396C130.016 45.3416 135.148 45.2856 140.278 45.3436C142.704 45.3716 144.624 46.9876 144.984 49.4096C145.022 49.6676 145.898 49.4736 145.854 49.1776Z" fill="#56627F"/>
<path d="M120.83 43.7271C118.286 43.5891 117.706 39.2751 120.482 39.2071C123.068 39.1451 123.572 43.5811 120.83 43.7271C120.536 43.7431 119.902 44.2111 120.48 44.1791C121.928 44.1011 123.384 43.2431 123.56 41.6771C123.74 40.0631 122.41 38.7531 120.832 38.7551C119.43 38.7571 118.012 39.6831 117.774 41.1251C117.49 42.8491 118.862 44.0911 120.482 44.1791C120.786 44.1971 121.412 43.7591 120.83 43.7271Z" fill="#56627F"/>
<path d="M98.882 68.9576H85.62C84.28 68.9576 83.194 70.0436 83.194 71.3836V84.6456C83.194 85.9856 84.28 87.0716 85.62 87.0716H98.882C100.222 87.0716 101.308 85.9856 101.308 84.6456V71.3836C101.308 70.0436 100.222 68.9576 98.882 68.9576Z" fill="white"/>
<path d="M99.192 68.7495C94.806 68.7495 90.414 68.6815 86.026 68.7495C84.87 68.7675 83.656 69.1855 83.046 70.2395C82.622 70.9735 82.71 71.8315 82.71 72.6455C82.71 75.4415 82.71 78.2395 82.71 81.0355C82.71 82.8735 82.102 86.0575 84.164 87.0215C84.874 87.3535 85.682 87.2755 86.444 87.2755C87.718 87.2755 88.992 87.2755 90.266 87.2755C92.886 87.2755 95.506 87.2755 98.124 87.2755C99.03 87.2755 99.926 87.1755 100.686 86.6235C101.592 85.9655 101.79 85.0215 101.79 83.9855C101.79 80.9855 101.79 77.9875 101.79 74.9875C101.79 72.7255 102.476 68.9275 99.192 68.7495C98.972 68.7375 98.088 69.1355 98.57 69.1615C101.37 69.3115 100.824 72.6275 100.824 74.5435C100.824 77.1595 100.824 79.7775 100.824 82.3935C100.824 84.0895 101.218 86.7315 98.82 86.8635C96.616 86.9835 94.37 86.8635 92.162 86.8635C90.122 86.8635 88.064 86.9375 86.026 86.8635C83.446 86.7695 83.676 84.2735 83.676 82.4415C83.676 79.7795 83.676 77.1195 83.676 74.4575C83.676 72.8775 83.1 69.4495 85.37 69.1615C86.168 69.0595 87.042 69.1615 87.844 69.1615C89.342 69.1615 90.838 69.1615 92.336 69.1615C94.414 69.1615 96.492 69.1615 98.57 69.1615C98.788 69.1635 99.668 68.7495 99.192 68.7495Z" fill="#717CEF"/>
<path d="M85.534 75.7136C87.458 77.6376 89.3799 79.5616 91.3039 81.4836C91.5379 81.7176 92.0279 81.5276 92.2039 81.3076C94.5839 78.3396 97.2539 75.3156 100.38 73.1216C100.914 72.7456 100.094 72.5836 99.7739 72.8076C96.5299 75.0836 93.7719 78.1896 91.2999 81.2716C91.5999 81.2136 91.8999 81.1556 92.1999 81.0956C90.2759 79.1716 88.3519 77.2476 86.4299 75.3256C86.1779 75.0776 85.262 75.4436 85.534 75.7136Z" fill="#717CEF"/>
<path d="M98.882 92.5576H85.62C84.28 92.5576 83.194 93.6436 83.194 94.9836V108.246C83.194 109.586 84.28 110.672 85.62 110.672H98.882C100.222 110.672 101.308 109.586 101.308 108.246V94.9836C101.308 93.6456 100.222 92.5576 98.882 92.5576Z" fill="#EDEDED"/>
<path d="M98.882 116.16H85.62C84.28 116.16 83.194 117.246 83.194 118.586V131.848C83.194 133.188 84.28 134.274 85.62 134.274H98.882C100.222 134.274 101.308 133.188 101.308 131.848V118.586C101.308 117.248 100.222 116.16 98.882 116.16Z" fill="#EDEDED"/>
<path d="M98.882 139.332H85.62C84.28 139.332 83.194 140.418 83.194 141.758V155.02C83.194 156.36 84.28 157.446 85.62 157.446H98.882C100.222 157.446 101.308 156.36 101.308 155.02V141.76C101.308 140.42 100.222 139.332 98.882 139.332Z" fill="#EDEDED"/>
<path d="M113.458 72.5296L114.968 75.6396C115.024 75.7576 115.134 75.8376 115.26 75.8556L118.616 76.3456C118.934 76.3916 119.062 76.7936 118.834 77.0236L116.414 79.4556C116.322 79.5476 116.282 79.6796 116.304 79.8076L116.886 83.2296C116.942 83.5536 116.61 83.8036 116.324 83.6516L113.32 82.0436C113.206 81.9836 113.072 81.9836 112.958 82.0456L109.962 83.6696C109.678 83.8236 109.344 83.5776 109.398 83.2516L109.96 79.8276C109.982 79.6976 109.94 79.5676 109.848 79.4756L107.414 77.0576C107.182 76.8276 107.308 76.4276 107.628 76.3776L110.98 75.8676C111.106 75.8476 111.216 75.7676 111.272 75.6496L112.762 72.5316C112.902 72.2356 113.314 72.2336 113.458 72.5296Z" fill="#FFDD85"/>
<path d="M126.558 72.53L128.068 75.64C128.124 75.758 128.234 75.838 128.36 75.856L131.716 76.346C132.034 76.392 132.162 76.794 131.934 77.024L129.514 79.456C129.422 79.548 129.382 79.68 129.404 79.808L129.986 83.23C130.042 83.554 129.71 83.804 129.424 83.652L126.42 82.044C126.306 81.984 126.172 81.984 126.058 82.046L123.062 83.67C122.778 83.824 122.444 83.578 122.498 83.252L123.06 79.828C123.082 79.698 123.04 79.568 122.948 79.476L120.514 77.058C120.282 76.828 120.408 76.428 120.728 76.378L124.08 75.868C124.206 75.848 124.316 75.768 124.372 75.65L125.862 72.532C126.004 72.236 126.416 72.236 126.558 72.53Z" fill="#FFDD85"/>
<path d="M139.66 72.5319L141.17 75.6419C141.226 75.7599 141.336 75.8399 141.462 75.8579L144.818 76.3479C145.136 76.3939 145.264 76.7959 145.036 77.0259L142.616 79.4579C142.524 79.5499 142.484 79.6819 142.506 79.8099L143.088 83.2319C143.144 83.5559 142.812 83.8059 142.526 83.6539L139.522 82.0459C139.408 81.9859 139.274 81.9859 139.16 82.0479L136.164 83.6719C135.88 83.8259 135.546 83.5799 135.6 83.2539L136.162 79.8299C136.184 79.6999 136.142 79.5699 136.05 79.4779L133.616 77.0599C133.384 76.8299 133.51 76.4299 133.83 76.3799L137.182 75.8699C137.308 75.8499 137.418 75.7699 137.474 75.6519L138.964 72.5339C139.104 72.2379 139.516 72.2359 139.66 72.5319Z" fill="#FFDD85"/>
<path d="M152.76 72.532L154.27 75.642C154.326 75.76 154.436 75.84 154.562 75.858L157.918 76.348C158.236 76.394 158.364 76.796 158.136 77.026L155.716 79.458C155.624 79.55 155.584 79.682 155.606 79.81L156.188 83.232C156.244 83.556 155.912 83.806 155.626 83.654L152.622 82.046C152.508 81.986 152.374 81.986 152.26 82.048L149.264 83.672C148.98 83.826 148.646 83.58 148.7 83.254L149.262 79.83C149.284 79.7 149.242 79.57 149.15 79.478L146.716 77.06C146.484 76.83 146.61 76.43 146.93 76.38L150.282 75.87C150.408 75.85 150.518 75.77 150.574 75.652L152.064 72.534C152.206 72.238 152.616 72.238 152.76 72.532Z" fill="#FFDD85"/>
<path d="M113.458 96.1315L114.968 99.2415C115.024 99.3595 115.134 99.4395 115.26 99.4575L118.616 99.9475C118.934 99.9935 119.062 100.396 118.834 100.626L116.414 103.058C116.322 103.15 116.282 103.282 116.304 103.41L116.886 106.832C116.942 107.156 116.61 107.406 116.324 107.254L113.32 105.646C113.206 105.586 113.072 105.586 112.958 105.648L109.962 107.272C109.678 107.426 109.344 107.18 109.398 106.854L109.96 103.43C109.982 103.3 109.94 103.17 109.848 103.078L107.414 100.66C107.182 100.43 107.308 100.03 107.628 99.9795L110.98 99.4695C111.106 99.4495 111.216 99.3695 111.272 99.2515L112.762 96.1335C112.902 95.8375 113.314 95.8355 113.458 96.1315Z" fill="#FFDD85"/>
<path d="M126.558 96.1332L128.068 99.2432C128.124 99.3612 128.234 99.4412 128.36 99.4592L131.716 99.9493C132.034 99.9953 132.162 100.397 131.934 100.627L129.514 103.059C129.422 103.151 129.382 103.283 129.404 103.411L129.986 106.833C130.042 107.157 129.71 107.407 129.424 107.255L126.42 105.647C126.306 105.587 126.172 105.587 126.058 105.649L123.062 107.273C122.778 107.427 122.444 107.181 122.498 106.855L123.06 103.431C123.082 103.301 123.04 103.171 122.948 103.079L120.514 100.661C120.282 100.431 120.408 100.031 120.728 99.9812L124.08 99.4712C124.206 99.4512 124.316 99.3713 124.372 99.2533L125.862 96.1353C126.004 95.8373 126.416 95.8372 126.558 96.1332Z" fill="#FFDD85"/>
<path d="M139.66 96.1333L141.17 99.2433C141.226 99.3613 141.336 99.4413 141.462 99.4593L144.818 99.9493C145.136 99.9953 145.264 100.397 145.036 100.627L142.616 103.059C142.524 103.151 142.484 103.283 142.506 103.411L143.088 106.833C143.144 107.157 142.812 107.407 142.526 107.255L139.522 105.647C139.408 105.587 139.274 105.587 139.16 105.649L136.164 107.273C135.88 107.427 135.546 107.181 135.6 106.855L136.162 103.431C136.184 103.301 136.142 103.171 136.05 103.079L133.616 100.661C133.384 100.431 133.51 100.031 133.83 99.9813L137.182 99.4713C137.308 99.4513 137.418 99.3713 137.474 99.2533L138.964 96.1353C139.104 95.8393 139.516 95.8373 139.66 96.1333Z" fill="#FFDD85"/>
<path d="M113.458 119.734L114.968 122.844C115.024 122.962 115.134 123.042 115.26 123.06L118.616 123.55C118.934 123.596 119.062 123.998 118.834 124.228L116.414 126.66C116.322 126.752 116.282 126.884 116.304 127.012L116.886 130.434C116.942 130.758 116.61 131.008 116.324 130.856L113.32 129.248C113.206 129.188 113.072 129.188 112.958 129.25L109.962 130.874C109.678 131.028 109.344 130.782 109.398 130.456L109.96 127.032C109.982 126.902 109.94 126.772 109.848 126.68L107.414 124.262C107.182 124.032 107.308 123.632 107.628 123.582L110.98 123.072C111.106 123.052 111.216 122.972 111.272 122.854L112.762 119.736C112.902 119.44 113.314 119.438 113.458 119.734Z" fill="#FFDD85"/>
<path d="M126.558 119.734L128.068 122.844C128.124 122.962 128.234 123.042 128.36 123.06L131.716 123.55C132.034 123.596 132.162 123.998 131.934 124.228L129.514 126.66C129.422 126.752 129.382 126.884 129.404 127.012L129.986 130.434C130.042 130.758 129.71 131.008 129.424 130.856L126.42 129.248C126.306 129.188 126.172 129.188 126.058 129.25L123.062 130.874C122.778 131.028 122.444 130.782 122.498 130.456L123.06 127.032C123.082 126.902 123.04 126.772 122.948 126.68L120.514 124.262C120.282 124.032 120.408 123.632 120.728 123.582L124.08 123.072C124.206 123.052 124.316 122.972 124.372 122.854L125.862 119.736C126.004 119.44 126.416 119.44 126.558 119.734Z" fill="#FFDD85"/>
<path d="M113.458 142.906L114.968 146.016C115.024 146.134 115.134 146.214 115.26 146.232L118.616 146.722C118.934 146.768 119.062 147.17 118.834 147.4L116.414 149.832C116.322 149.924 116.282 150.056 116.304 150.184L116.886 153.606C116.942 153.93 116.61 154.18 116.324 154.028L113.32 152.42C113.206 152.36 113.072 152.36 112.958 152.422L109.962 154.046C109.678 154.2 109.344 153.954 109.398 153.628L109.96 150.204C109.982 150.074 109.94 149.944 109.848 149.852L107.414 147.434C107.182 147.204 107.308 146.804 107.628 146.754L110.98 146.244C111.106 146.224 111.216 146.144 111.272 146.026L112.762 142.908C112.902 142.612 113.314 142.61 113.458 142.906Z" fill="#FFDD85"/>
</svg>
