<svg width="88" height="58" viewBox="0 0 88 58" fill="none" xmlns="http://www.w3.org/2000/svg">
<path fill-rule="evenodd" clip-rule="evenodd" d="M29.3122 1C29.3122 0.723858 29.5361 0.5 29.8122 0.5C30.0884 0.5 30.3122 0.723858 30.3122 1V2.01716C30.3122 2.2933 30.0884 2.51716 29.8122 2.51716C29.5361 2.51716 29.3122 2.2933 29.3122 2.01716V1ZM29.3122 5.06865C29.3122 4.79251 29.5361 4.56865 29.8122 4.56865C30.0884 4.56865 30.3122 4.79251 30.3122 5.06865V7.10297C30.3122 7.37912 30.0884 7.60297 29.8122 7.60297C29.5361 7.60297 29.3122 7.37912 29.3122 7.10297V5.06865ZM29.3122 10.1545C29.3122 9.87832 29.5361 9.65446 29.8122 9.65446C30.0884 9.65446 30.3122 9.87832 30.3122 10.1545V12.1888C30.3122 12.4649 30.0884 12.6888 29.8122 12.6888C29.5361 12.6888 29.3122 12.4649 29.3122 12.1888V10.1545ZM29.3122 15.2403C29.3122 14.9641 29.5361 14.7403 29.8122 14.7403C30.0884 14.7403 30.3122 14.9641 30.3122 15.2403V17.2746C30.3122 17.5507 30.0884 17.7746 29.8122 17.7746C29.5361 17.7746 29.3122 17.5507 29.3122 17.2746V15.2403ZM29.3122 20.3261C29.3122 20.0499 29.5361 19.8261 29.8122 19.8261C30.0884 19.8261 30.3122 20.0499 30.3122 20.3261V22.3604C30.3122 22.6365 30.0884 22.8604 29.8122 22.8604C29.5361 22.8604 29.3122 22.6365 29.3122 22.3604V20.3261ZM29.3122 25.4119C29.3122 25.1358 29.5361 24.9119 29.8122 24.9119C30.0884 24.9119 30.3122 25.1358 30.3122 25.4119V27.4462C30.3122 27.7224 30.0884 27.9462 29.8122 27.9462C29.5361 27.9462 29.3122 27.7224 29.3122 27.4462V25.4119ZM29.3122 30.4977C29.3122 30.2216 29.5361 29.9977 29.8122 29.9977C30.0884 29.9977 30.3122 30.2216 30.3122 30.4977V32.532C30.3122 32.8082 30.0884 33.032 29.8122 33.032C29.5361 33.032 29.3122 32.8082 29.3122 32.532V30.4977ZM29.3122 35.5835C29.3122 35.3074 29.5361 35.0835 29.8122 35.0835C30.0884 35.0835 30.3122 35.3074 30.3122 35.5835V37.6178C30.3122 37.894 30.0884 38.1178 29.8122 38.1178C29.5361 38.1178 29.3122 37.894 29.3122 37.6178V35.5835ZM29.3122 40.6693C29.3122 40.3932 29.5361 40.1693 29.8122 40.1693C30.0884 40.1693 30.3122 40.3932 30.3122 40.6693V42.7036C30.3122 42.9798 30.0884 43.2036 29.8122 43.2036C29.5361 43.2036 29.3122 42.9798 29.3122 42.7036V40.6693ZM29.3122 45.7551C29.3122 45.479 29.5361 45.2551 29.8122 45.2551C30.0884 45.2551 30.3122 45.479 30.3122 45.7551V47.7895C30.3122 48.0656 30.0884 48.2895 29.8122 48.2895C29.5361 48.2895 29.3122 48.0656 29.3122 47.7895V45.7551ZM29.3122 50.841C29.3122 50.5648 29.5361 50.341 29.8122 50.341C30.0884 50.341 30.3122 50.5648 30.3122 50.841V52.8753C30.3122 53.1514 30.0884 53.3753 29.8122 53.3753C29.5361 53.3753 29.3122 53.1514 29.3122 52.8753V50.841ZM29.3122 55.9268C29.3122 55.6506 29.5361 55.4268 29.8122 55.4268C30.0884 55.4268 30.3122 55.6506 30.3122 55.9268V56.9439C30.3122 57.2201 30.0884 57.4439 29.8122 57.4439C29.5361 57.4439 29.3122 57.2201 29.3122 56.9439V55.9268ZM87 1.88135C86.7239 1.88135 86.5 2.10521 86.5 2.38135V3.37339C86.5 3.64954 86.7239 3.87339 87 3.87339C87.2761 3.87339 87.5 3.64954 87.5 3.37339V2.38135C87.5 2.10521 87.2761 1.88135 87 1.88135ZM87 5.84954C86.7239 5.84954 86.5 6.07339 86.5 6.34954V8.33363C86.5 8.60977 86.7239 8.83363 87 8.83363C87.2761 8.83363 87.5 8.60977 87.5 8.33363V6.34954C87.5 6.07339 87.2761 5.84954 87 5.84954ZM87 10.8098C86.7239 10.8098 86.5 11.0336 86.5 11.3098V13.2939C86.5 13.57 86.7239 13.7939 87 13.7939C87.2761 13.7939 87.5 13.57 87.5 13.2939V11.3098C87.5 11.0336 87.2761 10.8098 87 10.8098ZM87 15.77C86.7239 15.77 86.5 15.9939 86.5 16.27V18.2541C86.5 18.5302 86.7239 18.7541 87 18.7541C87.2761 18.7541 87.5 18.5302 87.5 18.2541V16.27C87.5 15.9939 87.2761 15.77 87 15.77ZM87 20.7302C86.7239 20.7302 86.5 20.9541 86.5 21.2302V23.2143C86.5 23.4905 86.7239 23.7143 87 23.7143C87.2761 23.7143 87.5 23.4905 87.5 23.2143V21.2302C87.5 20.9541 87.2761 20.7302 87 20.7302ZM87 25.6905C86.7239 25.6905 86.5 25.9143 86.5 26.1905V28.1746C86.5 28.4507 86.7239 28.6746 87 28.6746C87.2761 28.6746 87.5 28.4507 87.5 28.1746V26.1905C87.5 25.9143 87.2761 25.6905 87 25.6905ZM87 30.6507C86.7239 30.6507 86.5 30.8746 86.5 31.1507V33.1348C86.5 33.4109 86.7239 33.6348 87 33.6348C87.2761 33.6348 87.5 33.4109 87.5 33.1348V31.1507C87.5 30.8746 87.2761 30.6507 87 30.6507ZM87 35.6109C86.7239 35.6109 86.5 35.8348 86.5 36.1109V38.095C86.5 38.3712 86.7239 38.595 87 38.595C87.2761 38.595 87.5 38.3712 87.5 38.095V36.1109C87.5 35.8348 87.2761 35.6109 87 35.6109ZM87 40.5712C86.7239 40.5712 86.5 40.795 86.5 41.0712V43.0553C86.5 43.3314 86.7239 43.5553 87 43.5553C87.2761 43.5553 87.5 43.3314 87.5 43.0553V41.0712C87.5 40.795 87.2761 40.5712 87 40.5712ZM87 45.5314C86.7239 45.5314 86.5 45.7553 86.5 46.0314V48.0155C86.5 48.2917 86.7239 48.5155 87 48.5155C87.2761 48.5155 87.5 48.2917 87.5 48.0155V46.0314C87.5 45.7553 87.2761 45.5314 87 45.5314ZM87 50.4917C86.7239 50.4917 86.5 50.7155 86.5 50.9917V52.9757C86.5 53.2519 86.7239 53.4757 87 53.4757C87.2761 53.4757 87.5 53.2519 87.5 52.9757V50.9917C87.5 50.7155 87.2761 50.4917 87 50.4917ZM87 55.4519C86.7239 55.4519 86.5 55.6757 86.5 55.9519V56.9439C86.5 57.2201 86.7239 57.4439 87 57.4439C87.2761 57.4439 87.5 57.2201 87.5 56.9439V55.9519C87.5 55.6757 87.2761 55.4519 87 55.4519ZM72.8043 1.88135C72.5282 1.88135 72.3043 2.10521 72.3043 2.38135V3.37339C72.3043 3.64954 72.5282 3.87339 72.8043 3.87339C73.0805 3.87339 73.3043 3.64954 73.3043 3.37339V2.38135C73.3043 2.10521 73.0805 1.88135 72.8043 1.88135ZM72.8043 5.84954C72.5282 5.84954 72.3043 6.07339 72.3043 6.34954V8.33363C72.3043 8.60977 72.5282 8.83363 72.8043 8.83363C73.0805 8.83363 73.3043 8.60977 73.3043 8.33363V6.34954C73.3043 6.07339 73.0805 5.84954 72.8043 5.84954ZM72.8043 10.8098C72.5282 10.8098 72.3043 11.0336 72.3043 11.3098V13.2939C72.3043 13.57 72.5282 13.7939 72.8043 13.7939C73.0805 13.7939 73.3043 13.57 73.3043 13.2939V11.3098C73.3043 11.0336 73.0805 10.8098 72.8043 10.8098ZM72.8043 15.77C72.5282 15.77 72.3043 15.9939 72.3043 16.27V18.2541C72.3043 18.5302 72.5282 18.7541 72.8043 18.7541C73.0805 18.7541 73.3043 18.5302 73.3043 18.2541V16.27C73.3043 15.9939 73.0805 15.77 72.8043 15.77ZM72.8043 20.7302C72.5282 20.7302 72.3043 20.9541 72.3043 21.2302V23.2143C72.3043 23.4905 72.5282 23.7143 72.8043 23.7143C73.0805 23.7143 73.3043 23.4905 73.3043 23.2143V21.2302C73.3043 20.9541 73.0805 20.7302 72.8043 20.7302ZM72.8043 25.6905C72.5282 25.6905 72.3043 25.9143 72.3043 26.1905V28.1746C72.3043 28.4507 72.5282 28.6746 72.8043 28.6746C73.0805 28.6746 73.3043 28.4507 73.3043 28.1746V26.1905C73.3043 25.9143 73.0805 25.6905 72.8043 25.6905ZM72.8043 30.6507C72.5282 30.6507 72.3043 30.8746 72.3043 31.1507V33.1348C72.3043 33.4109 72.5282 33.6348 72.8043 33.6348C73.0805 33.6348 73.3043 33.4109 73.3043 33.1348V31.1507C73.3043 30.8746 73.0805 30.6507 72.8043 30.6507ZM72.8043 35.6109C72.5282 35.6109 72.3043 35.8348 72.3043 36.1109V38.095C72.3043 38.3712 72.5282 38.595 72.8043 38.595C73.0805 38.595 73.3043 38.3712 73.3043 38.095V36.1109C73.3043 35.8348 73.0805 35.6109 72.8043 35.6109ZM72.8043 40.5712C72.5282 40.5712 72.3043 40.795 72.3043 41.0712V43.0553C72.3043 43.3314 72.5282 43.5553 72.8043 43.5553C73.0805 43.5553 73.3043 43.3314 73.3043 43.0553V41.0712C73.3043 40.795 73.0805 40.5712 72.8043 40.5712ZM72.8043 45.5314C72.5282 45.5314 72.3043 45.7553 72.3043 46.0314V48.0155C72.3043 48.2917 72.5282 48.5155 72.8043 48.5155C73.0805 48.5155 73.3043 48.2917 73.3043 48.0155V46.0314C73.3043 45.7553 73.0805 45.5314 72.8043 45.5314ZM72.8043 50.4917C72.5282 50.4917 72.3043 50.7155 72.3043 50.9917V52.9757C72.3043 53.2519 72.5282 53.4757 72.8043 53.4757C73.0805 53.4757 73.3043 53.2519 73.3043 52.9757V50.9917C73.3043 50.7155 73.0805 50.4917 72.8043 50.4917ZM72.8043 55.4519C72.5282 55.4519 72.3043 55.6757 72.3043 55.9519V56.9439C72.3043 57.2201 72.5282 57.4439 72.8043 57.4439C73.0805 57.4439 73.3043 57.2201 73.3043 56.9439V55.9519C73.3043 55.6757 73.0805 55.4519 72.8043 55.4519ZM58.109 2.38135C58.109 2.10521 58.3328 1.88135 58.609 1.88135C58.8851 1.88135 59.109 2.10521 59.109 2.38135V3.37339C59.109 3.64954 58.8851 3.87339 58.609 3.87339C58.3328 3.87339 58.109 3.64954 58.109 3.37339V2.38135ZM58.109 6.34954C58.109 6.07339 58.3328 5.84954 58.609 5.84954C58.8851 5.84954 59.109 6.07339 59.109 6.34954V8.33363C59.109 8.60977 58.8851 8.83363 58.609 8.83363C58.3328 8.83363 58.109 8.60977 58.109 8.33363V6.34954ZM58.109 11.3098C58.109 11.0336 58.3328 10.8098 58.609 10.8098C58.8851 10.8098 59.109 11.0336 59.109 11.3098V13.2939C59.109 13.57 58.8851 13.7939 58.609 13.7939C58.3328 13.7939 58.109 13.57 58.109 13.2939V11.3098ZM58.109 16.27C58.109 15.9939 58.3328 15.77 58.609 15.77C58.8851 15.77 59.109 15.9939 59.109 16.27V18.2541C59.109 18.5302 58.8851 18.7541 58.609 18.7541C58.3328 18.7541 58.109 18.5302 58.109 18.2541V16.27ZM58.109 21.2302C58.109 20.9541 58.3328 20.7302 58.609 20.7302C58.8851 20.7302 59.109 20.9541 59.109 21.2302V23.2143C59.109 23.4905 58.8851 23.7143 58.609 23.7143C58.3328 23.7143 58.109 23.4905 58.109 23.2143V21.2302ZM58.109 26.1905C58.109 25.9143 58.3328 25.6905 58.609 25.6905C58.8851 25.6905 59.109 25.9143 59.109 26.1905V28.1746C59.109 28.4507 58.8851 28.6746 58.609 28.6746C58.3328 28.6746 58.109 28.4507 58.109 28.1746V26.1905ZM58.109 31.1507C58.109 30.8746 58.3328 30.6507 58.609 30.6507C58.8851 30.6507 59.109 30.8746 59.109 31.1507V33.1348C59.109 33.4109 58.8851 33.6348 58.609 33.6348C58.3328 33.6348 58.109 33.4109 58.109 33.1348V31.1507ZM58.109 36.1109C58.109 35.8348 58.3328 35.6109 58.609 35.6109C58.8851 35.6109 59.109 35.8348 59.109 36.1109V38.095C59.109 38.3712 58.8851 38.595 58.609 38.595C58.3328 38.595 58.109 38.3712 58.109 38.095V36.1109ZM58.109 41.0712C58.109 40.795 58.3328 40.5712 58.609 40.5712C58.8851 40.5712 59.109 40.795 59.109 41.0712V43.0553C59.109 43.3314 58.8851 43.5553 58.609 43.5553C58.3328 43.5553 58.109 43.3314 58.109 43.0553V41.0712ZM58.109 46.0314C58.109 45.7553 58.3328 45.5314 58.609 45.5314C58.8851 45.5314 59.109 45.7553 59.109 46.0314V48.0155C59.109 48.2917 58.8851 48.5155 58.609 48.5155C58.3328 48.5155 58.109 48.2917 58.109 48.0155V46.0314ZM58.109 50.9917C58.109 50.7155 58.3328 50.4917 58.609 50.4917C58.8851 50.4917 59.109 50.7155 59.109 50.9917V52.9757C59.109 53.2519 58.8851 53.4757 58.609 53.4757C58.3328 53.4757 58.109 53.2519 58.109 52.9757V50.9917ZM58.109 55.9519C58.109 55.6757 58.3328 55.4519 58.609 55.4519C58.8851 55.4519 59.109 55.6757 59.109 55.9519V56.9439C59.109 57.2201 58.8851 57.4439 58.609 57.4439C58.3328 57.4439 58.109 57.2201 58.109 56.9439V55.9519ZM44.0079 1.88135C43.7318 1.88135 43.5079 2.10521 43.5079 2.38135V3.37339C43.5079 3.64954 43.7318 3.87339 44.0079 3.87339C44.2841 3.87339 44.5079 3.64954 44.5079 3.37339V2.38135C44.5079 2.10521 44.2841 1.88135 44.0079 1.88135ZM44.0079 5.84954C43.7318 5.84954 43.5079 6.07339 43.5079 6.34954V8.33363C43.5079 8.60977 43.7318 8.83363 44.0079 8.83363C44.2841 8.83363 44.5079 8.60977 44.5079 8.33363V6.34954C44.5079 6.07339 44.2841 5.84954 44.0079 5.84954ZM44.0079 10.8098C43.7318 10.8098 43.5079 11.0336 43.5079 11.3098V13.2939C43.5079 13.57 43.7318 13.7939 44.0079 13.7939C44.2841 13.7939 44.5079 13.57 44.5079 13.2939V11.3098C44.5079 11.0336 44.2841 10.8098 44.0079 10.8098ZM44.0079 15.77C43.7318 15.77 43.5079 15.9939 43.5079 16.27V18.2541C43.5079 18.5302 43.7318 18.7541 44.0079 18.7541C44.2841 18.7541 44.5079 18.5302 44.5079 18.2541V16.27C44.5079 15.9939 44.2841 15.77 44.0079 15.77ZM44.0079 20.7302C43.7318 20.7302 43.5079 20.9541 43.5079 21.2302V23.2143C43.5079 23.4905 43.7318 23.7143 44.0079 23.7143C44.2841 23.7143 44.5079 23.4905 44.5079 23.2143V21.2302C44.5079 20.9541 44.2841 20.7302 44.0079 20.7302ZM44.0079 25.6905C43.7318 25.6905 43.5079 25.9143 43.5079 26.1905V28.1746C43.5079 28.4507 43.7318 28.6746 44.0079 28.6746C44.2841 28.6746 44.5079 28.4507 44.5079 28.1746V26.1905C44.5079 25.9143 44.2841 25.6905 44.0079 25.6905ZM44.0079 30.6507C43.7318 30.6507 43.5079 30.8746 43.5079 31.1507V33.1348C43.5079 33.4109 43.7318 33.6348 44.0079 33.6348C44.2841 33.6348 44.5079 33.4109 44.5079 33.1348V31.1507C44.5079 30.8746 44.2841 30.6507 44.0079 30.6507ZM44.0079 35.6109C43.7318 35.6109 43.5079 35.8348 43.5079 36.1109V38.095C43.5079 38.3712 43.7318 38.595 44.0079 38.595C44.2841 38.595 44.5079 38.3712 44.5079 38.095V36.1109C44.5079 35.8348 44.2841 35.6109 44.0079 35.6109ZM44.0079 40.5712C43.7318 40.5712 43.5079 40.795 43.5079 41.0712V43.0553C43.5079 43.3314 43.7318 43.5553 44.0079 43.5553C44.2841 43.5553 44.5079 43.3314 44.5079 43.0553V41.0712C44.5079 40.795 44.2841 40.5712 44.0079 40.5712ZM44.0079 45.5314C43.7318 45.5314 43.5079 45.7553 43.5079 46.0314V48.0155C43.5079 48.2917 43.7318 48.5155 44.0079 48.5155C44.2841 48.5155 44.5079 48.2917 44.5079 48.0155V46.0314C44.5079 45.7553 44.2841 45.5314 44.0079 45.5314ZM44.0079 50.4917C43.7318 50.4917 43.5079 50.7155 43.5079 50.9917V52.9757C43.5079 53.2519 43.7318 53.4757 44.0079 53.4757C44.2841 53.4757 44.5079 53.2519 44.5079 52.9757V50.9917C44.5079 50.7155 44.2841 50.4917 44.0079 50.4917ZM44.0079 55.4519C43.7318 55.4519 43.5079 55.6757 43.5079 55.9519V56.9439C43.5079 57.2201 43.7318 57.4439 44.0079 57.4439C44.2841 57.4439 44.5079 57.2201 44.5079 56.9439V55.9519C44.5079 55.6757 44.2841 55.4519 44.0079 55.4519ZM15.6171 1.88135C15.3409 1.88135 15.1171 2.10521 15.1171 2.38135V3.37339C15.1171 3.64954 15.3409 3.87339 15.6171 3.87339C15.8932 3.87339 16.1171 3.64954 16.1171 3.37339V2.38135C16.1171 2.10521 15.8932 1.88135 15.6171 1.88135ZM15.6171 5.84954C15.3409 5.84954 15.1171 6.07339 15.1171 6.34954V8.33363C15.1171 8.60977 15.3409 8.83363 15.6171 8.83363C15.8932 8.83363 16.1171 8.60977 16.1171 8.33363V6.34954C16.1171 6.07339 15.8932 5.84954 15.6171 5.84954ZM15.6171 10.8098C15.3409 10.8098 15.1171 11.0336 15.1171 11.3098V13.2939C15.1171 13.57 15.3409 13.7939 15.6171 13.7939C15.8932 13.7939 16.1171 13.57 16.1171 13.2939V11.3098C16.1171 11.0336 15.8932 10.8098 15.6171 10.8098ZM15.6171 15.77C15.3409 15.77 15.1171 15.9939 15.1171 16.27V18.2541C15.1171 18.5302 15.3409 18.7541 15.6171 18.7541C15.8932 18.7541 16.1171 18.5302 16.1171 18.2541V16.27C16.1171 15.9939 15.8932 15.77 15.6171 15.77ZM15.6171 20.7302C15.3409 20.7302 15.1171 20.9541 15.1171 21.2302V23.2143C15.1171 23.4905 15.3409 23.7143 15.6171 23.7143C15.8932 23.7143 16.1171 23.4905 16.1171 23.2143V21.2302C16.1171 20.9541 15.8932 20.7302 15.6171 20.7302ZM15.6171 25.6905C15.3409 25.6905 15.1171 25.9143 15.1171 26.1905V28.1746C15.1171 28.4507 15.3409 28.6746 15.6171 28.6746C15.8932 28.6746 16.1171 28.4507 16.1171 28.1746V26.1905C16.1171 25.9143 15.8932 25.6905 15.6171 25.6905ZM15.6171 30.6507C15.3409 30.6507 15.1171 30.8746 15.1171 31.1507V33.1348C15.1171 33.4109 15.3409 33.6348 15.6171 33.6348C15.8932 33.6348 16.1171 33.4109 16.1171 33.1348V31.1507C16.1171 30.8746 15.8932 30.6507 15.6171 30.6507ZM15.6171 35.6109C15.3409 35.6109 15.1171 35.8348 15.1171 36.1109V38.095C15.1171 38.3712 15.3409 38.595 15.6171 38.595C15.8932 38.595 16.1171 38.3712 16.1171 38.095V36.1109C16.1171 35.8348 15.8932 35.6109 15.6171 35.6109ZM15.6171 40.5712C15.3409 40.5712 15.1171 40.795 15.1171 41.0712V43.0553C15.1171 43.3314 15.3409 43.5553 15.6171 43.5553C15.8932 43.5553 16.1171 43.3314 16.1171 43.0553V41.0712C16.1171 40.795 15.8932 40.5712 15.6171 40.5712ZM15.6171 45.5314C15.3409 45.5314 15.1171 45.7553 15.1171 46.0314V48.0155C15.1171 48.2917 15.3409 48.5155 15.6171 48.5155C15.8932 48.5155 16.1171 48.2917 16.1171 48.0155V46.0314C16.1171 45.7553 15.8932 45.5314 15.6171 45.5314ZM15.6171 50.4917C15.3409 50.4917 15.1171 50.7155 15.1171 50.9917V52.9757C15.1171 53.2519 15.3409 53.4757 15.6171 53.4757C15.8932 53.4757 16.1171 53.2519 16.1171 52.9757V50.9917C16.1171 50.7155 15.8932 50.4917 15.6171 50.4917ZM15.6171 55.4519C15.3409 55.4519 15.1171 55.6757 15.1171 55.9519V56.9439C15.1171 57.2201 15.3409 57.4439 15.6171 57.4439C15.8932 57.4439 16.1171 57.2201 16.1171 56.9439V55.9519C16.1171 55.6757 15.8932 55.4519 15.6171 55.4519ZM0.5 2.38135C0.5 2.10521 0.723854 1.88135 1 1.88135C1.27615 1.88135 1.5 2.10521 1.5 2.38135V3.37339C1.5 3.64954 1.27615 3.87339 1 3.87339C0.723854 3.87339 0.5 3.64954 0.5 3.37339V2.38135ZM0.5 6.34954C0.5 6.07339 0.723854 5.84954 1 5.84954C1.27615 5.84954 1.5 6.07339 1.5 6.34954V8.33363C1.5 8.60977 1.27615 8.83363 1 8.83363C0.723854 8.83363 0.5 8.60977 0.5 8.33363V6.34954ZM0.5 11.3098C0.5 11.0336 0.723854 10.8098 1 10.8098C1.27615 10.8098 1.5 11.0336 1.5 11.3098V13.2939C1.5 13.57 1.27615 13.7939 1 13.7939C0.723854 13.7939 0.5 13.57 0.5 13.2939V11.3098ZM0.5 16.27C0.5 15.9939 0.723854 15.77 1 15.77C1.27615 15.77 1.5 15.9939 1.5 16.27V18.2541C1.5 18.5302 1.27615 18.7541 1 18.7541C0.723854 18.7541 0.5 18.5302 0.5 18.2541V16.27ZM0.5 21.2302C0.5 20.9541 0.723854 20.7302 1 20.7302C1.27615 20.7302 1.5 20.9541 1.5 21.2302V23.2143C1.5 23.4905 1.27615 23.7143 1 23.7143C0.723854 23.7143 0.5 23.4905 0.5 23.2143V21.2302ZM0.5 26.1905C0.5 25.9143 0.723854 25.6905 1 25.6905C1.27615 25.6905 1.5 25.9143 1.5 26.1905V28.1746C1.5 28.4507 1.27615 28.6746 1 28.6746C0.723854 28.6746 0.5 28.4507 0.5 28.1746V26.1905ZM0.5 31.1507C0.5 30.8746 0.723854 30.6507 1 30.6507C1.27615 30.6507 1.5 30.8746 1.5 31.1507V33.1348C1.5 33.4109 1.27615 33.6348 1 33.6348C0.723854 33.6348 0.5 33.4109 0.5 33.1348V31.1507ZM0.5 36.1109C0.5 35.8348 0.723854 35.6109 1 35.6109C1.27615 35.6109 1.5 35.8348 1.5 36.1109V38.095C1.5 38.3712 1.27615 38.595 1 38.595C0.723854 38.595 0.5 38.3712 0.5 38.095V36.1109ZM0.5 41.0712C0.5 40.795 0.723854 40.5712 1 40.5712C1.27615 40.5712 1.5 40.795 1.5 41.0712V43.0553C1.5 43.3314 1.27615 43.5553 1 43.5553C0.723854 43.5553 0.5 43.3314 0.5 43.0553V41.0712ZM0.5 46.0314C0.5 45.7553 0.723854 45.5314 1 45.5314C1.27615 45.5314 1.5 45.7553 1.5 46.0314V48.0155C1.5 48.2917 1.27615 48.5155 1 48.5155C0.723854 48.5155 0.5 48.2917 0.5 48.0155V46.0314ZM0.5 50.9917C0.5 50.7155 0.723854 50.4917 1 50.4917C1.27615 50.4917 1.5 50.7155 1.5 50.9917V52.9757C1.5 53.2519 1.27615 53.4757 1 53.4757C0.723854 53.4757 0.5 53.2519 0.5 52.9757V50.9917ZM0.5 55.9519C0.5 55.6757 0.723854 55.4519 1 55.4519C1.27615 55.4519 1.5 55.6757 1.5 55.9519V56.9439C1.5 57.2201 1.27615 57.4439 1 57.4439C0.723854 57.4439 0.5 57.2201 0.5 56.9439V55.9519Z" fill="#DFE5F0"/>
<path opacity="0.06" d="M79.1234 46.5145H87V57.3954H1.02689V3.52344L11.3126 20.9156C13.6738 24.9081 18.6049 26.5663 22.8986 24.8115C26.7569 23.2347 31.193 24.4019 33.7755 27.6735L37.3679 32.2242C40.6788 36.4182 46.9189 36.7546 50.6614 32.9407C54.5712 28.9563 61.1455 29.5307 64.3051 34.1327L69.2307 41.3067C71.4689 44.5665 75.1693 46.5145 79.1234 46.5145Z" fill="#6672E8"/>
<path d="M87 46.5145H79.1234C75.1693 46.5145 71.4689 44.5665 69.2307 41.3067L64.3051 34.1327C61.1455 29.5307 54.5712 28.9563 50.6614 32.9407V32.9407C46.9189 36.7546 40.6788 36.4182 37.3679 32.2242L33.7755 27.6735C31.193 24.402 26.7569 23.2347 22.8986 24.8115V24.8115C18.6049 26.5663 13.6738 24.9082 11.3126 20.9156L1.02689 3.52344" stroke="#6672E8" stroke-width="2" stroke-linecap="round"/>
</svg>
