<svg width="88" height="88" viewBox="0 0 88 88" fill="none" xmlns="http://www.w3.org/2000/svg">
<circle opacity="0.15" cx="44" cy="44" r="43.5" stroke="#8C95F8"/>
<circle opacity="0.3" r="34.5714" transform="matrix(-1 0 0 1 43.9999 44.0001)" fill="#AFB4FA"/>
<path d="M43.9999 9.42871C50.1187 9.42871 56.1278 11.0527 61.4137 14.1347C66.6996 17.2168 71.0728 21.6466 74.0866 26.9716C77.1005 32.2967 78.6471 38.3263 78.5684 44.4446C78.4898 50.5628 76.7887 56.5506 73.6389 61.7965C70.4892 67.0423 66.0035 71.3582 60.6402 74.3033C55.2768 77.2485 49.2279 78.7174 43.1111 78.5601C36.9943 78.4028 31.0289 76.6249 25.824 73.408C20.6191 70.191 16.3612 65.6503 13.4853 60.2495L43.9999 44.0001V9.42871Z" fill="#6672E8"/>
<circle opacity="0.25" r="34.5714" transform="matrix(-1 0 0 1 43.9999 44.0001)" fill="url(#paint0_linear)"/>
<defs>
<linearGradient id="paint0_linear" x1="7.32101" y1="12.6084" x2="54.0941" y2="61.8218" gradientUnits="userSpaceOnUse">
<stop stop-color="white"/>
<stop offset="1" stop-color="white" stop-opacity="0"/>
</linearGradient>
</defs>
</svg>
