<svg width="37" height="36" viewBox="0 0 37 36" fill="none" xmlns="http://www.w3.org/2000/svg">
<circle cx="18.5" cy="18" r="18" fill="#8C95F8"/>
<circle cx="18.5" cy="18" r="17.5" stroke="#001542" stroke-opacity="0.1"/>
<path d="M14.4239 19.2475L18.1328 17.7238L14.4239 16.7475L14.3828 11.6513C14.3828 11.597 14.397 11.5436 14.4239 11.4965C14.4508 11.4493 14.4896 11.41 14.5363 11.3823C14.583 11.3547 14.6362 11.3397 14.6905 11.3389C14.7448 11.3381 14.7984 11.3514 14.8459 11.3776L26.3847 17.7238C26.4337 17.7508 26.4745 17.7904 26.503 17.8386C26.5315 17.8867 26.5465 17.9416 26.5465 17.9976C26.5465 18.0535 26.5315 18.1084 26.503 18.1566C26.4745 18.2047 26.4337 18.2443 26.3847 18.2713L14.8459 24.6176C14.7984 24.6437 14.7448 24.6571 14.6905 24.6562C14.6362 24.6554 14.583 24.6404 14.5363 24.6128C14.4896 24.5851 14.4508 24.5458 14.4239 24.4986C14.397 24.4515 14.3828 24.3981 14.3828 24.3438L14.4239 19.2475Z" fill="white"/>
</svg>
