<svg width="16" height="16" viewBox="0 0 16 16" fill="none" xmlns="http://www.w3.org/2000/svg">
<path d="M8.00016 14.6668C4.31816 14.6668 1.3335 11.6822 1.3335 8.00016C1.3335 4.31816 4.31816 1.3335 8.00016 1.3335C11.6822 1.3335 14.6668 4.31816 14.6668 8.00016C14.6668 11.6822 11.6822 14.6668 8.00016 14.6668ZM8.00016 13.3335C9.41465 13.3335 10.7712 12.7716 11.7714 11.7714C12.7716 10.7712 13.3335 9.41465 13.3335 8.00016C13.3335 6.58567 12.7716 5.22912 11.7714 4.22893C10.7712 3.22873 9.41465 2.66683 8.00016 2.66683C6.58567 2.66683 5.22912 3.22873 4.22893 4.22893C3.22873 5.22912 2.66683 6.58567 2.66683 8.00016C2.66683 9.41465 3.22873 10.7712 4.22893 11.7714C5.22912 12.7716 6.58567 13.3335 8.00016 13.3335ZM8.00016 12.0002V4.00016C9.06103 4.00016 10.0784 4.42159 10.8286 5.17174C11.5787 5.92188 12.0002 6.9393 12.0002 8.00016C12.0002 9.06103 11.5787 10.0784 10.8286 10.8286C10.0784 11.5787 9.06103 12.0002 8.00016 12.0002Z" fill="#97A4BD"/>
</svg>
