<svg width="126" height="82" viewBox="0 0 126 82" fill="none" xmlns="http://www.w3.org/2000/svg">
<g filter="url(#filter0_d)">
<path d="M117 0H9C5.68629 0 3 2.68629 3 6V70C3 73.3137 5.68629 76 9 76H117C120.314 76 123 73.3137 123 70V6C123 2.68629 120.314 0 117 0Z" fill="white"/>
</g>
<g filter="url(#filter1_d)">
<path d="M63 54C54.1632 54 47 46.837 47 38C47 29.163 54.1632 22 63 22C71.837 22 79 29.163 79 38C79 46.837 71.837 54 63 54Z" fill="#8C95F8"/>
<g filter="url(#filter2_d)">
<path d="M60.5595 33.001C60.6558 33.005 60.7491 33.036 60.8293 33.09H60.828L67.335 37.426C67.408 37.474 67.468 37.54 67.509 37.618C67.551 37.695 67.573 37.782 67.573 37.87C67.573 37.958 67.551 38.044 67.509 38.122C67.468 38.199 67.408 38.265 67.335 38.314L60.8293 42.65C60.7491 42.703 60.6558 42.734 60.5595 42.739C60.4631 42.743 60.3673 42.722 60.2822 42.677C60.1971 42.631 60.1259 42.563 60.0762 42.481C60.0265 42.398 60.0002 42.303 60 42.207V33.532C60.0002 33.436 60.0265 33.341 60.0762 33.259C60.1259 33.176 60.1971 33.108 60.2822 33.063C60.3673 33.017 60.4631 32.996 60.5595 33.001Z" fill="white"/>
</g>
</g>
<path d="M123 13H3V14H123V13Z" fill="#EFF3FC"/>
<path d="M11.5 8C12.3284 8 13 7.32843 13 6.5C13 5.67157 12.3284 5 11.5 5C10.6716 5 10 5.67157 10 6.5C10 7.32843 10.6716 8 11.5 8Z" fill="#EB5757"/>
<path d="M17.5 8C18.3284 8 19 7.32843 19 6.5C19 5.67157 18.3284 5 17.5 5C16.6716 5 16 5.67157 16 6.5C16 7.32843 16.6716 8 17.5 8Z" fill="#F2C94C"/>
<path d="M23.5 8C24.3284 8 25 7.32843 25 6.5C25 5.67157 24.3284 5 23.5 5C22.6716 5 22 5.67157 22 6.5C22 7.32843 22.6716 8 23.5 8Z" fill="#6FCF97"/>
<defs>
<filter id="filter0_d" x="0" y="0" width="126" height="82" filterUnits="userSpaceOnUse" color-interpolation-filters="sRGB">
<feFlood flood-opacity="0" result="BackgroundImageFix"/>
<feColorMatrix in="SourceAlpha" type="matrix" values="0 0 0 0 0 0 0 0 0 0 0 0 0 0 0 0 0 0 127 0"/>
<feOffset dy="3"/>
<feGaussianBlur stdDeviation="1.5"/>
<feColorMatrix type="matrix" values="0 0 0 0 0 0 0 0 0 0.0368333 0 0 0 0 0.108333 0 0 0 0.1 0"/>
<feBlend mode="normal" in2="BackgroundImageFix" result="effect1_dropShadow"/>
<feBlend mode="normal" in="SourceGraphic" in2="effect1_dropShadow" result="shape"/>
</filter>
<filter id="filter1_d" x="46" y="22" width="34" height="35" filterUnits="userSpaceOnUse" color-interpolation-filters="sRGB">
<feFlood flood-opacity="0" result="BackgroundImageFix"/>
<feColorMatrix in="SourceAlpha" type="matrix" values="0 0 0 0 0 0 0 0 0 0 0 0 0 0 0 0 0 0 127 0"/>
<feOffset dy="2"/>
<feGaussianBlur stdDeviation="0.5"/>
<feColorMatrix type="matrix" values="0 0 0 0 0 0 0 0 0 0.14154 0 0 0 0 0.395833 0 0 0 0.05 0"/>
<feBlend mode="normal" in2="BackgroundImageFix" result="effect1_dropShadow"/>
<feBlend mode="normal" in="SourceGraphic" in2="effect1_dropShadow" result="shape"/>
</filter>
<filter id="filter2_d" x="59" y="33.0003" width="9.573" height="11.7392" filterUnits="userSpaceOnUse" color-interpolation-filters="sRGB">
<feFlood flood-opacity="0" result="BackgroundImageFix"/>
<feColorMatrix in="SourceAlpha" type="matrix" values="0 0 0 0 0 0 0 0 0 0 0 0 0 0 0 0 0 0 127 0"/>
<feOffset dy="1"/>
<feGaussianBlur stdDeviation="0.5"/>
<feColorMatrix type="matrix" values="0 0 0 0 0 0 0 0 0 0.0311667 0 0 0 0 0.0916667 0 0 0 0.1 0"/>
<feBlend mode="normal" in2="BackgroundImageFix" result="effect1_dropShadow"/>
<feBlend mode="normal" in="SourceGraphic" in2="effect1_dropShadow" result="shape"/>
</filter>
</defs>
</svg>
