<svg width="26" height="26" viewBox="0 0 26 26" fill="none" xmlns="http://www.w3.org/2000/svg">
<rect opacity="0.5" x="0.615234" y="0.192383" width="25.3844" height="25" rx="12.5" fill="#818AE6"/>
<path d="M17.797 12.7757C17.797 13.1924 17.4585 13.5257 17.0355 13.5257H13.9893V16.3591C13.9893 16.7757 13.6509 17.1091 13.2278 17.1091C12.8047 17.1091 12.4663 16.7757 12.4663 16.3591V13.5257H9.58935C9.16628 13.5257 8.82782 13.1924 8.82782 12.7757C8.82782 12.3591 9.16628 12.0257 9.58935 12.0257H12.4663V9.02573C12.4663 8.60906 12.8047 8.27573 13.2278 8.27573C13.6509 8.27573 13.9893 8.60906 13.9893 9.02573V12.0257H17.0355C17.4585 12.0257 17.797 12.3591 17.797 12.7757Z" fill="white"/>
</svg>
