<svg width="133" height="133" viewBox="0 0 133 133" fill="none" xmlns="http://www.w3.org/2000/svg">
<circle cx="66" cy="67" r="65" stroke="#E8EEF9" stroke-width="2"/>
<path d="M131 64C131 55.858 129.396 47.7958 126.281 40.2736C123.165 32.7514 118.598 25.9166 112.841 20.1594C107.083 14.4021 100.249 9.83526 92.7264 6.71947C85.2042 3.60368 77.142 2 69 2" stroke="#8C95F8" stroke-width="3" stroke-linecap="round"/>
<path d="M58.32 60.2C56.6 60.2 55.34 59.7 54.54 58.7C53.7533 57.6867 53.3333 56.3667 53.28 54.74L53.26 53.02L53.28 51.24C53.32 49.6267 53.74 48.32 54.54 47.32C55.3533 46.3067 56.6133 45.8 58.32 45.8C60.04 45.8 61.3 46.3067 62.1 47.32C62.9133 48.32 63.34 49.6267 63.38 51.24C63.3933 51.6133 63.4 52.2067 63.4 53.02C63.4 53.8067 63.3933 54.38 63.38 54.74C63.3267 56.3667 62.9 57.6867 62.1 58.7C61.3133 59.7 60.0533 60.2 58.32 60.2ZM58.32 58.54C59.3467 58.54 60.12 58.2 60.64 57.52C61.16 56.84 61.4333 55.88 61.46 54.64C61.4733 54.2533 61.48 53.7 61.48 52.98C61.48 52.2467 61.4733 51.7 61.46 51.34C61.4333 50.1133 61.1533 49.16 60.62 48.48C60.1 47.7867 59.3333 47.44 58.32 47.44C57.3067 47.44 56.54 47.7867 56.02 48.48C55.5 49.16 55.2267 50.1133 55.2 51.34L55.18 52.98L55.2 54.64C55.2267 55.88 55.5 56.84 56.02 57.52C56.54 58.2 57.3067 58.54 58.32 58.54ZM68.5163 53.02C67.6496 53.02 66.9629 52.7933 66.4563 52.34C65.9629 51.8733 65.6963 51.2333 65.6563 50.42C65.6429 50.1933 65.6363 49.9 65.6363 49.54C65.6363 49.1533 65.6429 48.84 65.6563 48.6C65.6963 47.7733 65.9563 47.12 66.4363 46.64C66.9163 46.1467 67.6096 45.9 68.5163 45.9C69.4229 45.9 70.1163 46.1467 70.5963 46.64C71.0896 47.12 71.3563 47.7733 71.3963 48.6C71.4229 49.08 71.4363 49.3933 71.4363 49.54C71.4363 49.6733 71.4229 49.9667 71.3963 50.42C71.3563 51.2333 71.0829 51.8733 70.5763 52.34C70.0696 52.7933 69.3829 53.02 68.5163 53.02ZM66.8363 60C66.7163 60 66.6163 59.9667 66.5363 59.9C66.4563 59.82 66.4163 59.72 66.4163 59.6C66.4163 59.52 66.4429 59.4467 66.4963 59.38L76.3763 46.38C76.4829 46.2333 76.5763 46.1333 76.6563 46.08C76.7496 46.0267 76.8763 46 77.0363 46H77.6763C77.7963 46 77.8896 46.04 77.9563 46.12C78.0363 46.1867 78.0763 46.28 78.0763 46.4C78.0763 46.48 78.0496 46.5533 77.9963 46.62L68.1363 59.62C68.0296 59.7533 67.9296 59.8533 67.8363 59.92C67.7563 59.9733 67.6363 60 67.4763 60H66.8363ZM68.5163 51.8C68.9963 51.8 69.3496 51.66 69.5763 51.38C69.8029 51.1 69.9363 50.7533 69.9763 50.34C70.0029 49.86 70.0163 49.58 70.0163 49.5C70.0163 49.38 70.0029 49.1067 69.9763 48.68C69.9496 48.2667 69.8163 47.92 69.5763 47.64C69.3496 47.3467 68.9963 47.2 68.5163 47.2C68.0363 47.2 67.6829 47.3467 67.4563 47.64C67.2296 47.92 67.1029 48.2667 67.0763 48.68C67.0629 48.8933 67.0563 49.1667 67.0563 49.5C67.0563 49.82 67.0629 50.1 67.0763 50.34C67.1163 50.74 67.2429 51.0867 67.4563 51.38C67.6829 51.66 68.0363 51.8 68.5163 51.8ZM75.9562 60.12C75.0896 60.12 74.4029 59.8733 73.8963 59.38C73.4029 58.8867 73.1363 58.2333 73.0963 57.42C73.0696 57.02 73.0563 56.7533 73.0563 56.62C73.0563 56.4867 73.0696 56.1533 73.0963 55.62C73.1363 54.7933 73.3963 54.14 73.8763 53.66C74.3563 53.1667 75.0496 52.92 75.9562 52.92C76.8629 52.92 77.5563 53.1667 78.0363 53.66C78.5296 54.14 78.7963 54.7933 78.8363 55.62C78.8629 56.1 78.8763 56.4067 78.8763 56.54C78.8763 56.6733 78.8629 56.9667 78.8363 57.42C78.7963 58.2333 78.5229 58.8867 78.0163 59.38C77.5096 59.8733 76.8229 60.12 75.9562 60.12ZM75.9562 58.82C76.4363 58.82 76.7896 58.68 77.0163 58.4C77.2429 58.12 77.3763 57.7733 77.4163 57.36C77.4429 56.88 77.4563 56.5933 77.4563 56.5C77.4563 56.3933 77.4429 56.1267 77.4163 55.7C77.3896 55.2867 77.2563 54.94 77.0163 54.66C76.7896 54.3667 76.4363 54.22 75.9562 54.22C75.4763 54.22 75.1229 54.3667 74.8963 54.66C74.6696 54.94 74.5429 55.2867 74.5163 55.7C74.5029 55.9133 74.4963 56.18 74.4963 56.5C74.4963 56.8333 74.5029 57.12 74.5163 57.36C74.5429 57.76 74.6696 58.1067 74.8963 58.4C75.1229 58.68 75.4763 58.82 75.9562 58.82Z" fill="#151A25"/>
<path d="M33.056 84.12C31.992 84.12 31.18 83.832 30.62 83.256C30.068 82.672 29.772 81.876 29.732 80.868C29.724 80.652 29.72 80.3 29.72 79.812C29.72 79.316 29.724 78.956 29.732 78.732C29.772 77.724 30.068 76.932 30.62 76.356C31.18 75.772 31.992 75.48 33.056 75.48C33.768 75.48 34.372 75.608 34.868 75.864C35.364 76.112 35.736 76.44 35.984 76.848C36.24 77.256 36.38 77.692 36.404 78.156C36.404 78.228 36.376 78.288 36.32 78.336C36.272 78.376 36.212 78.396 36.14 78.396H35.54C35.46 78.396 35.396 78.376 35.348 78.336C35.3 78.296 35.264 78.228 35.24 78.132C35.104 77.516 34.856 77.084 34.496 76.836C34.144 76.588 33.664 76.464 33.056 76.464C31.664 76.464 30.94 77.24 30.884 78.792C30.876 79.008 30.872 79.34 30.872 79.788C30.872 80.236 30.876 80.576 30.884 80.808C30.94 82.352 31.664 83.124 33.056 83.124C33.656 83.124 34.136 83 34.496 82.752C34.856 82.504 35.104 82.076 35.24 81.468C35.264 81.372 35.3 81.304 35.348 81.264C35.396 81.224 35.46 81.204 35.54 81.204H36.14C36.212 81.204 36.272 81.228 36.32 81.276C36.376 81.316 36.404 81.372 36.404 81.444C36.38 81.908 36.24 82.344 35.984 82.752C35.736 83.16 35.364 83.492 34.868 83.748C34.372 83.996 33.768 84.12 33.056 84.12ZM41.5165 84.12C40.4765 84.12 39.6725 83.848 39.1045 83.304C38.5365 82.752 38.2365 81.924 38.2045 80.82C38.1965 80.58 38.1925 80.24 38.1925 79.8C38.1925 79.36 38.1965 79.024 38.2045 78.792C38.2365 77.704 38.5445 76.88 39.1285 76.32C39.7205 75.76 40.5165 75.48 41.5165 75.48C42.5165 75.48 43.3085 75.76 43.8925 76.32C44.4765 76.88 44.7845 77.704 44.8165 78.792C44.8325 79.256 44.8405 79.592 44.8405 79.8C44.8405 80 44.8325 80.34 44.8165 80.82C44.7845 81.924 44.4845 82.752 43.9165 83.304C43.3565 83.848 42.5565 84.12 41.5165 84.12ZM41.5165 83.124C42.1565 83.124 42.6685 82.932 43.0525 82.548C43.4365 82.156 43.6445 81.56 43.6765 80.76C43.6925 80.28 43.7005 79.96 43.7005 79.8C43.7005 79.624 43.6925 79.304 43.6765 78.84C43.6445 78.04 43.4365 77.444 43.0525 77.052C42.6685 76.66 42.1565 76.464 41.5165 76.464C40.8765 76.464 40.3605 76.66 39.9685 77.052C39.5845 77.444 39.3805 78.04 39.3565 78.84C39.3485 79.072 39.3445 79.392 39.3445 79.8C39.3445 80.2 39.3485 80.52 39.3565 80.76C39.3805 81.56 39.5845 82.156 39.9685 82.548C40.3525 82.932 40.8685 83.124 41.5165 83.124ZM47.3701 84C47.2901 84 47.2221 83.976 47.1661 83.928C47.1181 83.872 47.0941 83.804 47.0941 83.724V75.888C47.0941 75.8 47.1181 75.732 47.1661 75.684C47.2141 75.628 47.2821 75.6 47.3701 75.6H47.9341C48.0781 75.6 48.1781 75.66 48.2341 75.78L50.7901 80.688L53.3701 75.78C53.4341 75.66 53.5301 75.6 53.6581 75.6H54.2221C54.3101 75.6 54.3781 75.628 54.4261 75.684C54.4741 75.732 54.4981 75.8 54.4981 75.888V83.724C54.4981 83.804 54.4701 83.872 54.4141 83.928C54.3661 83.976 54.3021 84 54.2221 84H53.6701C53.5901 84 53.5261 83.976 53.4781 83.928C53.4301 83.872 53.4061 83.804 53.4061 83.724V77.76L51.3541 81.732C51.2741 81.9 51.1461 81.984 50.9701 81.984H50.6101C50.4421 81.984 50.3141 81.9 50.2261 81.732L48.1861 77.76V83.724C48.1861 83.804 48.1581 83.872 48.1021 83.928C48.0541 83.976 47.9901 84 47.9101 84H47.3701ZM57.3538 84C57.2738 84 57.2098 83.976 57.1618 83.928C57.1138 83.872 57.0898 83.804 57.0898 83.724V75.888C57.0898 75.8 57.1138 75.732 57.1618 75.684C57.2098 75.628 57.2738 75.6 57.3538 75.6H60.3898C61.2938 75.6 62.0018 75.82 62.5138 76.26C63.0338 76.692 63.2938 77.324 63.2938 78.156C63.2938 78.988 63.0338 79.62 62.5138 80.052C62.0018 80.484 61.2938 80.7 60.3898 80.7H58.2298V83.724C58.2298 83.804 58.2018 83.872 58.1458 83.928C58.0978 83.976 58.0338 84 57.9538 84H57.3538ZM60.3298 79.728C61.5378 79.728 62.1418 79.204 62.1418 78.156C62.1418 77.644 61.9898 77.252 61.6858 76.98C61.3898 76.708 60.9378 76.572 60.3298 76.572H58.2298V79.728H60.3298ZM65.5212 84C65.4412 84 65.3772 83.976 65.3292 83.928C65.2812 83.872 65.2572 83.804 65.2572 83.724V75.876C65.2572 75.796 65.2812 75.732 65.3292 75.684C65.3772 75.628 65.4412 75.6 65.5212 75.6H66.1212C66.2012 75.6 66.2652 75.628 66.3132 75.684C66.3612 75.732 66.3852 75.796 66.3852 75.876V82.992H70.3932C70.4812 82.992 70.5492 83.02 70.5972 83.076C70.6532 83.124 70.6812 83.188 70.6812 83.268V83.724C70.6812 83.804 70.6532 83.872 70.5972 83.928C70.5412 83.976 70.4732 84 70.3932 84H65.5212ZM72.7278 84C72.6478 84 72.5838 83.976 72.5358 83.928C72.4878 83.872 72.4638 83.804 72.4638 83.724V75.888C72.4638 75.8 72.4878 75.732 72.5358 75.684C72.5838 75.628 72.6478 75.6 72.7278 75.6H77.6598C77.7478 75.6 77.8158 75.628 77.8638 75.684C77.9198 75.732 77.9478 75.8 77.9478 75.888V76.32C77.9478 76.4 77.9198 76.464 77.8638 76.512C77.8158 76.56 77.7478 76.584 77.6598 76.584H73.5678V79.26H77.3958C77.4838 79.26 77.5518 79.288 77.5998 79.344C77.6558 79.392 77.6838 79.46 77.6838 79.548V79.956C77.6838 80.036 77.6558 80.104 77.5998 80.16C77.5518 80.208 77.4838 80.232 77.3958 80.232H73.5678V83.004H77.7558C77.8438 83.004 77.9118 83.032 77.9598 83.088C78.0158 83.136 78.0438 83.204 78.0438 83.292V83.724C78.0438 83.804 78.0158 83.872 77.9598 83.928C77.9038 83.976 77.8358 84 77.7558 84H72.7278ZM82.3214 84C82.2414 84 82.1734 83.976 82.1174 83.928C82.0694 83.872 82.0454 83.804 82.0454 83.724V76.632H79.7294C79.6494 76.632 79.5814 76.608 79.5254 76.56C79.4774 76.504 79.4534 76.436 79.4534 76.356V75.888C79.4534 75.8 79.4774 75.732 79.5254 75.684C79.5814 75.628 79.6494 75.6 79.7294 75.6H85.4894C85.5774 75.6 85.6454 75.628 85.6934 75.684C85.7414 75.732 85.7654 75.8 85.7654 75.888V76.356C85.7654 76.436 85.7374 76.504 85.6814 76.56C85.6334 76.608 85.5694 76.632 85.4894 76.632H83.1854V83.724C83.1854 83.804 83.1574 83.872 83.1014 83.928C83.0454 83.976 82.9774 84 82.8974 84H82.3214ZM87.8792 84C87.7992 84 87.7352 83.976 87.6872 83.928C87.6392 83.872 87.6152 83.804 87.6152 83.724V75.888C87.6152 75.8 87.6392 75.732 87.6872 75.684C87.7352 75.628 87.7992 75.6 87.8792 75.6H92.8112C92.8992 75.6 92.9672 75.628 93.0152 75.684C93.0712 75.732 93.0992 75.8 93.0992 75.888V76.32C93.0992 76.4 93.0712 76.464 93.0152 76.512C92.9672 76.56 92.8992 76.584 92.8112 76.584H88.7192V79.26H92.5472C92.6352 79.26 92.7032 79.288 92.7512 79.344C92.8072 79.392 92.8352 79.46 92.8352 79.548V79.956C92.8352 80.036 92.8072 80.104 92.7512 80.16C92.7032 80.208 92.6352 80.232 92.5472 80.232H88.7192V83.004H92.9072C92.9952 83.004 93.0632 83.032 93.1112 83.088C93.1672 83.136 93.1952 83.204 93.1952 83.292V83.724C93.1952 83.804 93.1672 83.872 93.1112 83.928C93.0552 83.976 92.9872 84 92.9072 84H87.8792ZM95.6248 84C95.5448 84 95.4808 83.976 95.4328 83.928C95.3848 83.872 95.3608 83.804 95.3608 83.724V75.888C95.3608 75.8 95.3848 75.732 95.4328 75.684C95.4808 75.628 95.5448 75.6 95.6248 75.6H98.3368C99.5448 75.6 100.417 75.872 100.953 76.416C101.489 76.952 101.765 77.764 101.781 78.852C101.789 79.084 101.793 79.396 101.793 79.788C101.793 80.18 101.789 80.496 101.781 80.736C101.765 81.496 101.641 82.116 101.409 82.596C101.185 83.068 100.829 83.42 100.341 83.652C99.8528 83.884 99.2048 84 98.3968 84H95.6248ZM98.3368 83.004C98.8968 83.004 99.3408 82.928 99.6688 82.776C100.005 82.616 100.245 82.372 100.389 82.044C100.541 81.708 100.625 81.256 100.641 80.688C100.657 80.208 100.665 79.908 100.665 79.788C100.665 79.66 100.657 79.364 100.641 78.9C100.625 78.1 100.433 77.516 100.065 77.148C99.7048 76.772 99.1088 76.584 98.2768 76.584H96.4888V83.004H98.3368Z" fill="#7B89A6"/>
</svg>
