<svg width="58" height="58" viewBox="0 0 58 58" fill="none" xmlns="http://www.w3.org/2000/svg">
<path d="M28.7652 57.53C44.6517 57.53 57.5302 44.6515 57.5302 28.765C57.5302 12.8785 44.6517 0 28.7652 0C12.8788 0 0.000244141 12.8785 0.000244141 28.765C0.000244141 44.6515 12.8788 57.53 28.7652 57.53Z" fill="#7ECD99"/>
<path opacity="0.8" d="M38.564 33.0923L38.5648 33.0909C38.7521 32.7781 39.0488 32.613 39.2812 32.5303C39.5226 32.4444 39.7873 32.4128 40.0311 32.4347C40.243 32.4538 40.5987 32.5289 40.8511 32.8201C40.994 32.9852 41.0841 33.2012 41.0848 33.4434C41.0854 33.6703 41.0078 33.8639 40.9195 34.0111C40.9192 34.0116 40.9189 34.012 40.9186 34.0125L40.276 33.6258L38.564 33.0923ZM38.564 33.0923C36.453 36.6344 32.6234 38.838 28.4996 38.7303L28.4995 38.7303M38.564 33.0923L28.4995 38.7303M28.4995 38.7303C24.5219 38.627 20.9478 36.3982 18.8834 32.9979L28.4995 38.7303Z" fill="white" stroke="white" stroke-width="1.5"/>
<path opacity="0.8" d="M15.3817 26.6134C16.5585 26.6134 17.5124 25.6594 17.5124 24.4826C17.5124 23.3059 16.5585 22.3519 15.3817 22.3519C14.2049 22.3519 13.251 23.3059 13.251 24.4826C13.251 25.6594 14.2049 26.6134 15.3817 26.6134Z" fill="white" stroke="white" stroke-width="1.5"/>
<path opacity="0.8" d="M41.3116 26.6132C42.4883 26.6132 43.4423 25.6592 43.4423 24.4825C43.4423 23.3057 42.4883 22.3518 41.3116 22.3518C40.1348 22.3518 39.1808 23.3057 39.1808 24.4825C39.1808 25.6592 40.1348 26.6132 41.3116 26.6132Z" fill="white" stroke="white" stroke-width="1.5"/>
</svg>
