<svg width="20" height="20" viewBox="0 0 20 20" fill="none" xmlns="http://www.w3.org/2000/svg">
<rect opacity="0.15" width="20" height="20" rx="10" fill="white"/>
<path d="M14.1668 10.0787C14.1668 10.4717 13.8524 10.7862 13.4593 10.7862H10.6291V13.4592C10.6291 13.8522 10.3146 14.1667 9.92155 14.1667C9.52846 14.1667 9.214 13.8522 9.214 13.4592V10.7862H6.54104C6.14796 10.7862 5.8335 10.4717 5.8335 10.0787C5.8335 9.68558 6.14796 9.37111 6.54104 9.37111H9.214V6.54092C9.214 6.14784 9.52846 5.83337 9.92155 5.83337C10.3146 5.83337 10.6291 6.14784 10.6291 6.54092V9.37111H13.4593C13.8524 9.37111 14.1668 9.68558 14.1668 10.0787Z" fill="white"/>
</svg>
