<svg width="250" height="250" viewBox="0 0 250 250" fill="none" xmlns="http://www.w3.org/2000/svg">
<path d="M250 0H0V250H250V0Z" fill="white"/>
<path d="M216.708 207.932C216.551 208.135 215.448 208.339 213.085 208.577C196.562 210.225 177.027 209.715 160.032 209.715C128.11 209.732 96.1681 209.375 64.2657 209.375C44.3562 209.036 21.1777 208.152 40.91 206.963C63.3401 205.605 87.6608 205.808 110.347 205.639C130.906 205.486 151.466 205.605 172.005 205.961C175.491 206.012 217.535 206.81 216.708 207.932Z" fill="#E8EEF9"/>
<path d="M203.799 163.02L142.416 149.734C139.934 149.192 138.349 146.73 138.891 144.269L156.536 62.7806C157.079 60.2986 159.54 58.7135 162.001 59.2558L223.383 72.5418C225.865 73.084 227.451 75.5452 226.908 78.0063L209.284 159.495C208.742 161.977 206.281 163.562 203.799 163.02Z" fill="#E5E5E5"/>
<path d="M204.633 164.897L143.251 151.611C140.769 151.069 139.183 148.607 139.726 146.146L157.371 64.6576C157.913 62.1756 160.374 60.5905 162.835 61.1327L224.218 74.4187C226.7 74.961 228.285 77.4221 227.743 79.8833L210.118 161.372C209.576 163.854 207.115 165.439 204.633 164.897Z" fill="white"/>
<path d="M204.925 164.584C202.047 163.959 199.189 163.333 196.311 162.728C189.804 161.31 183.296 159.912 176.789 158.494C169.927 157.013 163.065 155.532 156.203 154.031C152.177 153.155 148.152 152.279 144.127 151.424C143.793 151.361 143.459 151.299 143.146 151.194C140.977 150.506 139.851 148.253 140.268 146.084C140.414 145.333 140.581 144.603 140.748 143.873C141.686 139.535 142.625 135.197 143.563 130.859C145.003 124.226 146.442 117.593 147.881 110.961C149.424 103.828 150.968 96.6946 152.511 89.5615C153.763 83.8258 154.993 78.0901 156.245 72.3335C156.787 69.789 157.266 67.2027 157.913 64.6581C158.434 62.5098 160.353 61.0707 162.585 61.467C162.814 61.5087 163.044 61.5713 163.252 61.613C164.775 61.9467 166.318 62.2804 167.841 62.6141C173.764 63.8864 179.688 65.1795 185.59 66.4518C192.661 67.9744 199.732 69.5178 206.781 71.0404C211.787 72.125 216.814 73.2095 221.819 74.2941C222.737 74.5027 223.759 74.6069 224.635 74.9615C226.658 75.7541 227.638 77.9024 227.242 79.9881C227.2 80.2384 227.138 80.4678 227.096 80.6972C226.324 84.2221 225.574 87.7261 224.802 91.2509C223.446 97.5289 222.09 103.807 220.714 110.106C219.17 117.26 217.606 124.414 216.063 131.568C214.707 137.804 213.372 144.04 212.016 150.256C211.266 153.739 210.515 157.243 209.743 160.726C209.701 160.955 209.66 161.164 209.597 161.393C209.055 163.604 207.073 164.981 204.8 164.564C204.32 164.48 203.778 165.127 204.445 165.252C207.407 165.794 210.035 163.917 210.661 161.039C210.911 159.954 211.14 158.849 211.37 157.764C212.434 152.8 213.518 147.857 214.582 142.893C216.104 135.864 217.627 128.856 219.15 121.827C220.693 114.736 222.216 107.624 223.759 100.532C224.906 95.2346 226.053 89.9369 227.2 84.6601C227.868 81.5941 229.474 77.6104 226.637 75.1701C225.532 74.2315 224.176 74.0438 222.8 73.7309C220.839 73.3138 218.858 72.8758 216.897 72.4587C210.39 71.0404 203.882 69.643 197.375 68.2247C190.346 66.7021 183.317 65.1795 176.288 63.657C172.096 62.7601 167.904 61.8424 163.711 60.9455C161.229 60.4033 158.622 61.029 157.329 63.4275C156.87 64.2827 156.724 65.3047 156.516 66.2641C155.619 70.4147 154.722 74.5444 153.825 78.6949C152.386 85.3901 150.926 92.0852 149.487 98.7595C147.902 106.039 146.337 113.318 144.752 120.618C143.48 126.52 142.208 132.423 140.915 138.325C140.351 140.953 139.705 143.561 139.204 146.189C138.662 149.025 140.497 151.424 143.209 152.029C144.523 152.321 145.837 152.592 147.151 152.884C152.991 154.156 158.831 155.407 164.671 156.68C171.908 158.244 179.166 159.808 186.404 161.393C191.597 162.52 196.791 163.646 201.984 164.772C202.756 164.939 203.548 165.106 204.32 165.273C204.758 165.314 205.53 164.71 204.925 164.584Z" fill="#56627F"/>
<path d="M159.833 137.241C163.817 138.096 167.821 138.972 171.805 139.827C178.125 141.204 184.444 142.559 190.785 143.936C192.245 144.249 193.705 144.562 195.165 144.895C195.52 144.979 196.354 144.436 195.77 144.29C191.786 143.435 187.782 142.559 183.798 141.704C177.478 140.328 171.159 138.972 164.818 137.595C163.358 137.282 161.898 136.97 160.438 136.636C160.083 136.573 159.249 137.116 159.833 137.241Z" fill="#56627F"/>
<path d="M159.207 140.244C163.191 141.099 167.196 141.975 171.179 142.83C177.499 144.207 183.819 145.563 190.159 146.939C191.619 147.252 193.079 147.565 194.539 147.899C194.957 147.982 195.728 147.377 195.123 147.252C191.14 146.397 187.135 145.521 183.151 144.666C176.832 143.289 170.512 141.934 164.171 140.557C162.711 140.244 161.251 139.931 159.791 139.598C159.374 139.493 158.603 140.119 159.207 140.244Z" fill="#56627F"/>
<path d="M158.477 143.561C163.65 144.687 168.843 145.813 174.016 146.919C174.412 147.002 175.205 146.418 174.6 146.272C169.427 145.146 164.234 144.02 159.061 142.914C158.665 142.831 157.873 143.436 158.477 143.561Z" fill="#56627F"/>
<path d="M84.4956 71.3742V146.23C84.4956 148.045 85.9765 149.526 87.791 149.526H155.034C156.849 149.526 158.33 148.045 158.33 146.23V134.571L158.267 128.147V57.0454C158.267 55.2309 156.786 53.75 154.972 53.75H102.078L84.4956 71.3742Z" fill="#E5E5E5"/>
<path d="M85.5386 73.0432V147.899C85.5386 149.714 87.0194 151.195 88.834 151.195H156.077C157.892 151.195 159.373 149.714 159.373 147.899V136.24L159.31 129.816V58.7144C159.31 56.8998 157.829 55.4189 156.015 55.4189H103.121L85.5386 73.0432Z" fill="white"/>
<path d="M156.077 151.528H88.855C86.8527 151.528 85.2258 149.901 85.2258 147.899V73.0429V73.0221C85.2258 72.9386 85.2675 72.8552 85.3301 72.7926L102.913 55.1892C102.975 55.1267 103.059 55.085 103.142 55.085H156.057C158.059 55.085 159.686 56.7118 159.686 58.7141V129.816L159.748 136.24V147.92C159.727 149.901 158.101 151.528 156.077 151.528ZM85.8724 73.1681V147.92C85.8724 149.547 87.2073 150.882 88.8341 150.882H156.077C157.704 150.882 159.039 149.547 159.039 147.92V136.261L158.977 129.837V58.7141C158.977 57.0872 157.642 55.7524 156.015 55.7524H103.246L85.8724 73.1681Z" fill="#56627F"/>
<path d="M99.6588 73.377H85.4968C85.3717 73.377 85.2465 73.2935 85.1839 73.1684C85.1422 73.0432 85.1631 72.8972 85.2465 72.8138L102.871 55.1896C102.975 55.0853 103.1 55.0644 103.225 55.127C103.35 55.1687 103.434 55.2939 103.434 55.4399V69.6018C103.455 71.6667 101.744 73.377 99.6588 73.377ZM86.2894 72.7095H99.6379C101.369 72.7095 102.766 71.3121 102.766 69.581V56.2324L86.2894 72.7095Z" fill="#56627F"/>
<path d="M109.796 130.838C114.03 130.838 118.243 130.838 122.477 130.838C129.173 130.838 135.868 130.838 142.563 130.838C144.106 130.838 145.671 130.838 147.214 130.838C147.631 130.838 148.278 130.212 147.589 130.212C143.355 130.212 139.142 130.212 134.908 130.212C128.213 130.212 121.518 130.212 114.823 130.212C113.279 130.212 111.715 130.212 110.172 130.212C109.775 130.233 109.129 130.838 109.796 130.838Z" fill="#56627F"/>
<path d="M109.796 133.945C114.03 133.945 118.243 133.945 122.477 133.945C129.172 133.945 135.868 133.945 142.563 133.945C144.106 133.945 145.67 133.945 147.214 133.945C147.589 133.945 148.278 133.403 147.61 133.403C143.376 133.403 139.163 133.403 134.929 133.403C128.234 133.403 121.539 133.403 114.844 133.403C113.3 133.403 111.736 133.403 110.193 133.403C109.817 133.382 109.108 133.945 109.796 133.945Z" fill="#56627F"/>
<path d="M109.796 137.491C115.282 137.491 120.767 137.491 126.253 137.491C126.649 137.491 127.316 136.886 126.628 136.886C121.143 136.886 115.657 136.886 110.172 136.886C109.775 136.886 109.129 137.491 109.796 137.491Z" fill="#56627F"/>
<path d="M142.355 114.795C151.592 105.558 151.592 90.5826 142.355 81.346C133.118 72.1094 118.143 72.1094 108.906 81.346C99.6698 90.5826 99.6698 105.558 108.906 114.795C118.143 124.031 133.118 124.031 142.355 114.795Z" fill="#AFB4FA"/>
<path d="M130.151 98.4463C132.55 96.8612 134.093 94.108 134.031 91.0421C133.926 86.2449 129.963 82.4281 125.166 82.5324C120.369 82.6366 116.552 86.5995 116.657 91.3966C116.719 94.4835 118.388 97.1532 120.828 98.6549C114.133 100.428 108.856 105.663 107 112.275C111.359 117.969 118.263 121.577 125.959 121.41C133.655 121.264 140.413 117.364 144.543 111.524C142.394 104.954 136.93 99.948 130.151 98.4463Z" fill="#E3E3E3"/>
<path d="M130.443 98.4046C132.696 96.9029 134.135 93.4823 134.114 92.2726C134.01 87.7466 130.839 84.1592 126.334 84.2426C121.808 84.3261 118.221 87.7883 118.304 92.3143C118.367 95.2135 119.931 97.7372 122.225 99.1346C115.927 100.803 110.462 107.686 108.71 113.901C112.798 119.241 119.827 121.514 127.085 121.368C134.343 121.222 140.684 117.572 144.563 112.066C142.54 105.913 136.804 99.8229 130.443 98.4046Z" fill="white"/>
<path d="M130.548 98.4884C133.176 96.6739 134.74 93.6705 134.511 90.4585C134.302 87.4759 132.529 84.7645 129.901 83.3462C124.666 80.5096 117.575 83.5756 116.323 89.4573C115.552 93.1282 117.199 96.8199 120.328 98.8222C120.474 98.697 120.599 98.551 120.745 98.4259C115.447 99.8859 110.859 103.348 108.189 108.166C107.522 109.355 106.854 110.69 106.562 112.025C106.437 112.63 106.896 112.922 107.292 113.401C107.793 113.985 108.335 114.548 108.898 115.091C111.026 117.135 113.529 118.762 116.24 119.867C121.663 122.099 127.836 122.182 133.364 120.242C136.054 119.304 138.599 117.865 140.789 116.029C141.873 115.132 142.874 114.131 143.771 113.047C144.105 112.65 144.877 111.962 145.002 111.441C145.106 111.024 144.564 110.064 144.376 109.647C141.852 103.828 136.617 99.6147 130.464 98.1756C130.193 98.113 129.296 98.5302 129.839 98.6553C134.928 99.8233 139.412 103.056 142.144 107.52C142.77 108.542 143.292 109.626 143.73 110.752C144.022 111.545 143.834 111.837 143.333 112.463C142.895 113.026 142.416 113.568 141.936 114.09C140.08 116.05 137.89 117.677 135.449 118.866C130.277 121.41 124.166 121.786 118.68 120.013C116.115 119.179 113.716 117.886 111.589 116.238C110.609 115.466 109.691 114.632 108.857 113.714C108.502 113.318 107.855 112.796 107.647 112.296C107.397 111.691 107.939 110.732 108.168 110.168C110.4 104.641 115.135 100.407 120.87 98.8222C120.912 98.8013 121.517 98.5719 121.287 98.4259C116.344 95.2973 115.677 87.9348 120.474 84.3056C125.334 80.6348 132.3 83.951 133.364 89.7076C133.989 93.0656 132.529 96.4445 129.734 98.3633C129.317 98.697 130.339 98.6553 130.548 98.4884Z" fill="#56627F"/>
<path d="M148.756 97.5501C148.923 107.228 143.083 116.238 134.01 119.784C124.896 123.329 114.258 120.514 107.98 113.068C101.765 105.684 100.764 94.943 105.498 86.5376C110.296 78.0487 120.182 73.4393 129.776 75.2122C140.497 77.1727 148.443 86.7253 148.756 97.5501C148.777 98.0924 149.799 97.9673 149.778 97.4875C149.486 87.4553 142.937 78.445 133.364 75.2747C123.832 72.1044 113.028 75.2956 106.75 83.117C100.409 91.0218 99.7628 102.41 105.206 110.982C110.629 119.492 121.037 123.705 130.861 121.536C140.538 119.387 148.172 111.232 149.549 101.388C149.736 100.095 149.799 98.8015 149.778 97.4875C149.778 96.9244 148.756 97.0704 148.756 97.5501Z" fill="#56627F"/>
<path opacity="0.6" d="M200.644 121.537C209.881 112.3 209.881 97.3248 200.644 88.0882C191.408 78.8516 176.432 78.8516 167.196 88.0882C157.959 97.3248 157.959 112.3 167.196 121.537C176.432 130.773 191.408 130.773 200.644 121.537Z" fill="#C6CAFC"/>
<path d="M188.239 106.226C190.929 105.225 193.078 102.91 193.724 99.9064C194.725 95.2136 191.743 90.5833 187.05 89.5821C182.357 88.581 177.727 91.5636 176.726 96.2564C176.079 99.2807 177.08 102.263 179.124 104.266C172.2 104.453 165.88 108.333 162.543 114.34C165.484 120.868 171.366 125.978 178.895 127.584C186.424 129.211 193.891 126.979 199.251 122.223C198.667 115.362 194.475 109.23 188.239 106.226Z" fill="#E3E3E3"/>
<path d="M188.531 106.247C191.055 105.309 193.266 102.305 193.516 101.116C194.455 96.6946 192.202 92.4606 187.78 91.5221C183.359 90.5835 179.062 93.1072 178.123 97.5289C177.519 100.365 178.457 103.181 180.376 105.079C173.869 105.267 166.965 110.69 163.815 116.363C166.569 122.516 172.888 126.333 179.98 127.855C187.071 129.378 194.1 127.271 199.127 122.808C198.584 116.321 194.392 109.084 188.531 106.247Z" fill="white"/>
<path d="M188.427 106.393C191.264 105.288 193.475 102.972 194.184 99.969C194.872 96.9865 193.954 93.7953 191.764 91.6471C187.51 87.4756 180.022 88.7271 177.144 93.8579C175.204 97.3202 175.892 101.617 178.645 104.432C178.875 104.286 179.104 104.14 179.313 103.994C173.806 104.203 168.509 106.518 164.775 110.585C163.858 111.586 163.044 112.692 162.335 113.86C161.918 114.569 162.168 114.798 162.544 115.528C162.877 116.196 163.253 116.842 163.649 117.468C165.13 119.804 167.007 121.869 169.218 123.538C173.89 127.083 179.834 128.773 185.674 128.251C188.636 127.98 191.535 127.188 194.205 125.874C195.519 125.227 196.791 124.476 197.959 123.6C198.397 123.287 199.419 122.724 199.669 122.224C199.878 121.806 199.628 121.014 199.565 120.555C198.522 114.235 194.392 108.812 188.657 105.997C188.406 105.872 187.468 106.268 187.843 106.435C192.453 108.708 196.04 112.734 197.73 117.593C198.126 118.74 198.418 119.929 198.606 121.118C198.731 121.932 198.752 122.265 198.105 122.787C197.584 123.204 197.062 123.6 196.52 123.976C194.017 125.686 191.16 126.875 188.198 127.459C182.733 128.502 176.935 127.417 172.18 124.539C170.031 123.246 168.112 121.598 166.506 119.679C165.756 118.782 165.067 117.844 164.442 116.842C164.129 116.342 163.837 115.82 163.566 115.278C163.44 115.049 163.211 114.736 163.169 114.465C163.065 113.902 163.524 113.422 163.816 112.984C167.195 107.916 172.826 104.704 178.937 104.495C179.062 104.495 179.855 104.307 179.605 104.057C175.412 99.7605 176.664 91.9599 182.65 89.9785C188.198 88.1639 193.829 93.1488 193.391 98.801C193.141 102.034 191.076 104.87 188.052 106.059C187.405 106.31 188.01 106.56 188.427 106.393Z" fill="#56627F"/>
<path d="M206.552 109.73C204.487 119.199 196.603 126.666 186.925 127.876C177.268 129.086 167.716 123.955 163.315 115.299C158.893 106.622 160.479 95.7976 167.174 88.7271C173.848 81.6774 184.464 79.6334 193.308 83.5754C203.277 88.0179 208.721 99.1139 206.552 109.73C206.448 110.252 207.47 110.147 207.574 109.668C209.597 99.8022 205.175 89.4571 196.52 84.2428C187.885 79.0494 176.622 79.8211 168.78 86.1408C160.896 92.4813 157.746 103.452 161.188 112.984C164.608 122.453 173.785 128.835 183.838 128.856C193.787 128.898 203.069 122.516 206.552 113.192C206.99 112.045 207.303 110.877 207.574 109.668C207.678 109.146 206.656 109.25 206.552 109.73Z" fill="#56627F"/>
<path d="M109.67 150.381L46.7029 166.9C44.2626 167.546 41.718 166.065 41.0923 163.625L19.1507 80.1132C18.5041 77.6729 19.9849 75.1283 22.4252 74.5026L85.3928 57.9838C87.8331 57.3372 90.3777 58.8181 91.0034 61.2584L112.924 144.77C113.592 147.21 112.111 149.734 109.67 150.381Z" fill="#E5E5E5"/>
<path d="M112.173 151.424L49.2058 167.943C46.7655 168.589 44.221 167.108 43.5953 164.668L21.6536 81.1561C21.007 78.7159 22.4879 76.1713 24.9282 75.5456L87.8957 59.0268C90.336 58.3802 92.8806 59.861 93.5063 62.3013L115.427 145.813C116.095 148.253 114.614 150.777 112.173 151.424Z" fill="white"/>
<path d="M112.069 151.09C109.128 151.862 106.166 152.634 103.225 153.405C96.6135 155.137 90.0018 156.868 83.3901 158.62C76.3404 160.476 69.2907 162.311 62.241 164.168C58.0696 165.273 53.8982 166.358 49.7268 167.463C49.5182 167.526 49.3096 167.588 49.1011 167.63C46.8068 168.172 44.7002 166.691 44.0745 164.501C43.8451 163.73 43.6574 162.937 43.4696 162.165C42.3016 157.681 41.1128 153.197 39.9448 148.692C38.1511 141.871 36.3574 135.03 34.5637 128.21C32.6657 120.952 30.7468 113.693 28.8488 106.435C27.3054 100.554 25.762 94.6718 24.2185 88.7901C23.5511 86.2038 22.8003 83.6384 22.1745 81.0521C21.6531 78.8413 22.7794 76.5261 25.032 75.8587C25.2614 75.7961 25.47 75.7336 25.6994 75.6919C27.2428 75.2956 28.7654 74.8784 30.3088 74.4821C36.3574 72.897 42.4059 71.3119 48.4336 69.7267C55.6502 67.8287 62.8667 65.9307 70.1042 64.0327C75.2767 62.677 80.4701 61.3213 85.6427 59.9447C86.5604 59.7153 87.499 59.3607 88.4167 59.2356C90.565 58.9436 92.4421 60.4453 93.0261 62.4684C93.0887 62.7187 93.1513 62.969 93.2347 63.2402C94.1941 66.8693 95.1327 70.4776 96.0921 74.1067C97.7815 80.5307 99.471 86.9755 101.16 93.3995C103.1 100.741 105.019 108.104 106.959 115.445C108.627 121.807 110.296 128.168 111.964 134.53C112.903 138.096 113.842 141.663 114.759 145.209C114.822 145.438 114.884 145.647 114.926 145.876C115.468 148.129 114.321 150.423 112.069 151.09C111.464 151.278 111.631 151.925 112.236 151.737C115.135 150.882 116.574 148.149 115.844 145.271C115.531 144.103 115.239 142.935 114.926 141.767C113.57 136.636 112.236 131.505 110.88 126.395C109.003 119.2 107.105 112.004 105.228 104.829C103.309 97.5292 101.39 90.2292 99.471 82.9293C98.0735 77.569 96.6553 72.2296 95.2578 66.8693C94.9033 65.5344 94.5487 64.1787 94.1941 62.8439C93.631 60.7373 92.3378 58.9853 90.0227 58.589C88.6461 58.3596 87.3113 58.8185 85.9973 59.173C83.9533 59.7153 81.9301 60.2367 79.8861 60.779C73.2327 62.531 66.5793 64.2622 59.9259 66.0142C52.7093 67.9121 45.5136 69.7893 38.2971 71.6873C34.0005 72.8136 29.704 73.9399 25.4074 75.0661C22.8837 75.7336 20.7563 77.6107 20.9648 80.4473C21.0274 81.3233 21.3403 82.1993 21.5697 83.0544C22.696 87.3718 23.8431 91.6893 24.9694 96.0067C26.784 102.91 28.5985 109.814 30.4131 116.718C32.3737 124.143 34.3134 131.589 36.2739 139.014C37.8591 145.021 39.4234 151.028 41.0085 157.035C41.6968 159.621 42.3016 162.228 43.0525 164.793C43.9076 167.713 46.8068 168.902 49.6016 168.193C50.9782 167.839 52.3756 167.463 53.7522 167.109C59.7382 165.544 65.7242 163.959 71.7102 162.395C79.1353 160.455 86.5604 158.495 93.9855 156.555C99.2832 155.157 104.602 153.781 109.9 152.383C110.692 152.175 111.464 151.966 112.256 151.758C112.861 151.57 112.694 150.923 112.069 151.09Z" fill="#56627F"/>
<path d="M57.9654 143.852C62.0325 142.789 66.0996 141.725 70.1668 140.64C76.6533 138.93 83.119 137.241 89.6056 135.53C91.0864 135.134 92.5673 134.759 94.0482 134.362C94.653 134.195 94.5279 133.695 93.923 133.862C89.8559 134.925 85.7887 135.989 81.7216 137.074C75.235 138.784 68.7693 140.473 62.2828 142.184C60.8019 142.58 59.3211 142.955 57.8402 143.352C57.2354 143.519 57.3605 144.019 57.9654 143.852Z" fill="#56627F"/>
<path d="M58.7788 146.939C62.846 145.875 66.9131 144.812 70.9802 143.727C77.4668 142.017 83.9325 140.327 90.4191 138.617C91.8999 138.221 93.3808 137.845 94.8616 137.449C95.4665 137.282 95.3205 136.677 94.6948 136.844C90.6276 137.908 86.5605 138.972 82.4934 140.056C76.0068 141.767 69.5411 143.456 63.0545 145.166C61.5737 145.563 60.0928 145.938 58.612 146.334C58.0071 146.48 58.1531 147.106 58.7788 146.939Z" fill="#56627F"/>
<path d="M59.6549 150.297C64.9526 148.9 70.2503 147.523 75.5271 146.126C76.132 145.959 75.986 145.417 75.3811 145.563C70.0834 146.96 64.7857 148.337 59.5089 149.734C58.904 149.922 59.05 150.464 59.6549 150.297Z" fill="#56627F"/>
<path opacity="0.6" d="M83.624 123.181C92.8606 113.945 92.8606 98.9693 83.6241 89.7327C74.3875 80.4962 59.412 80.4962 50.1755 89.7327C40.9389 98.9693 40.9389 113.945 50.1755 123.181C59.412 132.418 74.3875 132.418 83.624 123.181Z" fill="#C6CAFC"/>
<path d="M71.3977 105.83C73.3791 103.744 74.2968 100.74 73.546 97.7371C72.3988 93.0651 67.6851 90.2285 63.0131 91.3757C58.3412 92.5228 55.5046 97.2365 56.6517 101.908C57.3817 104.912 59.5926 107.144 62.3249 108.061C56.1929 111.273 52.1883 117.53 51.8337 124.392C57.34 128.981 64.8694 130.983 72.3363 129.127C79.824 127.271 85.5597 121.994 88.2711 115.382C84.7671 109.48 78.3223 105.809 71.3977 105.83Z" fill="#E3E3E3"/>
<path d="M71.6687 105.725C73.5249 103.765 74.1924 100.094 73.9004 98.9261C72.795 94.5461 68.9155 91.7304 64.5355 92.8149C60.1556 93.8995 57.4024 98.0709 58.487 102.451C59.1753 105.267 61.261 107.373 63.8264 108.249C58.049 111.273 54.2321 119.178 53.8776 125.644C59.0501 129.961 66.3918 130.629 73.4415 128.877C80.4704 127.146 85.8724 122.182 88.4378 115.945C85.1215 110.377 78.1761 105.705 71.6687 105.725Z" fill="white"/>
<path d="M71.8567 105.809C74.2344 103.201 74.9853 99.468 73.567 96.2143C72.4199 93.5654 70.0004 91.6674 67.1847 91.0834C61.3656 89.8737 55.463 94.5457 55.901 100.594C56.1513 104.14 58.5916 107.102 61.9079 108.291C61.9496 108.186 61.9705 108.061 62.0122 107.957C57.1316 110.564 53.419 115.048 51.9799 120.408C51.813 121.034 51.667 121.681 51.5628 122.327C51.4793 122.807 51.1248 124.058 51.3333 124.496C51.521 124.914 52.3136 125.331 52.689 125.602C53.3773 126.082 54.0656 126.54 54.7956 126.958C57.4236 128.459 60.3436 129.44 63.347 129.857C69.0619 130.628 75.0061 129.252 79.8241 126.102C82.1184 124.601 84.1415 122.724 85.7893 120.534C86.6027 119.449 87.3327 118.281 87.9584 117.071C88.1878 116.613 88.7718 115.82 88.7718 115.319C88.7718 114.923 88.021 114.068 87.7915 113.776C84.0373 108.583 77.947 105.6 71.5856 105.579C71.2519 105.579 70.501 106.08 71.1684 106.08C76.4453 106.101 81.5344 108.311 85.1844 112.149C85.6015 112.587 86.0187 113.067 86.3941 113.547C86.7695 114.026 87.4161 114.694 87.6038 115.278C87.7915 115.883 87.291 116.592 87.0198 117.113C86.7278 117.718 86.3941 118.302 86.0395 118.865C84.6838 121.034 82.9735 122.995 80.9921 124.601C76.6121 128.146 70.9599 129.94 65.3284 129.523C62.4293 129.314 59.5927 128.543 56.9856 127.27C55.7967 126.686 54.6705 126.019 53.6068 125.247C53.0019 124.809 52.397 124.517 52.3553 123.725C52.3136 123.036 52.5222 122.265 52.6473 121.618C53.7736 115.903 57.4653 110.939 62.5962 108.207C62.7004 108.145 62.9299 107.957 62.7004 107.873C57.3402 105.975 55.1085 99.3011 58.5499 94.65C62.2207 89.7069 69.8336 90.8123 72.4199 96.2351C73.9633 99.468 73.2959 103.243 70.8973 105.85C70.6887 106.101 71.669 106.017 71.8567 105.809Z" fill="#56627F"/>
<path d="M89.3346 100.845C91.608 110.189 87.9372 120.2 79.9698 125.685C71.8772 131.254 60.8647 130.92 53.0433 125.018C45.2844 119.178 41.9056 108.729 44.8256 99.4471C47.7039 90.27 56.151 83.6583 65.787 83.1994C76.7578 82.6988 86.6232 90.2908 89.3346 100.845C89.4598 101.345 90.4609 101.074 90.3358 100.573C87.8329 90.854 79.4275 83.554 69.437 82.532C59.4047 81.51 49.5393 86.9954 45.1384 96.0682C40.7167 105.183 42.6356 116.404 49.8313 123.516C56.9853 130.608 68.0812 132.443 77.1749 128.167C86.1852 123.954 91.8166 114.276 90.9615 104.369C90.8572 103.097 90.6278 101.825 90.3358 100.573C90.2106 100.073 89.2095 100.344 89.3346 100.845Z" fill="#56627F"/>
<path d="M192.537 178.976H58.6965C56.0059 178.976 53.8368 176.807 53.8368 174.116V154.907C53.8368 152.216 56.0059 150.047 58.6965 150.047H192.537C195.227 150.047 197.396 152.216 197.396 154.907V174.116C197.396 176.807 195.227 178.976 192.537 178.976Z" fill="white"/>
<path d="M192.724 178.642C191.055 178.642 189.386 178.642 187.718 178.642C183.275 178.642 178.812 178.642 174.369 178.642C167.987 178.642 161.605 178.642 155.223 178.642C147.735 178.642 140.268 178.642 132.78 178.642C125.042 178.642 117.325 178.642 109.587 178.642C102.475 178.642 95.3626 178.642 88.2504 178.642C82.5355 178.642 76.8207 178.642 71.1058 178.642C67.6644 178.642 64.223 178.642 60.7607 178.642C60.1558 178.642 59.551 178.663 58.9461 178.642C57.1941 178.6 55.609 177.683 54.8164 176.077C54.295 175.034 54.3367 173.949 54.3367 172.823C54.3367 166.858 54.2324 160.893 54.3367 154.949C54.3784 152.321 56.2556 150.381 58.8836 150.381C59.7596 150.381 60.6147 150.381 61.4907 150.381C65.3493 150.381 69.2287 150.381 73.0872 150.381C79.0524 150.381 85.0384 150.381 91.0035 150.381C98.3035 150.381 105.583 150.381 112.883 150.381C120.621 150.381 128.379 150.381 136.117 150.381C143.48 150.381 150.843 150.381 158.205 150.381C164.337 150.381 170.469 150.381 176.601 150.381C180.668 150.381 184.714 150.381 188.782 150.381C191.743 150.381 195.331 149.901 196.624 153.405C196.978 154.365 196.895 155.366 196.895 156.367C196.895 157.848 196.895 159.329 196.895 160.83C196.895 164.418 196.895 168.005 196.895 171.592C196.895 172.427 196.916 173.261 196.895 174.095C196.853 176.577 195.143 178.6 192.598 178.663C192.056 178.684 191.806 179.351 192.494 179.33C194.809 179.268 196.958 177.85 197.688 175.597C197.98 174.658 197.938 173.657 197.938 172.677C197.938 169.215 197.938 165.773 197.938 162.311C197.938 159.829 198 157.347 197.938 154.865C197.875 151.841 195.477 149.734 192.536 149.713C190.179 149.693 187.801 149.713 185.444 149.713C180.376 149.713 175.287 149.713 170.219 149.713C163.357 149.713 156.516 149.713 149.654 149.713C141.895 149.713 134.136 149.713 126.356 149.713C118.535 149.713 110.713 149.713 102.913 149.713C96.0092 149.713 89.0846 149.713 82.1809 149.713C77.0292 149.713 71.8775 149.713 66.7258 149.713C64.223 149.713 61.7201 149.713 59.2173 149.713C56.6936 149.713 54.295 151.027 53.5441 153.572C53.273 154.49 53.3356 155.47 53.3356 156.409C53.3356 157.931 53.3356 159.475 53.3356 160.997C53.3356 164.626 53.3356 168.234 53.3356 171.864C53.3356 172.635 53.3147 173.386 53.3356 174.158C53.3773 176.431 54.8164 178.434 57.0273 179.101C57.8824 179.351 58.7584 179.33 59.6344 179.33C60.8441 179.33 62.033 179.33 63.2427 179.33C67.7061 179.33 72.1904 179.33 76.6538 179.33C83.1821 179.33 89.6895 179.33 96.2178 179.33C103.831 179.33 111.464 179.33 119.077 179.33C126.94 179.33 134.803 179.33 142.667 179.33C149.904 179.33 157.141 179.33 164.379 179.33C170.052 179.33 175.704 179.33 181.377 179.33C184.61 179.33 187.843 179.33 191.076 179.33C191.493 179.33 191.931 179.33 192.348 179.33C192.807 179.31 193.391 178.642 192.724 178.642Z" fill="#56627F"/>
<path d="M82.766 156.492L85.0186 161.038C85.102 161.205 85.2689 161.33 85.4566 161.351L90.4831 162.081C90.9628 162.144 91.1506 162.728 90.796 163.082L87.1669 166.628C87.0209 166.753 86.9583 166.962 87 167.15L87.8551 172.155C87.9386 172.635 87.438 172.99 87.0209 172.76L82.5157 170.403C82.3489 170.32 82.1403 170.32 81.9734 170.403L77.4683 172.76C77.0512 172.99 76.5506 172.614 76.634 172.155L77.4892 167.15C77.5309 166.962 77.4683 166.774 77.3223 166.628L73.6932 163.082C73.3386 162.749 73.5472 162.165 74.006 162.081L79.0326 161.351C79.2203 161.33 79.3872 161.205 79.4706 161.038L81.7231 156.492C81.9317 156.074 82.5366 156.074 82.766 156.492Z" fill="#FFCF72"/>
<path d="M104.499 155.678L106.981 160.705C107.065 160.892 107.252 161.018 107.461 161.059L113.009 161.873C113.53 161.956 113.739 162.603 113.363 162.957L109.359 166.858C109.213 167.004 109.129 167.212 109.171 167.421L110.11 172.948C110.193 173.469 109.651 173.866 109.171 173.615L104.207 171.008C104.019 170.904 103.79 170.904 103.602 171.008L98.6384 173.615C98.1587 173.866 97.6164 173.469 97.6998 172.948L98.6384 167.421C98.6801 167.212 98.5967 167.004 98.4507 166.858L94.4461 162.957C94.0707 162.582 94.2792 161.935 94.8007 161.873L100.349 161.059C100.557 161.038 100.745 160.892 100.828 160.705L103.31 155.678C103.581 155.198 104.27 155.198 104.499 155.678Z" fill="#FFCF72"/>
<path d="M126.149 156.492L128.402 161.038C128.485 161.205 128.652 161.33 128.84 161.351L133.866 162.081C134.346 162.144 134.534 162.728 134.179 163.082L130.55 166.628C130.404 166.753 130.341 166.962 130.383 167.15L131.238 172.155C131.322 172.635 130.821 172.99 130.404 172.76L125.899 170.403C125.732 170.32 125.523 170.32 125.356 170.403L120.851 172.76C120.434 172.99 119.934 172.614 120.017 172.155L120.872 167.15C120.914 166.962 120.851 166.774 120.705 166.628L117.076 163.082C116.722 162.749 116.93 162.165 117.389 162.081L122.416 161.351C122.603 161.33 122.77 161.205 122.854 161.038L125.106 156.492C125.315 156.074 125.94 156.074 126.149 156.492Z" fill="#FFCF72"/>
<path d="M147.84 156.492L150.093 161.038C150.176 161.205 150.343 161.33 150.531 161.351L155.557 162.081C156.037 162.144 156.225 162.728 155.87 163.082L152.241 166.628C152.095 166.753 152.032 166.962 152.074 167.15L152.929 172.155C153.013 172.635 152.512 172.99 152.095 172.76L147.59 170.403C147.423 170.32 147.214 170.32 147.047 170.403L142.542 172.76C142.125 172.99 141.625 172.614 141.708 172.155L142.563 167.15C142.605 166.962 142.542 166.774 142.396 166.628L138.767 163.082C138.413 162.749 138.621 162.165 139.08 162.081L144.107 161.351C144.294 161.33 144.461 161.205 144.545 161.038L146.797 156.492C147.006 156.074 147.631 156.074 147.84 156.492Z" fill="#EFEFEF"/>
<path d="M169.532 156.492L171.784 161.038C171.868 161.205 172.034 161.33 172.222 161.351L177.249 162.081C177.728 162.144 177.916 162.728 177.562 163.082L173.932 166.628C173.786 166.753 173.724 166.962 173.766 167.15L174.621 172.155C174.704 172.635 174.204 172.99 173.786 172.76L169.281 170.403C169.114 170.32 168.906 170.32 168.739 170.403L164.234 172.76C163.817 172.99 163.316 172.614 163.4 172.155L164.255 167.15C164.296 166.962 164.234 166.774 164.088 166.628L160.459 163.082C160.104 162.749 160.313 162.165 160.772 162.081L165.798 161.351C165.986 161.33 166.153 161.205 166.236 161.038L168.489 156.492C168.697 156.074 169.323 156.074 169.532 156.492Z" fill="#EFEFEF"/>
<path d="M229.264 92.0439L225.719 109.251C225.531 110.127 224.718 110.69 223.883 110.523C221.109 109.96 218.335 109.376 215.561 108.813C211.89 108.062 208.22 107.311 204.549 106.54C203.214 106.268 200.648 106.331 200.648 106.331C200.648 106.331 201.962 105.309 202.192 105.059C202.4 104.808 202.588 104.6 202.672 104.329C202.818 103.807 202.88 103.286 203.005 102.764C203.214 101.763 205.967 88.3105 206.176 87.3094C206.363 86.4334 207.177 85.8702 208.011 86.0371L228.096 90.1668C228.91 90.3336 229.452 91.1888 229.264 92.0439Z" fill="#E5E5E5"/>
<path d="M228.305 92.5449L224.759 109.752C224.572 110.628 223.758 111.191 222.924 111.024C220.15 110.461 217.376 109.877 214.602 109.314C210.931 108.563 207.26 107.812 203.589 107.041C202.254 106.769 199.689 106.832 199.689 106.832C199.689 106.832 201.003 105.81 201.232 105.56C201.441 105.309 201.629 105.101 201.712 104.83C201.858 104.308 201.921 103.787 202.046 103.265C202.254 102.264 205.008 88.8115 205.216 87.8103C205.404 86.9343 206.217 86.3712 207.052 86.538L227.137 90.6678C227.95 90.8346 228.493 91.6689 228.305 92.5449Z" fill="#E3E3E3"/>
<path d="M226.845 93.358L223.508 109.606C223.341 110.419 222.569 110.961 221.777 110.795C219.149 110.252 216.5 109.71 213.872 109.168C210.389 108.459 206.906 107.729 203.402 107.019C202.129 106.748 199.689 106.832 199.689 106.832C199.689 106.832 200.94 105.872 201.149 105.622C201.358 105.393 201.524 105.205 201.608 104.934C201.754 104.454 201.816 103.933 201.921 103.453C202.108 102.514 204.736 89.8123 204.924 88.8528C205.091 88.0394 205.863 87.4971 206.655 87.664L225.719 91.5851C226.511 91.752 227.012 92.5445 226.845 93.358Z" fill="white"/>
<path d="M227.846 92.5861C227.074 96.3821 226.282 100.178 225.51 103.974C225.135 105.789 224.801 107.624 224.384 109.439C224.363 109.543 224.342 109.668 224.321 109.772C223.883 111.274 222.048 110.481 220.922 110.252C218.335 109.731 215.749 109.188 213.163 108.667C208.741 107.749 204.257 106.414 199.731 106.519C199.814 106.685 199.898 106.852 199.981 107.04C200.523 106.602 201.128 106.206 201.608 105.684C202.296 104.933 202.338 103.953 202.547 103.015C202.797 101.763 203.068 100.512 203.318 99.2604C204.027 95.7981 204.737 92.3149 205.467 88.8527C205.529 88.4981 205.592 88.1227 205.675 87.789C205.905 86.9964 206.489 86.8087 207.177 86.913C208.178 87.059 209.158 87.3092 210.139 87.5178C213.58 88.227 217 88.9361 220.442 89.6244C222.069 89.9581 223.716 90.2918 225.343 90.6255C226.47 90.8758 228.055 90.9175 227.846 92.5861C227.784 93.0241 228.701 92.8989 228.764 92.5027C228.952 91.0427 227.909 90.4587 226.678 90.2084C225.448 89.9581 224.238 89.7078 223.007 89.4575C219.336 88.7067 215.666 87.9558 211.995 87.1841C210.681 86.913 209.367 86.6418 208.053 86.3707C207.031 86.1621 206.03 85.9952 205.237 86.8712C204.528 87.6638 204.465 89.2489 204.257 90.2501C203.861 92.1689 203.464 94.1087 203.068 96.0275C202.651 98.0298 202.255 100.032 201.837 102.014C201.733 102.472 201.65 102.952 201.545 103.411C201.358 104.349 201.212 105.121 200.461 105.747C200.106 106.039 199.752 106.331 199.397 106.602C199.084 106.852 199.314 107.123 199.647 107.123C203.986 107.019 208.282 108.312 212.495 109.188C215.207 109.751 217.897 110.294 220.609 110.857C222.298 111.211 224.613 111.941 225.218 109.689C225.594 108.333 225.781 106.915 226.073 105.559C226.616 102.91 227.158 100.261 227.7 97.6126C228.055 95.9024 228.409 94.1921 228.764 92.4818C228.847 92.0855 227.93 92.1898 227.846 92.5861Z" fill="#56627F"/>
<path d="M215.958 94.5051L216.772 97.154C216.792 97.2582 216.876 97.3417 216.98 97.3625L219.629 98.1968C219.879 98.2802 219.921 98.614 219.712 98.76L217.439 100.345C217.356 100.408 217.293 100.512 217.314 100.616L217.335 103.39C217.335 103.661 217.043 103.807 216.834 103.641L214.623 101.972C214.54 101.909 214.436 101.889 214.331 101.93L211.703 102.806C211.453 102.89 211.224 102.66 211.307 102.41L212.204 99.8028C212.246 99.6985 212.225 99.5942 212.162 99.5108L210.514 97.2791C210.368 97.0705 210.514 96.7785 210.765 96.7785L213.539 96.8202C213.643 96.8202 213.747 96.7785 213.81 96.6951L215.416 94.4425C215.541 94.1923 215.875 94.2548 215.958 94.5051Z" fill="#FFCF72"/>
</svg>
