<svg width="20" height="20" viewBox="0 0 20 20" fill="none" xmlns="http://www.w3.org/2000/svg">
<rect opacity="0.15" width="20" height="20" rx="10" fill="white"/>
<path d="M14.1654 10.0793C14.1654 10.4723 13.8509 10.7868 13.4578 10.7868H10.6276V13.4598C10.6276 13.8529 10.3132 14.1673 9.92008 14.1673C9.527 14.1673 9.21253 13.8529 9.21253 13.4598V10.7868H6.53958C6.1465 10.7868 5.83203 10.4723 5.83203 10.0793C5.83203 9.68619 6.1465 9.37172 6.53958 9.37172H9.21253V6.54153C9.21253 6.14845 9.527 5.83398 9.92008 5.83398C10.3132 5.83398 10.6276 6.14845 10.6276 6.54153V9.37172H13.4578C13.8509 9.37172 14.1654 9.68619 14.1654 10.0793Z" fill="white"/>
</svg>
