<svg width="20" height="20" viewBox="0 0 20 20" fill="none" xmlns="http://www.w3.org/2000/svg">
<path d="M18.3334 9.99996C18.3334 5.39793 14.6021 1.66663 10.0001 1.66663C5.39806 1.66663 1.66675 5.39793 1.66675 9.99996C1.66675 14.159 4.71367 17.6067 8.69811 18.2325V12.4094H6.58167V9.99996H8.69811V8.1636C8.69811 6.07529 9.94266 4.92097 11.8458 4.92097C12.7575 4.92097 13.7115 5.08387 13.7115 5.08387V7.13468H12.6603C11.6255 7.13468 11.3021 7.77688 11.3021 8.43665V9.99996H13.613L13.2439 12.4094H11.3021V18.2325C15.2865 17.6079 18.3334 14.1602 18.3334 9.99996Z" fill="#1977F3"/>
<path d="M13.243 12.4092L13.6122 9.99976H11.3012V8.43646C11.3012 7.77785 11.6235 7.13448 12.6594 7.13448H13.7106V5.08367C13.7106 5.08367 12.7567 4.92078 11.845 4.92078C9.9418 4.92078 8.69725 6.07392 8.69725 8.16341V9.99976H6.58081V12.4092H8.69725V18.2323C9.12148 18.2991 9.55625 18.3331 9.99922 18.3331C10.4422 18.3331 10.877 18.2979 11.3012 18.2323V12.4092H13.243Z" fill="#FEFEFE"/>
</svg>
