<svg width="32" height="32" viewBox="0 0 32 32" fill="none" xmlns="http://www.w3.org/2000/svg">
<path d="M28.7991 16.2962C28.7991 15.1999 28.7101 14.3999 28.5176 13.5703H15.9991V18.5184H23.3472C23.1991 19.748 22.3991 21.5999 20.6213 22.8443L20.5964 23.0099L24.5545 26.0762L24.8287 26.1036C27.3472 23.7776 28.7991 20.3554 28.7991 16.2962Z" fill="#4285F4"/>
<path d="M15.9995 29.3334C19.5995 29.3334 22.6217 28.1482 24.8292 26.1038L20.6217 22.8444C19.4958 23.6296 17.9847 24.1778 15.9995 24.1778C12.4736 24.1778 9.48106 21.8519 8.41429 18.6371L8.25792 18.6504L4.1422 21.8356L4.08838 21.9852C6.28095 26.3407 10.7847 29.3334 15.9995 29.3334Z" fill="#34A853"/>
<path d="M8.41469 18.6371C8.13322 17.8074 7.97032 16.9185 7.97032 16C7.97032 15.0814 8.13322 14.1926 8.39988 13.363L8.39243 13.1863L4.22515 9.94995L4.08881 10.0148C3.18515 11.8222 2.66663 13.8519 2.66663 16C2.66663 18.1481 3.18515 20.1777 4.08881 21.9851L8.41469 18.6371Z" fill="#FBBC05"/>
<path d="M15.9995 7.82225C18.5031 7.82225 20.192 8.90372 21.155 9.80748L24.9179 6.1334C22.6069 3.98527 19.5994 2.66675 15.9995 2.66675C10.7846 2.66675 6.28094 5.6593 4.08838 10.0148L8.39945 13.363C9.48103 10.1482 12.4736 7.82225 15.9995 7.82225Z" fill="#EB4335"/>
</svg>
