<svg width="20" height="20" viewBox="0 0 20 20" fill="none" xmlns="http://www.w3.org/2000/svg">
<path d="M7.08171 16.6666H12.9184C12.3671 17.9852 11.3186 19.0337 10 19.585C8.68144 19.0337 7.63301 17.9852 7.08171 16.6666ZM15 12.3375L16.6667 14.2275V15.8333H3.33337V14.2275L5.00004 12.3375V7.49996C5.00004 4.59746 7.08671 2.12746 10 1.21246C12.9134 2.12746 15 4.59746 15 7.49996V12.3375ZM10 9.16663C10.4421 9.16663 10.866 8.99104 11.1786 8.67847C11.4911 8.36591 11.6667 7.94199 11.6667 7.49996C11.6667 7.05794 11.4911 6.63401 11.1786 6.32145C10.866 6.00889 10.4421 5.8333 10 5.8333C9.55801 5.8333 9.13409 6.00889 8.82153 6.32145C8.50897 6.63401 8.33337 7.05794 8.33337 7.49996C8.33337 7.94199 8.50897 8.36591 8.82153 8.67847C9.13409 8.99104 9.55801 9.16663 10 9.16663Z" fill="white"/>
</svg>
