<svg width="56" height="56" viewBox="0 0 56 56" fill="none" xmlns="http://www.w3.org/2000/svg">
<path d="M1.75 11.8125V49.4375C1.75 52.2812 3.71875 54.25 6.125 54.25H49.875C52.2812 54.25 54.25 52.2812 54.25 49.4375V11.8125C54.25 9.84375 52.2812 7.875 49.875 7.875H6.125C3.71875 7.875 1.75 9.84375 1.75 11.8125Z" fill="white"/>
<path d="M47.25 48.5625H41.125C40.3812 48.5625 39.8125 47.9937 39.8125 47.25V41.125C39.8125 40.3812 40.3812 39.8125 41.125 39.8125H47.25C47.9937 39.8125 48.5625 40.3812 48.5625 41.125V47.25C48.5625 47.9937 47.9937 48.5625 47.25 48.5625Z" fill="#56ACD8"/>
<path d="M1.75 12.25V21H54.25V12.25C54.25 9.84375 52.2812 7.875 49.875 7.875H6.125C3.71875 7.875 1.75 9.84375 1.75 12.25Z" fill="#DFE8F4"/>
<path d="M49.875 55.5625H6.125C2.975 55.5625 0.4375 53.025 0.4375 49.875V26.6875C0.4375 25.9437 1.00625 25.375 1.75 25.375C2.49375 25.375 3.0625 25.9437 3.0625 26.6875V49.875C3.0625 51.5812 4.41875 52.9375 6.125 52.9375H49.875C51.5812 52.9375 52.9375 51.5812 52.9375 49.875V26.6875C52.9375 25.9437 53.5062 25.375 54.25 25.375C54.9938 25.375 55.5625 25.9437 55.5625 26.6875V49.875C55.5625 53.025 53.025 55.5625 49.875 55.5625Z" fill="#444B54"/>
<path d="M1.75 21C1.00625 21 0.4375 20.4312 0.4375 19.6875V12.25C0.4375 9.1 2.975 6.5625 6.125 6.5625H7C7.74375 6.5625 8.3125 7.13125 8.3125 7.875C8.3125 8.61875 7.74375 9.1875 7 9.1875H6.125C4.41875 9.1875 3.0625 10.5438 3.0625 12.25V19.6875C3.0625 20.4312 2.49375 21 1.75 21Z" fill="#444B54"/>
<path d="M32.375 6.5625H19.25V4.375C19.25 2.1875 17.5 0.4375 15.3125 0.4375C13.125 0.4375 11.375 2.1875 11.375 4.375V7.875C11.375 8.61875 11.9437 9.1875 12.6875 9.1875C13.4313 9.1875 14 8.61875 14 7.875V4.375C14 3.63125 14.5687 3.0625 15.3125 3.0625C16.0563 3.0625 16.625 3.63125 16.625 4.375V11.375C16.625 12.1187 16.0563 12.6875 15.3125 12.6875C14.5687 12.6875 14 13.2563 14 14C14 14.7437 14.5687 15.3125 15.3125 15.3125C17.5 15.3125 19.25 13.5625 19.25 11.375V9.1875H32.375C33.1187 9.1875 33.6875 8.61875 33.6875 7.875C33.6875 7.13125 33.1187 6.5625 32.375 6.5625Z" fill="#444B54"/>
<path d="M49.875 6.5625H44.625V4.375C44.625 2.1875 42.875 0.4375 40.6875 0.4375C38.5 0.4375 36.75 2.1875 36.75 4.375V7.875C36.75 8.61875 37.3187 9.1875 38.0625 9.1875C38.8063 9.1875 39.375 8.61875 39.375 7.875V4.375C39.375 3.63125 39.9437 3.0625 40.6875 3.0625C41.4313 3.0625 42 3.63125 42 4.375V11.375C42 12.1187 41.4313 12.6875 40.6875 12.6875C39.9437 12.6875 39.375 13.2563 39.375 14C39.375 14.7437 39.9437 15.3125 40.6875 15.3125C42.875 15.3125 44.625 13.5625 44.625 11.375V9.1875H49.875C51.5813 9.1875 52.9375 10.5437 52.9375 12.25V19.6875C52.9375 20.4312 53.5063 21 54.25 21C54.9937 21 55.5625 20.4312 55.5625 19.6875V12.25C55.5625 9.1 53.025 6.5625 49.875 6.5625Z" fill="#444B54"/>
</svg>
