<svg width="64" height="64" viewBox="0 0 64 64" fill="none" xmlns="http://www.w3.org/2000/svg">
<path d="M50.5 14.5H60.5V9.5C60.5 6.75 58.25 4.5 55.5 4.5C52.75 4.5 50.5 6.75 50.5 9.5V14.5Z" fill="#D3D8DD"/>
<path d="M55.5 4.5H13.5C10.75 4.5 8.5 6.75 8.5 9.5V59.5H45.5C48.25 59.5 50.5 57.25 50.5 54.5V9.5C50.5 6.75 52.75 4.5 55.5 4.5Z" fill="white"/>
<path d="M40.5 31H18.5C17.65 31 17 30.35 17 29.5C17 28.65 17.65 28 18.5 28H40.5C41.35 28 42 28.65 42 29.5C42 30.35 41.35 31 40.5 31Z" fill="#67BAE4"/>
<path d="M35.5 16H23.5C22.65 16 22 15.35 22 14.5C22 13.65 22.65 13 23.5 13H35.5C36.35 13 37 13.65 37 14.5C37 15.35 36.35 16 35.5 16Z" fill="#67BAE4"/>
<path d="M40.5 54.5V49.5H3.5V54.5C3.5 57.25 5.75 59.5 8.5 59.5H45.5C42.75 59.5 40.5 57.25 40.5 54.5Z" fill="white"/>
<path d="M55.5 3H13.5C9.9 3 7 5.9 7 9.5V43C7 43.85 7.65 44.5 8.5 44.5C9.35 44.5 10 43.85 10 43V9.5C10 7.55 11.55 6 13.5 6H50C49.35 7 49 8.2 49 9.5V54.5C49 56.45 47.45 58 45.5 58C43.55 58 42 56.45 42 54.5V49.5C42 48.65 41.35 48 40.5 48H3.5C2.65 48 2 48.65 2 49.5V54.5C2 58.1 4.9 61 8.5 61H45.5C49.1 61 52 58.1 52 54.5V9.5C52 7.55 53.55 6 55.5 6C57.45 6 59 7.55 59 9.5V13H55.5C54.65 13 54 13.65 54 14.5C54 15.35 54.65 16 55.5 16H60.5C61.35 16 62 15.35 62 14.5V9.5C62 5.9 59.1 3 55.5 3ZM8.5 58C6.55 58 5 56.45 5 54.5V51H39V54.5C39 55.8 39.4 57 40 58H8.5Z" fill="#56627F"/>
<path d="M33.1 38.5H18.6C17.75 38.5 17.1 37.85 17.1 37C17.1 36.15 17.75 35.5 18.6 35.5H33.1C33.95 35.5 34.6 36.15 34.6 37C34.6 37.85 33.95 38.5 33.1 38.5Z" fill="#67BAE4"/>
<path d="M40.6 38.5H40.5C39.65 38.5 39 37.85 39 37C39 36.15 39.65 35.5 40.5 35.5H40.6C41.45 35.5 42.1 36.15 42.1 37C42.1 37.85 41.45 38.5 40.6 38.5Z" fill="#67BAE4"/>
</svg>
