<svg width="16" height="16" viewBox="0 0 16 16" fill="none" xmlns="http://www.w3.org/2000/svg">
<path d="M2.6665 10.1913C2.6665 9.99908 2.77666 9.8239 2.94988 9.74063L6.19661 8.17992C6.34774 8.10727 6.34775 7.89207 6.19662 7.81942L2.94987 6.25859C2.77666 6.17532 2.6665 6.00014 2.6665 5.80796V1.64583C2.66651 1.59146 2.68126 1.53803 2.70929 1.49081C2.73731 1.44359 2.77766 1.40421 2.82634 1.37654C2.87502 1.34888 2.93036 1.33389 2.9869 1.33305C3.04344 1.3322 3.09923 1.34555 3.14878 1.37175L15.1647 7.7256C15.2157 7.75261 15.2583 7.79228 15.2879 7.84049C15.3175 7.8887 15.3332 7.94368 15.3332 7.99967C15.3332 8.05567 15.3175 8.11065 15.2879 8.15885C15.2583 8.20706 15.2157 8.24674 15.1647 8.27375L3.14878 14.6276C3.09923 14.6538 3.04344 14.6671 2.9869 14.6663C2.93036 14.6655 2.87502 14.6505 2.82634 14.6228C2.77766 14.5951 2.73731 14.5558 2.70929 14.5085C2.68126 14.4613 2.66651 14.4079 2.6665 14.3535V10.1913Z" fill="#B4C0D4"/>
</svg>
