<svg width="16" height="17" viewBox="0 0 16 17" fill="none" xmlns="http://www.w3.org/2000/svg">
<g clip-path="url(#clip0)">
<path d="M5.79157 2.8771L7.52957 1.1391C7.65459 1.01412 7.82412 0.943909 8.0009 0.943909C8.17768 0.943909 8.34722 1.01412 8.47223 1.1391L10.2102 2.8771H12.6676C12.8444 2.8771 13.0139 2.94734 13.139 3.07236C13.264 3.19739 13.3342 3.36696 13.3342 3.54377V6.0011L15.0722 7.7391C15.1972 7.86412 15.2674 8.03366 15.2674 8.21043C15.2674 8.38721 15.1972 8.55675 15.0722 8.68177L13.3342 10.4198V12.8771C13.3342 13.0539 13.264 13.2235 13.139 13.3485C13.0139 13.4735 12.8444 13.5438 12.6676 13.5438H10.2102L8.47223 15.2818C8.34722 15.4067 8.17768 15.477 8.0009 15.477C7.82412 15.477 7.65459 15.4067 7.52957 15.2818L5.79157 13.5438H3.33423C3.15742 13.5438 2.98785 13.4735 2.86283 13.3485C2.7378 13.2235 2.66757 13.0539 2.66757 12.8771V10.4198L0.929566 8.68177C0.804585 8.55675 0.734375 8.38721 0.734375 8.21043C0.734375 8.03366 0.804585 7.86412 0.929566 7.7391L2.66757 6.0011V3.54377C2.66757 3.36696 2.7378 3.19739 2.86283 3.07236C2.98785 2.94734 3.15742 2.8771 3.33423 2.8771H5.79157ZM4.0009 4.21043V6.55377L2.34423 8.21043L4.0009 9.8671V12.2104H6.34423L8.0009 13.8671L9.65757 12.2104H12.0009V9.8671L13.6576 8.21043L12.0009 6.55377V4.21043H9.65757L8.0009 2.55377L6.34423 4.21043H4.0009ZM8.0009 10.8771C7.29366 10.8771 6.61538 10.5961 6.11528 10.0961C5.61518 9.59596 5.33423 8.91768 5.33423 8.21043C5.33423 7.50319 5.61518 6.82491 6.11528 6.32482C6.61538 5.82472 7.29366 5.54377 8.0009 5.54377C8.70814 5.54377 9.38642 5.82472 9.88652 6.32482C10.3866 6.82491 10.6676 7.50319 10.6676 8.21043C10.6676 8.91768 10.3866 9.59596 9.88652 10.0961C9.38642 10.5961 8.70814 10.8771 8.0009 10.8771ZM8.0009 9.54377C8.35452 9.54377 8.69366 9.40329 8.94371 9.15324C9.19376 8.90319 9.33423 8.56406 9.33423 8.21043C9.33423 7.85681 9.19376 7.51767 8.94371 7.26762C8.69366 7.01758 8.35452 6.8771 8.0009 6.8771C7.64728 6.8771 7.30814 7.01758 7.05809 7.26762C6.80804 7.51767 6.66757 7.85681 6.66757 8.21043C6.66757 8.56406 6.80804 8.90319 7.05809 9.15324C7.30814 9.40329 7.64728 9.54377 8.0009 9.54377Z" fill="#B4C0D4"/>
</g>
<defs>
<clipPath id="clip0">
<path d="M0 0.210449H16V16.2104H0V0.210449Z" fill="white"/>
</clipPath>
</defs>
</svg>
