<svg width="24" height="15" viewBox="0 0 24 15" fill="none" xmlns="http://www.w3.org/2000/svg">
<path d="M8.81748 3.33336L11.3638 1.16086C11.547 1.00463 11.7954 0.91687 12.0544 0.91687C12.3134 0.91687 12.5618 1.00463 12.7449 1.16086L15.2913 3.33336H18.8915C19.1505 3.33336 19.399 3.42116 19.5821 3.57744C19.7653 3.73372 19.8682 3.94568 19.8682 4.16669V7.23836L22.4146 9.41086C22.5977 9.56713 22.7005 9.77905 22.7005 10C22.7005 10.221 22.5977 10.4329 22.4146 10.5892L19.8682 12.7617V15.8334C19.8682 16.0544 19.7653 16.2663 19.5821 16.4226C19.399 16.5789 19.1505 16.6667 18.8915 16.6667H15.2913L12.7449 18.8392C12.5618 18.9954 12.3134 19.0832 12.0544 19.0832C11.7954 19.0832 11.547 18.9954 11.3638 18.8392L8.81748 16.6667H5.21725C4.9582 16.6667 4.70977 16.5789 4.52659 16.4226C4.34342 16.2663 4.24052 16.0544 4.24052 15.8334V12.7617L1.69418 10.5892C1.51107 10.4329 1.4082 10.221 1.4082 10C1.4082 9.77905 1.51107 9.56713 1.69418 9.41086L4.24052 7.23836V4.16669C4.24052 3.94568 4.34342 3.73372 4.52659 3.57744C4.70977 3.42116 4.9582 3.33336 5.21725 3.33336H8.81748ZM12.0544 12.5C12.8315 12.5 13.5768 12.2366 14.1263 11.7678C14.6758 11.299 14.9846 10.6631 14.9846 10C14.9846 9.33698 14.6758 8.7011 14.1263 8.23226C13.5768 7.76342 12.8315 7.50003 12.0544 7.50003C11.2772 7.50003 10.5319 7.76342 9.98241 8.23226C9.43289 8.7011 9.12417 9.33698 9.12417 10C9.12417 10.6631 9.43289 11.299 9.98241 11.7678C10.5319 12.2366 11.2772 12.5 12.0544 12.5Z" fill="#B4C0D4"/>
</svg>
