<svg width="14" height="14" viewBox="0 0 14 14" fill="none" xmlns="http://www.w3.org/2000/svg">
<path d="M5.80661 1.28909C6.59348 1.12408 7.40599 1.12369 8.19303 1.28792C8.24545 1.63401 8.37521 1.96382 8.57265 2.25286C8.77008 2.5419 9.03013 2.78272 9.33344 2.95742C9.63652 3.13273 9.97521 3.23746 10.3243 3.26382C10.6735 3.29018 11.0241 3.23749 11.35 3.10967C11.8857 3.70937 12.2914 4.41344 12.5418 5.17759C12.2684 5.39609 12.0478 5.67339 11.8963 5.98888C11.7448 6.30438 11.6663 6.64995 11.6668 6.99992C11.6668 7.73726 12.0086 8.39467 12.5429 8.82226C12.2911 9.58577 11.8849 10.2893 11.3494 10.889C11.0236 10.7613 10.6731 10.7086 10.3241 10.735C9.97504 10.7614 9.63644 10.866 9.33344 11.0413C9.03037 11.2159 8.77053 11.4566 8.57321 11.7454C8.37588 12.0342 8.24614 12.3638 8.19361 12.7096C7.40681 12.875 6.59431 12.8758 5.80719 12.7119C5.75501 12.3655 5.62537 12.0354 5.42792 11.746C5.23047 11.4567 4.9703 11.2156 4.66678 11.0407C4.36365 10.8655 4.02493 10.7608 3.6758 10.7346C3.32667 10.7083 2.97611 10.7611 2.65019 10.889C2.11446 10.2891 1.70869 9.58486 1.45844 8.82051C1.73167 8.60212 1.95221 8.32501 2.10369 8.00974C2.25517 7.69446 2.33369 7.34912 2.33344 6.99934C2.33373 6.64927 2.2551 6.30364 2.10341 5.98814C1.95173 5.67264 1.73087 5.39539 1.45728 5.17701C1.70908 4.41349 2.11534 3.70998 2.65078 3.11026C2.97666 3.23798 3.32713 3.29062 3.67616 3.26426C4.02518 3.2379 4.36377 3.13322 4.66678 2.95801C4.96984 2.78335 5.22968 2.54269 5.42701 2.25387C5.62434 1.96505 5.75408 1.6355 5.80661 1.28967V1.28909ZM7.00011 8.74992C7.46424 8.74992 7.90936 8.56555 8.23755 8.23736C8.56573 7.90917 8.75011 7.46405 8.75011 6.99992C8.75011 6.53579 8.56573 6.09067 8.23755 5.76249C7.90936 5.4343 7.46424 5.24992 7.00011 5.24992C6.53598 5.24992 6.09086 5.4343 5.76267 5.76249C5.43448 6.09067 5.25011 6.53579 5.25011 6.99992C5.25011 7.46405 5.43448 7.90917 5.76267 8.23736C6.09086 8.56555 6.53598 8.74992 7.00011 8.74992Z" fill="#3970D9"/>
</svg>
