<svg width="14" height="14" viewBox="0 0 14 14" fill="none" xmlns="http://www.w3.org/2000/svg">
<path d="M5.06689 2.33314L6.58764 0.812394C6.69703 0.703036 6.84538 0.641602 7.00005 0.641602C7.15473 0.641602 7.30308 0.703036 7.41247 0.812394L8.93322 2.33314H11.0834C11.2381 2.33314 11.3865 2.3946 11.4959 2.504C11.6053 2.61339 11.6667 2.76177 11.6667 2.91648V5.06664L13.1875 6.58739C13.2968 6.69679 13.3583 6.84513 13.3583 6.99981C13.3583 7.15449 13.2968 7.30284 13.1875 7.41223L11.6667 8.93298V11.0831C11.6667 11.2379 11.6053 11.3862 11.4959 11.4956C11.3865 11.605 11.2381 11.6665 11.0834 11.6665H8.93322L7.41247 13.1872C7.30308 13.2966 7.15473 13.358 7.00005 13.358C6.84538 13.358 6.69703 13.2966 6.58764 13.1872L5.06689 11.6665H2.91672C2.76201 11.6665 2.61364 11.605 2.50424 11.4956C2.39485 11.3862 2.33339 11.2379 2.33339 11.0831V8.93298L0.812638 7.41223C0.70328 7.30284 0.641846 7.15449 0.641846 6.99981C0.641846 6.84513 0.70328 6.69679 0.812638 6.58739L2.33339 5.06664V2.91648C2.33339 2.76177 2.39485 2.61339 2.50424 2.504C2.61364 2.3946 2.76201 2.33314 2.91672 2.33314H5.06689ZM3.50005 3.49981V5.55023L2.05047 6.99981L3.50005 8.44939V10.4998H5.55047L7.00005 11.9494L8.44964 10.4998H10.5001V8.44939L11.9496 6.99981L10.5001 5.55023V3.49981H8.44964L7.00005 2.05023L5.55047 3.49981H3.50005ZM7.00005 9.33314C6.38122 9.33314 5.78772 9.08731 5.35014 8.64973C4.91255 8.21214 4.66672 7.61865 4.66672 6.99981C4.66672 6.38097 4.91255 5.78748 5.35014 5.3499C5.78772 4.91231 6.38122 4.66648 7.00005 4.66648C7.61889 4.66648 8.21239 4.91231 8.64997 5.3499C9.08756 5.78748 9.33339 6.38097 9.33339 6.99981C9.33339 7.61865 9.08756 8.21214 8.64997 8.64973C8.21239 9.08731 7.61889 9.33314 7.00005 9.33314ZM7.00005 8.16648C7.30947 8.16648 7.60622 8.04356 7.82501 7.82477C8.0438 7.60598 8.16672 7.30923 8.16672 6.99981C8.16672 6.69039 8.0438 6.39365 7.82501 6.17485C7.60622 5.95606 7.30947 5.83314 7.00005 5.83314C6.69064 5.83314 6.39389 5.95606 6.1751 6.17485C5.9563 6.39365 5.83339 6.69039 5.83339 6.99981C5.83339 7.30923 5.9563 7.60598 6.1751 7.82477C6.39389 8.04356 6.69064 8.16648 7.00005 8.16648Z" fill="#6672E8"/>
</svg>
