<svg width="16" height="17" viewBox="0 0 16 17" fill="none" xmlns="http://www.w3.org/2000/svg">
<path d="M7.3335 2.07728V3.41861C5.98864 3.58973 4.7594 4.26652 3.89562 5.31142C3.03184 6.35632 2.59835 7.69092 2.68324 9.04396C2.76814 10.397 3.36505 11.667 4.35266 12.5957C5.34027 13.5244 6.64446 14.0423 8.00016 14.0439C9.29924 14.0439 10.5536 13.5698 11.528 12.7106C12.5023 11.8514 13.1296 10.6661 13.2922 9.37728H14.6342C14.2995 12.7459 11.4568 15.3773 8.00016 15.3773C4.31816 15.3773 1.3335 12.3926 1.3335 8.71061C1.3335 5.25395 3.96483 2.41128 7.3335 2.07728ZM12.4715 5.18195L8.00016 9.65328L7.0575 8.71061L11.5288 4.23928L9.3335 2.04395H14.6668V7.37728L12.4715 5.18195Z" fill="#419EE1"/>
</svg>
