<svg width="32" height="32" viewBox="0 0 32 32" fill="none" xmlns="http://www.w3.org/2000/svg">
<circle cx="16" cy="16" r="15.5" stroke="#E8EEF9"/>
<path d="M14.1824 15.1748C14.7347 15.1748 15.1824 14.7271 15.1824 14.1748V11.0081C15.1824 10.5479 15.5555 10.1748 16.0157 10.1748C16.4759 10.1748 16.849 10.5479 16.849 11.0081V14.1748C16.849 14.7271 17.2968 15.1748 17.849 15.1748H21.0157C21.4759 15.1748 21.849 15.5479 21.849 16.0081C21.849 16.4684 21.4759 16.8415 21.0157 16.8415H17.849C17.2968 16.8415 16.849 17.2892 16.849 17.8415V21.0081C16.849 21.4684 16.4759 21.8415 16.0157 21.8415C15.5555 21.8415 15.1824 21.4684 15.1824 21.0081V17.8415C15.1824 17.2892 14.7347 16.8415 14.1824 16.8415H11.0157C10.5555 16.8415 10.1824 16.4684 10.1824 16.0081C10.1824 15.5479 10.5555 15.1748 11.0157 15.1748H14.1824Z" fill="#B4C0D4"/>
</svg>
