<svg width="25" height="36" viewBox="0 0 25 36" fill="none" xmlns="http://www.w3.org/2000/svg">
<mask id="mask0" mask-type="alpha" maskUnits="userSpaceOnUse" x="0" y="5" width="25" height="31">
<path d="M8.18849 35.2383C7.34744 35.7366 6.38438 35.9999 5.40278 35.9999C2.41891 35.9999 0 33.6184 0 30.6806L0 5.02832L21.8281 18.0605C22.577 18.5077 23.2043 19.1274 23.6559 19.8662C25.1944 22.3834 24.369 25.6519 21.8124 27.1666L8.18849 35.2383Z" fill="white"/>
</mask>
<g mask="url(#mask0)">
<path d="M8.18849 35.2383C7.34744 35.7366 6.38438 35.9999 5.40278 35.9999C2.41891 35.9999 0 33.6184 0 30.6806L0 5.02832L21.8281 18.0605C22.577 18.5077 23.2043 19.1274 23.6559 19.8662C25.1944 22.3834 24.369 25.6519 21.8124 27.1666L8.18849 35.2383Z" fill="#3970D9"/>
</g>
<path opacity="0.95" fill-rule="evenodd" clip-rule="evenodd" d="M0 24.8091L0 5.32005C0 4.33604 0.277233 3.37131 0.800866 2.53316C2.36418 0.0308667 5.69184 -0.749914 8.23341 0.78924L16.4668 5.77533C17.1879 6.21199 17.7946 6.80935 18.2381 7.51925C19.8014 10.0215 19.0084 13.2978 16.4668 14.8369L0 24.8091Z" fill="#73ABFF"/>
</svg>
