<svg width="20" height="20" viewBox="0 0 20 20" fill="none" xmlns="http://www.w3.org/2000/svg">
<path fill-rule="evenodd" clip-rule="evenodd" d="M15 1.66663H5C4.77899 1.66663 4.56703 1.75442 4.41075 1.9107C4.25447 2.06698 4.16667 2.27895 4.16667 2.49996V17.5C4.16667 17.721 4.25447 17.9329 4.41075 18.0892C4.56703 18.2455 4.77899 18.3333 5 18.3333H15C15.221 18.3333 15.433 18.2455 15.5893 18.0892C15.7455 17.9329 15.8333 17.721 15.8333 17.5V2.49996C15.8333 2.27895 15.7455 2.06698 15.5893 1.9107C15.433 1.75442 15.221 1.66663 15 1.66663ZM8.75 15.8333C8.51988 15.8333 8.33333 16.0198 8.33333 16.25C8.33333 16.4801 8.51988 16.6666 8.75 16.6666H11.25C11.4801 16.6666 11.6667 16.4801 11.6667 16.25C11.6667 16.0198 11.4801 15.8333 11.25 15.8333H8.75Z" fill="#B4C0D4"/>
</svg>
