<svg width="20" height="20" viewBox="0 0 20 20" fill="none" xmlns="http://www.w3.org/2000/svg">
<path d="M5.83341 3.33317V16.6665H14.1667V3.33317H5.83341ZM5.00008 1.6665H15.0001C15.2211 1.6665 15.4331 1.7543 15.5893 1.91058C15.7456 2.06686 15.8334 2.27882 15.8334 2.49984V17.4998C15.8334 17.7209 15.7456 17.9328 15.5893 18.0891C15.4331 18.2454 15.2211 18.3332 15.0001 18.3332H5.00008C4.77907 18.3332 4.56711 18.2454 4.41083 18.0891C4.25455 17.9328 4.16675 17.7209 4.16675 17.4998V2.49984C4.16675 2.27882 4.25455 2.06686 4.41083 1.91058C4.56711 1.7543 4.77907 1.6665 5.00008 1.6665ZM10.0001 14.1665C10.2211 14.1665 10.4331 14.2543 10.5893 14.4106C10.7456 14.5669 10.8334 14.7788 10.8334 14.9998C10.8334 15.2209 10.7456 15.4328 10.5893 15.5891C10.4331 15.7454 10.2211 15.8332 10.0001 15.8332C9.77907 15.8332 9.56711 15.7454 9.41083 15.5891C9.25455 15.4328 9.16675 15.2209 9.16675 14.9998C9.16675 14.7788 9.25455 14.5669 9.41083 14.4106C9.56711 14.2543 9.77907 14.1665 10.0001 14.1665Z" fill="#7B89A6"/>
</svg>
