<svg width="302" height="302" viewBox="0 0 302 302" fill="none" xmlns="http://www.w3.org/2000/svg">
<path d="M273.294 248.472C273.089 248.739 271.652 249.007 268.573 249.319C247.048 251.483 221.596 250.814 199.455 250.814C157.866 250.836 116.251 250.368 74.6878 250.368C48.7492 249.921 18.5516 248.762 44.2593 247.2C73.4819 245.416 105.168 245.684 134.724 245.46C161.509 245.26 188.294 245.416 215.054 245.884C219.595 245.951 274.372 247 273.294 248.472Z" fill="#E8EEF9"/>
<g clip-path="url(#clip0)">
<path d="M68.9935 146.384V59.9167C68.9935 52.0275 75.2845 45.6318 83.0442 45.6318H168.175C175.935 45.6318 182.226 52.0275 182.226 59.9167V232.956C182.226 240.845 175.935 247.241 168.175 247.241H83.0442C75.2845 247.241 68.9935 240.845 68.9935 232.956V190.953V146.384Z" fill="white"/>
<path d="M179.613 240.247C177.031 244.496 172.727 246.827 167.789 246.827C165.891 246.827 163.989 246.827 162.091 246.827C154.309 246.827 146.527 246.827 138.745 246.827C129.068 246.827 119.39 246.827 109.713 246.827C102.421 246.827 95.1275 246.827 87.8362 246.827C86.373 246.827 84.9098 246.838 83.4466 246.827C77.8087 246.783 72.7357 243.358 70.6607 238.087C69.5557 235.284 69.6604 232.424 69.6604 229.489C69.6604 225.524 69.6604 221.561 69.6604 217.596C69.6604 209.269 69.6604 200.939 69.6604 192.611C69.6604 188.346 69.6604 184.08 69.6604 179.812C69.6604 170.683 69.6604 161.551 69.6604 152.421C69.6604 149.462 69.6604 146.502 69.6604 143.546C69.6604 136.916 69.6604 130.283 69.6604 123.653C69.6604 114.102 69.6604 104.551 69.6604 95.0006C69.6604 86.5382 69.6604 78.0759 69.6604 69.6107C69.6604 67.0949 69.6604 64.5791 69.6604 62.0632C69.6604 60.2418 69.6108 58.4424 70.0159 56.6485C71.3717 50.6221 76.6541 46.1167 82.8707 46.0478C84.2292 46.034 85.5904 46.0478 86.9489 46.0478C94.1162 46.0478 101.281 46.0478 108.448 46.0478C118.117 46.0478 127.787 46.0478 137.456 46.0478C145.345 46.0478 153.237 46.0478 161.126 46.0478C163.116 46.0478 165.105 46.0478 167.092 46.0478C170.953 46.0478 174.568 47.1859 177.368 49.9607C179.732 52.3057 181.192 55.4388 181.495 58.7538C181.6 59.8973 181.556 61.0629 181.556 62.2093C181.556 66.6154 181.556 71.0188 181.556 75.425C181.556 78.2192 181.556 81.0133 181.556 83.8102C181.556 84.4192 182.893 84.1629 182.893 83.6669C182.893 76.2572 182.893 68.8474 182.893 61.4377C182.893 60.1068 182.92 58.7786 182.711 57.4587C182.201 54.2539 180.597 51.2448 178.208 49.0486C175.329 46.4005 171.677 45.2156 167.814 45.2156C162.397 45.2156 156.979 45.2156 151.559 45.2156C142.074 45.2156 132.59 45.2156 123.105 45.2156C114.028 45.2156 104.954 45.2156 95.877 45.2156C91.6858 45.2156 87.4918 45.1798 83.3005 45.2156C77.3072 45.268 71.7381 48.8034 69.4372 54.4055C68.4728 56.7532 68.324 59.1478 68.324 61.6306C68.324 67.8334 68.324 74.0362 68.324 80.239C68.324 89.9138 68.324 99.5914 68.324 109.266C68.324 118.068 68.324 126.872 68.324 135.673C68.324 139.291 68.324 142.909 68.324 146.527C68.324 153.336 68.324 160.148 68.324 166.957C68.324 174.736 68.324 182.512 68.324 190.291C68.324 195.411 68.324 200.534 68.324 205.654C68.324 214.182 68.324 222.711 68.324 231.242C68.324 234.934 68.8007 238.431 71.0052 241.553C73.7773 245.483 78.2909 247.646 83.0553 247.662C88.0016 247.682 92.9478 247.662 97.8913 247.662C107.23 247.662 116.569 247.662 125.91 247.662C135.169 247.662 144.425 247.662 153.683 247.662C158.384 247.662 163.085 247.69 167.784 247.662C173.171 247.632 178.057 244.943 180.864 240.324C181.212 239.751 179.87 239.828 179.613 240.247Z" fill="#5D7183"/>
<path d="M175.954 69.5334H75.268V221.261H175.954V69.5334Z" fill="white"/>
<path d="M176.624 132.33C176.624 125.235 176.624 118.139 176.624 111.044C176.624 99.7843 176.624 88.525 176.624 77.263C176.624 74.6645 176.624 72.0659 176.624 69.4674C176.624 69.236 176.422 69.0954 176.196 69.0954C172.868 69.0954 169.542 69.0954 166.213 69.0954C158.175 69.0954 150.134 69.0954 142.096 69.0954C132.413 69.0954 122.733 69.0954 113.05 69.0954C104.678 69.0954 96.3041 69.0954 87.9326 69.0954C83.8764 69.0954 79.7403 68.8612 75.6896 69.0954C75.629 69.0982 75.5684 69.0954 75.5105 69.0954C75.257 69.0954 74.5984 69.2139 74.5984 69.5969C74.5984 79.134 74.5984 88.6738 74.5984 98.2108C74.5984 109.633 74.5984 121.055 74.5984 132.476C74.5984 140.669 74.5984 148.864 74.5984 157.056C74.5984 167.748 74.5984 178.442 74.5984 189.134C74.5984 199.484 74.5984 209.831 74.5984 220.181C74.5984 220.569 74.5984 220.958 74.5984 221.344C74.5984 221.575 74.7996 221.716 75.0255 221.716C78.233 221.716 81.4377 221.716 84.6452 221.716C92.3471 221.716 100.049 221.716 107.751 221.716C117.073 221.716 126.392 221.716 135.714 221.716C143.78 221.716 151.843 221.716 159.908 221.716C163.816 221.716 167.803 221.947 171.705 221.716C171.763 221.713 171.821 221.716 171.879 221.716C172.457 221.716 173.262 220.84 172.363 220.84C169.156 220.84 165.951 220.84 162.744 220.84C155.042 220.84 147.34 220.84 139.638 220.84C130.316 220.84 120.997 220.84 111.675 220.84C103.609 220.84 95.5463 220.84 87.4807 220.84C84.8188 220.84 82.1569 220.84 79.4923 220.84C78.6546 220.84 77.8169 220.84 76.9792 220.84C76.6678 220.84 75.9652 220.699 75.6813 220.84C75.6428 220.859 75.5546 220.84 75.5077 220.84C75.651 220.964 75.7916 221.087 75.9349 221.212C75.9349 210.666 75.9349 200.118 75.9349 189.572C75.9349 180.473 75.9349 171.374 75.9349 162.275C75.9349 152.595 75.9349 142.915 75.9349 133.234C75.9349 123.256 75.9349 113.276 75.9349 103.298C75.9349 92.223 75.9349 81.1483 75.9349 70.0709C75.9349 69.867 75.9349 69.6658 75.9349 69.4619C75.6317 69.63 75.3259 69.7981 75.0228 69.9634C78.3515 69.9634 81.6775 69.9634 85.0062 69.9634C93.0442 69.9634 101.085 69.9634 109.123 69.9634C118.806 69.9634 128.486 69.9634 138.17 69.9634C146.541 69.9634 154.915 69.9634 163.287 69.9634C166.05 69.9634 168.814 69.9634 171.575 69.9634C172.443 69.9634 173.314 69.9634 174.182 69.9634C174.51 69.9634 175.224 70.104 175.527 69.9634C175.568 69.9442 175.659 69.9634 175.706 69.9634C175.563 69.8394 175.422 69.7154 175.279 69.5914C175.279 76.687 175.279 83.7827 175.279 90.8783C175.279 102.138 175.279 113.397 175.279 124.659C175.279 127.257 175.279 129.856 175.279 132.454C175.282 133.099 176.624 132.859 176.624 132.33Z" fill="#5D7183"/>
<path d="M115.877 59.3847H135.411C136.475 59.3847 137.337 58.5222 137.337 57.4585V57.1444C137.337 56.0808 136.475 55.2183 135.411 55.2183H115.877C114.813 55.2183 113.951 56.0808 113.951 57.1444V57.4585C113.948 58.5222 114.81 59.3847 115.877 59.3847Z" fill="white"/>
<path d="M115.822 59.8919C119.123 59.8919 122.424 59.8919 125.725 59.8919C127.968 59.8919 130.211 59.8919 132.455 59.8919C133.51 59.8919 134.651 60.0187 135.701 59.8616C138.178 59.4924 139.002 55.8385 136.461 54.874C135.499 54.5103 134.141 54.7087 133.143 54.7087C128.655 54.7087 124.166 54.7087 119.674 54.7087C118.437 54.7087 117.164 54.6232 115.929 54.7087C112.736 54.9319 112.289 59.586 115.651 59.8864C116.326 59.947 116.998 58.9633 116.103 58.8834C114.359 58.7263 113.989 56.0313 115.844 55.7255C116.125 55.6786 116.458 55.7255 116.739 55.7255C118.15 55.7255 119.558 55.7255 120.969 55.7255C124.8 55.7255 128.627 55.7255 132.457 55.7255C133.358 55.7255 134.419 55.5739 135.312 55.7255C136.734 55.968 137.246 58.0126 135.893 58.685C135.48 58.8889 135.318 58.8806 134.888 58.8806C131.598 58.8806 128.305 58.8806 125.014 58.8806C121.986 58.8806 118.96 58.8806 115.932 58.8806C115.155 58.8779 114.921 59.8919 115.822 59.8919Z" fill="#5D7183"/>
<path d="M104.733 59.3847H105.047C106.111 59.3847 106.974 58.5222 106.974 57.4585V57.1444C106.974 56.0808 106.111 55.2183 105.047 55.2183H104.733C103.67 55.2183 102.807 56.0808 102.807 57.1444V57.4585C102.804 58.5222 103.67 59.3847 104.733 59.3847Z" fill="white"/>
<path d="M104.469 59.7374C105.833 59.7374 107.426 59.1367 107.627 57.5908C107.822 56.0808 106.844 54.9041 105.315 54.8628C103.956 54.8242 102.353 55.4911 102.157 57.0094C101.959 58.5553 102.942 59.6492 104.469 59.7374C104.946 59.765 105.894 59.0816 105.001 59.032C103.157 58.9245 102.838 55.4911 104.783 55.571C106.629 55.6454 106.952 59.032 105.001 59.032C104.529 59.032 103.576 59.7374 104.469 59.7374Z" fill="#5D7183"/>
<path d="M120.647 238.979H130.573C132.884 238.979 134.761 237.106 134.761 234.791V234.108C134.761 231.796 132.887 229.919 130.573 229.919H120.647C118.335 229.919 116.458 231.793 116.458 234.108V234.791C116.461 237.106 118.335 238.979 120.647 238.979Z" fill="white"/>
<path d="M120.217 239.261C123.058 239.261 125.899 239.261 128.74 239.261C129.939 239.261 131.118 239.307 132.264 238.88C134.287 238.128 135.422 236.411 135.422 234.276C135.422 232.046 134.083 230.129 131.81 229.724C130.743 229.533 129.58 229.649 128.506 229.649C126.706 229.649 124.904 229.649 123.105 229.649C122.03 229.649 120.892 229.558 119.834 229.779C117.522 230.264 115.849 231.991 115.791 234.4C115.731 237.1 117.47 239.137 120.217 239.261C120.512 239.274 121.735 238.732 121.077 238.704C118.745 238.599 117.194 236.778 117.125 234.51C117.062 232.407 118.106 230.377 120.407 230.203C122.791 230.024 125.257 230.203 127.649 230.203C128.464 230.203 129.288 230.164 130.104 230.203C132.187 230.299 133.874 231.796 134.077 233.909C134.281 236.015 133.397 238.503 130.964 238.704C130.118 238.773 129.236 238.704 128.387 238.704C125.951 238.704 123.513 238.704 121.077 238.704C120.785 238.701 119.569 239.261 120.217 239.261Z" fill="#5D7183"/>
<path d="M161.432 117.073H89.7871C88.266 117.073 87.0315 115.838 87.0315 114.317V89.5169C87.0315 87.9959 88.266 86.7614 89.7871 86.7614H161.432C162.953 86.7614 164.188 87.9959 164.188 89.5169V114.317C164.188 115.841 162.953 117.073 161.432 117.073Z" fill="#D5DFEF"/>
<path d="M121.352 95.3893C131.694 95.3893 142.038 95.3893 152.38 95.3893C153.846 95.3893 155.312 95.3893 156.778 95.3893C157.525 95.3893 157.811 94.4524 156.905 94.4524C146.563 94.4524 136.219 94.4524 125.877 94.4524C124.411 94.4524 122.945 94.4524 121.479 94.4524C120.735 94.4524 120.448 95.3893 121.352 95.3893Z" fill="white"/>
<path d="M121.352 102.967C131.694 102.967 142.038 102.967 152.38 102.967C153.846 102.967 155.312 102.967 156.778 102.967C157.525 102.967 157.811 102.03 156.905 102.03C146.563 102.03 136.219 102.03 125.877 102.03C124.411 102.03 122.945 102.03 121.479 102.03C120.735 102.03 120.448 102.967 121.352 102.967Z" fill="white"/>
<path d="M121.352 110.545C128.663 110.545 135.973 110.545 143.284 110.545C144.031 110.545 144.317 109.608 143.411 109.608C136.1 109.608 128.789 109.608 121.479 109.608C120.735 109.608 120.448 110.545 121.352 110.545Z" fill="white"/>
<path d="M161.432 162.708H89.7871C88.266 162.708 87.0315 161.473 87.0315 159.952V135.152C87.0315 133.631 88.266 132.396 89.7871 132.396H161.432C162.953 132.396 164.188 133.631 164.188 135.152V159.952C164.188 161.473 162.953 162.708 161.432 162.708Z" fill="#65B6A6"/>
<path d="M95.9455 140.863C106.287 140.863 116.632 140.863 126.973 140.863C128.439 140.863 129.905 140.863 131.371 140.863C132.118 140.863 132.405 139.926 131.498 139.926C121.156 139.926 110.812 139.926 100.47 139.926C99.0042 139.926 97.5382 139.926 96.0723 139.926C95.3283 139.923 95.0417 140.863 95.9455 140.863Z" fill="white"/>
<path d="M95.9453 148.441C106.287 148.441 116.631 148.441 126.973 148.441C128.439 148.441 129.905 148.441 131.371 148.441C132.118 148.441 132.404 147.504 131.498 147.504C121.156 147.504 110.812 147.504 100.47 147.504C99.004 147.504 97.5381 147.504 96.0721 147.504C95.3281 147.501 95.0415 148.441 95.9453 148.441Z" fill="white"/>
<path d="M95.9453 156.019C103.256 156.019 110.566 156.019 117.877 156.019C118.624 156.019 118.91 155.082 118.004 155.082C110.693 155.082 103.383 155.082 96.0721 155.082C95.3281 155.079 95.0415 156.019 95.9453 156.019Z" fill="white"/>
<path d="M161.432 208.343H89.7871C88.266 208.343 87.0315 207.108 87.0315 205.587V180.787C87.0315 179.266 88.266 178.031 89.7871 178.031H161.432C162.953 178.031 164.188 179.266 164.188 180.787V205.587C164.188 207.108 162.953 208.343 161.432 208.343Z" fill="#ABDCB3"/>
<path d="M121.352 186.656C131.694 186.656 142.038 186.656 152.38 186.656C153.846 186.656 155.312 186.656 156.778 186.656C157.525 186.656 157.811 185.719 156.905 185.719C146.563 185.719 136.219 185.719 125.877 185.719C124.411 185.719 122.945 185.719 121.479 185.719C120.735 185.719 120.448 186.656 121.352 186.656Z" fill="white"/>
<path d="M121.352 194.234C131.694 194.234 142.038 194.234 152.38 194.234C153.846 194.234 155.312 194.234 156.778 194.234C157.525 194.234 157.811 193.297 156.905 193.297C146.563 193.297 136.219 193.297 125.877 193.297C124.411 193.297 122.945 193.297 121.479 193.297C120.735 193.297 120.448 194.234 121.352 194.234Z" fill="white"/>
<path d="M121.352 201.812C128.663 201.812 135.973 201.812 143.284 201.812C144.031 201.812 144.317 200.875 143.411 200.875C136.1 200.875 128.789 200.875 121.479 200.875C120.735 200.875 120.448 201.812 121.352 201.812Z" fill="white"/>
<path d="M219.454 242.732C219.079 237.516 212.766 211.787 214.943 178.376C215.417 171.099 192.804 178.767 186.444 184.606C186.232 184.802 186.039 185.006 185.866 185.218C185.111 184.615 184.301 184.066 183.482 183.562C180.231 181.556 176.456 179.98 172.675 180.531C172.143 180.608 171.597 180.738 171.173 181.068C170.462 181.625 168.528 181.515 168.384 182.407C167.792 186.072 168.437 190.062 168.878 193.777C169.244 196.871 169.914 199.947 170.627 202.978C172.226 209.784 174.099 216.483 176.422 223.074C177.246 225.411 183.697 246.676 188.927 246.676C194.135 246.676 188.927 237.183 189.233 209.434C189.255 207.365 189.489 205.615 189.757 203.97C190.922 205.97 192.033 207.723 192.788 208.996C199.575 220.459 206.359 231.922 213.146 243.388C214.353 245.427 216.913 247.731 218.665 246.136C219.558 245.323 219.539 243.939 219.454 242.732Z" fill="#D5DFEF"/>
<path d="M198.087 192.264C193.022 192.443 187.122 192.438 182.063 192.129C177.624 191.859 172.259 190.98 168.39 189.685C168.533 191.066 168.718 192.441 168.878 193.777C169.244 196.872 169.914 199.947 170.627 202.978C172.226 209.784 174.099 216.483 176.422 223.074C177.246 225.411 183.697 246.676 188.927 246.676C194.135 246.676 188.927 237.183 189.233 209.434C189.25 207.957 189.374 206.643 189.539 205.411C189.605 204.929 190.244 204.802 190.495 205.218C191.382 206.698 192.193 207.993 192.785 208.996C199.572 220.459 206.356 231.923 213.143 243.388C214.35 245.428 216.91 247.731 218.663 246.136C219.555 245.323 219.536 243.937 219.451 242.733C219.266 240.153 216.285 221.782 216.285 221.782C210.975 214.926 199.47 192.215 198.087 192.264Z" fill="#E8EEF9"/>
<path d="M167.861 189.437C168.39 197.423 170.393 205.339 172.59 213.008C174.849 220.903 177.492 228.729 180.713 236.284C181.812 238.864 182.973 241.448 184.403 243.865C185.078 245.006 185.885 246.53 187.258 246.91C193.141 248.536 191.972 240.6 191.595 237.293C191.013 232.206 190.294 227.144 190.005 222.03C189.666 216.064 190.167 210.272 190.658 204.339C190.231 204.455 189.804 204.568 189.374 204.684C195.899 215.626 202.419 226.574 208.908 237.541C209.746 238.955 210.581 240.368 211.418 241.782C212.127 242.978 212.771 244.237 213.728 245.257C214.896 246.499 216.629 247.599 218.362 246.841C221.319 245.546 219.939 240.911 219.542 238.47C218.613 232.766 217.701 227.067 217.001 221.33C216.941 220.823 215.601 221.132 215.67 221.685C216.254 226.475 216.968 231.247 217.748 236.006C218.178 238.627 219.032 241.575 218.803 244.251C218.721 245.224 218.299 246.381 217.056 246.147C216.489 246.039 215.965 245.64 215.541 245.273C214.609 244.471 213.965 243.46 213.345 242.413C211.903 239.98 210.462 237.544 209.021 235.111C206.045 230.084 203.072 225.061 200.096 220.035C196.952 214.722 193.761 209.44 190.6 204.138C190.377 203.763 189.352 204.072 189.316 204.482C188.925 209.236 188.423 213.915 188.525 218.698C188.624 223.342 189.073 227.963 189.638 232.57C190.043 235.888 190.663 239.271 190.622 242.625C190.603 244.185 190.49 246.527 188.407 246.199C187.034 245.981 186.243 244.364 185.588 243.251C184.215 240.917 183.105 238.423 182.047 235.934C179.013 228.82 176.502 221.465 174.326 214.044C171.945 205.937 169.754 197.547 169.195 189.087C169.159 188.585 167.825 188.875 167.861 189.437Z" fill="#5D7183"/>
<path d="M178.605 138.522C171.705 139.423 163.645 140.534 157.679 136.048C151.082 131.088 152.033 123.061 151.688 115.747C151.62 114.273 151.675 112.463 151.099 111.074C150.578 109.82 149.366 109.112 148.252 108.442C147.922 108.244 146.687 108.745 147.183 109.043C148.393 109.77 149.564 110.531 149.944 111.964C150.341 113.466 150.333 115.169 150.385 116.712C150.517 120.479 150.269 124.309 151.074 128.018C152.705 135.543 159.313 139.459 166.61 139.936C170.556 140.195 174.499 139.688 178.404 139.178C179.01 139.098 179.534 138.401 178.605 138.522Z" fill="#5D7183"/>
<path d="M167.828 187.243C167.186 163.22 167.624 153.612 181.766 125.926C181.683 124.529 181.639 114.301 181.639 112.639C181.639 112.193 181.639 110.936 181.639 110.683C181.639 99.765 187.004 90.9141 193.623 90.9141C200.242 90.9141 205.607 99.765 205.607 110.683C205.607 110.95 205.607 112.206 205.607 112.639C205.607 115.962 205.904 119.084 205.825 122.405C205.803 123.281 206.073 123.862 206.037 124.739C206.023 125.064 206.321 127.031 206.395 127.351C211.967 151.099 215.422 156.635 216.508 188.117C217.183 188.583 191.399 193.347 167.828 187.243Z" fill="white"/>
<path d="M207.431 131.661C211.518 148.338 215.014 155.585 216.511 188.117C215.262 189.459 186.866 192.843 167.831 187.244C164.874 159.575 174.587 140.947 179.126 131.746C179.126 131.746 183.791 145.477 207.268 131.653C207.359 131.595 207.431 131.661 207.431 131.661Z" fill="white"/>
<path d="M184.207 122.901C184.177 122.813 184.149 122.716 184.127 122.614C183.915 121.664 183.339 118.936 184.463 118.47C185.028 118.236 187.266 119.396 187.486 120.052C187.767 120.895 187.155 122.893 186.555 123.452C185.907 124.053 184.664 124.254 184.207 122.901Z" fill="#5D7183"/>
<path d="M204.637 132.565C199.674 135.472 193.73 138.214 187.814 137.475C185.188 137.147 182.036 135.91 180.903 133.3C180.647 132.711 179.327 133.091 179.572 133.656C180.834 136.56 184.147 137.988 187.103 138.409C193.447 139.316 199.895 136.472 205.227 133.35C206.004 132.893 205.296 132.179 204.637 132.565Z" fill="#5D7183"/>
<path d="M195.932 86.9185C195.866 86.6705 198.451 86.1965 198.707 86.1607C201.947 85.7198 205.367 87.8306 205.761 91.2007C205.775 91.3136 205.841 92.132 205.877 92.854C205.91 93.5181 206.32 94.094 206.924 94.3806C211.355 96.4886 212.091 103.802 207.508 106.852C206.125 107.77 204.474 108.401 202.895 107.836C201.156 107.213 199.883 105.546 200.25 103.645C194.962 105.337 192.961 103.987 191.457 100.87C191.92 101.534 187.993 103.422 187.511 103.579C182.631 105.16 177.913 101.294 177.373 96.4418C177.153 94.4522 177.544 92.3966 178.5 90.6358C180.115 87.6597 182.055 88.1585 184.684 86.9736C186.257 86.2654 187.249 84.7691 188.905 84.1243C191.523 83.1048 194.937 84.1161 195.932 86.9185Z" fill="#D5DFEF"/>
<path d="M197.508 189.922C188.467 190.109 179.36 189.464 170.528 187.445C170.063 187.337 169.423 187.296 168.999 187.081C168.404 186.775 168.476 186.422 168.459 185.808C168.434 184.863 168.412 183.915 168.393 182.97C168.357 181.261 168.329 179.553 168.321 177.844C168.305 174.692 168.354 171.537 168.555 168.393C169.434 154.695 174.342 142.168 180.363 129.961C180.867 128.941 181.374 127.924 181.89 126.91C182.16 126.378 182.377 126.017 182.416 125.452C182.479 124.538 182.377 123.576 182.366 122.658C182.333 119.952 182.32 117.244 182.308 114.538C182.284 108.161 182.496 101.625 186.144 96.1138C187.765 93.6668 190.242 91.2998 193.358 91.2833C196.365 91.2667 198.894 93.3472 200.597 95.6508C205.32 102.047 204.766 109.941 205.067 117.445C205.207 120.988 205.036 124.579 205.852 128.056C206.825 132.209 207.883 136.34 208.952 140.47C210.718 147.299 212.471 154.127 213.573 161.101C213.879 163.033 214.141 164.973 214.37 166.913C214.422 167.345 215.758 167.051 215.701 166.557C214.901 159.839 213.601 153.226 211.961 146.665C211.118 143.286 210.225 139.919 209.363 136.546C208.451 132.981 207.329 129.363 206.825 125.714C205.819 118.428 207.147 110.842 205.524 103.631C204.372 98.5111 201.443 92.1678 195.836 90.7817C190.738 89.5224 186.362 93.281 184.075 97.4805C181.22 102.722 180.953 108.495 180.972 114.32C180.98 116.838 180.994 119.357 181.019 121.876C181.03 122.923 181.038 123.973 181.06 125.02C181.066 125.301 181.132 125.648 181.085 125.926C180.928 126.847 180.118 127.932 179.693 128.784C176.478 135.235 173.427 141.809 171.129 148.652C169.355 153.934 168.12 159.368 167.53 164.909C166.921 170.633 166.93 176.403 167.034 182.151C167.067 183.909 167.111 185.667 167.158 187.423C167.161 187.527 167.346 187.582 167.415 187.602C177.054 190.065 187.054 190.87 196.982 190.666C197.478 190.655 198.401 189.903 197.508 189.922Z" fill="#5D7183"/>
<path d="M231.589 245.786L196.13 183.532C195.378 182.209 195.838 180.525 197.161 179.773L218.709 167.5C220.032 166.747 221.716 167.208 222.468 168.53L257.927 230.784C258.679 232.107 258.219 233.791 256.896 234.543L235.348 246.816C234.025 247.568 232.341 247.108 231.589 245.786Z" fill="#65B6A6"/>
<path d="M208.665 188.433L205.638 185.513L209.565 184.008C210.171 182.886 211.045 181.932 212.109 181.23C215.682 178.864 220.497 179.844 222.862 183.418C225.228 186.991 224.248 191.806 220.674 194.171C217.101 196.537 212.286 195.557 209.921 191.983C209.216 190.922 208.784 189.702 208.665 188.433Z" fill="white"/>
<path d="M230.424 200.34C235.543 209.326 240.66 218.315 245.78 227.301C246.505 228.574 247.233 229.847 247.957 231.123C248.238 231.619 249.514 231.137 249.178 230.547C244.058 221.561 238.941 212.572 233.821 203.587C233.096 202.313 232.369 201.04 231.644 199.765C231.363 199.269 230.087 199.751 230.424 200.34Z" fill="white"/>
<path d="M223.838 204.091C228.958 213.077 234.075 222.065 239.194 231.051C239.919 232.324 240.647 233.598 241.371 234.873C241.652 235.369 242.928 234.887 242.592 234.297C237.472 225.312 232.355 216.323 227.235 207.337C226.511 206.064 225.783 204.791 225.058 203.515C224.777 203.019 223.504 203.501 223.838 204.091Z" fill="white"/>
<path d="M217.255 207.841C220.873 214.193 224.491 220.547 228.109 226.899C228.39 227.395 229.666 226.912 229.33 226.323C225.711 219.971 222.093 213.617 218.475 207.265C218.194 206.769 216.918 207.251 217.255 207.841Z" fill="white"/>
<path d="M195.367 148.933C202.148 151.46 204.154 158.765 204.763 165.281C205.37 171.782 206.312 180.801 214.025 182.647C214.356 182.727 215.527 182.198 215.111 182.099C206.695 180.084 206.698 169.688 205.885 162.903C205.163 156.869 202.52 150.647 196.453 148.384C196.13 148.266 194.932 148.77 195.367 148.933Z" fill="#5D7183"/>
<path d="M143.571 154.072L139.465 154.984L140.378 150.879C139.777 149.755 139.463 148.499 139.465 147.225C139.465 142.939 142.939 139.465 147.225 139.465C151.511 139.465 154.985 142.939 154.985 147.225C154.985 151.51 151.511 154.984 147.225 154.984C145.95 154.986 144.695 154.673 143.571 154.072Z" fill="white"/>
<path d="M99.5291 200.127L95.4235 201.039L96.336 196.934C95.735 195.809 95.4215 194.554 95.4235 193.279C95.4235 188.994 98.8975 185.52 103.183 185.52C107.469 185.52 110.943 188.994 110.943 193.279C110.943 197.565 107.469 201.039 103.183 201.039C101.909 201.041 100.653 200.728 99.5291 200.127Z" fill="white"/>
<path d="M99.5291 107.513L95.4235 108.426L96.336 104.32C95.735 103.196 95.4215 101.941 95.4235 100.666C95.4235 96.3804 98.8975 92.9064 103.183 92.9064C107.469 92.9064 110.943 96.3804 110.943 100.666C110.943 104.952 107.469 108.426 103.183 108.426C101.909 108.428 100.653 108.114 99.5291 107.513Z" fill="white"/>
</g>
<defs>
<clipPath id="clip0">
<rect width="197.385" height="205.508" fill="white" transform="translate(60.9031 45.1992)"/>
</clipPath>
</defs>
</svg>
