<svg width="250" height="250" viewBox="0 0 250 250" fill="none" xmlns="http://www.w3.org/2000/svg">
<path d="M250 0H0V250H250V0Z" fill="white"/>
<path d="M145.208 60.8955L128.02 43.708C126.291 41.9788 123.5 41.9788 121.77 43.708L104.583 60.8955C101.812 63.6663 103.77 68.4372 107.708 68.4372H114.479V160.479H135.312V68.4372H142.083C146.02 68.4372 147.979 63.6663 145.208 60.8955Z" fill="white"/>
<path d="M135.812 103.271C135.812 93.0415 135.812 82.7915 135.812 72.5623C135.812 71.1457 135.812 69.7082 135.812 68.2915C135.583 68.4165 135.333 68.5623 135.104 68.6873C136.5 68.6873 137.916 68.6873 139.312 68.6873C140.708 68.6873 142.25 68.854 143.604 68.4165C145.52 67.7915 146.937 66.0623 147 64.0207C147.041 62.6248 146.416 61.4582 145.458 60.4998C140.916 55.9165 136.333 51.3748 131.77 46.8123C130.895 45.9373 130.02 45.0623 129.145 44.1873C128.416 43.4582 127.708 42.7707 126.708 42.4165C124.833 41.7915 122.77 42.354 121.354 43.6873C120.812 44.1873 120.312 44.729 119.791 45.2498C114.979 50.0623 110.166 54.8748 105.354 59.6873C104.958 60.0832 104.541 60.479 104.145 60.8957C102.666 62.4373 102.375 64.729 103.52 66.5623C104.479 68.0832 106.083 68.6873 107.812 68.7082C109.52 68.7082 111.25 68.7082 112.958 68.7082C113.395 68.7082 113.854 68.7082 114.291 68.7082C114.187 68.6665 114.083 68.6248 114 68.5832C114 78.6665 114 88.7498 114 98.8332C114 100.271 114 101.708 114 103.146C114 103.417 115 103.25 115 102.875C115 92.7915 115 82.7082 115 72.6248C115 71.1873 115 69.7498 115 68.3123C115 68.1873 114.77 68.1873 114.708 68.1873C113.437 68.1873 112.187 68.1873 110.916 68.1873C109.625 68.1873 108.125 68.3957 106.875 68.0415C104.729 67.4373 103.416 65.0832 103.958 62.9373C104.208 61.9165 104.833 61.2082 105.541 60.4998C109.875 56.1665 114.229 51.8123 118.562 47.479C119.812 46.229 121.02 44.9165 122.312 43.729C124 42.1873 126.25 42.6457 127.75 44.1457C128.354 44.7498 128.958 45.354 129.541 45.9373C134.083 50.479 138.604 54.9998 143.145 59.5415C144.833 61.229 146.729 62.9373 145.75 65.6248C145.062 67.4998 143.5 68.229 141.625 68.229C139.979 68.229 138.333 68.229 136.708 68.229C136.312 68.229 135.916 68.229 135.541 68.229C135.312 68.229 134.833 68.3332 134.833 68.6248C134.833 78.854 134.833 89.104 134.833 99.3332C134.833 100.75 134.833 102.187 134.833 103.604C134.812 103.812 135.812 103.646 135.812 103.271Z" fill="#56627F"/>
<path d="M132.416 132.833C129.145 121.562 122.083 111.396 112.541 104.229C103 97.0623 91.2704 93.1248 79.5412 93.1248C79.4995 93.1248 78.0829 93.1248 75.9995 93.1248V86.2706C75.9995 82.3331 71.2495 80.3748 68.4579 83.1456L51.2704 100.333C49.5412 102.062 49.5412 104.854 51.2704 106.583L68.4579 123.771C71.2287 126.541 75.9995 124.583 75.9995 120.646V113.958C77.812 113.958 79.1662 113.958 79.5412 113.958C94.437 113.958 108.27 124.333 112.416 138.625C114.77 146.729 114.583 156.646 114.395 166.208C114.354 168.854 114.291 171.583 114.291 174.229H135.125C135.125 171.771 135.166 169.271 135.229 166.604C135.416 156 135.645 143.979 132.416 132.833Z" fill="white"/>
<path d="M124.125 115.146C115.166 103.291 101.708 95.3331 86.9996 93.2914C83.4162 92.7914 79.8121 92.7914 76.2079 92.7914C76.3121 92.8748 76.4162 92.9581 76.5204 93.0623C76.5204 91.6873 76.5204 90.3123 76.5204 88.9164C76.5204 87.5414 76.7287 85.8748 76.2496 84.5623C74.9162 81.0206 70.3954 80.7706 67.9371 83.1873C63.3954 87.6664 58.9371 92.1873 54.4371 96.6873C53.5204 97.6039 52.5829 98.5414 51.6662 99.4581C50.9996 100.125 50.3329 100.75 49.9371 101.604C49.1246 103.416 49.5829 105.416 50.9371 106.833C51.5204 107.437 52.1037 108 52.6871 108.583C57.4787 113.375 62.2912 118.187 67.0829 122.979C67.6037 123.5 68.1037 124.062 68.6871 124.479C70.3121 125.646 72.5412 125.583 74.2287 124.562C75.7704 123.625 76.5412 122.062 76.5412 120.271C76.5412 118.583 76.5412 116.875 76.5412 115.187C76.5412 114.75 76.5412 114.312 76.5412 113.854C76.3121 113.979 76.0829 114.104 75.8537 114.229C79.0412 114.229 82.1871 114.187 85.3329 114.771C88.6246 115.396 91.8329 116.521 94.7912 118.083C100.666 121.166 105.666 125.916 108.958 131.687C111.062 135.396 112.312 139.437 113.041 143.646C113.104 144.041 114.125 143.791 114.041 143.375C112.812 136.125 109.75 129.541 104.583 124.25C99.8746 119.437 93.8121 115.958 87.2287 114.437C83.5829 113.604 79.9371 113.562 76.2079 113.583C76.0204 113.583 75.5204 113.666 75.5204 113.958C75.5204 115.208 75.5204 116.458 75.5204 117.708C75.5204 118.937 75.6662 120.291 75.4371 121.521C74.9787 123.937 72.3537 125.396 70.0829 124.312C69.3537 123.958 68.8329 123.375 68.2704 122.812C63.8537 118.396 59.4162 113.958 54.9996 109.541C54.1871 108.729 53.3746 107.916 52.5412 107.083C51.9579 106.5 51.3121 105.937 50.9579 105.187C49.5204 102.25 51.8121 100.291 53.6454 98.4581C58.1871 93.9164 62.7079 89.3956 67.2496 84.8539C67.7704 84.3331 68.2912 83.7914 68.8121 83.2914C70.1871 81.9789 72.0829 81.7498 73.6662 82.8331C75.1454 83.8331 75.4996 85.3956 75.4996 87.0623C75.4996 88.7081 75.4996 90.3331 75.4996 91.9789C75.4996 92.3539 75.4996 92.7498 75.4996 93.1248C75.4996 93.2914 75.6454 93.3956 75.8121 93.3956C78.7704 93.3956 81.7287 93.3748 84.6662 93.6664C88.2912 94.0414 91.8746 94.7706 95.3537 95.8539C102.395 98.0623 109.02 101.666 114.645 106.458C117.812 109.146 120.666 112.208 123.166 115.521C123.437 115.875 124.395 115.5 124.125 115.146Z" fill="#56627F"/>
<path d="M198.708 100.333L181.52 83.1456C178.75 80.3748 173.979 82.3331 173.979 86.2706V93.1248C171.812 93.1248 170.312 93.1248 170.25 93.1248C158.52 93.1248 146.791 97.0623 137.25 104.229C127.687 111.396 120.625 121.562 117.375 132.833C114.145 143.979 114.375 156.021 114.583 166.625C114.625 169.271 114.687 171.791 114.687 174.25H135.52C135.52 171.583 135.458 168.854 135.416 166.229C135.229 156.646 135.041 146.75 137.395 138.646C141.541 124.333 155.354 113.958 170.27 113.958C170.645 113.958 172.083 113.958 174 113.958V120.646C174 124.583 178.75 126.541 181.541 123.771L198.729 106.583C200.437 104.854 200.437 102.062 198.708 100.333Z" fill="#C4EBC0"/>
<path d="M199.166 100.104C195.27 96.2083 191.375 92.3124 187.479 88.4166C185.708 86.6458 183.958 84.8749 182.187 83.1249C179.875 80.8333 175.979 80.9374 174.187 83.8749C173.312 85.2916 173.5 86.9583 173.5 88.5416C173.5 90.0833 173.5 91.6249 173.5 93.1666C173.687 93.0208 173.875 92.8958 174.062 92.7499C170.791 92.7499 167.541 92.7291 164.312 93.0833C160.479 93.5208 156.708 94.3541 153.062 95.5624C145.812 97.9791 139.062 101.854 133.354 106.937C128.02 111.687 123.583 117.458 120.416 123.854C116.895 130.937 115.187 138.646 114.479 146.5C113.666 155.75 114.229 165 114.229 174.271C114.229 174.542 114.479 174.604 114.687 174.604C120.77 174.604 126.854 174.604 132.937 174.604C133.791 174.604 134.666 174.604 135.52 174.604C135.729 174.604 136.083 174.437 136.083 174.187C136.083 167.75 135.77 161.312 135.916 154.875C136.041 148.958 136.458 142.875 138.375 137.25C141.562 127.917 149 120.354 158.104 116.687C160.666 115.667 163.354 114.937 166.104 114.583C168.729 114.25 171.354 114.312 174 114.312C173.854 114.208 173.687 114.083 173.541 113.979C173.541 115.458 173.541 116.937 173.541 118.437C173.541 119.958 173.354 121.583 174.104 122.958C175.104 124.812 177.333 125.729 179.375 125.333C180.604 125.083 181.541 124.375 182.395 123.5C187.25 118.646 192.104 113.792 196.937 108.958C197.666 108.229 198.395 107.521 199.104 106.792C200.875 104.896 200.979 102.042 199.166 100.104C198.854 99.7708 197.895 100.167 198.25 100.562C199.875 102.312 199.854 104.792 198.208 106.5C197.666 107.062 197.104 107.604 196.541 108.167C194.187 110.521 191.833 112.875 189.479 115.229C187.187 117.521 184.916 119.792 182.625 122.083C182.125 122.583 181.645 123.083 181.145 123.562C179.604 125.021 177.312 125 175.77 123.542C174.354 122.187 174.52 120.333 174.52 118.562C174.52 117.021 174.52 115.479 174.52 113.917C174.52 113.646 174.27 113.583 174.062 113.583C171.687 113.583 169.291 113.5 166.916 113.771C164.416 114.042 161.958 114.583 159.583 115.375C154.958 116.937 150.645 119.458 147 122.75C143.333 126.062 140.333 130.104 138.354 134.646C136.041 139.958 135.291 145.792 135 151.521C134.604 159.104 135.041 166.687 135.062 174.271C135.25 174.125 135.437 174 135.625 173.854C129.541 173.854 123.458 173.854 117.375 173.854C116.52 173.854 115.645 173.854 114.791 173.854C114.937 173.958 115.104 174.083 115.25 174.187C115.229 158.5 113.687 142.146 119.875 127.271C125.541 113.625 136.791 102.667 150.52 97.2499C154.583 95.6458 158.833 94.5416 163.166 93.9583C166.77 93.4791 170.354 93.4791 173.979 93.4791C174.187 93.4791 174.541 93.3124 174.541 93.0624C174.541 90.7499 174.437 88.3958 174.541 86.0833C174.645 83.8124 176.541 81.9374 178.875 82.2291C179.979 82.3749 180.791 83.0208 181.541 83.7708C185.687 87.9166 189.812 92.0416 193.958 96.1874C195.416 97.6458 196.854 99.0833 198.312 100.542C198.583 100.896 199.52 100.479 199.166 100.104Z" fill="#56627F"/>
<path d="M208.28 189.121C208.137 189.306 207.135 189.491 204.987 189.707C189.969 191.205 172.213 190.742 156.765 190.742C127.75 190.757 98.7168 190.433 69.7195 190.433C51.6231 190.124 30.5553 189.321 48.4906 188.241C68.8782 187.006 90.9842 187.191 111.605 187.036C130.292 186.897 148.979 187.006 167.648 187.33C170.816 187.376 209.032 188.102 208.28 189.121Z" fill="#E8EEF9"/>
</svg>
