<svg width="20" height="20" viewBox="0 0 20 20" fill="none" xmlns="http://www.w3.org/2000/svg">
<rect opacity="0.15" width="20" height="20" rx="10" fill="white"/>
<path d="M14.1666 10.0787C14.1666 10.4717 13.8522 10.7862 13.4591 10.7862H10.6289V13.4592C10.6289 13.8522 10.3144 14.1667 9.92136 14.1667C9.52828 14.1667 9.21382 13.8522 9.21382 13.4592V10.7862H6.54086C6.14778 10.7862 5.83331 10.4717 5.83331 10.0787C5.83331 9.68558 6.14778 9.37111 6.54086 9.37111H9.21382V6.54092C9.21382 6.14784 9.52828 5.83337 9.92136 5.83337C10.3144 5.83337 10.6289 6.14784 10.6289 6.54092V9.37111H13.4591C13.8522 9.37111 14.1666 9.68558 14.1666 10.0787Z" fill="white"/>
</svg>
