<svg width="58" height="58" viewBox="0 0 58 58" fill="none" xmlns="http://www.w3.org/2000/svg">
<path d="M35.5703 7.70312H43.5C45.9922 7.70312 48.0312 9.74219 48.0312 12.2344V49.3906C48.0312 51.8828 45.9922 53.9219 43.5 53.9219H14.5C12.0078 53.9219 9.96875 51.8828 9.96875 49.3906V12.2344C9.96875 9.74219 12.0078 7.70312 14.5 7.70312H17.4453" fill="white"/>
<path d="M32.625 10.6484H25.375C23.6078 10.6484 22.2031 9.24375 22.2031 7.47656C22.2031 5.70937 23.6078 4.30469 25.375 4.30469H32.625C34.3922 4.30469 35.7969 5.70937 35.7969 7.47656C35.7969 9.24375 34.3922 10.6484 32.625 10.6484Z" fill="white"/>
<path d="M43.5 6.34375H37.0203C36.5219 4.39531 34.7547 2.94531 32.625 2.94531H25.375C22.8828 2.94531 20.8438 4.98438 20.8438 7.47656C20.8438 9.96875 22.8828 12.0078 25.375 12.0078H32.625C34.5734 12.0078 36.2047 10.7844 36.8844 9.0625H43.5C45.2672 9.0625 46.6719 10.4672 46.6719 12.2344V49.3906C46.6719 51.1578 45.2672 52.5625 43.5 52.5625H14.5C12.7328 52.5625 11.3281 51.1578 11.3281 49.3906V12.2344C11.3281 10.4672 12.7328 9.0625 14.5 9.0625H17.4453C18.2156 9.0625 18.8047 8.47344 18.8047 7.70312C18.8047 6.93281 18.2156 6.34375 17.4453 6.34375H14.5C11.2375 6.34375 8.60938 8.97188 8.60938 12.2344V49.3906C8.60938 52.6531 11.2375 55.2812 14.5 55.2812H43.5C46.7625 55.2812 49.3906 52.6531 49.3906 49.3906V12.2344C49.3906 8.97188 46.7625 6.34375 43.5 6.34375ZM32.625 9.28906H25.375C24.3781 9.28906 23.5625 8.47344 23.5625 7.47656C23.5625 6.47969 24.3781 5.66406 25.375 5.66406H32.625C33.6219 5.66406 34.4375 6.47969 34.4375 7.47656C34.4375 8.47344 33.6219 9.28906 32.625 9.28906Z" fill="#50A98F"/>
<path d="M38.5156 25.8281H25.8281C25.0578 25.8281 24.4688 25.2391 24.4688 24.4688C24.4688 23.6984 25.0578 23.1094 25.8281 23.1094H38.5156C39.2859 23.1094 39.875 23.6984 39.875 24.4688C39.875 25.2391 39.2859 25.8281 38.5156 25.8281Z" fill="#96D0A5"/>
<path d="M38.5156 34.8906H25.8281C25.0578 34.8906 24.4688 34.3016 24.4688 33.5312C24.4688 32.7609 25.0578 32.1719 25.8281 32.1719H38.5156C39.2859 32.1719 39.875 32.7609 39.875 33.5312C39.875 34.3016 39.2859 34.8906 38.5156 34.8906Z" fill="#96D0A5"/>
<path d="M38.5156 43.9531H25.8281C25.0578 43.9531 24.4688 43.3641 24.4688 42.5938C24.4688 41.8234 25.0578 41.2344 25.8281 41.2344H38.5156C39.2859 41.2344 39.875 41.8234 39.875 42.5938C39.875 43.3641 39.2859 43.9531 38.5156 43.9531Z" fill="#96D0A5"/>
<path d="M19.0312 25.828C18.9406 25.828 18.85 25.828 18.7594 25.7827C18.6688 25.7827 18.5781 25.7374 18.4875 25.6921C18.3969 25.6468 18.3516 25.6014 18.2609 25.5561C18.1703 25.5108 18.125 25.4655 18.0797 25.3749C17.8078 25.1936 17.6719 24.8311 17.6719 24.4686C17.6719 24.378 17.6719 24.2874 17.7172 24.1968C17.7172 24.1061 17.7625 24.0155 17.8078 23.9249C17.8531 23.8342 17.8984 23.7889 17.9437 23.6983C17.9891 23.6077 18.0344 23.5624 18.125 23.4717C18.2156 23.3811 18.2609 23.3358 18.3063 23.2905C18.3969 23.2452 18.4422 23.1999 18.5328 23.1546C18.6234 23.1092 18.7141 23.1093 18.8047 23.0639C19.2578 22.9733 19.7109 23.1093 20.0281 23.4264C20.0734 23.4718 20.1641 23.5624 20.2094 23.653C20.2547 23.7436 20.3 23.7889 20.3453 23.8796C20.3906 23.9702 20.3906 24.0608 20.4359 24.1514C20.4359 24.2421 20.4813 24.3327 20.4813 24.4233C20.4813 24.7858 20.3453 25.1483 20.0734 25.3749C19.7562 25.6921 19.3937 25.828 19.0312 25.828Z" fill="#96D0A5"/>
<path d="M19.0312 34.8906C18.9406 34.8906 18.85 34.8906 18.7594 34.8453C18.6688 34.8453 18.5781 34.8 18.4875 34.7547C18.3969 34.7093 18.3516 34.664 18.2609 34.6187C18.1703 34.5734 18.125 34.5281 18.0797 34.4375C17.8078 34.2562 17.6719 33.8937 17.6719 33.5312C17.6719 33.1687 17.8078 32.8062 18.0797 32.5797C18.125 32.5343 18.2156 32.4437 18.2609 32.3984C18.3516 32.3531 18.3969 32.3078 18.4875 32.2625C18.5781 32.2172 18.6688 32.2172 18.7594 32.1718C19.2125 32.0812 19.6656 32.2172 19.9828 32.5343C20.2547 32.8062 20.3906 33.1234 20.3906 33.4859C20.3906 33.8484 20.2547 34.2109 19.9828 34.4375C19.7562 34.7547 19.3937 34.8906 19.0312 34.8906Z" fill="#96D0A5"/>
<path d="M19.0312 43.953C18.9406 43.953 18.85 43.953 18.7594 43.9077C18.6688 43.9077 18.5781 43.8624 18.4875 43.8171C18.3969 43.7717 18.3516 43.7264 18.2609 43.6811C18.1703 43.6358 18.125 43.5905 18.0797 43.4999C17.8078 43.3186 17.6719 42.9561 17.6719 42.5936C17.6719 42.503 17.6719 42.4124 17.7172 42.3218C17.7172 42.2311 17.7625 42.1405 17.8078 42.0499C17.8531 41.9593 17.8984 41.9139 17.9437 41.8233C17.9891 41.7327 18.0344 41.6874 18.125 41.5968C18.2156 41.5061 18.2609 41.4608 18.3063 41.4155C18.3969 41.3702 18.4422 41.3249 18.5328 41.2796C18.6234 41.2342 18.7141 41.2343 18.8047 41.1889C19.2578 41.0983 19.7109 41.2342 20.0281 41.5514C20.0734 41.5967 20.1641 41.6874 20.2094 41.778C20.2547 41.8686 20.3 41.9139 20.3453 42.0046C20.3906 42.0952 20.3906 42.1858 20.4359 42.2764C20.4359 42.3671 20.4813 42.4577 20.4813 42.5483C20.4813 42.9108 20.3453 43.2733 20.0734 43.4999C19.7562 43.8171 19.3937 43.953 19.0312 43.953Z" fill="#96D0A5"/>
</svg>
