<svg width="17" height="17" viewBox="0 0 17 17" fill="none" xmlns="http://www.w3.org/2000/svg">
<path d="M1.33594 12.8771C1.33594 12.5089 1.63441 12.2105 2.0026 12.2105H5.33594C5.70413 12.2105 6.0026 12.5089 6.0026 12.8771C6.0026 13.2453 5.70413 13.5438 5.33594 13.5438H2.0026C1.63441 13.5438 1.33594 13.2453 1.33594 12.8771ZM1.33594 8.21047C1.33594 7.84228 1.63441 7.5438 2.0026 7.5438H6.66927C7.03746 7.5438 7.33594 7.84228 7.33594 8.21047C7.33594 8.57866 7.03746 8.87714 6.66927 8.87714H2.0026C1.63441 8.87714 1.33594 8.57866 1.33594 8.21047ZM1.33594 3.5438C1.33594 3.17561 1.63441 2.87714 2.0026 2.87714H14.0026C14.3708 2.87714 14.6693 3.17561 14.6693 3.5438C14.6693 3.91199 14.3708 4.21047 14.0026 4.21047H2.0026C1.63441 4.21047 1.33594 3.91199 1.33594 3.5438Z" fill="#7B89A6"/>
<path d="M12.6693 11.2438C12.6693 11.4095 12.8036 11.5438 12.9693 11.5438H13.945C14.2123 11.5438 14.3461 11.8669 14.1571 12.0559L12.2147 13.9983C12.0976 14.1155 11.9076 14.1155 11.7905 13.9983L9.84807 12.0559C9.65908 11.8669 9.79293 11.5438 10.0602 11.5438H11.0359C11.2016 11.5438 11.3359 11.4095 11.3359 11.2438V7.17714C11.3359 7.01145 11.4703 6.87714 11.6359 6.87714H12.3693C12.535 6.87714 12.6693 7.01145 12.6693 7.17714V11.2438Z" fill="#7B89A6"/>
</svg>
