<svg width="20" height="21" viewBox="0 0 20 21" fill="none" xmlns="http://www.w3.org/2000/svg">
<path d="M9.52435 2.15786C9.67403 1.69721 10.3257 1.69721 10.4754 2.15786L11.8772 6.47212C11.9822 6.79518 11.7414 7.12663 11.4017 7.12663H8.59809C8.25841 7.12663 8.0176 6.79518 8.12256 6.47212L9.52435 2.15786Z" fill="#F9C573"/>
<path d="M11.2657 16.1449C10.9909 15.9452 10.9909 15.5355 11.2657 15.3358L13.5336 13.6881C13.8084 13.4885 14.1981 13.6151 14.303 13.9381L15.7047 18.2519C15.8544 18.7126 15.3271 19.0957 14.9353 18.811L11.2657 16.1449Z" fill="#F9C573"/>
<path d="M18.7551 8.86447C19.1469 8.57977 18.9455 7.95996 18.4612 7.95996H1.53884C1.05448 7.95996 0.853093 8.57977 1.24495 8.86447L5.88645 12.2367C6.06169 12.364 6.13502 12.5897 6.06808 12.7957L4.29519 18.2521C4.14551 18.7128 4.67275 19.0959 5.06461 18.8112L18.7551 8.86447Z" fill="#F9C573"/>
</svg>
