<svg width="24" height="24" viewBox="0 0 24 24" fill="none" xmlns="http://www.w3.org/2000/svg">
<path d="M12.4885 18.5334C12.185 18.3635 11.8151 18.3635 11.5116 18.5334L6.83874 21.1491C6.09414 21.5659 5.20319 20.9186 5.36946 20.0816L6.41296 14.829C6.48073 14.4879 6.3664 14.1361 6.11105 13.9L2.17884 10.2639C1.55231 9.68457 1.89259 8.63716 2.73998 8.53666L8.05822 7.90592C8.40356 7.86496 8.70282 7.64754 8.84849 7.33176L11.092 2.4684C11.4494 1.69358 12.5506 1.69358 12.9081 2.4684L15.1516 7.33176C15.2973 7.64754 15.5965 7.86496 15.9418 7.90592L21.2601 8.53666C22.1075 8.63716 22.4478 9.68457 21.8212 10.2639L17.889 13.9C17.6337 14.1361 17.5193 14.4879 17.5871 14.829L18.6306 20.0816C18.7969 20.9186 17.9059 21.5659 17.1613 21.1491L12.4885 18.5334Z" fill="#8C95F8"/>
</svg>
