<svg width="20" height="20" viewBox="0 0 20 20" fill="none" xmlns="http://www.w3.org/2000/svg">
<path d="M4.16683 1.66663H15.8335C16.0545 1.66663 16.2665 1.75442 16.4228 1.9107C16.579 2.06698 16.6668 2.27895 16.6668 2.49996V17.5C16.6668 17.721 16.579 17.9329 16.4228 18.0892C16.2665 18.2455 16.0545 18.3333 15.8335 18.3333H4.16683C3.94582 18.3333 3.73385 18.2455 3.57757 18.0892C3.42129 17.9329 3.3335 17.721 3.3335 17.5V2.49996C3.3335 2.27895 3.42129 2.06698 3.57757 1.9107C3.73385 1.75442 3.94582 1.66663 4.16683 1.66663ZM10.0002 14.1666C9.77915 14.1666 9.56719 14.2544 9.41091 14.4107C9.25463 14.567 9.16683 14.7789 9.16683 15C9.16683 15.221 9.25463 15.4329 9.41091 15.5892C9.56719 15.7455 9.77915 15.8333 10.0002 15.8333C10.2212 15.8333 10.4331 15.7455 10.5894 15.5892C10.7457 15.4329 10.8335 15.221 10.8335 15C10.8335 14.7789 10.7457 14.567 10.5894 14.4107C10.4331 14.2544 10.2212 14.1666 10.0002 14.1666Z" fill="#B4C0D4"/>
</svg>
