<svg width="64" height="64" viewBox="0 0 64 64" fill="none" xmlns="http://www.w3.org/2000/svg">
<path d="M16.95 19.15C15.4 21 14.5 23.35 14.5 25.75V57C14.5 59.75 16.75 62 19.5 62H44.5C47.25 62 49.5 59.75 49.5 57V25.75C49.5 23.35 48.6 21 47.05 19.15L39.55 10.6C35.55 6.05 28.5 6.05 24.5 10.6L16.95 19.15Z" fill="white"/>
<path d="M48.1504 18.2001C48.1504 18.2001 40.4004 9.4001 40.3004 9.2501C38.1504 7.0001 35.1504 5.7001 32.0004 5.7001C28.7004 5.7001 25.5504 7.1001 23.4004 9.5501L23.0504 9.9001L14.7004 1.5501C14.1004 0.950098 13.1504 0.950098 12.6004 1.5501C12.0004 2.1501 12.0004 3.1001 12.6004 3.6501L31.0004 22.0501C31.3004 22.3501 31.7004 22.5001 32.0504 22.5001C32.4004 22.5001 32.8004 22.3501 33.1004 22.0501C33.7004 21.4501 33.7004 20.5001 33.1004 19.9501L30.8504 17.7001C31.2004 17.5501 31.6004 17.5001 32.0004 17.5001C33.9504 17.5001 35.5004 19.0501 35.5004 21.0001C35.5004 22.9501 33.9504 24.5001 32.0004 24.5001C31.0004 24.5001 30.1004 24.1001 29.4004 23.3501C28.8504 22.7501 27.9004 22.7001 27.3004 23.2501C26.7004 23.8001 26.6504 24.7501 27.2004 25.3501C28.4504 26.7001 30.2004 27.4501 32.0004 27.4501C35.6004 27.4501 38.5004 24.5501 38.5004 20.9501C38.5004 17.3501 35.6004 14.4501 32.0004 14.4501C30.8004 14.4501 29.6004 14.8001 28.6004 15.4001L25.1504 11.9501L25.5004 11.6001C25.5504 11.5501 25.5504 11.5501 25.6004 11.5001C27.2004 9.6501 29.5504 8.6001 32.0004 8.6001C34.4504 8.6001 36.8004 9.6501 38.4004 11.5001L45.9004 20.0501C47.2504 21.6001 48.0004 23.6001 48.0004 25.6501V57.0001C48.0004 58.9501 46.4504 60.5001 44.5004 60.5001H19.5004C17.5504 60.5001 16.0004 58.9501 16.0004 57.0001V25.7501C16.0004 23.7001 16.7504 21.7001 18.1004 20.1501L19.6004 18.4501C20.1504 17.8501 20.1004 16.9001 19.4504 16.3501C18.8504 15.8001 17.9004 15.8501 17.3504 16.5001L15.8504 18.2001C14.0004 20.3001 13.0004 22.9501 13.0004 25.7501V57.0001C13.0004 60.6001 15.9004 63.5001 19.5004 63.5001H44.5004C48.1004 63.5001 51.0004 60.6001 51.0004 57.0001V25.7501C51.0004 22.9501 50.0004 20.3001 48.1504 18.2001Z" fill="#B4C0D4"/>
</svg>
