<svg width="52" height="52" viewBox="0 0 52 52" fill="none" xmlns="http://www.w3.org/2000/svg">
<path d="M26 34.9375C30.4873 34.9375 34.125 31.2998 34.125 26.8125C34.125 22.3252 30.4873 18.6875 26 18.6875C21.5127 18.6875 17.875 22.3252 17.875 26.8125C17.875 31.2998 21.5127 34.9375 26 34.9375Z" fill="white"/>
<path d="M26 36.1562C20.8406 36.1562 16.6562 31.9719 16.6562 26.8125C16.6562 21.6531 20.8406 17.4688 26 17.4688C31.1594 17.4688 35.3438 21.6531 35.3438 26.8125C35.3438 31.9719 31.1594 36.1562 26 36.1562ZM26 19.9062C22.1813 19.9062 19.0938 22.9938 19.0938 26.8125C19.0938 30.6312 22.1813 33.7188 26 33.7188C29.8188 33.7188 32.9063 30.6312 32.9063 26.8125C32.9063 22.9938 29.8188 19.9062 26 19.9062Z" fill="#5893FF"/>
<path d="M40.829 48.2216C40.504 48.2216 40.179 48.0997 39.9352 47.856C36.279 43.956 31.3227 41.8028 26.0008 41.8028C20.679 41.8028 15.7227 43.956 12.0665 47.856C11.6196 48.3435 10.8477 48.3841 10.3602 47.8966C9.8727 47.4497 9.83208 46.6778 10.3196 46.1903C14.3415 41.8435 20.0696 39.3247 26.0008 39.3247C31.9321 39.3247 37.6602 41.8028 41.7227 46.1497C42.1696 46.6372 42.1696 47.4091 41.6821 47.856C41.4383 48.0997 41.1133 48.2216 40.829 48.2216Z" fill="#5893FF"/>
<path d="M50.5781 29.2094C50.2531 29.2094 49.9281 29.0875 49.6844 28.8438C47.0031 25.9594 43.3469 24.375 39.4062 24.375C38.7156 24.375 38.1875 23.8469 38.1875 23.1562C38.1875 22.4656 38.7156 21.9375 39.4062 21.9375C43.9562 21.9375 48.3437 23.8469 51.4719 27.1781C51.9187 27.6656 51.9187 28.4375 51.4312 28.8844C51.1875 29.0875 50.8625 29.2094 50.5781 29.2094Z" fill="#DBE4F3"/>
<path d="M39.4068 5.5249C36.035 5.5249 33.2725 8.2874 33.2725 11.6593C33.2725 15.0312 36.035 17.7937 39.4068 17.7937C42.7787 17.7937 45.5412 15.0312 45.5412 11.6593C45.5412 8.2874 42.7787 5.5249 39.4068 5.5249Z" fill="#DBE4F3"/>
<path d="M1.42231 29.2095C1.13794 29.2095 0.812939 29.0876 0.569189 28.8845C0.0816887 28.4376 0.0410637 27.6657 0.528564 27.1782C3.65669 23.8063 8.04419 21.897 12.5942 21.897C13.2848 21.897 13.8129 22.4251 13.8129 23.1157C13.8129 23.8063 13.2848 24.3345 12.5942 24.3345C8.65356 24.3345 4.99731 25.9188 2.31606 28.8032C2.07231 29.0876 1.74731 29.2095 1.42231 29.2095Z" fill="#DBE4F3"/>
<path d="M12.5943 5.5249C9.22246 5.5249 6.45996 8.2874 6.45996 11.6593C6.45996 15.0312 9.22246 17.7937 12.5943 17.7937C15.9662 17.7937 18.7287 15.0312 18.7287 11.6593C18.7287 8.2874 15.9662 5.5249 12.5943 5.5249Z" fill="#DBE4F3"/>
</svg>
