<svg width="60" height="60" viewBox="0 0 60 60" fill="none" xmlns="http://www.w3.org/2000/svg">
<rect y="30" width="42.4264" height="42.4264" rx="16" transform="rotate(-45 0 30)" fill="#97A4BD"/>
<path d="M37.376 30.4161L26.777 37.4821C26.7017 37.5322 26.6142 37.5609 26.5239 37.5652C26.4336 37.5696 26.3437 37.5493 26.264 37.5066C26.1843 37.4639 26.1176 37.4004 26.0711 37.3228C26.0246 37.2452 26 37.1565 26 37.0661V22.9341C26 22.8436 26.0246 22.7549 26.0711 22.6773C26.1176 22.5997 26.1843 22.5362 26.264 22.4935C26.3437 22.4508 26.4336 22.4306 26.5239 22.4349C26.6142 22.4392 26.7017 22.468 26.777 22.5181L37.376 29.5841C37.4445 29.6297 37.5006 29.6916 37.5395 29.7642C37.5783 29.8367 37.5986 29.9178 37.5986 30.0001C37.5986 30.0824 37.5783 30.1634 37.5395 30.236C37.5006 30.3085 37.4445 30.3704 37.376 30.4161Z" fill="white"/>
</svg>
