<svg width="36" height="36" viewBox="0 0 36 36" fill="none" xmlns="http://www.w3.org/2000/svg">
<path opacity="0.25" d="M18 36C27.9411 36 36 27.9411 36 18C36 8.05887 27.9411 0 18 0C8.05887 0 0 8.05887 0 18C0 27.9411 8.05887 36 18 36Z" fill="#D5DFEF"/>
<path d="M24.5711 15.717C24.5711 15.5724 24.5711 15.4287 24.5612 15.2857C25.2237 14.8146 25.7954 14.2298 26.25 13.5605C25.6329 13.8302 24.977 14.0072 24.3063 14.0852C25.0125 13.6685 25.5413 13.0138 25.7946 12.2414C25.1297 12.6296 24.4028 12.9034 23.6446 13.0504C22.3626 11.7086 20.2184 11.6436 18.8547 12.9058C17.9761 13.7197 17.6023 14.9332 17.8754 16.0906C15.1537 15.9558 12.6177 14.6903 10.8984 12.6085C9.99998 14.1315 10.4595 16.0793 11.947 17.0572C11.4083 17.0418 10.8811 16.8988 10.41 16.6405V16.6828C10.4108 18.2691 11.5468 19.6353 13.1259 19.9496C12.6276 20.0836 12.1045 20.1031 11.598 20.0065C12.041 21.3646 13.3124 22.2946 14.7602 22.3214C13.5615 23.249 12.0806 23.7526 10.556 23.751C10.2871 23.7501 10.0181 23.7347 9.75 23.703C11.2985 24.681 13.0995 25.2 14.9392 25.1976C21.1655 25.2 24.5711 20.121 24.5711 15.717Z" fill="#B4C0D4"/>
</svg>
