<svg width="16" height="16" viewBox="0 0 16 16" fill="none" xmlns="http://www.w3.org/2000/svg">
<path d="M16 2.66667C16 2.29833 15.7017 2 15.3333 2H6.66667V8.66667H0V13.3333C0 13.7017 0.298333 14 0.666667 14H15.3333C15.7017 14 16 13.7017 16 13.3333V2.66667Z" fill="#D12639"/>
<path d="M16.0003 3.3335H6.66699V4.66683H16.0003V3.3335Z" fill="#E6E6E6"/>
<path d="M16.0003 6H6.66699V7.33333H16.0003V6Z" fill="#E6E6E6"/>
<path d="M0 8.6665V9.99984H16V8.6665H6.66667H0Z" fill="#E6E6E6"/>
<path d="M16 11.3335H0V12.6668H16V11.3335Z" fill="#E6E6E6"/>
<path d="M6.66667 8.66667H0V2.66667C0 2.29833 0.298333 2 0.666667 2H6.66667V8.66667Z" fill="#003AA6"/>
<path d="M3.33343 4.64062L3.12243 5.09662H2.62109L2.98776 5.47662L2.85243 6.02596L3.33343 5.75329L3.81443 6.02596L3.67909 5.47662L4.04576 5.09662H3.54376L3.33343 4.64062Z" fill="white"/>
<path d="M1.70223 3.00977L1.49157 3.46577H0.990234L1.35657 3.84577L1.22123 4.3951L1.70223 4.12243L2.18357 4.3951L2.0479 3.84577L2.41457 3.46577H1.91257L1.70223 3.00977Z" fill="white"/>
<path d="M4.96429 3.00977L5.17495 3.46577H5.67629L5.30995 3.84577L5.44529 4.3951L4.96429 4.12243L4.48295 4.3951L4.61862 3.84577L4.25195 3.46577H4.75395L4.96429 3.00977Z" fill="white"/>
<path d="M1.70223 7.65682L1.49157 7.20082H0.990234L1.35657 6.82082L1.22123 6.27148L1.70223 6.54415L2.18357 6.27148L2.0479 6.82082L2.41457 7.20082H1.91257L1.70223 7.65682Z" fill="white"/>
<path d="M4.96429 7.65682L5.17495 7.20082H5.67629L5.30995 6.82082L5.44529 6.27148L4.96429 6.54415L4.48295 6.27148L4.61862 6.82082L4.25195 7.20082H4.75395L4.96429 7.65682Z" fill="white"/>
</svg>
