<svg width="16" height="16" viewBox="0 0 16 16" fill="none" xmlns="http://www.w3.org/2000/svg">
<path d="M13.3334 14.6666H2.66675V13.3333C2.66675 12.4492 3.01794 11.6014 3.64306 10.9763C4.26818 10.3511 5.11603 9.99996 6.00008 9.99996H10.0001C10.8841 9.99996 11.732 10.3511 12.3571 10.9763C12.9822 11.6014 13.3334 12.4492 13.3334 13.3333V14.6666ZM8.00008 8.66663C7.47479 8.66663 6.95465 8.56316 6.46935 8.36214C5.98405 8.16113 5.54309 7.86649 5.17165 7.49505C4.80022 7.12362 4.50558 6.68266 4.30456 6.19736C4.10354 5.71206 4.00008 5.19191 4.00008 4.66663C4.00008 4.14134 4.10354 3.62119 4.30456 3.13589C4.50558 2.65059 4.80022 2.20963 5.17165 1.8382C5.54309 1.46676 5.98405 1.17213 6.46935 0.971108C6.95465 0.770089 7.47479 0.666626 8.00008 0.666626C9.06095 0.666626 10.0784 1.08805 10.8285 1.8382C11.5787 2.58834 12.0001 3.60576 12.0001 4.66663C12.0001 5.72749 11.5787 6.74491 10.8285 7.49505C10.0784 8.2452 9.06095 8.66663 8.00008 8.66663Z" fill="white"/>
</svg>
