<svg width="16" height="16" viewBox="0 0 16 16" fill="none" xmlns="http://www.w3.org/2000/svg">
<path d="M3.33341 13.333H12.6667V14.6663H3.33341V13.333ZM8.00008 11.9997C6.58559 11.9997 5.22904 11.4378 4.22885 10.4376C3.22865 9.43738 2.66675 8.08083 2.66675 6.66634C2.66675 5.25185 3.22865 3.8953 4.22885 2.89511C5.22904 1.89491 6.58559 1.33301 8.00008 1.33301C9.41457 1.33301 10.7711 1.89491 11.7713 2.89511C12.7715 3.8953 13.3334 5.25185 13.3334 6.66634C13.3334 8.08083 12.7715 9.43738 11.7713 10.4376C10.7711 11.4378 9.41457 11.9997 8.00008 11.9997ZM8.00008 10.6663C9.06095 10.6663 10.0784 10.2449 10.8285 9.49477C11.5787 8.74462 12.0001 7.72721 12.0001 6.66634C12.0001 5.60548 11.5787 4.58806 10.8285 3.83791C10.0784 3.08777 9.06095 2.66634 8.00008 2.66634C6.93922 2.66634 5.9218 3.08777 5.17165 3.83791C4.42151 4.58806 4.00008 5.60548 4.00008 6.66634C4.00008 7.72721 4.42151 8.74462 5.17165 9.49477C5.9218 10.2449 6.93922 10.6663 8.00008 10.6663Z" fill="#B4C0D4"/>
</svg>
