<svg width="28" height="28" viewBox="0 0 28 28" fill="none" xmlns="http://www.w3.org/2000/svg">
<circle cx="14" cy="14" r="14" fill="#97A4BD"/>
<circle cx="14" cy="14" r="13.5" stroke="black" stroke-opacity="0.05"/>
<path d="M8.69727 9.22705H18.8462C18.8927 9.22697 18.9384 9.23911 18.9787 9.26226C19.019 9.2854 19.0525 9.31873 19.0759 9.35891C19.0992 9.39908 19.1116 9.4447 19.1118 9.49117C19.112 9.53765 19.0999 9.58336 19.0769 9.62372L17.1821 12.9392L19.0769 16.2546C19.0999 16.295 19.112 16.3407 19.1118 16.3872C19.1116 16.4336 19.0992 16.4793 19.0759 16.5194C19.0525 16.5596 19.019 16.5929 18.9787 16.6161C18.9384 16.6392 18.8927 16.6514 18.8462 16.6513H9.75787V19.3028H8.69727V9.22705Z" fill="white"/>
</svg>
