<svg width="16" height="17" viewBox="0 0 16 17" fill="none" xmlns="http://www.w3.org/2000/svg">
<path d="M2.00016 2.71094H14.0002C14.177 2.71094 14.3465 2.78118 14.4716 2.9062C14.5966 3.03122 14.6668 3.20079 14.6668 3.3776V14.0443C14.6668 14.2211 14.5966 14.3907 14.4716 14.5157C14.3465 14.6407 14.177 14.7109 14.0002 14.7109H2.00016C1.82335 14.7109 1.65378 14.6407 1.52876 14.5157C1.40373 14.3907 1.3335 14.2211 1.3335 14.0443V3.3776C1.3335 3.20079 1.40373 3.03122 1.52876 2.9062C1.65378 2.78118 1.82335 2.71094 2.00016 2.71094ZM13.3335 7.3776H2.66683V13.3776H13.3335V7.3776ZM3.3335 4.71094V6.04427H4.66683V4.71094H3.3335ZM6.00016 4.71094V6.04427H7.3335V4.71094H6.00016Z" fill="#717CEF"/>
</svg>
