<?xml version="1.0" encoding="UTF-8"?>
<svg width="12px" height="12px" viewBox="0 0 12 12" version="1.1" xmlns="http://www.w3.org/2000/svg" xmlns:xlink="http://www.w3.org/1999/xlink">
    <!-- Generator: sketchtool 52.2 (67145) - http://www.bohemiancoding.com/sketch -->
    <title>94E7F0C2-C9DA-4C46-86B7-E704E95A9D7A</title>
    <desc>Created with sketchtool.</desc>
    <defs>
        <polygon id="path-1" points="-10 -10 22 -10 22 22 -10 22"></polygon>
        <filter x="-7.8%" y="-7.8%" width="115.6%" height="121.9%" filterUnits="objectBoundingBox" id="filter-2">
            <feOffset dx="0" dy="2" in="SourceAlpha" result="shadowOffsetOuter1"></feOffset>
            <feGaussianBlur stdDeviation="0.5" in="shadowOffsetOuter1" result="shadowBlurOuter1"></feGaussianBlur>
            <feColorMatrix values="0 0 0 0 0   0 0 0 0 0.141176471   0 0 0 0 0.501960784  0 0 0 0.06 0" type="matrix" in="shadowBlurOuter1" result="shadowMatrixOuter1"></feColorMatrix>
            <feOffset dx="0" dy="0" in="SourceAlpha" result="shadowOffsetOuter2"></feOffset>
            <feGaussianBlur stdDeviation="0.5" in="shadowOffsetOuter2" result="shadowBlurOuter2"></feGaussianBlur>
            <feColorMatrix values="0 0 0 0 0   0 0 0 0 0   0 0 0 0 0  0 0 0 0.0272871377 0" type="matrix" in="shadowBlurOuter2" result="shadowMatrixOuter2"></feColorMatrix>
            <feMerge>
                <feMergeNode in="shadowMatrixOuter1"></feMergeNode>
                <feMergeNode in="shadowMatrixOuter2"></feMergeNode>
            </feMerge>
        </filter>
        <path d="M5,10.6666667 C5,11.4 5.6,12 6.33333333,12 C7.06666667,12 7.66666667,11.4 7.66666667,10.6666667 C7.66666667,9.93333333 7.06666667,9.33333333 6.33333333,9.33333333 C5.6,9.33333333 5,9.93333333 5,10.6666667 Z M5,6 C5,6.73333333 5.6,7.33333333 6.33333333,7.33333333 C7.06666667,7.33333333 7.66666667,6.73333333 7.66666667,6 C7.66666667,5.26666667 7.06666667,4.66666667 6.33333333,4.66666667 C5.6,4.66666667 5,5.26666667 5,6 Z M7.66666667,1.33333333 C7.66666667,0.6 7.06666667,0 6.33333333,0 C5.6,0 5,0.6 5,1.33333333 C5,2.06666667 5.6,2.66666667 6.33333333,2.66666667 C7.06666667,2.66666667 7.66666667,2.06666667 7.66666667,1.33333333 Z" id="path-3"></path>
    </defs>
    <g id="UI-Kit" stroke="none" stroke-width="1" fill="none" fill-rule="evenodd">
       
       
        <g id="🈲/12/More">
            <mask id="mask-4" >
                <use xlink:href="#path-3"></use>
            </mask>
            <use id="More-Button" fill="#b5b6d1" fill-rule="nonzero" xlink:href="#path-3"></use>
        </g>
    </g>
</svg>