<svg width="173" height="16" viewBox="0 0 173 16" fill="none" xmlns="http://www.w3.org/2000/svg">
<path fill-rule="evenodd" clip-rule="evenodd" d="M3.48037 15.3369C3.12289 15.5537 2.71356 15.6683 2.29635 15.6683C1.02811 15.6683 0 14.6318 0 13.3532L0 2.18856L9.27763 7.86057C9.59595 8.05518 9.86256 8.32489 10.0545 8.64646C10.7084 9.742 10.3576 11.1645 9.27095 11.8238L3.48037 15.3369Z" fill="url(#paint0_linear)"/>
<mask id="mask0" mask-type="alpha" maskUnits="userSpaceOnUse" x="0" y="2" width="11" height="14">
<path fill-rule="evenodd" clip-rule="evenodd" d="M3.48037 15.3369C3.12289 15.5537 2.71356 15.6683 2.29635 15.6683C1.02811 15.6683 0 14.6318 0 13.3532L0 2.18856L9.27763 7.86057C9.59595 8.05518 9.86256 8.32489 10.0545 8.64646C10.7084 9.742 10.3576 11.1645 9.27095 11.8238L3.48037 15.3369Z" fill="white"/>
</mask>
<g mask="url(#mask0)">
</g>
<path fill-rule="evenodd" clip-rule="evenodd" d="M0 10.7977L0 2.31544C0 1.88717 0.117833 1.4673 0.340393 1.10251C1.00485 0.0134341 2.41921 -0.326385 3.49945 0.343501L6.99891 2.5136C7.30537 2.70364 7.56326 2.96363 7.75176 3.2726C8.41622 4.36168 8.07915 5.7876 6.99891 6.45748L0 10.7977Z" fill="url(#paint1_linear)"/>
<path d="M21.6491 3.72595H18.2274V13.003H19.4924V9.40064H21.6491C23.5768 9.40064 24.8659 8.26811 24.8659 6.55727C24.8659 4.85848 23.5768 3.72595 21.6491 3.72595ZM21.7214 8.38859H19.4924V4.73799H21.7214C22.8298 4.73799 23.5647 5.47293 23.5647 6.55727C23.5647 7.6657 22.8298 8.38859 21.7214 8.38859ZM28.535 13.1235C30.4145 13.1235 31.6675 11.8344 31.6675 9.88257C31.6675 7.93076 30.4145 6.64161 28.535 6.64161C26.6675 6.64161 25.4145 7.93076 25.4145 9.88257C25.4145 11.8344 26.6675 13.1235 28.535 13.1235ZM28.535 12.1476C27.4024 12.1476 26.6434 11.232 26.6434 9.88257C26.6434 8.52112 27.4024 7.61751 28.535 7.61751C29.6796 7.61751 30.4386 8.52112 30.4386 9.88257C30.4386 11.232 29.6796 12.1476 28.535 12.1476ZM40.614 6.76209L39.1562 11.7259H39.1321L37.6863 6.76209H36.5176L35.0598 11.7259H35.0357L33.5899 6.76209H32.3249L34.3731 13.003H35.6622L37.0719 8.03919H37.096L38.5056 13.003H39.7947L41.8429 6.76209H40.614ZM48.6551 9.93076C48.6551 7.95486 47.4382 6.64161 45.5828 6.64161C43.7273 6.64161 42.4984 7.93076 42.4984 9.88257C42.4984 11.8223 43.7273 13.1235 45.5828 13.1235C47.137 13.1235 48.3538 12.2199 48.643 10.8585H47.4623C47.2454 11.6777 46.4864 12.232 45.5828 12.232C44.4984 12.232 43.7635 11.3886 43.6912 10.1115H48.6551V9.93076ZM45.5828 7.50908C46.5948 7.50908 47.3057 8.25606 47.4502 9.42474H43.7033C43.8478 8.25606 44.5707 7.50908 45.5828 7.50908ZM53.434 6.64161C52.5304 6.64161 51.6991 7.21992 51.3618 8.07534H51.3377V6.76209H50.1328V13.003H51.3377V9.9669C51.3377 8.62956 52.0726 7.73799 53.181 7.73799C53.5545 7.73799 53.9883 7.81028 54.2533 7.90667V6.76209C54.0485 6.6898 53.7232 6.64161 53.434 6.64161ZM60.915 9.93076C60.915 7.95486 59.6981 6.64161 57.8427 6.64161C55.9873 6.64161 54.7584 7.93076 54.7584 9.88257C54.7584 11.8223 55.9873 13.1235 57.8427 13.1235C59.3969 13.1235 60.6138 12.2199 60.903 10.8585H59.7222C59.5054 11.6777 58.7463 12.232 57.8427 12.232C56.7584 12.232 56.0235 11.3886 55.9512 10.1115H60.915V9.93076ZM57.8427 7.50908C58.8548 7.50908 59.5656 8.25606 59.7102 9.42474H55.9632C56.1078 8.25606 56.8307 7.50908 57.8427 7.50908ZM66.9952 3.72595V7.95486H66.9711C66.6097 7.13558 65.694 6.64161 64.6819 6.64161C63.0554 6.64161 61.9711 7.93076 61.9711 9.88257C61.9711 11.8344 63.0554 13.1235 64.6699 13.1235C65.694 13.1235 66.6217 12.6296 66.9711 11.8223H66.9952V13.003H68.2V3.72595H66.9952ZM65.1036 12.1476C63.9591 12.1476 63.2 11.244 63.2 9.88257C63.2 8.52112 63.9591 7.61751 65.1036 7.61751C66.2362 7.61751 66.9952 8.52112 66.9952 9.88257C66.9952 11.244 66.2362 12.1476 65.1036 12.1476ZM76.5822 6.64161C75.5822 6.64161 74.6665 7.13558 74.3051 7.95486H74.281V3.72595H73.0761V13.003H74.281V11.8223H74.3051C74.6545 12.6296 75.5822 13.1235 76.5942 13.1235C78.2207 13.1235 79.305 11.8344 79.305 9.88257C79.305 7.93076 78.2087 6.64161 76.5822 6.64161ZM76.1725 12.1476C75.04 12.1476 74.281 11.244 74.281 9.88257C74.281 8.52112 75.04 7.61751 76.1725 7.61751C77.305 7.61751 78.0641 8.52112 78.0641 9.88257C78.0641 11.244 77.305 12.1476 76.1725 12.1476ZM85.0503 6.76209L83.0985 11.8826H83.0744L81.1347 6.76209H79.8576L82.472 13.2681L81.4961 15.7741H82.6768L86.2792 6.76209H85.0503ZM95.3652 8.19582V8.17172C96.317 7.83438 96.8953 7.12353 96.8953 6.17173C96.8953 4.70185 95.6784 3.72595 93.8712 3.72595H90.2929V13.003H94.2085C96.1001 13.003 97.3531 11.9789 97.3531 10.4247C97.3531 9.3163 96.5941 8.48498 95.3652 8.19582ZM93.9314 4.73799C94.9314 4.73799 95.5941 5.35245 95.5941 6.26811C95.5941 7.17173 94.9314 7.78618 93.9314 7.78618H91.5579V4.73799H93.9314ZM94.2688 11.991H91.5579V8.71389H94.2688C95.329 8.71389 96.0519 9.36449 96.0519 10.3404C96.0519 11.3283 95.329 11.991 94.2688 11.991ZM102.086 6.64161C101.182 6.64161 100.351 7.21992 100.013 8.07534H99.9892V6.76209H98.7844V13.003H99.9892V9.9669C99.9892 8.62956 100.724 7.73799 101.833 7.73799C102.206 7.73799 102.64 7.81028 102.905 7.90667V6.76209C102.7 6.6898 102.375 6.64161 102.086 6.64161ZM108.458 6.76209V7.95486H108.434C108.072 7.13558 107.157 6.64161 106.145 6.64161C104.518 6.64161 103.434 7.93076 103.434 9.88257C103.434 11.8344 104.518 13.1235 106.133 13.1235C107.157 13.1235 108.084 12.6296 108.434 11.8223H108.458V13.003H109.663V6.76209H108.458ZM106.566 12.1476C105.422 12.1476 104.663 11.244 104.663 9.88257C104.663 8.52112 105.422 7.61751 106.566 7.61751C107.699 7.61751 108.458 8.52112 108.458 9.88257C108.458 11.244 107.699 12.1476 106.566 12.1476ZM114.984 6.64161C114.008 6.64161 113.14 7.13558 112.791 7.88257H112.767V6.76209H111.562V13.003H112.767V9.55727C112.767 8.40064 113.442 7.61751 114.466 7.61751C115.369 7.61751 115.972 8.25606 115.972 9.19582V13.003H117.177V9.06329C117.177 7.60546 116.297 6.64161 114.984 6.64161ZM123.6 3.72595V7.95486H123.576C123.215 7.13558 122.299 6.64161 121.287 6.64161C119.661 6.64161 118.576 7.93076 118.576 9.88257C118.576 11.8344 119.661 13.1235 121.275 13.1235C122.299 13.1235 123.227 12.6296 123.576 11.8223H123.6V13.003H124.805V3.72595H123.6ZM121.709 12.1476C120.564 12.1476 119.805 11.244 119.805 9.88257C119.805 8.52112 120.564 7.61751 121.709 7.61751C122.841 7.61751 123.6 8.52112 123.6 9.88257C123.6 11.244 122.841 12.1476 121.709 12.1476ZM131.886 8.19582V8.17172C132.838 7.83438 133.416 7.12353 133.416 6.17173C133.416 4.70185 132.199 3.72595 130.392 3.72595H126.814V13.003H130.73C132.621 13.003 133.874 11.9789 133.874 10.4247C133.874 9.3163 133.115 8.48498 131.886 8.19582ZM130.452 4.73799C131.452 4.73799 132.115 5.35245 132.115 6.26811C132.115 7.17173 131.452 7.78618 130.452 7.78618H128.079V4.73799H130.452ZM130.79 11.991H128.079V8.71389H130.79C131.85 8.71389 132.573 9.36449 132.573 10.3404C132.573 11.3283 131.85 11.991 130.79 11.991ZM138.016 13.1235C139.895 13.1235 141.148 11.8344 141.148 9.88257C141.148 7.93076 139.895 6.64161 138.016 6.64161C136.148 6.64161 134.895 7.93076 134.895 9.88257C134.895 11.8344 136.148 13.1235 138.016 13.1235ZM138.016 12.1476C136.883 12.1476 136.124 11.232 136.124 9.88257C136.124 8.52112 136.883 7.61751 138.016 7.61751C139.16 7.61751 139.919 8.52112 139.919 9.88257C139.919 11.232 139.16 12.1476 138.016 12.1476ZM145.311 13.1235C147.19 13.1235 148.443 11.8344 148.443 9.88257C148.443 7.93076 147.19 6.64161 145.311 6.64161C143.443 6.64161 142.19 7.93076 142.19 9.88257C142.19 11.8344 143.443 13.1235 145.311 13.1235ZM145.311 12.1476C144.178 12.1476 143.419 11.232 143.419 9.88257C143.419 8.52112 144.178 7.61751 145.311 7.61751C146.455 7.61751 147.214 8.52112 147.214 9.88257C147.214 11.232 146.455 12.1476 145.311 12.1476ZM152.16 13.1235C153.798 13.1235 154.882 12.3524 154.882 11.2079C154.882 9.81028 153.557 9.53317 152.425 9.32835C151.557 9.17172 150.774 9.0151 150.774 8.37654C150.774 7.82233 151.328 7.44883 152.16 7.44883C152.979 7.44883 153.545 7.94281 153.569 8.6657H154.714C154.678 7.44883 153.653 6.64161 152.16 6.64161C150.629 6.64161 149.605 7.3645 149.605 8.46088C149.605 9.75004 150.846 10.0151 151.943 10.1958C152.858 10.3524 153.714 10.5211 153.714 11.3043C153.714 11.9067 153.087 12.3163 152.16 12.3163C151.208 12.3163 150.569 11.7982 150.545 11.0392H149.413C149.449 12.2922 150.545 13.1235 152.16 13.1235ZM159.827 7.64161V6.76209H157.766V4.95486H156.622V6.76209H155.549V7.64161H156.562V11.2681C156.562 12.3765 157.357 13.1235 158.537 13.1235C158.971 13.1235 159.489 13.0271 159.827 12.8705V11.991C159.586 12.1115 159.212 12.1838 158.911 12.1838C158.224 12.1838 157.766 11.7862 157.766 11.1958V7.64161H159.827ZM161.579 13.1235C162.061 13.1235 162.362 12.8223 162.362 12.3645C162.362 11.9187 162.061 11.6175 161.579 11.6175C161.109 11.6175 160.796 11.9187 160.796 12.3645C160.796 12.8223 161.109 13.1235 161.579 13.1235ZM164.628 5.37655C165.074 5.37655 165.363 5.09944 165.363 4.67775C165.363 4.26812 165.074 3.99101 164.628 3.99101C164.195 3.99101 163.906 4.26812 163.906 4.67775C163.906 5.09944 164.195 5.37655 164.628 5.37655ZM164.038 13.003H165.243V6.76209H164.038V13.003ZM169.866 13.1235C171.745 13.1235 172.998 11.8344 172.998 9.88257C172.998 7.93076 171.745 6.64161 169.866 6.64161C167.998 6.64161 166.745 7.93076 166.745 9.88257C166.745 11.8344 167.998 13.1235 169.866 13.1235ZM169.866 12.1476C168.733 12.1476 167.974 11.232 167.974 9.88257C167.974 8.52112 168.733 7.61751 169.866 7.61751C171.01 7.61751 171.769 8.52112 171.769 9.88257C171.769 11.232 171.01 12.1476 169.866 12.1476Z" fill="#09204F"/>
<defs>
<linearGradient id="paint0_linear" x1="7.05822" y1="2.93524" x2="-2.91142" y2="6.55342" gradientUnits="userSpaceOnUse">
<stop stop-color="#2C3DAF"/>
<stop offset="1" stop-color="#0B156F"/>
</linearGradient>
<linearGradient id="paint1_linear" x1="-1.47542" y1="6.20779" x2="4.97561" y2="8.63305" gradientUnits="userSpaceOnUse">
<stop stop-color="#32CFFF" stop-opacity="0.8"/>
<stop offset="1" stop-color="#2F8DFF"/>
</linearGradient>
</defs>
</svg>
