<?xml version="1.0" encoding="UTF-8"?>
<svg width="16px" height="16px" viewBox="0 0 16 16" version="1.1" xmlns="http://www.w3.org/2000/svg" xmlns:xlink="http://www.w3.org/1999/xlink">
    <!-- Generator: Sketch 52.2 (67145) - http://www.bohemiancoding.com/sketch -->
    <title>Chat_Color</title>
    <desc>Created with Sketch.</desc>
    <defs>
        <linearGradient x1="100%" y1="0%" x2="2.75018064%" y2="97.2498194%" id="linearGradient-1">
            <stop stop-color="#5A99F6" offset="0%"></stop>
            <stop stop-color="#1266C1" offset="100%"></stop>
        </linearGradient>
        <path d="M3.95073031,12.3667408 L0.7,13 L1.3314348,9.48200614 C0.926431509,8.62279649 0.7,7.6628412 0.7,6.65 C0.7,2.97730641 3.67730641,0 7.35,0 C11.0226936,0 14,2.97730641 14,6.65 C14,10.3226936 11.0226936,13.3 7.35,13.3 C6.10796164,13.3 4.9454526,12.9594945 3.95073031,12.3667408 Z" id="path-2"></path>
        <path d="M1.38575163,0.545882353 L6.75150327,0.545882353 C7.11536146,0.545882353 7.4103268,0.840847694 7.4103268,1.20470588 L7.4103268,1.20470588 C7.4103268,1.56856407 7.11536146,1.86352941 6.75150327,1.86352941 L1.38575163,1.86352941 C1.02189345,1.86352941 0.726928105,1.56856407 0.726928105,1.20470588 L0.726928105,1.20470588 C0.726928105,0.840847694 1.02189345,0.545882353 1.38575163,0.545882353 Z" id="path-4"></path>
        <filter x="-3.7%" y="-19.0%" width="107.5%" height="175.9%" filterUnits="objectBoundingBox" id="filter-5">
            <feOffset dx="0" dy="0.5" in="SourceAlpha" result="shadowOffsetOuter1"></feOffset>
            <feColorMatrix values="0 0 0 0 0   0 0 0 0 0   0 0 0 0 0  0 0 0 0.2 0" type="matrix" in="shadowOffsetOuter1"></feColorMatrix>
        </filter>
        <path d="M1.38575163,3.18117647 L4.32117647,3.18117647 C4.68503466,3.18117647 4.98,3.47614181 4.98,3.84 L4.98,3.84 C4.98,4.20385819 4.68503466,4.49882353 4.32117647,4.49882353 L1.38575163,4.49882353 C1.02189345,4.49882353 0.726928105,4.20385819 0.726928105,3.84 L0.726928105,3.84 C0.726928105,3.47614181 1.02189345,3.18117647 1.38575163,3.18117647 Z" id="path-6"></path>
        <filter x="-5.9%" y="-19.0%" width="111.8%" height="175.9%" filterUnits="objectBoundingBox" id="filter-7">
            <feOffset dx="0" dy="0.5" in="SourceAlpha" result="shadowOffsetOuter1"></feOffset>
            <feColorMatrix values="0 0 0 0 0   0 0 0 0 0   0 0 0 0 0  0 0 0 0.2 0" type="matrix" in="shadowOffsetOuter1"></feColorMatrix>
        </filter>
    </defs>
    <g id="Chat_Color" stroke="none" stroke-width="1" fill="none" fill-rule="evenodd">
        <g id="Group" transform="translate(1.000000, 1.000000)">
            <g id="*ï¸âƒ£/ðŸŽ¨-Color/Product/14/Gradient-">
                <mask id="mask-3" fill="white">
                    <use xlink:href="#path-2"></use>
                </mask>
                <use id="Mask" fill="url(#linearGradient-1)" fill-rule="nonzero" xlink:href="#path-2"></use>
            </g>
            <g id="Group-2" transform="translate(3.500000, 4.500000)">
                <g id="Rectangle-146">
                    <use fill="black" fill-opacity="1" filter="url(#filter-5)" xlink:href="#path-4"></use>
                    <use fill="#FFFFFF" fill-rule="evenodd" xlink:href="#path-4"></use>
                </g>
                <g id="Rectangle-146-Copy">
                    <use fill="black" fill-opacity="1" filter="url(#filter-7)" xlink:href="#path-6"></use>
                    <use fill="#FFFFFF" fill-rule="evenodd" xlink:href="#path-6"></use>
                </g>
            </g>
        </g>
    </g>
</svg>