<?xml version="1.0" encoding="UTF-8"?>
<svg width="16px" height="16px" viewBox="0 0 16 16" version="1.1" xmlns="http://www.w3.org/2000/svg" xmlns:xlink="http://www.w3.org/1999/xlink">
    <!-- Generator: Sketch 52.2 (67145) - http://www.bohemiancoding.com/sketch -->
    <title>People_Light</title>
    <desc>Created with Sketch.</desc>
    <defs>
        <path d="M4.5,0 L10.5,0 C12.709139,-4.05812251e-16 14.5,1.790861 14.5,4 L14.5,10 C14.5,12.209139 12.709139,14 10.5,14 L4.5,14 C2.290861,14 0.5,12.209139 0.5,10 L0.5,4 C0.5,1.790861 2.290861,4.05812251e-16 4.5,0 Z M7.5,6.2 C8.3836556,6.2 9.1,5.4836556 9.1,4.6 C9.1,3.7163444 8.3836556,3 7.5,3 C6.6163444,3 5.9,3.7163444 5.9,4.6 C5.9,5.4836556 6.6163444,6.2 7.5,6.2 Z M3.50028964,10.5996028 C3.49090589,10.72959 3.71187207,11 3.82333432,11 C7.0709888,11 9.51827728,11 11.1652,11 C11.499073,11 11.5042613,10.697737 11.499073,10.6 C11.3688372,8.1465964 9.62054064,7 7.49259616,7 C5.39418326,7 3.67255934,8.21325792 3.50028964,10.5996028 Z" id="path-1"></path>
        <filter x="-3.6%" y="-3.6%" width="107.1%" height="107.1%" filterUnits="objectBoundingBox" id="filter-2">
            <feOffset dx="0" dy="1" in="SourceAlpha" result="shadowOffsetInner1"></feOffset>
            <feComposite in="shadowOffsetInner1" in2="SourceAlpha" operator="arithmetic" k2="-1" k3="1" result="shadowInnerInner1"></feComposite>
            <feColorMatrix values="0 0 0 0 1   0 0 0 0 1   0 0 0 0 1  0 0 0 0.1 0" type="matrix" in="shadowInnerInner1"></feColorMatrix>
        </filter>
    </defs>
    <g id="People_Light" stroke="none" stroke-width="1" fill="none" fill-rule="evenodd">
        <g id="Group" transform="translate(0.500000, 1.000000)">
            <g id="Combined-Shape">
                <use fill="#FFFFFF" fill-rule="evenodd" xlink:href="#path-1"></use>
                <use fill="black" fill-opacity="1" filter="url(#filter-2)" xlink:href="#path-1"></use>
            </g>
        </g>
    </g>
</svg>