<?xml version="1.0" encoding="UTF-8"?>
<svg width="16px" height="16px" viewBox="0 0 16 16" version="1.1" xmlns="http://www.w3.org/2000/svg" xmlns:xlink="http://www.w3.org/1999/xlink">
    <!-- Generator: Sketch 52.2 (67145) - http://www.bohemiancoding.com/sketch -->
    <title>Segment_Color</title>
    <desc>Created with Sketch.</desc>
    <defs>
        <linearGradient x1="0%" y1="100%" x2="100%" y2="0%" id="linearGradient-1">
            <stop stop-color="#5869EB" offset="0%"></stop>
            <stop stop-color="#6190FA" offset="100%"></stop>
        </linearGradient>
    </defs>
    <g id="Segment_Color" stroke="none" stroke-width="1" fill="none" fill-rule="evenodd">
        <g id="Group" transform="translate(1.000000, 2.000000)" fill="url(#linearGradient-1)">
            <path d="M8.16666667,12 L5.83333333,12 C5.18900113,12 4.66666667,11.4627417 4.66666667,10.8 C4.66666667,10.1372583 5.18900113,9.6 5.83333333,9.6 L8.16666667,9.6 C8.81099887,9.6 9.33333333,10.1372583 9.33333333,10.8 C9.33333333,11.4627417 8.81099887,12 8.16666667,12 Z" id="Path"></path>
            <path d="M10.5,7.2 L3.5,7.2 C2.85566779,7.2 2.33333333,6.6627417 2.33333333,6 C2.33333333,5.3372583 2.85566779,4.8 3.5,4.8 L10.5,4.8 C11.1443322,4.8 11.6666667,5.3372583 11.6666667,6 C11.6666667,6.6627417 11.1443322,7.2 10.5,7.2 Z" id="Path" opacity="0.7"></path>
            <path d="M12.8333333,2.4 L1.16666667,2.4 C0.522334459,2.4 0,1.8627417 0,1.2 C0,0.5372583 0.522334459,4.52970994e-14 1.16666667,4.52970994e-14 L12.8333333,4.52970994e-14 C13.4776655,4.52970994e-14 14,0.5372583 14,1.2 C14,1.8627417 13.4776655,2.4 12.8333333,2.4 Z" id="Path" opacity="0.4"></path>
        </g>
    </g>
</svg>