<?xml version="1.0" encoding="UTF-8"?>
<svg width="16px" height="16px" viewBox="0 0 16 16" version="1.1" xmlns="http://www.w3.org/2000/svg" xmlns:xlink="http://www.w3.org/1999/xlink">
    <!-- Generator: Sketch 52.2 (67145) - http://www.bohemiancoding.com/sketch -->
    <title>People_Segment_Default</title>
    <desc>Created with Sketch.</desc>
    <defs>
        <linearGradient x1="50%" y1="9.1824051%" x2="50%" y2="218.114672%" id="linearGradient-1">
            <stop stop-color="#BCC6EF" offset="0%"></stop>
            <stop stop-color="#BCC6EF" stop-opacity="0.5" offset="100%"></stop>
        </linearGradient>
        <path d="M8.16666667,12 L5.83333333,12 C5.18900113,12 4.66666667,11.4627417 4.66666667,10.8 C4.66666667,10.1372583 5.18900113,9.6 5.83333333,9.6 L8.16666667,9.6 C8.81099887,9.6 9.33333333,10.1372583 9.33333333,10.8 C9.33333333,11.4627417 8.81099887,12 8.16666667,12 Z" id="path-2"></path>
        <filter x="-5.4%" y="-10.4%" width="110.7%" height="141.7%" filterUnits="objectBoundingBox" id="filter-3">
            <feOffset dx="0" dy="0.5" in="SourceAlpha" result="shadowOffsetOuter1"></feOffset>
            <feColorMatrix values="0 0 0 0 0   0 0 0 0 0   0 0 0 0 0  0 0 0 0.2 0" type="matrix" in="shadowOffsetOuter1"></feColorMatrix>
        </filter>
        <path d="M10.5,7.2 L3.5,7.2 C2.85566779,7.2 2.33333333,6.6627417 2.33333333,6 C2.33333333,5.3372583 2.85566779,4.8 3.5,4.8 L10.5,4.8 C11.1443322,4.8 11.6666667,5.3372583 11.6666667,6 C11.6666667,6.6627417 11.1443322,7.2 10.5,7.2 Z" id="path-4"></path>
        <filter x="-2.7%" y="-10.4%" width="105.4%" height="141.7%" filterUnits="objectBoundingBox" id="filter-5">
            <feOffset dx="0" dy="0.5" in="SourceAlpha" result="shadowOffsetOuter1"></feOffset>
            <feColorMatrix values="0 0 0 0 0   0 0 0 0 0   0 0 0 0 0  0 0 0 0.2 0" type="matrix" in="shadowOffsetOuter1"></feColorMatrix>
        </filter>
        <linearGradient x1="6.72283212%" y1="84.6486649%" x2="100%" y2="9.36374193%" id="linearGradient-6">
            <stop stop-color="#5E6893" offset="0%"></stop>
            <stop stop-color="#5E6893" stop-opacity="0.5" offset="100%"></stop>
        </linearGradient>
        <path d="M12.8333333,2.4 L1.16666667,2.4 C0.522334459,2.4 0,1.8627417 0,1.2 C0,0.5372583 0.522334459,4.52970994e-14 1.16666667,4.52970994e-14 L12.8333333,4.52970994e-14 C13.4776655,4.52970994e-14 14,0.5372583 14,1.2 C14,1.8627417 13.4776655,2.4 12.8333333,2.4 Z" id="path-7"></path>
        <filter x="-1.8%" y="-10.4%" width="103.6%" height="120.8%" filterUnits="objectBoundingBox" id="filter-8">
            <feOffset dx="0" dy="0.5" in="SourceAlpha" result="shadowOffsetInner1"></feOffset>
            <feComposite in="shadowOffsetInner1" in2="SourceAlpha" operator="arithmetic" k2="-1" k3="1" result="shadowInnerInner1"></feComposite>
            <feColorMatrix values="0 0 0 0 1   0 0 0 0 1   0 0 0 0 1  0 0 0 0.0880321558 0" type="matrix" in="shadowInnerInner1"></feColorMatrix>
        </filter>
    </defs>
    <g id="People_Segment_Default" stroke="none" stroke-width="1" fill="none" fill-rule="evenodd">
        <g id="Group" transform="translate(1.000000, 2.000000)">
            <g id="Path">
                <use fill="black" fill-opacity="1" filter="url(#filter-3)" xlink:href="#path-2"></use>
                <use fill="url(#linearGradient-1)" fill-rule="evenodd" xlink:href="#path-2"></use>
            </g>
            <g id="Path">
                <use fill="black" fill-opacity="1" filter="url(#filter-5)" xlink:href="#path-4"></use>
                <use fill="url(#linearGradient-1)" fill-rule="evenodd" xlink:href="#path-4"></use>
            </g>
            <g id="Path" opacity="0.6">
                <use fill="url(#linearGradient-6)" fill-rule="evenodd" xlink:href="#path-7"></use>
                <use fill="black" fill-opacity="1" filter="url(#filter-8)" xlink:href="#path-7"></use>
            </g>
        </g>
    </g>
</svg>