<?xml version="1.0" standalone="no"?>
<!DOCTYPE svg PUBLIC "-//W3C//DTD SVG 1.1//EN" "http://www.w3.org/Graphics/SVG/1.1/DTD/svg11.dtd" >
<svg>
<metadata>
Created by FontForge 20090622 at Wed Jun 12 15:34:17 2019
 By deploy user
Copyright &#194;&#169; 2017 by Alberto Romanos. All rights reserved.
</metadata>
<defs>
<font id="BwNistaGeo-Rg" horiz-adv-x="0" >
  <font-face 
    font-family="Bw Nista Geo Rg"
    font-weight="400"
    font-stretch="normal"
    units-per-em="1000"
    panose-1="0 0 5 0 0 0 0 0 0 0"
    ascent="770"
    descent="-230"
    x-height="515"
    cap-height="770"
    bbox="-766 -256 1311 1047"
    underline-thickness="50"
    underline-position="-50"
    unicode-range="U+000D-U+FB02"
  />
<missing-glyph horiz-adv-x="1274" 
d="M76 -10q-17 0 -17 18q0 10 5 15l342 341h-324q-23 0 -23 19q0 7 7 16l340 342h-327q-20 0 -20 19v1q0 19 20 19h370q23 0 23 -20q0 -10 -8 -17l-341 -340h330q8 0 14 -6t6 -14v-327l339 338q7 8 17 8q18 0 18 -22v-324l340 338q6 8 16 8q7 0 12 -5.5t5 -13.5q0 -9 -6 -14
l-368 -372q-7 -7 -17 -7q-20 0 -20 23v324l-339 -340q-7 -7 -17 -7q-20 0 -20 23v324l-340 -340q-7 -7 -17 -7z" />
    <glyph glyph-name="fi" unicode="fi" horiz-adv-x="625" 
d="M539 515v-515h-82v454h-263v-454h-82v454h-85v61h85v82q0 82 49.5 132.5t130.5 50.5q51 0 84 -11v-64q-38 11 -77 11q-47 0 -76 -31.5t-29 -81.5v-88h345zM497 642q-23 0 -37.5 13.5t-14.5 35.5t14.5 36t37.5 14t37.5 -14t14.5 -36t-14.5 -35.5t-37.5 -13.5z" />
    <glyph glyph-name="fl" unicode="fl" horiz-adv-x="636" 
d="M467 770h82v-770h-82v454h-273v-454h-82v454h-86v61h86v76q0 85 51 137t134 52q48 0 85 -15v-63q-37 14 -78 14q-50 0 -80 -33t-30 -87v-81h273v255z" />
    <glyph glyph-name="f_b" unicode="fb" horiz-adv-x="1018" 
d="M744 525q101 0 163.5 -73.5t62.5 -193.5q0 -121 -62 -194.5t-163 -73.5q-66 0 -119.5 30t-74.5 82h-2v-102h-82v454h-273v-454h-82v454h-86v61h86v76q0 85 51 137t134 52q48 0 85 -15v-63q-37 14 -78 14q-50 0 -80 -33t-30 -87v-81h273v255h82v-357h2q22 52 75 82t118 30
zM717 57q76 0 122.5 55.5t46.5 145.5t-46.5 145t-122.5 55t-122 -55t-46 -145t46 -145.5t122 -55.5z" />
    <glyph glyph-name="f_f" unicode="ff" horiz-adv-x="716" 
d="M638 716q-50 0 -80 -33t-30 -87v-81h181v-61h-181v-454h-82v454h-252v-454h-82v454h-86v61h86v76q0 85 51 137t134 52q53 0 91 -15v-65q-37 16 -84 16q-50 0 -80 -33t-30 -87v-81h252v76q0 85 51 137t134 52q58 0 95 -16v-65q-41 17 -88 17z" />
    <glyph glyph-name="f_f_b" unicode="ffb" horiz-adv-x="1351" 
d="M1078 525q101 0 163.5 -73.5t62.5 -193.5q0 -121 -62 -194.5t-163 -73.5q-66 0 -119.5 30t-74.5 82h-2v-102h-82v454h-273v-454h-82v454h-252v-454h-82v454h-86v61h86v76q0 85 51 137t134 52q53 0 91 -15v-65q-37 16 -84 16q-50 0 -80 -33t-30 -87v-81h252v76
q0 85 51 137t134 52q48 0 85 -15v-63q-37 14 -78 14q-50 0 -80 -33t-30 -87v-81h273v255h82v-357h2q22 52 75 82t118 30zM1051 57q76 0 122.5 55.5t46.5 145.5t-46.5 145t-122.5 55t-122 -55t-46 -145t46 -145.5t122 -55.5z" />
    <glyph glyph-name="f_f_h" unicode="ffh" horiz-adv-x="1329" 
d="M1068 525q84 0 134.5 -55t50.5 -146v-324h-82v318q0 62 -37 100.5t-98 38.5q-68 0 -110 -47.5t-42 -125.5v-284h-82v454h-274v-454h-82v454h-252v-454h-82v454h-86v61h86v76q0 85 51 137t134 52q53 0 91 -15v-65q-37 16 -84 16q-50 0 -80 -33t-30 -87v-81h252v76
q0 85 51 137t134 52q48 0 85 -15v-63q-37 14 -78 14q-50 0 -80 -33t-30 -87v-81h274v255h82v-350h2q21 47 71 76t111 29z" />
    <glyph glyph-name="f_f_i" unicode="ffi" horiz-adv-x="958" 
d="M873 515v-515h-82v454h-263v-454h-82v454h-252v-454h-82v454h-86v61h86v76q0 85 51 137t134 52q53 0 91 -15v-65q-37 16 -84 16q-50 0 -80 -33t-30 -87v-81h252v82q0 82 49.5 132.5t130.5 50.5q51 0 84 -11v-64q-38 11 -77 11q-47 0 -76 -31.5t-29 -81.5v-88h345z
M831 642q-23 0 -37.5 13.5t-14.5 35.5t14.5 36t37.5 14t37.5 -14t14.5 -36t-14.5 -35.5t-37.5 -13.5z" />
    <glyph glyph-name="f_f_j" unicode="ffj" horiz-adv-x="958" 
d="M873 515v-745h-82v684h-263v-454h-82v454h-252v-454h-82v454h-86v61h86v76q0 85 51 137t134 52q53 0 91 -15v-65q-37 16 -84 16q-50 0 -80 -33t-30 -87v-81h252v82q0 82 49.5 132.5t130.5 50.5q51 0 84 -11v-64q-38 11 -77 11q-47 0 -76 -31.5t-29 -81.5v-88h345z
M831 642q-23 0 -37.5 13.5t-14.5 35.5t14.5 36t37.5 14t37.5 -14t14.5 -36t-14.5 -35.5t-37.5 -13.5z" />
    <glyph glyph-name="f_f_k" unicode="ffk" horiz-adv-x="1303" 
d="M802 515v255h82v-770h-82v454h-274v-454h-82v454h-252v-454h-82v454h-86v61h86v76q0 85 51 137t134 52q53 0 91 -15v-65q-37 16 -84 16q-50 0 -80 -33t-30 -87v-81h252v76q0 85 51 137t134 52q48 0 85 -15v-63q-37 14 -78 14q-50 0 -80 -33t-30 -87v-81h274zM1007 285
l304 -285h-100l-308 282l267 233h97z" />
    <glyph glyph-name="f_f_l" unicode="ffl" horiz-adv-x="969" 
d="M801 770h82v-770h-82v454h-273v-454h-82v454h-252v-454h-82v454h-86v61h86v76q0 85 51 137t134 52q53 0 91 -15v-65q-37 16 -84 16q-50 0 -80 -33t-30 -87v-81h252v76q0 85 51 137t134 52q48 0 85 -15v-63q-37 14 -78 14q-50 0 -80 -33t-30 -87v-81h273v255z" />
    <glyph glyph-name="f_f_t" unicode="fft" horiz-adv-x="1066" 
d="M1044 454h-176v-311q0 -39 27.5 -63.5t71.5 -24.5q43 0 77 16v-61q-45 -20 -103 -20q-69 0 -112 41.5t-43 108.5v314h-258v-454h-82v454h-252v-454h-82v454h-86v61h86v76q0 85 51 137t134 52q53 0 91 -15v-65q-37 16 -84 16q-50 0 -80 -33t-30 -87v-81h252v76
q0 85 51 137t134 52q52 0 89 -15v-64q-37 15 -82 15q-50 0 -80 -33t-30 -87v-81h262v151h78v-151h176v-61z" />
    <glyph glyph-name="f_h" unicode="fh" horiz-adv-x="995" 
d="M734 525q84 0 134.5 -55t50.5 -146v-324h-82v318q0 62 -37 100.5t-98 38.5q-68 0 -110 -47.5t-42 -125.5v-284h-82v454h-274v-454h-82v454h-86v61h86v76q0 85 51 137t134 52q48 0 85 -15v-63q-37 14 -78 14q-50 0 -80 -33t-30 -87v-81h274v255h82v-350h2q21 47 71 76
t111 29z" />
    <glyph glyph-name="f_iacute" unicode="f&#xed;" horiz-adv-x="624" 
d="M538 515v-515h-82v454h-262v-454h-82v454h-86v61h86v76q0 85 51 137t134 52q58 0 95 -16v-65q-41 17 -88 17q-50 0 -80 -33t-30 -87v-81h344zM630 770l-113 -165h-64l90 165h87z" />
    <glyph glyph-name="f_j" unicode="fj" horiz-adv-x="625" 
d="M539 515v-745h-82v684h-263v-454h-82v454h-85v61h85v82q0 82 49.5 132.5t130.5 50.5q51 0 84 -11v-64q-38 11 -77 11q-47 0 -76 -31.5t-29 -81.5v-88h345zM497 642q-23 0 -37.5 13.5t-14.5 35.5t14.5 36t37.5 14t37.5 -14t14.5 -36t-14.5 -35.5t-37.5 -13.5z" />
    <glyph glyph-name="f_k" unicode="fk" horiz-adv-x="970" 
d="M468 515v255h82v-770h-82v454h-274v-454h-82v454h-86v61h86v76q0 85 51 137t134 52q48 0 85 -15v-63q-37 14 -78 14q-50 0 -80 -33t-30 -87v-81h274zM673 285l304 -285h-100l-308 282l267 233h97z" />
    <glyph glyph-name="f_t" unicode="ft" horiz-adv-x="732" 
d="M710 454h-176v-311q0 -39 27.5 -63.5t71.5 -24.5q43 0 77 16v-61q-45 -20 -103 -20q-69 0 -112 41.5t-43 108.5v314h-258v-454h-82v454h-86v61h86v76q0 85 51 137t134 52q52 0 89 -15v-64q-37 15 -82 15q-50 0 -80 -33t-30 -87v-81h262v151h78v-151h176v-61z" />
    <glyph glyph-name="t_t" unicode="tt" horiz-adv-x="744" 
d="M722 454h-176v-311q0 -39 27.5 -63.5t71.5 -24.5q43 0 77 16v-61q-45 -20 -103 -20q-70 0 -112.5 41t-42.5 109v314h-275v-311q0 -39 27 -63.5t71 -24.5q43 0 77 16v-61q-45 -20 -103 -20q-69 0 -111.5 41.5t-42.5 108.5v314h-86v61h89v151h79v-151h278v151h79v-151h176
v-61z" />
    <glyph glyph-name=".notdef" horiz-adv-x="1274" 
d="M76 -10q-17 0 -17 18q0 10 5 15l342 341h-324q-23 0 -23 19q0 7 7 16l340 342h-327q-20 0 -20 19v1q0 19 20 19h370q23 0 23 -20q0 -10 -8 -17l-341 -340h330q8 0 14 -6t6 -14v-327l339 338q7 8 17 8q18 0 18 -22v-324l340 338q6 8 16 8q7 0 12 -5.5t5 -13.5q0 -9 -6 -14
l-368 -372q-7 -7 -17 -7q-20 0 -20 23v324l-339 -340q-7 -7 -17 -7q-20 0 -20 23v324l-340 -340q-7 -7 -17 -7z" />
    <glyph glyph-name=".null" 
 />
    <glyph glyph-name="nonmarkingreturn" horiz-adv-x="333" 
 />
    <glyph glyph-name="CR" unicode="&#xd;" horiz-adv-x="254" 
 />
    <glyph glyph-name="space" unicode=" " horiz-adv-x="254" 
 />
    <glyph glyph-name="exclam" unicode="!" horiz-adv-x="264" 
d="M104 202l-17 568h90l-17 -568h-56zM132 -10q-25 0 -40.5 15t-15.5 39q0 23 15.5 38t40.5 15t40.5 -15t15.5 -38q0 -24 -15.5 -39t-40.5 -15z" />
    <glyph glyph-name="quotedbl" unicode="&#x22;" horiz-adv-x="343" 
d="M66 567v203h78v-203h-78zM200 567v203h78v-203h-78z" />
    <glyph glyph-name="numbersign" unicode="#" horiz-adv-x="740" 
d="M701 516h-126l-25 -240h126l-8 -68h-125l-21 -208h-85l22 208h-218l-22 -208h-85l22 208h-123l7 68h124l26 240h-124l7 67h124l20 187h85l-20 -187h215l19 187h85l-19 -187h126zM247 275h219l25 242h-217z" />
    <glyph glyph-name="dollar" unicode="$" horiz-adv-x="666" 
d="M630 219q0 -98 -74 -160.5t-198 -67.5v-103h-46v103q-117 6 -191.5 78t-81.5 185h87q5 -80 55.5 -131t130.5 -58v302q-45 8 -74.5 14.5t-66.5 21.5t-58.5 34.5t-37 52t-15.5 74.5q0 93 69 151.5t183 63.5v101h46v-101q108 -8 176.5 -76t74.5 -175h-87q-4 73 -48.5 121
t-115.5 56v-270q48 -8 79.5 -15t71.5 -23t63.5 -37t40.5 -57.5t17 -83.5zM147 569q0 -58 42.5 -85t122.5 -41v262q-75 -4 -120 -41t-45 -95zM358 65q84 5 134.5 45t50.5 103q0 68 -48 99t-137 47v-294z" />
    <glyph glyph-name="percent" unicode="%" horiz-adv-x="724" 
d="M178 410q-62 0 -100.5 51t-38.5 134t38.5 134t100.5 51q64 0 102.5 -51t38.5 -134t-38.5 -134t-102.5 -51zM71 0l509 770h70l-508 -770h-71zM179 463q34 0 54.5 36.5t20.5 95.5t-20.5 95.5t-54.5 36.5t-54.5 -36t-20.5 -96t20.5 -96t54.5 -36zM546 -10q-63 0 -101.5 51
t-38.5 134t38.5 134t101.5 51t101.5 -51t38.5 -134t-38.5 -134t-101.5 -51zM546 43q34 0 54 36.5t20 95.5t-20 95.5t-54 36.5t-55 -36.5t-21 -95.5t21 -95.5t55 -36.5z" />
    <glyph glyph-name="ampersand" unicode="&#x26;" horiz-adv-x="783" 
d="M774 44l-49 -55l-148 131q-50 -59 -126 -94.5t-155 -35.5q-100 0 -161.5 54t-61.5 142q0 86 43 141.5t117 97.5q-111 106 -111 183t57.5 124.5t151.5 47.5q93 0 150.5 -45.5t57.5 -118.5q0 -30 -12 -57t-26 -44t-45.5 -38.5t-49 -31.5t-57.5 -31l216 -188q35 77 51 178
h75q-15 -131 -69 -228zM203 607q0 -55 94 -147q44 22 63.5 33t48 31.5t40 42t11.5 48.5q0 46 -35.5 73.5t-93.5 27.5t-93 -30t-35 -79zM304 57q62 0 122.5 29t101.5 78l-243 215q-62 -37 -96 -80.5t-34 -107.5q0 -60 41 -97t108 -37z" />
    <glyph glyph-name="quotesingle" unicode="'" horiz-adv-x="210" 
d="M66 567v203h78v-203h-78z" />
    <glyph glyph-name="parenleft" unicode="(" horiz-adv-x="292" 
d="M194 -230q-68 107 -106.5 239t-38.5 261t38.5 261t106.5 239h80q-68 -106 -106 -238.5t-38 -261.5q0 -130 38 -262.5t106 -237.5h-80z" />
    <glyph glyph-name="parenright" unicode=")" horiz-adv-x="292" 
d="M98 -230h-80q68 105 106 237.5t38 262.5q0 129 -38 261.5t-106 238.5h80q68 -107 106.5 -239t38.5 -261t-38.5 -261t-106.5 -239z" />
    <glyph glyph-name="asterisk" unicode="*" horiz-adv-x="375" 
d="M328 649l-102 -31l64 -85l-42 -30l-60 88l-61 -88l-42 30l65 85l-103 31l17 49l100 -34l-2 106h52l-2 -106l100 34z" />
    <glyph glyph-name="plus" unicode="+" horiz-adv-x="476" 
d="M429 284v-64h-150v-159h-82v159h-150v64h150v159h82v-159h150z" />
    <glyph glyph-name="comma" unicode="," horiz-adv-x="218" 
d="M108 97q27 0 44 -21t17 -55q0 -55 -34 -99t-90 -60l-6 30q36 10 59 37.5t28 64.5q-12 -4 -26 -4q-22 0 -35.5 14.5t-13.5 38.5t16 39t41 15z" />
    <glyph glyph-name="hyphen" unicode="-" horiz-adv-x="402" 
d="M67 231v61h268v-61h-268z" />
    <glyph glyph-name="period" unicode="." horiz-adv-x="237" 
d="M119 -10q-25 0 -40.5 15t-15.5 39q0 23 15.5 38t40.5 15t40.5 -15t15.5 -38q0 -24 -15.5 -39t-40.5 -15z" />
    <glyph glyph-name="slash" unicode="/" horiz-adv-x="419" 
d="M98 -230h-68l292 1000h68z" />
    <glyph glyph-name="zero" unicode="0" horiz-adv-x="664" 
d="M332 -10q-131 0 -204.5 104.5t-73.5 290.5t73.5 290.5t204.5 104.5t204.5 -104t73.5 -291t-73.5 -291t-204.5 -104zM332 64q90 0 140 84.5t50 236.5t-50 236.5t-140 84.5q-89 0 -139.5 -85t-50.5 -236t50.5 -236t139.5 -85z" />
    <glyph glyph-name="one" unicode="1" horiz-adv-x="365" 
d="M210 770h58v-770h-86v606h-160v61q84 0 125.5 22.5t62.5 80.5z" />
    <glyph glyph-name="two" unicode="2" horiz-adv-x="620" 
d="M143 71h433v-71h-532v79q202 112 312 235t110 242q0 68 -43.5 109t-114.5 41q-73 0 -120 -48.5t-51 -128.5h-84q7 113 77 182t179 69q111 0 179.5 -62t68.5 -164q0 -130 -112 -255t-302 -226v-2z" />
    <glyph glyph-name="three" unicode="3" horiz-adv-x="619" 
d="M395 397q81 -20 127 -70.5t46 -120.5q0 -97 -73.5 -156.5t-194.5 -59.5q-110 0 -180.5 66.5t-74.5 175.5h83q2 -76 50 -123t123 -47q80 0 129 41t49 109t-50.5 109t-134.5 41h-23v66h15q77 0 124 38.5t47 101.5t-43 101.5t-114 38.5q-68 0 -111.5 -47t-47.5 -124h-81
q5 110 71.5 176.5t170.5 66.5q110 0 176.5 -56.5t66.5 -149.5q0 -63 -40 -109t-110 -66v-2z" />
    <glyph glyph-name="four" unicode="4" horiz-adv-x="617" 
d="M583 267v-70h-100v-197h-86v197h-374v76l353 497h107v-503h100zM397 683l-292 -414v-2h294v416h-2z" />
    <glyph glyph-name="five" unicode="5" horiz-adv-x="621" 
d="M342 512q108 0 173.5 -71.5t65.5 -187.5q0 -118 -75.5 -190.5t-197.5 -72.5q-107 0 -178.5 59.5t-81.5 156.5h85q8 -65 56 -103.5t119 -38.5q83 0 133.5 51.5t50.5 137.5t-49 138t-130 52q-60 0 -108.5 -38t-67.5 -101h-84l61 466h409v-71h-331l-41 -275l2 -1
q73 89 189 89z" />
    <glyph glyph-name="six" unicode="6" horiz-adv-x="652" 
d="M365 498q112 0 174 -65.5t62 -182.5q0 -122 -70.5 -191t-188.5 -69q-147 0 -217 93t-70 285q0 194 76.5 303t212.5 109q105 0 168 -57t71 -158h-84q-5 67 -46 104t-109 37q-94 0 -147 -85.5t-55 -240.5h2q55 118 221 118zM334 64q84 0 131.5 48t47.5 133
q0 87 -47.5 134.5t-131.5 47.5q-83 0 -130.5 -45.5t-47.5 -127.5q0 -87 49.5 -138.5t128.5 -51.5z" />
    <glyph glyph-name="seven" unicode="7" horiz-adv-x="555" 
d="M538 770v-76q-122 -129 -190.5 -312t-68.5 -382h-90q0 198 72 382t201 315v2h-447v71h523z" />
    <glyph glyph-name="eight" unicode="8" horiz-adv-x="642" 
d="M429 401q75 -20 118.5 -71t43.5 -121q0 -99 -74 -159t-196 -60t-196 60t-74 159q0 70 43.5 121t118.5 71v2q-64 21 -100.5 66.5t-36.5 107.5q0 91 67.5 147t177.5 56t177.5 -56t67.5 -147q0 -62 -36.5 -108t-100.5 -66v-2zM164 571q0 -62 43 -99t114 -37t114 37t43 99
q0 61 -43 98t-114 37t-114 -37t-43 -98zM321 64q82 0 132 41.5t50 109.5t-50 110t-132 42t-132 -42t-50 -110t50 -109.5t132 -41.5z" />
    <glyph glyph-name="nine" unicode="9" horiz-adv-x="654" 
d="M310 780q148 0 219 -93t71 -285q0 -194 -76.5 -303t-213.5 -109q-110 0 -176 62.5t-74 174.5h84q6 -77 49.5 -120t115.5 -43q96 0 150 89t54 249v4h-2q-55 -113 -222 -113q-111 0 -173.5 63t-62.5 175q0 116 70 182.5t187 66.5zM320 364q84 0 131 43t47 120q0 79 -50 129
t-128 50q-84 0 -131 -44.5t-47 -125.5q0 -82 47 -127t131 -45z" />
    <glyph glyph-name="colon" unicode=":" horiz-adv-x="243" 
d="M122 418q-25 0 -40.5 15t-15.5 39q0 23 15.5 38t40.5 15t40.5 -15t15.5 -38q0 -24 -15.5 -39t-40.5 -15zM122 -10q-25 0 -40.5 15t-15.5 39q0 23 15.5 38t40.5 15t40.5 -15t15.5 -38q0 -24 -15.5 -39t-40.5 -15z" />
    <glyph glyph-name="semicolon" unicode=";" horiz-adv-x="264" 
d="M133 418q-25 0 -40.5 15t-15.5 39q0 23 15.5 38t40.5 15t40.5 -15t15.5 -38q0 -24 -15.5 -39t-40.5 -15zM133 97q27 0 44 -21t17 -55q0 -55 -34 -99t-90 -60l-6 30q36 10 59 37.5t28 64.5q-12 -4 -26 -4q-22 0 -35.5 14.5t-13.5 38.5t16 39t41 15z" />
    <glyph glyph-name="less" unicode="&#x3c;" horiz-adv-x="492" 
d="M423 456v-68l-314 -135l314 -135v-68l-382 172v61z" />
    <glyph glyph-name="equal" unicode="=" horiz-adv-x="521" 
d="M70 291v64h382v-64h-382zM70 149v64h382v-64h-382z" />
    <glyph glyph-name="greater" unicode="&#x3e;" horiz-adv-x="492" 
d="M69 456l382 -173v-61l-382 -172v68l314 135l-314 135v68z" />
    <glyph glyph-name="question" unicode="?" horiz-adv-x="549" 
d="M214 202v6q0 44 19 84t37.5 60.5t55.5 56.5q33 31 49.5 49.5t32 51t15.5 66.5q0 58 -41.5 94t-108.5 36q-68 0 -112 -43t-48 -113h-82q6 104 73 166.5t172 62.5q107 0 172 -54.5t65 -144.5q0 -42 -20 -81t-40.5 -60t-59.5 -56q-37 -33 -55.5 -52.5t-37 -55t-18.5 -73.5
h-68zM248 -10q-25 0 -40.5 15t-15.5 39q0 23 15.5 38t40.5 15t40.5 -15t15.5 -38q0 -24 -15.5 -39t-40.5 -15z" />
    <glyph glyph-name="at" unicode="@" horiz-adv-x="1110" 
d="M730 496h79l-63 -353q0 -23 18 -37.5t47 -14.5q82 0 132 72t50 190q0 166 -111.5 267.5t-294.5 101.5q-214 0 -344 -137.5t-130 -362.5q0 -182 116.5 -293t307.5 -111q146 0 284 58l23 -57q-63 -27 -147.5 -43t-159.5 -16q-222 0 -358 127t-136 335q0 251 149.5 404.5
t394.5 153.5q214 0 345 -117.5t131 -309.5q0 -144 -73.5 -232t-192.5 -88q-56 0 -92.5 24.5t-40.5 65.5h-2q-27 -41 -79 -66.5t-110 -25.5q-74 0 -120 50.5t-46 132.5q0 131 69.5 211t182.5 80q57 0 99.5 -25t54.5 -66h2zM514 96q66 0 114.5 44t65.5 117l2 11q4 32 4 46
q0 57 -34.5 91.5t-90.5 34.5q-83 0 -134 -58t-51 -152q0 -60 34 -97t90 -37z" />
    <glyph glyph-name="A" unicode="A" horiz-adv-x="688" 
d="M590 0l-71 198h-354l-72 -198h-88l289 770h100l289 -770h-93zM190 269h303l-150 417h-2z" />
    <glyph glyph-name="B" unicode="B" horiz-adv-x="712" 
d="M501 399q78 -17 122.5 -67t44.5 -121q0 -95 -69.5 -153t-182.5 -58h-320v770h291q109 0 175 -55t66 -146q0 -60 -33.5 -104t-93.5 -64v-2zM392 699h-210v-271h210q67 0 107.5 37t40.5 98t-40.5 98.5t-107.5 37.5zM420 71q71 0 115 40.5t44 105.5t-44 105t-115 40h-238
v-291h238z" />
    <glyph glyph-name="C" unicode="C" horiz-adv-x="781" 
d="M405 -10q-160 0 -258 108.5t-98 286.5t98 286.5t258 108.5q134 0 226 -75.5t111 -199.5h-86q-16 91 -84.5 146t-166.5 55q-121 0 -194.5 -88t-73.5 -233t73.5 -233t194.5 -88q97 0 166 57t85 149h86q-19 -126 -111.5 -203t-225.5 -77z" />
    <glyph glyph-name="D" unicode="D" horiz-adv-x="731" 
d="M96 0v770h221q164 0 264.5 -106t100.5 -279t-100.5 -279t-264.5 -106h-221zM182 71h141q122 0 196 86t74 228t-74 228t-196 86h-141v-628z" />
    <glyph glyph-name="E" unicode="E" horiz-adv-x="651" 
d="M182 71h421v-71h-507v770h495v-71h-409v-266h373v-71h-373v-291z" />
    <glyph glyph-name="F" unicode="F" horiz-adv-x="605" 
d="M579 699h-397v-273h342v-70h-342v-356h-86v770h483v-71z" />
    <glyph glyph-name="G" unicode="G" horiz-adv-x="793" 
d="M388 397h356v-26q0 -171 -93.5 -276t-245.5 -105q-160 0 -258 108.5t-98 286.5t98 286.5t258 108.5q131 0 222.5 -74t110.5 -195h-86q-16 88 -83.5 141.5t-163.5 53.5q-121 0 -194.5 -88t-73.5 -233t73.5 -233t194.5 -88q106 0 174 73.5t77 195.5h-268v64z" />
    <glyph glyph-name="H" unicode="H" horiz-adv-x="757" 
d="M576 770h86v-770h-86v356h-394v-356h-86v770h86v-343h394v343z" />
    <glyph glyph-name="I" unicode="I" horiz-adv-x="277" 
d="M96 0v770h86v-770h-86z" />
    <glyph glyph-name="J" unicode="J" horiz-adv-x="570" 
d="M256 -10q-97 0 -160.5 72.5t-71.5 191.5h81q8 -86 49.5 -138t102.5 -52q62 0 100.5 44t38.5 116v546h86v-539q0 -109 -62 -175t-164 -66z" />
    <glyph glyph-name="K" unicode="K" horiz-adv-x="695" 
d="M96 0v770h86v-770h-86zM315 405l389 -405h-105l-393 399l362 371h99z" />
    <glyph glyph-name="L" unicode="L" horiz-adv-x="561" 
d="M182 73h360v-73h-446v770h86v-697z" />
    <glyph glyph-name="M" unicode="M" horiz-adv-x="963" 
d="M746 770h121v-770h-86l2 666h-2l-269 -666h-76l-258 666h-2l1 -666h-81v770h121l258 -668h3z" />
    <glyph glyph-name="N" unicode="N" horiz-adv-x="757" 
d="M580 770h82v-770h-83l-400 631h-2l2 -631h-83v770h84l400 -633h2z" />
    <glyph glyph-name="O" unicode="O" horiz-adv-x="815" 
d="M407 -10q-161 0 -259.5 108.5t-98.5 286.5t98.5 286.5t259.5 108.5t260 -108.5t99 -286.5t-99 -286.5t-260 -108.5zM407 64q122 0 196.5 88t74.5 233t-74.5 233t-196.5 88t-196 -88t-74 -233t74 -233t196 -88z" />
    <glyph glyph-name="P" unicode="P" horiz-adv-x="663" 
d="M375 770q116 0 187 -64t71 -168q0 -105 -71 -169t-188 -64h-192v-305h-86v770h279zM380 375q74 0 119.5 45t45.5 118t-45.5 117t-119.5 44h-198v-324h198z" />
    <glyph glyph-name="Q" unicode="Q" horiz-adv-x="814" 
d="M766 385q0 -110 -39.5 -195.5t-110.5 -136.5l71 -77l-50 -52l-86 93q-65 -27 -144 -27q-161 0 -259.5 108.5t-98.5 286.5t98.5 286.5t259.5 108.5t260 -108.5t99 -286.5zM407 64q46 0 88 14l-77 83l51 52l92 -101q117 87 117 273q0 145 -74.5 233t-196.5 88t-196 -88
t-74 -233t74 -233t196 -88z" />
    <glyph glyph-name="R" unicode="R" horiz-adv-x="708" 
d="M672 0h-97l-178 329h-11h-204v-329h-86v770h289q119 0 191 -58t72 -154q0 -80 -44 -136.5t-121 -79.5zM182 699v-302h210q76 0 122 42.5t46 112.5q0 66 -46.5 106.5t-122.5 40.5h-209z" />
    <glyph glyph-name="S" unicode="S" horiz-adv-x="677" 
d="M337 -10q-126 0 -207 72.5t-88 191.5h87q5 -86 62.5 -138t146.5 -52q94 0 151 41t57 108q0 32 -13 57t-31.5 39.5t-51 26.5t-58 17t-67.5 12q-39 6 -64 11.5t-59.5 15.5t-55.5 24t-42 34t-31 49t-10 65q0 97 75.5 156.5t198.5 59.5q118 0 193.5 -69.5t81.5 -182.5h-87
q-4 80 -56.5 129t-134.5 49q-83 0 -133.5 -37.5t-50.5 -99.5q0 -34 15.5 -58t48.5 -38.5t62.5 -21.5t79.5 -15q49 -8 80 -15t72.5 -23t65.5 -37t41.5 -57.5t17.5 -84.5q0 -103 -81.5 -166t-214.5 -63z" />
    <glyph glyph-name="T" unicode="T" horiz-adv-x="595" 
d="M578 770v-71h-238v-699h-85v699h-238v71h561z" />
    <glyph glyph-name="U" unicode="U" horiz-adv-x="735" 
d="M367 -10q-126 0 -203 77.5t-77 204.5v498h86v-504q0 -91 53.5 -146.5t142.5 -55.5t143.5 55.5t54.5 146.5v504h81v-498q0 -127 -77 -204.5t-204 -77.5z" />
    <glyph glyph-name="V" unicode="V" horiz-adv-x="657" 
d="M560 770h88l-265 -770h-108l-266 770h93l227 -686h2z" />
    <glyph glyph-name="W" unicode="W" horiz-adv-x="1014" 
d="M909 770h88l-210 -770h-107l-173 669h-2l-171 -669h-107l-211 770h93l175 -681h2l176 681h95l174 -681h2z" />
    <glyph glyph-name="X" unicode="X" horiz-adv-x="633" 
d="M9 0l256 396l-240 374h103l190 -305h2l190 305h98l-240 -372l256 -398h-106l-203 329h-2l-205 -329h-99z" />
    <glyph glyph-name="Y" unicode="Y" horiz-adv-x="671" 
d="M670 770l-293 -480v-290h-85v291l-291 479h101l236 -396h2l235 396h95z" />
    <glyph glyph-name="Z" unicode="Z" horiz-adv-x="620" 
d="M130 71h456v-71h-559v76l447 621v2h-423v71h526v-76l-447 -621v-2z" />
    <glyph glyph-name="bracketleft" unicode="[" horiz-adv-x="311" 
d="M277 700h-96v-860h96v-70h-182v1000h182v-70z" />
    <glyph glyph-name="backslash" unicode="\" horiz-adv-x="419" 
d="M321 -230l-292 1000h68l292 -1000h-68z" />
    <glyph glyph-name="bracketright" unicode="]" horiz-adv-x="311" 
d="M216 770v-1000h-182v70h96v860h-96v70h182z" />
    <glyph glyph-name="asciicircum" unicode="^" horiz-adv-x="542" 
d="M304 770l198 -367h-76l-154 290h-2l-154 -290h-76l199 367h65z" />
    <glyph glyph-name="underscore" unicode="_" horiz-adv-x="556" 
d="M41 -110v52h474v-52h-474z" />
    <glyph glyph-name="grave" unicode="`" horiz-adv-x="228" 
d="M192 570h-64l-113 165h87z" />
    <glyph glyph-name="a" unicode="a" horiz-adv-x="634" 
d="M469 515h82v-515h-82v102h-2q-22 -52 -75.5 -82t-119.5 -30q-101 0 -163 73.5t-62 194.5q0 120 62.5 193.5t163.5 73.5q65 0 118 -30t76 -82h2v102zM300 57q76 0 122.5 55.5t46.5 145.5t-46.5 145t-122.5 55t-122.5 -55t-46.5 -145t46.5 -145.5t122.5 -55.5z" />
    <glyph glyph-name="b" unicode="b" horiz-adv-x="634" 
d="M361 525q101 0 163.5 -73.5t62.5 -193.5q0 -121 -62 -194.5t-163 -73.5q-66 0 -119.5 30t-74.5 82h-2v-102h-82v770h82v-357h2q22 52 75 82t118 30zM334 57q76 0 122.5 55.5t46.5 145.5t-46.5 145t-122.5 55t-122 -55t-46 -145t46 -145.5t122 -55.5z" />
    <glyph glyph-name="c" unicode="c" horiz-adv-x="573" 
d="M296 -10q-113 0 -181.5 73.5t-68.5 194.5q0 120 69 193.5t181 73.5q89 0 154.5 -49.5t81.5 -129.5h-83q-13 50 -55 80.5t-98 30.5q-75 0 -120.5 -54.5t-45.5 -144.5t45.5 -145t120.5 -55q60 0 103 32t53 84h84q-14 -83 -80 -133.5t-160 -50.5z" />
    <glyph glyph-name="d" unicode="d" horiz-adv-x="634" 
d="M469 770h82v-770h-82v102h-2q-22 -52 -75.5 -82t-119.5 -30q-101 0 -163 73.5t-62 194.5q0 120 62.5 193.5t163.5 73.5q65 0 118 -30t76 -82h2v357zM300 57q76 0 122.5 55.5t46.5 145.5t-46.5 145t-122.5 55t-122.5 -55t-46.5 -145t46.5 -145.5t122.5 -55.5z" />
    <glyph glyph-name="e" unicode="e" horiz-adv-x="591" 
d="M545 255v-14h-418q5 -86 50.5 -137t118.5 -51q61 0 107 34t60 89h80q-18 -84 -86 -135t-161 -51q-112 0 -181 73.5t-69 193.5q0 121 68.5 194.5t181.5 73.5q112 0 180.5 -74.5t68.5 -195.5zM296 464q-69 0 -114 -47t-53 -125h333q-8 78 -53 125t-113 47z" />
    <glyph glyph-name="f" unicode="f" horiz-adv-x="382" 
d="M304 716q-50 0 -80 -33t-30 -87v-81h181v-61h-181v-454h-82v454h-86v61h86v76q0 85 51 137t134 52q58 0 95 -16v-65q-41 17 -88 17z" />
    <glyph glyph-name="g" unicode="g" horiz-adv-x="634" 
d="M469 515h82v-520q0 -106 -68.5 -170.5t-180.5 -64.5q-101 0 -166 56t-70 147h78q5 -61 48 -98t110 -37q75 0 121 44.5t46 116.5v113h-2q-22 -52 -75.5 -82t-119.5 -30q-101 0 -163 73.5t-62 194.5q0 120 62.5 193.5t163.5 73.5q65 0 118 -30t76 -82h2v102zM300 57
q76 0 122.5 55.5t46.5 145.5t-46.5 145t-122.5 55t-122.5 -55t-46.5 -145t46.5 -145.5t122.5 -55.5z" />
    <glyph glyph-name="h" unicode="h" horiz-adv-x="611" 
d="M350 525q84 0 134.5 -55t50.5 -146v-324h-82v318q0 62 -37 100.5t-98 38.5q-68 0 -110 -47.5t-42 -125.5v-284h-82v770h82v-350h2q21 47 71 76t111 29z" />
    <glyph glyph-name="i" unicode="i" horiz-adv-x="255" 
d="M127 642q-23 0 -37.5 13.5t-14.5 35.5t14.5 36t37.5 14t37.5 -14t14.5 -36t-14.5 -35.5t-37.5 -13.5zM87 0v515h82v-515h-82z" />
    <glyph glyph-name="j" unicode="j" horiz-adv-x="255" 
d="M127 642q-23 0 -37.5 13.5t-14.5 35.5t14.5 36t37.5 14t37.5 -14t14.5 -36t-14.5 -35.5t-37.5 -13.5zM87 -230v745h82v-745h-82z" />
    <glyph glyph-name="k" unicode="k" horiz-adv-x="586" 
d="M84 0v770h82v-770h-82zM289 285l304 -285h-100l-308 282l267 233h97z" />
    <glyph glyph-name="l" unicode="l" horiz-adv-x="255" 
d="M87 0v770h82v-770h-82z" />
    <glyph glyph-name="m" unicode="m" horiz-adv-x="941" 
d="M690 525q79 0 127 -53.5t48 -140.5v-331h-82v322q0 61 -34.5 98t-91.5 37q-64 0 -103 -47t-39 -123v-287h-82v322q0 61 -34.5 98t-91.5 37q-64 0 -102.5 -46.5t-38.5 -123.5v-287h-82v515h82v-95h2q19 47 66.5 76t105.5 29q59 0 102 -31t61 -86h2q24 53 74 85t111 32z
" />
    <glyph glyph-name="n" unicode="n" horiz-adv-x="611" 
d="M350 525q84 0 134.5 -55t50.5 -146v-324h-82v318q0 62 -37 100.5t-98 38.5q-68 0 -110 -47.5t-42 -125.5v-284h-82v515h82v-95h2q21 47 71 76t111 29z" />
    <glyph glyph-name="o" unicode="o" horiz-adv-x="597" 
d="M298 -10q-113 0 -182.5 73.5t-69.5 194.5q0 120 69.5 193.5t182.5 73.5q114 0 183.5 -73.5t69.5 -193.5q0 -121 -69.5 -194.5t-183.5 -73.5zM298 58q76 0 122.5 55t46.5 145t-46.5 145t-122.5 55t-122 -55t-46 -145t46 -145t122 -55z" />
    <glyph glyph-name="p" unicode="p" horiz-adv-x="634" 
d="M362 525q101 0 163 -73.5t62 -193.5q0 -121 -62.5 -194.5t-163.5 -73.5q-66 0 -119 30t-74 82h-2v-332h-82v745h82v-102h2q22 52 75 82t119 30zM334 57q76 0 122.5 55.5t46.5 145.5t-46.5 145t-122.5 55t-122 -55t-46 -145t46 -145.5t122 -55.5z" />
    <glyph glyph-name="q" unicode="q" horiz-adv-x="634" 
d="M469 515h82v-745h-82v332h-2q-22 -52 -75.5 -82t-118.5 -30q-101 0 -163.5 73.5t-62.5 194.5q0 120 62 193.5t163 73.5q66 0 119 -30t76 -82h2v102zM300 57q76 0 122.5 55.5t46.5 145.5t-46.5 145t-122.5 55t-122.5 -55t-46.5 -145t46.5 -145.5t122.5 -55.5z" />
    <glyph glyph-name="r" unicode="r" horiz-adv-x="426" 
d="M344 525q41 0 69 -10v-79q-36 13 -87 13q-72 0 -116 -53t-44 -139v-257h-82v515h82v-108h2q22 53 70.5 85.5t105.5 32.5z" />
    <glyph glyph-name="s" unicode="s" horiz-adv-x="524" 
d="M261 -10q-97 0 -158 47.5t-64 124.5h79q2 -51 41 -82.5t102 -31.5t101.5 25t38.5 65q0 21 -9 36.5t-21.5 25t-36 17.5t-41 12t-47.5 9q-34 6 -55 11t-49.5 15.5t-44.5 24.5t-28 37t-12 53q0 66 56 106t148 40q91 0 147.5 -46t58.5 -122h-79q-1 49 -36 79.5t-91 30.5
t-90 -23t-34 -61t35.5 -55t106.5 -29q36 -6 58 -11.5t52.5 -17.5t48 -27t30.5 -40.5t13 -58.5q0 -70 -60.5 -112t-159.5 -42z" />
    <glyph glyph-name="t" unicode="t" horiz-adv-x="387" 
d="M364 454h-175v-311q0 -39 27 -63.5t71 -24.5q43 0 77 16v-61q-45 -20 -103 -20q-69 0 -111.5 41.5t-42.5 108.5v314h-86v61h89v151h79v-151h175v-61z" />
    <glyph glyph-name="u" unicode="u" horiz-adv-x="592" 
d="M296 -10q-99 0 -160 58t-61 153v314h82v-305q0 -69 38.5 -111t100.5 -42t100.5 42t38.5 111v305h82v-314q0 -95 -60.5 -153t-160.5 -58z" />
    <glyph glyph-name="v" unicode="v" horiz-adv-x="547" 
d="M449 515h84l-211 -515h-97l-211 515h87l172 -438h2z" />
    <glyph glyph-name="w" unicode="w" horiz-adv-x="812" 
d="M710 515h84l-170 -515h-90l-127 428h-2l-127 -428h-90l-170 515h86l130 -428h2l131 428h81l129 -428h2z" />
    <glyph glyph-name="x" unicode="x" horiz-adv-x="515" 
d="M11 0l202 267l-185 248h89l140 -191h2l140 191h89l-185 -247l202 -268h-93l-154 211h-2l-154 -211h-91z" />
    <glyph glyph-name="y" unicode="y" horiz-adv-x="546" 
d="M448 515h84l-304 -745h-82l86 214l-218 531h86l173 -438h2z" />
    <glyph glyph-name="z" unicode="z" horiz-adv-x="486" 
d="M123 64h327v-64h-419v68l315 381v2h-297v64h393v-68l-319 -381v-2z" />
    <glyph glyph-name="braceleft" unicode="{" horiz-adv-x="295" 
d="M185 380q0 -74 -61 -109v-2q61 -35 61 -109v-256q0 -28 16 -44.5t42 -16.5v-73q-64 0 -104 38.5t-40 100.5v256q0 31 -18 50t-47 19v72q29 0 47 19t18 50v256q0 62 40 100.5t104 38.5v-73q-26 0 -42 -16.5t-16 -44.5v-256z" />
    <glyph glyph-name="bar" unicode="|" horiz-adv-x="259" 
d="M95 -230v1100h69v-1100h-69z" />
    <glyph glyph-name="braceright" unicode="}" horiz-adv-x="295" 
d="M196 375q0 -31 18 -50t47 -19v-72q-29 0 -47 -19t-18 -50v-256q0 -62 -40 -100.5t-104 -38.5v73q26 0 42 16.5t16 44.5v256q0 74 61 109v2q-61 35 -61 109v256q0 28 -16 44.5t-42 16.5v73q64 0 104 -38.5t40 -100.5v-256z" />
    <glyph glyph-name="asciitilde" unicode="~" horiz-adv-x="604" 
d="M67 181q0 62 33 97t92 35q58 0 124 -31.5t107 -31.5q29 0 47 17.5t21 49.5h45q0 -62 -33 -97t-92 -35t-125 31.5t-106 31.5q-29 0 -47 -17.5t-21 -49.5h-45z" />
    <glyph glyph-name="uni00A0" unicode="&#xa0;" horiz-adv-x="254" 
 />
    <glyph glyph-name="exclamdown" unicode="&#xa1;" horiz-adv-x="246" 
d="M124 418q-25 0 -40.5 15t-15.5 39t15.5 38.5t40.5 14.5t40.5 -14.5t15.5 -38.5t-15.5 -39t-40.5 -15zM79 -230l16 553h56l17 -553h-89z" />
    <glyph glyph-name="cent" unicode="&#xa2;" horiz-adv-x="578" 
d="M538 280q-13 -78 -72 -127t-144 -56v-97h-46v97q-104 8 -166 80.5t-62 186.5t62 186t166 80v90h46v-90q81 -7 139 -55t73 -123h-83q-11 45 -46 74t-83 35v-396q51 7 86.5 37.5t45.5 77.5h84zM132 364q0 -83 39 -137t105 -62v397q-66 -8 -105 -61.5t-39 -136.5z" />
    <glyph glyph-name="sterling" unicode="&#xa3;" horiz-adv-x="642" 
d="M138 71h462v-71h-552v79q120 81 120 209q0 17 -5 39h-103v67h81l-13.5 32.5l-15.5 37.5t-11 31.5t-9.5 38.5t-2.5 34q0 96 67.5 154t178.5 58q110 0 180 -69t76 -182h-84q-5 80 -52 128.5t-119 48.5q-71 0 -114.5 -38.5t-43.5 -102.5q0 -20 6 -44.5t11.5 -39.5t19 -46
t17.5 -41h241v-67h-219q4 -16 4 -36q0 -130 -120 -218v-2z" />
    <glyph glyph-name="currency" unicode="&#xa4;" horiz-adv-x="584" 
d="M497 337q0 -66 -30 -115l58 -61l-52 -54l-59 60q-50 -35 -122 -35q-70 0 -123 35l-59 -59l-52 53l59 60q-30 51 -30 116q0 64 30 115l-59 61l52 54l59 -60q50 35 123 35q72 0 122 -35l59 59l53 -53l-59 -60q30 -51 30 -116zM292 193q60 0 96.5 39.5t36.5 104.5
t-36.5 104.5t-96.5 39.5t-96.5 -39.5t-36.5 -104.5t36.5 -104.5t96.5 -39.5z" />
    <glyph glyph-name="yen" unicode="&#xa5;" horiz-adv-x="711" 
d="M690 770l-288 -472h155v-43h-160v-57h160v-43h-160v-155h-85v155h-157v43h157v57h-157v43h153l-287 472h101l236 -396h2l235 396h95z" />
    <glyph glyph-name="brokenbar" unicode="&#xa6;" horiz-adv-x="259" 
d="M95 420v450h69v-450h-69zM95 -230v450h69v-450h-69z" />
    <glyph glyph-name="section" unicode="&#xa7;" horiz-adv-x="674" 
d="M545 107q74 -47 74 -131q0 -97 -79 -156.5t-208 -59.5q-121 0 -199.5 68t-85.5 180h85q6 -79 61 -127t140 -48q89 0 143.5 37.5t54.5 99.5q0 58 -53 97q-61 -25 -136 -25q-124 0 -199.5 63t-75.5 167q0 111 85 174q-85 45 -85 130q0 92 73 148t192 56q113 0 186 -65
t80 -172h-85q-4 74 -54.5 119t-129.5 45q-78 0 -126.5 -34.5t-48.5 -91.5q0 -29 19.5 -54.5t53.5 -41.5q53 17 115 17q125 0 201 -63.5t76 -166.5q0 -100 -74 -165zM154 272q0 -71 52 -114.5t136 -43.5q85 0 137 43.5t52 114.5t-52 114t-137 43q-84 0 -136 -43.5t-52 -113.5
z" />
    <glyph glyph-name="dieresis" unicode="&#xa8;" horiz-adv-x="373" 
d="M107 613q-22 0 -36 13t-14 34t14 34.5t36 13.5t36 -13.5t14 -34.5t-14 -34t-36 -13zM266 613q-22 0 -35.5 13t-13.5 34t13.5 34.5t35.5 13.5t36 -13.5t14 -34.5t-14 -34t-36 -13z" />
    <glyph glyph-name="copyright" unicode="&#xa9;" horiz-adv-x="872" 
d="M436 -10q-174 0 -280.5 109t-106.5 287q0 177 106.5 285.5t280.5 108.5q175 0 281.5 -108.5t106.5 -285.5q0 -178 -106.5 -287t-281.5 -109zM436 47q146 0 234.5 93t88.5 246q0 152 -89 245t-234 93t-233.5 -93t-88.5 -245q0 -153 88.5 -246t233.5 -93zM439 193
q-80 0 -128.5 53t-48.5 140t49 140.5t128 53.5q64 0 110 -37t58 -97h-70q-9 34 -36 55t-62 21q-47 0 -76 -37.5t-29 -98.5t29 -98.5t76 -37.5q38 0 65.5 21.5t34.5 57.5h70q-10 -61 -57 -98.5t-113 -37.5z" />
    <glyph glyph-name="ordfeminine" unicode="&#xaa;" horiz-adv-x="406" 
d="M338 517q6 0 16 4v-44q-18 -8 -43 -8q-21 0 -35 12.5t-15 33.5l-1 10q-35 -56 -114 -56q-43 0 -69 22t-26 58q0 51 52 75q33 15 156 40v23q0 23 -18.5 37.5t-47.5 14.5q-31 0 -50 -17t-19 -44l-60 4q1 44 37 71t93 27q56 0 91 -26.5t35 -69.5v-145q0 -22 18 -22zM165 511
q43 0 68.5 23t25.5 55v37q-97 -21 -116 -30q-32 -15 -32 -43q0 -19 15 -30.5t39 -11.5z" />
    <glyph glyph-name="guillemotleft" unicode="&#xab;" horiz-adv-x="493" 
d="M249 110h-85l-121 150l121 150h85l-118 -150zM427 110h-85l-121 150l121 150h85l-118 -150z" />
    <glyph glyph-name="logicalnot" unicode="&#xac;" horiz-adv-x="527" 
d="M75 349h382v-191h-82v128h-300v63z" />
    <glyph glyph-name="uni00AD" unicode="&#xad;" horiz-adv-x="402" 
d="M67 231v61h268v-61h-268z" />
    <glyph glyph-name="registered" unicode="&#xae;" horiz-adv-x="505" 
d="M252 780q92 0 148 -53.5t56 -141.5t-56 -141.5t-148 -53.5q-91 0 -147 53.5t-56 141.5t56 141.5t147 53.5zM252 425q74 0 119 44t45 116q0 73 -45 116.5t-119 43.5t-119 -43.5t-45 -116.5q0 -72 45 -116t119 -44zM337 623q0 -41 -41 -55l49 -80h-44l-45 74h-45v-74h-41
v194h91q34 0 55 -16.5t21 -42.5zM211 651v-61h53q14 0 22 8.5t8 22.5q0 13 -8 21.5t-22 8.5h-53z" />
    <glyph glyph-name="macron" unicode="&#xaf;" horiz-adv-x="326" 
d="M22 630v62h282v-62h-282z" />
    <glyph glyph-name="degree" unicode="&#xb0;" horiz-adv-x="325" 
d="M163 558q-53 0 -85 30.5t-32 80.5t32 80.5t85 30.5t85 -30.5t32 -80.5t-32.5 -80.5t-84.5 -30.5zM162 607q26 0 41.5 17t15.5 45t-15.5 45t-41.5 17q-25 0 -40.5 -17t-15.5 -45t15.5 -45t40.5 -17z" />
    <glyph glyph-name="plusminus" unicode="&#xb1;" horiz-adv-x="514" 
d="M298 354h150v-64h-150v-142h-82v142h-150v64h150v143h82v-143zM66 0v64h382v-64h-382z" />
    <glyph glyph-name="acute" unicode="&#xb4;" horiz-adv-x="233" 
d="M36 570l90 165h87l-113 -165h-64z" />
    <glyph glyph-name="paragraph" unicode="&#xb6;" horiz-adv-x="653" 
d="M547 770v-1000h-71v936h-154v-936h-71v557q-100 0 -161 61t-61 161t61 160.5t161 60.5h296z" />
    <glyph glyph-name="periodcentered" unicode="&#xb7;" horiz-adv-x="239" 
d="M120 212q-25 0 -40.5 15t-15.5 39q0 23 15.5 38t40.5 15t40.5 -15t15.5 -38q0 -24 -15.5 -39t-40.5 -15z" />
    <glyph glyph-name="cedilla" unicode="&#xb8;" horiz-adv-x="264" 
d="M152 -63q40 0 64 -23t24 -60q0 -42 -38 -68t-99 -26q-57 0 -97 25v45q43 -28 91 -28q36 0 58 14t22 37q0 19 -13 30.5t-35 11.5q-37 0 -56 -24l-34 21l80 134l43 -26l-44 -68l2 -1q18 6 32 6z" />
    <glyph glyph-name="ordmasculine" unicode="&#xba;" horiz-adv-x="395" 
d="M198 469q-69 0 -110.5 42.5t-41.5 112.5q0 71 41.5 113.5t110.5 42.5q68 0 109.5 -42.5t41.5 -113.5q0 -70 -41.5 -112.5t-109.5 -42.5zM198 520q39 0 63 28.5t24 75.5t-24 76t-63 29q-40 0 -64 -29t-24 -76t24 -75.5t64 -28.5z" />
    <glyph glyph-name="guillemotright" unicode="&#xbb;" horiz-adv-x="493" 
d="M66 110l118 150l-118 150h85l121 -150l-121 -150h-85zM244 110l118 150l-118 150h85l121 -150l-121 -150h-85z" />
    <glyph glyph-name="onequarter" unicode="&#xbc;" horiz-adv-x="789" 
d="M131 338v325h-87v45q47 0 71.5 14t36.5 48h45v-432h-66zM563 770h70l-508 -770h-71zM755 156v-52h-58v-104h-66v104h-212v56l197 272h81v-276h58zM632 366l-152 -209v-1h153v210h-1z" />
    <glyph glyph-name="onehalf" unicode="&#xbd;" horiz-adv-x="812" 
d="M130 338v325h-87v45q47 0 71.5 14t36.5 48h45v-432h-66zM562 770h70l-508 -770h-71zM533 52h243v-52h-315v57q111 60 172.5 126t61.5 128q0 34 -21 53.5t-58 19.5q-38 0 -61.5 -23t-25.5 -64h-64q5 67 45 104t107 37q70 0 109 -34t39 -94q0 -71 -64.5 -138.5
t-167.5 -118.5v-1z" />
    <glyph glyph-name="threequarters" unicode="&#xbe;" horiz-adv-x="915" 
d="M349 456q0 -58 -42 -91t-117 -33q-68 0 -108 36.5t-44 101.5h63q2 -40 25.5 -62.5t63.5 -22.5q43 0 67 20t24 56q0 35 -25 55t-70 20h-12v47h8q41 0 63.5 18.5t22.5 51.5t-20.5 51.5t-57.5 18.5q-36 0 -57.5 -22t-23.5 -62h-63q4 65 42.5 101t102.5 36q68 0 106.5 -31
t38.5 -87q0 -71 -78 -96v-1q91 -24 91 -105zM690 770h70l-508 -770h-71zM882 156v-52h-58v-104h-66v104h-212v56l197 272h81v-276h58zM759 366l-152 -209v-1h153v210h-1z" />
    <glyph glyph-name="questiondown" unicode="&#xbf;" horiz-adv-x="510" 
d="M281 418q-25 0 -40.5 15t-15.5 39t15.5 38.5t40.5 14.5t40.5 -14.5t15.5 -38.5t-15.5 -39t-40.5 -15zM253 -240q-107 0 -172 51.5t-65 136.5q0 17 5.5 34t11 28.5t21.5 30.5t21.5 25t28 28l26.5 26q39 39 59 61.5t39.5 62t19.5 78.5h67v-6q0 -47 -19.5 -91.5t-40.5 -70.5
t-58 -64l-19 -19.5l-19.5 -20.5l-16.5 -18t-15.5 -20l-10.5 -19t-8 -21t-2 -21q0 -53 41 -85.5t109 -32.5t112 39t48 103h82q-5 -97 -72.5 -156t-172.5 -59z" />
    <glyph glyph-name="Agrave" unicode="&#xc0;" horiz-adv-x="688" 
d="M387 835h-64l-113 165h87zM590 0l-71 198h-354l-72 -198h-88l289 770h100l289 -770h-93zM190 269h303l-150 417h-2z" />
    <glyph glyph-name="Aacute" unicode="&#xc1;" horiz-adv-x="688" 
d="M477 1000l-113 -165h-64l90 165h87zM590 0l-71 198h-354l-72 -198h-88l289 770h100l289 -770h-93zM190 269h303l-150 417h-2z" />
    <glyph glyph-name="Acircumflex" unicode="&#xc2;" horiz-adv-x="688" 
d="M342 948l-85 -113h-71l115 157h85l115 -157h-71l-86 113h-2zM590 0l-71 198h-354l-72 -198h-88l289 770h100l289 -770h-93zM190 269h303l-150 417h-2z" />
    <glyph glyph-name="Atilde" unicode="&#xc3;" horiz-adv-x="688" 
d="M269 907q-23 0 -37 -18t-16 -49h-45q1 62 28 97t75 35q37 0 80 -31.5t64 -31.5q47 0 53 67h45q-1 -62 -28 -97t-76 -35q-36 0 -79 31.5t-64 31.5zM590 0l-71 198h-354l-72 -198h-88l289 770h100l289 -770h-93zM190 269h303l-150 417h-2z" />
    <glyph glyph-name="Adieresis" unicode="&#xc4;" horiz-adv-x="688" 
d="M264 835q-22 0 -36 13t-14 34t14 34.5t36 13.5t36 -13.5t14 -34.5t-14 -34t-36 -13zM423 835q-22 0 -35.5 13t-13.5 34t13.5 34.5t35.5 13.5t36 -13.5t14 -34.5t-14 -34t-36 -13zM590 0l-71 198h-354l-72 -198h-88l289 770h100l289 -770h-93zM190 269h303l-150 417h-2z
" />
    <glyph glyph-name="Aring" unicode="&#xc5;" horiz-adv-x="688" 
d="M344 827q-53 0 -85.5 30.5t-32.5 79.5q0 50 32.5 80t85.5 30t85 -30.5t32 -79.5t-32.5 -79.5t-84.5 -30.5zM344 1001q-28 0 -45 -17.5t-17 -46.5q0 -28 17 -45.5t45 -17.5t44.5 17t16.5 46t-16.5 46.5t-44.5 17.5zM590 0l-71 198h-354l-72 -198h-88l289 770h100l289 -770
h-93zM190 269h303l-150 417h-2z" />
    <glyph glyph-name="AE" unicode="&#xc6;" horiz-adv-x="1077" 
d="M641 71h387v-71h-465l-40 197h-350l-99 -197h-88l387 770h644v-71h-514l58 -265h420v-71h-405zM209 268h299l-86 418h-2z" />
    <glyph glyph-name="Ccedilla" unicode="&#xc7;" horiz-adv-x="781" 
d="M405 64q97 0 166 57t85 149h86q-18 -120 -103.5 -196t-209.5 -83l-38 -59l2 -1q18 6 32 6q40 0 64 -23t24 -60q0 -42 -38 -68t-99 -26q-57 0 -97 25v45q43 -28 91 -28q36 0 58 14t22 37q0 19 -13 30.5t-35 11.5q-37 0 -56 -24l-34 21l59 99q-146 12 -234 119t-88 275
q0 178 98 286.5t258 108.5q134 0 226 -75.5t111 -199.5h-86q-16 91 -84.5 146t-166.5 55q-121 0 -194.5 -88t-73.5 -233t73.5 -233t194.5 -88z" />
    <glyph glyph-name="Egrave" unicode="&#xc8;" horiz-adv-x="651" 
d="M386 835h-64l-113 165h87zM182 71h421v-71h-507v770h495v-71h-409v-266h373v-71h-373v-291z" />
    <glyph glyph-name="Eacute" unicode="&#xc9;" horiz-adv-x="651" 
d="M475 1000l-113 -165h-64l90 165h87zM182 71h421v-71h-507v770h495v-71h-409v-266h373v-71h-373v-291z" />
    <glyph glyph-name="Ecircumflex" unicode="&#xca;" horiz-adv-x="651" 
d="M341 948l-85 -113h-71l115 157h85l115 -157h-71l-86 113h-2zM182 71h421v-71h-507v770h495v-71h-409v-266h373v-71h-373v-291z" />
    <glyph glyph-name="Edieresis" unicode="&#xcb;" horiz-adv-x="651" 
d="M262 835q-22 0 -36 13t-14 34t14 34.5t36 13.5t36 -13.5t14 -34.5t-14 -34t-36 -13zM421 835q-22 0 -35.5 13t-13.5 34t13.5 34.5t35.5 13.5t36 -13.5t14 -34.5t-14 -34t-36 -13zM182 71h421v-71h-507v770h495v-71h-409v-266h373v-71h-373v-291z" />
    <glyph glyph-name="Igrave" unicode="&#xcc;" horiz-adv-x="277" 
d="M182 835h-64l-113 165h87zM96 0v770h86v-770h-86z" />
    <glyph glyph-name="Iacute" unicode="&#xcd;" horiz-adv-x="277" 
d="M95 835l90 165h87l-113 -165h-64zM96 0v770h86v-770h-86z" />
    <glyph glyph-name="Icircumflex" unicode="&#xce;" horiz-adv-x="277" 
d="M181 992l115 -157h-71l-86 113h-2l-85 -113h-71l115 157h85zM96 0v770h86v-770h-86z" />
    <glyph glyph-name="Idieresis" unicode="&#xcf;" horiz-adv-x="277" 
d="M59 835q-22 0 -36 13t-14 34t14 34.5t36 13.5t36 -13.5t14 -34.5t-14 -34t-36 -13zM218 835q-22 0 -35.5 13t-13.5 34t13.5 34.5t35.5 13.5t36 -13.5t14 -34.5t-14 -34t-36 -13zM96 0v770h86v-770h-86z" />
    <glyph glyph-name="Eth" unicode="&#xd0;" horiz-adv-x="738" 
d="M324 770q164 0 264.5 -106t100.5 -279t-100.5 -279t-264.5 -106h-221v360h-67v61h67v349h221zM330 71q122 0 196 86t74 228t-74 228t-196 86h-141v-278h185v-61h-185v-289h141z" />
    <glyph glyph-name="Ntilde" unicode="&#xd1;" horiz-adv-x="757" 
d="M304 907q-23 0 -37 -18t-16 -49h-45q1 62 28 97t75 35q37 0 80 -31.5t64 -31.5q47 0 53 67h45q-1 -62 -28 -97t-76 -35q-36 0 -78.5 31.5t-64.5 31.5zM580 770h82v-770h-83l-400 631h-2l2 -631h-83v770h84l400 -633h2z" />
    <glyph glyph-name="Ograve" unicode="&#xd2;" horiz-adv-x="815" 
d="M451 835h-64l-113 165h87zM407 -10q-161 0 -259.5 108.5t-98.5 286.5t98.5 286.5t259.5 108.5t260 -108.5t99 -286.5t-99 -286.5t-260 -108.5zM407 64q122 0 196.5 88t74.5 233t-74.5 233t-196.5 88t-196 -88t-74 -233t74 -233t196 -88z" />
    <glyph glyph-name="Oacute" unicode="&#xd3;" horiz-adv-x="815" 
d="M364 835l90 165h87l-113 -165h-64zM407 -10q-161 0 -259.5 108.5t-98.5 286.5t98.5 286.5t259.5 108.5t260 -108.5t99 -286.5t-99 -286.5t-260 -108.5zM407 64q122 0 196.5 88t74.5 233t-74.5 233t-196.5 88t-196 -88t-74 -233t74 -233t196 -88z" />
    <glyph glyph-name="Ocircumflex" unicode="&#xd4;" horiz-adv-x="815" 
d="M406 948l-85 -113h-71l115 157h85l115 -157h-71l-86 113h-2zM407 780q161 0 260 -108.5t99 -286.5t-99 -286.5t-260 -108.5t-259.5 108.5t-98.5 286.5t98.5 286.5t259.5 108.5zM407 64q122 0 196.5 88t74.5 233t-74.5 233t-196.5 88t-196 -88t-74 -233t74 -233t196 -88z
" />
    <glyph glyph-name="Otilde" unicode="&#xd5;" horiz-adv-x="815" 
d="M235 840q1 62 28 97t75 35q37 0 80 -31.5t64 -31.5q47 0 53 67h45q-1 -62 -28 -97t-76 -35q-36 0 -79 31.5t-64 31.5q-23 0 -37 -18t-16 -49h-45zM407 -10q-161 0 -259.5 108.5t-98.5 286.5t98.5 286.5t259.5 108.5t260 -108.5t99 -286.5t-99 -286.5t-260 -108.5zM407 64
q122 0 196.5 88t74.5 233t-74.5 233t-196.5 88t-196 -88t-74 -233t74 -233t196 -88z" />
    <glyph glyph-name="Odieresis" unicode="&#xd6;" horiz-adv-x="815" 
d="M328 835q-22 0 -36 13t-14 34t14 34.5t36 13.5t36 -13.5t14 -34.5t-14 -34t-36 -13zM487 835q-22 0 -35.5 13t-13.5 34t13.5 34.5t35.5 13.5t36 -13.5t14 -34.5t-14 -34t-36 -13zM407 -10q-161 0 -259.5 108.5t-98.5 286.5t98.5 286.5t259.5 108.5t260 -108.5t99 -286.5
t-99 -286.5t-260 -108.5zM407 64q122 0 196.5 88t74.5 233t-74.5 233t-196.5 88t-196 -88t-74 -233t74 -233t196 -88z" />
    <glyph glyph-name="multiply" unicode="&#xd7;" horiz-adv-x="502" 
d="M443 387l-138 -137l138 -138l-54 -54l-138 138l-138 -138l-53 54l138 138l-138 137l53 54l138 -138l138 138z" />
    <glyph glyph-name="Oslash" unicode="&#xd8;" horiz-adv-x="811" 
d="M630 705q134 -110 134 -320q0 -178 -99 -286.5t-260 -108.5q-103 0 -181 46l-45 -74l-43 27l46 76q-135 108 -135 320q0 178 98.5 286.5t259.5 108.5q103 0 183 -46l44 73l43 -27zM135 385q0 -160 90 -250l322 531q-62 40 -142 40q-122 0 -196 -88t-74 -233zM405 64
q122 0 196.5 88t74.5 233q0 160 -89 249l-322 -531q61 -39 140 -39z" />
    <glyph glyph-name="Ugrave" unicode="&#xd9;" horiz-adv-x="735" 
d="M412 835h-64l-113 165h87zM367 -10q-126 0 -203 77.5t-77 204.5v498h86v-504q0 -91 53.5 -146.5t142.5 -55.5t143.5 55.5t54.5 146.5v504h81v-498q0 -127 -77 -204.5t-204 -77.5z" />
    <glyph glyph-name="Uacute" unicode="&#xda;" horiz-adv-x="735" 
d="M325 835l90 165h87l-113 -165h-64zM367 -10q-126 0 -203 77.5t-77 204.5v498h86v-504q0 -91 53.5 -146.5t142.5 -55.5t143.5 55.5t54.5 146.5v504h81v-498q0 -127 -77 -204.5t-204 -77.5z" />
    <glyph glyph-name="Ucircumflex" unicode="&#xdb;" horiz-adv-x="735" 
d="M368 948l-85 -113h-71l115 157h85l115 -157h-71l-86 113h-2zM567 770h81v-498q0 -127 -77 -204.5t-204 -77.5q-126 0 -203 77.5t-77 204.5v498h86v-504q0 -91 53.5 -146.5t142.5 -55.5t143.5 55.5t54.5 146.5v504z" />
    <glyph glyph-name="Udieresis" unicode="&#xdc;" horiz-adv-x="735" 
d="M289 835q-22 0 -36 13t-14 34t14 34.5t36 13.5t36 -13.5t14 -34.5t-14 -34t-36 -13zM448 835q-22 0 -35.5 13t-13.5 34t13.5 34.5t35.5 13.5t36 -13.5t14 -34.5t-14 -34t-36 -13zM367 -10q-126 0 -203 77.5t-77 204.5v498h86v-504q0 -91 53.5 -146.5t142.5 -55.5
t143.5 55.5t54.5 146.5v504h81v-498q0 -127 -77 -204.5t-204 -77.5z" />
    <glyph glyph-name="Yacute" unicode="&#xdd;" horiz-adv-x="671" 
d="M471 1000l-113 -165h-64l90 165h87zM670 770l-293 -480v-290h-85v291l-291 479h101l236 -396h2l235 396h95z" />
    <glyph glyph-name="Thorn" unicode="&#xde;" horiz-adv-x="659" 
d="M360 631q116 0 187 -64t71 -168q0 -105 -71 -169t-188 -64h-177v-166h-86v770h86v-139h178zM365 236q74 0 119.5 45t45.5 118t-45.5 117t-119.5 44h-183v-324h183z" />
    <glyph glyph-name="germandbls" unicode="&#xdf;" horiz-adv-x="645" 
d="M408 434q90 -17 142 -73.5t52 -138.5q0 -104 -68.5 -168t-180.5 -64q-57 0 -96 12v64q38 -8 82 -8q80 0 129.5 47t49.5 124t-54 124t-143 47h-39v59q82 0 131 36.5t49 96.5q0 54 -38 87t-101 33q-71 0 -114 -40t-43 -106v-566h-82v563q0 98 65.5 157.5t173.5 59.5
q100 0 161.5 -50t61.5 -131q0 -57 -36.5 -100t-101.5 -63v-2z" />
    <glyph glyph-name="agrave" unicode="&#xe0;" horiz-adv-x="634" 
d="M352 604h-64l-113 165h87zM469 515h82v-515h-82v102h-2q-22 -52 -75.5 -82t-119.5 -30q-101 0 -163 73.5t-62 194.5q0 120 62.5 193.5t163.5 73.5q65 0 118 -30t76 -82h2v102zM300 57q76 0 122.5 55.5t46.5 145.5t-46.5 145t-122.5 55t-122.5 -55t-46.5 -145t46.5 -145.5
t122.5 -55.5z" />
    <glyph glyph-name="aacute" unicode="&#xe1;" horiz-adv-x="634" 
d="M442 769l-113 -165h-64l90 165h87zM469 515h82v-515h-82v102h-2q-22 -52 -75.5 -82t-119.5 -30q-101 0 -163 73.5t-62 194.5q0 120 62.5 193.5t163.5 73.5q65 0 118 -30t76 -82h2v102zM300 57q76 0 122.5 55.5t46.5 145.5t-46.5 145t-122.5 55t-122.5 -55t-46.5 -145
t46.5 -145.5t122.5 -55.5z" />
    <glyph glyph-name="acircumflex" unicode="&#xe2;" horiz-adv-x="634" 
d="M307 725l-85 -113h-71l115 157h85l115 -157h-71l-86 113h-2zM469 515h82v-515h-82v102h-2q-22 -52 -75.5 -82t-119.5 -30q-101 0 -163 73.5t-62 194.5q0 120 62.5 193.5t163.5 73.5q65 0 118 -30t76 -82h2v102zM300 57q76 0 122.5 55.5t46.5 145.5t-46.5 145t-122.5 55
t-122.5 -55t-46.5 -145t46.5 -145.5t122.5 -55.5z" />
    <glyph glyph-name="atilde" unicode="&#xe3;" horiz-adv-x="634" 
d="M234 687q-23 0 -37 -18t-16 -49h-45q1 62 28 97t75 35q37 0 80 -31.5t64 -31.5q47 0 53 67h45q-1 -62 -28 -97t-76 -35q-37 0 -79 31.5t-64 31.5zM469 515h82v-515h-82v102h-2q-22 -52 -75.5 -82t-119.5 -30q-101 0 -163 73.5t-62 194.5q0 120 62.5 193.5t163.5 73.5
q65 0 118 -30t76 -82h2v102zM300 57q76 0 122.5 55.5t46.5 145.5t-46.5 145t-122.5 55t-122.5 -55t-46.5 -145t46.5 -145.5t122.5 -55.5z" />
    <glyph glyph-name="adieresis" unicode="&#xe4;" horiz-adv-x="634" 
d="M229 645q-22 0 -36 13t-14 34t14 34.5t36 13.5t36 -13.5t14 -34.5t-14 -34t-36 -13zM388 645q-22 0 -35.5 13t-13.5 34t13.5 34.5t35.5 13.5t36 -13.5t14 -34.5t-14 -34t-36 -13zM469 515h82v-515h-82v102h-2q-22 -52 -75.5 -82t-119.5 -30q-101 0 -163 73.5t-62 194.5
q0 120 62.5 193.5t163.5 73.5q65 0 118 -30t76 -82h2v102zM300 57q76 0 122.5 55.5t46.5 145.5t-46.5 145t-122.5 55t-122.5 -55t-46.5 -145t46.5 -145.5t122.5 -55.5z" />
    <glyph glyph-name="aring" unicode="&#xe5;" horiz-adv-x="634" 
d="M309 571q-53 0 -85.5 30.5t-32.5 79.5q0 50 32.5 80t85.5 30t85 -30.5t32 -79.5t-32.5 -79.5t-84.5 -30.5zM309 745q-28 0 -45 -17.5t-17 -46.5q0 -28 17 -45.5t45 -17.5t44.5 17t16.5 46t-16.5 46.5t-44.5 17.5zM469 515h82v-515h-82v102h-2q-22 -52 -75.5 -82
t-119.5 -30q-101 0 -163 73.5t-62 194.5q0 120 62.5 193.5t163.5 73.5q65 0 118 -30t76 -82h2v102zM300 57q76 0 122.5 55.5t46.5 145.5t-46.5 145t-122.5 55t-122.5 -55t-46.5 -145t46.5 -145.5t122.5 -55.5z" />
    <glyph glyph-name="ae" unicode="&#xe6;" horiz-adv-x="934" 
d="M887 255v-14h-409q5 -86 49.5 -137t117.5 -51q59 0 103 34t57 89h81q-17 -84 -82.5 -135t-156.5 -51q-73 0 -125.5 35.5t-78.5 100.5h-2q-25 -65 -84 -100.5t-145 -35.5q-77 0 -124.5 37.5t-47.5 98.5q0 27 7.5 48t18.5 36.5t36.5 29.5t48 23.5t67.5 21t80 18.5l100 20
v45q0 45 -35 72t-93 27q-57 0 -92.5 -31t-37.5 -82h-78q2 77 58 124t146 47q74 0 123.5 -31t62.5 -85h2q28 55 78 85.5t115 30.5q108 0 174 -74.5t66 -195.5zM644 464q-67 0 -111.5 -47t-52.5 -125h325q-8 78 -51.5 125t-109.5 47zM220 50q80 0 129 45t49 105v71
q-18 -4 -52 -11l-78 -16.5t-60 -17t-50 -23t-26.5 -29.5t-11.5 -42q0 -37 27.5 -59.5t72.5 -22.5z" />
    <glyph glyph-name="ccedilla" unicode="&#xe7;" horiz-adv-x="573" 
d="M536 174q-13 -78 -72 -127t-144 -56l-38 -59l2 -1q18 6 32 6q40 0 64 -23t24 -60q0 -42 -38 -68t-99 -26q-57 0 -97 25v45q43 -28 91 -28q36 0 58 14t22 37q0 19 -13 30.5t-35 11.5q-37 0 -56 -24l-34 21l60 100q-99 11 -158 83t-59 183q0 120 69 193.5t181 73.5
q89 0 154.5 -49.5t81.5 -129.5h-83q-13 50 -55 80.5t-98 30.5q-75 0 -120.5 -54.5t-45.5 -144.5t45.5 -145t120.5 -55q60 0 103 32t53 84h84z" />
    <glyph glyph-name="egrave" unicode="&#xe8;" horiz-adv-x="591" 
d="M339 605h-64l-113 165h87zM545 255v-14h-418q5 -86 50.5 -137t118.5 -51q61 0 107 34t60 89h80q-18 -84 -86 -135t-161 -51q-112 0 -181 73.5t-69 193.5q0 121 68.5 194.5t181.5 73.5q112 0 180.5 -74.5t68.5 -195.5zM296 464q-69 0 -114 -47t-53 -125h333q-8 78 -53 125
t-113 47z" />
    <glyph glyph-name="eacute" unicode="&#xe9;" horiz-adv-x="591" 
d="M429 770l-113 -165h-64l90 165h87zM545 255v-14h-418q5 -86 50.5 -137t118.5 -51q61 0 107 34t60 89h80q-18 -84 -86 -135t-161 -51q-112 0 -181 73.5t-69 193.5q0 121 68.5 194.5t181.5 73.5q112 0 180.5 -74.5t68.5 -195.5zM296 464q-69 0 -114 -47t-53 -125h333
q-8 78 -53 125t-113 47z" />
    <glyph glyph-name="ecircumflex" unicode="&#xea;" horiz-adv-x="591" 
d="M294 726l-85 -113h-71l115 157h85l115 -157h-71l-86 113h-2zM545 255v-14h-418q5 -86 50.5 -137t118.5 -51q61 0 107 34t60 89h80q-18 -84 -86 -135t-161 -51q-112 0 -181 73.5t-69 193.5q0 121 68.5 194.5t181.5 73.5q112 0 180.5 -74.5t68.5 -195.5zM296 464
q-69 0 -114 -47t-53 -125h333q-8 78 -53 125t-113 47z" />
    <glyph glyph-name="edieresis" unicode="&#xeb;" horiz-adv-x="591" 
d="M216 646q-22 0 -36 13t-14 34t14 34.5t36 13.5t36 -13.5t14 -34.5t-14 -34t-36 -13zM375 646q-22 0 -35.5 13t-13.5 34t13.5 34.5t35.5 13.5t36 -13.5t14 -34.5t-14 -34t-36 -13zM545 255v-14h-418q5 -86 50.5 -137t118.5 -51q61 0 107 34t60 89h80q-18 -84 -86 -135
t-161 -51q-112 0 -181 73.5t-69 193.5q0 121 68.5 194.5t181.5 73.5q112 0 180.5 -74.5t68.5 -195.5zM296 464q-69 0 -114 -47t-53 -125h333q-8 78 -53 125t-113 47z" />
    <glyph glyph-name="igrave" unicode="&#xec;" horiz-adv-x="255" 
d="M171 605h-64l-113 165h87zM87 0v515h82v-515h-82z" />
    <glyph glyph-name="iacute" unicode="&#xed;" horiz-adv-x="255" 
d="M84 605l90 165h87l-113 -165h-64zM87 0v515h82v-515h-82z" />
    <glyph glyph-name="icircumflex" unicode="&#xee;" horiz-adv-x="255" 
d="M170 770l115 -157h-71l-86 113h-2l-85 -113h-71l115 157h85zM87 0v515h82v-515h-82z" />
    <glyph glyph-name="idieresis" unicode="&#xef;" horiz-adv-x="255" 
d="M48 646q-22 0 -36 13t-14 34t14 34.5t36 13.5t36 -13.5t14 -34.5t-14 -34t-36 -13zM207 646q-22 0 -35.5 13t-13.5 34t13.5 34.5t35.5 13.5t36 -13.5t14 -34.5t-14 -34t-36 -13zM87 0v515h82v-515h-82z" />
    <glyph glyph-name="eth" unicode="&#xf0;" horiz-adv-x="608" 
d="M340 684q113 -70 162 -168t49 -245q0 -127 -69.5 -204t-183.5 -77t-183 72t-69 191q0 118 66 190t174 72q113 0 177 -81q-20 70 -66 122.5t-124 93.5l-147 -73l-28 45l115 57q-49 21 -115 42l20 59q93 -30 166 -66l131 66l28 -45zM298 58q76 0 122.5 53.5t46.5 141.5
q0 87 -46.5 140.5t-122.5 53.5t-122.5 -53.5t-46.5 -140.5q0 -88 46.5 -141.5t122.5 -53.5z" />
    <glyph glyph-name="ntilde" unicode="&#xf1;" horiz-adv-x="611" 
d="M235 688q-23 0 -37 -18t-16 -49h-45q1 62 28 97t75 35q37 0 80 -31.5t64 -31.5q47 0 53 67h45q-1 -62 -28 -97t-76 -35q-36 0 -79 31.5t-64 31.5zM350 525q84 0 134.5 -55t50.5 -146v-324h-82v318q0 62 -37 100.5t-98 38.5q-68 0 -110 -47.5t-42 -125.5v-284h-82v515h82
v-95h2q21 47 71 76t111 29z" />
    <glyph glyph-name="ograve" unicode="&#xf2;" horiz-adv-x="597" 
d="M342 605h-64l-113 165h87zM298 -10q-113 0 -182.5 73.5t-69.5 194.5q0 120 69.5 193.5t182.5 73.5q114 0 183.5 -73.5t69.5 -193.5q0 -121 -69.5 -194.5t-183.5 -73.5zM298 58q76 0 122.5 55t46.5 145t-46.5 145t-122.5 55t-122 -55t-46 -145t46 -145t122 -55z" />
    <glyph glyph-name="oacute" unicode="&#xf3;" horiz-adv-x="597" 
d="M255 605l90 165h87l-113 -165h-64zM298 -10q-113 0 -182.5 73.5t-69.5 194.5q0 120 69.5 193.5t182.5 73.5q114 0 183.5 -73.5t69.5 -193.5q0 -121 -69.5 -194.5t-183.5 -73.5zM298 58q76 0 122.5 55t46.5 145t-46.5 145t-122.5 55t-122 -55t-46 -145t46 -145t122 -55z
" />
    <glyph glyph-name="ocircumflex" unicode="&#xf4;" horiz-adv-x="597" 
d="M297 726l-85 -113h-71l115 157h85l115 -157h-71l-86 113h-2zM298 525q114 0 183.5 -73.5t69.5 -193.5q0 -121 -69.5 -194.5t-183.5 -73.5q-113 0 -182.5 73.5t-69.5 194.5q0 120 69.5 193.5t182.5 73.5zM298 58q76 0 122.5 55t46.5 145t-46.5 145t-122.5 55t-122 -55
t-46 -145t46 -145t122 -55z" />
    <glyph glyph-name="otilde" unicode="&#xf5;" horiz-adv-x="597" 
d="M126 621q1 62 28 97t75 35q37 0 80 -31.5t64 -31.5q47 0 53 67h45q-1 -62 -28 -97t-76 -35q-37 0 -79 31.5t-64 31.5q-23 0 -37 -18t-16 -49h-45zM298 -10q-113 0 -182.5 73.5t-69.5 194.5q0 120 69.5 193.5t182.5 73.5q114 0 183.5 -73.5t69.5 -193.5
q0 -121 -69.5 -194.5t-183.5 -73.5zM298 58q76 0 122.5 55t46.5 145t-46.5 145t-122.5 55t-122 -55t-46 -145t46 -145t122 -55z" />
    <glyph glyph-name="odieresis" unicode="&#xf6;" horiz-adv-x="597" 
d="M219 646q-22 0 -36 13t-14 34t14 34.5t36 13.5t36 -13.5t14 -34.5t-14 -34t-36 -13zM378 646q-22 0 -35.5 13t-13.5 34t13.5 34.5t35.5 13.5t36 -13.5t14 -34.5t-14 -34t-36 -13zM298 -10q-113 0 -182.5 73.5t-69.5 194.5q0 120 69.5 193.5t182.5 73.5q114 0 183.5 -73.5
t69.5 -193.5q0 -121 -69.5 -194.5t-183.5 -73.5zM298 58q76 0 122.5 55t46.5 145t-46.5 145t-122.5 55t-122 -55t-46 -145t46 -145t122 -55z" />
    <glyph glyph-name="divide" unicode="&#xf7;" horiz-adv-x="509" 
d="M255 343q-23 0 -37 13t-14 35q0 23 14 36.5t37 13.5t37 -14t14 -36t-14 -35t-37 -13zM63 220v64h383v-64h-383zM255 63q-23 0 -37 13.5t-14 35.5t14 35.5t37 13.5t37 -13.5t14 -35.5t-14 -35.5t-37 -13.5z" />
    <glyph glyph-name="oslash" unicode="&#xf8;" horiz-adv-x="597" 
d="M466 467q85 -74 85 -209q0 -121 -69.5 -194.5t-183.5 -73.5q-73 0 -129 32l-40 -61l-40 26l41 62q-84 74 -84 209q0 120 69.5 193.5t182.5 73.5q72 0 129 -31l40 60l40 -25zM130 258q0 -88 44 -143l212 318q-37 25 -88 25q-76 0 -122 -55t-46 -145zM298 58q76 0 122.5 55
t46.5 145q0 89 -45 143l-212 -318q39 -25 88 -25z" />
    <glyph glyph-name="ugrave" unicode="&#xf9;" horiz-adv-x="592" 
d="M341 605h-64l-113 165h87zM296 -10q-99 0 -160 58t-61 153v314h82v-305q0 -69 38.5 -111t100.5 -42t100.5 42t38.5 111v305h82v-314q0 -95 -60.5 -153t-160.5 -58z" />
    <glyph glyph-name="uacute" unicode="&#xfa;" horiz-adv-x="592" 
d="M254 605l90 165h87l-113 -165h-64zM296 -10q-99 0 -160 58t-61 153v314h82v-305q0 -69 38.5 -111t100.5 -42t100.5 42t38.5 111v305h82v-314q0 -95 -60.5 -153t-160.5 -58z" />
    <glyph glyph-name="ucircumflex" unicode="&#xfb;" horiz-adv-x="592" 
d="M296 726l-85 -113h-71l115 157h85l115 -157h-71l-86 113h-2zM435 515h82v-314q0 -95 -60.5 -153t-160.5 -58q-99 0 -160 58t-61 153v314h82v-305q0 -69 38.5 -111t100.5 -42t100.5 42t38.5 111v305z" />
    <glyph glyph-name="udieresis" unicode="&#xfc;" horiz-adv-x="592" 
d="M218 646q-22 0 -36 13t-14 34t14 34.5t36 13.5t36 -13.5t14 -34.5t-14 -34t-36 -13zM377 646q-22 0 -35.5 13t-13.5 34t13.5 34.5t35.5 13.5t36 -13.5t14 -34.5t-14 -34t-36 -13zM296 -10q-99 0 -160 58t-61 153v314h82v-305q0 -69 38.5 -111t100.5 -42t100.5 42
t38.5 111v305h82v-314q0 -95 -60.5 -153t-160.5 -58z" />
    <glyph glyph-name="yacute" unicode="&#xfd;" horiz-adv-x="546" 
d="M409 770l-113 -165h-64l90 165h87zM448 515h84l-304 -745h-82l86 214l-218 531h86l173 -438h2z" />
    <glyph glyph-name="thorn" unicode="&#xfe;" horiz-adv-x="634" 
d="M362 525q101 0 163 -73.5t62 -193.5q0 -121 -62.5 -194.5t-163.5 -73.5q-66 0 -119 30t-74 82h-2v-332h-82v1000h82v-357h2q22 52 75 82t119 30zM334 57q76 0 122.5 55.5t46.5 145.5t-46.5 144.5t-122.5 54.5t-122 -54.5t-46 -144.5t46 -145.5t122 -55.5z" />
    <glyph glyph-name="ydieresis" unicode="&#xff;" horiz-adv-x="546" 
d="M196 646q-22 0 -36 13t-14 34t14 34.5t36 13.5t36 -13.5t14 -34.5t-14 -34t-36 -13zM355 646q-22 0 -35.5 13t-13.5 34t13.5 34.5t35.5 13.5t36 -13.5t14 -34.5t-14 -34t-36 -13zM448 515h84l-304 -745h-82l86 214l-218 531h86l173 -438h2z" />
    <glyph glyph-name="Amacron" unicode="&#x100;" horiz-adv-x="688" 
d="M485 904v-62h-282v62h282zM590 0l-71 198h-354l-72 -198h-88l289 770h100l289 -770h-93zM190 269h303l-150 417h-2z" />
    <glyph glyph-name="amacron" unicode="&#x101;" horiz-adv-x="634" 
d="M450 719v-62h-282v62h282zM469 515h82v-515h-82v102h-2q-22 -52 -75.5 -82t-119.5 -30q-101 0 -163 73.5t-62 194.5q0 120 62.5 193.5t163.5 73.5q65 0 118 -30t76 -82h2v102zM300 57q76 0 122.5 55.5t46.5 145.5t-46.5 145t-122.5 55t-122.5 -55t-46.5 -145t46.5 -145.5
t122.5 -55.5z" />
    <glyph glyph-name="Abreve" unicode="&#x102;" horiz-adv-x="688" 
d="M344 832q-65 0 -105 44t-40 116h61q0 -47 23.5 -76.5t60.5 -29.5t60.5 29.5t23.5 76.5h61q0 -72 -40 -116t-105 -44zM590 0l-71 198h-354l-72 -198h-88l289 770h100l289 -770h-93zM190 269h303l-150 417h-2z" />
    <glyph glyph-name="abreve" unicode="&#x103;" horiz-adv-x="634" 
d="M309 609q-65 0 -105 44t-40 116h61q0 -47 23.5 -76.5t60.5 -29.5t60.5 29.5t23.5 76.5h61q0 -72 -40 -116t-105 -44zM469 515h82v-515h-82v102h-2q-22 -52 -75.5 -82t-119.5 -30q-101 0 -163 73.5t-62 194.5q0 120 62.5 193.5t163.5 73.5q65 0 118 -30t76 -82h2v102z
M300 57q76 0 122.5 55.5t46.5 145.5t-46.5 145t-122.5 55t-122.5 -55t-46.5 -145t46.5 -145.5t122.5 -55.5z" />
    <glyph glyph-name="Aogonek" unicode="&#x104;" horiz-adv-x="688" 
d="M589 -145q0 -19 12 -31t32 -12q27 0 50 15v-52q-30 -15 -69 -15q-43 0 -69.5 22t-26.5 58q0 62 101 160h-29l-71 198h-354l-72 -198h-88l289 770h100l289 -770q-42 -41 -68 -80.5t-26 -64.5zM190 269h303l-150 417h-2z" />
    <glyph glyph-name="aogonek" unicode="&#x105;" horiz-adv-x="634" 
d="M469 515h82v-515h-1q-42 -41 -68 -80.5t-26 -64.5q0 -19 12 -31t32 -12q27 0 50 15v-52q-30 -15 -69 -15q-43 0 -69.5 22t-26.5 58q0 62 101 160h-17v102h-2q-22 -52 -75.5 -82t-119.5 -30q-101 0 -163 73.5t-62 194.5q0 120 62.5 193.5t163.5 73.5q65 0 118 -30t76 -82
h2v102zM300 57q76 0 122.5 55.5t46.5 145.5t-46.5 145t-122.5 55t-122.5 -55t-46.5 -145t46.5 -145.5t122.5 -55.5z" />
    <glyph glyph-name="Cacute" unicode="&#x106;" horiz-adv-x="781" 
d="M361 835l90 165h87l-113 -165h-64zM405 -10q-160 0 -258 108.5t-98 286.5t98 286.5t258 108.5q134 0 226 -75.5t111 -199.5h-86q-16 91 -84.5 146t-166.5 55q-121 0 -194.5 -88t-73.5 -233t73.5 -233t194.5 -88q97 0 166 57t85 149h86q-19 -126 -111.5 -203t-225.5 -77z
" />
    <glyph glyph-name="cacute" unicode="&#x107;" horiz-adv-x="573" 
d="M252 605l90 165h87l-113 -165h-64zM296 -10q-113 0 -181.5 73.5t-68.5 194.5q0 120 69 193.5t181 73.5q89 0 154.5 -49.5t81.5 -129.5h-83q-13 50 -55 80.5t-98 30.5q-75 0 -120.5 -54.5t-45.5 -144.5t45.5 -145t120.5 -55q60 0 103 32t53 84h84q-14 -83 -80 -133.5
t-160 -50.5z" />
    <glyph glyph-name="Cdotaccent" unicode="&#x10a;" horiz-adv-x="781" 
d="M404 837q-23 0 -37 13.5t-14 35.5t14 36t37 14q24 0 38.5 -13.5t14.5 -36.5q0 -22 -14.5 -35.5t-38.5 -13.5zM405 -10q-160 0 -258 108.5t-98 286.5t98 286.5t258 108.5q134 0 226 -75.5t111 -199.5h-86q-16 91 -84.5 146t-166.5 55q-121 0 -194.5 -88t-73.5 -233
t73.5 -233t194.5 -88q97 0 166 57t85 149h86q-19 -126 -111.5 -203t-225.5 -77z" />
    <glyph glyph-name="cdotaccent" unicode="&#x10b;" horiz-adv-x="573" 
d="M294 644q-23 0 -37 13.5t-14 35.5t14 36t37 14q24 0 38.5 -13.5t14.5 -36.5q0 -22 -14.5 -35.5t-38.5 -13.5zM296 -10q-113 0 -181.5 73.5t-68.5 194.5q0 120 69 193.5t181 73.5q89 0 154.5 -49.5t81.5 -129.5h-83q-13 50 -55 80.5t-98 30.5q-75 0 -120.5 -54.5
t-45.5 -144.5t45.5 -145t120.5 -55q60 0 103 32t53 84h84q-14 -83 -80 -133.5t-160 -50.5z" />
    <glyph glyph-name="Ccaron" unicode="&#x10c;" horiz-adv-x="781" 
d="M363 836l-115 157h71l85 -113h2l86 113h71l-115 -157h-85zM405 64q97 0 166 57t85 149h86q-19 -126 -111.5 -203t-225.5 -77q-160 0 -258 108.5t-98 286.5t98 286.5t258 108.5q134 0 226 -75.5t111 -199.5h-86q-16 91 -84.5 146t-166.5 55q-121 0 -194.5 -88t-73.5 -233
t73.5 -233t194.5 -88z" />
    <glyph glyph-name="ccaron" unicode="&#x10d;" horiz-adv-x="573" 
d="M253 614l-115 157h71l85 -113h2l86 113h71l-115 -157h-85zM452 174h84q-14 -83 -80 -133.5t-160 -50.5q-113 0 -181.5 73.5t-68.5 194.5q0 120 69 193.5t181 73.5q89 0 154.5 -49.5t81.5 -129.5h-83q-13 50 -55 80.5t-98 30.5q-75 0 -120.5 -54.5t-45.5 -144.5t45.5 -145
t120.5 -55q60 0 103 32t53 84z" />
    <glyph glyph-name="Dcaron" unicode="&#x10e;" horiz-adv-x="731" 
d="M277 836l-115 157h71l85 -113h2l86 113h71l-115 -157h-85zM317 770q164 0 264.5 -106t100.5 -279t-100.5 -279t-264.5 -106h-221v770h221zM323 71q122 0 196 86t74 228t-74 228t-196 86h-141v-628h141z" />
    <glyph glyph-name="dcaron" unicode="&#x10f;" horiz-adv-x="663" 
d="M645 779l71 -17l-62 -220l-64 16zM469 413v357h82v-770h-82v102h-2q-22 -52 -75.5 -82t-119.5 -30q-101 0 -163 73.5t-62 194.5q0 120 62.5 193.5t163.5 73.5q65 0 118 -30t76 -82h2zM300 57q76 0 122.5 55.5t46.5 145.5t-46.5 145t-122.5 55t-122.5 -55t-46.5 -145
t46.5 -145.5t122.5 -55.5z" />
    <glyph glyph-name="Dcroat" unicode="&#x110;" horiz-adv-x="738" 
d="M324 770q164 0 264.5 -106t100.5 -279t-100.5 -279t-264.5 -106h-221v360h-67v61h67v349h221zM330 71q122 0 196 86t74 228t-74 228t-196 86h-141v-278h185v-61h-185v-289h141z" />
    <glyph glyph-name="dcroat" unicode="&#x111;" horiz-adv-x="634" 
d="M620 669v-61h-69v-608h-82v102h-2q-22 -52 -75.5 -82t-119.5 -30q-101 0 -163 73.5t-62 194.5q0 120 62.5 193.5t163.5 73.5q65 0 118 -30t76 -82h2v195h-188v61h188v101h82v-101h69zM300 57q76 0 122.5 55.5t46.5 145.5t-46.5 145t-122.5 55t-122.5 -55t-46.5 -145
t46.5 -145.5t122.5 -55.5z" />
    <glyph glyph-name="Emacron" unicode="&#x112;" horiz-adv-x="651" 
d="M483 904v-62h-282v62h282zM182 71h421v-71h-507v770h495v-71h-409v-266h373v-71h-373v-291z" />
    <glyph glyph-name="emacron" unicode="&#x113;" horiz-adv-x="591" 
d="M437 720v-62h-282v62h282zM545 255v-14h-418q5 -86 50.5 -137t118.5 -51q61 0 107 34t60 89h80q-18 -84 -86 -135t-161 -51q-112 0 -181 73.5t-69 193.5q0 121 68.5 194.5t181.5 73.5q112 0 180.5 -74.5t68.5 -195.5zM296 464q-69 0 -114 -47t-53 -125h333q-8 78 -53 125
t-113 47z" />
    <glyph glyph-name="Edotaccent" unicode="&#x116;" horiz-adv-x="651" 
d="M341 837q-23 0 -37 13.5t-14 35.5t14 36t37 14q24 0 38.5 -13.5t14.5 -36.5q0 -22 -14.5 -35.5t-38.5 -13.5zM182 71h421v-71h-507v770h495v-71h-409v-266h373v-71h-373v-291z" />
    <glyph glyph-name="edotaccent" unicode="&#x117;" horiz-adv-x="591" 
d="M294 644q-23 0 -37 13.5t-14 35.5t14 36t37 14q24 0 38.5 -13.5t14.5 -36.5q0 -22 -14.5 -35.5t-38.5 -13.5zM545 255v-14h-418q5 -86 50.5 -137t118.5 -51q61 0 107 34t60 89h80q-18 -84 -86 -135t-161 -51q-112 0 -181 73.5t-69 193.5q0 121 68.5 194.5t181.5 73.5
q112 0 180.5 -74.5t68.5 -195.5zM296 464q-69 0 -114 -47t-53 -125h333q-8 78 -53 125t-113 47z" />
    <glyph glyph-name="Eogonek" unicode="&#x118;" horiz-adv-x="651" 
d="M182 71h421v-71h-64q-42 -41 -68 -80.5t-26 -64.5q0 -19 12 -31t32 -12q27 0 50 15v-52q-30 -15 -69 -15q-43 0 -69.5 22t-26.5 58q0 62 101 160h-379v770h495v-71h-409v-266h373v-71h-373v-291z" />
    <glyph glyph-name="eogonek" unicode="&#x119;" horiz-adv-x="591" 
d="M545 255v-14h-418q5 -86 50.5 -137t118.5 -51q61 0 107 34t60 89h80q-14 -64 -58.5 -110t-108.5 -65l2 -1q-42 -41 -68 -80.5t-26 -64.5q0 -19 12 -31t32 -12q27 0 50 15v-52q-30 -15 -69 -15q-43 0 -69.5 22t-26.5 58q0 57 91 150h-8q-112 0 -181 73.5t-69 193.5
q0 121 68.5 194.5t181.5 73.5q112 0 180.5 -74.5t68.5 -195.5zM296 464q-69 0 -114 -47t-53 -125h333q-8 78 -53 125t-113 47z" />
    <glyph glyph-name="Ecaron" unicode="&#x11a;" horiz-adv-x="651" 
d="M300 836l-115 157h71l85 -113h2l86 113h71l-115 -157h-85zM182 71h421v-71h-507v770h495v-71h-409v-266h373v-71h-373v-291z" />
    <glyph glyph-name="ecaron" unicode="&#x11b;" horiz-adv-x="591" 
d="M253 614l-115 157h71l85 -113h2l86 113h71l-115 -157h-85zM545 255v-14h-418q5 -86 50.5 -137t118.5 -51q61 0 107 34t60 89h80q-18 -84 -86 -135t-161 -51q-112 0 -181 73.5t-69 193.5q0 121 68.5 194.5t181.5 73.5q112 0 180.5 -74.5t68.5 -195.5zM296 464
q-69 0 -114 -47t-53 -125h333q-8 78 -53 125t-113 47z" />
    <glyph glyph-name="Gbreve" unicode="&#x11e;" horiz-adv-x="793" 
d="M407 832q-65 0 -105 44t-40 116h61q0 -47 23.5 -76.5t60.5 -29.5t60.5 29.5t23.5 76.5h61q0 -72 -40 -116t-105 -44zM388 397h356v-26q0 -171 -93.5 -276t-245.5 -105q-160 0 -258 108.5t-98 286.5t98 286.5t258 108.5q131 0 222.5 -74t110.5 -195h-86
q-16 88 -83.5 141.5t-163.5 53.5q-121 0 -194.5 -88t-73.5 -233t73.5 -233t194.5 -88q106 0 174 73.5t77 195.5h-268v64z" />
    <glyph glyph-name="gbreve" unicode="&#x11f;" horiz-adv-x="634" 
d="M309 609q-65 0 -105 44t-40 116h61q0 -47 23.5 -76.5t60.5 -29.5t60.5 29.5t23.5 76.5h61q0 -72 -40 -116t-105 -44zM469 515h82v-520q0 -106 -68.5 -170.5t-180.5 -64.5q-101 0 -166 56t-70 147h78q5 -61 48 -98t110 -37q75 0 121 44.5t46 116.5v113h-2
q-22 -52 -75.5 -82t-119.5 -30q-101 0 -163 73.5t-62 194.5q0 120 62.5 193.5t163.5 73.5q65 0 118 -30t76 -82h2v102zM300 57q76 0 122.5 55.5t46.5 145.5t-46.5 145t-122.5 55t-122.5 -55t-46.5 -145t46.5 -145.5t122.5 -55.5z" />
    <glyph glyph-name="Gdotaccent" unicode="&#x120;" horiz-adv-x="793" 
d="M406 837q-23 0 -37 13.5t-14 35.5t14 36t37 14q24 0 38.5 -13.5t14.5 -36.5q0 -22 -14.5 -35.5t-38.5 -13.5zM388 397h356v-26q0 -171 -93.5 -276t-245.5 -105q-160 0 -258 108.5t-98 286.5t98 286.5t258 108.5q131 0 222.5 -74t110.5 -195h-86q-16 88 -83.5 141.5
t-163.5 53.5q-121 0 -194.5 -88t-73.5 -233t73.5 -233t194.5 -88q106 0 174 73.5t77 195.5h-268v64z" />
    <glyph glyph-name="gdotaccent" unicode="&#x121;" horiz-adv-x="634" 
d="M307 643q-23 0 -37 13.5t-14 35.5t14 36t37 14q24 0 38.5 -13.5t14.5 -36.5q0 -22 -14.5 -35.5t-38.5 -13.5zM469 515h82v-520q0 -106 -68.5 -170.5t-180.5 -64.5q-101 0 -166 56t-70 147h78q5 -61 48 -98t110 -37q75 0 121 44.5t46 116.5v113h-2q-22 -52 -75.5 -82
t-119.5 -30q-101 0 -163 73.5t-62 194.5q0 120 62.5 193.5t163.5 73.5q65 0 118 -30t76 -82h2v102zM300 57q76 0 122.5 55.5t46.5 145.5t-46.5 145t-122.5 55t-122.5 -55t-46.5 -145t46.5 -145.5t122.5 -55.5z" />
    <glyph glyph-name="Gcommaaccent" unicode="&#x122;" horiz-adv-x="793" 
d="M388 397h356v-26q0 -171 -93.5 -276t-245.5 -105q-160 0 -258 108.5t-98 286.5t98 286.5t258 108.5q131 0 222.5 -74t110.5 -195h-86q-16 88 -83.5 141.5t-163.5 53.5q-121 0 -194.5 -88t-73.5 -233t73.5 -233t194.5 -88q106 0 174 73.5t77 195.5h-268v64zM407 -69
q22 0 35.5 -16.5t13.5 -43.5q0 -45 -22.5 -80t-59.5 -47l-5 21q44 22 54 82q-9 -4 -22 -4q-18 0 -29.5 11t-11.5 30q0 21 13 34t34 13z" />
    <glyph glyph-name="gcommaaccent" unicode="&#x123;" horiz-adv-x="634" 
d="M309 615q-23 0 -36.5 16.5t-13.5 43.5q0 37 22 69t57 47l10 -22q-46 -18 -54 -74q9 4 21 4q19 0 30 -11t11 -29q0 -20 -13 -32t-34 -12zM469 515h82v-520q0 -106 -68.5 -170.5t-180.5 -64.5q-101 0 -166 56t-70 147h78q5 -61 48 -98t110 -37q75 0 121 44.5t46 116.5v113
h-2q-22 -52 -75.5 -82t-119.5 -30q-101 0 -163 73.5t-62 194.5q0 120 62.5 193.5t163.5 73.5q65 0 118 -30t76 -82h2v102zM300 57q76 0 122.5 55.5t46.5 145.5t-46.5 145t-122.5 55t-122.5 -55t-46.5 -145t46.5 -145.5t122.5 -55.5z" />
    <glyph glyph-name="Hbar" unicode="&#x126;" horiz-adv-x="767" 
d="M739 644v-62h-72v-582h-86v356h-394v-356h-86v582h-72v62h72v126h86v-126h394v126h86v-126h72zM581 427v155h-394v-155h394z" />
    <glyph glyph-name="hbar" unicode="&#x127;" horiz-adv-x="611" 
d="M350 525q84 0 134.5 -55t50.5 -146v-324h-82v318q0 62 -37 100.5t-98 38.5q-68 0 -110 -47.5t-42 -125.5v-284h-82v608h-70v61h70v101h82v-101h186v-61h-186v-188h2q21 47 71 76t111 29z" />
    <glyph glyph-name="Imacron" unicode="&#x12a;" horiz-adv-x="277" 
d="M-2 842v62h282v-62h-282zM96 0v770h86v-770h-86z" />
    <glyph glyph-name="imacron" unicode="&#x12b;" horiz-adv-x="255" 
d="M2 715h252v-63h-252v63zM87 0v515h82v-515h-82z" />
    <glyph glyph-name="Iogonek" unicode="&#x12e;" horiz-adv-x="277" 
d="M96 770h86v-770h-1q-42 -41 -68 -80.5t-26 -64.5q0 -19 12 -31t32 -12q27 0 50 15v-52q-30 -15 -69 -15q-43 0 -69.5 22t-26.5 58q0 62 101 160h-21v770z" />
    <glyph glyph-name="iogonek" unicode="&#x12f;" horiz-adv-x="255" 
d="M126 644q-23 0 -37 13.5t-14 35.5t14 36t37 14q24 0 38.5 -13.5t14.5 -36.5q0 -22 -14.5 -35.5t-38.5 -13.5zM87 0v515h82v-515h-1q-42 -41 -68 -80.5t-26 -64.5q0 -19 12 -31t32 -12q27 0 50 15v-52q-30 -15 -69 -15q-43 0 -69.5 22t-26.5 58q0 62 101 160h-17z" />
    <glyph glyph-name="Idotaccent" unicode="&#x130;" horiz-adv-x="277" 
d="M138 837q-23 0 -37 13.5t-14 35.5t14 36t37 14q24 0 38.5 -13.5t14.5 -36.5q0 -22 -14.5 -35.5t-38.5 -13.5zM96 0v770h86v-770h-86z" />
    <glyph glyph-name="dotlessi" unicode="&#x131;" horiz-adv-x="255" 
d="M87 0v515h82v-515h-82z" />
    <glyph glyph-name="Kcommaaccent" unicode="&#x136;" horiz-adv-x="695" 
d="M96 0v770h86v-770h-86zM315 405l389 -405h-105l-393 399l362 371h99zM368 -69q22 0 35.5 -16.5t13.5 -43.5q0 -45 -22.5 -80t-59.5 -47l-5 21q44 22 54 82q-9 -4 -22 -4q-18 0 -29.5 11t-11.5 30q0 21 13 34t34 13z" />
    <glyph glyph-name="kcommaaccent" unicode="&#x137;" horiz-adv-x="586" 
d="M84 0v770h82v-770h-82zM289 285l304 -285h-100l-308 282l267 233h97zM286 -69q22 0 35.5 -16.5t13.5 -43.5q0 -45 -22.5 -80t-59.5 -47l-5 21q44 22 54 82q-9 -4 -22 -4q-18 0 -29.5 11t-11.5 30q0 21 13 34t34 13z" />
    <glyph glyph-name="Lacute" unicode="&#x139;" horiz-adv-x="561" 
d="M272 1000l-113 -165h-64l90 165h87zM182 73h360v-73h-446v770h86v-697z" />
    <glyph glyph-name="lacute" unicode="&#x13a;" horiz-adv-x="255" 
d="M84 835l90 165h87l-113 -165h-64zM87 0v770h82v-770h-82z" />
    <glyph glyph-name="Lcommaaccent" unicode="&#x13b;" horiz-adv-x="561" 
d="M182 73h360v-73h-446v770h86v-697zM280 -69q22 0 35.5 -16.5t13.5 -43.5q0 -45 -22.5 -80t-59.5 -47l-5 21q44 22 54 82q-9 -4 -22 -4q-18 0 -29.5 11t-11.5 30q0 21 13 34t34 13z" />
    <glyph glyph-name="lcommaaccent" unicode="&#x13c;" horiz-adv-x="255" 
d="M169 770v-770h-82v770h82zM128 -69q22 0 35.5 -16.5t13.5 -43.5q0 -45 -22.5 -80t-59.5 -47l-5 21q44 22 54 82q-9 -4 -22 -4q-18 0 -29.5 11t-11.5 30q0 21 13 34t34 13z" />
    <glyph glyph-name="Lcaron" unicode="&#x13d;" horiz-adv-x="570" 
d="M409 762l-62 -220l-64 16l55 221zM182 73h360v-73h-446v770h86v-697z" />
    <glyph glyph-name="lcaron" unicode="&#x13e;" horiz-adv-x="281" 
d="M274 542l-64 16l54 221l71 -17zM87 0v770h82v-770h-82z" />
    <glyph glyph-name="Lslash" unicode="&#x141;" horiz-adv-x="572" 
d="M192 73h360v-73h-446v297l-75 -41v76l75 41v397h86v-357l169 92v-75l-169 -93v-264z" />
    <glyph glyph-name="lslash" unicode="&#x142;" horiz-adv-x="299" 
d="M254 505v-74l-64 -51v-380h-82v320l-65 -51v74l65 52v375h82v-316z" />
    <glyph glyph-name="Nacute" unicode="&#x143;" horiz-adv-x="757" 
d="M512 1000l-113 -165h-64l90 165h87zM580 770h82v-770h-83l-400 631h-2l2 -631h-83v770h84l400 -633h2z" />
    <glyph glyph-name="nacute" unicode="&#x144;" horiz-adv-x="611" 
d="M443 770l-113 -165h-64l90 165h87zM350 525q84 0 134.5 -55t50.5 -146v-324h-82v318q0 62 -37 100.5t-98 38.5q-68 0 -110 -47.5t-42 -125.5v-284h-82v515h82v-95h2q21 47 71 76t111 29z" />
    <glyph glyph-name="Ncommaaccent" unicode="&#x145;" horiz-adv-x="757" 
d="M580 770h82v-770h-83l-400 631h-2l2 -631h-83v770h84l400 -633h2zM379 -69q22 0 35.5 -16.5t13.5 -43.5q0 -45 -22.5 -80t-59.5 -47l-5 21q44 22 54 82q-9 -4 -22 -4q-18 0 -29.5 11t-11.5 30q0 21 13 34t34 13z" />
    <glyph glyph-name="ncommaaccent" unicode="&#x146;" horiz-adv-x="611" 
d="M350 525q84 0 134.5 -55t50.5 -146v-324h-82v318q0 62 -37 100.5t-98 38.5q-68 0 -110 -47.5t-42 -125.5v-284h-82v515h82v-95h2q21 47 71 76t111 29zM309 -69q22 0 35.5 -16.5t13.5 -43.5q0 -45 -22.5 -80t-59.5 -47l-5 21q44 22 54 82q-9 -4 -22 -4q-18 0 -29.5 11
t-11.5 30q0 21 13 34t34 13z" />
    <glyph glyph-name="Ncaron" unicode="&#x147;" horiz-adv-x="757" 
d="M337 836l-115 157h71l85 -113h2l86 113h71l-115 -157h-85zM580 770h82v-770h-83l-400 631h-2l2 -631h-83v770h84l400 -633h2z" />
    <glyph glyph-name="ncaron" unicode="&#x148;" horiz-adv-x="611" 
d="M267 614l-115 157h71l85 -113h2l86 113h71l-115 -157h-85zM350 525q84 0 134.5 -55t50.5 -146v-324h-82v318q0 62 -37 100.5t-98 38.5q-68 0 -110 -47.5t-42 -125.5v-284h-82v515h82v-95h2q21 47 71 76t111 29z" />
    <glyph glyph-name="Eng" unicode="&#x14a;" horiz-adv-x="757" 
d="M580 770h82v-782q0 -103 -59.5 -165.5t-157.5 -62.5q-53 0 -100 20l17 69q32 -16 77 -16q62 0 99.5 42t37.5 110v18l-397 628h-2l2 -631h-83v770h84l400 -633h2z" />
    <glyph glyph-name="eng" unicode="&#x14b;" horiz-adv-x="611" 
d="M350 525q84 0 134.5 -55t50.5 -146v-379q0 -83 -48.5 -134t-127.5 -51q-65 0 -109 23l19 62q36 -17 81 -17q46 0 74.5 31.5t28.5 83.5v375q0 62 -37 100.5t-98 38.5q-68 0 -110 -47.5t-42 -125.5v-284h-82v515h82v-95h2q21 47 71 76t111 29z" />
    <glyph glyph-name="Omacron" unicode="&#x14c;" horiz-adv-x="815" 
d="M267 842v62h282v-62h-282zM407 -10q-161 0 -259.5 108.5t-98.5 286.5t98.5 286.5t259.5 108.5t260 -108.5t99 -286.5t-99 -286.5t-260 -108.5zM407 64q122 0 196.5 88t74.5 233t-74.5 233t-196.5 88t-196 -88t-74 -233t74 -233t196 -88z" />
    <glyph glyph-name="omacron" unicode="&#x14d;" horiz-adv-x="597" 
d="M158 658v62h282v-62h-282zM298 -10q-113 0 -182.5 73.5t-69.5 194.5q0 120 69.5 193.5t182.5 73.5q114 0 183.5 -73.5t69.5 -193.5q0 -121 -69.5 -194.5t-183.5 -73.5zM298 58q76 0 122.5 55t46.5 145t-46.5 145t-122.5 55t-122 -55t-46 -145t46 -145t122 -55z" />
    <glyph glyph-name="Ohungarumlaut" unicode="&#x150;" horiz-adv-x="815" 
d="M300 835l81 165h86l-103 -165h-64zM444 835l80 165h87l-104 -165h-63zM407 -10q-161 0 -259.5 108.5t-98.5 286.5t98.5 286.5t259.5 108.5t260 -108.5t99 -286.5t-99 -286.5t-260 -108.5zM407 64q122 0 196.5 88t74.5 233t-74.5 233t-196.5 88t-196 -88t-74 -233t74 -233
t196 -88z" />
    <glyph glyph-name="ohungarumlaut" unicode="&#x151;" horiz-adv-x="597" 
d="M191 605l81 165h86l-103 -165h-64zM335 605l80 165h87l-104 -165h-63zM298 -10q-113 0 -182.5 73.5t-69.5 194.5q0 120 69.5 193.5t182.5 73.5q114 0 183.5 -73.5t69.5 -193.5q0 -121 -69.5 -194.5t-183.5 -73.5zM298 58q76 0 122.5 55t46.5 145t-46.5 145t-122.5 55
t-122 -55t-46 -145t46 -145t122 -55z" />
    <glyph glyph-name="OE" unicode="&#x152;" horiz-adv-x="1214" 
d="M756 71h410v-71h-485v171h-2q-40 -86 -113 -133.5t-169 -47.5q-156 0 -251.5 108.5t-95.5 286.5t95.5 286.5t251.5 108.5q96 0 169 -47.5t113 -133.5h2v171h474v-71h-399v-266h363v-71h-363v-291zM405 64q119 0 192.5 88t73.5 233t-73.5 233t-192.5 88q-120 0 -193.5 -88
t-73.5 -233t73.5 -233t193.5 -88z" />
    <glyph glyph-name="oe" unicode="&#x153;" horiz-adv-x="994" 
d="M947 255v-14h-409q5 -86 49 -137t117 -51q59 0 103 34t57 89h82q-17 -84 -83 -135t-156 -51q-73 0 -127 39t-80 109h-2q-25 -70 -80 -109t-129 -39q-109 0 -175.5 73.5t-66.5 194.5q0 120 66.5 193.5t175.5 73.5q75 0 130 -39.5t80 -108.5h2q25 70 78.5 109t127.5 39
q108 0 174 -74.5t66 -195.5zM703 464q-66 0 -110.5 -47t-52.5 -125h324q-8 78 -51.5 125t-109.5 47zM294 58q74 0 119 55t45 145t-45 144.5t-119 54.5t-119 -54.5t-45 -144.5t45 -145t119 -55z" />
    <glyph glyph-name="Racute" unicode="&#x154;" horiz-adv-x="708" 
d="M462 1000l-113 -165h-64l90 165h87zM672 0h-97l-178 329h-11h-204v-329h-86v770h289q119 0 191 -58t72 -154q0 -80 -44 -136.5t-121 -79.5zM182 699v-302h210q76 0 122 42.5t46 112.5q0 66 -46.5 106.5t-122.5 40.5h-209z" />
    <glyph glyph-name="racute" unicode="&#x155;" horiz-adv-x="426" 
d="M346 769l-113 -165h-64l90 165h87zM344 525q41 0 69 -10v-79q-36 13 -87 13q-72 0 -116 -53t-44 -139v-257h-82v515h82v-108h2q22 53 70.5 85.5t105.5 32.5z" />
    <glyph glyph-name="Rcommaaccent" unicode="&#x156;" horiz-adv-x="708" 
d="M483 342l189 -342h-97l-178 329h-11h-204v-329h-86v770h289q119 0 191 -58t72 -154q0 -80 -44 -136.5t-121 -79.5zM182 699v-302h210q76 0 122 42.5t46 112.5q0 66 -46.5 106.5t-122.5 40.5h-209zM360 -69q22 0 35.5 -16.5t13.5 -43.5q0 -45 -22.5 -80t-59.5 -47l-5 21
q44 22 54 82q-9 -4 -22 -4q-18 0 -29.5 11t-11.5 30q0 21 13 34t34 13z" />
    <glyph glyph-name="rcommaaccent" unicode="&#x157;" horiz-adv-x="426" 
d="M344 525q41 0 69 -10v-79q-36 13 -87 13q-72 0 -116 -53t-44 -139v-257h-82v515h82v-108h2q22 53 70.5 85.5t105.5 32.5zM126 -69q22 0 35.5 -16.5t13.5 -43.5q0 -45 -22.5 -80t-59.5 -47l-5 21q44 22 54 82q-9 -4 -22 -4q-18 0 -29.5 11t-11.5 30q0 21 13 34t34 13z" />
    <glyph glyph-name="Rcaron" unicode="&#x158;" horiz-adv-x="708" 
d="M287 836l-115 157h71l85 -113h2l86 113h71l-115 -157h-85zM672 0h-97l-178 329h-11h-204v-329h-86v770h289q119 0 191 -58t72 -154q0 -80 -44 -136.5t-121 -79.5zM182 699v-302h210q76 0 122 42.5t46 112.5q0 66 -46.5 106.5t-122.5 40.5h-209z" />
    <glyph glyph-name="rcaron" unicode="&#x159;" horiz-adv-x="426" 
d="M171 613l-115 157h71l85 -113h2l86 113h71l-115 -157h-85zM344 525q41 0 69 -10v-79q-36 13 -87 13q-72 0 -116 -53t-44 -139v-257h-82v515h82v-108h2q22 53 70.5 85.5t105.5 32.5z" />
    <glyph glyph-name="Sacute" unicode="&#x15a;" horiz-adv-x="677" 
d="M293 835l90 165h87l-113 -165h-64zM337 -10q-126 0 -207 72.5t-88 191.5h87q5 -86 62.5 -138t146.5 -52q94 0 151 41t57 108q0 32 -13 57t-31.5 39.5t-51 26.5t-58 17t-67.5 12q-39 6 -64 11.5t-59.5 15.5t-55.5 24t-42 34t-31 49t-10 65q0 97 75.5 156.5t198.5 59.5
q118 0 193.5 -69.5t81.5 -182.5h-87q-4 80 -56.5 129t-134.5 49q-83 0 -133.5 -37.5t-50.5 -99.5q0 -34 15.5 -58t48.5 -38.5t62.5 -21.5t79.5 -15q49 -8 80 -15t72.5 -23t65.5 -37t41.5 -57.5t17.5 -84.5q0 -103 -81.5 -166t-214.5 -63z" />
    <glyph glyph-name="sacute" unicode="&#x15b;" horiz-adv-x="524" 
d="M217 605l90 165h87l-113 -165h-64zM261 -10q-97 0 -158 47.5t-64 124.5h79q2 -51 41 -82.5t102 -31.5t101.5 25t38.5 65q0 21 -9 36.5t-21.5 25t-36 17.5t-41 12t-47.5 9q-34 6 -55 11t-49.5 15.5t-44.5 24.5t-28 37t-12 53q0 66 56 106t148 40q91 0 147.5 -46t58.5 -122
h-79q-1 49 -36 79.5t-91 30.5t-90 -23t-34 -61t35.5 -55t106.5 -29q36 -6 58 -11.5t52.5 -17.5t48 -27t30.5 -40.5t13 -58.5q0 -70 -60.5 -112t-159.5 -42z" />
    <glyph glyph-name="Scedilla" unicode="&#x15e;" horiz-adv-x="677" 
d="M633 219q0 -98 -74.5 -160.5t-197.5 -67.5l-38 -59l2 -1q18 6 32 6q40 0 64 -23t24 -60q0 -42 -38 -68t-99 -26q-57 0 -97 25v45q43 -28 91 -28q36 0 58 14t22 37q0 19 -13 30.5t-35 11.5q-37 0 -56 -24l-34 21l59 99q-113 11 -184 82t-77 181h87q5 -86 62.5 -138
t146.5 -52q94 0 151 41t57 108q0 32 -13 57t-31.5 39.5t-51 26.5t-58 17t-67.5 12q-39 6 -64 11.5t-59.5 15.5t-55.5 24t-42 34t-31 49t-10 65q0 97 75.5 156.5t198.5 59.5q118 0 193.5 -69.5t81.5 -182.5h-87q-4 80 -56.5 129t-134.5 49q-83 0 -133.5 -37.5t-50.5 -99.5
q0 -34 15.5 -58t48.5 -38.5t62.5 -21.5t79.5 -15q49 -8 80 -15t72.5 -23t65.5 -37t41.5 -57.5t17.5 -84.5z" />
    <glyph glyph-name="scedilla" unicode="&#x15f;" horiz-adv-x="524" 
d="M481 144q0 -65 -53 -106.5t-143 -46.5l-38 -59l2 -1q18 6 32 6q40 0 64 -23t24 -60q0 -42 -38 -68t-99 -26q-57 0 -97 25v45q43 -28 91 -28q36 0 58 14t22 37q0 19 -13 30.5t-35 11.5q-37 0 -56 -24l-34 21l59 100q-83 8 -134 54t-54 116h79q2 -51 41 -82.5t102 -31.5
t101.5 25t38.5 65q0 21 -9 36.5t-21.5 25t-36 17.5t-41 12t-47.5 9q-34 6 -55 11t-49.5 15.5t-44.5 24.5t-28 37t-12 53q0 66 56 106t148 40q91 0 147.5 -46t58.5 -122h-79q-1 49 -36 79.5t-91 30.5t-90 -23t-34 -61t35.5 -55t106.5 -29q36 -6 58 -11.5t52.5 -17.5t48 -27
t30.5 -40.5t13 -58.5z" />
    <glyph glyph-name="Scaron" unicode="&#x160;" horiz-adv-x="677" 
d="M295 836l-115 157h71l85 -113h2l86 113h71l-115 -157h-85zM356 436q49 -8 80 -15t72.5 -23t65.5 -37t41.5 -57.5t17.5 -84.5q0 -103 -81.5 -166t-214.5 -63q-126 0 -207 72.5t-88 191.5h87q5 -86 62.5 -138t146.5 -52q94 0 151 41t57 108q0 32 -13 57t-31.5 39.5
t-51 26.5t-58 17t-67.5 12q-39 6 -64 11.5t-59.5 15.5t-55.5 24t-42 34t-31 49t-10 65q0 97 75.5 156.5t198.5 59.5q118 0 193.5 -69.5t81.5 -182.5h-87q-4 80 -56.5 129t-134.5 49q-83 0 -133.5 -37.5t-50.5 -99.5q0 -34 15.5 -58t48.5 -38.5t62.5 -21.5t79.5 -15z" />
    <glyph glyph-name="scaron" unicode="&#x161;" horiz-adv-x="524" 
d="M219 614l-115 157h71l85 -113h2l86 113h71l-115 -157h-85zM279 299q36 -6 58 -11.5t52.5 -17.5t48 -27t30.5 -40.5t13 -58.5q0 -70 -60.5 -112t-159.5 -42q-97 0 -158 47.5t-64 124.5h79q2 -51 41 -82.5t102 -31.5t101.5 25t38.5 65q0 21 -9 36.5t-21.5 25t-36 17.5
t-41 12t-47.5 9q-34 6 -55 11t-49.5 15.5t-44.5 24.5t-28 37t-12 53q0 66 56 106t148 40q91 0 147.5 -46t58.5 -122h-79q-1 49 -36 79.5t-91 30.5t-90 -23t-34 -61t35.5 -55t106.5 -29z" />
    <glyph glyph-name="uni0162" unicode="&#x162;" horiz-adv-x="595" 
d="M340 0h-16l-44 -68l2 -1q18 6 32 6q40 0 64 -23t24 -60q0 -42 -38 -68t-99 -26q-57 0 -97 25v45q43 -28 91 -28q36 0 58 14t22 37q0 19 -13 30.5t-35 11.5q-37 0 -56 -24l-34 21l64 108h-10v699h-238v71h561v-71h-238v-699z" />
    <glyph glyph-name="uni0163" unicode="&#x163;" horiz-adv-x="386" 
d="M364 454h-175v-311q0 -39 27 -63.5t71 -24.5q43 0 77 16v-61q-45 -20 -103 -20q-21 0 -44 5l-41 -63l2 -1q18 6 32 6q40 0 64 -23t24 -60q0 -42 -38 -68t-99 -26q-57 0 -97 25v45q43 -28 91 -28q36 0 58 14t22 37q0 19 -13 30.5t-35 11.5q-37 0 -56 -24l-34 21l73 123
q-63 40 -63 125v314h-86v61h89v151h79v-151h175v-61z" />
    <glyph glyph-name="Tcaron" unicode="&#x164;" horiz-adv-x="595" 
d="M255 836l-115 157h71l85 -113h2l86 113h71l-115 -157h-85zM578 770v-71h-238v-699h-85v699h-238v71h561z" />
    <glyph glyph-name="tcaron" unicode="&#x165;" horiz-adv-x="387" 
d="M369 774l-61 -220l-64 16l55 222zM189 666v-151h175v-61h-175v-311q0 -39 27 -63.5t71 -24.5q43 0 77 16v-61q-45 -20 -103 -20q-69 0 -111.5 41.5t-42.5 108.5v314h-86v61h89v151h79z" />
    <glyph glyph-name="Tbar" unicode="&#x166;" horiz-adv-x="620" 
d="M589 699h-238v-289h169v-61h-169v-349h-85v349h-152v61h152v289h-238v71h561v-71z" />
    <glyph glyph-name="tbar" unicode="&#x167;" horiz-adv-x="404" 
d="M375 454h-175v-154h175v-61h-175v-96q0 -39 27 -63.5t71 -24.5q43 0 77 16v-61q-45 -20 -103 -20q-69 0 -111.5 41.5t-42.5 108.5v99h-87v61h87v154h-86v61h89v151h79v-151h175v-61z" />
    <glyph glyph-name="Umacron" unicode="&#x16a;" horiz-adv-x="735" 
d="M228 842v62h282v-62h-282zM367 -10q-126 0 -203 77.5t-77 204.5v498h86v-504q0 -91 53.5 -146.5t142.5 -55.5t143.5 55.5t54.5 146.5v504h81v-498q0 -127 -77 -204.5t-204 -77.5z" />
    <glyph glyph-name="umacron" unicode="&#x16b;" horiz-adv-x="592" 
d="M157 658v62h282v-62h-282zM296 -10q-99 0 -160 58t-61 153v314h82v-305q0 -69 38.5 -111t100.5 -42t100.5 42t38.5 111v305h82v-314q0 -95 -60.5 -153t-160.5 -58z" />
    <glyph glyph-name="Uring" unicode="&#x16e;" horiz-adv-x="735" 
d="M369 827q-53 0 -85.5 30.5t-32.5 79.5q0 50 32.5 80t85.5 30t85 -30.5t32 -79.5t-32.5 -79.5t-84.5 -30.5zM369 874q28 0 44.5 17t16.5 46t-16.5 46.5t-44.5 17.5t-45 -17.5t-17 -46.5q0 -28 17 -45.5t45 -17.5zM367 -10q-126 0 -203 77.5t-77 204.5v498h86v-504
q0 -91 53.5 -146.5t142.5 -55.5t143.5 55.5t54.5 146.5v504h81v-498q0 -127 -77 -204.5t-204 -77.5z" />
    <glyph glyph-name="uring" unicode="&#x16f;" horiz-adv-x="592" 
d="M298 572q-53 0 -85.5 30.5t-32.5 79.5q0 50 32.5 80t85.5 30t85 -30.5t32 -79.5t-32.5 -79.5t-84.5 -30.5zM298 619q28 0 44.5 17t16.5 46t-16.5 46.5t-44.5 17.5t-45 -17.5t-17 -46.5q0 -28 17 -45.5t45 -17.5zM296 -10q-99 0 -160 58t-61 153v314h82v-305
q0 -69 38.5 -111t100.5 -42t100.5 42t38.5 111v305h82v-314q0 -95 -60.5 -153t-160.5 -58z" />
    <glyph glyph-name="Uhungarumlaut" unicode="&#x170;" horiz-adv-x="735" 
d="M261 835l81 165h86l-103 -165h-64zM405 835l80 165h87l-104 -165h-63zM367 -10q-126 0 -203 77.5t-77 204.5v498h86v-504q0 -91 53.5 -146.5t142.5 -55.5t143.5 55.5t54.5 146.5v504h81v-498q0 -127 -77 -204.5t-204 -77.5z" />
    <glyph glyph-name="uhungarumlaut" unicode="&#x171;" horiz-adv-x="592" 
d="M190 605l81 165h86l-103 -165h-64zM334 605l80 165h87l-104 -165h-63zM296 -10q-99 0 -160 58t-61 153v314h82v-305q0 -69 38.5 -111t100.5 -42t100.5 42t38.5 111v305h82v-314q0 -95 -60.5 -153t-160.5 -58z" />
    <glyph glyph-name="Uogonek" unicode="&#x172;" horiz-adv-x="735" 
d="M567 770h81v-498q0 -106 -54.5 -178.5t-148.5 -94.5q-42 -41 -67.5 -80t-25.5 -64q0 -19 12 -31t32 -12q27 0 50 15v-52q-30 -15 -69 -15q-43 0 -69.5 22t-26.5 58q0 59 91 150h-5q-126 0 -203 77.5t-77 204.5v498h86v-504q0 -91 53.5 -146.5t142.5 -55.5t143.5 55.5
t54.5 146.5v504z" />
    <glyph glyph-name="uogonek" unicode="&#x173;" horiz-adv-x="592" 
d="M435 515h82v-314q0 -76 -40 -129.5t-110 -72.5q-42 -41 -67.5 -80.5t-25.5 -63.5q0 -19 12 -31t32 -12q27 0 50 15v-52q-30 -15 -69 -15q-43 0 -69.5 22t-26.5 58q0 59 91 150q-98 1 -158.5 59t-60.5 152v314h82v-305q0 -69 38.5 -111t100.5 -42t100.5 42t38.5 111v305z
" />
    <glyph glyph-name="Wcircumflex" unicode="&#x174;" horiz-adv-x="1014" 
d="M507 948l-85 -113h-71l115 157h85l115 -157h-71l-86 113h-2zM909 770h88l-210 -770h-107l-173 669h-2l-171 -669h-107l-211 770h93l175 -681h2l176 681h95l174 -681h2z" />
    <glyph glyph-name="wcircumflex" unicode="&#x175;" horiz-adv-x="812" 
d="M405 726l-85 -113h-71l115 157h85l115 -157h-71l-86 113h-2zM710 515h84l-170 -515h-90l-127 428h-2l-127 -428h-90l-170 515h86l130 -428h2l131 428h81l129 -428h2z" />
    <glyph glyph-name="Ycircumflex" unicode="&#x176;" horiz-adv-x="671" 
d="M337 948l-85 -113h-71l115 157h85l115 -157h-71l-86 113h-2zM670 770l-293 -480v-290h-85v291l-291 479h101l236 -396h2l235 396h95z" />
    <glyph glyph-name="ycircumflex" unicode="&#x177;" horiz-adv-x="546" 
d="M274 726l-85 -113h-71l115 157h85l115 -157h-71l-86 113h-2zM448 515h84l-304 -745h-82l86 214l-218 531h86l173 -438h2z" />
    <glyph glyph-name="Ydieresis" unicode="&#x178;" horiz-adv-x="671" 
d="M258 835q-22 0 -36 13t-14 34t14 34.5t36 13.5t36 -13.5t14 -34.5t-14 -34t-36 -13zM417 835q-22 0 -35.5 13t-13.5 34t13.5 34.5t35.5 13.5t36 -13.5t14 -34.5t-14 -34t-36 -13zM670 770l-293 -480v-290h-85v291l-291 479h101l236 -396h2l235 396h95z" />
    <glyph glyph-name="Zacute" unicode="&#x179;" horiz-adv-x="620" 
d="M446 1000l-113 -165h-64l90 165h87zM130 71h456v-71h-559v76l447 621v2h-423v71h526v-76l-447 -621v-2z" />
    <glyph glyph-name="zacute" unicode="&#x17a;" horiz-adv-x="486" 
d="M375 770l-113 -165h-64l90 165h87zM123 64h327v-64h-419v68l315 381v2h-297v64h393v-68l-319 -381v-2z" />
    <glyph glyph-name="Zdotaccent" unicode="&#x17b;" horiz-adv-x="620" 
d="M312 837q-23 0 -37 13.5t-14 35.5t14 36t37 14q24 0 38.5 -13.5t14.5 -36.5q0 -22 -14.5 -35.5t-38.5 -13.5zM130 71h456v-71h-559v76l447 621v2h-423v71h526v-76l-447 -621v-2z" />
    <glyph glyph-name="zdotaccent" unicode="&#x17c;" horiz-adv-x="486" 
d="M240 644q-23 0 -37 13.5t-14 35.5t14 36t37 14q24 0 38.5 -13.5t14.5 -36.5q0 -22 -14.5 -35.5t-38.5 -13.5zM123 64h327v-64h-419v68l315 381v2h-297v64h393v-68l-319 -381v-2z" />
    <glyph glyph-name="Zcaron" unicode="&#x17d;" horiz-adv-x="620" 
d="M271 836l-115 157h71l85 -113h2l86 113h71l-115 -157h-85zM130 71h456v-71h-559v76l447 621v2h-423v71h526v-76l-447 -621v-2z" />
    <glyph glyph-name="zcaron" unicode="&#x17e;" horiz-adv-x="486" 
d="M199 614l-115 157h71l85 -113h2l86 113h71l-115 -157h-85zM123 64h327v-64h-419v68l315 381v2h-297v64h393v-68l-319 -381v-2z" />
    <glyph glyph-name="florin" unicode="&#x192;" horiz-adv-x="679" 
d="M556 712q-46 0 -77.5 -33.5t-41.5 -93.5l-27 -156h166v-61h-176l-36 -211q-13 -79 -62 -123t-123 -44q-66 0 -121 25l18 61q37 -17 91 -17q47 0 78.5 33t41.5 93l31 183h-156v61h167l31 184q14 79 62.5 123t121.5 44q69 0 121 -25l-18 -60q-41 17 -91 17z" />
    <glyph glyph-name="Scommaaccent" unicode="&#x218;" horiz-adv-x="677" 
d="M356 436q49 -8 80 -15t72.5 -23t65.5 -37t41.5 -57.5t17.5 -84.5q0 -103 -81.5 -166t-214.5 -63q-126 0 -207 72.5t-88 191.5h87q5 -86 62.5 -138t146.5 -52q94 0 151 41t57 108q0 32 -13 57t-31.5 39.5t-51 26.5t-58 17t-67.5 12q-39 6 -64 11.5t-59.5 15.5t-55.5 24
t-42 34t-31 49t-10 65q0 97 75.5 156.5t198.5 59.5q118 0 193.5 -69.5t81.5 -182.5h-87q-4 80 -56.5 129t-134.5 49q-83 0 -133.5 -37.5t-50.5 -99.5q0 -34 15.5 -58t48.5 -38.5t62.5 -21.5t79.5 -15zM337 -69q22 0 35.5 -16.5t13.5 -43.5q0 -45 -22.5 -80t-59.5 -47l-5 21
q44 22 54 82q-9 -4 -22 -4q-18 0 -29.5 11t-11.5 30q0 21 13 34t34 13z" />
    <glyph glyph-name="scommaaccent" unicode="&#x219;" horiz-adv-x="524" 
d="M279 299q36 -6 58 -11.5t52.5 -17.5t48 -27t30.5 -40.5t13 -58.5q0 -70 -60.5 -112t-159.5 -42q-97 0 -158 47.5t-64 124.5h79q2 -51 41 -82.5t102 -31.5t101.5 25t38.5 65q0 21 -9 36.5t-21.5 25t-36 17.5t-41 12t-47.5 9q-34 6 -55 11t-49.5 15.5t-44.5 24.5t-28 37
t-12 53q0 66 56 106t148 40q91 0 147.5 -46t58.5 -122h-79q-1 49 -36 79.5t-91 30.5t-90 -23t-34 -61t35.5 -55t106.5 -29zM261 -69q22 0 35.5 -16.5t13.5 -43.5q0 -45 -22.5 -80t-59.5 -47l-5 21q44 22 54 82q-9 -4 -22 -4q-18 0 -29.5 11t-11.5 30q0 21 13 34t34 13z" />
    <glyph glyph-name="uni021A" unicode="&#x21a;" horiz-adv-x="595" 
d="M17 770h561v-71h-238v-699h-85v699h-238v71zM294 -69q22 0 35.5 -16.5t13.5 -43.5q0 -45 -22.5 -80t-59.5 -47l-5 21q44 22 54 82q-9 -4 -22 -4q-18 0 -29.5 11t-11.5 30q0 21 13 34t34 13z" />
    <glyph glyph-name="uni021B" unicode="&#x21b;" horiz-adv-x="387" 
d="M364 454h-175v-311q0 -39 27 -63.5t71 -24.5q43 0 77 16v-61q-45 -20 -103 -20q-69 0 -111.5 41.5t-42.5 108.5v314h-86v61h89v151h79v-151h175v-61zM190 -69q22 0 35.5 -16.5t13.5 -43.5q0 -45 -22.5 -80t-59.5 -47l-5 21q44 22 54 82q-9 -4 -22 -4q-18 0 -29.5 11
t-11.5 30q0 21 13 34t34 13z" />
    <glyph glyph-name="uni0237" unicode="&#x237;" horiz-adv-x="255" 
d="M87 -230v745h82v-745h-82z" />
    <glyph glyph-name="circumflex" unicode="&#x2c6;" horiz-adv-x="347" 
d="M216 727l115 -157h-71l-86 113h-2l-85 -113h-71l115 157h85z" />
    <glyph glyph-name="caron" unicode="&#x2c7;" horiz-adv-x="347" 
d="M260 728h71l-115 -157h-85l-115 157h71l85 -113h2z" />
    <glyph glyph-name="breve" unicode="&#x2d8;" horiz-adv-x="340" 
d="M170 567q-65 0 -105 44t-40 116h61q0 -47 23.5 -76.5t60.5 -29.5t60.5 29.5t23.5 76.5h61q0 -72 -40 -116t-105 -44z" />
    <glyph glyph-name="dotaccent" unicode="&#x2d9;" horiz-adv-x="210" 
d="M104 610q-23 0 -37 13.5t-14 35.5t14 36t37 14q24 0 38.5 -13.5t14.5 -36.5q0 -22 -14.5 -35.5t-38.5 -13.5z" />
    <glyph glyph-name="ring" unicode="&#x2da;" horiz-adv-x="283" 
d="M142 552q-53 0 -85.5 30.5t-32.5 79.5q0 50 32.5 80t85.5 30t85 -30.5t32 -79.5t-32.5 -79.5t-84.5 -30.5zM142 599q28 0 44.5 17t16.5 46t-16.5 46.5t-44.5 17.5t-45 -17.5t-17 -46.5q0 -28 17 -45.5t45 -17.5z" />
    <glyph glyph-name="ogonek" unicode="&#x2db;" horiz-adv-x="221" 
d="M124 -240q-43 0 -69.5 22t-26.5 58q0 34 35.5 84.5t93.5 100.5l36 -25q-42 -41 -68 -80.5t-26 -64.5q0 -19 12 -31t32 -12q27 0 50 15v-52q-30 -15 -69 -15z" />
    <glyph glyph-name="tilde" unicode="&#x2dc;" horiz-adv-x="409" 
d="M32 586q1 62 28 97t75 35q37 0 80 -31.5t64 -31.5q47 0 53 67h45q-1 -62 -28 -97t-76 -35q-37 0 -79 31.5t-64 31.5q-23 0 -37 -18t-16 -49h-45z" />
    <glyph glyph-name="hungarumlaut" unicode="&#x2dd;" horiz-adv-x="383" 
d="M36 570l81 165h86l-103 -165h-64zM180 570l80 165h87l-104 -165h-63z" />
    <glyph glyph-name="gravecomb" unicode="&#x300;" 
d="M-36 605h-64l-113 165h87z" />
    <glyph glyph-name="acutecomb" unicode="&#x301;" 
d="M-197 605l90 165h87l-113 -165h-64z" />
    <glyph glyph-name="uni0302" unicode="&#x302;" 
d="M-131 770l115 -157h-71l-86 113h-2l-85 -113h-71l115 157h85z" />
    <glyph glyph-name="tildecomb" unicode="&#x303;" 
d="M-377 621q1 62 28 97t75 35q37 0 80 -31.5t64 -31.5q47 0 53 67h45q-1 -62 -28 -97t-76 -35q-29 0 -54.5 15.5t-47.5 31.5t-41 16q-23 0 -37 -18t-16 -49h-45z" />
    <glyph glyph-name="uni0304" unicode="&#x304;" 
d="M-304 658v62h282v-62h-282z" />
    <glyph glyph-name="uni0306" unicode="&#x306;" 
d="M-170 610q-65 0 -105 44t-40 116h61q0 -47 23.5 -76.5t60.5 -29.5t60.5 29.5t23.5 76.5h61q0 -72 -40 -116t-105 -44z" />
    <glyph glyph-name="uni0307" unicode="&#x307;" 
d="M-106 639q-23 0 -37 13.5t-14 35.5t14 36t37 14q24 0 38.5 -13.5t14.5 -36.5q0 -22 -14.5 -35.5t-38.5 -13.5z" />
    <glyph glyph-name="uni0308" unicode="&#x308;" 
d="M-266 646q-22 0 -36 13t-14 34t14 34.5t36 13.5t36 -13.5t14 -34.5t-14 -34t-36 -13zM-107 646q-22 0 -35.5 13t-13.5 34t13.5 34.5t35.5 13.5t36 -13.5t14 -34.5t-14 -34t-36 -13z" />
    <glyph glyph-name="uni030A" unicode="&#x30a;" 
d="M-141 572q-53 0 -85.5 30.5t-32.5 79.5q0 50 32.5 80t85.5 30t85 -30.5t32 -79.5t-32.5 -79.5t-84.5 -30.5zM-141 619q28 0 44.5 17t16.5 46t-16.5 46.5t-44.5 17.5t-45 -17.5t-17 -46.5q0 -28 17 -45.5t45 -17.5z" />
    <glyph glyph-name="uni030B" unicode="&#x30b;" 
d="M-347 605l81 165h86l-103 -165h-64zM-203 605l80 165h87l-104 -165h-63z" />
    <glyph glyph-name="uni030C" unicode="&#x30c;" 
d="M-87 771h71l-115 -157h-85l-115 157h71l85 -113h2z" />
    <glyph glyph-name="uni0312" unicode="&#x312;" 
d="M-51 700q19 0 30 -11t11 -29q0 -20 -13 -32t-34 -12q-23 0 -36.5 16.5t-13.5 43.5q0 37 22 69t57 47l10 -22q-46 -18 -54 -74q9 4 21 4z" />
    <glyph glyph-name="uni0326" unicode="&#x326;" 
d="M-63 -69q22 0 35.5 -16.5t13.5 -43.5q0 -45 -22.5 -80t-59.5 -47l-5 21q44 22 54 82q-9 -4 -22 -4q-18 0 -29.5 11t-11.5 30q0 21 13 34t34 13z" />
    <glyph glyph-name="uni0327" unicode="&#x327;" 
d="M-112 -63q40 0 64 -23t24 -60q0 -42 -38 -68t-99 -26q-57 0 -97 25v45q43 -28 91 -28q36 0 58 14t22 37q0 19 -13 30.5t-35 11.5q-37 0 -56 -24l-34 21l80 134l43 -26l-44 -68l2 -1q18 6 32 6z" />
    <glyph glyph-name="uni0328" unicode="&#x328;" 
d="M-97 -240q-43 0 -69.5 22t-26.5 58q0 34 35.5 84.5t93.5 100.5l36 -25q-42 -41 -68 -80.5t-26 -64.5q0 -19 12 -31t32 -12q27 0 50 15v-52q-30 -15 -69 -15z" />
    <glyph glyph-name="uni0335" unicode="&#x335;" 
d="M-380 322v61h338v-61h-338z" />
    <glyph glyph-name="uni0336" unicode="&#x336;" 
d="M-766 369v62h710v-62h-710z" />
    <glyph glyph-name="uni0337" unicode="&#x337;" 
d="M-385 -40l-40 26l378 567l40 -25z" />
    <glyph glyph-name="uni0338" unicode="&#x338;" 
d="M-522 -39l-43 27l496 818l43 -27z" />
    <glyph glyph-name="uni0394" unicode="&#x394;" horiz-adv-x="688" 
d="M394 770l289 -770h-678l289 770h100zM341 686l-223 -615h447l-222 615h-2z" />
    <glyph glyph-name="uni03A9" unicode="&#x3a9;" horiz-adv-x="793" 
d="M736 410q0 -113 -48 -203t-131 -137l168 2v-72h-261v69q83 25 133.5 114.5t50.5 210.5q0 140 -69 226t-182 86t-182 -86t-69 -226q0 -121 50.5 -210.5t133.5 -114.5v-69h-261v72l169 -2q-84 48 -132 138t-48 202q0 166 93.5 268t245.5 102q153 0 246 -101.5t93 -268.5z
" />
    <glyph glyph-name="uni03BC" unicode="&#x3bc;" horiz-adv-x="609" 
d="M443 515h82v-515h-82v94h-2q-20 -47 -68.5 -75.5t-108.5 -28.5q-57 0 -98 26v-246h-82v745h82v-321q0 -62 36 -99.5t94 -37.5q66 0 106.5 47t40.5 124v287z" />
    <glyph glyph-name="pi" unicode="&#x3c0;" horiz-adv-x="623" 
d="M600 500v-61h-91v-439h-82v439h-231v-439h-82v439h-91v61h577z" />
    <glyph glyph-name="Wgrave" unicode="&#x1e80;" horiz-adv-x="1014" 
d="M552 835h-64l-113 165h87zM909 770h88l-210 -770h-107l-173 669h-2l-171 -669h-107l-211 770h93l175 -681h2l176 681h95l174 -681h2z" />
    <glyph glyph-name="wgrave" unicode="&#x1e81;" horiz-adv-x="812" 
d="M450 605h-64l-113 165h87zM710 515h84l-170 -515h-90l-127 428h-2l-127 -428h-90l-170 515h86l130 -428h2l131 428h81l129 -428h2z" />
    <glyph glyph-name="Wacute" unicode="&#x1e82;" horiz-adv-x="1014" 
d="M641 1000l-113 -165h-64l90 165h87zM909 770h88l-210 -770h-107l-173 669h-2l-171 -669h-107l-211 770h93l175 -681h2l176 681h95l174 -681h2z" />
    <glyph glyph-name="wacute" unicode="&#x1e83;" horiz-adv-x="812" 
d="M540 770l-113 -165h-64l90 165h87zM710 515h84l-170 -515h-90l-127 428h-2l-127 -428h-90l-170 515h86l130 -428h2l131 428h81l129 -428h2z" />
    <glyph glyph-name="Wdieresis" unicode="&#x1e84;" horiz-adv-x="1014" 
d="M429 835q-22 0 -36 13t-14 34t14 34.5t36 13.5t36 -13.5t14 -34.5t-14 -34t-36 -13zM588 835q-22 0 -35.5 13t-13.5 34t13.5 34.5t35.5 13.5t36 -13.5t14 -34.5t-14 -34t-36 -13zM909 770h88l-210 -770h-107l-173 669h-2l-171 -669h-107l-211 770h93l175 -681h2l176 681
h95l174 -681h2z" />
    <glyph glyph-name="wdieresis" unicode="&#x1e85;" horiz-adv-x="812" 
d="M327 646q-22 0 -36 13t-14 34t14 34.5t36 13.5t36 -13.5t14 -34.5t-14 -34t-36 -13zM486 646q-22 0 -35.5 13t-13.5 34t13.5 34.5t35.5 13.5t36 -13.5t14 -34.5t-14 -34t-36 -13zM710 515h84l-170 -515h-90l-127 428h-2l-127 -428h-90l-170 515h86l130 -428h2l131 428h81
l129 -428h2z" />
    <glyph glyph-name="uni1E9E" unicode="&#x1e9e;" horiz-adv-x="820" 
d="M540 435q111 -21 176.5 -85.5t65.5 -152.5q0 -93 -65.5 -150t-171.5 -57q-102 0 -170 63t-76 166h83q7 -70 52 -112.5t111 -42.5q67 0 108 38.5t41 101.5q0 66 -55.5 114t-147.5 62l-31 5v65l176 247v2h-454v-699h-86v770h638v-76z" />
    <glyph glyph-name="Ygrave" unicode="&#x1ef2;" horiz-adv-x="671" 
d="M381 835h-64l-113 165h87zM670 770l-293 -480v-290h-85v291l-291 479h101l236 -396h2l235 396h95z" />
    <glyph glyph-name="ygrave" unicode="&#x1ef3;" horiz-adv-x="546" 
d="M319 605h-64l-113 165h87zM448 515h84l-304 -745h-82l86 214l-218 531h86l173 -438h2z" />
    <glyph glyph-name="endash" unicode="&#x2013;" horiz-adv-x="581" 
d="M67 231v61h446v-61h-446z" />
    <glyph glyph-name="emdash" unicode="&#x2014;" horiz-adv-x="865" 
d="M67 231v61h731v-61h-731z" />
    <glyph glyph-name="quoteleft" unicode="&#x2018;" horiz-adv-x="228" 
d="M118 652q22 0 35.5 -14.5t13.5 -38.5t-16 -39t-41 -15q-27 0 -44 21t-17 55q0 55 34 99t90 60l6 -30q-36 -10 -59 -37.5t-28 -64.5q12 4 26 4z" />
    <glyph glyph-name="quoteright" unicode="&#x2019;" horiz-adv-x="228" 
d="M124 780q27 0 44 -21t17 -55q0 -55 -34 -99t-90 -60l-6 30q36 10 59 37.5t28 64.5q-12 -4 -26 -4q-22 0 -35.5 14.5t-13.5 38.5t16 39t41 15z" />
    <glyph glyph-name="quotesinglbase" unicode="&#x201a;" horiz-adv-x="220" 
d="M109 97q27 0 44 -21t17 -55q0 -55 -34 -99t-90 -60l-6 30q36 10 59 37.5t28 64.5q-12 -4 -26 -4q-22 0 -35.5 14.5t-13.5 38.5t16 39t41 15z" />
    <glyph glyph-name="quotedblleft" unicode="&#x201c;" horiz-adv-x="377" 
d="M179 750q-36 -10 -59 -37.5t-28 -64.5q12 4 26 4q22 0 35.5 -14.5t13.5 -38.5t-16 -39t-41 -15q-27 0 -44 21t-17 55q0 55 34 99t90 60zM268 652q22 0 35.5 -14.5t13.5 -38.5t-16 -39t-41 -15q-27 0 -44 21t-17 55q0 55 34 99t90 60l6 -30q-36 -10 -59 -37.5t-28 -64.5
q12 4 26 4z" />
    <glyph glyph-name="quotedblright" unicode="&#x201d;" horiz-adv-x="377" 
d="M124 780q27 0 44 -21t17 -55q0 -55 -34 -99t-90 -60l-6 30q36 10 59 37.5t28 64.5q-12 -4 -26 -4q-22 0 -35.5 14.5t-13.5 38.5t16 39t41 15zM274 780q27 0 44 -21t17 -55q0 -55 -34 -99t-90 -60l-6 30q36 10 59 37.5t28 64.5q-12 -4 -26 -4q-22 0 -35.5 14.5t-13.5 38.5
t16 39t41 15z" />
    <glyph glyph-name="quotedblbase" unicode="&#x201e;" horiz-adv-x="369" 
d="M109 97q27 0 44 -21t17 -55q0 -55 -34 -99t-90 -60l-6 30q36 10 59 37.5t28 64.5q-12 -4 -26 -4q-22 0 -35.5 14.5t-13.5 38.5t16 39t41 15zM259 97q27 0 44 -21t17 -55q0 -55 -34 -99t-90 -60l-6 30q36 10 59 37.5t28 64.5q-12 -4 -26 -4q-22 0 -35.5 14.5t-13.5 38.5
t16 39t41 15z" />
    <glyph glyph-name="dagger" unicode="&#x2020;" horiz-adv-x="367" 
d="M322 655v-47h-112v-254h-53v254h-112v47h112v115h53v-115h112z" />
    <glyph glyph-name="daggerdbl" unicode="&#x2021;" horiz-adv-x="387" 
d="M332 608h-112v-92h112v-47h-112v-115h-53v115h-112v47h112v92h-112v47h112v115h53v-115h112v-47z" />
    <glyph glyph-name="bullet" unicode="&#x2022;" horiz-adv-x="362" 
d="M181 206q-43 0 -69.5 24.5t-26.5 64.5t26.5 65t69.5 25t69.5 -24.5t26.5 -65.5q0 -40 -26 -64.5t-70 -24.5z" />
    <glyph glyph-name="ellipsis" unicode="&#x2026;" horiz-adv-x="622" 
d="M119 -10q-25 0 -40.5 15t-15.5 39q0 23 15.5 38t40.5 15t40.5 -15t15.5 -38q0 -24 -15.5 -39t-40.5 -15zM311 -10q-25 0 -40.5 15t-15.5 39q0 23 15.5 38t40.5 15t40.5 -15t15.5 -38q0 -24 -15.5 -39t-40.5 -15zM503 -10q-25 0 -40.5 15t-15.5 39q0 23 15.5 38t40.5 15
t40.5 -15t15.5 -38q0 -24 -15.5 -39t-40.5 -15z" />
    <glyph glyph-name="perthousand" unicode="&#x2030;" horiz-adv-x="1050" 
d="M178 410q-62 0 -100.5 51t-38.5 134t38.5 134t100.5 51q64 0 102.5 -51t38.5 -134t-38.5 -134t-102.5 -51zM71 0l509 770h70l-508 -770h-71zM179 463q34 0 54.5 36.5t20.5 95.5t-20.5 95.5t-54.5 36.5t-54.5 -36t-20.5 -96t20.5 -96t54.5 -36zM546 -10q-63 0 -101.5 51
t-38.5 134t38.5 134t101.5 51t101.5 -51t38.5 -134t-38.5 -134t-101.5 -51zM880 -10q-63 0 -101.5 51t-38.5 134t38.5 134t101.5 51t101.5 -51t38.5 -134t-38.5 -134t-101.5 -51zM546 43q34 0 54 36.5t20 95.5t-20 95.5t-54 36.5t-55 -36.5t-21 -95.5t21 -95.5t55 -36.5z
M880 43q34 0 54.5 36.5t20.5 95.5t-20.5 95.5t-54.5 36.5t-54.5 -36.5t-20.5 -95.5t20.5 -95.5t54.5 -36.5z" />
    <glyph glyph-name="guilsinglleft" unicode="&#x2039;" horiz-adv-x="316" 
d="M250 110h-85l-121 150l121 150h85l-118 -150z" />
    <glyph glyph-name="guilsinglright" unicode="&#x203a;" horiz-adv-x="316" 
d="M66 110l118 150l-118 150h85l121 -150l-121 -150h-85z" />
    <glyph glyph-name="fraction" unicode="&#x2044;" horiz-adv-x="162" 
d="M-208 0l509 770h70l-508 -770h-71z" />
    <glyph glyph-name="Euro" unicode="&#x20ac;" horiz-adv-x="668" 
d="M601 139l37 -62q-44 -39 -106 -63t-120 -24q-124 0 -207 84.5t-103 229.5h-70v45h66q-1 12 -1 37q0 28 1 41h-66v45h71q20 142 103 225t206 83q55 0 113 -17t96 -45l-37 -64q-68 52 -170 52q-86 0 -145 -62.5t-76 -170.5h291l-24 -46h-273q-1 -13 -1 -41q0 -24 1 -36h233
l-25 -46h-203q17 -111 76 -175.5t146 -64.5q49 0 100.5 20.5t86.5 54.5z" />
    <glyph glyph-name="trademark" unicode="&#x2122;" horiz-adv-x="693" 
d="M35 728v42h228v-42h-87v-246h-54v246h-87zM541 770h74v-288h-54l2 223h-1l-88 -223h-43l-83 223h-1l1 -223h-51v288h74l83 -223h1z" />
    <glyph glyph-name="oneeighth" unicode="&#x215b;" horiz-adv-x="821" 
d="M130 338v325h-87v45q47 0 71.5 14t36.5 48h45v-432h-66zM562 770h70l-508 -770h-71zM697 225q41 -13 64.5 -40.5t23.5 -65.5q0 -56 -44.5 -90.5t-116.5 -34.5t-116 34.5t-44 90.5q0 38 23 65.5t64 40.5v1q-73 28 -73 96q0 52 40.5 84t105.5 32t105.5 -32t40.5 -84
q0 -68 -73 -96v-1zM545 317q0 -31 22 -49.5t57 -18.5t57 18.5t22 49.5q0 30 -22 48.5t-57 18.5t-57 -18.5t-22 -48.5zM624 48q41 0 66.5 21t25.5 55q0 35 -25.5 56t-66.5 21t-67 -21.5t-26 -55.5t26 -55t67 -21z" />
    <glyph glyph-name="threeeighths" unicode="&#x215c;" horiz-adv-x="946" 
d="M347 456q0 -58 -42 -91t-117 -33q-68 0 -108 36.5t-44 101.5h63q2 -40 25.5 -62.5t63.5 -22.5q43 0 67 20t24 56q0 35 -25 55t-70 20h-12v47h8q41 0 63.5 18.5t22.5 51.5t-20.5 51.5t-57.5 18.5q-36 0 -57.5 -22t-23.5 -62h-63q4 65 42.5 101t102.5 36q68 0 106.5 -31
t38.5 -87q0 -71 -78 -96v-1q91 -24 91 -105zM687 770h70l-508 -770h-71zM823 225q41 -13 64.5 -40.5t23.5 -65.5q0 -56 -44.5 -90.5t-116.5 -34.5t-116 34.5t-44 90.5q0 38 23 65.5t64 40.5v1q-73 28 -73 96q0 52 40.5 84t105.5 32t105.5 -32t40.5 -84q0 -68 -73 -96v-1z
M671 317q0 -31 22 -49.5t57 -18.5t57 18.5t22 49.5q0 30 -22 48.5t-57 18.5t-57 -18.5t-22 -48.5zM750 48q41 0 66.5 21t25.5 55q0 35 -25.5 56t-66.5 21t-67 -21.5t-26 -55.5t26 -55t67 -21z" />
    <glyph glyph-name="fiveeighths" unicode="&#x215d;" horiz-adv-x="951" 
d="M354 480q0 -70 -42.5 -109t-118.5 -39q-66 0 -107.5 32t-48.5 90h64q6 -32 30 -50t62 -18q44 0 68.5 25t24.5 69q0 45 -24 70t-68 25q-68 0 -90 -68h-65l36 263h246v-52h-187l-21 -134l2 -1q39 42 103 42t100 -38.5t36 -106.5zM692 770h70l-508 -770h-71zM827 225
q41 -13 64.5 -40.5t23.5 -65.5q0 -56 -44.5 -90.5t-116.5 -34.5t-116 34.5t-44 90.5q0 38 23 65.5t64 40.5v1q-73 28 -73 96q0 52 40.5 84t105.5 32t105.5 -32t40.5 -84q0 -68 -73 -96v-1zM675 317q0 -31 22 -49.5t57 -18.5t57 18.5t22 49.5q0 30 -22 48.5t-57 18.5
t-57 -18.5t-22 -48.5zM754 48q41 0 66.5 21t25.5 55q0 35 -25.5 56t-66.5 21t-67 -21.5t-26 -55.5t26 -55t67 -21z" />
    <glyph glyph-name="seveneighths" unicode="&#x215e;" horiz-adv-x="889" 
d="M280 717v1h-251v52h308v-56q-68 -70 -105.5 -169t-37.5 -207h-70q0 107 41.5 207t114.5 172zM623 770h70l-508 -770h-71zM758 225q41 -13 64.5 -40.5t23.5 -65.5q0 -56 -44.5 -90.5t-116.5 -34.5t-116 34.5t-44 90.5q0 38 23 65.5t64 40.5v1q-73 28 -73 96q0 52 40.5 84
t105.5 32t105.5 -32t40.5 -84q0 -68 -73 -96v-1zM606 317q0 -31 22 -49.5t57 -18.5t57 18.5t22 49.5q0 30 -22 48.5t-57 18.5t-57 -18.5t-22 -48.5zM685 48q41 0 66.5 21t25.5 55q0 35 -25.5 56t-66.5 21t-67 -21.5t-26 -55.5t26 -55t67 -21z" />
    <glyph glyph-name="partialdiff" unicode="&#x2202;" horiz-adv-x="645" 
d="M311 750q128 0 206.5 -104.5t78.5 -274.5q0 -172 -91 -276.5t-240 -104.5q-105 0 -169 52t-64 138q0 109 130 178t344 74q-12 112 -66 178.5t-135 66.5q-51 0 -98.5 -26t-75.5 -69l-58 43q39 56 104.5 90.5t133.5 34.5zM266 63q107 0 173.5 81.5t69.5 215.5
q-176 -3 -282.5 -53t-106.5 -130q0 -52 40.5 -83t105.5 -31z" />
    <glyph glyph-name="emptyset" unicode="&#x2205;" horiz-adv-x="626" 
d="M517 422q56 -68 56 -171q0 -117 -71.5 -188.5t-187.5 -71.5q-100 0 -170 54l-42 -42l-36 34l43 43q-56 68 -56 171q0 116 71.5 187.5t189.5 71.5q100 0 168 -54l42 43l35 -35zM105 252q0 -81 40 -135l302 304q-53 44 -133 44q-94 0 -151.5 -58.5t-57.5 -154.5zM314 36
q93 0 149.5 59t56.5 157q0 78 -39 133l-302 -305q55 -44 135 -44z" />
    <glyph glyph-name="product" unicode="&#x220f;" horiz-adv-x="838" 
d="M813 770v-74h-140v-926h-82v926h-343v-926h-82v926h-140v74h787z" />
    <glyph glyph-name="summation" unicode="&#x2211;" horiz-adv-x="626" 
d="M31 -230v58l315 445l-306 439v58h541v-70h-441l303 -427l-312 -433h460v-70h-560z" />
    <glyph glyph-name="minus" unicode="&#x2212;" horiz-adv-x="520" 
d="M69 220v64h382v-64h-382z" />
    <glyph glyph-name="radical" unicode="&#x221a;" horiz-adv-x="639" 
d="M557 770h93l-313 -880h-95l-118 335h-118v70h185l98 -315z" />
    <glyph glyph-name="infinity" unicode="&#x221e;" horiz-adv-x="809" 
d="M568 446q85 0 137 -53.5t52 -141.5t-52 -141.5t-137 -53.5q-58 0 -100.5 28.5t-62.5 79.5q-20 -51 -63 -79.5t-100 -28.5q-85 0 -137 53.5t-52 141.5t52 141.5t137 53.5q57 0 100 -28.5t63 -79.5q20 51 62.5 79.5t100.5 28.5zM251 124q52 0 83.5 35t31.5 92t-31.5 92
t-83.5 35t-83.5 -35t-31.5 -92t31.5 -92t83.5 -35zM559 124q51 0 82.5 35t31.5 92t-31.5 92t-82.5 35q-52 0 -83.5 -35t-31.5 -92t31.5 -92t83.5 -35z" />
    <glyph glyph-name="integral" unicode="&#x222b;" horiz-adv-x="448" 
d="M89 -240q-66 0 -109 23l18 62q36 -17 81 -17q47 0 75.5 31.5t28.5 83.5v649q0 85 48.5 136.5t127.5 51.5q66 0 109 -23l-18 -62q-36 17 -81 17q-47 0 -75.5 -31.5t-28.5 -83.5v-649q0 -85 -48.5 -136.5t-127.5 -51.5z" />
    <glyph glyph-name="approxequal" unicode="&#x2248;" horiz-adv-x="605" 
d="M67 267q0 62 33 97t92 35q58 0 124 -31.5t107 -31.5q29 0 47 17.5t21 49.5h45q0 -62 -33 -97t-92 -35t-125 31.5t-106 31.5q-29 0 -47 -17.5t-21 -49.5h-45zM67 95q0 62 33 97t92 35q58 0 124 -31.5t107 -31.5q29 0 47 17.5t21 49.5h45q0 -62 -33 -97t-92 -35t-125 31.5
t-106 31.5q-29 0 -47 -17.5t-21 -49.5h-45z" />
    <glyph glyph-name="notequal" unicode="&#x2260;" horiz-adv-x="521" 
d="M452 291h-156l-23 -78h179v-64h-198l-43 -149h-45l43 149h-139v64h158l22 78h-180v64h199l40 140h46l-41 -140h138v-64z" />
    <glyph glyph-name="lessequal" unicode="&#x2264;" horiz-adv-x="516" 
d="M445 500v-65l-306 -114l306 -113v-66l-382 148v62zM63 0v64h382v-64h-382z" />
    <glyph glyph-name="greaterequal" unicode="&#x2265;" horiz-adv-x="516" 
d="M71 500l382 -148v-62l-382 -148v66l306 113l-306 114v65zM71 0v64h382v-64h-382z" />
    <glyph glyph-name="lozenge" unicode="&#x25ca;" horiz-adv-x="482" 
d="M241 -17l-206 265l206 265l206 -265zM241 79l124 169l-124 168l-125 -168z" />
    <glyph glyph-name="uniF8FF" unicode="&#xf8ff;" horiz-adv-x="1274" 
d="M76 -10q-17 0 -17 18q0 10 5 15l342 341h-324q-23 0 -23 19q0 7 7 16l340 342h-327q-20 0 -20 19v1q0 19 20 19h370q23 0 23 -20q0 -10 -8 -17l-341 -340h330q8 0 14 -6t6 -14v-327l339 338q7 8 17 8q18 0 18 -22v-324l340 338q6 8 16 8q7 0 12 -5.5t5 -13.5q0 -9 -6 -14
l-368 -372q-7 -7 -17 -7q-20 0 -20 23v324l-339 -340q-7 -7 -17 -7q-20 0 -20 23v324l-340 -340q-7 -7 -17 -7z" />
    <glyph glyph-name="uni00A40301" horiz-adv-x="570" 
d="M392 835l90 165h87l-113 -165h-64zM256 -10q-97 0 -160.5 72.5t-71.5 191.5h81q8 -86 49.5 -138t102.5 -52q62 0 100.5 44t38.5 116v546h86v-539q0 -109 -62 -175t-164 -66z" />
    <glyph glyph-name="i.loclTRK" horiz-adv-x="255" 
d="M126 641q-23 0 -37 13.5t-14 35.5t14 36t37 14q24 0 38.5 -13.5t14.5 -36.5q0 -22 -14.5 -35.5t-38.5 -13.5zM87 0v515h82v-515h-82z" />
    <glyph glyph-name="uni006A0301" horiz-adv-x="255" 
d="M84 605l90 165h87l-113 -165h-64zM87 -230v745h82v-745h-82z" />
    <glyph glyph-name="zero.lf" horiz-adv-x="664" 
d="M332 -10q-131 0 -204.5 104.5t-73.5 290.5t73.5 290.5t204.5 104.5t204.5 -104t73.5 -291t-73.5 -291t-204.5 -104zM332 64q90 0 140 84.5t50 236.5t-50 236.5t-140 84.5q-89 0 -139.5 -85t-50.5 -236t50.5 -236t139.5 -85z" />
    <glyph glyph-name="one.lf" horiz-adv-x="365" 
d="M210 770h58v-770h-86v606h-160v61q84 0 125.5 22.5t62.5 80.5z" />
    <glyph glyph-name="two.lf" horiz-adv-x="620" 
d="M143 71h433v-71h-532v79q202 112 312 235t110 242q0 68 -43.5 109t-114.5 41q-73 0 -120 -48.5t-51 -128.5h-84q7 113 77 182t179 69q111 0 179.5 -62t68.5 -164q0 -130 -112 -255t-302 -226v-2z" />
    <glyph glyph-name="three.lf" horiz-adv-x="619" 
d="M395 397q81 -20 127 -70.5t46 -120.5q0 -97 -73.5 -156.5t-194.5 -59.5q-110 0 -180.5 66.5t-74.5 175.5h83q2 -76 50 -123t123 -47q80 0 129 41t49 109t-50.5 109t-134.5 41h-23v66h15q77 0 124 38.5t47 101.5t-43 101.5t-114 38.5q-68 0 -111.5 -47t-47.5 -124h-81
q5 110 71.5 176.5t170.5 66.5q110 0 176.5 -56.5t66.5 -149.5q0 -63 -40 -109t-110 -66v-2z" />
    <glyph glyph-name="four.lf" horiz-adv-x="617" 
d="M583 267v-70h-100v-197h-86v197h-374v76l353 497h107v-503h100zM397 683l-292 -414v-2h294v416h-2z" />
    <glyph glyph-name="five.lf" horiz-adv-x="621" 
d="M342 512q108 0 173.5 -71.5t65.5 -187.5q0 -118 -75.5 -190.5t-197.5 -72.5q-107 0 -178.5 59.5t-81.5 156.5h85q8 -65 56 -103.5t119 -38.5q83 0 133.5 51.5t50.5 137.5t-49 138t-130 52q-60 0 -108.5 -38t-67.5 -101h-84l61 466h409v-71h-331l-41 -275l2 -1
q73 89 189 89z" />
    <glyph glyph-name="six.lf" horiz-adv-x="652" 
d="M365 498q112 0 174 -65.5t62 -182.5q0 -122 -70.5 -191t-188.5 -69q-147 0 -217 93t-70 285q0 194 76.5 303t212.5 109q105 0 168 -57t71 -158h-84q-5 67 -46 104t-109 37q-94 0 -147 -85.5t-55 -240.5h2q55 118 221 118zM334 64q84 0 131.5 48t47.5 133
q0 87 -47.5 134.5t-131.5 47.5q-83 0 -130.5 -45.5t-47.5 -127.5q0 -87 49.5 -138.5t128.5 -51.5z" />
    <glyph glyph-name="seven.lf" horiz-adv-x="555" 
d="M538 770v-76q-122 -129 -190.5 -312t-68.5 -382h-90q0 198 72 382t201 315v2h-447v71h523z" />
    <glyph glyph-name="eight.lf" horiz-adv-x="642" 
d="M429 401q75 -20 118.5 -71t43.5 -121q0 -99 -74 -159t-196 -60t-196 60t-74 159q0 70 43.5 121t118.5 71v2q-64 21 -100.5 66.5t-36.5 107.5q0 91 67.5 147t177.5 56t177.5 -56t67.5 -147q0 -62 -36.5 -108t-100.5 -66v-2zM164 571q0 -62 43 -99t114 -37t114 37t43 99
q0 61 -43 98t-114 37t-114 -37t-43 -98zM321 64q82 0 132 41.5t50 109.5t-50 110t-132 42t-132 -42t-50 -110t50 -109.5t132 -41.5z" />
    <glyph glyph-name="nine.lf" horiz-adv-x="654" 
d="M310 780q148 0 219 -93t71 -285q0 -194 -76.5 -303t-213.5 -109q-110 0 -176 62.5t-74 174.5h84q6 -77 49.5 -120t115.5 -43q96 0 150 89t54 249v4h-2q-55 -113 -222 -113q-111 0 -173.5 63t-62.5 175q0 116 70 182.5t187 66.5zM320 364q84 0 131 43t47 120q0 79 -50 129
t-128 50q-84 0 -131 -44.5t-47 -125.5q0 -82 47 -127t131 -45z" />
    <glyph glyph-name="zero.osf" horiz-adv-x="620" 
d="M310 -10q-118 0 -190 80.5t-72 212.5q0 131 72 211.5t190 80.5t190 -80.5t72 -211.5q0 -132 -72 -212.5t-190 -80.5zM310 58q80 0 129.5 62t49.5 163t-49.5 163t-129.5 62t-129 -62t-49 -163t49 -163t129 -62z" />
    <glyph glyph-name="one.osf" horiz-adv-x="332" 
d="M190 565h55v-565h-82v410h-136v58q73 0 109 21.5t54 75.5z" />
    <glyph glyph-name="two.osf" horiz-adv-x="581" 
d="M143 64h396v-64h-495v70q185 62 289.5 147t104.5 176q0 52 -41 84t-108 32t-110 -39.5t-47 -103.5h-79q5 94 70 151.5t166 57.5q104 0 167.5 -50t63.5 -132q0 -104 -99.5 -190.5t-277.5 -136.5v-2z" />
    <glyph glyph-name="three.osf" horiz-adv-x="577" 
d="M381 244q71 -20 111 -64.5t40 -106.5q0 -87 -70.5 -140t-185.5 -53q-103 0 -168 59.5t-69 156.5h78q3 -67 47 -108.5t112 -41.5q78 0 125 36.5t47 95.5q0 61 -48 98t-127 37h-21v61h13q73 0 117.5 32t44.5 85t-40.5 85.5t-107.5 32.5q-63 0 -104.5 -40t-45.5 -107h-77
q6 96 69 154.5t160 58.5q103 0 166 -49t63 -130q0 -53 -34 -91.5t-95 -58.5v-2z" />
    <glyph glyph-name="four.osf" horiz-adv-x="573" 
d="M550 64v-64h-96v-110h-82v110h-349v71l336 495h95v-502h96zM372 471l-268 -405v-2h270v407h-2z" />
    <glyph glyph-name="five.osf" horiz-adv-x="590" 
d="M323 345q104 0 167.5 -63t63.5 -166q0 -106 -71.5 -171t-188.5 -65q-103 0 -172.5 52.5t-80.5 138.5h81q11 -56 58 -89.5t114 -33.5q79 0 127.5 46t48.5 122q0 74 -47 119.5t-124 45.5q-59 0 -106.5 -31.5t-65.5 -82.5h-82l58 398h406v-63h-332l-38 -230l3 -2
q68 75 181 75z" />
    <glyph glyph-name="six.osf" horiz-adv-x="633" 
d="M356 462q108 0 168 -60.5t60 -168.5q0 -113 -68.5 -178t-183.5 -65q-142 0 -210 87.5t-68 267.5q0 181 74 283t206 102q102 0 163.5 -53.5t69.5 -148.5h-78q-5 63 -46 98.5t-108 35.5q-93 0 -145.5 -82t-54.5 -228h2q55 110 219 110zM325 58q83 0 129.5 44.5t46.5 125.5
q0 80 -46.5 124.5t-129.5 44.5t-129 -43t-46 -119q0 -81 48.5 -129t126.5 -48z" />
    <glyph glyph-name="seven.osf" horiz-adv-x="516" 
d="M498 565v-68q-121 -113 -188.5 -273t-67.5 -334h-88q0 173 72 334t200 276v2h-411v63h483z" />
    <glyph glyph-name="eight.osf" horiz-adv-x="630" 
d="M423 374q73 -19 115 -66t42 -112q0 -93 -73 -149.5t-192 -56.5t-192 56.5t-73 149.5q0 65 42 112t115 66v2q-63 20 -98 62.5t-35 100.5q0 86 66 138.5t175 52.5t175 -52.5t66 -138.5q0 -58 -35.5 -100.5t-97.5 -62.5v-2zM157 533q0 -58 43.5 -93t114.5 -35t114 35t43 93
t-43 93.5t-114 35.5t-114.5 -35.5t-43.5 -93.5zM315 58q82 0 131.5 39.5t49.5 104.5t-49.5 104t-131.5 39t-131.5 -39t-49.5 -104t49.5 -104.5t131.5 -39.5z" />
    <glyph glyph-name="nine.osf" horiz-adv-x="621" 
d="M292 575q144 0 212.5 -82.5t68.5 -252.5t-74 -265t-207 -95q-102 0 -163 49t-69 136h78q6 -55 46.5 -86t107.5 -31q91 0 143 73.5t57 205.5h-3q-54 -104 -218 -104q-109 0 -168.5 58t-59.5 163q0 108 68 169.5t181 61.5zM301 188q83 0 129.5 40t46.5 112q0 78 -48.5 123
t-127.5 45q-83 0 -129.5 -42.5t-46.5 -118.5t46.5 -117.5t129.5 -41.5z" />
    <glyph glyph-name="zero.tf" horiz-adv-x="693" 
d="M347 -10q-125 0 -201.5 108.5t-76.5 286.5t76.5 286.5t201.5 108.5t201.5 -108.5t76.5 -286.5t-76.5 -286.5t-201.5 -108.5zM347 64q86 0 138 88t52 233t-52 233t-138 88t-138 -88t-52 -233t52 -233t138 -88z" />
    <glyph glyph-name="one.tf" horiz-adv-x="693" 
d="M411 71h202v-71h-515v71h228v517h-171v61q89 0 133 27t65 94h58v-699z" />
    <glyph glyph-name="two.tf" horiz-adv-x="693" 
d="M180 71h433v-71h-532v79q202 111 311.5 234t109.5 243q0 68 -43 109t-114 41q-73 0 -120 -48.5t-52 -128.5h-83q6 113 76 182t180 69q111 0 179 -62t68 -164q0 -130 -111.5 -255t-301.5 -226v-2z" />
    <glyph glyph-name="three.tf" horiz-adv-x="693" 
d="M432 397q81 -20 127 -70.5t46 -120.5q0 -97 -73.5 -156.5t-193.5 -59.5q-111 0 -181.5 66.5t-74.5 175.5h83q2 -76 50 -123t123 -47q80 0 129 41t49 109t-50.5 109t-134.5 41h-23v66h15q77 0 124 38.5t47 101.5t-43 101.5t-113 38.5q-69 0 -112.5 -47t-47.5 -124h-81
q5 110 71.5 176.5t170.5 66.5q110 0 176.5 -56.5t66.5 -149.5q0 -63 -40 -109t-110 -66v-2z" />
    <glyph glyph-name="four.tf" horiz-adv-x="693" 
d="M631 267v-70h-116v-197h-86v197h-373v76l352 497h107v-503h116zM429 683l-291 -414v-2h293v416h-2z" />
    <glyph glyph-name="five.tf" horiz-adv-x="693" 
d="M379 512q107 0 172.5 -71.5t65.5 -187.5q0 -118 -75 -190.5t-197 -72.5q-108 0 -179.5 59.5t-80.5 156.5h84q8 -64 56.5 -103t119.5 -39q83 0 133.5 52t50.5 137t-49.5 137.5t-129.5 52.5q-60 0 -108.5 -38t-67.5 -101h-85l62 466h409v-71h-332l-41 -275l2 -1
q73 89 190 89z" />
    <glyph glyph-name="six.tf" horiz-adv-x="693" 
d="M385 498q112 0 174 -65.5t62 -182.5q0 -122 -70.5 -191t-188.5 -69q-147 0 -217 93t-70 285q0 194 76.5 303t213.5 109q105 0 168 -57t70 -158h-84q-5 67 -45.5 104t-108.5 37q-94 0 -147.5 -85.5t-55.5 -240.5h2q55 118 221 118zM355 64q83 0 130.5 48t47.5 133
q0 87 -47 134.5t-131 47.5t-131.5 -45.5t-47.5 -127.5q0 -87 50 -138.5t129 -51.5z" />
    <glyph glyph-name="seven.tf" horiz-adv-x="693" 
d="M614 770v-76q-125 -128 -195.5 -311.5t-70.5 -382.5h-91q0 199 74 383t207 314v2h-462v71h538z" />
    <glyph glyph-name="eight.tf" horiz-adv-x="693" 
d="M455 401q75 -20 118.5 -71t43.5 -121q0 -99 -74 -159t-196 -60t-196 60t-74 159q0 70 43 121t118 71v2q-64 21 -100 66.5t-36 107.5q0 91 67.5 147t177.5 56t177.5 -56t67.5 -147q0 -62 -36.5 -108t-100.5 -66v-2zM190 571q0 -62 43 -99t114 -37t114 37.5t43 98.5t-43 98
t-114 37t-114 -37t-43 -98zM347 64q82 0 131.5 41.5t49.5 109.5t-49.5 110t-131.5 42t-132 -42t-50 -110t50 -109.5t132 -41.5z" />
    <glyph glyph-name="nine.tf" horiz-adv-x="693" 
d="M329 780q148 0 219 -93t71 -285q0 -194 -76.5 -303t-213.5 -109q-110 0 -176 62.5t-73 174.5h84q6 -77 49 -120t116 -43q96 0 149.5 89t53.5 249v4h-2q-55 -113 -221 -113q-112 0 -174 62.5t-62 175.5q0 116 69.5 182.5t186.5 66.5zM339 364q84 0 131.5 43t47.5 120
q0 78 -50.5 128.5t-128.5 50.5q-84 0 -131 -44.5t-47 -125.5t47 -126.5t131 -45.5z" />
    <glyph glyph-name="zero.dnom" horiz-adv-x="411" 
d="M205 -6q-74 0 -119.5 61t-45.5 161t45.5 161t119.5 61q75 0 120.5 -61t45.5 -161t-45.5 -161t-120.5 -61zM205 48q44 0 71.5 46t27.5 122t-27.5 122t-71.5 46t-71 -46.5t-27 -121.5t27 -121.5t71 -46.5z" />
    <glyph glyph-name="one.dnom" horiz-adv-x="246" 
d="M131 432h45v-432h-66v325h-87v45q47 0 71.5 14t36.5 48z" />
    <glyph glyph-name="two.dnom" horiz-adv-x="389" 
d="M110 52h243v-52h-315v57q111 60 172.5 126t61.5 128q0 34 -21 53.5t-58 19.5q-38 0 -61.5 -23t-25.5 -64h-64q5 67 45 104t107 37q70 0 109 -34t39 -94q0 -71 -64.5 -138.5t-167.5 -118.5v-1z" />
    <glyph glyph-name="three.dnom" horiz-adv-x="386" 
d="M256 223q91 -24 91 -105q0 -58 -42 -91t-117 -33q-68 0 -108 36.5t-44 101.5h63q2 -40 25.5 -62.5t63.5 -22.5q43 0 67 20t24 56q0 35 -25 55t-70 20h-12v47h8q41 0 63.5 18.5t22.5 51.5t-20.5 51.5t-57.5 18.5q-36 0 -57.5 -22t-23.5 -62h-63q4 65 42.5 101t102.5 36
q68 0 106.5 -31t38.5 -87q0 -71 -78 -96v-1z" />
    <glyph glyph-name="four.dnom" horiz-adv-x="390" 
d="M361 156v-52h-58v-104h-66v104h-212v56l197 272h81v-276h58zM238 366l-152 -209v-1h153v210h-1z" />
    <glyph glyph-name="five.dnom" horiz-adv-x="388" 
d="M218 287q64 0 100 -38.5t36 -106.5q0 -70 -42.5 -109t-118.5 -39q-66 0 -107.5 32t-48.5 90h64q6 -32 30 -50t62 -18q44 0 68.5 25t24.5 69q0 45 -24 70t-68 25q-68 0 -90 -68h-65l36 263h246v-52h-187l-21 -134l2 -1q39 42 103 42z" />
    <glyph glyph-name="six.dnom" horiz-adv-x="407" 
d="M234 280q64 0 99 -36.5t35 -101.5q0 -69 -42.5 -108.5t-114.5 -39.5q-170 0 -170 215q0 108 45.5 168.5t127.5 60.5q63 0 101 -32t43 -90h-64q-4 32 -25 50t-55 18q-49 0 -77 -44t-30 -124h1q35 64 126 64zM209 48q43 0 67 23.5t24 66.5t-24 66.5t-67 23.5t-67.5 -23
t-24.5 -64q0 -43 25.5 -68t66.5 -25z" />
    <glyph glyph-name="seven.dnom" horiz-adv-x="347" 
d="M327 432v-56q-68 -70 -105.5 -169t-37.5 -207h-70q0 107 41.5 207t114.5 172v1h-251v52h308z" />
    <glyph glyph-name="eight.dnom" horiz-adv-x="399" 
d="M272 225q41 -13 64.5 -40.5t23.5 -65.5q0 -56 -44.5 -90.5t-116.5 -34.5t-116 34.5t-44 90.5q0 38 23 65.5t64 40.5v1q-73 28 -73 96q0 52 40.5 84t105.5 32t105.5 -32t40.5 -84q0 -68 -73 -96v-1zM120 317q0 -31 22 -49.5t57 -18.5t57 18.5t22 49.5q0 30 -22 48.5
t-57 18.5t-57 -18.5t-22 -48.5zM199 48q41 0 66.5 21t25.5 55q0 35 -25.5 56t-66.5 21t-67 -21.5t-26 -55.5t26 -55t67 -21z" />
    <glyph glyph-name="nine.dnom" horiz-adv-x="409" 
d="M195 438q172 0 172 -215q0 -108 -45.5 -168.5t-126.5 -60.5q-66 0 -105.5 35.5t-44.5 98.5h64q4 -38 26.5 -59t59.5 -21q50 0 78 46t28 129v2h-1q-33 -61 -126 -61q-63 0 -98 35t-35 97q0 67 41.5 104.5t112.5 37.5zM200 216q43 0 67 21.5t24 59.5t-25.5 62.5t-65.5 24.5
q-43 0 -67.5 -22t-24.5 -62t24.5 -62t67.5 -22z" />
    <glyph glyph-name="zero.numr" horiz-adv-x="411" 
d="M205 332q-74 0 -119.5 61t-45.5 161t45.5 161t119.5 61q75 0 120.5 -61t45.5 -161t-45.5 -161t-120.5 -61zM205 386q44 0 71.5 46t27.5 122t-27.5 122t-71.5 46t-71 -46.5t-27 -121.5t27 -121.5t71 -46.5z" />
    <glyph glyph-name="one.numr" horiz-adv-x="246" 
d="M132 770h45v-432h-66v325h-87v45q47 0 71.5 14t36.5 48z" />
    <glyph glyph-name="two.numr" horiz-adv-x="388" 
d="M109 390h243v-52h-315v57q111 60 172.5 126t61.5 128q0 34 -21 53.5t-58 19.5q-38 0 -61.5 -23t-25.5 -64h-64q5 67 45 104t107 37q70 0 109 -34t39 -94q0 -71 -64.5 -138.5t-167.5 -118.5v-1z" />
    <glyph glyph-name="three.numr" horiz-adv-x="385" 
d="M255 561q91 -24 91 -105q0 -58 -42 -91t-117 -33q-68 0 -108 36.5t-44 101.5h63q2 -40 25.5 -62.5t63.5 -22.5q43 0 67 20t24 56q0 35 -25 55t-70 20h-12v47h8q41 0 63.5 18.5t22.5 51.5t-20.5 51.5t-57.5 18.5q-36 0 -57.5 -22t-23.5 -62h-63q4 65 42.5 101t102.5 36
q68 0 106.5 -31t38.5 -87q0 -71 -78 -96v-1z" />
    <glyph glyph-name="four.numr" horiz-adv-x="390" 
d="M361 494v-52h-58v-104h-66v104h-212v56l197 272h81v-276h58zM238 704l-152 -209v-1h153v210h-1z" />
    <glyph glyph-name="five.numr" horiz-adv-x="387" 
d="M218 625q64 0 100 -38.5t36 -106.5q0 -70 -42.5 -109t-118.5 -39q-66 0 -107.5 32t-48.5 90h64q6 -32 30 -50t62 -18q44 0 68.5 25t24.5 69q0 45 -24 70t-68 25q-68 0 -90 -68h-65l36 263h246v-52h-187l-21 -134l2 -1q39 42 103 42z" />
    <glyph glyph-name="six.numr" horiz-adv-x="405" 
d="M233 618q64 0 99 -36.5t35 -101.5q0 -69 -42.5 -108.5t-114.5 -39.5q-170 0 -170 215q0 108 45.5 168.5t127.5 60.5q63 0 101 -32t43 -90h-64q-4 32 -25 50t-55 18q-49 0 -77 -44t-30 -124h1q35 64 126 64zM208 386q43 0 67 23.5t24 66.5t-24 66.5t-67 23.5t-67.5 -23
t-24.5 -64q0 -43 25.5 -68t66.5 -25z" />
    <glyph glyph-name="seven.numr" horiz-adv-x="347" 
d="M327 770v-56q-68 -70 -105.5 -169t-37.5 -207h-70q0 107 41.5 207t114.5 172v1h-251v52h308z" />
    <glyph glyph-name="eight.numr" horiz-adv-x="399" 
d="M272 563q41 -13 64.5 -40.5t23.5 -65.5q0 -56 -44.5 -90.5t-116.5 -34.5t-116 34.5t-44 90.5q0 38 23 65.5t64 40.5v1q-73 28 -73 96q0 52 40.5 84t105.5 32t105.5 -32t40.5 -84q0 -68 -73 -96v-1zM120 655q0 -31 22 -49.5t57 -18.5t57 18.5t22 49.5q0 30 -22 48.5
t-57 18.5t-57 -18.5t-22 -48.5zM199 386q41 0 66.5 21t25.5 55q0 35 -25.5 56t-66.5 21t-67 -21.5t-26 -55.5t26 -55t67 -21z" />
    <glyph glyph-name="nine.numr" horiz-adv-x="407" 
d="M194 776q172 0 172 -215q0 -108 -45.5 -168.5t-126.5 -60.5q-66 0 -105.5 35.5t-44.5 98.5h64q4 -38 26.5 -59t59.5 -21q50 0 78 46t28 129v2h-1q-33 -61 -126 -61q-63 0 -98 35t-35 97q0 67 41.5 104.5t112.5 37.5zM199 554q43 0 67 21.5t24 59.5t-25.5 62.5t-65.5 24.5
q-43 0 -67.5 -22t-24.5 -62t24.5 -62t67.5 -22z" />
    <glyph glyph-name="backslash.case" horiz-adv-x="412" 
d="M313 -100l-283 970h67l284 -970h-68z" />
    <glyph glyph-name="exclamdown.case" horiz-adv-x="267" 
d="M189 726q0 -23 -15.5 -38t-40.5 -15t-40.5 15t-15.5 38q0 24 15.5 39t40.5 15t40.5 -15t15.5 -39zM105 568h56l17 -568h-90z" />
    <glyph glyph-name="questiondown.case" horiz-adv-x="524" 
d="M289 780q25 0 40.5 -15t15.5 -39q0 -23 -15.5 -38t-40.5 -15t-40.5 15t-15.5 38q0 24 15.5 39t40.5 15zM323 568v-6q0 -44 -19 -84t-37.5 -60.5t-55.5 -56.5q-33 -31 -49.5 -49.5t-32 -51t-15.5 -66.5q0 -58 41 -94t109 -36t112 43t48 113h82q-6 -104 -73 -166.5
t-172 -62.5q-107 0 -172 54.5t-65 144.5q0 42 20 81t40.5 60t59.5 56q37 33 55.5 52.5t37 55t18.5 73.5h68z" />
    <glyph glyph-name="slash.case" horiz-adv-x="412" 
d="M99 -100h-68l284 970h67z" />
    <glyph glyph-name="numbersign.lf" horiz-adv-x="740" 
d="M701 516h-126l-25 -240h126l-8 -68h-125l-21 -208h-85l22 208h-218l-22 -208h-85l22 208h-123l7 68h124l26 240h-124l7 67h124l20 187h85l-20 -187h215l19 187h85l-19 -187h126zM247 275h219l25 242h-217z" />
    <glyph glyph-name="numbersign.osf" horiz-adv-x="634" 
d="M591 361h-100l-16 -142h96l-7 -64h-97l-18 -155h-81l16 155h-169l-17 -155h-81l18 155h-99l7 64h100l17 142h-97l7 63h97l17 141h81l-17 -141h169l17 141h81l-16 -141h99zM221 218h174l16 144h-173z" />
    <glyph glyph-name="braceleft.case" horiz-adv-x="300" 
d="M187 496q0 -74 -61 -110v-2q61 -34 61 -109v-210q0 -28 16.5 -45t42.5 -17v-72q-65 0 -104.5 38t-39.5 101v210q0 31 -18 50t-48 19v72q30 0 48 19t18 50v211q0 62 40 100.5t104 38.5v-73q-26 0 -42.5 -16.5t-16.5 -44.5v-210z" />
    <glyph glyph-name="braceright.case" horiz-adv-x="300" 
d="M198 490q0 -31 18 -50t48 -19v-72q-30 0 -48 -19t-18 -50v-210q0 -63 -39.5 -101t-104.5 -38v72q26 0 42.5 17t16.5 45v210q0 75 61 109v2q-61 36 -61 110v210q0 28 -16.5 44.5t-42.5 16.5v73q64 0 104 -38.5t40 -100.5v-211z" />
    <glyph glyph-name="bracketleft.case" horiz-adv-x="317" 
d="M279 770h-96v-770h96v-70h-182v910h182v-70z" />
    <glyph glyph-name="bracketright.case" horiz-adv-x="317" 
d="M220 840v-910h-182v70h96v770h-96v70h182z" />
    <glyph glyph-name="parenleft.case" horiz-adv-x="299" 
d="M196 -70q-68 92 -106.5 212.5t-38.5 242.5t38.5 242.5t106.5 212.5h80q-68 -99 -106 -219t-38 -236q0 -117 38 -237t106 -218h-80z" />
    <glyph glyph-name="parenright.case" horiz-adv-x="299" 
d="M103 -70h-80q68 98 106 218t38 237q0 116 -38 236t-106 219h80q68 -92 106.5 -212.5t38.5 -242.5t-38.5 -242.5t-106.5 -212.5z" />
    <glyph glyph-name="emdash.case" horiz-adv-x="868" 
d="M68 331v61h731v-61h-731z" />
    <glyph glyph-name="endash.case" horiz-adv-x="584" 
d="M68 331v61h446v-61h-446z" />
    <glyph glyph-name="hyphen.case" horiz-adv-x="405" 
d="M68 331v61h268v-61h-268z" />
    <glyph glyph-name="uni00AD.case" horiz-adv-x="405" 
d="M68 331v61h268v-61h-268z" />
    <glyph glyph-name="guillemotleft.case" horiz-adv-x="499" 
d="M254 210h-85l-121 150l121 150h85l-118 -150zM432 210h-85l-121 150l121 150h85l-118 -150z" />
    <glyph glyph-name="guillemotright.case" horiz-adv-x="499" 
d="M67 210l118 150l-118 150h85l121 -150l-121 -150h-85zM245 210l118 150l-118 150h85l121 -150l-121 -150h-85z" />
    <glyph glyph-name="guilsinglleft.case" horiz-adv-x="321" 
d="M255 210h-85l-121 150l121 150h85l-118 -150z" />
    <glyph glyph-name="guilsinglright.case" horiz-adv-x="321" 
d="M67 210l118 150l-118 150h85l121 -150l-121 -150h-85z" />
    <glyph glyph-name="cent.osf" horiz-adv-x="573" 
d="M537 203q-13 -77 -71.5 -126.5t-143.5 -56.5v-98h-46v98q-104 7 -166.5 79.5t-62.5 187.5q0 114 62.5 186.5t166.5 79.5v89h46v-89q80 -7 138 -55.5t73 -122.5h-83q-11 44 -46 73.5t-82 35.5v-395q51 6 86 36.5t45 77.5h84zM131 287q0 -83 39.5 -137t105.5 -62v397
q-66 -8 -105.5 -61.5t-39.5 -136.5z" />
    <glyph glyph-name="dollar.osf" horiz-adv-x="553" 
d="M510 166q0 -73 -57.5 -120.5t-153.5 -52.5v-81h-46v81q-91 6 -149 59t-64 137h78q4 -54 41 -89t94 -42v206q-34 5 -57.5 10t-52 16t-46 26t-29.5 39.5t-12 56.5q0 68 54 112t143 49v80h46v-80q83 -7 136 -57t58 -128h-78q-3 48 -34.5 80t-81.5 39v-182q36 -5 60.5 -10.5
t55.5 -17.5t50 -27.5t32 -42t13 -61.5zM137 417q0 -38 30 -56t86 -28v175q-53 -4 -84.5 -28.5t-31.5 -62.5zM299 58q60 5 95.5 31.5t35.5 68.5q0 45 -34.5 66.5t-96.5 32.5v-199z" />
    <glyph glyph-name="Euro.osf" horiz-adv-x="552" 
d="M484 111l34 -55q-35 -29 -84 -46.5t-95 -17.5q-99 0 -165 62t-82 168h-56v34h53q-1 9 -1 28t1 28h-53v35h57q16 104 82 165.5t164 61.5q96 0 166 -45l-33 -57q-54 37 -130 37q-64 0 -108.5 -43t-58.5 -118h224l-20 -36h-209q-1 -9 -1 -28q0 -18 1 -27h178l-19 -35h-155
q14 -76 59 -120.5t109 -44.5q36 0 75 15t67 39z" />
    <glyph glyph-name="sterling.osf" horiz-adv-x="525" 
d="M131 64h351v-64h-436v70q95 55 95 148q0 6 -2 20h-83v57h63q-41 84 -41 123q0 70 54 113t142 43q86 0 141.5 -50.5t60.5 -133.5h-77q-3 53 -37.5 86t-86.5 33q-51 0 -82 -25.5t-31 -68.5q0 -11 2.5 -22.5t8 -25.5l9 -22.5t12 -26l11.5 -23.5h180v-57h-161q1 -5 1 -16
q0 -93 -94 -157v-1z" />
    <glyph glyph-name="yen.osf" horiz-adv-x="578" 
d="M557 565l-221 -346h111v-35h-120v-44h120v-35h-120v-105h-79v105h-116v35h116v44h-116v35h108l-218 346h92l176 -281h2l178 281h87z" />
    <glyph glyph-name="plus.case" horiz-adv-x="470" 
d="M426 384v-64h-150v-159h-82v159h-150v64h150v159h82v-159h150z" />
    <glyph glyph-name="minus.case" horiz-adv-x="519" 
d="M69 320v64h382v-64h-382z" />
    <glyph glyph-name="multiply.case" horiz-adv-x="498" 
d="M441 487l-138 -137l138 -138l-54 -54l-138 138l-138 -138l-53 54l138 138l-138 137l53 54l138 -138l138 138z" />
    <glyph glyph-name="divide.case" horiz-adv-x="508" 
d="M255 443q-23 0 -37 13t-14 35q0 23 14 36.5t37 13.5t37 -14t14 -36t-14 -35t-37 -13zM63 320v64h383v-64h-383zM255 163q-23 0 -37 13.5t-14 35.5t14 35.5t37 13.5t37 -13.5t14 -35.5t-14 -35.5t-37 -13.5z" />
    <glyph glyph-name="equal.case" horiz-adv-x="521" 
d="M70 391v64h382v-64h-382zM70 249v64h382v-64h-382z" />
    <glyph glyph-name="notequal.case" horiz-adv-x="521" 
d="M452 391h-156l-23 -78h179v-64h-198l-43 -149h-45l43 149h-139v64h158l22 78h-180v64h199l40 140h46l-41 -140h138v-64z" />
    <glyph glyph-name="greater.case" horiz-adv-x="490" 
d="M69 556l382 -173v-61l-382 -172v68l314 135l-314 135v68z" />
    <glyph glyph-name="less.case" horiz-adv-x="490" 
d="M421 556v-68l-314 -135l314 -135v-68l-382 172v61z" />
    <glyph glyph-name="greaterequal.case" horiz-adv-x="547" 
d="M90 600l382 -148v-62l-382 -148v66l306 113l-306 114v65zM90 100v64h382v-64h-382z" />
    <glyph glyph-name="lessequal.case" horiz-adv-x="547" 
d="M458 600v-65l-306 -114l306 -113v-66l-382 148v62zM76 100v64h382v-64h-382z" />
    <glyph glyph-name="plusminus.case" horiz-adv-x="536" 
d="M309 454h150v-64h-150v-142h-82v142h-150v64h150v143h82v-143zM77 100v64h382v-64h-382z" />
    <glyph glyph-name="logicalnot.case" horiz-adv-x="517" 
d="M66 449h382v-191h-82v128h-300v63z" />
    <glyph glyph-name="percent.osf" horiz-adv-x="607" 
d="M153 284q-51 0 -83 40t-32 105t32 105t83 40q52 0 83.5 -40t31.5 -105t-31.5 -105t-83.5 -40zM79 0l386 567h61l-386 -567h-61zM153 330q26 0 42.5 27t16.5 72t-16.5 72.5t-42.5 27.5t-42 -27.5t-16 -72.5t16 -72t42 -27zM455 -8q-52 0 -83.5 40t-31.5 106
q0 65 31.5 105.5t83.5 40.5t83 -40.5t31 -105.5q0 -66 -31 -106t-83 -40zM455 38q26 0 42 27.5t16 72.5t-16 72.5t-42 27.5q-27 0 -43.5 -27.5t-16.5 -72.5t16.5 -72.5t43.5 -27.5z" />
    <glyph glyph-name="perthousand.osf" horiz-adv-x="871" 
d="M153 284q-51 0 -83 40t-32 105t32 105t83 40q52 0 83.5 -40t31.5 -105t-31.5 -105t-83.5 -40zM79 0l386 567h61l-386 -567h-61zM153 330q26 0 42.5 27t16.5 72t-16.5 72.5t-42.5 27.5t-42 -27.5t-16 -72.5t16 -72t42 -27zM455 -8q-52 0 -83.5 40t-31.5 106
q0 65 31.5 105.5t83.5 40.5t83 -40.5t31 -105.5q0 -66 -31 -106t-83 -40zM727 -8q-52 0 -83.5 40t-31.5 106q0 65 31.5 105.5t83.5 40.5t83 -40.5t31 -105.5q0 -66 -31 -106t-83 -40zM455 38q26 0 42 27.5t16 72.5t-16 72.5t-42 27.5q-27 0 -43.5 -27.5t-16.5 -72.5
t16.5 -72.5t43.5 -27.5zM727 38q26 0 42.5 27.5t16.5 72.5t-16.5 72.5t-42.5 27.5q-27 0 -43 -27.5t-16 -72.5t16 -72.5t43 -27.5z" />
    <glyph glyph-name="uni0308.case" 
d="M-266 580q-22 0 -36 13t-14 34t14 34.5t36 13.5t36 -13.5t14 -34.5t-14 -34t-36 -13zM-107 580q-22 0 -35.5 13t-13.5 34t13.5 34.5t35.5 13.5t36 -13.5t14 -34.5t-14 -34t-36 -13z" />
    <glyph glyph-name="uni0307.case" 
d="M-106 577q-23 0 -37 13.5t-14 35.5t14 36t37 14q24 0 38.5 -13.5t14.5 -36.5q0 -22 -14.5 -35.5t-38.5 -13.5z" />
    <glyph glyph-name="gravecomb.case" 
d="M-36 580h-64l-113 165h87z" />
    <glyph glyph-name="acutecomb.case" 
d="M-197 580l90 165h87l-113 -165h-64z" />
    <glyph glyph-name="uni030B.case" 
d="M-347 580l81 165h86l-103 -165h-64zM-203 580l80 165h87l-104 -165h-63z" />
    <glyph glyph-name="uni0302.case" 
d="M-131 737l115 -157h-71l-86 113h-2l-85 -113h-71l115 157h85z" />
    <glyph glyph-name="uni030C.case" 
d="M-87 738h71l-115 -157h-85l-115 157h71l85 -113h2z" />
    <glyph glyph-name="uni0306.case" 
d="M-170 577q-65 0 -105 44t-40 116h61q0 -47 23.5 -76.5t60.5 -29.5t60.5 29.5t23.5 76.5h61q0 -72 -40 -116t-105 -44z" />
    <glyph glyph-name="uni030A.case" 
d="M-141 572q-53 0 -85.5 30.5t-32.5 79.5q0 50 32.5 80t85.5 30t85 -30.5t32 -79.5t-32.5 -79.5t-84.5 -30.5zM-141 619q28 0 44.5 17t16.5 46t-16.5 46.5t-44.5 17.5t-45 -17.5t-17 -46.5q0 -28 17 -45.5t45 -17.5z" />
    <glyph glyph-name="tildecomb.case" 
d="M-377 585q1 62 28 97t75 35q37 0 80 -31.5t64 -31.5q47 0 53 67h45q-1 -62 -28 -97t-76 -35q-29 0 -54.5 15.5t-47.5 31.5t-41 16q-23 0 -37 -18t-16 -49h-45z" />
    <glyph glyph-name="uni0304.case" 
d="M-304 587v62h282v-62h-282z" />
    </font>
</defs>
</svg>
