<svg width="48" height="48" viewBox="0 0 48 48" fill="none" xmlns="http://www.w3.org/2000/svg">
<path d="M0 18.0001L36 42.0001H43.211L0 13.1931V18.0001Z" fill="black"/>
<path d="M46.0001 6H4.78906L48.0001 34.807V8C48.0001 6.895 47.1051 6 46.0001 6Z" fill="#F6DE38"/>
<path d="M2 42H36L0 18V40C0 41.105 0.895 42 2 42Z" fill="#F6DE38"/>
<path d="M43.211 42H46C47.105 42 48 41.105 48 40V34.807L4.789 6H2C0.895 6 0 6.895 0 8V13.193L43.211 42Z" fill="#E6E6E6"/>
<path d="M26 29.715V20H32L30 18H26V16L24 14L22 16V18H18L16 20H22V29.715C18.883 28.9 16.514 26.268 16.102 23C16.059 23.332 16 23.658 16 24C16 28.418 19.582 32 24 32C28.418 32 32 28.418 32 24C32 23.658 31.941 23.332 31.898 23C31.486 26.268 29.117 28.9 26 29.715Z" fill="#FF0000"/>
</svg>
