<svg width="48" height="48" viewBox="0 0 48 48" fill="none" xmlns="http://www.w3.org/2000/svg">
<path d="M48 40C48 41.105 47.105 42 46 42H2C0.895 42 0 41.105 0 40V30H48V40Z" fill="#E72B3E"/>
<path d="M48 18H0V30H48V18Z" fill="#3BB03B"/>
<path d="M48 18H0V8C0 6.895 0.895 6 2 6H46C47.105 6 48 6.895 48 8V18Z" fill="#FDCA2E"/>
<path d="M32.2969 21.2502H26.4509L23.9999 15.9302L21.5469 21.2502H15.7029L19.9719 25.6662L18.3939 32.0702L23.9999 28.8872L29.6049 32.0712L28.0269 25.6672L32.2969 21.2502Z" fill="white"/>
</svg>
