<svg width="48" height="48" viewBox="0 0 48 48" fill="none" xmlns="http://www.w3.org/2000/svg">
<path d="M48 14H10L2 6H46C47.105 6 48 6.895 48 8V14Z" fill="#FFC615"/>
<path d="M48 34H10L2 42H46C47.105 42 48 41.105 48 40V34Z" fill="#4A73A9"/>
<path d="M10 14H48V24H20L10 14Z" fill="#E6E6E6"/>
<path d="M10 34H48V24H20L10 34Z" fill="#D52027"/>
<path d="M2 6C0.895 6 0 6.895 0 8V24V40C0 41.105 0.895 42 2 42L20 24L2 6Z" fill="#339241"/>
<path d="M6 24C6 21.391 7.674 19.193 10 18.367C9.371 18.145 8.705 18 8 18C4.686 18 2 20.686 2 24C2 27.314 4.686 30 8 30C8.705 30 9.371 29.855 10 29.633C7.674 28.807 6 26.609 6 24Z" fill="white"/>
<path d="M13.043 23.5571H12.207L11.928 22.8601L11.649 23.5571H10.813L11.37 24.2541L11.091 25.0921L11.929 24.6721L12.767 25.0921L12.488 24.2541L13.043 23.5571Z" fill="white"/>
<path d="M13.043 19.291H12.207L11.928 18.594L11.649 19.291H10.813L11.37 19.988L11.091 20.826L11.929 20.406L12.767 20.826L12.488 19.988L13.043 19.291Z" fill="white"/>
<path d="M13.043 27.8711H12.207L11.928 27.1741L11.649 27.8711H10.813L11.37 28.5701L11.091 29.4061L11.929 28.9881L12.767 29.4061L12.488 28.5701L13.043 27.8711Z" fill="white"/>
</svg>
