<svg width="48" height="48" viewBox="0 0 48 48" fill="none" xmlns="http://www.w3.org/2000/svg">
<path d="M14.369 22.5429H11.422L10.184 19.8589L8.948 22.5429H6L8.152 24.7699L7.357 27.9999L10.183 26.3949L13.012 27.9999L12.215 24.7699L14.369 22.5429Z" fill="#D21F22"/>
<path d="M46 6H2L22 24L2 42H46C47.105 42 48 41.105 48 40V24V8C48 6.895 47.105 6 46 6Z" fill="#DA2728"/>
<path d="M28 24L2 6L22 24L2 42L28 24Z" fill="#FEC63C"/>
<path d="M2 6C0.895 6 0 6.895 0 8V24V40C0 41.105 0.895 42 2 42L22 24L2 6Z" fill="black"/>
<path d="M12.369 22.5429H9.42L8.186 19.8589L6.948 22.5429H4L6.154 24.7699L5.357 27.9999L8.185 26.3949L11.012 27.9999L10.217 24.7699L12.369 22.5429Z" fill="white"/>
</svg>
