<svg width="48" height="48" viewBox="0 0 48 48" fill="none" xmlns="http://www.w3.org/2000/svg">
<path d="M46 6H2C0.896 6 0 6.896 0 8V40C0 41.104 0.896 42 2 42H46C47.104 42 48 41.104 48 40V8C48 6.896 47.104 6 46 6Z" fill="#3200D0"/>
<path d="M27.106 13.997H24.919L24 12L23.079 13.997H20.894L22.49 15.644L21.9 18.047L24 16.856L26.1 18.047L25.508 15.644L27.106 13.997Z" fill="#F6CF00"/>
<path d="M33.454 16.3129H31.267L30.347 14.3169L29.426 16.3129H27.241L28.838 17.9609L28.247 20.3629L30.347 19.1719L32.447 20.3629L31.855 17.9609L33.454 16.3129Z" fill="#F6CF00"/>
<path d="M27.106 31.9501H24.919L24 29.9531L23.079 31.9501H20.894L22.49 33.5981L21.9 36.0001L24 34.8091L26.1 36.0001L25.508 33.5981L27.106 31.9501Z" fill="#F6CF00"/>
<path d="M20.7589 16.3129H18.5719L17.6529 14.3169L16.7309 16.3129H14.5459L16.1429 17.9609L15.5519 20.3629L17.6529 19.1719L19.7529 20.3629L19.1599 17.9609L20.7589 16.3129Z" fill="#F6CF00"/>
<path d="M17.213 22.9501H15.026L14.106 20.9531L13.185 22.9501H11L12.597 24.5981L12.006 27.0001L14.106 25.8091L16.206 27.0001L15.614 24.5981L17.213 22.9501Z" fill="#F6CF00"/>
<path d="M37.0001 22.9501H34.8131L33.8941 20.9531L32.9721 22.9501H30.7871L32.3841 24.5981L31.7931 27.0001L33.8941 25.8091L35.9931 27.0001L35.4011 24.5981L37.0001 22.9501Z" fill="#F6CF00"/>
<path d="M33.454 29.5121H31.267L30.347 27.5161L29.426 29.5121H27.241L28.838 31.1601L28.247 33.5621L30.347 32.3711L32.447 33.5621L31.855 31.1601L33.454 29.5121Z" fill="#F6CF00"/>
<path d="M20.7589 29.5121H18.5719L17.6529 27.5161L16.7309 29.5121H14.5459L16.1429 31.1601L15.5519 33.5621L17.6529 32.3711L19.7529 33.5621L19.1599 31.1601L20.7589 29.5121Z" fill="#F6CF00"/>
</svg>
