<svg width="48" height="48" viewBox="0 0 48 48" fill="none" xmlns="http://www.w3.org/2000/svg">
<path d="M20 22H0V8C0 6.895 0.895 6 2 6H20V22Z" fill="#040385"/>
<path d="M46 6H20V22H0V40C0 41.105 0.895 42 2 42H46C47.105 42 48 41.105 48 40V24V8C48 6.895 47.105 6 46 6Z" fill="#0402FB"/>
<path d="M20 12H15.377L19.068 9.266L17.879 7.66L12.018 12H12V6H8V11.365L2.996 7.66L1.807 9.266L5.498 12H0V16H6.617L1.807 19.563L2.996 21.17L8 17.465V22H12V16.816L17.879 21.17L19.068 19.563L14.258 16H20V12Z" fill="#FF0000"/>
<path d="M44 22H32V32.93C32 33.599 32.334 34.223 32.891 34.594L38 38L43.109 34.594C43.666 34.223 44 33.598 44 32.93V22Z" fill="white"/>
<path d="M44 26H32V30H44V26Z" fill="#FF0000"/>
<path d="M40 36.666L38 38L36 36.666V22H40V36.666Z" fill="#FF0000"/>
</svg>
