<svg width="48" height="48" viewBox="0 0 48 48" fill="none" xmlns="http://www.w3.org/2000/svg">
<path d="M0 40C0 41.105 0.895 42 2 42H46C47.105 42 48 41.105 48 40V38H0V40Z" fill="#E6E6E6"/>
<path d="M46 6H2C0.895 6 0 6.895 0 8V10H48V8C48 6.895 47.105 6 46 6Z" fill="#E6E6E6"/>
<path d="M48 10H0V18H48V10Z" fill="#0C72C4"/>
<path d="M48 30H0V38H48V30Z" fill="#0C72C4"/>
<path d="M48 18H0V30H48V18Z" fill="#E6E6E6"/>
<path d="M26.666 24L28 22H25.334L24 20L22.666 22H20L21.334 24L20 26H22.666L24 28L25.334 26H28L26.666 24Z" fill="#0C72C4"/>
</svg>
