<svg width="48" height="48" viewBox="0 0 48 48" fill="none" xmlns="http://www.w3.org/2000/svg">
<path d="M48 18H0V8C0 6.895 0.895 6 2 6H46C47.105 6 48 6.895 48 8V18Z" fill="#3C3C3C"/>
<path d="M48 40C48 41.105 47.105 42 46 42H2C0.895 42 0 41.105 0 40V28H48V40Z" fill="#0E6731"/>
<path d="M48 18H0V30H48V18Z" fill="#BD1D27"/>
<path d="M48 18H0V20H48V18Z" fill="white"/>
<path d="M48 28H0V30H48V28Z" fill="white"/>
<path d="M21.2086 30.0008L16 32.9792L16.9928 34.7154L22.2014 31.737L21.2086 30.0008Z" fill="white"/>
<path d="M26.7914 30.0016L25.7986 31.7378L31.0072 34.7162L32 32.98L26.7914 30.0016Z" fill="white"/>
<path d="M16.9926 13.2848L15.9998 15.021L21.2084 17.9994L22.2012 16.2632L16.9926 13.2848Z" fill="white"/>
<path d="M31.0074 13.2848L25.7988 16.2632L26.7916 17.9994L32.0002 15.021L31.0074 13.2848Z" fill="white"/>
<path d="M28 16L24 14L20 16V32L24 34L28 32V16Z" fill="#3C3C3C"/>
</svg>
