<svg width="48" height="48" viewBox="0 0 48 48" fill="none" xmlns="http://www.w3.org/2000/svg">
<path d="M48 8C48 6.895 47.104 6 46 6H20V26H0V40C0 41.105 0.896 42 2 42H46C47.104 42 48 41.105 48 40V8Z" fill="#AF2839"/>
<path d="M48 10H20V14H48V10Z" fill="#E6E6E6"/>
<path d="M48 18H20V22H48V18Z" fill="#E6E6E6"/>
<path d="M0 26V30H48V26H20H0Z" fill="#E6E6E6"/>
<path d="M48 34H0V38H48V34Z" fill="#E6E6E6"/>
<path d="M20 26H0V8C0 6.895 0.895 6 2 6H20V26Z" fill="#202D61"/>
<path d="M14.1849 14.6132H11.2369L9.99994 11.9302L8.76294 14.6142H5.81494L7.96794 16.8412L7.17294 20.0702L9.99994 18.4652L12.8269 20.0712L12.0309 16.8402L14.1849 14.6132Z" fill="white"/>
</svg>
