<svg width="48" height="48" viewBox="0 0 48 48" fill="none" xmlns="http://www.w3.org/2000/svg">
<path d="M48 40C48 41.105 47.105 42 46 42H2C0.895 42 0 41.105 0 40V8C0 6.895 0.895 6 2 6H46C47.105 6 48 6.895 48 8V40Z" fill="#C60B1E"/>
<path d="M26 42L24 26L22 42H26Z" fill="#FFC300"/>
<path d="M48 22L26 24L48 26V22Z" fill="#FFC300"/>
<path d="M0 26L22 24L0 22V26Z" fill="#FFC300"/>
<path d="M48 8C48 6.895 47.104 6 46 6H44L24 22L4 6H2C0.896 6 0 6.895 0 8V10L22 24L0 38V40C0 41.105 0.896 42 2 42H4L24 26L44 42H46C47.104 42 48 41.105 48 40V38L26 24L48 10V8Z" fill="#FFC300"/>
<path d="M22 6L24 22L26 6H22Z" fill="#FFC300"/>
<path d="M24 29C26.7614 29 29 26.7614 29 24C29 21.2386 26.7614 19 24 19C21.2386 19 19 21.2386 19 24C19 26.7614 21.2386 29 24 29Z" fill="#C60B1E"/>
<path d="M24 27C25.6569 27 27 25.6569 27 24C27 22.3431 25.6569 21 24 21C22.3431 21 21 22.3431 21 24C21 25.6569 22.3431 27 24 27Z" fill="#FFC300"/>
</svg>
