<svg width="48" height="48" viewBox="0 0 48 48" fill="none" xmlns="http://www.w3.org/2000/svg">
<path d="M48 40C48 41.105 47.105 42 46 42H2C0.895 42 0 41.105 0 40L48 30V40Z" fill="#013893"/>
<path d="M0 40L48 30V18L0 40Z" fill="#E6E6E6"/>
<path d="M0 40L42 6H2C0.895 6 0 6.895 0 8V40Z" fill="#013893"/>
<path d="M48 8C48 6.895 47.105 6 46 6H42L0 40L48 18V8Z" fill="#DD7506"/>
<path d="M13.2389 13.301L12.1989 15.49L15.9819 16.301L12.1989 17.113L13.2389 19.301L11.0509 18.262L10.2389 22.043L9.42793 18.262L7.23893 19.301L8.27893 17.113L3.98193 16.301L8.27893 15.49L7.23893 13.301L9.42793 14.342L10.2389 10.043L11.0509 14.342L13.2389 13.301Z" fill="white"/>
</svg>
