<svg width="48" height="48" viewBox="0 0 48 48" fill="none" xmlns="http://www.w3.org/2000/svg">
<path d="M46 6H2C0.895 6 0 6.896 0 8V40C0 41.104 0.895 42 2 42H46C47.105 42 48 41.104 48 40V8C48 6.896 47.105 6 46 6ZM44 38H4V10H44V38Z" fill="#D5AD3B"/>
<path d="M44 10H4V38H44V10Z" fill="#C40308"/>
<path d="M24 16C24 14.895 23.105 14 22 14H18C16.895 14 16 14.895 16 16H24Z" fill="#D5AD3B"/>
<path d="M32 20V24H28V16H32C32 14.896 31.105 14 30 14H28H26C24.895 14 24 14.896 24 16C24 14.896 23.105 14 22 14H20V24H16V20C14.895 20 14 20.896 14 22V26C14 27.104 14.895 28 16 28H20.127L19.008 32.102L22.469 29.41L24 34L25.531 29.409L28.992 32.101L27.873 28H32C33.105 28 34 27.104 34 26V22C34 20.896 33.105 20 32 20Z" fill="#D5AD3B"/>
</svg>
