<svg width="48" height="48" viewBox="0 0 48 48" fill="none" xmlns="http://www.w3.org/2000/svg">
<path d="M48 14H0V8C0 6.895 0.895 6 2 6H46C47.105 6 48 6.895 48 8V14Z" fill="#0B51A0"/>
<path d="M48 40C48 41.105 47.105 42 46 42H2C0.895 42 0 41.105 0 40V34H48V40Z" fill="#0B51A0"/>
<path d="M48 16H0V32H48V16Z" fill="#EA2130"/>
<path d="M48 14H0V16H48V14Z" fill="white"/>
<path d="M48 32H0V34H48V32Z" fill="white"/>
<path d="M14 30C17.3137 30 20 27.3137 20 24C20 20.6863 17.3137 18 14 18C10.6863 18 8 20.6863 8 24C8 27.3137 10.6863 30 14 30Z" fill="white"/>
<path d="M18.1849 22.6132H15.2369L13.9999 19.9302L12.7629 22.6142H9.81494L11.9679 24.8412L11.1719 28.0722L13.9999 26.4652L16.8269 28.0712L16.0309 24.8402L18.1849 22.6132Z" fill="#EA2130"/>
</svg>
