<svg width="48" height="48" viewBox="0 0 48 48" fill="none" xmlns="http://www.w3.org/2000/svg">
<path d="M48 40C48 41.105 47.105 42 46 42H2C0.895 42 0 41.105 0 40V8C0 6.895 0.895 6 2 6H46C47.105 6 48 6.895 48 8V40Z" fill="#EF2B2D"/>
<path d="M10 18H0V20H12V18V6H10V18Z" fill="white"/>
<path d="M0 30H10V42H12V30V28H0V30Z" fill="white"/>
<path d="M22 18V6H20V18V20H48V18H22Z" fill="white"/>
<path d="M20 30V42H22V30H48V28H20V30Z" fill="white"/>
<path d="M48 20H20V6H12V20H0V28H12V42H20V28H48V20Z" fill="#003680"/>
</svg>
