<svg width="48" height="48" viewBox="0 0 48 48" fill="none" xmlns="http://www.w3.org/2000/svg">
<path d="M48 40C48 41.105 47.105 42 46 42H16V6H46C47.105 6 48 6.895 48 8V40Z" fill="#05401D"/>
<path d="M42.0001 22.684H39.0531L37.8161 20L36.5781 22.684H33.6331L35.7851 24.911L34.9881 28.141L37.8161 26.536L40.6441 28.141L39.8471 24.911L42.0001 22.684Z" fill="white"/>
<path d="M34 30C30.688 30 28 27.313 28 24C28 20.688 30.688 18 34 18C34.52 18 35.016 18.086 35.496 18.211C34.063 16.85 32.135 16 30 16C25.582 16 22 19.582 22 24C22 28.418 25.582 32 30 32C32.135 32 34.063 31.15 35.496 29.789C35.016 29.914 34.52 30 34 30Z" fill="white"/>
<path d="M16 6H2C0.895 6 0 6.895 0 8V40C0 41.105 0.895 42 2 42H16V6Z" fill="#E6E6E6"/>
</svg>
