<svg width="48" height="48" viewBox="0 0 48 48" fill="none" xmlns="http://www.w3.org/2000/svg">
<path d="M24 24H0V8C0 6.895 0.895 6 2 6H24V24Z" fill="#E6E6E6"/>
<path d="M16.1839 13.6129H13.2369L11.9999 10.9299L10.7619 13.6139H7.81592L9.96792 15.8409L9.17092 19.0709L11.9999 17.4649L14.8279 19.0699L14.0309 15.8399L16.1839 13.6129Z" fill="#025193"/>
<path d="M48 40C48 41.105 47.105 42 46 42H24V24H48V40Z" fill="#E6E6E6"/>
<path d="M0 40C0 41.105 0.895 42 2 42H24V24H0V40Z" fill="#025193"/>
<path d="M40.1839 31.6129H37.2369L35.9999 28.9299L34.7619 31.6139H31.8169L33.9689 33.8409L33.1719 37.0719L35.9999 35.4649L38.8279 37.0709L38.0309 33.8399L40.1839 31.6129Z" fill="#D21033"/>
<path d="M24 24H48V8C48 6.895 47.105 6 46 6H24V24Z" fill="#D21033"/>
</svg>
