<svg width="48" height="48" viewBox="0 0 48 48" fill="none" xmlns="http://www.w3.org/2000/svg">
<path d="M2 6H30L0 26V8C0 6.896 0.895 6 2 6Z" fill="#009D39"/>
<path d="M46 42H18L48 22V40C48 41.104 47.105 42 46 42Z" fill="#D90E2B"/>
<path d="M37.211 6H46C47.105 6 48 6.896 48 8V17.193L10.789 42H2C0.895 42 0 41.104 0 40V30.807L37.211 6Z" fill="#161616"/>
<path d="M48.0001 22.0001L18.0001 42.0001H10.7891L48.0001 17.1931V22.0001Z" fill="#F4CE01"/>
<path d="M30 6H37.211L0 30.807V26L30 6Z" fill="#F4CE01"/>
<path d="M12.367 32.684H9.42L8.184 30L6.946 32.684H4L6.152 34.911L5.355 38.141L8.183 36.536L11.011 38.141L10.214 34.911L12.367 32.684Z" fill="white"/>
<path d="M44 12.5429H41.053L39.817 9.85889L38.579 12.5429H35.634L37.786 14.7699L36.988 17.9999L39.816 16.3949L42.645 17.9999L41.848 14.7699L44 12.5429Z" fill="white"/>
</svg>
