<svg width="48" height="48" viewBox="0 0 48 48" fill="none" xmlns="http://www.w3.org/2000/svg">
<path d="M48 16H12L2 6H46C47.105 6 48 6.895 48 8V16Z" fill="#17AC4E"/>
<path d="M48 32H12L20 24L12 16H48V32Z" fill="#FFDB0C"/>
<path d="M48 40C48 41.105 47.105 42 46 42H2L12 32H48V40Z" fill="#17AC4E"/>
<path d="M2 6C0.896 6 0 6.895 0 8V24V40C0 41.105 0.896 42 2 42L20 24L2 6Z" fill="#D91E2F"/>
<path d="M30.369 22.5429H27.421L26.185 19.8589L24.948 22.5429H22L24.153 24.7699L23.357 27.9999L26.184 26.3949L29.012 27.9999L28.216 24.7699L30.369 22.5429Z" fill="#424041"/>
<path d="M42.369 22.5429H39.421L38.185 19.8589L36.948 22.5429H34L36.153 24.7699L35.357 27.9999L38.184 26.3949L41.012 27.9999L40.216 24.7699L42.369 22.5429Z" fill="#424041"/>
</svg>
