<svg width="48" height="48" viewBox="0 0 48 48" fill="none" xmlns="http://www.w3.org/2000/svg">
<path d="M48 40C48 41.105 47.105 42 46 42H2C0.895 42 0 41.105 0 40V30H48V40Z" fill="#DD2026"/>
<path d="M48 18H0V30H48V18Z" fill="#0038A7"/>
<path d="M48 18H0V8C0 6.895 0.895 6 2 6H46C47.105 6 48 6.895 48 8V18Z" fill="#E6E6E6"/>
<path d="M18 14H6V24.93C6 25.599 6.334 26.223 6.891 26.594L12 30L17.109 26.594C17.666 26.223 18 25.598 18 24.93V14Z" fill="#EE1E2E"/>
<path d="M16 16H8V18H16V16Z" fill="white"/>
<path d="M14 20H10V22H14V20Z" fill="white"/>
<path d="M14 24H10V26H14V24Z" fill="white"/>
</svg>
