<svg width="48" height="48" viewBox="0 0 48 48" fill="none" xmlns="http://www.w3.org/2000/svg">
<path d="M46 6H2C0.896 6 0 6.896 0 8V18V40C0 41.104 0.896 42 2 42H46C47.104 42 48 41.104 48 40V18V8C48 6.896 47.104 6 46 6Z" fill="#02247E"/>
<path d="M20 14H14.828L18.485 10.343L15.657 7.515L12 11.172V6H8V11.172L4.343 7.515L1.515 10.343L5.172 14H0V18H5.172L1.515 21.657L4.343 24.485L8 20.828V26H12V20.828L15.657 24.485L18.485 21.657L14.828 18H20V14Z" fill="#C30F2C"/>
<path d="M44 24H32V34L38 38L44 34V24Z" fill="#703D35"/>
</svg>
