<svg width="48" height="48" viewBox="0 0 48 48" fill="none" xmlns="http://www.w3.org/2000/svg">
<path d="M48 40C48 41.105 47.105 42 46 42H18V6H46C47.105 6 48 6.895 48 8V40Z" fill="#31AD68"/>
<path d="M18 6H2C0.895 6 0 6.895 0 8V40C0 41.105 0.895 42 2 42H18V6Z" fill="#31AD68"/>
<path d="M34 16C34 13.391 32.326 11.193 30 10.367C30.629 10.145 31.295 10 32 10C35.314 10 38 12.686 38 16C38 19.314 35.314 22 32 22C31.295 22 30.629 21.855 30 21.633C32.326 20.807 34 18.609 34 16Z" fill="white"/>
<path d="M26 12H24V14H26V12Z" fill="white"/>
<path d="M30 12H28V14H30V12Z" fill="white"/>
<path d="M30 16H28V18H30V16Z" fill="white"/>
<path d="M26 16H24V18H26V16Z" fill="white"/>
<path d="M28 14H26V16H28V14Z" fill="white"/>
<path d="M10 6V42H18V6H10ZM16 38H12V34H16V38ZM16 32H12V28H16V32ZM16 26H12V22H16V26ZM16 20H12V16H16V20ZM16 14H12V10H16V14Z" fill="#A43945"/>
</svg>
