<svg width="48" height="48" viewBox="0 0 48 48" fill="none" xmlns="http://www.w3.org/2000/svg">
<path d="M48 18H0V8C0 6.895 0.895 6 2 6H46C47.105 6 48 6.895 48 8V18Z" fill="#FDCB08"/>
<path d="M48 18H0V30H48V18Z" fill="#00287A"/>
<path d="M48 40C48 41.105 47.105 42 46 42H2C0.895 42 0 41.105 0 40V30H48V40Z" fill="#D0142C"/>
<path d="M26.1291 23.2949H24.6291L24.0001 21.9299L23.3711 23.2949H21.8711L22.9671 24.4269L22.5631 26.0709L24.0001 25.2539L25.4381 26.0699L25.0341 24.4259L26.1291 23.2949Z" fill="white"/>
<path d="M18.258 25.365H16.758L16.129 24L15.5 25.365H14L15.096 26.497L14.692 28.141L16.13 27.325L17.567 28.141L17.163 26.497L18.258 25.365Z" fill="white"/>
<path d="M34.258 25.365H32.758L32.129 24L31.5 25.365H30L31.096 26.497L30.692 28.141L32.13 27.325L33.567 28.141L33.163 26.497L34.258 25.365Z" fill="white"/>
</svg>
