<svg width="12" height="12" viewBox="0 0 12 12" fill="none" xmlns="http://www.w3.org/2000/svg">
<g clip-path="url(#clip0)">
<path fill-rule="evenodd" clip-rule="evenodd" d="M6 10.8C8.65097 10.8 10.8 8.65097 10.8 6C10.8 3.34903 8.65097 1.2 6 1.2C3.34903 1.2 1.2 3.34903 1.2 6C1.2 8.65097 3.34903 10.8 6 10.8ZM12 6C12 9.31371 9.31371 12 6 12C2.68629 12 0 9.31371 0 6C0 2.68629 2.68629 0 6 0C9.31371 0 12 2.68629 12 6Z" fill="#09204F"/>
<path fill-rule="evenodd" clip-rule="evenodd" d="M6.00005 2.90002C6.38665 2.90002 6.70005 3.21343 6.70005 3.60002V6.00002C6.70005 6.38662 6.38665 6.70002 6.00005 6.70002C5.61345 6.70002 5.30005 6.38662 5.30005 6.00002V3.60002C5.30005 3.21343 5.61345 2.90002 6.00005 2.90002Z" fill="#09204F"/>
<path fill-rule="evenodd" clip-rule="evenodd" d="M6.00005 7.40002C6.38665 7.40002 6.70005 7.71343 6.70005 8.10002V8.20002C6.70005 8.58662 6.38665 8.90002 6.00005 8.90002C5.61345 8.90002 5.30005 8.58662 5.30005 8.20002V8.10002C5.30005 7.71343 5.61345 7.40002 6.00005 7.40002Z" fill="#09204F"/>
</g>
<defs>
<clipPath id="clip0">
<rect width="12" height="12" fill="white" transform="translate(12) rotate(90)"/>
</clipPath>
</defs>
</svg>
