<svg width="12" height="12" viewBox="0 0 12 12" fill="none" xmlns="http://www.w3.org/2000/svg">
<path fill-rule="evenodd" clip-rule="evenodd" d="M5.21508 1.05441C5.4547 0.919506 5.72505 0.848633 6.00003 0.848633C6.27502 0.848633 6.54537 0.919506 6.78499 1.05441C7.02461 1.18932 7.22542 1.38371 7.36803 1.61883L7.36976 1.62168L11.6097 8.69993C11.7494 8.94187 11.8233 9.21621 11.824 9.49558C11.8248 9.77496 11.7524 10.0497 11.6141 10.2924C11.4757 10.5351 11.2762 10.7374 11.0355 10.8791C10.7947 11.0207 10.521 11.0969 10.2416 11.1L10.235 11.1L1.75844 11.1C1.47908 11.0969 1.20539 11.0207 0.964607 10.8791C0.723821 10.7374 0.52433 10.5351 0.385982 10.2924C0.247633 10.0497 0.175249 9.77496 0.176032 9.49558C0.176814 9.21621 0.250735 8.94191 0.390441 8.69997L0.395248 8.69164L4.63031 1.62168L5.14503 1.93L4.63203 1.61883C4.77465 1.38371 4.97546 1.18932 5.21508 1.05441ZM5.6587 2.24008L1.42779 9.30327C1.39405 9.36296 1.37622 9.43034 1.37603 9.49895C1.37583 9.56879 1.39393 9.63747 1.42851 9.69815C1.4631 9.75883 1.51297 9.80939 1.57317 9.84481C1.63263 9.8798 1.70012 9.89881 1.76907 9.90001H10.231C10.2999 9.89881 10.3674 9.8798 10.4269 9.84481C10.4871 9.80939 10.537 9.75883 10.5716 9.69815C10.6061 9.63747 10.6242 9.56879 10.624 9.49895C10.6239 9.43035 10.606 9.36297 10.5723 9.30329L6.34203 2.24118C6.34181 2.24081 6.34159 2.24045 6.34136 2.24008C6.30575 2.1818 6.25581 2.13359 6.19627 2.10008C6.13637 2.06635 6.06878 2.04863 6.00003 2.04863C5.93129 2.04863 5.8637 2.06635 5.8038 2.10008C5.74426 2.13359 5.69432 2.1818 5.6587 2.24008Z" fill="#09204F"/>
<path fill-rule="evenodd" clip-rule="evenodd" d="M6.00005 3.69995C6.38665 3.69995 6.70005 4.01335 6.70005 4.39995V6.39995C6.70005 6.78655 6.38665 7.09995 6.00005 7.09995C5.61345 7.09995 5.30005 6.78655 5.30005 6.39995V4.39995C5.30005 4.01335 5.61345 3.69995 6.00005 3.69995Z" fill="#09204F"/>
<path fill-rule="evenodd" clip-rule="evenodd" d="M6.00005 7.59985C6.38665 7.59985 6.70005 7.91325 6.70005 8.29985V8.39985C6.70005 8.78645 6.38665 9.09985 6.00005 9.09985C5.61345 9.09985 5.30005 8.78645 5.30005 8.39985V8.29985C5.30005 7.91325 5.61345 7.59985 6.00005 7.59985Z" fill="#09204F"/>
</svg>
