<svg width="12" height="12" viewBox="0 0 12 12" fill="none" xmlns="http://www.w3.org/2000/svg">
<path fill-rule="evenodd" clip-rule="evenodd" d="M0.900024 4.9999C0.900024 4.66853 1.16865 4.3999 1.50002 4.3999H8.50002C8.8314 4.3999 9.10002 4.66853 9.10002 4.9999C9.10002 5.33127 8.8314 5.5999 8.50002 5.5999H1.50002C1.16865 5.5999 0.900024 5.33127 0.900024 4.9999Z" fill="#09204F"/>
<path fill-rule="evenodd" clip-rule="evenodd" d="M0.900024 2.9999C0.900024 2.66853 1.16865 2.3999 1.50002 2.3999H10.5C10.8314 2.3999 11.1 2.66853 11.1 2.9999C11.1 3.33127 10.8314 3.5999 10.5 3.5999H1.50002C1.16865 3.5999 0.900024 3.33127 0.900024 2.9999Z" fill="#09204F"/>
<path fill-rule="evenodd" clip-rule="evenodd" d="M0.900024 6.9999C0.900024 6.66853 1.16865 6.3999 1.50002 6.3999H10.5C10.8314 6.3999 11.1 6.66853 11.1 6.9999C11.1 7.33127 10.8314 7.5999 10.5 7.5999H1.50002C1.16865 7.5999 0.900024 7.33127 0.900024 6.9999Z" fill="#09204F"/>
<path fill-rule="evenodd" clip-rule="evenodd" d="M0.900024 8.9999C0.900024 8.66853 1.16865 8.3999 1.50002 8.3999H8.50002C8.8314 8.3999 9.10002 8.66853 9.10002 8.9999C9.10002 9.33127 8.8314 9.5999 8.50002 9.5999H1.50002C1.16865 9.5999 0.900024 9.33127 0.900024 8.9999Z" fill="#09204F"/>
</svg>
