<svg width="12" height="12" viewBox="0 0 12 12" fill="none" xmlns="http://www.w3.org/2000/svg">
<path fill-rule="evenodd" clip-rule="evenodd" d="M2.40002 4.9999C2.40002 4.66853 2.66865 4.3999 3.00002 4.3999H9.00002C9.3314 4.3999 9.60002 4.66853 9.60002 4.9999C9.60002 5.33127 9.3314 5.5999 9.00002 5.5999H3.00002C2.66865 5.5999 2.40002 5.33127 2.40002 4.9999Z" fill="#09204F"/>
<path fill-rule="evenodd" clip-rule="evenodd" d="M0.900024 2.9999C0.900024 2.66853 1.16865 2.3999 1.50002 2.3999H10.5C10.8314 2.3999 11.1 2.66853 11.1 2.9999C11.1 3.33127 10.8314 3.5999 10.5 3.5999H1.50002C1.16865 3.5999 0.900024 3.33127 0.900024 2.9999Z" fill="#09204F"/>
<path fill-rule="evenodd" clip-rule="evenodd" d="M0.900024 6.9999C0.900024 6.66853 1.16865 6.3999 1.50002 6.3999H10.5C10.8314 6.3999 11.1 6.66853 11.1 6.9999C11.1 7.33127 10.8314 7.5999 10.5 7.5999H1.50002C1.16865 7.5999 0.900024 7.33127 0.900024 6.9999Z" fill="#09204F"/>
<path fill-rule="evenodd" clip-rule="evenodd" d="M2.40002 8.9999C2.40002 8.66853 2.66865 8.3999 3.00002 8.3999H9.00002C9.3314 8.3999 9.60002 8.66853 9.60002 8.9999C9.60002 9.33127 9.3314 9.5999 9.00002 9.5999H3.00002C2.66865 9.5999 2.40002 9.33127 2.40002 8.9999Z" fill="#09204F"/>
</svg>
