<svg width="12" height="12" viewBox="0 0 12 12" fill="none" xmlns="http://www.w3.org/2000/svg">
<g clip-path="url(#clip0)">
<path fill-rule="evenodd" clip-rule="evenodd" d="M1.50002 3.3999C1.8314 3.3999 2.10002 3.66853 2.10002 3.9999V9.8999H9.90002V3.9999C9.90002 3.66853 10.1687 3.3999 10.5 3.3999C10.8314 3.3999 11.1 3.66853 11.1 3.9999V10.4999C11.1 10.8313 10.8314 11.0999 10.5 11.0999H1.50002C1.16865 11.0999 0.900024 10.8313 0.900024 10.4999V3.9999C0.900024 3.66853 1.16865 3.3999 1.50002 3.3999Z" fill="#09204F"/>
<path fill-rule="evenodd" clip-rule="evenodd" d="M-0.0999756 1.4999C-0.0999756 1.16853 0.168654 0.899902 0.500024 0.899902H11.5C11.8314 0.899902 12.1 1.16853 12.1 1.4999V3.9999C12.1 4.33127 11.8314 4.5999 11.5 4.5999H0.500024C0.168654 4.5999 -0.0999756 4.33127 -0.0999756 3.9999V1.4999ZM1.10002 2.0999V3.3999H10.9V2.0999H1.10002Z" fill="#09204F"/>
<path fill-rule="evenodd" clip-rule="evenodd" d="M4.40002 5.9999C4.40002 5.66853 4.66865 5.3999 5.00002 5.3999H7.00002C7.3314 5.3999 7.60002 5.66853 7.60002 5.9999C7.60002 6.33127 7.3314 6.5999 7.00002 6.5999H5.00002C4.66865 6.5999 4.40002 6.33127 4.40002 5.9999Z" fill="#09204F"/>
</g>
<defs>
<clipPath id="clip0">
<rect width="12" height="12" fill="white"/>
</clipPath>
</defs>
</svg>
