<svg width="12" height="12" viewBox="0 0 12 12" fill="none" xmlns="http://www.w3.org/2000/svg">
<path fill-rule="evenodd" clip-rule="evenodd" d="M2.57564 2.57564C2.80995 2.34132 3.18985 2.34132 3.42417 2.57564L9.42417 8.57564C9.65848 8.80995 9.65848 9.18985 9.42417 9.42417C9.18985 9.65848 8.80995 9.65848 8.57564 9.42417L2.57564 3.42417C2.34132 3.18985 2.34132 2.80995 2.57564 2.57564Z" fill="#09204F"/>
<path fill-rule="evenodd" clip-rule="evenodd" d="M8.9999 2.3999C9.33127 2.3999 9.5999 2.66853 9.5999 2.9999V8.9999C9.5999 9.33127 9.33127 9.5999 8.9999 9.5999H2.9999C2.66853 9.5999 2.3999 9.33127 2.3999 8.9999C2.3999 8.66853 2.66853 8.3999 2.9999 8.3999H8.3999V2.9999C8.3999 2.66853 8.66853 2.3999 8.9999 2.3999Z" fill="#09204F"/>
</svg>
