<svg width="12" height="12" viewBox="0 0 12 12" fill="none" xmlns="http://www.w3.org/2000/svg">
<path fill-rule="evenodd" clip-rule="evenodd" d="M2.57564 9.42436C2.34132 9.19005 2.34132 8.81015 2.57564 8.57583L8.57564 2.57583C8.80995 2.34152 9.18985 2.34152 9.42417 2.57583C9.65848 2.81015 9.65848 3.19005 9.42417 3.42436L3.42417 9.42436C3.18985 9.65868 2.80995 9.65868 2.57564 9.42436Z" fill="#09204F"/>
<path fill-rule="evenodd" clip-rule="evenodd" d="M2.3999 3.0001C2.3999 2.66873 2.66853 2.4001 2.9999 2.4001H8.9999C9.33127 2.4001 9.5999 2.66873 9.5999 3.0001V9.0001C9.5999 9.33147 9.33127 9.6001 8.9999 9.6001C8.66853 9.6001 8.3999 9.33147 8.3999 9.0001V3.6001H2.9999C2.66853 3.6001 2.3999 3.33147 2.3999 3.0001Z" fill="#09204F"/>
</svg>
