<svg width="12" height="12" viewBox="0 0 12 12" fill="none" xmlns="http://www.w3.org/2000/svg">
<path fill-rule="evenodd" clip-rule="evenodd" d="M5.9999 1.3999C6.33127 1.3999 6.5999 1.66853 6.5999 1.9999V9.9999C6.5999 10.3313 6.33127 10.5999 5.9999 10.5999C5.66853 10.5999 5.3999 10.3313 5.3999 9.9999V1.9999C5.3999 1.66853 5.66853 1.3999 5.9999 1.3999Z" fill="#09204F"/>
<path fill-rule="evenodd" clip-rule="evenodd" d="M2.07564 6.07564C2.30995 5.84132 2.68985 5.84132 2.92417 6.07564L5.9999 9.15137L9.07564 6.07564C9.30995 5.84132 9.68985 5.84132 9.92417 6.07564C10.1585 6.30995 10.1585 6.68985 9.92417 6.92417L6.42417 10.4242C6.18985 10.6585 5.80995 10.6585 5.57564 10.4242L2.07564 6.92417C1.84132 6.68985 1.84132 6.30995 2.07564 6.07564Z" fill="#09204F"/>
</svg>
