<svg width="12" height="12" viewBox="0 0 12 12" fill="none" xmlns="http://www.w3.org/2000/svg">
<g clip-path="url(#clip0)">
<path fill-rule="evenodd" clip-rule="evenodd" d="M10.8 6C10.8 3.34903 8.65097 1.2 6 1.2C3.34903 1.2 1.2 3.34903 1.2 6C1.2 8.65097 3.34903 10.8 6 10.8C8.65097 10.8 10.8 8.65097 10.8 6ZM6 9.53674e-07C9.31371 9.53674e-07 12 2.68629 12 6C12 9.31371 9.31371 12 6 12C2.68629 12 0 9.31371 0 6C0 2.68629 2.68629 9.53674e-07 6 9.53674e-07Z" fill="#09204F"/>
<path fill-rule="evenodd" clip-rule="evenodd" d="M5.54244 8.59428C5.30812 8.35997 5.30812 7.98007 5.54244 7.74576L7.28484 6.00335L5.54244 4.26095C5.30812 4.02664 5.30812 3.64674 5.54244 3.41242C5.77675 3.17811 6.15665 3.17811 6.39096 3.41242L8.55763 5.57909C8.67015 5.69161 8.73337 5.84422 8.73337 6.00335C8.73337 6.16248 8.67015 6.31509 8.55763 6.42762L6.39096 8.59428C6.15665 8.8286 5.77675 8.8286 5.54244 8.59428Z" fill="#09204F"/>
<path fill-rule="evenodd" clip-rule="evenodd" d="M3.19995 6.00352C3.19995 5.67214 3.46858 5.40352 3.79995 5.40352H8.13329C8.46466 5.40352 8.73329 5.67214 8.73329 6.00352C8.73329 6.33489 8.46466 6.60352 8.13329 6.60352H3.79995C3.46858 6.60352 3.19995 6.33489 3.19995 6.00352Z" fill="#09204F"/>
</g>
<defs>
<clipPath id="clip0">
<rect width="12" height="12" fill="white"/>
</clipPath>
</defs>
</svg>
