<svg width="12" height="12" viewBox="0 0 12 12" fill="none" xmlns="http://www.w3.org/2000/svg">
<path fill-rule="evenodd" clip-rule="evenodd" d="M9.42436 9.42436C9.19005 9.65868 8.81015 9.65868 8.57583 9.42436L2.57583 3.42436C2.34152 3.19005 2.34152 2.81015 2.57583 2.57583C2.81015 2.34152 3.19005 2.34152 3.42436 2.57583L9.42436 8.57583C9.65868 8.81015 9.65868 9.19005 9.42436 9.42436Z" fill="#09204F"/>
<path fill-rule="evenodd" clip-rule="evenodd" d="M3.0001 9.6001C2.66873 9.6001 2.4001 9.33147 2.4001 9.0001L2.4001 3.0001C2.4001 2.66873 2.66873 2.4001 3.0001 2.4001L9.0001 2.4001C9.33147 2.4001 9.6001 2.66873 9.6001 3.0001C9.6001 3.33147 9.33147 3.6001 9.0001 3.6001L3.6001 3.6001L3.6001 9.0001C3.6001 9.33147 3.33147 9.6001 3.0001 9.6001Z" fill="#09204F"/>
</svg>
