<svg width="12" height="12" viewBox="0 0 12 12" fill="none" xmlns="http://www.w3.org/2000/svg">
<path fill-rule="evenodd" clip-rule="evenodd" d="M9.42412 2.57564C9.65843 2.80995 9.65843 3.18985 9.42412 3.42417L3.42412 9.42417C3.1898 9.65848 2.8099 9.65848 2.57559 9.42417C2.34127 9.18985 2.34127 8.80995 2.57559 8.57564L8.57559 2.57564C8.8099 2.34132 9.1898 2.34132 9.42412 2.57564Z" fill="#09204F"/>
<path fill-rule="evenodd" clip-rule="evenodd" d="M9.59985 8.9999C9.59985 9.33127 9.33122 9.5999 8.99985 9.5999H2.99985C2.66848 9.5999 2.39985 9.33127 2.39985 8.9999V2.9999C2.39985 2.66853 2.66848 2.3999 2.99985 2.3999C3.33122 2.3999 3.59985 2.66853 3.59985 2.9999V8.3999H8.99985C9.33122 8.3999 9.59985 8.66853 9.59985 8.9999Z" fill="#09204F"/>
</svg>
