<svg width="12" height="12" viewBox="0 0 12 12" fill="none" xmlns="http://www.w3.org/2000/svg">
<g clip-path="url(#clip0)">
<path fill-rule="evenodd" clip-rule="evenodd" d="M6 1.2C3.34903 1.2 1.2 3.34903 1.2 6C1.2 8.65097 3.34903 10.8 6 10.8C8.65097 10.8 10.8 8.65097 10.8 6C10.8 3.34903 8.65097 1.2 6 1.2ZM9.53674e-07 6C9.53674e-07 2.68629 2.68629 0 6 0C9.31371 0 12 2.68629 12 6C12 9.31371 9.31371 12 6 12C2.68629 12 9.53674e-07 9.31371 9.53674e-07 6Z" fill="#09204F"/>
<path fill-rule="evenodd" clip-rule="evenodd" d="M8.59428 6.45756C8.35997 6.69188 7.98007 6.69188 7.74576 6.45756L6.00335 4.71516L4.26095 6.45756C4.02664 6.69188 3.64674 6.69188 3.41242 6.45756C3.17811 6.22325 3.17811 5.84335 3.41242 5.60904L5.57909 3.44237C5.69161 3.32985 5.84422 3.26663 6.00335 3.26663C6.16248 3.26663 6.31509 3.32985 6.42762 3.44237L8.59428 5.60904C8.8286 5.84335 8.8286 6.22325 8.59428 6.45756Z" fill="#09204F"/>
<path fill-rule="evenodd" clip-rule="evenodd" d="M6.00352 8.80005C5.67214 8.80005 5.40352 8.53142 5.40352 8.20005L5.40352 3.86671C5.40352 3.53534 5.67214 3.26671 6.00352 3.26671C6.33489 3.26671 6.60352 3.53534 6.60352 3.86671L6.60352 8.20005C6.60352 8.53142 6.33489 8.80005 6.00352 8.80005Z" fill="#09204F"/>
</g>
<defs>
<clipPath id="clip0">
<rect width="12" height="12" fill="white"/>
</clipPath>
</defs>
</svg>
