<svg width="12" height="12" viewBox="0 0 12 12" fill="none" xmlns="http://www.w3.org/2000/svg">
<path fill-rule="evenodd" clip-rule="evenodd" d="M6 10.8C8.65097 10.8 10.8 8.65097 10.8 6C10.8 3.34903 8.65097 1.2 6 1.2C3.34903 1.2 1.2 3.34903 1.2 6C1.2 8.65097 3.34903 10.8 6 10.8ZM12 6C12 9.31371 9.31371 12 6 12C2.68629 12 0 9.31371 0 6C0 2.68629 2.68629 0 6 0C9.31371 0 12 2.68629 12 6Z" fill="#09204F"/>
<path fill-rule="evenodd" clip-rule="evenodd" d="M3.40572 5.54244C3.64003 5.30812 4.01993 5.30812 4.25424 5.54244L5.99665 7.28484L7.73905 5.54244C7.97336 5.30812 8.35326 5.30812 8.58758 5.54244C8.82189 5.77675 8.82189 6.15665 8.58758 6.39096L6.42091 8.55763C6.30839 8.67015 6.15578 8.73337 5.99665 8.73337C5.83752 8.73337 5.68491 8.67015 5.57238 8.55763L3.40572 6.39096C3.1714 6.15665 3.1714 5.77675 3.40572 5.54244Z" fill="#09204F"/>
<path fill-rule="evenodd" clip-rule="evenodd" d="M5.99648 3.19995C6.32786 3.19995 6.59648 3.46858 6.59648 3.79995V8.13329C6.59648 8.46466 6.32786 8.73329 5.99648 8.73329C5.66511 8.73329 5.39648 8.46466 5.39648 8.13329V3.79995C5.39648 3.46858 5.66511 3.19995 5.99648 3.19995Z" fill="#09204F"/>
</svg>
