<svg width="12" height="12" viewBox="0 0 12 12" fill="none" xmlns="http://www.w3.org/2000/svg">
<path fill-rule="evenodd" clip-rule="evenodd" d="M5.99993 4.30005C6.38653 4.30005 6.69993 4.61345 6.69993 5.00005V10C6.69993 10.3866 6.38653 10.7 5.99993 10.7C5.61333 10.7 5.29993 10.3866 5.29993 10V5.00005C5.29993 4.61345 5.61333 4.30005 5.99993 4.30005Z" fill="#09204F"/>
<path fill-rule="evenodd" clip-rule="evenodd" d="M8.99993 2.30005C9.38653 2.30005 9.69993 2.61345 9.69993 3.00005V10C9.69993 10.3866 9.38653 10.7 8.99993 10.7C8.61333 10.7 8.29993 10.3866 8.29993 10V3.00005C8.29993 2.61345 8.61333 2.30005 8.99993 2.30005Z" fill="#09204F"/>
<path fill-rule="evenodd" clip-rule="evenodd" d="M2.99993 7.30005C3.38653 7.30005 3.69993 7.61345 3.69993 8.00005V10C3.69993 10.3866 3.38653 10.7 2.99993 10.7C2.61333 10.7 2.29993 10.3866 2.29993 10V8.00005C2.29993 7.61345 2.61333 7.30005 2.99993 7.30005Z" fill="#09204F"/>
</svg>
