<svg width="12" height="12" viewBox="0 0 12 12" fill="none" xmlns="http://www.w3.org/2000/svg">
<path fill-rule="evenodd" clip-rule="evenodd" d="M0.400024 1.4999C0.400024 1.16853 0.668654 0.899902 1.00002 0.899902H4.00002C4.68959 0.899902 5.35091 1.17383 5.8385 1.66142C6.3261 2.14902 6.60002 2.81034 6.60002 3.4999V10.4999C6.60002 10.8313 6.3314 11.0999 6.00002 11.0999C5.66865 11.0999 5.40002 10.8313 5.40002 10.4999C5.40002 10.2612 5.3052 10.0323 5.13642 9.86351C4.96764 9.69472 4.73872 9.5999 4.50002 9.5999H1.00002C0.668654 9.5999 0.400024 9.33127 0.400024 8.9999V1.4999ZM5.40002 8.60253V3.4999C5.40002 3.1286 5.25253 2.7725 4.98997 2.50995C4.72742 2.2474 4.37133 2.0999 4.00002 2.0999H1.60002V8.3999H4.50002C4.81433 8.3999 5.12137 8.47036 5.40002 8.60253Z" fill="#09204F"/>
<path fill-rule="evenodd" clip-rule="evenodd" d="M6.16155 1.66142C6.64914 1.17383 7.31046 0.899902 8.00002 0.899902H11C11.3314 0.899902 11.6 1.16853 11.6 1.4999V8.9999C11.6 9.33127 11.3314 9.5999 11 9.5999H7.50002C7.26133 9.5999 7.03241 9.69472 6.86363 9.86351C6.69485 10.0323 6.60002 10.2612 6.60002 10.4999C6.60002 10.8313 6.3314 11.0999 6.00002 11.0999C5.66865 11.0999 5.40002 10.8313 5.40002 10.4999V3.4999C5.40002 2.81034 5.67395 2.14902 6.16155 1.66142ZM6.60002 8.60253C6.87868 8.47036 7.18572 8.3999 7.50002 8.3999H10.4V2.0999H8.00002C7.62872 2.0999 7.27263 2.2474 7.01007 2.50995C6.74752 2.7725 6.60002 3.1286 6.60002 3.4999V8.60253Z" fill="#09204F"/>
</svg>
