<svg width="12" height="12" viewBox="0 0 12 12" fill="none" xmlns="http://www.w3.org/2000/svg">
<path fill-rule="evenodd" clip-rule="evenodd" d="M3.50002 2.0999C3.39394 2.0999 3.2922 2.14205 3.21718 2.21706C3.14217 2.29207 3.10002 2.39382 3.10002 2.4999V9.33399L5.65128 7.51166C5.8599 7.36265 6.14015 7.36265 6.34877 7.51166L8.90002 9.33399V2.4999C8.90002 2.39382 8.85788 2.29207 8.78287 2.21706C8.70785 2.14205 8.60611 2.0999 8.50002 2.0999H3.50002ZM2.36865 1.36853C2.66871 1.06847 3.07568 0.899902 3.50002 0.899902H8.50002C8.92437 0.899902 9.33134 1.06847 9.63139 1.36853C9.93145 1.66859 10.1 2.07556 10.1 2.4999V10.4999C10.1 10.7247 9.97442 10.9306 9.77457 11.0334C9.57473 11.1362 9.33417 11.1188 9.15128 10.9881L6.00002 8.73724L2.84877 10.9881C2.66588 11.1188 2.42532 11.1362 2.22548 11.0334C2.02563 10.9306 1.90002 10.7247 1.90002 10.4999V2.4999C1.90002 2.07556 2.0686 1.66859 2.36865 1.36853Z" fill="#09204F"/>
</svg>
