<svg width="12" height="12" viewBox="0 0 12 12" fill="none" xmlns="http://www.w3.org/2000/svg">
<g clip-path="url(#clip0)">
<path fill-rule="evenodd" clip-rule="evenodd" d="M0.623412 2.79103C0.771605 2.49464 1.13201 2.37451 1.4284 2.5227L6.00007 4.80854L10.5717 2.5227C10.8681 2.37451 11.2285 2.49464 11.3767 2.79103C11.5249 3.08742 11.4048 3.44782 11.1084 3.59602L6.2684 6.01602C6.09948 6.10047 5.90066 6.10047 5.73174 6.01602L0.89174 3.59602C0.595353 3.44782 0.475218 3.08742 0.623412 2.79103Z" fill="#09204F"/>
<path fill-rule="evenodd" clip-rule="evenodd" d="M6.00002 4.87939C6.3314 4.87939 6.60002 5.14802 6.60002 5.47939V11.3594C6.60002 11.6908 6.3314 11.9594 6.00002 11.9594C5.66865 11.9594 5.40002 11.6908 5.40002 11.3594V5.47939C5.40002 5.14802 5.66865 4.87939 6.00002 4.87939Z" fill="#09204F"/>
<path fill-rule="evenodd" clip-rule="evenodd" d="M5.7317 -0.0367539C5.90061 -0.121212 6.09944 -0.121212 6.26835 -0.0367539L11.2684 2.46325C11.4716 2.56488 11.6 2.77264 11.6 2.9999V8.9999C11.6 9.22717 11.4716 9.43492 11.2684 9.53656L6.26835 12.0366C6.09944 12.121 5.90061 12.121 5.7317 12.0366L0.731696 9.53656C0.528426 9.43492 0.400024 9.22717 0.400024 8.9999V2.9999C0.400024 2.77264 0.528426 2.56488 0.731696 2.46325L5.7317 -0.0367539ZM1.60002 3.37072V8.62908L6.00002 10.8291L10.4 8.62908V3.37072L6.00002 1.17072L1.60002 3.37072Z" fill="#09204F"/>
</g>
<defs>
<clipPath id="clip0">
<rect width="12" height="12" fill="white" transform="translate(12) rotate(90)"/>
</clipPath>
</defs>
</svg>
