<svg width="12" height="12" viewBox="0 0 12 12" fill="none" xmlns="http://www.w3.org/2000/svg">
<path fill-rule="evenodd" clip-rule="evenodd" d="M2.50002 2.5999C2.27911 2.5999 2.10002 2.77899 2.10002 2.9999V9.9999C2.10002 10.2208 2.27911 10.3999 2.50002 10.3999H9.50002C9.72094 10.3999 9.90002 10.2208 9.90002 9.9999V2.9999C9.90002 2.77899 9.72094 2.5999 9.50002 2.5999H2.50002ZM0.900024 2.9999C0.900024 2.11625 1.61637 1.3999 2.50002 1.3999H9.50002C10.3837 1.3999 11.1 2.11625 11.1 2.9999V9.9999C11.1 10.8836 10.3837 11.5999 9.50002 11.5999H2.50002C1.61637 11.5999 0.900024 10.8836 0.900024 9.9999V2.9999Z" fill="#09204F"/>
<path fill-rule="evenodd" clip-rule="evenodd" d="M8.00002 0.399902C8.3314 0.399902 8.60002 0.668532 8.60002 0.999902V2.9999C8.60002 3.33127 8.3314 3.5999 8.00002 3.5999C7.66865 3.5999 7.40002 3.33127 7.40002 2.9999V0.999902C7.40002 0.668532 7.66865 0.399902 8.00002 0.399902Z" fill="#09204F"/>
<path fill-rule="evenodd" clip-rule="evenodd" d="M4.00002 0.399902C4.3314 0.399902 4.60002 0.668532 4.60002 0.999902V2.9999C4.60002 3.33127 4.3314 3.5999 4.00002 3.5999C3.66865 3.5999 3.40002 3.33127 3.40002 2.9999V0.999902C3.40002 0.668532 3.66865 0.399902 4.00002 0.399902Z" fill="#09204F"/>
<path fill-rule="evenodd" clip-rule="evenodd" d="M0.900024 4.9999C0.900024 4.66853 1.16865 4.3999 1.50002 4.3999H10.5C10.8314 4.3999 11.1 4.66853 11.1 4.9999C11.1 5.33127 10.8314 5.5999 10.5 5.5999H1.50002C1.16865 5.5999 0.900024 5.33127 0.900024 4.9999Z" fill="#09204F"/>
<path fill-rule="evenodd" clip-rule="evenodd" d="M2.90002 6.9999C2.90002 6.66853 3.16865 6.3999 3.50002 6.3999H8.50002C8.8314 6.3999 9.10002 6.66853 9.10002 6.9999C9.10002 7.33127 8.8314 7.5999 8.50002 7.5999H3.50002C3.16865 7.5999 2.90002 7.33127 2.90002 6.9999Z" fill="#09204F"/>
<path fill-rule="evenodd" clip-rule="evenodd" d="M2.90002 8.9999C2.90002 8.66853 3.16865 8.3999 3.50002 8.3999H5.50002C5.8314 8.3999 6.10002 8.66853 6.10002 8.9999C6.10002 9.33127 5.8314 9.5999 5.50002 9.5999H3.50002C3.16865 9.5999 2.90002 9.33127 2.90002 8.9999Z" fill="#09204F"/>
</svg>
