<svg width="12" height="12" viewBox="0 0 12 12" fill="none" xmlns="http://www.w3.org/2000/svg">
<g clip-path="url(#clip0)">
<path d="M9.5 2H2.5C1.94772 2 1.5 2.44772 1.5 3V10C1.5 10.5523 1.94772 11 2.5 11H9.5C10.0523 11 10.5 10.5523 10.5 10V3C10.5 2.44772 10.0523 2 9.5 2Z" fill="#09204F"/>
<path fill-rule="evenodd" clip-rule="evenodd" d="M8.00002 0C8.3314 0 8.60002 0.268629 8.60002 0.6V2.6C8.60002 2.93137 8.3314 3.2 8.00002 3.2C7.66865 3.2 7.40002 2.93137 7.40002 2.6V0.6C7.40002 0.268629 7.66865 0 8.00002 0Z" fill="#09204F"/>
<path fill-rule="evenodd" clip-rule="evenodd" d="M4.00002 0C4.3314 0 4.60002 0.268629 4.60002 0.6V2.6C4.60002 2.93137 4.3314 3.2 4.00002 3.2C3.66865 3.2 3.40002 2.93137 3.40002 2.6V0.6C3.40002 0.268629 3.66865 0 4.00002 0Z" fill="#09204F"/>
<path fill-rule="evenodd" clip-rule="evenodd" d="M-0.0999756 4.9999C-0.0999756 4.66853 0.168654 4.3999 0.500024 4.3999H11.5C11.8314 4.3999 12.1 4.66853 12.1 4.9999C12.1 5.33127 11.8314 5.5999 11.5 5.5999H0.500024C0.168654 5.5999 -0.0999756 5.33127 -0.0999756 4.9999Z" fill="white"/>
<path fill-rule="evenodd" clip-rule="evenodd" d="M2.90002 6.9999C2.90002 6.66853 3.16865 6.3999 3.50002 6.3999H8.50002C8.8314 6.3999 9.10002 6.66853 9.10002 6.9999C9.10002 7.33127 8.8314 7.5999 8.50002 7.5999H3.50002C3.16865 7.5999 2.90002 7.33127 2.90002 6.9999Z" fill="white"/>
<path fill-rule="evenodd" clip-rule="evenodd" d="M2.90002 8.9999C2.90002 8.66853 3.16865 8.3999 3.50002 8.3999H5.50002C5.8314 8.3999 6.10002 8.66853 6.10002 8.9999C6.10002 9.33127 5.8314 9.5999 5.50002 9.5999H3.50002C3.16865 9.5999 2.90002 9.33127 2.90002 8.9999Z" fill="white"/>
</g>
<defs>
<clipPath id="clip0">
<rect width="12" height="12" fill="white"/>
</clipPath>
</defs>
</svg>
