<svg width="12" height="12" viewBox="0 0 12 12" fill="none" xmlns="http://www.w3.org/2000/svg">
<path d="M10.5 7.5C10.5 7.76522 10.3946 8.01957 10.2071 8.20711C10.0196 8.39464 9.76522 8.5 9.5 8.5H3.5L1.5 10.5V2.5C1.5 2.23478 1.60536 1.98043 1.79289 1.79289C1.98043 1.60536 2.23478 1.5 2.5 1.5H9.5C9.76522 1.5 10.0196 1.60536 10.2071 1.79289C10.3946 1.98043 10.5 2.23478 10.5 2.5V7.5Z" fill="#09204F"/>
<path fill-rule="evenodd" clip-rule="evenodd" d="M3.40002 4.00002C3.40002 3.66865 3.66865 3.40002 4.00002 3.40002H8.00002C8.3314 3.40002 8.60002 3.66865 8.60002 4.00002C8.60002 4.3314 8.3314 4.60002 8.00002 4.60002H4.00002C3.66865 4.60002 3.40002 4.3314 3.40002 4.00002Z" fill="white"/>
<path fill-rule="evenodd" clip-rule="evenodd" d="M3.40002 6.00002C3.40002 5.66865 3.66865 5.40002 4.00002 5.40002H6.00002C6.3314 5.40002 6.60002 5.66865 6.60002 6.00002C6.60002 6.3314 6.3314 6.60002 6.00002 6.60002H4.00002C3.66865 6.60002 3.40002 6.3314 3.40002 6.00002Z" fill="white"/>
</svg>
