<svg width="12" height="12" viewBox="0 0 12 12" fill="none" xmlns="http://www.w3.org/2000/svg">
<path fill-rule="evenodd" clip-rule="evenodd" d="M2.50002 2.10002C2.39394 2.10002 2.2922 2.14217 2.21718 2.21718C2.14217 2.2922 2.10002 2.39394 2.10002 2.50002V9.0515L3.07576 8.07576C3.18828 7.96324 3.34089 7.90002 3.50002 7.90002H9.50002C9.60611 7.90002 9.70785 7.85788 9.78287 7.78287C9.85788 7.70785 9.90002 7.60611 9.90002 7.50002V2.50002C9.90002 2.39394 9.85788 2.2922 9.78287 2.21718C9.70785 2.14217 9.60611 2.10002 9.50002 2.10002H2.50002ZM1.36865 1.36865C1.66871 1.0686 2.07568 0.900024 2.50002 0.900024H9.50002C9.92437 0.900024 10.3313 1.0686 10.6314 1.36865C10.9315 1.66871 11.1 2.07568 11.1 2.50002V7.50002C11.1 7.92437 10.9315 8.33134 10.6314 8.63139C10.3313 8.93145 9.92437 9.10002 9.50002 9.10002H3.74855L1.92429 10.9243C1.75269 11.0959 1.49462 11.1472 1.27041 11.0544C1.04621 10.9615 0.900024 10.7427 0.900024 10.5V2.50002C0.900024 2.07568 1.0686 1.66871 1.36865 1.36865Z" fill="#09204F"/>
<path fill-rule="evenodd" clip-rule="evenodd" d="M3.40002 4.00002C3.40002 3.66865 3.66865 3.40002 4.00002 3.40002H8.00002C8.3314 3.40002 8.60002 3.66865 8.60002 4.00002C8.60002 4.3314 8.3314 4.60002 8.00002 4.60002H4.00002C3.66865 4.60002 3.40002 4.3314 3.40002 4.00002Z" fill="#09204F"/>
<path fill-rule="evenodd" clip-rule="evenodd" d="M3.40002 6.00002C3.40002 5.66865 3.66865 5.40002 4.00002 5.40002H6.00002C6.3314 5.40002 6.60002 5.66865 6.60002 6.00002C6.60002 6.3314 6.3314 6.60002 6.00002 6.60002H4.00002C3.66865 6.60002 3.40002 6.3314 3.40002 6.00002Z" fill="#09204F"/>
</svg>
