<svg width="12" height="12" viewBox="0 0 12 12" fill="none" xmlns="http://www.w3.org/2000/svg">
<g clip-path="url(#clip0)">
<path d="M0 6C0 9.31371 2.68629 12 6 12C9.31371 12 12 9.31371 12 6C12 2.68629 9.31371 0 6 0C2.68629 0 0 2.68629 0 6Z" fill="#09204F"/>
<path fill-rule="evenodd" clip-rule="evenodd" d="M8.49502 4.00507C8.76839 4.27844 8.76839 4.72166 8.49502 4.99502L5.74502 7.74502C5.47166 8.01839 5.02844 8.01839 4.75507 7.74502L3.50507 6.49502C3.23171 6.22166 3.23171 5.77844 3.50507 5.50507C3.77844 5.23171 4.22166 5.23171 4.49502 5.50507L5.25005 6.2601L7.50507 4.00507C7.77844 3.73171 8.22166 3.73171 8.49502 4.00507Z" fill="white"/>
</g>
<defs>
<clipPath id="clip0">
<rect width="12" height="12" fill="white" transform="translate(12) rotate(90)"/>
</clipPath>
</defs>
</svg>
