<svg width="12" height="12" viewBox="0 0 12 12" fill="none" xmlns="http://www.w3.org/2000/svg">
<path d="M9.99789 7.70216L7.35408 5.05836L8.7901 3.62127C8.97957 3.4318 8.92195 3.2228 8.66216 3.15736L2.36917 2.01427C2.10938 1.94981 1.94921 2.10998 2.01464 2.36977L3.15774 8.66178C3.2222 8.92255 3.4312 8.98017 3.62165 8.78972L5.05811 7.35327L7.70191 10L9.99789 7.70216Z" fill="#09204F"/>
<path fill-rule="evenodd" clip-rule="evenodd" d="M2.47141 1.52467L8.75154 2.66544C8.76254 2.66743 8.77347 2.6698 8.78431 2.67253C9.01587 2.73086 9.28848 2.89023 9.37664 3.20991C9.46474 3.52942 9.31256 3.80591 9.14381 3.97472C9.14377 3.97476 9.14372 3.97481 9.14368 3.97485L8.06108 5.05825L10.3515 7.34863C10.5467 7.54384 10.5467 7.86031 10.3516 8.0556L8.05563 10.3534C7.96184 10.4473 7.83458 10.5 7.70189 10.5C7.5692 10.5 7.44196 10.4473 7.34818 10.3534L5.05793 8.06059L3.97523 9.1433C3.80685 9.31168 3.53005 9.46537 3.20955 9.37699C2.88825 9.28839 2.72968 9.01361 2.67237 8.78179C2.66987 8.77166 2.66768 8.76145 2.66582 8.75118L1.52518 2.47273C1.47051 2.23553 1.49525 1.93848 1.71608 1.71723C1.93701 1.49588 2.23425 1.47063 2.47141 1.52467ZM2.55678 2.55655L3.5701 8.13422L4.70458 6.99974C4.79838 6.90594 4.92561 6.85326 5.05827 6.85329C5.19092 6.85333 5.31813 6.90608 5.41188 6.99993L7.70198 9.29258L9.29094 7.70233L7.00055 5.41194C6.80534 5.21673 6.80528 4.90025 7.00042 4.70496L8.13477 3.56977L2.55678 2.55655Z" fill="#09204F"/>
</svg>
