<svg width="12" height="12" viewBox="0 0 12 12" fill="none" xmlns="http://www.w3.org/2000/svg">
<path fill-rule="evenodd" clip-rule="evenodd" d="M2.49114 1.42659L8.76922 2.56698C8.78242 2.56938 8.79554 2.57221 8.80854 2.57549C9.06044 2.63894 9.3717 2.81647 9.47285 3.18326C9.57397 3.54994 9.39781 3.86188 9.2142 4.04549L8.20228 5.05816L10.422 7.27786C10.6562 7.5121 10.6563 7.89187 10.4222 8.12621L8.12618 10.424C8.01363 10.5367 7.86092 10.6 7.70169 10.6C7.54247 10.5999 7.38977 10.5366 7.27724 10.424L5.0577 8.20199L4.04575 9.21394C3.86274 9.39695 3.55055 9.57474 3.18278 9.47332C2.81404 9.37164 2.63742 9.05783 2.5751 8.80572C2.5721 8.79356 2.56947 8.78131 2.56723 8.76899L1.427 2.49271C1.36794 2.23345 1.39348 1.89862 1.64511 1.64652C1.89688 1.39427 2.23197 1.36819 2.49114 1.42659ZM2.68079 2.68067L3.63418 7.92846L4.63367 6.92896C4.74624 6.8164 4.89892 6.75318 5.0581 6.75322C5.21729 6.75327 5.36994 6.81657 5.48244 6.92919L7.7018 9.15102L9.14936 7.70229L6.92965 5.48258C6.6954 5.24833 6.69533 4.86855 6.92949 4.63421L7.92897 3.63399L2.68079 2.68067Z" fill="#09204F"/>
</svg>
