<svg width="12" height="12" viewBox="0 0 12 12" fill="none" xmlns="http://www.w3.org/2000/svg">
<g clip-path="url(#clip0)">
<path fill-rule="evenodd" clip-rule="evenodd" d="M6 10.8C8.65097 10.8 10.8 8.65097 10.8 6C10.8 3.34903 8.65097 1.2 6 1.2C3.34903 1.2 1.2 3.34903 1.2 6C1.2 8.65097 3.34903 10.8 6 10.8ZM12 6C12 9.31371 9.31371 12 6 12C2.68629 12 0 9.31371 0 6C0 2.68629 2.68629 0 6 0C9.31371 0 12 2.68629 12 6Z" fill="#09204F"/>
<path fill-rule="evenodd" clip-rule="evenodd" d="M5.9999 2.40002C6.33127 2.40002 6.5999 2.66865 6.5999 3.00002V5.6292L8.26823 6.46337C8.56462 6.61156 8.68475 6.97197 8.53656 7.26835C8.38837 7.56474 8.02796 7.68487 7.73157 7.53668L5.73157 6.53668C5.5283 6.43505 5.3999 6.22729 5.3999 6.00002V3.00002C5.3999 2.66865 5.66853 2.40002 5.9999 2.40002Z" fill="#09204F"/>
</g>
<defs>
<clipPath id="clip0">
<rect width="12" height="12" fill="white" transform="translate(12) rotate(90)"/>
</clipPath>
</defs>
</svg>
