<svg width="12" height="12" viewBox="0 0 12 12" fill="none" xmlns="http://www.w3.org/2000/svg">
<g clip-path="url(#clip0)">
<path fill-rule="evenodd" clip-rule="evenodd" d="M1.2 6C1.2 8.65097 3.34903 10.8 6 10.8C8.65097 10.8 10.8 8.65097 10.8 6C10.8 3.34903 8.65097 1.2 6 1.2C3.34903 1.2 1.2 3.34903 1.2 6ZM6 12C2.68629 12 0 9.31371 0 6C0 2.68629 2.68629 0 6 0C9.31371 0 12 2.68629 12 6C12 9.31371 9.31371 12 6 12Z" fill="#09204F"/>
<path fill-rule="evenodd" clip-rule="evenodd" d="M4.07564 4.07564C4.30995 3.84132 4.68985 3.84132 4.92417 4.07564L7.92417 7.07564C8.15848 7.30995 8.15848 7.68985 7.92417 7.92417C7.68985 8.15848 7.30995 8.15848 7.07564 7.92417L4.07564 4.92417C3.84132 4.68985 3.84132 4.30995 4.07564 4.07564Z" fill="#09204F"/>
<path fill-rule="evenodd" clip-rule="evenodd" d="M7.92417 4.07564C8.15848 4.30995 8.15848 4.68985 7.92417 4.92417L4.92417 7.92417C4.68985 8.15848 4.30995 8.15848 4.07564 7.92417C3.84132 7.68985 3.84132 7.30995 4.07564 7.07564L7.07564 4.07564C7.30995 3.84132 7.68985 3.84132 7.92417 4.07564Z" fill="#09204F"/>
</g>
<defs>
<clipPath id="clip0">
<rect width="12" height="12" fill="white" transform="translate(12) rotate(90)"/>
</clipPath>
</defs>
</svg>
