<svg width="12" height="12" viewBox="0 0 12 12" fill="none" xmlns="http://www.w3.org/2000/svg">
<mask id="path-1-inside-1" fill="white">
<path fill-rule="evenodd" clip-rule="evenodd" d="M3.57576 3.57564C3.81007 3.34132 4.18997 3.34132 4.42429 3.57564L8.42429 7.57564C8.6586 7.80995 8.6586 8.18985 8.42429 8.42417C8.18997 8.65848 7.81007 8.65848 7.57576 8.42417L3.57576 4.42417C3.34145 4.18985 3.34145 3.80995 3.57576 3.57564Z"/>
</mask>
<path fill-rule="evenodd" clip-rule="evenodd" d="M3.57576 3.57564C3.81007 3.34132 4.18997 3.34132 4.42429 3.57564L8.42429 7.57564C8.6586 7.80995 8.6586 8.18985 8.42429 8.42417C8.18997 8.65848 7.81007 8.65848 7.57576 8.42417L3.57576 4.42417C3.34145 4.18985 3.34145 3.80995 3.57576 3.57564Z" fill="#09204F"/>
<path d="M4.42429 3.57564L3.57576 4.42417H3.57576L4.42429 3.57564ZM3.57576 3.57564L4.42429 4.42417L4.42429 4.42417L3.57576 3.57564ZM8.42429 7.57564L7.57576 8.42417H7.57576L8.42429 7.57564ZM8.42429 8.42417L7.57576 7.57564L7.57576 7.57564L8.42429 8.42417ZM7.57576 8.42417L8.42429 7.57564V7.57564L7.57576 8.42417ZM3.57576 4.42417L4.42429 3.57564V3.57564L3.57576 4.42417ZM5.27282 2.72711C4.56987 2.02417 3.43018 2.02417 2.72723 2.72711L4.42429 4.42417C4.18997 4.65848 3.81007 4.65848 3.57576 4.42417L5.27282 2.72711ZM9.27282 6.72711L5.27282 2.72711L3.57576 4.42417L7.57576 8.42417L9.27282 6.72711ZM9.27282 9.2727C9.97576 8.56975 9.97576 7.43005 9.27282 6.72711L7.57576 8.42417C7.34145 8.18985 7.34145 7.80995 7.57576 7.57564L9.27282 9.2727ZM6.72723 9.27269C7.43018 9.97564 8.56987 9.97564 9.27282 9.27269L7.57576 7.57564C7.81007 7.34132 8.18997 7.34132 8.42429 7.57564L6.72723 9.27269ZM2.72723 5.27269L6.72723 9.27269L8.42429 7.57564L4.42429 3.57564L2.72723 5.27269ZM2.72723 2.72711C2.02429 3.43005 2.02429 4.56975 2.72723 5.27269L4.42429 3.57564C4.6586 3.80995 4.6586 4.18985 4.42429 4.42417L2.72723 2.72711Z" fill="#09204F" mask="url(#path-1-inside-1)"/>
<mask id="path-3-inside-2" fill="white">
<path fill-rule="evenodd" clip-rule="evenodd" d="M8.42429 3.57564C8.6586 3.80995 8.6586 4.18985 8.42429 4.42417L4.42429 8.42417C4.18997 8.65848 3.81007 8.65848 3.57576 8.42417C3.34145 8.18985 3.34145 7.80995 3.57576 7.57564L7.57576 3.57564C7.81007 3.34132 8.18997 3.34132 8.42429 3.57564Z"/>
</mask>
<path fill-rule="evenodd" clip-rule="evenodd" d="M8.42429 3.57564C8.6586 3.80995 8.6586 4.18985 8.42429 4.42417L4.42429 8.42417C4.18997 8.65848 3.81007 8.65848 3.57576 8.42417C3.34145 8.18985 3.34145 7.80995 3.57576 7.57564L7.57576 3.57564C7.81007 3.34132 8.18997 3.34132 8.42429 3.57564Z" fill="#09204F"/>
<path d="M8.42429 4.42417L7.57576 3.57564L7.57576 3.57564L8.42429 4.42417ZM8.42429 3.57564L7.57576 4.42417L7.57576 4.42417L8.42429 3.57564ZM4.42429 8.42417L3.57576 7.57564L3.57576 7.57564L4.42429 8.42417ZM3.57576 8.42417L4.42429 7.57564L4.42429 7.57564L3.57576 8.42417ZM3.57576 7.57564L2.72723 6.72711H2.72723L3.57576 7.57564ZM7.57576 3.57564L6.72723 2.72711V2.72711L7.57576 3.57564ZM9.27282 5.2727C9.97576 4.56975 9.97576 3.43005 9.27282 2.72711L7.57576 4.42417C7.34145 4.18985 7.34145 3.80995 7.57576 3.57564L9.27282 5.2727ZM5.27282 9.27269L9.27282 5.27269L7.57576 3.57564L3.57576 7.57564L5.27282 9.27269ZM2.72723 9.27269C3.43018 9.97564 4.56987 9.97564 5.27282 9.27269L3.57576 7.57564C3.81007 7.34132 4.18997 7.34132 4.42429 7.57564L2.72723 9.27269ZM2.72723 6.72711C2.02429 7.43005 2.02429 8.56975 2.72723 9.27269L4.42429 7.57564C4.6586 7.80995 4.6586 8.18985 4.42429 8.42417L2.72723 6.72711ZM6.72723 2.72711L2.72723 6.72711L4.42429 8.42417L8.42429 4.42417L6.72723 2.72711ZM9.27282 2.72711C8.56987 2.02417 7.43018 2.02417 6.72723 2.72711L8.42429 4.42417C8.18997 4.65848 7.81007 4.65848 7.57576 4.42417L9.27282 2.72711Z" fill="#09204F" mask="url(#path-3-inside-2)"/>
</svg>
