<svg width="12" height="12" viewBox="0 0 12 12" fill="none" xmlns="http://www.w3.org/2000/svg">
<g clip-path="url(#clip0)">
<path fill-rule="evenodd" clip-rule="evenodd" d="M8.58638 6.47184C8.03918 6.47184 7.56129 6.10166 7.42449 5.57184C7.27659 4.99904 6.97099 4.47921 6.54242 4.07141C6.11384 3.66362 5.57948 3.38421 5.00004 3.26494C4.4206 3.14567 3.81933 3.19132 3.26454 3.3967C2.70975 3.60208 2.22369 3.95896 1.86159 4.42679C1.4995 4.89461 1.27588 5.45462 1.21616 6.04319C1.15644 6.63175 1.263 7.22526 1.52374 7.75629C1.78447 8.28732 2.18893 8.73456 2.69116 9.0472C3.19338 9.35984 3.77323 9.52535 4.36481 9.52491H9.27347C9.67833 9.52491 10.0666 9.36408 10.3529 9.07779C10.6392 8.79151 10.8 8.40323 10.8 7.99837C10.8 7.59351 10.6392 7.20523 10.3529 6.91895C10.0666 6.63267 9.67833 6.47184 9.27347 6.47184H8.58638ZM4.36571 10.7249C3.54964 10.7255 2.74977 10.4972 2.05698 10.0659C1.36419 9.63466 0.806252 9.01771 0.446576 8.28518C0.0869004 7.55266 -0.060096 6.73393 0.0222905 5.92204C0.104677 5.11014 0.413143 4.33764 0.912637 3.69229C1.41213 3.04695 2.08263 2.55466 2.84793 2.27134C3.61324 1.98803 4.44267 1.92505 5.24197 2.08958C6.04128 2.25411 6.77841 2.63954 7.36961 3.20207C7.96081 3.76461 8.38236 4.48169 8.58638 5.27184H9.27347C9.99659 5.27184 10.6901 5.5591 11.2014 6.07042C11.7127 6.58175 12 7.27525 12 7.99837C12 8.72149 11.7127 9.415 11.2014 9.92632C10.6901 10.4376 9.99659 10.7249 9.27347 10.7249H4.36571Z" fill="#09204F"/>
</g>
<defs>
<clipPath id="clip0">
<rect width="12" height="12" fill="white" transform="translate(12) rotate(90)"/>
</clipPath>
</defs>
</svg>
