<svg width="12" height="12" viewBox="0 0 12 12" fill="none" xmlns="http://www.w3.org/2000/svg">
<g clip-path="url(#clip0)">
<path fill-rule="evenodd" clip-rule="evenodd" d="M6 10.8C8.65097 10.8 10.8 8.65097 10.8 6C10.8 3.34903 8.65097 1.2 6 1.2C3.34903 1.2 1.2 3.34903 1.2 6C1.2 8.65097 3.34903 10.8 6 10.8ZM12 6C12 9.31371 9.31371 12 6 12C2.68629 12 0 9.31371 0 6C0 2.68629 2.68629 0 6 0C9.31371 0 12 2.68629 12 6Z" fill="#09204F"/>
<path fill-rule="evenodd" clip-rule="evenodd" d="M8.54431 3.45578C8.70501 3.61648 8.76112 3.85418 8.68926 4.06978L7.62926 7.24978C7.56953 7.42895 7.42895 7.56953 7.24978 7.62926L4.06978 8.68926C3.85418 8.76112 3.61648 8.70501 3.45578 8.54431C3.29508 8.38361 3.23897 8.14591 3.31084 7.93031L4.37084 4.75031C4.43056 4.57115 4.57115 4.43056 4.75031 4.37084L7.93031 3.31084C8.14591 3.23897 8.38361 3.29508 8.54431 3.45578ZM5.41439 5.41439L4.82873 7.17136L6.5857 6.5857L7.17136 4.82873L5.41439 5.41439Z" fill="#09204F"/>
</g>
<defs>
<clipPath id="clip0">
<rect width="12" height="12" fill="white" transform="translate(12) rotate(90)"/>
</clipPath>
</defs>
</svg>
