<svg width="12" height="12" viewBox="0 0 12 12" fill="none" xmlns="http://www.w3.org/2000/svg">
<g clip-path="url(#clip0)">
<path fill-rule="evenodd" clip-rule="evenodd" d="M3.02002 1.64002C3.13334 1.48894 3.31117 1.40002 3.50002 1.40002H10C10.4244 1.40002 10.8313 1.5686 11.1314 1.86865C11.4315 2.16871 11.6 2.57568 11.6 3.00002V9.00002C11.6 9.42437 11.4315 9.83134 11.1314 10.1314C10.8313 10.4315 10.4244 10.6 10 10.6H3.50002C3.31117 10.6 3.13334 10.5111 3.02002 10.36L0.0200244 6.36002C-0.139976 6.14669 -0.139976 5.85336 0.0200244 5.64002L3.02002 1.64002ZM3.80002 2.60002L1.25002 6.00002L3.80002 9.40002H10C10.1061 9.40002 10.2079 9.35788 10.2829 9.28287C10.3579 9.20785 10.4 9.10611 10.4 9.00002V3.00002C10.4 2.89394 10.3579 2.7922 10.2829 2.71718C10.2079 2.64217 10.1061 2.60002 10 2.60002H3.80002Z" fill="#09204F"/>
<path fill-rule="evenodd" clip-rule="evenodd" d="M8.92429 4.07576C9.1586 4.31007 9.1586 4.68997 8.92429 4.92429L5.92429 7.92429C5.68997 8.1586 5.31007 8.1586 5.07576 7.92429C4.84145 7.68997 4.84145 7.31008 5.07576 7.07576L8.07576 4.07576C8.31008 3.84145 8.68997 3.84145 8.92429 4.07576Z" fill="#09204F"/>
<path fill-rule="evenodd" clip-rule="evenodd" d="M5.07576 4.07576C5.31007 3.84145 5.68997 3.84145 5.92429 4.07576L8.92429 7.07576C9.1586 7.31008 9.1586 7.68997 8.92429 7.92429C8.68997 8.1586 8.31008 8.1586 8.07576 7.92429L5.07576 4.92429C4.84145 4.68997 4.84145 4.31007 5.07576 4.07576Z" fill="#09204F"/>
</g>
<defs>
<clipPath id="clip0">
<rect width="12" height="12" fill="white"/>
</clipPath>
</defs>
</svg>
