<svg width="12" height="12" viewBox="0 0 12 12" fill="none" xmlns="http://www.w3.org/2000/svg">
<path fill-rule="evenodd" clip-rule="evenodd" d="M1.9999 2.10002C1.77899 2.10002 1.5999 2.27911 1.5999 2.50002V7.50002C1.5999 7.72094 1.77899 7.90002 1.9999 7.90002H9.9999C10.2208 7.90002 10.3999 7.72094 10.3999 7.50002V2.50002C10.3999 2.27911 10.2208 2.10002 9.9999 2.10002H1.9999ZM0.399902 2.50002C0.399902 1.61637 1.11625 0.900024 1.9999 0.900024H9.9999C10.8836 0.900024 11.5999 1.61637 11.5999 2.50002V7.50002C11.5999 8.38368 10.8836 9.10002 9.9999 9.10002H1.9999C1.11625 9.10002 0.399902 8.38368 0.399902 7.50002V2.50002Z" fill="#09204F"/>
<path fill-rule="evenodd" clip-rule="evenodd" d="M3.3999 10.5C3.3999 10.1687 3.66853 9.90002 3.9999 9.90002H7.9999C8.33127 9.90002 8.5999 10.1687 8.5999 10.5C8.5999 10.8314 8.33127 11.1 7.9999 11.1H3.9999C3.66853 11.1 3.3999 10.8314 3.3999 10.5Z" fill="#09204F"/>
</svg>
