<svg width="12" height="12" viewBox="0 0 12 12" fill="none" xmlns="http://www.w3.org/2000/svg">
<path fill-rule="evenodd" clip-rule="evenodd" d="M1.50002 6.90002C1.8314 6.90002 2.10002 7.16865 2.10002 7.50002V9.50002C2.10002 9.60611 2.14217 9.70785 2.21718 9.78287C2.2922 9.85788 2.39394 9.90002 2.50002 9.90002H9.50002C9.60611 9.90002 9.70785 9.85788 9.78287 9.78287C9.85788 9.70785 9.90002 9.60611 9.90002 9.50002V7.50002C9.90002 7.16865 10.1687 6.90002 10.5 6.90002C10.8314 6.90002 11.1 7.16865 11.1 7.50002V9.50002C11.1 9.92437 10.9315 10.3313 10.6314 10.6314C10.3313 10.9315 9.92437 11.1 9.50002 11.1H2.50002C2.07568 11.1 1.66871 10.9315 1.36865 10.6314C1.0686 10.3313 0.900024 9.92437 0.900024 9.50002V7.50002C0.900024 7.16865 1.16865 6.90002 1.50002 6.90002Z" fill="#09204F"/>
<path fill-rule="evenodd" clip-rule="evenodd" d="M3.07576 4.57576C3.31007 4.34145 3.68997 4.34145 3.92429 4.57576L6.00002 6.6515L8.07576 4.57576C8.31007 4.34145 8.68997 4.34145 8.92429 4.57576C9.1586 4.81007 9.1586 5.18997 8.92429 5.42429L6.42429 7.92429C6.18997 8.1586 5.81008 8.1586 5.57576 7.92429L3.07576 5.42429C2.84145 5.18997 2.84145 4.81007 3.07576 4.57576Z" fill="#09204F"/>
<path fill-rule="evenodd" clip-rule="evenodd" d="M6.00002 0.900024C6.3314 0.900024 6.60002 1.16865 6.60002 1.50002V7.50002C6.60002 7.8314 6.3314 8.10002 6.00002 8.10002C5.66865 8.10002 5.40002 7.8314 5.40002 7.50002V1.50002C5.40002 1.16865 5.66865 0.900024 6.00002 0.900024Z" fill="#09204F"/>
</svg>
