<svg width="12" height="12" viewBox="0 0 12 12" fill="none" xmlns="http://www.w3.org/2000/svg">
<path fill-rule="evenodd" clip-rule="evenodd" d="M2.00002 2.60002C1.89394 2.60002 1.7922 2.64217 1.71718 2.71718C1.64217 2.7922 1.60002 2.89394 1.60002 3.00002V10C1.60002 10.1061 1.64217 10.2079 1.71718 10.2829C1.7922 10.3579 1.89394 10.4 2.00002 10.4H9.00002C9.10611 10.4 9.20785 10.3579 9.28287 10.2829C9.35788 10.2079 9.40002 10.1061 9.40002 10V7.33002C9.40002 6.99865 9.66865 6.73002 10 6.73002C10.3314 6.73002 10.6 6.99865 10.6 7.33002V10C10.6 10.4244 10.4315 10.8313 10.1314 11.1314C9.83134 11.4315 9.42437 11.6 9.00002 11.6H2.00002C1.57568 11.6 1.16871 11.4315 0.868654 11.1314C0.568595 10.8313 0.400024 10.4244 0.400024 10V3.00002C0.400024 2.57568 0.568595 2.16871 0.868654 1.86865C1.16871 1.5686 1.57568 1.40002 2.00002 1.40002H4.67002C5.0014 1.40002 5.27002 1.66865 5.27002 2.00002C5.27002 2.3314 5.0014 2.60002 4.67002 2.60002H2.00002Z" fill="#09204F"/>
<path fill-rule="evenodd" clip-rule="evenodd" d="M8.57576 0.57576C8.81007 0.341446 9.18997 0.341446 9.42429 0.57576L11.4243 2.57576C11.6586 2.81007 11.6586 3.18997 11.4243 3.42429L6.42429 8.42429C6.31177 8.53681 6.15915 8.60002 6.00002 8.60002H4.00002C3.66865 8.60002 3.40002 8.3314 3.40002 8.00002V6.00002C3.40002 5.84089 3.46324 5.68828 3.57576 5.57576L8.57576 0.57576ZM4.60002 6.24855V7.40002H5.7515L10.1515 3.00002L9.00002 1.84855L4.60002 6.24855Z" fill="#09204F"/>
</svg>
