<svg width="12" height="12" viewBox="0 0 12 12" fill="none" xmlns="http://www.w3.org/2000/svg">
<path fill-rule="evenodd" clip-rule="evenodd" d="M9.71118 10C9.71118 10.3314 9.44255 10.6 9.11118 10.6H2.88896C2.55759 10.6 2.28896 10.3314 2.28896 10C2.28896 9.66865 2.55759 9.40002 2.88896 9.40002H9.11118C9.44255 9.40002 9.71118 9.66865 9.71118 10Z" fill="#09204F"/>
<path fill-rule="evenodd" clip-rule="evenodd" d="M3.35347 4.64653C3.11916 4.41222 3.11916 4.03232 3.35347 3.798L5.57569 1.57578C5.81001 1.34146 6.18991 1.34146 6.42422 1.57578L8.64644 3.798C8.88076 4.03232 8.88076 4.41222 8.64644 4.64653C8.41213 4.88084 8.03223 4.88084 7.79791 4.64653L5.99996 2.84857L4.202 4.64653C3.96768 4.88084 3.58778 4.88084 3.35347 4.64653Z" fill="#09204F"/>
<path fill-rule="evenodd" clip-rule="evenodd" d="M5.9999 7.93335C5.66853 7.93335 5.3999 7.66472 5.3999 7.33335L5.3999 2.00002C5.3999 1.66865 5.66853 1.40002 5.9999 1.40002C6.33127 1.40002 6.5999 1.66865 6.5999 2.00002L6.5999 7.33335C6.5999 7.66472 6.33127 7.93335 5.9999 7.93335Z" fill="#09204F"/>
</svg>
