<svg width="12" height="12" viewBox="0 0 12 12" fill="none" xmlns="http://www.w3.org/2000/svg">
<g clip-path="url(#clip0)">
<path fill-rule="evenodd" clip-rule="evenodd" d="M5.99861 2.60004C5.69166 2.59931 5.38565 2.63429 5.08677 2.70425C4.76412 2.77977 4.44134 2.57943 4.36582 2.25678C4.29029 1.93414 4.49063 1.61135 4.81328 1.53583C5.2025 1.44472 5.60099 1.39915 6.00073 1.40004C7.99009 1.40031 9.51245 2.53603 10.5002 3.58967C10.9997 4.12239 11.3807 4.65282 11.6369 5.04952C11.7653 5.24845 11.8634 5.41527 11.9302 5.534C11.9636 5.59341 11.9893 5.6409 12.007 5.67448C12.0159 5.69128 12.0228 5.70461 12.0278 5.71423L12.0337 5.72584L12.0356 5.7295L12.0362 5.73079L12.0365 5.7313C12.0366 5.73151 12.0367 5.73171 11.5 6.00004L12.0367 5.73171C12.1237 5.90578 12.1209 6.11125 12.0292 6.28288C11.706 6.88752 11.3205 7.45676 10.8791 7.98134C10.6658 8.23489 10.2873 8.26748 10.0337 8.05413C9.78017 7.84078 9.74758 7.46228 9.96093 7.20873C10.2792 6.83047 10.5644 6.42577 10.8133 5.99914C10.7637 5.91498 10.7021 5.81408 10.6288 5.70055C10.4006 5.34725 10.0629 4.87768 9.6248 4.4104C8.73771 3.46417 7.51032 2.60004 6.00002 2.60004L5.99861 2.60004ZM6.00073 1.40004C6.00096 1.40004 6.0012 1.40004 6.00143 1.40004L6.00002 2.00004V1.40004C6.00026 1.40004 6.00049 1.40004 6.00073 1.40004ZM2.66588 2.55317C2.90477 2.37076 3.24176 2.39324 3.45429 2.60577L5.36193 4.51342C5.36333 4.5148 5.36472 4.51619 5.36611 4.51759L7.48246 6.63394C7.48387 6.63534 7.48527 6.63674 7.48666 6.63814L9.39429 8.54577C9.5167 8.66819 9.58028 8.83751 9.56868 9.01024C9.55708 9.18297 9.47144 9.34227 9.33376 9.44722C8.3772 10.1764 7.21244 10.5803 6.00983 10.6L6.00002 10.6001V10.6C4.01032 10.6 2.48771 9.46417 1.4998 8.4104C1.00038 7.87768 0.619389 7.34725 0.363188 6.95055C0.234716 6.75163 0.13664 6.5848 0.0698526 6.46607C0.0364362 6.40666 0.0107849 6.35917 -0.00698657 6.32559C-0.0158743 6.30879 -0.0227975 6.29546 -0.0277416 6.28585L-0.0336741 6.27423L-0.0355254 6.27057L-0.0361717 6.26928L-0.0364251 6.26878C-0.0365323 6.26856 -0.0366318 6.26836 0.500024 6.00004L-0.0366318 6.26836C-0.123819 6.09399 -0.120849 5.88813 -0.0286689 5.71634C0.633728 4.4819 1.55246 3.4034 2.66588 2.55317ZM1.18705 6.0015C1.23659 6.08555 1.29808 6.18624 1.37124 6.29952C1.59941 6.65282 1.93717 7.12239 2.37525 7.58967C3.26138 8.53488 4.48708 9.39817 5.99513 9.40003C6.70652 9.38761 7.40094 9.20435 8.02146 8.87L7.00941 7.85795C6.94721 7.89372 6.88309 7.92634 6.8173 7.95566C6.5597 8.07043 6.28162 8.13215 5.99965 8.13713C5.71769 8.1421 5.4376 8.09023 5.17612 7.98461C4.91463 7.87899 4.6771 7.72179 4.47768 7.52238C4.27827 7.32296 4.12107 7.08543 4.01545 6.82394C3.90983 6.56246 3.85796 6.28237 3.86293 6.00041C3.86791 5.71844 3.92963 5.44036 4.0444 5.18276C4.07372 5.11697 4.10634 5.05286 4.14211 4.99065L2.98827 3.83681C2.27368 4.45452 1.66503 5.18575 1.18705 6.0015ZM5.07044 5.91898C5.06593 5.95293 5.06335 5.98719 5.06275 6.02158C5.06062 6.14242 5.08285 6.26245 5.12811 6.37452C5.17338 6.48659 5.24075 6.58839 5.32621 6.67385C5.41167 6.75931 5.51347 6.82668 5.62554 6.87195C5.73761 6.91722 5.85764 6.93945 5.97848 6.93731C6.01287 6.93671 6.04713 6.93413 6.08108 6.92962L5.07044 5.91898Z" fill="#09204F"/>
<path fill-rule="evenodd" clip-rule="evenodd" d="M0.0757604 0.0757604C0.310075 -0.158554 0.689974 -0.158554 0.924289 0.0757604L11.9243 11.0758C12.1586 11.3101 12.1586 11.69 11.9243 11.9243C11.69 12.1586 11.3101 12.1586 11.0758 11.9243L0.0757604 0.924289C-0.158554 0.689974 -0.158554 0.310075 0.0757604 0.0757604Z" fill="#09204F"/>
</g>
<defs>
<clipPath id="clip0">
<rect width="12" height="12" fill="white"/>
</clipPath>
</defs>
</svg>
