<svg width="12" height="12" viewBox="0 0 12 12" fill="none" xmlns="http://www.w3.org/2000/svg">
<g clip-path="url(#clip0)">
<path fill-rule="evenodd" clip-rule="evenodd" d="M1.18619 6.00002C1.23588 6.08437 1.29765 6.18557 1.37124 6.29951C1.59941 6.65281 1.93717 7.12238 2.37525 7.58966C3.26234 8.53589 4.48973 9.40002 6.00002 9.40002C7.51032 9.40002 8.73771 8.53589 9.6248 7.58966C10.0629 7.12238 10.4006 6.65281 10.6288 6.29951C10.7024 6.18558 10.7642 6.08436 10.8139 6.00002C10.7642 5.91568 10.7024 5.81447 10.6288 5.70054C10.4006 5.34724 10.0629 4.87767 9.6248 4.41039C8.73771 3.46416 7.51032 2.60002 6.00002 2.60002C4.48973 2.60002 3.26234 3.46416 2.37525 4.41039C1.93717 4.87767 1.59941 5.34724 1.37124 5.70054C1.29765 5.81448 1.23588 5.91568 1.18619 6.00002ZM11.5 6.00002C12.0367 5.7317 12.0366 5.7315 12.0365 5.73128L12.0356 5.72949L12.0337 5.72583L12.0278 5.71421C12.0228 5.7046 12.0159 5.69127 12.007 5.67447C11.9893 5.64089 11.9636 5.5934 11.9302 5.53399C11.8634 5.41526 11.7653 5.24843 11.6369 5.04951C11.3807 4.65281 10.9997 4.12238 10.5002 3.58966C9.51234 2.53589 7.98973 1.40002 6.00002 1.40002C4.01032 1.40002 2.48771 2.53589 1.4998 3.58966C1.00038 4.12238 0.619389 4.65281 0.363188 5.04951C0.234716 5.24843 0.13664 5.41526 0.0698525 5.53399C0.0364361 5.5934 0.0107848 5.64089 -0.0069866 5.67447C-0.0158743 5.69127 -0.0227975 5.7046 -0.0277417 5.71421L-0.0336742 5.72583L-0.0355254 5.72949L-0.0361718 5.73078C-0.0362791 5.73099 -0.0366319 5.7317 0.500024 6.00002L-0.0366319 5.7317C-0.12109 5.90061 -0.12109 6.09944 -0.0366319 6.26835L0.500024 6.00002C-0.0366319 6.26835 -0.0367391 6.26814 -0.0366319 6.26835L-0.0361718 6.26927L-0.0355254 6.27056L-0.0336742 6.27422L-0.0277417 6.28583C-0.0227975 6.29545 -0.0158743 6.30878 -0.0069866 6.32558C0.0107848 6.35916 0.0364361 6.40665 0.0698525 6.46606C0.13664 6.58479 0.234716 6.75161 0.363188 6.95054C0.619389 7.34724 1.00038 7.87767 1.4998 8.41039C2.48771 9.46416 4.01032 10.6 6.00002 10.6C7.98973 10.6 9.51234 9.46416 10.5002 8.41039C10.9997 7.87767 11.3807 7.34724 11.6369 6.95054C11.7653 6.75161 11.8634 6.58479 11.9302 6.46606C11.9636 6.40665 11.9893 6.35916 12.007 6.32558C12.0159 6.30878 12.0228 6.29545 12.0278 6.28583L12.0337 6.27422L12.0356 6.27056L12.0362 6.26927C12.0363 6.26906 12.0367 6.26835 11.5 6.00002ZM11.5 6.00002L12.0367 6.26835C12.1211 6.09944 12.1209 5.9002 12.0365 5.73128L11.5 6.00002Z" fill="#09204F"/>
<path fill-rule="evenodd" clip-rule="evenodd" d="M6.00002 5.10002C5.50297 5.10002 5.10002 5.50297 5.10002 6.00002C5.10002 6.49708 5.50297 6.90002 6.00002 6.90002C6.49708 6.90002 6.90002 6.49708 6.90002 6.00002C6.90002 5.50297 6.49708 5.10002 6.00002 5.10002ZM3.90002 6.00002C3.90002 4.84023 4.84023 3.90002 6.00002 3.90002C7.15982 3.90002 8.10002 4.84023 8.10002 6.00002C8.10002 7.15982 7.15982 8.10002 6.00002 8.10002C4.84023 8.10002 3.90002 7.15982 3.90002 6.00002Z" fill="#09204F"/>
</g>
<defs>
<clipPath id="clip0">
<rect width="12" height="12" fill="white"/>
</clipPath>
</defs>
</svg>
