<svg width="12" height="12" viewBox="0 0 12 12" fill="none" xmlns="http://www.w3.org/2000/svg">
<path fill-rule="evenodd" clip-rule="evenodd" d="M6.23641 1.96104C6.44227 1.86036 6.6875 1.88573 6.86839 2.02642L11.3684 5.52642C11.5145 5.64009 11.6 5.81487 11.6 6.00003C11.6 6.18518 11.5145 6.35997 11.3684 6.47364L6.86839 9.97364C6.6875 10.1143 6.44227 10.1397 6.23641 10.039C6.03056 9.93834 5.90002 9.72919 5.90002 9.50003V2.50003C5.90002 2.27087 6.03056 2.06172 6.23641 1.96104ZM7.10002 3.72681V8.27325L10.0227 6.00003L7.10002 3.72681Z" fill="#09204F"/>
<path fill-rule="evenodd" clip-rule="evenodd" d="M0.736414 1.96104C0.942272 1.86036 1.1875 1.88573 1.36839 2.02642L5.86839 5.52642C6.01454 5.64009 6.10002 5.81487 6.10002 6.00003C6.10002 6.18518 6.01454 6.35997 5.86839 6.47364L1.36839 9.97364C1.1875 10.1143 0.942272 10.1397 0.736414 10.039C0.530555 9.93834 0.400024 9.72919 0.400024 9.50003V2.50003C0.400024 2.27087 0.530555 2.06172 0.736414 1.96104ZM1.60002 3.72681V8.27325L4.52273 6.00003L1.60002 3.72681Z" fill="#09204F"/>
</svg>
