<svg width="12" height="12" viewBox="0 0 12 12" fill="none" xmlns="http://www.w3.org/2000/svg">
<path fill-rule="evenodd" clip-rule="evenodd" d="M3.30005 6.49995C3.30005 6.11335 3.61345 5.79995 4.00005 5.79995H8.00005C8.38665 5.79995 8.70005 6.11335 8.70005 6.49995C8.70005 6.88655 8.38665 7.19995 8.00005 7.19995H4.00005C3.61345 7.19995 3.30005 6.88655 3.30005 6.49995Z" fill="#09204F"/>
<path fill-rule="evenodd" clip-rule="evenodd" d="M1.30005 3.49995C1.30005 3.11335 1.61345 2.79995 2.00005 2.79995L10 2.79995C10.3866 2.79995 10.7 3.11335 10.7 3.49995C10.7 3.88655 10.3866 4.19995 10 4.19995L2.00005 4.19995C1.61345 4.19995 1.30005 3.88655 1.30005 3.49995Z" fill="#09204F"/>
<path fill-rule="evenodd" clip-rule="evenodd" d="M4.80005 9.49995C4.80005 9.11335 5.11345 8.79995 5.50005 8.79995H6.50005C6.88665 8.79995 7.20005 9.11335 7.20005 9.49995C7.20005 9.88655 6.88665 10.2 6.50005 10.2H5.50005C5.11345 10.2 4.80005 9.88655 4.80005 9.49995Z" fill="#09204F"/>
</svg>
