<svg width="12" height="12" viewBox="0 0 12 12" fill="none" xmlns="http://www.w3.org/2000/svg">
<path fill-rule="evenodd" clip-rule="evenodd" d="M2.21469 0.692816C2.60572 0.536406 3.18239 0.399902 4.00002 0.399902C4.86619 0.399902 5.58323 0.68685 6.19052 0.929879C6.20134 0.934206 6.21212 0.938519 6.22286 0.942816C6.85872 1.19716 7.38161 1.3999 8.00002 1.3999C8.68239 1.3999 9.10572 1.28641 9.33969 1.19282C9.45721 1.14581 9.52974 1.10273 9.56564 1.0788C9.57965 1.06946 9.58832 1.06288 9.59211 1.05989C9.76347 0.90097 10.0124 0.85561 10.2296 0.945575C10.4538 1.03844 10.6 1.25723 10.6 1.4999V7.4999C10.6 7.65903 10.5368 7.81164 10.4243 7.92417L10 7.4999C10.4243 7.92417 10.424 7.92448 10.4237 7.92479L10.423 7.92543L10.4217 7.92674L10.4189 7.92949L10.4127 7.9355L10.3976 7.94948C10.3865 7.95964 10.373 7.97142 10.357 7.98454C10.3251 8.01082 10.2835 8.04242 10.2313 8.07726C10.1266 8.14707 9.98034 8.229 9.78536 8.30699C9.39433 8.4634 8.81765 8.5999 8.00002 8.5999C7.13386 8.5999 6.41682 8.31295 5.80952 8.06993C5.79871 8.0656 5.78793 8.06129 5.77719 8.05699C5.14133 7.80265 4.61844 7.5999 4.00002 7.5999C3.31765 7.5999 2.89433 7.7134 2.66036 7.80699C2.54284 7.854 2.47031 7.89707 2.43441 7.92101C2.4204 7.93034 2.41173 7.93693 2.40794 7.93991C2.23658 8.09883 1.98761 8.14419 1.77041 8.05423C1.54621 7.96136 1.40002 7.74258 1.40002 7.4999V1.4999C1.40002 1.34077 1.46324 1.18816 1.57576 1.07564L2.00002 1.4999C1.57576 1.07564 1.57607 1.07533 1.57639 1.07501L1.57703 1.07437L1.57835 1.07306L1.58115 1.07031L1.58738 1.0643L1.6024 1.05032C1.61358 1.04017 1.62707 1.02839 1.64301 1.01526C1.67492 0.988984 1.71651 0.957383 1.76877 0.922547C1.87349 0.852732 2.01971 0.770809 2.21469 0.692816ZM2.60002 1.83243V6.56542C2.95784 6.46911 3.41786 6.3999 4.00002 6.3999C4.86619 6.3999 5.58323 6.68685 6.19053 6.92988C6.20134 6.93421 6.21212 6.93852 6.22286 6.94282C6.85872 7.19716 7.38161 7.3999 8.00002 7.3999C8.68239 7.3999 9.10572 7.28641 9.33969 7.19282C9.36131 7.18417 9.3814 7.17566 9.40002 7.16737V2.43438C9.04221 2.5307 8.58219 2.5999 8.00002 2.5999C7.13386 2.5999 6.41682 2.31295 5.80952 2.06993C5.79871 2.0656 5.78793 2.06129 5.77719 2.05699C5.14133 1.80265 4.61844 1.5999 4.00002 1.5999C3.31765 1.5999 2.89433 1.7134 2.66036 1.80699C2.63874 1.81563 2.61865 1.82415 2.60002 1.83243Z" fill="#09204F"/>
<path fill-rule="evenodd" clip-rule="evenodd" d="M2.00002 6.8999C2.3314 6.8999 2.60002 7.16853 2.60002 7.4999V10.9999C2.60002 11.3313 2.3314 11.5999 2.00002 11.5999C1.66865 11.5999 1.40002 11.3313 1.40002 10.9999V7.4999C1.40002 7.16853 1.66865 6.8999 2.00002 6.8999Z" fill="#09204F"/>
</svg>
