<svg width="12" height="12" viewBox="0 0 12 12" fill="none" xmlns="http://www.w3.org/2000/svg">
<path fill-rule="evenodd" clip-rule="evenodd" d="M6.00002 1.5999C3.56997 1.5999 1.60002 3.56985 1.60002 5.9999C1.60002 8.42995 3.56997 10.3999 6.00002 10.3999C8.43008 10.3999 10.4 8.42995 10.4 5.9999C10.4 3.56985 8.43008 1.5999 6.00002 1.5999ZM0.400024 5.9999C0.400024 2.90711 2.90723 0.399902 6.00002 0.399902C9.09282 0.399902 11.6 2.90711 11.6 5.9999C11.6 9.0927 9.09282 11.5999 6.00002 11.5999C2.90723 11.5999 0.400024 9.0927 0.400024 5.9999Z" fill="#09204F"/>
<path fill-rule="evenodd" clip-rule="evenodd" d="M0.400024 5.9999C0.400024 5.66853 0.668654 5.3999 1.00002 5.3999H11C11.3314 5.3999 11.6 5.66853 11.6 5.9999C11.6 6.33127 11.3314 6.5999 11 6.5999H1.00002C0.668654 6.5999 0.400024 6.33127 0.400024 5.9999Z" fill="#09204F"/>
<path fill-rule="evenodd" clip-rule="evenodd" d="M4.60017 5.99987C4.63343 7.47123 5.126 8.88929 6.00002 10.0594C6.87405 8.88929 7.36662 7.47123 7.39988 5.99987C7.36662 4.52851 6.87405 3.11045 6.00002 1.94033C5.126 3.11045 4.63343 4.52851 4.60017 5.99987ZM6.00002 0.999869L5.55702 0.595215C4.20829 2.07178 3.44181 3.98798 3.40015 5.98737C3.39998 5.9957 3.39998 6.00404 3.40015 6.01237C3.44181 8.01176 4.20829 9.92796 5.55702 11.4045C5.67069 11.529 5.83147 11.5999 6.00002 11.5999C6.16858 11.5999 6.32936 11.529 6.44303 11.4045C7.79176 9.92796 8.55824 8.01176 8.59989 6.01237C8.60007 6.00404 8.60007 5.9957 8.59989 5.98737C8.55824 3.98798 7.79176 2.07178 6.44303 0.595215L6.00002 0.999869Z" fill="#09204F"/>
</svg>
