<svg width="12" height="12" viewBox="0 0 12 12" fill="none" xmlns="http://www.w3.org/2000/svg">
<path d="M6.10565 5.00193C6.10565 5.50165 6.10565 6.50109 6.10259 7.00081H8.88702C8.78032 7.50053 8.40202 8.20013 7.86749 8.55244C7.15479 9.02417 6.21694 9.13061 5.52058 8.99069C4.42906 8.77381 3.56525 7.98226 3.21451 6.97682C3.00009 6.33668 3.00009 5.50165 3.21962 5.00193C3.50194 4.08345 4.3918 3.24542 5.48484 3.01605C6.36398 2.82966 7.35594 3.03154 8.08549 3.71416C8.18249 3.61921 9.42819 2.4029 9.52161 2.30395C7.0292 0.046721 3.03838 0.840776 1.54507 3.75564C0.803273 5.19283 0.833905 6.87988 1.54712 8.24311C2.18834 9.5014 3.36461 10.4634 4.78184 10.8297C6.2874 11.2244 8.20342 10.9546 9.4869 9.79374C10.5759 8.81579 11.2528 7.14723 10.9108 5.00193H6.10565Z" fill="#09204F"/>
</svg>
