<svg width="12" height="12" viewBox="0 0 12 12" fill="none" xmlns="http://www.w3.org/2000/svg">
<path fill-rule="evenodd" clip-rule="evenodd" d="M1 1.6C1 1.26863 1.26863 1 1.6 1H5.1C5.43137 1 5.7 1.26863 5.7 1.6V5.1C5.7 5.43137 5.43137 5.7 5.1 5.7H1.6C1.26863 5.7 1 5.43137 1 5.1V1.6ZM2.2 2.2V4.5H4.5V2.2H2.2Z" fill="#09204F"/>
<path fill-rule="evenodd" clip-rule="evenodd" d="M6.5 1.6C6.5 1.26863 6.76863 1 7.1 1H10.6C10.9314 1 11.2 1.26863 11.2 1.6V5.1C11.2 5.43137 10.9314 5.7 10.6 5.7H7.1C6.76863 5.7 6.5 5.43137 6.5 5.1V1.6ZM7.7 2.2V4.5H10V2.2H7.7Z" fill="#09204F"/>
<path fill-rule="evenodd" clip-rule="evenodd" d="M6.5 7.1C6.5 6.76863 6.76863 6.5 7.1 6.5H10.6C10.9314 6.5 11.2 6.76863 11.2 7.1V10.6C11.2 10.9314 10.9314 11.2 10.6 11.2H7.1C6.76863 11.2 6.5 10.9314 6.5 10.6V7.1ZM7.7 7.7V10H10V7.7H7.7Z" fill="#09204F"/>
<path fill-rule="evenodd" clip-rule="evenodd" d="M1 7.1C1 6.76863 1.26863 6.5 1.6 6.5H5.1C5.43137 6.5 5.7 6.76863 5.7 7.1V10.6C5.7 10.9314 5.43137 11.2 5.1 11.2H1.6C1.26863 11.2 1 10.9314 1 10.6V7.1ZM2.2 7.7V10H4.5V7.7H2.2Z" fill="#09204F"/>
</svg>
