<svg width="12" height="12" viewBox="0 0 12 12" fill="none" xmlns="http://www.w3.org/2000/svg">
<path fill-rule="evenodd" clip-rule="evenodd" d="M1.40002 4.4999C1.40002 4.16853 1.66865 3.8999 2.00002 3.8999H10C10.3314 3.8999 10.6 4.16853 10.6 4.4999C10.6 4.83127 10.3314 5.0999 10 5.0999H2.00002C1.66865 5.0999 1.40002 4.83127 1.40002 4.4999Z" fill="#09204F"/>
<path fill-rule="evenodd" clip-rule="evenodd" d="M1.40002 7.4999C1.40002 7.16853 1.66865 6.8999 2.00002 6.8999H10C10.3314 6.8999 10.6 7.16853 10.6 7.4999C10.6 7.83127 10.3314 8.0999 10 8.0999H2.00002C1.66865 8.0999 1.40002 7.83127 1.40002 7.4999Z" fill="#09204F"/>
<path fill-rule="evenodd" clip-rule="evenodd" d="M5.06621 0.903625C5.39556 0.940219 5.63288 1.23687 5.59629 1.56621L4.59629 10.5662C4.55969 10.8956 4.26304 11.1329 3.9337 11.0963C3.60435 11.0597 3.36703 10.763 3.40363 10.4337L4.40363 1.4337C4.44022 1.10435 4.73687 0.867031 5.06621 0.903625Z" fill="#09204F"/>
<path fill-rule="evenodd" clip-rule="evenodd" d="M8.06621 0.903625C8.39556 0.940219 8.63288 1.23687 8.59629 1.56621L7.59629 10.5662C7.55969 10.8956 7.26304 11.1329 6.9337 11.0963C6.60435 11.0597 6.36703 10.763 6.40363 10.4337L7.40363 1.4337C7.44022 1.10435 7.73687 0.867031 8.06621 0.903625Z" fill="#09204F"/>
</svg>
