<svg width="12" height="12" viewBox="0 0 12 12" fill="none" xmlns="http://www.w3.org/2000/svg">
<path fill-rule="evenodd" clip-rule="evenodd" d="M5.73164 0.526291C5.9483 0.357773 6.2517 0.357773 6.46836 0.526291L10.9684 4.02629C11.1145 4.13996 11.2 4.31475 11.2 4.4999V9.9999C11.2 10.4242 11.0314 10.8312 10.7314 11.1313C10.4313 11.4313 10.0243 11.5999 9.6 11.5999H2.6C2.17565 11.5999 1.76869 11.4313 1.46863 11.1313C1.16857 10.8312 1 10.4242 1 9.9999V4.4999C1 4.31475 1.08548 4.13996 1.23164 4.02629L5.73164 0.526291ZM2.2 4.79335V9.9999C2.2 10.106 2.24214 10.2077 2.31716 10.2827C2.39217 10.3578 2.49391 10.3999 2.6 10.3999H9.6C9.70609 10.3999 9.80783 10.3578 9.88284 10.2827C9.95786 10.2077 10 10.106 10 9.9999V4.79335L6.1 1.76002L2.2 4.79335Z" fill="#09204F"/>
<path fill-rule="evenodd" clip-rule="evenodd" d="M4 6.9999C4 6.66853 4.26863 6.3999 4.6 6.3999H7.6C7.93137 6.3999 8.2 6.66853 8.2 6.9999V10.9999C8.2 11.3313 7.93137 11.5999 7.6 11.5999C7.26863 11.5999 7 11.3313 7 10.9999V7.5999H5.2V10.9999C5.2 11.3313 4.93137 11.5999 4.6 11.5999C4.26863 11.5999 4 11.3313 4 10.9999V6.9999Z" fill="#09204F"/>
</svg>
