<svg width="12" height="12" viewBox="0 0 12 12" fill="none" xmlns="http://www.w3.org/2000/svg">
<g clip-path="url(#clip0)">
<path fill-rule="evenodd" clip-rule="evenodd" d="M6 1.2C3.34903 1.2 1.2 3.34903 1.2 6C1.2 8.65097 3.34903 10.8 6 10.8C8.65097 10.8 10.8 8.65097 10.8 6C10.8 3.34903 8.65097 1.2 6 1.2ZM0 6C0 2.68629 2.68629 0 6 0C9.31371 0 12 2.68629 12 6C12 9.31371 9.31371 12 6 12C2.68629 12 0 9.31371 0 6Z" fill="#09204F"/>
<path fill-rule="evenodd" clip-rule="evenodd" d="M5.99995 9.09998C5.61335 9.09998 5.29995 8.78657 5.29995 8.39998V5.99998C5.29995 5.61338 5.61335 5.29998 5.99995 5.29998C6.38655 5.29998 6.69995 5.61338 6.69995 5.99998V8.39998C6.69995 8.78657 6.38655 9.09998 5.99995 9.09998Z" fill="#09204F"/>
<path fill-rule="evenodd" clip-rule="evenodd" d="M5.99995 4.59998C5.61335 4.59998 5.29995 4.28657 5.29995 3.89998V3.79998C5.29995 3.41338 5.61335 3.09998 5.99995 3.09998C6.38655 3.09998 6.69995 3.41338 6.69995 3.79998V3.89998C6.69995 4.28657 6.38655 4.59998 5.99995 4.59998Z" fill="#09204F"/>
</g>
<defs>
<clipPath id="clip0">
<rect width="12" height="12" fill="white" transform="translate(12) rotate(90)"/>
</clipPath>
</defs>
</svg>
