<svg width="12" height="12" viewBox="0 0 12 12" fill="none" xmlns="http://www.w3.org/2000/svg">
<path fill-rule="evenodd" clip-rule="evenodd" d="M2.50002 2.0999C2.27911 2.0999 2.10002 2.27899 2.10002 2.4999V9.4999C2.10002 9.72082 2.27911 9.8999 2.50002 9.8999H9.50002C9.72094 9.8999 9.90002 9.72082 9.90002 9.4999V2.4999C9.90002 2.27899 9.72094 2.0999 9.50002 2.0999H2.50002ZM0.900024 2.4999C0.900024 1.61625 1.61637 0.899902 2.50002 0.899902H9.50002C10.3837 0.899902 11.1 1.61625 11.1 2.4999V9.4999C11.1 10.3836 10.3837 11.0999 9.50002 11.0999H2.50002C1.61637 11.0999 0.900024 10.3836 0.900024 9.4999V2.4999Z" fill="#09204F"/>
<path fill-rule="evenodd" clip-rule="evenodd" d="M4.25002 4.0999C4.16718 4.0999 4.10002 4.16706 4.10002 4.2499C4.10002 4.33275 4.16718 4.3999 4.25002 4.3999C4.33287 4.3999 4.40002 4.33275 4.40002 4.2499C4.40002 4.16706 4.33287 4.0999 4.25002 4.0999ZM2.90002 4.2499C2.90002 3.50432 3.50444 2.8999 4.25002 2.8999C4.99561 2.8999 5.60002 3.50432 5.60002 4.2499C5.60002 4.99549 4.99561 5.5999 4.25002 5.5999C3.50444 5.5999 2.90002 4.99549 2.90002 4.2499Z" fill="#09204F"/>
<path fill-rule="evenodd" clip-rule="evenodd" d="M7.57576 4.57564C7.81007 4.34132 8.18997 4.34132 8.42429 4.57564L10.9243 7.07564C11.1586 7.30995 11.1586 7.68985 10.9243 7.92417C10.69 8.15848 10.3101 8.15848 10.0758 7.92417L8.00002 5.84843L2.92429 10.9242C2.68997 11.1585 2.31007 11.1585 2.07576 10.9242C1.84145 10.6899 1.84145 10.31 2.07576 10.0756L7.57576 4.57564Z" fill="#09204F"/>
</svg>
