<svg width="12" height="12" viewBox="0 0 12 12" fill="none" xmlns="http://www.w3.org/2000/svg">
<path fill-rule="evenodd" clip-rule="evenodd" d="M0.400024 5.9999C0.400024 5.66853 0.668654 5.3999 1.00002 5.3999H4.00002C4.20064 5.3999 4.38798 5.50016 4.49925 5.66708L5.32113 6.8999H6.67891L7.50079 5.66708C7.61207 5.50016 7.79941 5.3999 8.00002 5.3999H11C11.3314 5.3999 11.6 5.66853 11.6 5.9999C11.6 6.33127 11.3314 6.5999 11 6.5999H8.32113L7.49925 7.83272C7.38798 7.99964 7.20064 8.0999 7.00002 8.0999H5.00002C4.79941 8.0999 4.61207 7.99964 4.50079 7.83272L3.67891 6.5999H1.00002C0.668654 6.5999 0.400024 6.33127 0.400024 5.9999Z" fill="#09204F"/>
<path fill-rule="evenodd" clip-rule="evenodd" d="M3.62002 1.3999L8.38002 1.3999C8.67769 1.40006 8.96973 1.48325 9.22271 1.64013C9.47533 1.79678 9.6793 2.0207 9.81178 2.28677C9.81197 2.28715 9.81216 2.28753 9.81234 2.2879L11.5365 5.73126C11.5783 5.81466 11.6 5.90664 11.6 5.9999V8.9999C11.6 9.42425 11.4315 9.83121 11.1314 10.1313C10.8313 10.4313 10.4244 10.5999 10 10.5999H2.00002C1.57568 10.5999 1.16871 10.4313 0.868654 10.1313C0.568595 9.83121 0.400024 9.42425 0.400024 8.9999V5.9999C0.400024 5.90664 0.421766 5.81466 0.463524 5.73126L2.18771 2.2879C2.18786 2.28758 2.18802 2.28727 2.18818 2.28695C2.32066 2.0208 2.52467 1.79681 2.77734 1.64013C3.03032 1.48325 3.32236 1.40006 3.62002 1.3999ZM2.72501 2.55489L3.26152 2.82354L1.60002 6.14173V8.9999C1.60002 9.10599 1.64217 9.20773 1.71718 9.28274C1.7922 9.35776 1.89394 9.3999 2.00002 9.3999H10C10.1061 9.3999 10.2079 9.35776 10.2829 9.28274C10.3579 9.20773 10.4 9.10599 10.4 8.9999V6.14173L8.73852 2.82354L8.73771 2.8219C8.70459 2.75526 8.65354 2.69918 8.5903 2.65996C8.52708 2.62076 8.45418 2.59996 8.3798 2.5999C8.37977 2.5999 8.37983 2.5999 8.3798 2.5999H3.62034C3.54593 2.59994 3.473 2.62074 3.40975 2.65996C3.34651 2.69918 3.29546 2.75526 3.26234 2.8219L2.72501 2.55489Z" fill="#09204F"/>
</svg>
