<svg width="12" height="12" viewBox="0 0 12 12" fill="none" xmlns="http://www.w3.org/2000/svg">
<path fill-rule="evenodd" clip-rule="evenodd" d="M5.7317 0.463246C5.90061 0.378788 6.09944 0.378788 6.26835 0.463246L11.2684 2.96325C11.4716 3.06488 11.6 3.27264 11.6 3.4999C11.6 3.72717 11.4716 3.93492 11.2684 4.03656L6.26835 6.53656C6.09944 6.62102 5.90061 6.62102 5.7317 6.53656L0.731696 4.03656C0.528426 3.93492 0.400024 3.72717 0.400024 3.4999C0.400024 3.27264 0.528426 3.06488 0.731696 2.96325L5.7317 0.463246ZM2.34167 3.4999L6.00002 5.32908L9.65838 3.4999L6.00002 1.67072L2.34167 3.4999Z" fill="#09204F"/>
<path fill-rule="evenodd" clip-rule="evenodd" d="M0.463377 8.23146C0.611571 7.93507 0.971975 7.81494 1.26836 7.96313L6.00003 10.329L10.7317 7.96313C11.0281 7.81494 11.3885 7.93507 11.5367 8.23146C11.6849 8.52785 11.5647 8.88825 11.2684 9.03645L6.26836 11.5364C6.09945 11.6209 5.90062 11.6209 5.73171 11.5364L0.731706 9.03645C0.435319 8.88825 0.315184 8.52785 0.463377 8.23146Z" fill="#09204F"/>
<path fill-rule="evenodd" clip-rule="evenodd" d="M0.463377 5.73146C0.611571 5.43507 0.971975 5.31494 1.26836 5.46313L6.00003 7.82897L10.7317 5.46313C11.0281 5.31494 11.3885 5.43507 11.5367 5.73146C11.6849 6.02785 11.5647 6.38825 11.2684 6.53645L6.26836 9.03645C6.09945 9.1209 5.90062 9.1209 5.73171 9.03645L0.731706 6.53645C0.435319 6.38825 0.315184 6.02785 0.463377 5.73146Z" fill="#09204F"/>
</svg>
