<svg width="12" height="12" viewBox="0 0 12 12" fill="none" xmlns="http://www.w3.org/2000/svg">
<path fill-rule="evenodd" clip-rule="evenodd" d="M2.50002 2.0999C2.27911 2.0999 2.10002 2.27899 2.10002 2.4999V9.4999C2.10002 9.72082 2.27911 9.8999 2.50002 9.8999H9.50002C9.72094 9.8999 9.90002 9.72082 9.90002 9.4999V2.4999C9.90002 2.27899 9.72094 2.0999 9.50002 2.0999H2.50002ZM0.900024 2.4999C0.900024 1.61625 1.61637 0.899902 2.50002 0.899902H9.50002C10.3837 0.899902 11.1 1.61625 11.1 2.4999V9.4999C11.1 10.3836 10.3837 11.0999 9.50002 11.0999H2.50002C1.61637 11.0999 0.900024 10.3836 0.900024 9.4999V2.4999Z" fill="#09204F"/>
<path fill-rule="evenodd" clip-rule="evenodd" d="M0.900024 4.4999C0.900024 4.16853 1.16865 3.8999 1.50002 3.8999H10.5C10.8314 3.8999 11.1 4.16853 11.1 4.4999C11.1 4.83127 10.8314 5.0999 10.5 5.0999H1.50002C1.16865 5.0999 0.900024 4.83127 0.900024 4.4999Z" fill="#09204F"/>
<path fill-rule="evenodd" clip-rule="evenodd" d="M4.50002 3.8999C4.8314 3.8999 5.10002 4.16853 5.10002 4.4999V10.4999C5.10002 10.8313 4.8314 11.0999 4.50002 11.0999C4.16865 11.0999 3.90002 10.8313 3.90002 10.4999V4.4999C3.90002 4.16853 4.16865 3.8999 4.50002 3.8999Z" fill="#09204F"/>
</svg>
