<svg width="12" height="12" viewBox="0 0 12 12" fill="none" xmlns="http://www.w3.org/2000/svg">
<path fill-rule="evenodd" clip-rule="evenodd" d="M3.33033 0.900747C3.77468 0.890673 4.21646 0.970772 4.62898 1.13621C5.04132 1.30156 5.41587 1.54875 5.73005 1.86284L5.98314 2.11522L6.17529 1.92365C7.41469 0.676395 9.45614 0.548958 10.781 1.76214C11.1091 2.062 11.3729 2.42524 11.5567 2.82993C11.7405 3.23462 11.8403 3.67236 11.8502 4.11671C11.86 4.56105 11.7797 5.00279 11.6141 5.41523C11.4485 5.82762 11.201 6.20216 10.8866 6.51625L6.5422 10.8588L6.54097 10.86C6.46801 10.9333 6.38136 10.9914 6.28593 11.0312C6.18997 11.0711 6.08704 11.0917 5.98308 11.0917C5.87912 11.0917 5.77619 11.0711 5.68022 11.0312C5.5848 10.9914 5.49814 10.9333 5.42519 10.86L5.42395 10.8588L1.13766 6.57438C-0.0996063 5.33711 -0.236707 3.29572 0.976564 1.97072C1.2762 1.64266 1.63921 1.37872 2.04368 1.19482C2.44828 1.01086 2.88598 0.910822 3.33033 0.900747Z" fill="#09204F"/>
</svg>
