<svg width="12" height="12" viewBox="0 0 12 12" fill="none" xmlns="http://www.w3.org/2000/svg">
<path fill-rule="evenodd" clip-rule="evenodd" d="M3.33033 0.900747C3.77468 0.890673 4.21646 0.970772 4.62898 1.13621C5.04132 1.30156 5.41587 1.54875 5.73005 1.86284C5.7302 1.86298 5.7299 1.86269 5.73005 1.86284L5.98314 2.11522L6.17529 1.92365C7.41469 0.676395 9.45614 0.548958 10.781 1.76214C11.1091 2.062 11.3729 2.42524 11.5567 2.82993C11.7405 3.23462 11.8403 3.67236 11.8502 4.11671C11.86 4.56105 11.7797 5.00279 11.6141 5.41523C11.4485 5.82762 11.201 6.20216 10.8866 6.51625C10.8866 6.51629 10.8867 6.51621 10.8866 6.51625L6.5422 10.8588C6.54179 10.8592 6.54138 10.8596 6.54097 10.86C6.46801 10.9333 6.38136 10.9914 6.28593 11.0312C6.18997 11.0711 6.08704 11.0917 5.98308 11.0917C5.87912 11.0917 5.77619 11.0711 5.68022 11.0312C5.5848 10.9914 5.49814 10.9333 5.42519 10.86C5.42478 10.8596 5.42437 10.8592 5.42395 10.8588L1.13766 6.57438C-0.0996063 5.33711 -0.236707 3.29572 0.976564 1.97072C1.2762 1.64266 1.63921 1.37872 2.04368 1.19482C2.44828 1.01086 2.88598 0.910822 3.33033 0.900747ZM4.18233 2.24998C3.92032 2.14491 3.63974 2.09404 3.35753 2.10044C3.07531 2.10684 2.79732 2.17037 2.54035 2.28721C2.28338 2.40405 2.05275 2.57176 1.86241 2.78022C1.11479 3.59645 1.16846 4.90803 1.986 5.72566C1.98603 5.72569 1.98597 5.72563 1.986 5.72566L5.98308 9.72099L10.0383 5.66754C10.238 5.46804 10.3953 5.23 10.5005 4.96805C10.6057 4.7061 10.6567 4.42554 10.6505 4.14333C10.6442 3.86111 10.5808 3.5831 10.4641 3.32607C10.3474 3.06904 10.1798 2.83834 9.97141 2.6479C9.15166 1.89694 7.84132 1.94872 7.02576 2.77024L7.02358 2.77243L6.4067 3.38743C6.17251 3.6209 5.79356 3.62088 5.5594 3.38737L4.88253 2.71237C4.68293 2.51275 4.44433 2.35505 4.18233 2.24998Z" fill="#09204F"/>
</svg>
