<svg width="12" height="12" viewBox="0 0 12 12" fill="none" xmlns="http://www.w3.org/2000/svg">
<g clip-path="url(#clip0)">
<path fill-rule="evenodd" clip-rule="evenodd" d="M2.93392 5.21456C2.46039 5.68808 2.19436 6.33033 2.19436 7C2.19436 7.66967 2.46039 8.31192 2.93392 8.78544C3.40745 9.25897 4.04969 9.525 4.71936 9.525C5.05095 9.525 5.37929 9.45969 5.68564 9.3328C5.99198 9.2059 6.27034 9.01991 6.50481 8.78544L6.94675 8.3435C7.18106 8.10919 7.56096 8.10919 7.79528 8.3435C8.02959 8.57782 8.02959 8.95772 7.79528 9.19203L7.35333 9.63397C7.00744 9.97987 6.5968 10.2543 6.14486 10.4415C5.69292 10.6287 5.20853 10.725 4.71936 10.725C3.73143 10.725 2.78396 10.3325 2.08539 9.63397C1.38682 8.9354 0.994361 7.98793 0.994362 7C0.994361 6.01207 1.38682 5.0646 2.08539 4.36603L2.52733 3.92409C2.76164 3.68977 3.14154 3.68977 3.37586 3.92409C3.61017 4.1584 3.61017 4.5383 3.37586 4.77261L2.93392 5.21456Z" fill="#09204F"/>
<path fill-rule="evenodd" clip-rule="evenodd" d="M9.15642 6.13383C9.62994 5.6603 9.89597 5.01806 9.89597 4.34839C9.89597 3.67872 9.62994 3.03647 9.15642 2.56294C8.68289 2.08941 8.04064 1.82339 7.37097 1.82339C7.03938 1.82339 6.71104 1.8887 6.40469 2.01559C6.09835 2.14249 5.81999 2.32848 5.58553 2.56294L5.14358 3.00489C4.90927 3.2392 4.52937 3.2392 4.29506 3.00489C4.06074 2.77057 4.06074 2.39067 4.29506 2.15636L4.737 1.71442C5.0829 1.36852 5.49354 1.09414 5.94547 0.906937C6.39741 0.719738 6.8818 0.623389 7.37097 0.623389C8.3589 0.623389 9.30637 1.01584 10.0049 1.71442C10.7035 2.41299 11.096 3.36046 11.096 4.34839C11.096 5.33632 10.7035 6.28379 10.0049 6.98236L9.563 7.4243C9.32869 7.65862 8.94879 7.65862 8.71447 7.4243C8.48016 7.18999 8.48016 6.81009 8.71447 6.57577L9.15642 6.13383Z" fill="#09204F"/>
<path fill-rule="evenodd" clip-rule="evenodd" d="M4.29511 7.42426C4.0608 7.18995 4.0608 6.81005 4.29511 6.57574L6.94676 3.92409C7.18108 3.68977 7.56098 3.68977 7.79529 3.92409C8.02961 4.1584 8.02961 4.5383 7.79529 4.77261L5.14364 7.42426C4.90933 7.65858 4.52943 7.65858 4.29511 7.42426Z" fill="#09204F"/>
</g>
<defs>
<clipPath id="clip0">
<rect width="12" height="12" fill="white"/>
</clipPath>
</defs>
</svg>
