<svg width="12" height="12" viewBox="0 0 12 12" fill="none" xmlns="http://www.w3.org/2000/svg">
<g clip-path="url(#clip0)">
<path fill-rule="evenodd" clip-rule="evenodd" d="M3.3999 2.9999C3.3999 2.66853 3.66853 2.3999 3.9999 2.3999H10.4999C10.8313 2.3999 11.0999 2.66853 11.0999 2.9999C11.0999 3.33127 10.8313 3.5999 10.4999 3.5999H3.9999C3.66853 3.5999 3.3999 3.33127 3.3999 2.9999Z" fill="#09204F"/>
<path fill-rule="evenodd" clip-rule="evenodd" d="M3.3999 5.9999C3.3999 5.66853 3.66853 5.3999 3.9999 5.3999H10.4999C10.8313 5.3999 11.0999 5.66853 11.0999 5.9999C11.0999 6.33127 10.8313 6.5999 10.4999 6.5999H3.9999C3.66853 6.5999 3.3999 6.33127 3.3999 5.9999Z" fill="#09204F"/>
<path fill-rule="evenodd" clip-rule="evenodd" d="M3.3999 8.9999C3.3999 8.66853 3.66853 8.3999 3.9999 8.3999H10.4999C10.8313 8.3999 11.0999 8.66853 11.0999 8.9999C11.0999 9.33127 10.8313 9.5999 10.4999 9.5999H3.9999C3.66853 9.5999 3.3999 9.33127 3.3999 8.9999Z" fill="#09204F"/>
<path fill-rule="evenodd" clip-rule="evenodd" d="M0.899902 2.9999C0.899902 2.66853 1.16853 2.3999 1.4999 2.3999H1.5999C1.93127 2.3999 2.1999 2.66853 2.1999 2.9999C2.1999 3.33127 1.93127 3.5999 1.5999 3.5999H1.4999C1.16853 3.5999 0.899902 3.33127 0.899902 2.9999Z" fill="#09204F"/>
<path fill-rule="evenodd" clip-rule="evenodd" d="M0.899902 5.9999C0.899902 5.66853 1.16853 5.3999 1.4999 5.3999H1.5999C1.93127 5.3999 2.1999 5.66853 2.1999 5.9999C2.1999 6.33127 1.93127 6.5999 1.5999 6.5999H1.4999C1.16853 6.5999 0.899902 6.33127 0.899902 5.9999Z" fill="#09204F"/>
<path fill-rule="evenodd" clip-rule="evenodd" d="M0.899902 8.9999C0.899902 8.66853 1.16853 8.3999 1.4999 8.3999H1.5999C1.93127 8.3999 2.1999 8.66853 2.1999 8.9999C2.1999 9.33127 1.93127 9.5999 1.5999 9.5999H1.4999C1.16853 9.5999 0.899902 9.33127 0.899902 8.9999Z" fill="#09204F"/>
</g>
<defs>
<clipPath id="clip0">
<rect width="12" height="12" fill="white"/>
</clipPath>
</defs>
</svg>
