<svg width="12" height="12" viewBox="0 0 12 12" fill="none" xmlns="http://www.w3.org/2000/svg">
<path fill-rule="evenodd" clip-rule="evenodd" d="M2.50002 6.0999C2.27911 6.0999 2.10002 6.27899 2.10002 6.4999V9.9999C2.10002 10.2208 2.27911 10.3999 2.50002 10.3999H9.50002C9.72094 10.3999 9.90002 10.2208 9.90002 9.9999V6.4999C9.90002 6.27899 9.72094 6.0999 9.50002 6.0999H2.50002ZM0.900024 6.4999C0.900024 5.61625 1.61637 4.8999 2.50002 4.8999H9.50002C10.3837 4.8999 11.1 5.61625 11.1 6.4999V9.9999C11.1 10.8836 10.3837 11.5999 9.50002 11.5999H2.50002C1.61637 11.5999 0.900024 10.8836 0.900024 9.9999V6.4999Z" fill="#09204F"/>
<path fill-rule="evenodd" clip-rule="evenodd" d="M6.00002 1.5999C5.49611 1.5999 5.01284 1.80008 4.65652 2.1564C4.3002 2.51272 4.10002 2.99599 4.10002 3.4999V5.4999C4.10002 5.83127 3.8314 6.0999 3.50002 6.0999C3.16865 6.0999 2.90002 5.83127 2.90002 5.4999V3.4999C2.90002 2.67773 3.22663 1.88923 3.80799 1.30787C4.38936 0.726508 5.17785 0.399902 6.00002 0.399902C6.8222 0.399902 7.61069 0.726508 8.19206 1.30787C8.77342 1.88923 9.10002 2.67773 9.10002 3.4999V5.4999C9.10002 5.83127 8.8314 6.0999 8.50002 6.0999C8.16865 6.0999 7.90002 5.83127 7.90002 5.4999V3.4999C7.90002 2.99599 7.69985 2.51272 7.34353 2.1564C6.98721 1.80008 6.50394 1.5999 6.00002 1.5999Z" fill="#09204F"/>
</svg>
