<svg width="12" height="12" viewBox="0 0 12 12" fill="none" xmlns="http://www.w3.org/2000/svg">
<path fill-rule="evenodd" clip-rule="evenodd" d="M5.26685 10.0001C5.26685 10.3315 4.99822 10.6001 4.66685 10.6001H2.88907C2.49419 10.6001 2.11549 10.4432 1.83626 10.164C1.55704 9.88479 1.40018 9.50609 1.40018 9.11121L1.40018 2.88899C1.40018 2.49411 1.55704 2.1154 1.83626 1.83618C2.11549 1.55696 2.49419 1.4001 2.88907 1.4001H4.66685C4.99822 1.4001 5.26685 1.66873 5.26685 2.0001C5.26685 2.33147 4.99822 2.6001 4.66685 2.6001H2.88907C2.81245 2.6001 2.73897 2.63053 2.68479 2.68471C2.63062 2.73889 2.60018 2.81237 2.60018 2.88899L2.60018 9.11121C2.60018 9.18783 2.63062 9.26131 2.68479 9.31548C2.73897 9.36966 2.81245 9.4001 2.88907 9.4001H4.66685C4.99822 9.4001 5.26685 9.66873 5.26685 10.0001Z" fill="#09204F"/>
<path fill-rule="evenodd" clip-rule="evenodd" d="M7.35347 3.35371C7.58778 3.1194 7.96768 3.1194 8.202 3.35371L10.4242 5.57594C10.6585 5.81025 10.6585 6.19015 10.4242 6.42447L8.202 8.64669C7.96768 8.881 7.58778 8.881 7.35347 8.64669C7.11916 8.41237 7.11916 8.03247 7.35347 7.79816L9.15143 6.0002L7.35347 4.20224C7.11916 3.96793 7.11916 3.58803 7.35347 3.35371Z" fill="#09204F"/>
<path fill-rule="evenodd" clip-rule="evenodd" d="M4.06665 6.00015C4.06665 5.66878 4.33528 5.40015 4.66665 5.40015H9.99998C10.3314 5.40015 10.6 5.66878 10.6 6.00015C10.6 6.33152 10.3314 6.60015 9.99998 6.60015H4.66665C4.33528 6.60015 4.06665 6.33152 4.06665 6.00015Z" fill="#09204F"/>
</svg>
