<svg width="12" height="12" viewBox="0 0 12 12" fill="none" xmlns="http://www.w3.org/2000/svg">
<path fill-rule="evenodd" clip-rule="evenodd" d="M1.9999 2.5999C1.78127 2.5999 1.5999 2.78127 1.5999 2.9999V8.9999C1.5999 9.21853 1.78127 9.3999 1.9999 9.3999H9.9999C10.2185 9.3999 10.3999 9.21853 10.3999 8.9999V2.9999C10.3999 2.78127 10.2185 2.5999 9.9999 2.5999H1.9999ZM0.399902 2.9999C0.399902 2.11853 1.11853 1.3999 1.9999 1.3999H9.9999C10.8813 1.3999 11.5999 2.11853 11.5999 2.9999V8.9999C11.5999 9.88127 10.8813 10.5999 9.9999 10.5999H1.9999C1.11853 10.5999 0.399902 9.88127 0.399902 8.9999V2.9999Z" fill="#09204F"/>
<path fill-rule="evenodd" clip-rule="evenodd" d="M0.508415 2.65588C0.698443 2.38441 1.07256 2.31839 1.34403 2.50841L5.99995 5.76756L10.6559 2.50841C10.9273 2.31839 11.3015 2.38441 11.4915 2.65588C11.6815 2.92735 11.6155 3.30146 11.344 3.49149L6.34403 6.99149C6.13744 7.13611 5.86247 7.13611 5.65588 6.99149L0.655876 3.49149C0.384407 3.30146 0.318386 2.92735 0.508415 2.65588Z" fill="#09204F"/>
</svg>
