<svg width="12" height="12" viewBox="0 0 12 12" fill="none" xmlns="http://www.w3.org/2000/svg">
<g clip-path="url(#clip0)">
<path fill-rule="evenodd" clip-rule="evenodd" d="M1.36853 1.36853C1.66859 1.06847 2.07556 0.899902 2.4999 0.899902H3.9999C4.33127 0.899902 4.5999 1.16853 4.5999 1.4999C4.5999 1.83127 4.33127 2.0999 3.9999 2.0999H2.4999C2.39382 2.0999 2.29207 2.14205 2.21706 2.21706C2.14205 2.29207 2.0999 2.39382 2.0999 2.4999V3.9999C2.0999 4.33127 1.83127 4.5999 1.4999 4.5999C1.16853 4.5999 0.899902 4.33127 0.899902 3.9999V2.4999C0.899902 2.07556 1.06847 1.66859 1.36853 1.36853ZM7.3999 1.4999C7.3999 1.16853 7.66853 0.899902 7.9999 0.899902H9.4999C9.92425 0.899902 10.3312 1.06847 10.6313 1.36853C10.9313 1.66859 11.0999 2.07556 11.0999 2.4999V3.9999C11.0999 4.33127 10.8313 4.5999 10.4999 4.5999C10.1685 4.5999 9.8999 4.33127 9.8999 3.9999V2.4999C9.8999 2.39382 9.85776 2.29207 9.78275 2.21706C9.70773 2.14205 9.60599 2.0999 9.4999 2.0999H7.9999C7.66853 2.0999 7.3999 1.83127 7.3999 1.4999ZM1.4999 7.3999C1.83127 7.3999 2.0999 7.66853 2.0999 7.9999V9.4999C2.0999 9.60599 2.14205 9.70773 2.21706 9.78275C2.29207 9.85776 2.39382 9.8999 2.4999 9.8999H3.9999C4.33127 9.8999 4.5999 10.1685 4.5999 10.4999C4.5999 10.8313 4.33127 11.0999 3.9999 11.0999H2.4999C2.07556 11.0999 1.66859 10.9313 1.36853 10.6313C1.06847 10.3312 0.899902 9.92425 0.899902 9.4999V7.9999C0.899902 7.66853 1.16853 7.3999 1.4999 7.3999ZM10.4999 7.3999C10.8313 7.3999 11.0999 7.66853 11.0999 7.9999V9.4999C11.0999 9.92425 10.9313 10.3312 10.6313 10.6313C10.3312 10.9313 9.92425 11.0999 9.4999 11.0999H7.9999C7.66853 11.0999 7.3999 10.8313 7.3999 10.4999C7.3999 10.1685 7.66853 9.8999 7.9999 9.8999H9.4999C9.60599 9.8999 9.70773 9.85776 9.78275 9.78275C9.85776 9.70773 9.8999 9.60599 9.8999 9.4999V7.9999C9.8999 7.66853 10.1685 7.3999 10.4999 7.3999Z" fill="#09204F"/>
</g>
<defs>
<clipPath id="clip0">
<rect width="12" height="12" fill="white"/>
</clipPath>
</defs>
</svg>
