<svg width="12" height="12" viewBox="0 0 12 12" fill="none" xmlns="http://www.w3.org/2000/svg">
<circle cx="4.29995" cy="5.6" r="0.6" fill="#09204F"/>
<circle cx="5.89993" cy="5.6" r="0.6" fill="#09204F"/>
<circle cx="7.4999" cy="5.6" r="0.6" fill="#09204F"/>
<path fill-rule="evenodd" clip-rule="evenodd" d="M0.400024 5.62844C0.400024 2.70682 2.87388 0.400024 5.94869 0.400024C9.00743 0.400024 11.6 2.69143 11.6 5.62844C11.6 8.55889 9.05468 10.8566 5.98986 10.8566C5.52059 10.8566 5.09542 10.8033 4.67328 10.7044L3.2493 11.5206C3.06362 11.627 2.8353 11.6265 2.65012 11.5192C2.46494 11.4119 2.35094 11.214 2.35094 11V9.5674C1.65657 9.11602 1.17453 8.5573 0.864002 7.91755C0.51408 7.19664 0.400024 6.41039 0.400024 5.62844ZM5.94869 1.60002C3.46705 1.60002 1.60002 3.43706 1.60002 5.62844C1.60002 6.3005 1.69915 6.89004 1.94355 7.39355C2.18333 7.88755 2.58064 8.33578 3.24272 8.70427C3.43298 8.81016 3.55094 9.01081 3.55094 9.22854V9.96456L4.28738 9.54246C4.42609 9.46295 4.5908 9.4421 4.74494 9.48452C5.15583 9.59759 5.5464 9.65662 5.98986 9.65662C8.4815 9.65662 10.4 7.81 10.4 5.62844C10.4 3.45245 8.44743 1.60002 5.94869 1.60002Z" fill="#09204F"/>
</svg>
