<svg width="12" height="12" viewBox="0 0 12 12" fill="none" xmlns="http://www.w3.org/2000/svg">
<path fill-rule="evenodd" clip-rule="evenodd" d="M5.94869 0.400024C2.87388 0.400024 0.400024 2.70682 0.400024 5.62844C0.400024 6.41039 0.51408 7.19664 0.864002 7.91755C1.17453 8.5573 1.65657 9.11602 2.35094 9.5674V11C2.35094 11.214 2.46494 11.4119 2.65012 11.5192C2.8353 11.6265 3.06362 11.627 3.2493 11.5206L4.67328 10.7044C5.09542 10.8033 5.52059 10.8566 5.98986 10.8566C9.05468 10.8566 11.6 8.55889 11.6 5.62844C11.6 2.69143 9.00743 0.400024 5.94869 0.400024ZM4.29995 6.2C4.63132 6.2 4.89995 5.93137 4.89995 5.6C4.89995 5.26863 4.63132 5 4.29995 5C3.96858 5 3.69995 5.26863 3.69995 5.6C3.69995 5.93137 3.96858 6.2 4.29995 6.2ZM6.49993 5.6C6.49993 5.93137 6.2313 6.2 5.89993 6.2C5.56856 6.2 5.29993 5.93137 5.29993 5.6C5.29993 5.26863 5.56856 5 5.89993 5C6.2313 5 6.49993 5.26863 6.49993 5.6ZM7.4999 6.2C7.83127 6.2 8.0999 5.93137 8.0999 5.6C8.0999 5.26863 7.83127 5 7.4999 5C7.16853 5 6.8999 5.26863 6.8999 5.6C6.8999 5.93137 7.16853 6.2 7.4999 6.2Z" fill="#09204F"/>
</svg>
