<svg width="12" height="12" viewBox="0 0 12 12" fill="none" xmlns="http://www.w3.org/2000/svg">
<path fill-rule="evenodd" clip-rule="evenodd" d="M3.77768 0.399902C4.10905 0.399902 4.37768 0.668532 4.37768 0.999902V2.66657C4.37768 3.12038 4.1974 3.55561 3.87651 3.87651C3.55561 4.1974 3.12038 4.37768 2.66657 4.37768H0.999902C0.668532 4.37768 0.399902 4.10905 0.399902 3.77768C0.399902 3.44631 0.668532 3.17768 0.999902 3.17768H2.66657C2.80212 3.17768 2.93213 3.12383 3.02798 3.02798C3.12383 2.93213 3.17768 2.80212 3.17768 2.66657V0.999902C3.17768 0.668532 3.44631 0.399902 3.77768 0.399902ZM8.22212 0.399902C8.5535 0.399902 8.82213 0.668532 8.82213 0.999902V2.66657C8.82213 2.80212 8.87597 2.93213 8.97183 3.02798C9.06768 3.12383 9.19768 3.17768 9.33324 3.17768H10.9999C11.3313 3.17768 11.5999 3.44631 11.5999 3.77768C11.5999 4.10905 11.3313 4.37768 10.9999 4.37768H9.33324C8.87942 4.37768 8.44419 4.1974 8.1233 3.87651C7.8024 3.55561 7.62212 3.12038 7.62212 2.66657V0.999902C7.62212 0.668532 7.89075 0.399902 8.22212 0.399902ZM0.399902 8.22212C0.399902 7.89075 0.668532 7.62212 0.999902 7.62212H2.66657C3.12038 7.62212 3.55561 7.8024 3.87651 8.1233C4.1974 8.44419 4.37768 8.87942 4.37768 9.33324V10.9999C4.37768 11.3313 4.10905 11.5999 3.77768 11.5999C3.44631 11.5999 3.17768 11.3313 3.17768 10.9999V9.33324C3.17768 9.19768 3.12383 9.06768 3.02798 8.97183C2.93213 8.87597 2.80212 8.82213 2.66657 8.82213H0.999902C0.668532 8.82213 0.399902 8.5535 0.399902 8.22212ZM9.33324 8.82213C9.19768 8.82213 9.06768 8.87597 8.97183 8.97183C8.87597 9.06768 8.82213 9.19768 8.82213 9.33324V10.9999C8.82213 11.3313 8.5535 11.5999 8.22212 11.5999C7.89075 11.5999 7.62212 11.3313 7.62212 10.9999V9.33324C7.62212 8.87942 7.8024 8.44419 8.1233 8.1233C8.44419 7.8024 8.87942 7.62212 9.33324 7.62212H10.9999C11.3313 7.62212 11.5999 7.89075 11.5999 8.22212C11.5999 8.5535 11.3313 8.82213 10.9999 8.82213H9.33324Z" fill="#09204F"/>
</svg>
