<svg width="12" height="12" viewBox="0 0 12 12" fill="none" xmlns="http://www.w3.org/2000/svg">
<g clip-path="url(#clip0)">
<path fill-rule="evenodd" clip-rule="evenodd" d="M1.2 6C1.2 8.65097 3.34903 10.8 6 10.8C8.65097 10.8 10.8 8.65097 10.8 6C10.8 3.34903 8.65097 1.2 6 1.2C3.34903 1.2 1.2 3.34903 1.2 6ZM6 12C2.68629 12 0 9.31371 0 6C0 2.68629 2.68629 0 6 0C9.31371 0 12 2.68629 12 6C12 9.31371 9.31371 12 6 12Z" fill="#09204F"/>
<path fill-rule="evenodd" clip-rule="evenodd" d="M3.3999 6.12134C3.3999 5.78997 3.66852 5.52134 3.9999 5.52134L8.24254 5.52134C8.57391 5.52134 8.84254 5.78997 8.84254 6.12134C8.84254 6.45271 8.57391 6.72134 8.24254 6.72134L3.9999 6.72134C3.66852 6.72134 3.3999 6.45271 3.3999 6.12134Z" fill="#09204F"/>
</g>
<defs>
<clipPath id="clip0">
<rect width="12" height="12" fill="white" transform="translate(12) rotate(90)"/>
</clipPath>
</defs>
</svg>
