<svg width="12" height="12" viewBox="0 0 12 12" fill="none" xmlns="http://www.w3.org/2000/svg">
<path fill-rule="evenodd" clip-rule="evenodd" d="M5.5999 6.0001C5.5999 6.0139 5.6111 6.0251 5.6249 6.0251C5.63871 6.0251 5.6499 6.0139 5.6499 6.0001C5.6499 5.98629 5.63871 5.9751 5.6249 5.9751C5.6111 5.9751 5.5999 5.98629 5.5999 6.0001ZM5.6249 7.2251C4.94835 7.2251 4.3999 6.67665 4.3999 6.0001C4.3999 5.32355 4.94835 4.7751 5.6249 4.7751C6.30145 4.7751 6.8499 5.32355 6.8499 6.0001C6.8499 6.67665 6.30145 7.2251 5.6249 7.2251Z" fill="#09204F"/>
<path fill-rule="evenodd" clip-rule="evenodd" d="M5.5999 1.6251C5.5999 1.6389 5.6111 1.6501 5.6249 1.6501C5.63871 1.6501 5.6499 1.6389 5.6499 1.6251C5.6499 1.61129 5.63871 1.6001 5.6249 1.6001C5.6111 1.6001 5.5999 1.61129 5.5999 1.6251ZM5.6249 2.8501C4.94835 2.8501 4.3999 2.30165 4.3999 1.6251C4.3999 0.948549 4.94835 0.400098 5.6249 0.400098C6.30145 0.400098 6.8499 0.948549 6.8499 1.6251C6.8499 2.30165 6.30145 2.8501 5.6249 2.8501Z" fill="#09204F"/>
<path fill-rule="evenodd" clip-rule="evenodd" d="M5.5999 10.3751C5.5999 10.3889 5.6111 10.4001 5.6249 10.4001C5.63871 10.4001 5.6499 10.3889 5.6499 10.3751C5.6499 10.3613 5.63871 10.3501 5.6249 10.3501C5.6111 10.3501 5.5999 10.3613 5.5999 10.3751ZM5.6249 11.6001C4.94835 11.6001 4.3999 11.0516 4.3999 10.3751C4.3999 9.69855 4.94835 9.1501 5.6249 9.1501C6.30145 9.1501 6.8499 9.69855 6.8499 10.3751C6.8499 11.0516 6.30145 11.6001 5.6249 11.6001Z" fill="#09204F"/>
</svg>
