<svg width="12" height="12" viewBox="0 0 12 12" fill="none" xmlns="http://www.w3.org/2000/svg">
<path fill-rule="evenodd" clip-rule="evenodd" d="M5.9999 5.5999C5.9861 5.5999 5.9749 5.6111 5.9749 5.6249C5.9749 5.63871 5.9861 5.6499 5.9999 5.6499C6.01371 5.6499 6.0249 5.63871 6.0249 5.6249C6.0249 5.6111 6.01371 5.5999 5.9999 5.5999ZM4.7749 5.6249C4.7749 4.94835 5.32335 4.3999 5.9999 4.3999C6.67645 4.3999 7.2249 4.94835 7.2249 5.6249C7.2249 6.30145 6.67645 6.8499 5.9999 6.8499C5.32335 6.8499 4.7749 6.30145 4.7749 5.6249Z" fill="#09204F"/>
<path fill-rule="evenodd" clip-rule="evenodd" d="M10.3749 5.5999C10.3611 5.5999 10.3499 5.6111 10.3499 5.6249C10.3499 5.63871 10.3611 5.6499 10.3749 5.6499C10.3887 5.6499 10.3999 5.63871 10.3999 5.6249C10.3999 5.6111 10.3887 5.5999 10.3749 5.5999ZM9.1499 5.6249C9.1499 4.94835 9.69835 4.3999 10.3749 4.3999C11.0515 4.3999 11.5999 4.94835 11.5999 5.6249C11.5999 6.30145 11.0515 6.8499 10.3749 6.8499C9.69835 6.8499 9.1499 6.30145 9.1499 5.6249Z" fill="#09204F"/>
<path fill-rule="evenodd" clip-rule="evenodd" d="M1.6249 5.5999C1.6111 5.5999 1.5999 5.6111 1.5999 5.6249C1.5999 5.63871 1.6111 5.6499 1.6249 5.6499C1.63871 5.6499 1.6499 5.63871 1.6499 5.6249C1.6499 5.6111 1.63871 5.5999 1.6249 5.5999ZM0.399902 5.6249C0.399902 4.94835 0.948354 4.3999 1.6249 4.3999C2.30145 4.3999 2.8499 4.94835 2.8499 5.6249C2.8499 6.30145 2.30145 6.8499 1.6249 6.8499C0.948354 6.8499 0.399902 6.30145 0.399902 5.6249Z" fill="#09204F"/>
</svg>
