<svg width="12" height="12" viewBox="0 0 12 12" fill="none" xmlns="http://www.w3.org/2000/svg">
<path fill-rule="evenodd" clip-rule="evenodd" d="M3.4999 1.5999C3.27899 1.5999 3.0999 1.77899 3.0999 1.9999V9.9999C3.0999 10.2208 3.27899 10.3999 3.4999 10.3999H8.4999C8.72082 10.3999 8.8999 10.2208 8.8999 9.9999V1.9999C8.8999 1.77899 8.72082 1.5999 8.4999 1.5999H3.4999ZM1.8999 1.9999C1.8999 1.11625 2.61625 0.399902 3.4999 0.399902H8.4999C9.38356 0.399902 10.0999 1.11625 10.0999 1.9999V9.9999C10.0999 10.8836 9.38356 11.5999 8.4999 11.5999H3.4999C2.61625 11.5999 1.8999 10.8836 1.8999 9.9999V1.9999Z" fill="#09204F"/>
<path d="M6.5999 8.79995C6.5999 9.13132 6.33127 9.39995 5.9999 9.39995C5.66853 9.39995 5.3999 9.13132 5.3999 8.79995C5.3999 8.46858 5.66853 8.19995 5.9999 8.19995C6.33127 8.19995 6.5999 8.46858 6.5999 8.79995Z" fill="#09204F"/>
</svg>
