<svg width="12" height="12" viewBox="0 0 12 12" fill="none" xmlns="http://www.w3.org/2000/svg">
<path fill-rule="evenodd" clip-rule="evenodd" d="M4.54978 1.17512C4.68231 1.47883 4.54355 1.83248 4.23984 1.96501C3.5811 2.25247 3.00282 2.69692 2.55554 3.25951C2.10825 3.82209 1.80559 4.48568 1.67402 5.19225C1.54244 5.89883 1.58596 6.62688 1.80076 7.31275C2.01555 7.99862 2.3951 8.62144 2.9062 9.12674C3.41731 9.63204 4.04442 10.0045 4.7327 10.2114C5.42098 10.4184 6.14948 10.4536 6.85451 10.3139C7.55953 10.1743 8.21962 9.86406 8.77706 9.41039C9.3345 8.95671 9.77232 8.37338 10.0522 7.71141C10.1813 7.40621 10.5333 7.26341 10.8385 7.39247C11.1437 7.52153 11.2865 7.87357 11.1575 8.17877C10.8012 9.02128 10.244 9.76369 9.53454 10.3411C8.82507 10.9185 7.98496 11.3133 7.08765 11.4911C6.19034 11.6688 5.26316 11.624 4.38717 11.3606C3.51117 11.0972 2.71303 10.6232 2.06253 9.9801C1.41204 9.33699 0.92898 8.54432 0.6556 7.67139C0.382219 6.79846 0.326838 5.87185 0.494299 4.97257C0.661759 4.07329 1.04696 3.22873 1.61623 2.51271C2.1855 1.7967 2.9215 1.23103 3.75988 0.865174C4.0636 0.732639 4.41724 0.871405 4.54978 1.17512Z" fill="#09204F"/>
<path fill-rule="evenodd" clip-rule="evenodd" d="M5.57564 0.575638C5.68816 0.463116 5.84077 0.399902 5.9999 0.399902C6.7353 0.399902 7.46351 0.544751 8.14293 0.826177C8.82235 1.1076 9.43969 1.5201 9.9597 2.0401C10.4797 2.56011 10.8922 3.17745 11.1736 3.85687C11.4551 4.5363 11.5999 5.2645 11.5999 5.9999C11.5999 6.33127 11.3313 6.5999 10.9999 6.5999H5.9999C5.66853 6.5999 5.3999 6.33127 5.3999 5.9999V0.999902C5.3999 0.840772 5.46312 0.68816 5.57564 0.575638ZM6.5999 1.641V5.3999H10.3588C10.3077 5.02838 10.2091 4.66409 10.065 4.31609C9.84385 3.78226 9.51975 3.29721 9.11117 2.88863C8.70259 2.48005 8.21754 2.15595 7.68371 1.93483C7.33571 1.79069 6.97143 1.69214 6.5999 1.641Z" fill="#09204F"/>
</svg>
