<svg width="12" height="12" viewBox="0 0 12 12" fill="none" xmlns="http://www.w3.org/2000/svg">
<path fill-rule="evenodd" clip-rule="evenodd" d="M6.09081 1.5999C5.16496 1.5999 4.27704 1.96769 3.62237 2.62237C2.96769 3.27704 2.5999 4.16496 2.5999 5.09081C2.5999 6.44056 3.48207 7.77154 4.48093 8.82589C4.96809 9.34012 5.45728 9.76158 5.82536 10.0547C5.92363 10.1329 6.01292 10.2018 6.09081 10.2605C6.1687 10.2018 6.25799 10.1329 6.35626 10.0547C6.72434 9.76158 7.21353 9.34012 7.70069 8.82589C8.69955 7.77154 9.58172 6.44056 9.58172 5.09081C9.58172 4.16496 9.21393 3.27704 8.55926 2.62237C7.90458 1.96769 7.01666 1.5999 6.09081 1.5999ZM6.09081 10.9999C5.75799 11.4991 5.75784 11.499 5.75768 11.4989L5.75619 11.4979L5.7529 11.4957L5.74196 11.4883L5.70325 11.4617C5.67022 11.4389 5.62304 11.4057 5.56374 11.3629C5.44518 11.2773 5.27781 11.1526 5.07785 10.9934C4.67888 10.6757 4.14535 10.2165 3.60979 9.65119C2.56319 8.54644 1.3999 6.92289 1.3999 5.09081C1.3999 3.8467 1.89412 2.65355 2.77384 1.77384C3.65355 0.894122 4.8467 0.399902 6.09081 0.399902C7.33492 0.399902 8.52807 0.894122 9.40778 1.77384C10.2875 2.65355 10.7817 3.8467 10.7817 5.09081C10.7817 6.92289 9.61843 8.54644 8.57184 9.65119C8.03627 10.2165 7.50274 10.6757 7.10377 10.9934C6.90381 11.1526 6.73644 11.2773 6.61789 11.3629C6.55858 11.4057 6.5114 11.4389 6.47837 11.4617L6.43966 11.4883L6.42872 11.4957L6.42543 11.4979L6.42434 11.4987C6.42418 11.4988 6.42363 11.4991 6.09081 10.9999ZM6.09081 10.9999L6.42434 11.4987C6.22281 11.633 5.95922 11.6333 5.75768 11.4989L6.09081 10.9999Z" fill="#09204F"/>
<path fill-rule="evenodd" clip-rule="evenodd" d="M6.09083 4.3272C5.66909 4.3272 5.3272 4.66909 5.3272 5.09083C5.3272 5.51258 5.66909 5.85447 6.09083 5.85447C6.51258 5.85447 6.85447 5.51258 6.85447 5.09083C6.85447 4.66909 6.51258 4.3272 6.09083 4.3272ZM4.1272 5.09083C4.1272 4.00635 5.00635 3.1272 6.09083 3.1272C7.17532 3.1272 8.05447 4.00635 8.05447 5.09083C8.05447 6.17532 7.17532 7.05447 6.09083 7.05447C5.00635 7.05447 4.1272 6.17532 4.1272 5.09083Z" fill="#09204F"/>
</svg>
