<svg width="12" height="12" viewBox="0 0 12 12" fill="none" xmlns="http://www.w3.org/2000/svg">
<path fill-rule="evenodd" clip-rule="evenodd" d="M1.3999 6C1.3999 5.66863 1.66852 5.4 1.9999 5.4L10.4852 5.4C10.8165 5.4 11.0852 5.66863 11.0852 6C11.0852 6.33137 10.8165 6.6 10.4852 6.6L1.9999 6.6C1.66852 6.6 1.3999 6.33137 1.3999 6Z" fill="#09204F"/>
<path fill-rule="evenodd" clip-rule="evenodd" d="M6.24254 1.15736C6.57391 1.15736 6.84254 1.42599 6.84254 1.75736V10.2426C6.84254 10.574 6.57391 10.8426 6.24254 10.8426C5.91117 10.8426 5.64254 10.574 5.64254 10.2426V1.75736C5.64254 1.42599 5.91117 1.15736 6.24254 1.15736Z" fill="#09204F"/>
</svg>
