<svg width="12" height="12" viewBox="0 0 12 12" fill="none" xmlns="http://www.w3.org/2000/svg">
<path fill-rule="evenodd" clip-rule="evenodd" d="M2.3999 6C2.3999 5.66863 2.66852 5.4 2.9999 5.4L8.65675 5.4C8.98812 5.4 9.25675 5.66863 9.25675 6C9.25675 6.33137 8.98812 6.6 8.65675 6.6L2.9999 6.6C2.66852 6.6 2.3999 6.33137 2.3999 6Z" fill="#09204F"/>
<path fill-rule="evenodd" clip-rule="evenodd" d="M5.82832 2.57157C6.15969 2.57157 6.42832 2.8402 6.42832 3.17157V8.82843C6.42832 9.1598 6.15969 9.42843 5.82832 9.42843C5.49695 9.42843 5.22832 9.1598 5.22832 8.82843V3.17157C5.22832 2.8402 5.49695 2.57157 5.82832 2.57157Z" fill="#09204F"/>
</svg>
