<svg width="12" height="12" viewBox="0 0 12 12" fill="none" xmlns="http://www.w3.org/2000/svg">
<path fill-rule="evenodd" clip-rule="evenodd" d="M3.23916 2.89564C3.47351 3.12991 3.47357 3.50981 3.2393 3.74417C2.694 4.28964 2.32269 4.98456 2.17231 5.74105C2.02193 6.49754 2.09924 7.28163 2.39445 7.99419C2.68967 8.70675 3.18955 9.31577 3.83087 9.74425C4.4722 10.1727 5.22617 10.4014 5.99746 10.4014C6.76876 10.4014 7.52273 10.1727 8.16406 9.74425C8.80538 9.31577 9.30525 8.70675 9.60047 7.99419C9.89569 7.28163 9.973 6.49754 9.82262 5.74105C9.67224 4.98456 9.30093 4.28964 8.75563 3.74417C8.52135 3.50981 8.52142 3.12991 8.75577 2.89564C8.99012 2.66136 9.37002 2.66142 9.6043 2.89578C10.3174 3.60909 10.8029 4.51783 10.9996 5.50708C11.1962 6.49634 11.0951 7.5217 10.7091 8.4535C10.323 9.38531 9.66935 10.1817 8.8307 10.742C7.99204 11.3024 7.00608 11.6014 5.99746 11.6014C4.98885 11.6014 4.00288 11.3024 3.16423 10.742C2.32557 10.1817 1.67189 9.38531 1.28584 8.4535C0.899781 7.5217 0.798687 6.49634 0.995337 5.50708C1.19199 4.51783 1.67755 3.60909 2.39063 2.89578C2.62491 2.66142 3.00481 2.66136 3.23916 2.89564Z" fill="#09204F"/>
<path fill-rule="evenodd" clip-rule="evenodd" d="M6.00002 0.399902C6.3314 0.399902 6.60002 0.668532 6.60002 0.999902V5.9999C6.60002 6.33127 6.3314 6.5999 6.00002 6.5999C5.66865 6.5999 5.40002 6.33127 5.40002 5.9999V0.999902C5.40002 0.668532 5.66865 0.399902 6.00002 0.399902Z" fill="#09204F"/>
</svg>
