<svg width="12" height="12" viewBox="0 0 12 12" fill="none" xmlns="http://www.w3.org/2000/svg">
<path fill-rule="evenodd" clip-rule="evenodd" d="M2.27505 4.45C3.09091 4.45 3.75005 3.79086 3.75005 2.975C3.75005 2.15914 3.09091 1.5 2.27505 1.5C1.45919 1.5 0.800049 2.15914 0.800049 2.975C0.800049 3.79086 1.45919 4.45 2.27505 4.45ZM9.65008 1.5C8.83422 1.5 8.17508 2.15914 8.17508 2.975C8.17508 3.79086 8.83422 4.45 9.65008 4.45C10.4659 4.45 11.1251 3.79086 11.1251 2.975C11.1251 2.15914 10.4659 1.5 9.65008 1.5ZM2.84494 8.13748H9.08016C9.6886 8.13748 10.1864 8.6353 10.1864 9.24373C10.1864 9.85217 9.6886 10.35 9.08016 10.35H2.84494C2.2365 10.35 1.73869 9.85217 1.73869 9.24373C1.73869 8.6353 2.2365 8.13748 2.84494 8.13748Z" fill="#09204F"/>
</svg>
