<svg width="12" height="12" viewBox="0 0 12 12" fill="none" xmlns="http://www.w3.org/2000/svg">
<path fill-rule="evenodd" clip-rule="evenodd" d="M2.64614 4.19218C3.39069 4.19218 3.99223 3.59064 3.99223 2.84609C3.99223 2.10153 3.39069 1.5 2.64614 1.5C1.90158 1.5 1.30005 2.10153 1.30005 2.84609C1.30005 3.59064 1.90158 4.19218 2.64614 4.19218ZM9.37653 4.19218C10.1211 4.19218 10.7226 3.59064 10.7226 2.84609C10.7226 2.10153 10.1211 1.5 9.37653 1.5C8.63197 1.5 8.03044 2.10153 8.03044 2.84609C8.03044 3.59064 8.63197 4.19218 9.37653 4.19218ZM3.92013 7.69108C3.52907 7.30002 2.89504 7.30002 2.50398 7.69108C2.11292 8.08213 2.11292 8.71617 2.50398 9.10722C3.33653 9.93977 4.53284 10.35 6.06056 10.35C7.58828 10.35 8.78459 9.93977 9.61714 9.10722C10.0082 8.71617 10.0082 8.08213 9.61714 7.69108C9.22608 7.30002 8.59205 7.30002 8.20099 7.69108C7.7697 8.12237 7.06502 8.34728 6.06056 8.34728C5.0561 8.34728 4.35142 8.12237 3.92013 7.69108Z" fill="#09204F"/>
</svg>
