<svg width="12" height="12" viewBox="0 0 12 12" fill="none" xmlns="http://www.w3.org/2000/svg">
<g clip-path="url(#clip0)">
<path fill-rule="evenodd" clip-rule="evenodd" d="M5.01685 3.67048C5.16694 3.16885 4.88255 2.63958 4.38093 2.48948L1.22108 1.54153C0.715504 1.38749 0.190179 1.67582 0.0400866 2.17745C-0.110006 2.67907 0.17438 3.20835 0.676006 3.35844L1.78985 3.69417C1.66741 3.88772 1.58051 4.10495 1.58051 4.34984C1.58051 5.04896 2.14533 5.61378 2.84445 5.61378C3.54357 5.61378 4.10839 5.04501 4.10839 4.34589C4.51522 4.34589 4.8944 4.08126 5.01685 3.67048ZM6.00425 7.18974C4.67711 7.18974 3.42897 7.77431 2.57582 8.79336C2.24008 9.19624 2.29538 9.79266 2.69826 10.1284C3.10114 10.4641 3.69756 10.4128 4.03329 10.0099C5.01285 8.83681 6.99565 8.83681 7.9752 10.0099C8.29514 10.393 8.89156 10.4799 9.31024 10.1284C9.71312 9.79266 9.76447 9.19624 9.43268 8.79336C8.57952 7.77431 7.33138 7.18974 6.00425 7.18974ZM10.7875 1.54155C11.2931 1.39146 11.8184 1.67585 11.9685 2.17747C12.1186 2.6791 11.8342 3.20837 11.3326 3.35451L10.2187 3.69025C10.3412 3.88379 10.4281 4.10103 10.4281 4.34592C10.4281 5.04503 9.86323 5.60986 9.16411 5.60986C8.465 5.60986 7.90017 5.04503 7.90017 4.34592C7.49334 4.34592 7.11416 4.08128 6.99172 3.6705C6.84162 3.16887 7.12601 2.6396 7.62764 2.48951L10.7875 1.54155Z" fill="#09204F"/>
</g>
<defs>
<clipPath id="clip0">
<rect width="12" height="12" fill="white" transform="translate(12) rotate(90)"/>
</clipPath>
</defs>
</svg>
