<svg width="12" height="12" viewBox="0 0 12 12" fill="none" xmlns="http://www.w3.org/2000/svg">
<g clip-path="url(#clip0)">
<path fill-rule="evenodd" clip-rule="evenodd" d="M0.500024 1.3999C0.831395 1.3999 1.10002 1.66853 1.10002 1.9999V4.3999H3.50002C3.8314 4.3999 4.10002 4.66853 4.10002 4.9999C4.10002 5.33127 3.8314 5.5999 3.50002 5.5999H0.500024C0.168654 5.5999 -0.0999756 5.33127 -0.0999756 4.9999V1.9999C-0.0999756 1.66853 0.168654 1.3999 0.500024 1.3999Z" fill="#09204F"/>
<path fill-rule="evenodd" clip-rule="evenodd" d="M7.90002 6.9999C7.90002 6.66853 8.16865 6.3999 8.50002 6.3999H11.5C11.8314 6.3999 12.1 6.66853 12.1 6.9999V9.9999C12.1 10.3313 11.8314 10.5999 11.5 10.5999C11.1687 10.5999 10.9 10.3313 10.9 9.9999V7.5999H8.50002C8.16865 7.5999 7.90002 7.33127 7.90002 6.9999Z" fill="#09204F"/>
<path fill-rule="evenodd" clip-rule="evenodd" d="M4.58571 1.10195C5.41329 0.862576 6.28803 0.836741 7.12829 1.02686C7.96856 1.21698 8.74697 1.61686 9.39089 2.18919C10.0348 2.76151 10.5233 3.48763 10.8107 4.29978C10.9212 4.61217 10.7576 4.95503 10.4452 5.06557C10.1328 5.17611 9.78994 5.01249 9.6794 4.7001C9.45962 4.07904 9.08611 3.52377 8.59369 3.08611C8.10128 2.64845 7.50603 2.34266 6.86347 2.19728C6.22092 2.05189 5.552 2.07165 4.91915 2.2547C4.28629 2.43775 3.71012 2.77814 3.2444 3.2441L3.23089 3.25719L0.910892 5.43719C0.669405 5.66411 0.289689 5.65229 0.0627744 5.41081C-0.164141 5.16932 -0.152327 4.7896 0.0891603 4.56269L2.40252 2.38893C3.01034 1.78311 3.76124 1.34043 4.58571 1.10195ZM11.9373 6.58907C12.1642 6.83056 12.1524 7.21028 11.9109 7.43719L9.59755 9.61094C8.98973 10.2168 8.23882 10.6594 7.41434 10.8979C6.58676 11.1373 5.71202 11.1631 4.87176 10.973C4.03149 10.7829 3.25308 10.383 2.60916 9.81069C1.96524 9.23837 1.47679 8.51225 1.1894 7.7001C1.07885 7.38771 1.24248 7.04485 1.55487 6.93431C1.86726 6.82377 2.21011 6.98739 2.32066 7.29978C2.54043 7.92084 2.91395 8.47611 3.40636 8.91377C3.89877 9.35143 4.49402 9.65722 5.13658 9.8026C5.77914 9.94799 6.44805 9.92824 7.0809 9.74518C7.71376 9.56213 8.28993 9.22174 8.75566 8.75578L8.76916 8.74269L11.0892 6.56269C11.3306 6.33577 11.7104 6.34759 11.9373 6.58907Z" fill="#09204F"/>
</g>
<defs>
<clipPath id="clip0">
<rect width="12" height="12" fill="white"/>
</clipPath>
</defs>
</svg>
