<svg width="12" height="12" viewBox="0 0 12 12" fill="none" xmlns="http://www.w3.org/2000/svg">
<g clip-path="url(#clip0)">
<path fill-rule="evenodd" clip-rule="evenodd" d="M11.5 1.3999C11.8314 1.3999 12.1 1.66853 12.1 1.9999V4.9999C12.1 5.33127 11.8314 5.5999 11.5 5.5999H8.50002C8.16865 5.5999 7.90002 5.33127 7.90002 4.9999C7.90002 4.66853 8.16865 4.3999 8.50002 4.3999H10.9V1.9999C10.9 1.66853 11.1687 1.3999 11.5 1.3999Z" fill="#09204F"/>
<path fill-rule="evenodd" clip-rule="evenodd" d="M6.54968 2.13954C5.71247 2.02078 4.85934 2.17735 4.11885 2.58565C3.37837 2.99395 2.79064 3.63185 2.44424 4.40324C2.09784 5.17462 2.01153 6.03769 2.19833 6.8624C2.38512 7.6871 2.83489 8.42875 3.47986 8.9756C4.12483 9.52244 4.93007 9.84484 5.77422 9.89423C6.61837 9.94361 7.4557 9.7173 8.16004 9.24939C8.86437 8.78149 9.39756 8.09734 9.67924 7.30004C9.78962 6.9876 10.1324 6.82379 10.4448 6.93418C10.7573 7.04456 10.9211 7.38734 10.8107 7.69978C10.4423 8.7424 9.74511 9.63706 8.82405 10.2489C7.903 10.8608 6.80802 11.1568 5.70413 11.0922C4.60025 11.0276 3.54725 10.606 2.70382 9.89089C1.8604 9.17579 1.27224 8.20594 1.02797 7.12748C0.783703 6.04902 0.896566 4.92039 1.34955 3.91165C1.80254 2.90292 2.5711 2.06874 3.53943 1.53481C4.50776 1.00088 5.62339 0.796137 6.71821 0.951428C7.80993 1.10628 8.82197 1.61077 9.60273 2.38915L11.9113 4.5631C12.1525 4.79028 12.164 5.17 11.9368 5.41125C11.7096 5.65249 11.3299 5.66389 11.0886 5.43672L8.77363 3.25672L8.76057 3.24404C8.16283 2.64593 7.3869 2.25829 6.54968 2.13954Z" fill="#09204F"/>
</g>
<defs>
<clipPath id="clip0">
<rect width="12" height="12" fill="white"/>
</clipPath>
</defs>
</svg>
