<svg width="12" height="12" viewBox="0 0 12 12" fill="none" xmlns="http://www.w3.org/2000/svg">
<path fill-rule="evenodd" clip-rule="evenodd" d="M1.3999 5.4999C1.3999 5.16853 1.66853 4.8999 1.9999 4.8999C3.35251 4.8999 4.64971 5.43722 5.60615 6.39366C6.56258 7.35009 7.0999 8.6473 7.0999 9.9999C7.0999 10.3313 6.83127 10.5999 6.4999 10.5999C6.16853 10.5999 5.8999 10.3313 5.8999 9.9999C5.8999 8.96556 5.48901 7.97358 4.75762 7.24219C4.02623 6.51079 3.03425 6.0999 1.9999 6.0999C1.66853 6.0999 1.3999 5.83127 1.3999 5.4999Z" fill="#09204F"/>
<path fill-rule="evenodd" clip-rule="evenodd" d="M1.3999 1.9999C1.3999 1.66853 1.66853 1.3999 1.9999 1.3999C4.28076 1.3999 6.46821 2.30597 8.08102 3.91878C9.69383 5.5316 10.5999 7.71904 10.5999 9.9999C10.5999 10.3313 10.3313 10.5999 9.9999 10.5999C9.66853 10.5999 9.3999 10.3313 9.3999 9.9999C9.3999 8.0373 8.62026 6.15508 7.23249 4.76731C5.84472 3.37954 3.9625 2.5999 1.9999 2.5999C1.66853 2.5999 1.3999 2.33127 1.3999 1.9999Z" fill="#09204F"/>
<path fill-rule="evenodd" clip-rule="evenodd" d="M2.4999 9.5999C2.55513 9.5999 2.5999 9.55513 2.5999 9.4999C2.5999 9.44467 2.55513 9.3999 2.4999 9.3999C2.44467 9.3999 2.3999 9.44467 2.3999 9.4999C2.3999 9.55513 2.44467 9.5999 2.4999 9.5999ZM1.3999 9.4999C1.3999 8.89239 1.89239 8.3999 2.4999 8.3999C3.10742 8.3999 3.5999 8.89239 3.5999 9.4999C3.5999 10.1074 3.10742 10.5999 2.4999 10.5999C1.89239 10.5999 1.3999 10.1074 1.3999 9.4999Z" fill="#09204F"/>
</svg>
