<svg width="12" height="12" viewBox="0 0 12 12" fill="none" xmlns="http://www.w3.org/2000/svg">
<path fill-rule="evenodd" clip-rule="evenodd" d="M11.4242 0.575638C11.6585 0.809953 11.6585 1.18985 11.4242 1.42417L5.92417 6.92417C5.68985 7.15848 5.30995 7.15848 5.07564 6.92417C4.84132 6.68985 4.84132 6.30995 5.07564 6.07564L10.5756 0.575638C10.81 0.341324 11.1899 0.341324 11.4242 0.575638Z" fill="#09204F"/>
<path fill-rule="evenodd" clip-rule="evenodd" d="M11.4242 0.575655C11.5872 0.738638 11.6424 0.980577 11.5662 1.19813L8.06622 11.1981C7.98495 11.4303 7.77017 11.5894 7.52436 11.5994C7.27856 11.6094 7.05153 11.4684 6.95162 11.2436L5.04534 6.95448L0.756222 5.04821C0.531414 4.94829 0.390376 4.72127 0.400404 4.47546C0.410432 4.22965 0.569495 4.01487 0.801695 3.9336L10.8017 0.433604C11.0192 0.357461 11.2612 0.412672 11.4242 0.575655ZM2.62655 4.56628L5.74359 5.95163C5.87933 6.01196 5.98786 6.1205 6.04819 6.25624L7.43354 9.37327L10.0219 1.9779L2.62655 4.56628Z" fill="#09204F"/>
</svg>
