<svg width="12" height="12" viewBox="0 0 12 12" fill="none" xmlns="http://www.w3.org/2000/svg">
<path d="M4.23138 1.75163C4.23138 1.05927 4.79846 0.5 5.49257 0.5H6.50721C7.20257 0.5 7.76839 1.05824 7.76839 1.75163V2.0935C8.04519 2.21087 8.30848 2.35667 8.55413 2.52819L8.85206 2.35869C9.45355 2.01649 10.2233 2.2194 10.5719 2.8143L11.0792 3.68018C11.4309 4.28047 11.2218 5.04777 10.6151 5.39293L10.3511 5.54311C10.3675 5.69414 10.3757 5.84659 10.3757 6C10.3757 6.15341 10.3675 6.30586 10.3511 6.45689L10.6151 6.60707C11.2218 6.95223 11.4309 7.71953 11.0792 8.31982L10.5719 9.1857C10.2233 9.7806 9.45355 9.98351 8.85206 9.64131L8.55413 9.47181C8.30848 9.64333 8.04519 9.78913 7.76839 9.9065V10.2484C7.76839 10.9407 7.20131 11.5 6.50721 11.5H5.49257C4.79721 11.5 4.23138 10.9418 4.23138 10.2484V9.84388C3.98246 9.72767 3.74555 9.58811 3.5238 9.42734L3.14772 9.64131C2.54623 9.98351 1.77646 9.7806 1.42791 9.1857L0.920587 8.31982C0.568879 7.71953 0.778018 6.95223 1.38471 6.60707L1.7818 6.38115C1.77042 6.25494 1.76469 6.1278 1.76469 6C1.76469 5.8722 1.77042 5.74506 1.7818 5.61885L1.38471 5.39293C0.778018 5.04777 0.568879 4.28047 0.920587 3.68018L1.42791 2.8143C1.77646 2.2194 2.54623 2.01649 3.14772 2.35869L3.5238 2.57266C3.74555 2.41189 3.98246 2.27233 4.23138 2.15612V1.75163ZM5.23138 2.48865C5.23138 2.69781 5.10119 2.88487 4.90506 2.95752C4.53475 3.09469 4.19281 3.29667 3.89507 3.55274C3.73489 3.69049 3.50542 3.71271 3.32179 3.60824L2.65322 3.22787C2.52589 3.15543 2.36167 3.19872 2.29072 3.31982L1.7834 4.1857C1.71439 4.30349 1.75519 4.4532 1.87921 4.52376L2.56879 4.91607C2.75263 5.02066 2.85077 5.22961 2.81387 5.43788C2.78124 5.62208 2.76469 5.80989 2.76469 6C2.76469 6.19011 2.78124 6.37792 2.81387 6.56212C2.85077 6.77039 2.75263 6.97934 2.56879 7.08393L1.87921 7.47624C1.75519 7.5468 1.71439 7.69651 1.7834 7.8143L2.29072 8.68018C2.36167 8.80128 2.52589 8.84457 2.65322 8.77213L3.32179 8.39176C3.50542 8.28729 3.73489 8.30951 3.89507 8.44726C4.19281 8.70333 4.53475 8.90531 4.90506 9.04248C5.10119 9.11513 5.23138 9.30219 5.23138 9.51135V10.2484C5.23138 10.3864 5.34649 10.5 5.49257 10.5H6.50721C6.65211 10.5 6.76839 10.3853 6.76839 10.2484V9.56035C6.76839 9.34402 6.90752 9.15222 7.11316 9.08506C7.5096 8.95557 7.87677 8.75281 8.19613 8.48878C8.3562 8.35643 8.58144 8.33683 8.76197 8.43954L9.34656 8.77213C9.47389 8.84457 9.6381 8.80128 9.70906 8.68018L10.2164 7.8143C10.2854 7.69651 10.2446 7.5468 10.1206 7.47624L9.55808 7.15623C9.37106 7.04983 9.27308 6.8357 9.31484 6.62462C9.35522 6.42049 9.37573 6.21168 9.37573 6C9.37573 5.78832 9.35522 5.57951 9.31484 5.37538C9.27308 5.1643 9.37106 4.95017 9.55808 4.84377L10.1206 4.52376C10.2446 4.4532 10.2854 4.30349 10.2164 4.1857L9.70906 3.31982C9.6381 3.19872 9.47389 3.15543 9.34656 3.22787L8.76197 3.56046C8.58144 3.66317 8.3562 3.64357 8.19613 3.51122C7.87677 3.24719 7.5096 3.04443 7.11316 2.91494C6.90752 2.84778 6.76839 2.65598 6.76839 2.43965V1.75163C6.76839 1.61357 6.65329 1.5 6.50721 1.5H5.49257C5.34767 1.5 5.23138 1.61468 5.23138 1.75163V2.48865ZM5.99989 7.75C5.03339 7.75 4.24989 6.9665 4.24989 6C4.24989 5.0335 5.03339 4.25 5.99989 4.25C6.96639 4.25 7.74989 5.0335 7.74989 6C7.74989 6.9665 6.96639 7.75 5.99989 7.75ZM5.99989 6.75C6.4141 6.75 6.74989 6.41421 6.74989 6C6.74989 5.58579 6.4141 5.25 5.99989 5.25C5.58567 5.25 5.24989 5.58579 5.24989 6C5.24989 6.41421 5.58567 6.75 5.99989 6.75Z" fill="#09204F"/>
</svg>
