<svg width="12" height="12" viewBox="0 0 12 12" fill="none" xmlns="http://www.w3.org/2000/svg">
<path fill-rule="evenodd" clip-rule="evenodd" d="M8.9999 1.5999C8.50285 1.5999 8.0999 2.00285 8.0999 2.4999C8.0999 2.99696 8.50285 3.3999 8.9999 3.3999C9.49696 3.3999 9.8999 2.99696 9.8999 2.4999C9.8999 2.00285 9.49696 1.5999 8.9999 1.5999ZM6.8999 2.4999C6.8999 1.3401 7.8401 0.399902 8.9999 0.399902C10.1597 0.399902 11.0999 1.3401 11.0999 2.4999C11.0999 3.6597 10.1597 4.5999 8.9999 4.5999C7.8401 4.5999 6.8999 3.6597 6.8999 2.4999Z" fill="#09204F"/>
<path fill-rule="evenodd" clip-rule="evenodd" d="M2.9999 5.0999C2.50285 5.0999 2.0999 5.50285 2.0999 5.9999C2.0999 6.49696 2.50285 6.8999 2.9999 6.8999C3.49696 6.8999 3.8999 6.49696 3.8999 5.9999C3.8999 5.50285 3.49696 5.0999 2.9999 5.0999ZM0.899902 5.9999C0.899902 4.8401 1.8401 3.8999 2.9999 3.8999C4.1597 3.8999 5.0999 4.8401 5.0999 5.9999C5.0999 7.1597 4.1597 8.0999 2.9999 8.0999C1.8401 8.0999 0.899902 7.1597 0.899902 5.9999Z" fill="#09204F"/>
<path fill-rule="evenodd" clip-rule="evenodd" d="M8.9999 8.5999C8.50285 8.5999 8.0999 9.00285 8.0999 9.4999C8.0999 9.99696 8.50285 10.3999 8.9999 10.3999C9.49696 10.3999 9.8999 9.99696 9.8999 9.4999C9.8999 9.00285 9.49696 8.5999 8.9999 8.5999ZM6.8999 9.4999C6.8999 8.3401 7.8401 7.3999 8.9999 7.3999C10.1597 7.3999 11.0999 8.3401 11.0999 9.4999C11.0999 10.6597 10.1597 11.5999 8.9999 11.5999C7.8401 11.5999 6.8999 10.6597 6.8999 9.4999Z" fill="#09204F"/>
<path fill-rule="evenodd" clip-rule="evenodd" d="M3.77652 6.4528C3.94336 6.16649 4.3107 6.06964 4.59701 6.23648L8.01201 8.22648C8.29832 8.39332 8.39516 8.76066 8.22833 9.04697C8.06149 9.33328 7.69414 9.43013 7.40784 9.26329L3.99284 7.27329C3.70653 7.10645 3.60968 6.7391 3.77652 6.4528Z" fill="#09204F"/>
<path fill-rule="evenodd" clip-rule="evenodd" d="M8.22313 2.95247C8.39015 3.23867 8.29354 3.60607 8.00734 3.7731L4.59734 5.76309C4.31114 5.93012 3.94373 5.8335 3.77671 5.5473C3.60969 5.2611 3.7063 4.89369 3.9925 4.72667L7.4025 2.73667C7.68871 2.56965 8.05611 2.66626 8.22313 2.95247Z" fill="#09204F"/>
</svg>
