<svg width="12" height="12" viewBox="0 0 12 12" fill="none" xmlns="http://www.w3.org/2000/svg">
<path fill-rule="evenodd" clip-rule="evenodd" d="M7.20007 1.4999C7.20007 1.16853 7.4687 0.899902 7.80007 0.899902H10.3001C10.6314 0.899902 10.9001 1.16853 10.9001 1.4999V3.9999C10.9001 4.33127 10.6314 4.5999 10.3001 4.5999C9.9687 4.5999 9.70007 4.33127 9.70007 3.9999V2.0999H7.80007C7.4687 2.0999 7.20007 1.83127 7.20007 1.4999Z" fill="#09204F"/>
<path fill-rule="evenodd" clip-rule="evenodd" d="M10.7243 1.07564C10.9587 1.30995 10.9587 1.68985 10.7243 1.92417L2.22434 10.4242C1.99002 10.6585 1.61012 10.6585 1.37581 10.4242C1.14149 10.1899 1.14149 9.80995 1.37581 9.57564L9.87581 1.07564C10.1101 0.841324 10.49 0.841324 10.7243 1.07564Z" fill="#09204F"/>
<path fill-rule="evenodd" clip-rule="evenodd" d="M10.3001 7.3999C10.6314 7.3999 10.9001 7.66853 10.9001 7.9999V10.4999C10.9001 10.8313 10.6314 11.0999 10.3001 11.0999H7.80007C7.4687 11.0999 7.20007 10.8313 7.20007 10.4999C7.20007 10.1685 7.4687 9.8999 7.80007 9.8999H9.70007V7.9999C9.70007 7.66853 9.9687 7.3999 10.3001 7.3999Z" fill="#09204F"/>
<path fill-rule="evenodd" clip-rule="evenodd" d="M6.87581 7.07564C7.11012 6.84132 7.49002 6.84132 7.72434 7.07564L10.7243 10.0756C10.9587 10.31 10.9587 10.6899 10.7243 10.9242C10.49 11.1585 10.1101 11.1585 9.87581 10.9242L6.87581 7.92417C6.64149 7.68985 6.64149 7.30995 6.87581 7.07564Z" fill="#09204F"/>
<path fill-rule="evenodd" clip-rule="evenodd" d="M1.37581 1.57564C1.61012 1.34132 1.99002 1.34132 2.22434 1.57564L4.72434 4.07564C4.95865 4.30995 4.95865 4.68985 4.72434 4.92417C4.49002 5.15848 4.11012 5.15848 3.87581 4.92417L1.37581 2.42417C1.14149 2.18985 1.14149 1.80995 1.37581 1.57564Z" fill="#09204F"/>
</svg>
