<svg width="12" height="12" viewBox="0 0 12 12" fill="none" xmlns="http://www.w3.org/2000/svg">
<g clip-path="url(#clip0)">
<path fill-rule="evenodd" clip-rule="evenodd" d="M2.00002 6.40002C2.3314 6.40002 2.60002 6.66865 2.60002 7.00002V10.5C2.60002 10.8314 2.3314 11.1 2.00002 11.1C1.66865 11.1 1.40002 10.8314 1.40002 10.5V7.00002C1.40002 6.66865 1.66865 6.40002 2.00002 6.40002Z" fill="#09204F"/>
<path fill-rule="evenodd" clip-rule="evenodd" d="M2.00002 0.900024C2.3314 0.900024 2.60002 1.16865 2.60002 1.50002V5.00002C2.60002 5.3314 2.3314 5.60002 2.00002 5.60002C1.66865 5.60002 1.40002 5.3314 1.40002 5.00002V1.50002C1.40002 1.16865 1.66865 0.900024 2.00002 0.900024Z" fill="#09204F"/>
<path fill-rule="evenodd" clip-rule="evenodd" d="M6.00002 5.40002C6.3314 5.40002 6.60002 5.66865 6.60002 6.00002V10.5C6.60002 10.8314 6.3314 11.1 6.00002 11.1C5.66865 11.1 5.40002 10.8314 5.40002 10.5V6.00002C5.40002 5.66865 5.66865 5.40002 6.00002 5.40002Z" fill="#09204F"/>
<path fill-rule="evenodd" clip-rule="evenodd" d="M6.00002 0.900024C6.3314 0.900024 6.60002 1.16865 6.60002 1.50002V4.00002C6.60002 4.3314 6.3314 4.60002 6.00002 4.60002C5.66865 4.60002 5.40002 4.3314 5.40002 4.00002V1.50002C5.40002 1.16865 5.66865 0.900024 6.00002 0.900024Z" fill="#09204F"/>
<path fill-rule="evenodd" clip-rule="evenodd" d="M10 7.40002C10.3314 7.40002 10.6 7.66865 10.6 8.00002V10.5C10.6 10.8314 10.3314 11.1 10 11.1C9.66865 11.1 9.40002 10.8314 9.40002 10.5V8.00002C9.40002 7.66865 9.66865 7.40002 10 7.40002Z" fill="#09204F"/>
<path fill-rule="evenodd" clip-rule="evenodd" d="M10 0.900024C10.3314 0.900024 10.6 1.16865 10.6 1.50002V6.00002C10.6 6.3314 10.3314 6.60002 10 6.60002C9.66865 6.60002 9.40002 6.3314 9.40002 6.00002V1.50002C9.40002 1.16865 9.66865 0.900024 10 0.900024Z" fill="#09204F"/>
<path fill-rule="evenodd" clip-rule="evenodd" d="M-0.0999756 7.00002C-0.0999756 6.66865 0.168654 6.40002 0.500024 6.40002H3.50002C3.8314 6.40002 4.10002 6.66865 4.10002 7.00002C4.10002 7.3314 3.8314 7.60002 3.50002 7.60002H0.500024C0.168654 7.60002 -0.0999756 7.3314 -0.0999756 7.00002Z" fill="#09204F"/>
<path fill-rule="evenodd" clip-rule="evenodd" d="M3.90002 4.00002C3.90002 3.66865 4.16865 3.40002 4.50002 3.40002H7.50002C7.8314 3.40002 8.10002 3.66865 8.10002 4.00002C8.10002 4.3314 7.8314 4.60002 7.50002 4.60002H4.50002C4.16865 4.60002 3.90002 4.3314 3.90002 4.00002Z" fill="#09204F"/>
<path fill-rule="evenodd" clip-rule="evenodd" d="M7.90002 8.00002C7.90002 7.66865 8.16865 7.40002 8.50002 7.40002H11.5C11.8314 7.40002 12.1 7.66865 12.1 8.00002C12.1 8.3314 11.8314 8.60002 11.5 8.60002H8.50002C8.16865 8.60002 7.90002 8.3314 7.90002 8.00002Z" fill="#09204F"/>
</g>
<defs>
<clipPath id="clip0">
<rect width="12" height="12" fill="white"/>
</clipPath>
</defs>
</svg>
