<svg width="12" height="12" viewBox="0 0 12 12" fill="none" xmlns="http://www.w3.org/2000/svg">
<path d="M6 1L7.545 4.13L11 4.635L8.5 7.07L9.09 10.51L6 8.885L2.91 10.51L3.5 7.07L1 4.635L4.455 4.13L6 1Z" fill="#09204F"/>
<path fill-rule="evenodd" clip-rule="evenodd" d="M5.99992 0.400024C6.22829 0.400024 6.43686 0.529668 6.53794 0.73445L7.94348 3.5819L11.0867 4.04133C11.3126 4.07436 11.5002 4.23276 11.5707 4.44997C11.6411 4.66717 11.5821 4.90552 11.4186 5.06484L9.14463 7.27964L9.68128 10.4086C9.71989 10.6337 9.62735 10.8612 9.44256 10.9955C9.25777 11.1297 9.0128 11.1474 8.81065 11.0411L5.99992 9.56293L3.18919 11.0411C2.98704 11.1474 2.74207 11.1297 2.55728 10.9955C2.37249 10.8612 2.27995 10.6337 2.31855 10.4086L2.85521 7.27964L0.58128 5.06484C0.417709 4.90552 0.358746 4.66717 0.429172 4.44997C0.499599 4.23276 0.687207 4.07436 0.913143 4.04133L4.05636 3.5819L5.4619 0.73445C5.56298 0.529668 5.77155 0.400024 5.99992 0.400024ZM5.99992 2.35558L4.99294 4.3956C4.90562 4.57251 4.73691 4.69518 4.5417 4.72372L2.28897 5.05299L3.91856 6.64021C4.06008 6.77805 4.12468 6.97673 4.09128 7.17145L3.70683 9.41303L5.72065 8.35398C5.89548 8.26204 6.10436 8.26204 6.27919 8.35398L8.29301 9.41303L7.90855 7.17145C7.87516 6.97673 7.93976 6.77805 8.08128 6.64021L9.71087 5.05299L7.45814 4.72372C7.26293 4.69518 7.09422 4.57251 7.0069 4.3956L5.99992 2.35558Z" fill="#09204F"/>
</svg>
