<svg width="12" height="12" viewBox="0 0 12 12" fill="none" xmlns="http://www.w3.org/2000/svg">
<path fill-rule="evenodd" clip-rule="evenodd" d="M9.3751 10.4001C9.73344 10.4001 9.9001 10.1565 9.9001 10.0001L9.9001 2.0001C9.9001 1.84367 9.73344 1.6001 9.3751 1.6001L2.6251 1.6001C2.26676 1.6001 2.1001 1.84367 2.1001 2.0001L2.1001 10.0001C2.1001 10.1565 2.26676 10.4001 2.6251 10.4001L9.3751 10.4001ZM11.1001 10.0001C11.1001 10.9482 10.2594 11.6001 9.3751 11.6001L2.6251 11.6001C1.7408 11.6001 0.900097 10.9482 0.900097 10.0001L0.900097 2.0001C0.900097 1.05196 1.7408 0.400097 2.6251 0.400097L9.3751 0.400097C10.2594 0.400097 11.1001 1.05196 11.1001 2.0001L11.1001 10.0001Z" fill="#09204F"/>
<path d="M6.5999 8.79995C6.5999 9.13132 6.33127 9.39995 5.9999 9.39995C5.66853 9.39995 5.3999 9.13132 5.3999 8.79995C5.3999 8.46858 5.66853 8.19995 5.9999 8.19995C6.33127 8.19995 6.5999 8.46858 6.5999 8.79995Z" fill="#09204F"/>
</svg>
