<svg width="12" height="12" viewBox="0 0 12 12" fill="none" xmlns="http://www.w3.org/2000/svg">
<path fill-rule="evenodd" clip-rule="evenodd" d="M0.399902 1.00002C0.399902 0.668654 0.668532 0.400024 0.999902 0.400024H5.9999C6.15903 0.400024 6.31164 0.463239 6.42417 0.57576L10.7204 4.87202C11.0184 5.1718 11.1857 5.57733 11.1857 6.00002C11.1857 6.42272 11.0184 6.82824 10.7204 7.12802L10.2949 6.70502L10.7192 7.12929L7.1344 10.7141C6.98581 10.8628 6.80934 10.9808 6.61511 11.0613C6.42087 11.1419 6.21267 11.1833 6.0024 11.1833C5.79214 11.1833 5.58394 11.1419 5.3897 11.0613C5.19548 10.9808 5.01903 10.8628 4.87044 10.7141C4.87043 10.7141 4.87045 10.7141 4.87044 10.7141L0.575885 6.42454C0.463212 6.31199 0.399902 6.15928 0.399902 6.00002V1.00002ZM9.86982 6.28158C9.86997 6.28143 9.86967 6.28173 9.86982 6.28158C9.94404 6.20668 9.98569 6.10549 9.98569 6.00002C9.98569 5.89456 9.94404 5.79337 9.86982 5.71847C9.86967 5.71832 9.86997 5.71862 9.86982 5.71847L5.75137 1.60002H1.5999V5.75129L5.71892 9.86551C5.75607 9.90271 5.80067 9.93269 5.84923 9.95282C5.89778 9.97295 5.94983 9.98331 6.0024 9.98331C6.05497 9.98331 6.10702 9.97295 6.15558 9.95282C6.20414 9.93269 6.24825 9.90319 6.2854 9.866L9.86982 6.28158Z" fill="#09204F"/>
<path d="M4.2 3.6C4.2 3.93137 3.93137 4.2 3.6 4.2C3.26863 4.2 3 3.93137 3 3.6C3 3.26863 3.26863 3 3.6 3C3.93137 3 4.2 3.26863 4.2 3.6Z" fill="#09204F"/>
</svg>
