<svg width="12" height="12" viewBox="0 0 12 12" fill="none" xmlns="http://www.w3.org/2000/svg">
<path fill-rule="evenodd" clip-rule="evenodd" d="M6.00002 1.5999C3.56997 1.5999 1.60002 3.56985 1.60002 5.9999C1.60002 8.42996 3.56997 10.3999 6.00002 10.3999C8.43008 10.3999 10.4 8.42996 10.4 5.9999C10.4 3.56985 8.43008 1.5999 6.00002 1.5999ZM0.400024 5.9999C0.400024 2.90711 2.90723 0.399902 6.00002 0.399902C9.09282 0.399902 11.6 2.90711 11.6 5.9999C11.6 9.0927 9.09282 11.5999 6.00002 11.5999C2.90723 11.5999 0.400024 9.0927 0.400024 5.9999Z" fill="#09204F"/>
<path fill-rule="evenodd" clip-rule="evenodd" d="M6.00002 3.5999C4.67454 3.5999 3.60002 4.67442 3.60002 5.9999C3.60002 7.32539 4.67454 8.3999 6.00002 8.3999C7.32551 8.3999 8.40002 7.32539 8.40002 5.9999C8.40002 4.67442 7.32551 3.5999 6.00002 3.5999ZM2.40002 5.9999C2.40002 4.01168 4.0118 2.3999 6.00002 2.3999C7.98825 2.3999 9.60002 4.01168 9.60002 5.9999C9.60002 7.98813 7.98825 9.5999 6.00002 9.5999C4.0118 9.5999 2.40002 7.98813 2.40002 5.9999Z" fill="#09204F"/>
<path fill-rule="evenodd" clip-rule="evenodd" d="M6.00002 5.5999C5.77911 5.5999 5.60002 5.77899 5.60002 5.9999C5.60002 6.22082 5.77911 6.3999 6.00002 6.3999C6.22094 6.3999 6.40002 6.22082 6.40002 5.9999C6.40002 5.77899 6.22094 5.5999 6.00002 5.5999ZM4.40002 5.9999C4.40002 5.11625 5.11637 4.3999 6.00002 4.3999C6.88368 4.3999 7.60002 5.11625 7.60002 5.9999C7.60002 6.88356 6.88368 7.5999 6.00002 7.5999C5.11637 7.5999 4.40002 6.88356 4.40002 5.9999Z" fill="#09204F"/>
</svg>
