<svg width="12" height="12" viewBox="0 0 12 12" fill="none" xmlns="http://www.w3.org/2000/svg">
<path fill-rule="evenodd" clip-rule="evenodd" d="M6.00002 2.60002C5.3649 2.60002 4.85002 3.1149 4.85002 3.75002C4.85002 4.38515 5.3649 4.90002 6.00002 4.90002C6.63515 4.90002 7.15002 4.38515 7.15002 3.75002C7.15002 3.1149 6.63515 2.60002 6.00002 2.60002ZM3.65002 3.75002C3.65002 2.45216 4.70216 1.40002 6.00002 1.40002C7.29789 1.40002 8.35002 2.45216 8.35002 3.75002C8.35002 5.04789 7.29789 6.10002 6.00002 6.10002C4.70216 6.10002 3.65002 5.04789 3.65002 3.75002Z" fill="#09204F"/>
<path fill-rule="evenodd" clip-rule="evenodd" d="M6.00002 7.8001C4.05885 7.8001 2.60002 9.08237 2.60002 10.9001C2.60002 11.2315 2.3314 11.5001 2.00002 11.5001C1.66865 11.5001 1.40002 11.2315 1.40002 10.9001C1.40002 8.29955 3.52292 6.6001 6.00002 6.6001C8.47713 6.6001 10.6 8.29955 10.6 10.9001C10.6 11.2315 10.3314 11.5001 10 11.5001C9.66865 11.5001 9.40002 11.2315 9.40002 10.9001C9.40002 9.08237 7.9412 7.8001 6.00002 7.8001Z" fill="#09204F"/>
</svg>
