<svg width="12" height="12" viewBox="0 0 12 12" fill="none" xmlns="http://www.w3.org/2000/svg">
<path d="M6 1L1 7H5.5L5 11L10 5H5.5L6 1Z" fill="#09204F"/>
<path fill-rule="evenodd" clip-rule="evenodd" d="M6.23895 0.449677C6.48328 0.555738 6.62844 0.810179 6.5954 1.07448L6.1797 4.40006H10C10.2328 4.40006 10.4446 4.53473 10.5434 4.74556C10.6421 4.9564 10.61 5.20532 10.461 5.38417L5.46096 11.3842C5.29045 11.5888 5.00544 11.6565 4.76112 11.5504C4.51679 11.4444 4.37163 11.1899 4.40466 10.9256L4.82036 7.60006H1.00003C0.767221 7.60006 0.555426 7.46538 0.456678 7.25455C0.35793 7.04372 0.390057 6.7948 0.539099 6.61595L5.5391 0.615947C5.70962 0.411327 5.99462 0.343616 6.23895 0.449677ZM2.28106 6.40006H5.50003C5.67213 6.40006 5.83594 6.47396 5.94984 6.60298C6.06373 6.732 6.11674 6.90371 6.0954 7.07448L5.84924 9.04378L8.71901 5.60006H5.50003C5.32793 5.60006 5.16412 5.52616 5.05023 5.39714C4.93633 5.26812 4.88332 5.09641 4.90466 4.92564L5.15083 2.95633L2.28106 6.40006Z" fill="#09204F"/>
</svg>
