<svg width="28" height="28" viewBox="0 0 28 28" fill="none" xmlns="http://www.w3.org/2000/svg">
<path fill-rule="evenodd" clip-rule="evenodd" d="M14.6202 21.044L15.9337 18.6667H19.4444C20.7331 18.6667 21.7777 17.622 21.7777 16.3333V9.33333C21.7777 8.04467 20.7331 7 19.4444 7H8.5555C7.26684 7 6.22217 8.04467 6.22217 9.33333V16.3333C6.22217 17.622 7.26684 18.6667 8.5555 18.6667H11.6795L13.2912 21.0976C13.3604 21.202 13.4537 21.2881 13.5633 21.3486C13.9393 21.5564 14.4125 21.42 14.6202 21.044ZM16.3333 10.1111H9.33328C8.90372 10.1111 8.5555 10.4593 8.5555 10.8889C8.5555 11.3184 8.90372 11.6667 9.33328 11.6667H16.3333C16.7628 11.6667 17.1111 11.3184 17.1111 10.8889C17.1111 10.4593 16.7628 10.1111 16.3333 10.1111ZM13.2222 13.2222H9.33328C8.90372 13.2222 8.5555 13.5704 8.5555 14C8.5555 14.4296 8.90372 14.7778 9.33328 14.7778H13.2222C13.6517 14.7778 13.9999 14.4296 13.9999 14C13.9999 13.5704 13.6517 13.2222 13.2222 13.2222Z" fill="white"/>
</svg>
