<svg width="28" height="28" viewBox="0 0 28 28" fill="none" xmlns="http://www.w3.org/2000/svg">
<path d="M13.9999 7.19531C10.2478 7.19531 7.19434 10.2481 7.19434 14.0009C7.19434 17.7536 10.2478 20.8064 13.9999 20.8064C15.3876 20.8064 16.7176 20.3961 17.8467 19.6216L16.7467 18.0174C15.9424 18.5697 14.9922 18.862 13.9999 18.862C11.3192 18.862 9.13878 16.6816 9.13878 14.0009C9.13878 11.3201 11.3192 9.13976 13.9999 9.13976C16.6806 9.13976 18.861 11.3201 18.861 14.0009V14.5084C18.861 14.9238 18.7683 15.6212 18.148 15.6212H17.8894C17.7002 15.6141 17.3178 15.244 17.3054 15.058V14.0009C17.3054 12.1783 15.8225 10.6953 13.9999 10.6953C12.1773 10.6953 10.6943 12.1776 10.6943 14.0009C10.6943 15.8241 12.1767 17.3064 13.9999 17.3064C14.7589 17.3064 15.4504 17.0394 16.0098 16.6071C16.4966 17.1677 17.1927 17.5657 17.8888 17.5657H18.148C19.7127 17.5657 20.8054 16.3089 20.8054 14.5084V14.0009C20.8054 10.2481 17.752 7.19531 13.9999 7.19531ZM13.9999 15.3613C13.2493 15.3613 12.6388 14.7514 12.6388 14.0002C12.6388 13.2503 13.2487 12.6391 13.9999 12.6391C14.7511 12.6391 15.361 13.2497 15.361 14.0002C15.361 14.7514 14.7504 15.3613 13.9999 15.3613Z" fill="white"/>
</svg>
