<svg width="28" height="28" viewBox="0 0 28 28" fill="none" xmlns="http://www.w3.org/2000/svg">
<path d="M12.7667 7.75605C12.7667 7.36708 13.0831 7.05176 13.4716 7.05176C13.861 7.05176 14.1766 7.36702 14.1766 7.75605V9.1673C14.1766 9.55627 13.8602 9.87159 13.4716 9.87159C13.0823 9.87159 12.7667 9.55632 12.7667 9.1673V7.75605ZM9.03492 9.95664C8.75988 9.6816 8.76065 9.2349 9.03539 8.96015C9.3107 8.68485 9.7568 8.6846 10.0319 8.95968L11.0298 9.95759C11.3048 10.2326 11.3041 10.6793 11.0293 10.9541C10.754 11.2294 10.3079 11.2296 10.0328 10.9545L9.03492 9.95664ZM17.0824 8.95968C17.3574 8.68464 17.8041 8.68541 18.0789 8.96015C18.3542 9.23546 18.3544 9.68156 18.0794 9.95664L17.0815 10.9545C16.8064 11.2296 16.3597 11.2288 16.085 10.9541C15.8097 10.6788 15.8094 10.2327 16.0845 9.95759L17.0824 8.95968ZM10.033 12.7769C10.422 12.7769 10.7373 13.0934 10.7373 13.4819C10.7373 13.8712 10.422 14.1869 10.033 14.1869H8.62177C8.2328 14.1869 7.91748 13.8704 7.91748 13.4819C7.91748 13.0926 8.23274 12.7769 8.62177 12.7769H10.033Z" fill="white"/>
<path d="M17.0117 16.3686L19.3088 15.2781C19.542 15.1674 19.5446 14.9795 19.3177 14.8569L12.9778 11.4311C12.7513 11.3087 12.5811 11.4174 12.5984 11.6743L13.0751 18.7517C13.0925 19.0108 13.2678 19.0861 13.4669 18.9248L15.4451 17.322L17.1208 20.0037C17.2564 20.2208 17.5452 20.288 17.7642 20.1512L18.5264 19.6749C18.7445 19.5386 18.8123 19.2502 18.676 19.0319L17.0117 16.3686Z" fill="white"/>
</svg>
