<svg width="20" height="20" viewBox="0 0 20 20" fill="none" xmlns="http://www.w3.org/2000/svg">
<circle cx="10" cy="10" r="8" stroke="#C4CFE1" stroke-width="3"/>
<path d="M2.24951 11.9827C2.6209 13.4345 3.3926 14.7528 4.47668 15.7874C5.56076 16.822 6.91364 17.5313 8.38119 17.8345C9.84875 18.1377 11.372 18.0227 12.7773 17.5024C14.1826 16.9822 15.4136 16.0776 16.33 14.8919C17.2463 13.7062 17.8112 12.2869 17.9603 10.7958C18.1093 9.30468 17.8366 7.80167 17.1731 6.45801C16.5096 5.11434 15.4821 3.98404 14.2075 3.19588C12.933 2.40771 11.4627 1.99338 9.96417 2.00008" stroke="#4F8AF4" stroke-width="3"/>
<path d="M18 10C18 8.94943 17.7931 7.90914 17.391 6.93853C16.989 5.96793 16.3997 5.08601 15.6569 4.34315C14.914 3.60028 14.0321 3.011 13.0615 2.60896C12.0909 2.20693 11.0506 2 10 2" stroke="#4F8AF4" stroke-width="3"/>
</svg>
