<svg width="12" height="12" viewBox="0 0 12 12" fill="none" xmlns="http://www.w3.org/2000/svg">
<path d="M4.66602 5.16675C4.94216 5.16675 5.16602 4.94289 5.16602 4.66675V0.666748C5.16602 0.390606 5.38987 0.166748 5.66602 0.166748H6.33268C6.60883 0.166748 6.83268 0.390606 6.83268 0.666748V4.66675C6.83268 4.94289 7.05654 5.16675 7.33268 5.16675H11.3327C11.6088 5.16675 11.8327 5.39061 11.8327 5.66675V6.33342C11.8327 6.60956 11.6088 6.83342 11.3327 6.83342H7.33268C7.05654 6.83342 6.83268 7.05727 6.83268 7.33342V11.3334C6.83268 11.6096 6.60883 11.8334 6.33268 11.8334H5.66602C5.38987 11.8334 5.16602 11.6096 5.16602 11.3334V7.33342C5.16602 7.05727 4.94216 6.83342 4.66602 6.83342H0.666016C0.389873 6.83342 0.166016 6.60956 0.166016 6.33342V5.66675C0.166016 5.39061 0.389873 5.16675 0.666016 5.16675H4.66602Z" fill="#B4C0D4"/>
</svg>
