<svg width="16" height="16" viewBox="0 0 16 16" fill="none" xmlns="http://www.w3.org/2000/svg">
<path d="M8.00016 14.6668C4.31816 14.6668 1.3335 11.6822 1.3335 8.00016C1.3335 4.31816 4.31816 1.3335 8.00016 1.3335C11.6822 1.3335 14.6668 4.31816 14.6668 8.00016C14.6668 11.6822 11.6822 14.6668 8.00016 14.6668ZM7.3335 6.3335C7.3335 6.88578 6.88578 7.3335 6.3335 7.3335H5.3335C4.96531 7.3335 4.66683 7.63197 4.66683 8.00016C4.66683 8.36835 4.96531 8.66683 5.3335 8.66683H6.3335C6.88578 8.66683 7.3335 9.11454 7.3335 9.66683V10.6668C7.3335 11.035 7.63197 11.3335 8.00016 11.3335C8.36835 11.3335 8.66683 11.035 8.66683 10.6668V9.66683C8.66683 9.11455 9.11454 8.66683 9.66683 8.66683H10.6668C11.035 8.66683 11.3335 8.36835 11.3335 8.00016C11.3335 7.63197 11.035 7.3335 10.6668 7.3335H9.66683C9.11455 7.3335 8.66683 6.88578 8.66683 6.3335V5.3335C8.66683 4.96531 8.36835 4.66683 8.00016 4.66683C7.63197 4.66683 7.3335 4.96531 7.3335 5.3335V6.3335Z" fill="#65C692"/>
</svg>
