<svg width="20" height="20" viewBox="0 0 20 20" fill="none" xmlns="http://www.w3.org/2000/svg">
<path d="M5.31833 3.30664C6.64645 2.24252 8.29817 1.66392 10 1.66664C11.7708 1.66664 13.3983 2.27997 14.6817 3.30664L15.8925 2.0958L17.0708 3.27414L15.86 4.48497C16.9241 5.81309 17.5027 7.46481 17.5 9.16664V9.99997H2.5V9.16664C2.5 7.3958 3.11333 5.7683 4.14 4.48497L2.92917 3.27497L4.1075 2.09664L5.31833 3.30747V3.30664ZM2.5 11.6666H17.5V17.5C17.5 17.721 17.4122 17.9329 17.2559 18.0892C17.0996 18.2455 16.8877 18.3333 16.6667 18.3333H3.33333C3.11232 18.3333 2.90036 18.2455 2.74408 18.0892C2.5878 17.9329 2.5 17.721 2.5 17.5V11.6666ZM7.5 7.49997C7.72101 7.49997 7.93297 7.41217 8.08926 7.25589C8.24554 7.09961 8.33333 6.88765 8.33333 6.66664C8.33333 6.44562 8.24554 6.23366 8.08926 6.07738C7.93297 5.9211 7.72101 5.8333 7.5 5.8333C7.27899 5.8333 7.06702 5.9211 6.91074 6.07738C6.75446 6.23366 6.66667 6.44562 6.66667 6.66664C6.66667 6.88765 6.75446 7.09961 6.91074 7.25589C7.06702 7.41217 7.27899 7.49997 7.5 7.49997ZM12.5 7.49997C12.721 7.49997 12.933 7.41217 13.0893 7.25589C13.2455 7.09961 13.3333 6.88765 13.3333 6.66664C13.3333 6.44562 13.2455 6.23366 13.0893 6.07738C12.933 5.9211 12.721 5.8333 12.5 5.8333C12.279 5.8333 12.067 5.9211 11.9107 6.07738C11.7545 6.23366 11.6667 6.44562 11.6667 6.66664C11.6667 6.88765 11.7545 7.09961 11.9107 7.25589C12.067 7.41217 12.279 7.49997 12.5 7.49997Z" fill="#B4C0D4"/>
</svg>
