<svg width="24" height="20" viewBox="0 0 24 20" fill="none" xmlns="http://www.w3.org/2000/svg">
<path d="M7.17068 9.58337C6.59348 9.58337 6.02194 9.48638 5.48868 9.29792C4.95542 9.10947 4.47088 8.83324 4.06274 8.48502C3.6546 8.1368 3.33085 7.72341 3.10996 7.26844C2.88908 6.81347 2.77539 6.32583 2.77539 5.83337C2.77539 5.34092 2.88908 4.85328 3.10996 4.39831C3.33085 3.94334 3.6546 3.52994 4.06274 3.18172C4.47088 2.8335 4.95542 2.55728 5.48868 2.36883C6.02194 2.18037 6.59348 2.08337 7.17068 2.08337C8.33639 2.08337 9.45435 2.47846 10.2786 3.18172C11.1029 3.88498 11.566 4.83881 11.566 5.83337C11.566 6.82794 11.1029 7.78176 10.2786 8.48502C9.45435 9.18829 8.33639 9.58337 7.17068 9.58337ZM7.17068 17.9167C6.00498 17.9167 4.88702 17.5216 4.06274 16.8184C3.23846 16.1151 2.77539 15.1613 2.77539 14.1667C2.77539 13.1721 3.23846 12.2183 4.06274 11.5151C4.88702 10.8118 6.00498 10.4167 7.17068 10.4167C8.33639 10.4167 9.45435 10.8118 10.2786 11.5151C11.1029 12.2183 11.566 13.1721 11.566 14.1667C11.566 15.1613 11.1029 16.1151 10.2786 16.8184C9.45435 17.5216 8.33639 17.9167 7.17068 17.9167ZM16.938 9.58337C16.3608 9.58337 15.7893 9.48638 15.256 9.29792C14.7227 9.10947 14.2382 8.83324 13.8301 8.48502C13.4219 8.1368 13.0982 7.72341 12.8773 7.26844C12.6564 6.81347 12.5427 6.32583 12.5427 5.83337C12.5427 5.34092 12.6564 4.85328 12.8773 4.39831C13.0982 3.94334 13.4219 3.52994 13.8301 3.18172C14.2382 2.8335 14.7227 2.55728 15.256 2.36883C15.7893 2.18037 16.3608 2.08337 16.938 2.08337C18.1037 2.08337 19.2217 2.47846 20.0459 3.18172C20.8702 3.88498 21.3333 4.83881 21.3333 5.83337C21.3333 6.82794 20.8702 7.78176 20.0459 8.48502C19.2217 9.18829 18.1037 9.58337 16.938 9.58337ZM16.938 17.9167C15.7723 17.9167 14.6543 17.5216 13.8301 16.8184C13.0058 16.1151 12.5427 15.1613 12.5427 14.1667C12.5427 13.1721 13.0058 12.2183 13.8301 11.5151C14.6543 10.8118 15.7723 10.4167 16.938 10.4167C18.1037 10.4167 19.2217 10.8118 20.0459 11.5151C20.8702 12.2183 21.3333 13.1721 21.3333 14.1667C21.3333 15.1613 20.8702 16.1151 20.0459 16.8184C19.2217 17.5216 18.1037 17.9167 16.938 17.9167Z" fill="#B4C0D4"/>
</svg>
