<svg width="18" height="18" viewBox="0 0 18 18" fill="none" xmlns="http://www.w3.org/2000/svg">
<path d="M11.4047 8.25C11.672 8.25 11.8059 7.92686 11.6169 7.73787L8.63625 4.75725C8.3434 4.46441 8.3434 3.9896 8.63625 3.69675C8.9291 3.4039 9.4039 3.4039 9.69675 3.69675L14.2929 8.2929C14.6834 8.68342 14.6834 9.31659 14.2929 9.70711L9.69675 14.3033C9.4039 14.5961 8.9291 14.5961 8.63625 14.3033C8.3434 14.0104 8.3434 13.5356 8.63625 13.2428L11.6169 10.2621C11.8059 10.0731 11.672 9.75 11.4047 9.75H3.75C3.33579 9.75 3 9.41422 3 9C3 8.58579 3.33579 8.25 3.75 8.25H11.4047Z" fill="url(#paint0_linear)"/>
<defs>
<linearGradient id="paint0_linear" x1="9.5" y1="9" x2="0.5" y2="9" gradientUnits="userSpaceOnUse">
<stop stop-color="white"/>
<stop offset="1" stop-color="white" stop-opacity="0"/>
</linearGradient>
</defs>
</svg>
