<svg width="14" height="15" viewBox="0 0 14 15" fill="none" xmlns="http://www.w3.org/2000/svg">
<path d="M7.58144 8.43699C7.58144 8.88244 8.12001 9.10552 8.43499 8.79054L10.3569 6.86865C10.5521 6.67339 10.8687 6.67339 11.064 6.86865L11.1817 6.98637C11.377 7.18164 11.377 7.49822 11.1817 7.69348L7.35166 11.5235C7.1564 11.7188 6.83981 11.7188 6.64455 11.5235L2.81449 7.69348C2.61923 7.49822 2.61923 7.18164 2.81449 6.98637L2.93222 6.86865C3.12748 6.67339 3.44406 6.67339 3.63932 6.86865L5.56122 8.79054C5.8762 9.10552 6.41477 8.88244 6.41477 8.43699V3.04376C6.41477 2.76762 6.63863 2.54376 6.91477 2.54376H7.08144C7.35758 2.54376 7.58144 2.76762 7.58144 3.04376V8.43699Z" fill="#B4C0D4"/>
</svg>
