<svg width="14" height="14" viewBox="0 0 14 14" fill="none" xmlns="http://www.w3.org/2000/svg">
<path d="M12.3398 6.71696C12.3397 5.52821 11.9424 4.37359 11.2111 3.43642C10.4798 2.49926 9.45633 1.83328 8.30326 1.54425C7.15019 1.25522 5.93361 1.3597 4.8467 1.8411C3.75979 2.3225 2.86487 3.15322 2.30403 4.20135C1.7432 5.24949 1.54862 6.45494 1.75117 7.62631C1.95373 8.79767 2.54181 9.86778 3.42205 10.6667C4.30228 11.4657 5.4242 11.9476 6.60965 12.0361C7.7951 12.1245 8.97612 11.8144 9.96518 11.155L10.7052 12.2643C9.61065 12.9961 8.32315 13.3857 7.00651 13.3836C3.32451 13.3836 0.339844 10.399 0.339844 6.71696C0.339844 3.03496 3.32451 0.050293 7.00651 0.050293C10.6885 0.050293 13.6732 3.03496 13.6732 6.71696V7.71696C13.6732 8.21613 13.5132 8.70216 13.2167 9.10367C12.9201 9.50517 12.5025 9.80098 12.0254 9.94764C11.5483 10.0943 11.0367 10.0841 10.5658 9.91849C10.0949 9.7529 9.6895 9.44065 9.40918 9.02763C8.96423 9.49029 8.39515 9.81464 7.77032 9.96171C7.14549 10.1088 6.49149 10.0723 5.88689 9.85668C5.28228 9.64105 4.7528 9.25544 4.36205 8.74617C3.9713 8.2369 3.7359 7.62564 3.68414 6.98583C3.63238 6.34601 3.76645 5.70486 4.07026 5.13941C4.37407 4.57395 4.83468 4.10824 5.39676 3.79823C5.95884 3.48822 6.59847 3.34709 7.23881 3.3918C7.87916 3.43652 8.49297 3.66517 9.00651 4.05029H10.3398V7.71696C10.3398 7.98218 10.4452 8.23653 10.6327 8.42407C10.8203 8.6116 11.0746 8.71696 11.3398 8.71696C11.6051 8.71696 11.8594 8.6116 12.047 8.42407C12.2345 8.23653 12.3398 7.98218 12.3398 7.71696V6.71696ZM7.00651 4.71696C6.47608 4.71696 5.96737 4.92767 5.5923 5.30275C5.21722 5.67782 5.00651 6.18653 5.00651 6.71696C5.00651 7.24739 5.21722 7.7561 5.5923 8.13117C5.96737 8.50625 6.47608 8.71696 7.00651 8.71696C7.53694 8.71696 8.04565 8.50625 8.42072 8.13117C8.7958 7.7561 9.00651 7.24739 9.00651 6.71696C9.00651 6.18653 8.7958 5.67782 8.42072 5.30275C8.04565 4.92767 7.53694 4.71696 7.00651 4.71696Z" fill="#4489F2"/>
</svg>
