<svg width="16" height="17" viewBox="0 0 16 17" fill="none" xmlns="http://www.w3.org/2000/svg">
<path d="M13.3333 8.71061C13.3331 7.52187 12.9359 6.36724 12.2045 5.43007C11.4732 4.49291 10.4497 3.82693 9.29667 3.5379C8.1436 3.24887 6.92701 3.35335 5.84011 3.83475C4.7532 4.31615 3.85827 5.14687 3.29744 6.19501C2.73661 7.24314 2.54202 8.4486 2.74458 9.61996C2.94714 10.7913 3.53522 11.8614 4.41546 12.6604C5.29569 13.4593 6.41761 13.9413 7.60306 14.0297C8.78851 14.1182 9.96953 13.8081 10.9586 13.1486L11.6986 14.2579C10.6041 14.9898 9.31656 15.3794 7.99992 15.3773C4.31792 15.3773 1.33325 12.3926 1.33325 8.71061C1.33325 5.02861 4.31792 2.04395 7.99992 2.04395C11.6819 2.04395 14.6666 5.02861 14.6666 8.71061V9.71061C14.6667 10.2098 14.5066 10.6958 14.2101 11.0973C13.9135 11.4988 13.496 11.7946 13.0188 11.9413C12.5417 12.088 12.0301 12.0777 11.5592 11.9121C11.0883 11.7465 10.6829 11.4343 10.4026 11.0213C9.95763 11.4839 9.38856 11.8083 8.76373 11.9554C8.1389 12.1024 7.4849 12.066 6.88029 11.8503C6.27569 11.6347 5.74621 11.2491 5.35546 10.7398C4.9647 10.2306 4.72931 9.61929 4.67755 8.97948C4.62579 8.33967 4.75986 7.69852 5.06367 7.13306C5.36747 6.5676 5.82809 6.10189 6.39016 5.79188C6.95224 5.48187 7.59188 5.34074 8.23222 5.38546C8.87257 5.43017 9.48638 5.65882 9.99992 6.04395H11.3333V9.71061C11.3333 9.97583 11.4386 10.2302 11.6261 10.4177C11.8137 10.6053 12.068 10.7106 12.3333 10.7106C12.5985 10.7106 12.8528 10.6053 13.0404 10.4177C13.2279 10.2302 13.3333 9.97583 13.3333 9.71061V8.71061ZM7.99992 6.71061C7.46949 6.71061 6.96078 6.92133 6.5857 7.2964C6.21063 7.67147 5.99992 8.18018 5.99992 8.71061C5.99992 9.24104 6.21063 9.74975 6.5857 10.1248C6.96078 10.4999 7.46949 10.7106 7.99992 10.7106C8.53035 10.7106 9.03906 10.4999 9.41413 10.1248C9.78921 9.74975 9.99992 9.24104 9.99992 8.71061C9.99992 8.18018 9.78921 7.67147 9.41413 7.2964C9.03906 6.92133 8.53035 6.71061 7.99992 6.71061Z" fill="#B4C0D4"/>
</svg>
