<svg width="28" height="28" viewBox="0 0 28 28" fill="none" xmlns="http://www.w3.org/2000/svg">
<path opacity="0.2" d="M14 28C21.732 28 28 21.732 28 14C28 6.26801 21.732 0 14 0C6.26801 0 0 6.26801 0 14C0 21.732 6.26801 28 14 28Z" fill="#73ABFF"/>
<path fill-rule="evenodd" clip-rule="evenodd" d="M14 12.1335C12.9691 12.1335 12.1334 12.9692 12.1334 14.0001C12.1334 15.0311 12.9691 15.8668 14 15.8668C15.031 15.8668 15.8667 15.0311 15.8667 14.0001C15.8667 12.9692 15.031 12.1335 14 12.1335ZM10.5334 14.0001C10.5334 12.0855 12.0854 10.5335 14 10.5335C15.9146 10.5335 17.4667 12.0855 17.4667 14.0001C17.4667 15.9147 15.9146 17.4668 14 17.4668C12.0854 17.4668 10.5334 15.9147 10.5334 14.0001Z" fill="#4F8AF4"/>
<path fill-rule="evenodd" clip-rule="evenodd" d="M10.8101 7.24931C12.3338 6.52928 14.0562 6.34585 15.6973 6.72883C17.3384 7.11182 18.8017 8.0387 19.8492 9.35877C20.8967 10.6788 21.4669 12.3144 21.467 13.9997V14.6664C21.467 15.409 21.172 16.1212 20.6469 16.6463C20.1218 17.1714 19.4096 17.4664 18.667 17.4664C17.9244 17.4664 17.2122 17.1714 16.6871 16.6463C16.162 16.1212 15.867 15.409 15.867 14.6664V11.333C15.867 10.8912 16.2252 10.533 16.667 10.533C17.1089 10.533 17.467 10.8912 17.467 11.333V14.6664C17.467 14.9846 17.5935 15.2899 17.8185 15.5149C18.0435 15.7399 18.3488 15.8664 18.667 15.8664C18.9853 15.8664 19.2905 15.7399 19.5156 15.5149C19.7406 15.2899 19.867 14.9846 19.867 14.6664V13.9998C19.867 13.9997 19.867 13.9998 19.867 13.9998C19.8669 12.6757 19.4189 11.3905 18.5959 10.3533C17.7728 9.31615 16.6231 8.58788 15.3336 8.28697C14.0442 7.98605 12.6909 8.13018 11.4937 8.69591C10.2966 9.26165 9.32604 10.2157 8.73988 11.403C8.15371 12.5903 7.98643 13.9409 8.26521 15.2353C8.544 16.5297 9.25246 17.6918 10.2754 18.5325C11.2983 19.3732 12.5756 19.8432 13.8995 19.8659C15.2234 19.8887 16.5161 19.4629 17.5673 18.6579C17.9181 18.3893 18.4202 18.4559 18.6888 18.8066C18.9575 19.1574 18.8909 19.6596 18.5401 19.9282C17.2022 20.9528 15.5569 21.4947 13.872 21.4657C12.187 21.4367 10.5614 20.8386 9.2595 19.7686C7.95757 18.6986 7.05589 17.2196 6.70108 15.5722C6.34626 13.9248 6.55917 12.2058 7.3052 10.6947C8.05122 9.18362 9.28648 7.96934 10.8101 7.24931Z" fill="#4F8AF4"/>
</svg>
