<svg width="28" height="28" viewBox="0 0 28 28" fill="none" xmlns="http://www.w3.org/2000/svg">
<circle opacity="0.1" cx="14" cy="14" r="14" fill="#4489F2"/>
<path d="M12.0716 12.4796C11.7566 12.7945 11.9797 13.3331 12.4251 13.3331H18.8327C19.1088 13.3331 19.3327 13.557 19.3327 13.8331V14.1665C19.3327 14.4426 19.1088 14.6665 18.8327 14.6665H12.4251C11.9797 14.6665 11.7566 15.205 12.0716 15.52L14.4405 17.8889C14.6357 18.0842 14.6357 18.4007 14.4405 18.596L14.2049 18.8316C14.0096 19.0268 13.6931 19.0268 13.4978 18.8316L9.01957 14.3533C8.82431 14.1581 8.82431 13.8415 9.01957 13.6462L13.4978 9.16801C13.6931 8.97274 14.0096 8.97274 14.2049 9.16801L14.4405 9.40357C14.6357 9.59883 14.6357 9.91541 14.4405 10.1107L12.0716 12.4796Z" fill="#4489F2"/>
</svg>
