<svg width="48" height="48" viewBox="0 0 48 48" fill="none" xmlns="http://www.w3.org/2000/svg">
<circle cx="24" cy="24" r="24" fill="#73ABFF"/>
<path d="M18.5548 25.6665L23.5 23.635L18.5548 22.3332L18.5 15.5383C18.5 15.4659 18.5189 15.3947 18.5548 15.3319C18.5907 15.269 18.6423 15.2165 18.7046 15.1797C18.767 15.1428 18.8378 15.1229 18.9102 15.1218C18.9826 15.1206 19.0541 15.1384 19.1175 15.1733L34.5025 23.635C34.5678 23.6709 34.6223 23.7238 34.6602 23.788C34.6982 23.8522 34.7182 23.9254 34.7182 24C34.7182 24.0745 34.6982 24.1477 34.6602 24.212C34.6223 24.2762 34.5678 24.329 34.5025 24.365L19.1175 32.8266C19.0541 32.8615 18.9826 32.8793 18.9102 32.8782C18.8378 32.8771 18.767 32.8571 18.7046 32.8203C18.6423 32.7834 18.5907 32.731 18.5548 32.6681C18.5189 32.6052 18.5 32.534 18.5 32.4616L18.5548 25.6665Z" fill="white"/>
</svg>
