<svg width="26" height="26" viewBox="0 0 26 26" fill="none" xmlns="http://www.w3.org/2000/svg">
<rect opacity="0.5" x="0.615234" y="0.192383" width="25.3844" height="25" rx="12.5" fill="#3970D9"/>
<path d="M17.797 12.7754C17.797 13.1921 17.4586 13.5254 17.0355 13.5254H13.9894V16.3587C13.9894 16.7754 13.6509 17.1087 13.2278 17.1087C12.8048 17.1087 12.4663 16.7754 12.4663 16.3587V13.5254H9.58941C9.16634 13.5254 8.82788 13.1921 8.82788 12.7754C8.82788 12.3587 9.16634 12.0254 9.58941 12.0254H12.4663V9.02539C12.4663 8.60872 12.8048 8.27539 13.2278 8.27539C13.6509 8.27539 13.9894 8.60872 13.9894 9.02539V12.0254H17.0355C17.4586 12.0254 17.797 12.3587 17.797 12.7754Z" fill="white"/>
</svg>
