<svg width="20" height="20" viewBox="0 0 20 20" fill="none" xmlns="http://www.w3.org/2000/svg">
<path d="M17.5 17.5H10.8333V5C10.8333 4.33696 11.0967 3.70107 11.5655 3.23223C12.0344 2.76339 12.6703 2.5 13.3333 2.5H17.5C17.721 2.5 17.9329 2.5878 18.0892 2.74408C18.2455 2.90036 18.3333 3.11232 18.3333 3.33333V16.6667C18.3333 16.8877 18.2455 17.0996 18.0892 17.2559C17.9329 17.4122 17.721 17.5 17.5 17.5ZM9.16663 17.5H2.49996C2.27895 17.5 2.06698 17.4122 1.9107 17.2559C1.75442 17.0996 1.66663 16.8877 1.66663 16.6667V3.33333C1.66663 3.11232 1.75442 2.90036 1.9107 2.74408C2.06698 2.5878 2.27895 2.5 2.49996 2.5H6.66663C7.32967 2.5 7.96555 2.76339 8.43439 3.23223C8.90323 3.70107 9.16663 4.33696 9.16663 5V17.5ZM9.16663 17.5H10.8333V19.1667H9.16663V17.5Z" fill="white"/>
</svg>
