<svg width="80" height="59" viewBox="0 0 80 59" fill="none" xmlns="http://www.w3.org/2000/svg">
<path d="M1.75164 42C1.67164 42 1.60764 41.976 1.55964 41.928C1.51164 41.872 1.48764 41.804 1.48764 41.724V33.888C1.48764 33.8 1.51164 33.732 1.55964 33.684C1.60764 33.628 1.67164 33.6 1.75164 33.6H4.46364C5.67164 33.6 6.54364 33.872 7.07964 34.416C7.61564 34.952 7.89164 35.764 7.90764 36.852C7.91564 37.084 7.91964 37.396 7.91964 37.788C7.91964 38.18 7.91564 38.496 7.90764 38.736C7.89164 39.496 7.76764 40.116 7.53564 40.596C7.31164 41.068 6.95564 41.42 6.46764 41.652C5.97964 41.884 5.33164 42 4.52364 42H1.75164ZM4.46364 41.004C5.02364 41.004 5.46764 40.928 5.79564 40.776C6.13164 40.616 6.37164 40.372 6.51564 40.044C6.66764 39.708 6.75164 39.256 6.76764 38.688C6.78364 38.208 6.79164 37.908 6.79164 37.788C6.79164 37.66 6.78364 37.364 6.76764 36.9C6.75164 36.1 6.55964 35.516 6.19164 35.148C5.83164 34.772 5.23564 34.584 4.40364 34.584H2.61564V41.004H4.46364ZM9.86936 42C9.78936 42 9.72136 41.976 9.66536 41.928C9.61736 41.872 9.59336 41.804 9.59336 41.724V36.048C9.59336 35.968 9.61736 35.9 9.66536 35.844C9.72136 35.788 9.78936 35.76 9.86936 35.76H10.3734C10.4614 35.76 10.5294 35.788 10.5774 35.844C10.6334 35.892 10.6614 35.96 10.6614 36.048V36.576C10.9894 36.032 11.5454 35.76 12.3294 35.76H12.7974C12.8854 35.76 12.9534 35.784 13.0014 35.832C13.0494 35.88 13.0734 35.948 13.0734 36.036V36.48C13.0734 36.56 13.0494 36.628 13.0014 36.684C12.9534 36.732 12.8854 36.756 12.7974 36.756H12.1134C11.6734 36.756 11.3254 36.884 11.0694 37.14C10.8214 37.396 10.6974 37.744 10.6974 38.184V41.724C10.6974 41.804 10.6694 41.872 10.6134 41.928C10.5574 41.976 10.4894 42 10.4094 42H9.86936ZM16.5199 42.12C15.6399 42.12 14.9599 41.872 14.4799 41.376C14.0079 40.88 13.7559 40.22 13.7239 39.396L13.7119 38.88L13.7239 38.364C13.7559 37.54 14.0119 36.88 14.4919 36.384C14.9799 35.888 15.6559 35.64 16.5199 35.64C17.3839 35.64 18.0559 35.888 18.5359 36.384C19.0239 36.88 19.2839 37.54 19.3159 38.364C19.3319 38.54 19.3399 38.712 19.3399 38.88C19.3399 39.048 19.3319 39.22 19.3159 39.396C19.2839 40.22 19.0279 40.88 18.5479 41.376C18.0759 41.872 17.3999 42.12 16.5199 42.12ZM16.5199 41.22C17.0319 41.22 17.4359 41.06 17.7319 40.74C18.0359 40.412 18.1999 39.944 18.2239 39.336C18.2319 39.256 18.2359 39.104 18.2359 38.88C18.2359 38.656 18.2319 38.504 18.2239 38.424C18.1999 37.816 18.0359 37.352 17.7319 37.032C17.4359 36.704 17.0319 36.54 16.5199 36.54C16.0079 36.54 15.5999 36.704 15.2959 37.032C14.9999 37.352 14.8399 37.816 14.8159 38.424L14.8039 38.88L14.8159 39.336C14.8399 39.944 14.9999 40.412 15.2959 40.74C15.5999 41.06 16.0079 41.22 16.5199 41.22ZM21.1431 44.28C21.0631 44.28 20.9951 44.256 20.9391 44.208C20.8911 44.16 20.8671 44.092 20.8671 44.004V36.036C20.8671 35.948 20.8911 35.88 20.9391 35.832C20.9951 35.784 21.0631 35.76 21.1431 35.76H21.6471C21.7351 35.76 21.8031 35.784 21.8511 35.832C21.8991 35.88 21.9231 35.948 21.9231 36.036V36.564C22.3871 35.948 23.0471 35.64 23.9031 35.64C24.7431 35.64 25.3711 35.908 25.7871 36.444C26.2111 36.972 26.4351 37.648 26.4591 38.472C26.4671 38.56 26.4711 38.696 26.4711 38.88C26.4711 39.064 26.4671 39.2 26.4591 39.288C26.4351 40.104 26.2111 40.78 25.7871 41.316C25.3711 41.852 24.7431 42.12 23.9031 42.12C23.0471 42.12 22.3991 41.816 21.9591 41.208V44.004C21.9591 44.084 21.9311 44.148 21.8751 44.196C21.8271 44.252 21.7631 44.28 21.6831 44.28H21.1431ZM23.6751 41.184C24.2511 41.184 24.6711 41.004 24.9351 40.644C25.1991 40.284 25.3431 39.812 25.3671 39.228C25.3751 39.148 25.3791 39.032 25.3791 38.88C25.3791 37.344 24.8111 36.576 23.6751 36.576C23.1151 36.576 22.6911 36.764 22.4031 37.14C22.1231 37.508 21.9751 37.944 21.9591 38.448C21.9511 38.536 21.9471 38.692 21.9471 38.916C21.9471 39.14 21.9511 39.296 21.9591 39.384C21.9751 39.872 22.1271 40.296 22.4151 40.656C22.7111 41.008 23.1311 41.184 23.6751 41.184ZM32.6612 42.12C32.2692 42.12 31.9052 42.04 31.5692 41.88C31.2412 41.72 30.9772 41.504 30.7772 41.232C30.5852 40.952 30.4892 40.644 30.4892 40.308C30.4892 39.78 30.7052 39.348 31.1372 39.012C31.5692 38.676 32.1572 38.452 32.9012 38.34L34.7012 38.088V37.74C34.7012 36.916 34.2252 36.504 33.2732 36.504C32.9052 36.504 32.6092 36.58 32.3852 36.732C32.1612 36.876 31.9972 37.048 31.8932 37.248C31.8612 37.328 31.8252 37.384 31.7852 37.416C31.7532 37.44 31.7052 37.452 31.6412 37.452H31.1732C31.1012 37.452 31.0372 37.428 30.9812 37.38C30.9332 37.324 30.9092 37.26 30.9092 37.188C30.9092 37.004 30.9932 36.792 31.1612 36.552C31.3372 36.304 31.6052 36.092 31.9652 35.916C32.3252 35.732 32.7652 35.64 33.2852 35.64C34.1812 35.64 34.8212 35.848 35.2052 36.264C35.5972 36.68 35.7932 37.2 35.7932 37.824V41.724C35.7932 41.804 35.7652 41.872 35.7092 41.928C35.6612 41.976 35.5972 42 35.5172 42H34.9892C34.9092 42 34.8452 41.976 34.7972 41.928C34.7492 41.872 34.7252 41.804 34.7252 41.724V41.196C34.5492 41.46 34.2932 41.68 33.9572 41.856C33.6212 42.032 33.1892 42.12 32.6612 42.12ZM32.9012 41.244C33.4292 41.244 33.8612 41.072 34.1972 40.728C34.5332 40.384 34.7012 39.884 34.7012 39.228V38.892L33.2972 39.096C32.7212 39.176 32.2852 39.312 31.9892 39.504C31.6932 39.696 31.5452 39.936 31.5452 40.224C31.5452 40.552 31.6772 40.804 31.9412 40.98C32.2132 41.156 32.5332 41.244 32.9012 41.244ZM37.8069 42C37.7269 42 37.6589 41.976 37.6029 41.928C37.5549 41.872 37.5309 41.804 37.5309 41.724V36.036C37.5309 35.956 37.5549 35.892 37.6029 35.844C37.6589 35.788 37.7269 35.76 37.8069 35.76H38.3229C38.4109 35.76 38.4789 35.784 38.5269 35.832C38.5749 35.88 38.5989 35.948 38.5989 36.036V36.564C38.8389 36.268 39.1149 36.04 39.4269 35.88C39.7469 35.72 40.1429 35.64 40.6149 35.64C41.3829 35.64 41.9789 35.888 42.4029 36.384C42.8269 36.872 43.0389 37.52 43.0389 38.328V41.724C43.0389 41.804 43.0109 41.872 42.9549 41.928C42.9069 41.976 42.8429 42 42.7629 42H42.2109C42.1309 42 42.0629 41.976 42.0069 41.928C41.9589 41.872 41.9349 41.804 41.9349 41.724V38.4C41.9349 37.824 41.7949 37.376 41.5149 37.056C41.2349 36.736 40.8349 36.576 40.3149 36.576C39.8029 36.576 39.3949 36.74 39.0909 37.068C38.7869 37.388 38.6349 37.832 38.6349 38.4V41.724C38.6349 41.804 38.6069 41.872 38.5509 41.928C38.5029 41.976 38.4389 42 38.3589 42H37.8069ZM48.0142 44.28C47.9342 44.28 47.8662 44.256 47.8102 44.208C47.7622 44.16 47.7382 44.092 47.7382 44.004V36.036C47.7382 35.948 47.7622 35.88 47.8102 35.832C47.8662 35.784 47.9342 35.76 48.0142 35.76H48.5182C48.6062 35.76 48.6742 35.784 48.7222 35.832C48.7702 35.88 48.7942 35.948 48.7942 36.036V36.564C49.2582 35.948 49.9182 35.64 50.7742 35.64C51.6142 35.64 52.2422 35.908 52.6582 36.444C53.0822 36.972 53.3062 37.648 53.3302 38.472C53.3382 38.56 53.3422 38.696 53.3422 38.88C53.3422 39.064 53.3382 39.2 53.3302 39.288C53.3062 40.104 53.0822 40.78 52.6582 41.316C52.2422 41.852 51.6142 42.12 50.7742 42.12C49.9182 42.12 49.2702 41.816 48.8302 41.208V44.004C48.8302 44.084 48.8022 44.148 48.7462 44.196C48.6982 44.252 48.6342 44.28 48.5542 44.28H48.0142ZM50.5462 41.184C51.1222 41.184 51.5422 41.004 51.8062 40.644C52.0702 40.284 52.2142 39.812 52.2382 39.228C52.2462 39.148 52.2502 39.032 52.2502 38.88C52.2502 37.344 51.6822 36.576 50.5462 36.576C49.9862 36.576 49.5622 36.764 49.2742 37.14C48.9942 37.508 48.8462 37.944 48.8302 38.448C48.8222 38.536 48.8182 38.692 48.8182 38.916C48.8182 39.14 48.8222 39.296 48.8302 39.384C48.8462 39.872 48.9982 40.296 49.2862 40.656C49.5822 41.008 50.0022 41.184 50.5462 41.184ZM55.1392 42C55.0592 42 54.9912 41.976 54.9352 41.928C54.8872 41.872 54.8632 41.804 54.8632 41.724V33.756C54.8632 33.668 54.8872 33.6 54.9352 33.552C54.9912 33.504 55.0592 33.48 55.1392 33.48H55.6912C55.7792 33.48 55.8472 33.504 55.8952 33.552C55.9432 33.6 55.9672 33.668 55.9672 33.756V36.552C56.1992 36.256 56.4712 36.032 56.7832 35.88C57.1032 35.72 57.4952 35.64 57.9592 35.64C58.7272 35.64 59.3232 35.888 59.7472 36.384C60.1792 36.872 60.3952 37.52 60.3952 38.328V41.724C60.3952 41.804 60.3672 41.872 60.3112 41.928C60.2632 41.976 60.1992 42 60.1192 42H59.5552C59.4752 42 59.4072 41.976 59.3512 41.928C59.3032 41.872 59.2792 41.804 59.2792 41.724V38.4C59.2792 37.824 59.1392 37.376 58.8592 37.056C58.5792 36.736 58.1752 36.576 57.6472 36.576C57.1352 36.576 56.7272 36.74 56.4232 37.068C56.1192 37.388 55.9672 37.832 55.9672 38.4V41.724C55.9672 41.804 55.9392 41.872 55.8832 41.928C55.8352 41.976 55.7712 42 55.6912 42H55.1392ZM64.6722 42.12C63.7922 42.12 63.1122 41.872 62.6322 41.376C62.1602 40.88 61.9082 40.22 61.8762 39.396L61.8642 38.88L61.8762 38.364C61.9082 37.54 62.1642 36.88 62.6442 36.384C63.1322 35.888 63.8082 35.64 64.6722 35.64C65.5362 35.64 66.2082 35.888 66.6882 36.384C67.1762 36.88 67.4362 37.54 67.4682 38.364C67.4842 38.54 67.4922 38.712 67.4922 38.88C67.4922 39.048 67.4842 39.22 67.4682 39.396C67.4362 40.22 67.1802 40.88 66.7002 41.376C66.2282 41.872 65.5522 42.12 64.6722 42.12ZM64.6722 41.22C65.1842 41.22 65.5882 41.06 65.8842 40.74C66.1882 40.412 66.3522 39.944 66.3762 39.336C66.3842 39.256 66.3882 39.104 66.3882 38.88C66.3882 38.656 66.3842 38.504 66.3762 38.424C66.3522 37.816 66.1882 37.352 65.8842 37.032C65.5882 36.704 65.1842 36.54 64.6722 36.54C64.1602 36.54 63.7522 36.704 63.4482 37.032C63.1522 37.352 62.9922 37.816 62.9682 38.424L62.9562 38.88L62.9682 39.336C62.9922 39.944 63.1522 40.412 63.4482 40.74C63.7522 41.06 64.1602 41.22 64.6722 41.22ZM71.3488 42C70.1088 42 69.4888 41.3 69.4888 39.9V36.684H68.5408C68.4608 36.684 68.3968 36.66 68.3488 36.612C68.3008 36.564 68.2768 36.5 68.2768 36.42V36.036C68.2768 35.956 68.3008 35.892 68.3488 35.844C68.3968 35.788 68.4608 35.76 68.5408 35.76H69.4888V33.756C69.4888 33.676 69.5128 33.612 69.5608 33.564C69.6088 33.508 69.6728 33.48 69.7528 33.48H70.2808C70.3608 33.48 70.4248 33.508 70.4728 33.564C70.5288 33.612 70.5568 33.676 70.5568 33.756V35.76H72.0448C72.1248 35.76 72.1888 35.788 72.2368 35.844C72.2928 35.892 72.3208 35.956 72.3208 36.036V36.42C72.3208 36.5 72.2928 36.564 72.2368 36.612C72.1888 36.66 72.1248 36.684 72.0448 36.684H70.5568V39.816C70.5568 40.224 70.6208 40.532 70.7488 40.74C70.8848 40.948 71.1128 41.052 71.4328 41.052H72.1648C72.2448 41.052 72.3088 41.08 72.3568 41.136C72.4048 41.184 72.4288 41.248 72.4288 41.328V41.724C72.4288 41.804 72.4048 41.872 72.3568 41.928C72.3088 41.976 72.2448 42 72.1648 42H71.3488ZM76.1332 42.12C75.2532 42.12 74.5732 41.872 74.0932 41.376C73.6212 40.88 73.3692 40.22 73.3372 39.396L73.3252 38.88L73.3372 38.364C73.3692 37.54 73.6252 36.88 74.1052 36.384C74.5932 35.888 75.2692 35.64 76.1332 35.64C76.9972 35.64 77.6692 35.888 78.1492 36.384C78.6372 36.88 78.8972 37.54 78.9292 38.364C78.9452 38.54 78.9532 38.712 78.9532 38.88C78.9532 39.048 78.9452 39.22 78.9292 39.396C78.8972 40.22 78.6412 40.88 78.1612 41.376C77.6892 41.872 77.0132 42.12 76.1332 42.12ZM76.1332 41.22C76.6452 41.22 77.0492 41.06 77.3452 40.74C77.6492 40.412 77.8132 39.944 77.8372 39.336C77.8452 39.256 77.8492 39.104 77.8492 38.88C77.8492 38.656 77.8452 38.504 77.8372 38.424C77.8132 37.816 77.6492 37.352 77.3452 37.032C77.0492 36.704 76.6452 36.54 76.1332 36.54C75.6212 36.54 75.2132 36.704 74.9092 37.032C74.6132 37.352 74.4532 37.816 74.4292 38.424L74.4172 38.88L74.4292 39.336C74.4532 39.944 74.6132 40.412 74.9092 40.74C75.2132 41.06 75.6212 41.22 76.1332 41.22ZM16.1742 56.12C15.2942 56.12 14.6142 55.872 14.1342 55.376C13.6622 54.88 13.4102 54.22 13.3782 53.396L13.3662 52.88L13.3782 52.364C13.4102 51.54 13.6662 50.88 14.1462 50.384C14.6342 49.888 15.3102 49.64 16.1742 49.64C17.0382 49.64 17.7102 49.888 18.1902 50.384C18.6782 50.88 18.9382 51.54 18.9702 52.364C18.9862 52.54 18.9942 52.712 18.9942 52.88C18.9942 53.048 18.9862 53.22 18.9702 53.396C18.9382 54.22 18.6822 54.88 18.2022 55.376C17.7302 55.872 17.0542 56.12 16.1742 56.12ZM16.1742 55.22C16.6862 55.22 17.0902 55.06 17.3862 54.74C17.6902 54.412 17.8542 53.944 17.8782 53.336C17.8862 53.256 17.8902 53.104 17.8902 52.88C17.8902 52.656 17.8862 52.504 17.8782 52.424C17.8542 51.816 17.6902 51.352 17.3862 51.032C17.0902 50.704 16.6862 50.54 16.1742 50.54C15.6622 50.54 15.2542 50.704 14.9502 51.032C14.6542 51.352 14.4942 51.816 14.4702 52.424L14.4582 52.88L14.4702 53.336C14.4942 53.944 14.6542 54.412 14.9502 54.74C15.2542 55.06 15.6622 55.22 16.1742 55.22ZM20.7854 56C20.7054 56 20.6374 55.976 20.5814 55.928C20.5334 55.872 20.5094 55.804 20.5094 55.724V50.048C20.5094 49.968 20.5334 49.9 20.5814 49.844C20.6374 49.788 20.7054 49.76 20.7854 49.76H21.2894C21.3774 49.76 21.4454 49.788 21.4934 49.844C21.5494 49.892 21.5774 49.96 21.5774 50.048V50.576C21.9054 50.032 22.4614 49.76 23.2454 49.76H23.7134C23.8014 49.76 23.8694 49.784 23.9174 49.832C23.9654 49.88 23.9894 49.948 23.9894 50.036V50.48C23.9894 50.56 23.9654 50.628 23.9174 50.684C23.8694 50.732 23.8014 50.756 23.7134 50.756H23.0294C22.5894 50.756 22.2414 50.884 21.9854 51.14C21.7374 51.396 21.6134 51.744 21.6134 52.184V55.724C21.6134 55.804 21.5854 55.872 21.5294 55.928C21.4734 55.976 21.4054 56 21.3254 56H20.7854Z" fill="#7B89A6"/>
<path d="M30.741 56.12C29.877 56.12 29.217 55.816 28.761 55.208V55.724C28.761 55.804 28.733 55.872 28.677 55.928C28.629 55.976 28.565 56 28.485 56H27.981C27.901 56 27.833 55.976 27.777 55.928C27.729 55.872 27.705 55.804 27.705 55.724V47.756C27.705 47.668 27.729 47.6 27.777 47.552C27.833 47.504 27.901 47.48 27.981 47.48H28.521C28.601 47.48 28.665 47.508 28.713 47.564C28.769 47.612 28.797 47.676 28.797 47.756V50.528C29.245 49.936 29.893 49.64 30.741 49.64C31.581 49.64 32.209 49.916 32.625 50.468C33.049 51.012 33.273 51.696 33.297 52.52C33.305 52.608 33.309 52.728 33.309 52.88C33.309 53.032 33.305 53.152 33.297 53.24C33.273 54.064 33.049 54.752 32.625 55.304C32.209 55.848 31.581 56.12 30.741 56.12ZM30.513 55.184C31.089 55.184 31.509 55.004 31.773 54.644C32.037 54.284 32.181 53.812 32.205 53.228C32.213 53.148 32.217 53.032 32.217 52.88C32.217 51.344 31.649 50.576 30.513 50.576C29.969 50.576 29.549 50.756 29.253 51.116C28.965 51.468 28.813 51.888 28.797 52.376C28.789 52.464 28.785 52.62 28.785 52.844C28.785 53.06 28.789 53.212 28.797 53.3C28.813 53.812 28.961 54.256 29.241 54.632C29.529 55 29.953 55.184 30.513 55.184ZM35.094 56C35.014 56 34.946 55.976 34.89 55.928C34.842 55.872 34.818 55.804 34.818 55.724V50.048C34.818 49.968 34.842 49.9 34.89 49.844C34.946 49.788 35.014 49.76 35.094 49.76H35.598C35.686 49.76 35.754 49.788 35.802 49.844C35.858 49.892 35.886 49.96 35.886 50.048V50.576C36.214 50.032 36.77 49.76 37.554 49.76H38.022C38.11 49.76 38.178 49.784 38.226 49.832C38.274 49.88 38.298 49.948 38.298 50.036V50.48C38.298 50.56 38.274 50.628 38.226 50.684C38.178 50.732 38.11 50.756 38.022 50.756H37.338C36.898 50.756 36.55 50.884 36.294 51.14C36.046 51.396 35.922 51.744 35.922 52.184V55.724C35.922 55.804 35.894 55.872 35.838 55.928C35.782 55.976 35.714 56 35.634 56H35.094ZM41.7445 56.12C40.8645 56.12 40.1845 55.872 39.7045 55.376C39.2325 54.88 38.9805 54.22 38.9485 53.396L38.9365 52.88L38.9485 52.364C38.9805 51.54 39.2365 50.88 39.7165 50.384C40.2045 49.888 40.8805 49.64 41.7445 49.64C42.6085 49.64 43.2805 49.888 43.7605 50.384C44.2485 50.88 44.5085 51.54 44.5405 52.364C44.5565 52.54 44.5645 52.712 44.5645 52.88C44.5645 53.048 44.5565 53.22 44.5405 53.396C44.5085 54.22 44.2525 54.88 43.7725 55.376C43.3005 55.872 42.6245 56.12 41.7445 56.12ZM41.7445 55.22C42.2565 55.22 42.6605 55.06 42.9565 54.74C43.2605 54.412 43.4245 53.944 43.4485 53.336C43.4565 53.256 43.4605 53.104 43.4605 52.88C43.4605 52.656 43.4565 52.504 43.4485 52.424C43.4245 51.816 43.2605 51.352 42.9565 51.032C42.6605 50.704 42.2565 50.54 41.7445 50.54C41.2325 50.54 40.8245 50.704 40.5205 51.032C40.2245 51.352 40.0645 51.816 40.0405 52.424L40.0285 52.88L40.0405 53.336C40.0645 53.944 40.2245 54.412 40.5205 54.74C40.8245 55.06 41.2325 55.22 41.7445 55.22ZM47.5716 56C47.4596 56 47.3756 55.976 47.3196 55.928C47.2636 55.88 47.2196 55.804 47.1876 55.7L45.4836 50.132L45.4596 50.012C45.4596 49.94 45.4836 49.88 45.5316 49.832C45.5796 49.784 45.6396 49.76 45.7116 49.76H46.2036C46.2836 49.76 46.3476 49.784 46.3956 49.832C46.4516 49.872 46.4836 49.912 46.4916 49.952L47.8476 54.536L49.2876 50.012C49.3036 49.948 49.3396 49.892 49.3956 49.844C49.4516 49.788 49.5276 49.76 49.6236 49.76H50.0076C50.1036 49.76 50.1796 49.788 50.2356 49.844C50.2916 49.892 50.3276 49.948 50.3436 50.012L51.7836 54.536L53.1396 49.952C53.1476 49.912 53.1756 49.872 53.2236 49.832C53.2796 49.784 53.3476 49.76 53.4276 49.76H53.9196C53.9916 49.76 54.0516 49.784 54.0996 49.832C54.1476 49.88 54.1716 49.94 54.1716 50.012L54.1476 50.132L52.4436 55.7C52.4116 55.804 52.3676 55.88 52.3116 55.928C52.2556 55.976 52.1716 56 52.0596 56H51.6276C51.4196 56 51.2836 55.9 51.2196 55.7L49.8156 51.356L48.4116 55.7C48.3476 55.9 48.2116 56 48.0036 56H47.5716ZM57.4969 56.12C56.9449 56.12 56.4769 56.032 56.0929 55.856C55.7169 55.672 55.4369 55.464 55.2529 55.232C55.0689 55 54.9769 54.808 54.9769 54.656C54.9769 54.576 55.0049 54.516 55.0609 54.476C55.1169 54.428 55.1769 54.404 55.2409 54.404H55.7449C55.7929 54.404 55.8289 54.412 55.8529 54.428C55.8849 54.444 55.9249 54.48 55.9729 54.536C56.1569 54.76 56.3609 54.936 56.5849 55.064C56.8169 55.192 57.1249 55.256 57.5089 55.256C57.9409 55.256 58.2849 55.176 58.5409 55.016C58.8049 54.856 58.9369 54.624 58.9369 54.32C58.9369 54.12 58.8809 53.96 58.7689 53.84C58.6569 53.72 58.4689 53.612 58.2049 53.516C57.9489 53.42 57.5649 53.316 57.0529 53.204C56.3569 53.052 55.8649 52.832 55.5769 52.544C55.2889 52.256 55.1449 51.884 55.1449 51.428C55.1449 51.132 55.2329 50.848 55.4089 50.576C55.5849 50.296 55.8449 50.072 56.1889 49.904C56.5409 49.728 56.9569 49.64 57.4369 49.64C57.9409 49.64 58.3689 49.724 58.7209 49.892C59.0809 50.06 59.3489 50.256 59.5249 50.48C59.7089 50.704 59.8009 50.892 59.8009 51.044C59.8009 51.116 59.7729 51.176 59.7169 51.224C59.6689 51.272 59.6089 51.296 59.5369 51.296H59.0809C58.9689 51.296 58.8889 51.252 58.8409 51.164C58.7049 51.012 58.5889 50.896 58.4929 50.816C58.4049 50.728 58.2729 50.656 58.0969 50.6C57.9209 50.536 57.7009 50.504 57.4369 50.504C57.0449 50.504 56.7449 50.588 56.5369 50.756C56.3289 50.916 56.2249 51.132 56.2249 51.404C56.2249 51.572 56.2689 51.716 56.3569 51.836C56.4449 51.948 56.6129 52.056 56.8609 52.16C57.1089 52.256 57.4769 52.356 57.9649 52.46C58.7249 52.62 59.2609 52.848 59.5729 53.144C59.8929 53.44 60.0529 53.82 60.0529 54.284C60.0529 54.628 59.9529 54.94 59.7529 55.22C59.5609 55.5 59.2689 55.72 58.8769 55.88C58.4929 56.04 58.0329 56.12 57.4969 56.12ZM63.9267 56.12C63.1107 56.12 62.4587 55.868 61.9707 55.364C61.4827 54.852 61.2147 54.156 61.1667 53.276L61.1547 52.868L61.1667 52.472C61.2147 51.608 61.4827 50.92 61.9707 50.408C62.4587 49.896 63.1107 49.64 63.9267 49.64C64.8067 49.64 65.4867 49.92 65.9667 50.48C66.4547 51.04 66.6987 51.8 66.6987 52.76V52.976C66.6987 53.056 66.6707 53.124 66.6147 53.18C66.5667 53.228 66.5027 53.252 66.4227 53.252H62.2587V53.36C62.2827 53.88 62.4427 54.324 62.7387 54.692C63.0347 55.06 63.4267 55.244 63.9147 55.244C64.2907 55.244 64.5947 55.172 64.8267 55.028C65.0667 54.876 65.2467 54.72 65.3667 54.56C65.4387 54.464 65.4947 54.408 65.5347 54.392C65.5747 54.368 65.6427 54.356 65.7387 54.356H66.2667C66.3387 54.356 66.3987 54.376 66.4467 54.416C66.5027 54.456 66.5307 54.508 66.5307 54.572C66.5307 54.748 66.4227 54.96 66.2067 55.208C65.9907 55.456 65.6827 55.672 65.2827 55.856C64.8907 56.032 64.4387 56.12 63.9267 56.12ZM65.6067 52.436V52.4C65.6067 51.84 65.4547 51.384 65.1507 51.032C64.8467 50.68 64.4387 50.504 63.9267 50.504C63.4067 50.504 62.9987 50.68 62.7027 51.032C62.4067 51.384 62.2587 51.84 62.2587 52.4V52.436H65.6067Z" fill="#5893FF"/>
<path d="M30 14.4998C29.9994 13.3952 30.2804 12.3088 30.8166 11.3431C31.3527 10.3774 32.1262 9.56432 33.064 8.98076C33.3115 7.05085 34.2538 5.27727 35.7145 3.99192C37.1752 2.70658 39.0543 1.99756 41 1.99756C42.9457 1.99756 44.8248 2.70658 46.2855 3.99192C47.7462 5.27727 48.6885 7.05085 48.936 8.98076C50.0992 9.70445 51.0041 10.7772 51.5213 12.0457C52.0385 13.3143 52.1417 14.7139 51.8161 16.0446C51.4906 17.3753 50.7528 18.5692 49.7083 19.4556C48.6638 20.3421 47.366 20.8759 46 20.9808L36 20.9998C32.644 20.7258 30 17.9218 30 14.4998ZM45.848 18.9868C46.7938 18.914 47.6925 18.5443 48.4156 17.9303C49.1387 17.3163 49.6493 16.4895 49.8745 15.568C50.0996 14.6465 50.0278 13.6774 49.6692 12.7991C49.3107 11.9209 48.6837 11.1784 47.878 10.6778L47.071 10.1748L46.951 9.23276C46.7641 7.78645 46.0569 6.4577 44.9616 5.49485C43.8663 4.532 42.4578 4.00095 40.9995 4.00095C39.5412 4.00095 38.1327 4.532 37.0374 5.49485C35.9421 6.4577 35.2349 7.78645 35.048 9.23276L34.928 10.1748L34.123 10.6778C33.3173 11.1784 32.6904 11.9208 32.3318 12.7989C31.9732 13.6771 31.9013 14.6461 32.1263 15.5676C32.3513 16.4891 32.8618 17.3159 33.5848 17.9299C34.3077 18.544 35.2063 18.9139 36.152 18.9868L36.325 18.9998H45.675L45.848 18.9868ZM42 12.9998V16.9998H40V12.9998H37L41 7.99976L45 12.9998H42Z" fill="#C4CFE1"/>
</svg>
