<svg width="48" height="48" viewBox="0 0 48 48" fill="none" xmlns="http://www.w3.org/2000/svg">
<path opacity="0.1" d="M24 48C37.2548 48 48 37.2548 48 24C48 10.7452 37.2548 0 24 0C10.7452 0 0 10.7452 0 24C0 37.2548 10.7452 48 24 48Z" fill="#67BAE4"/>
<path d="M32.75 33.625H15.25C13.675 33.625 12.4062 32.3562 12.4062 30.7812V20.0625C12.4062 19.6906 12.6906 19.4062 13.0625 19.4062C13.4344 19.4062 13.7188 19.6906 13.7188 20.0625V30.7812C13.7188 31.6344 14.3969 32.3125 15.25 32.3125H32.75C33.6031 32.3125 34.2812 31.6125 34.2812 31V20.0625C34.2812 19.6906 34.5656 19.4062 34.9375 19.4062C35.3094 19.4062 35.5938 19.6906 35.5938 20.0625V31C35.5938 32.4 34.2594 33.625 32.75 33.625Z" fill="#67BAE4"/>
<path d="M23.9998 25.0937C20.8936 25.0937 18.0061 23.8687 15.8623 21.6156C15.6217 21.3531 15.6217 20.9375 15.8842 20.6969C16.1467 20.4562 16.5623 20.4562 16.803 20.7187C18.7061 22.6875 21.2436 23.7812 23.978 23.7812C26.7123 23.7812 29.2717 22.6875 31.153 20.7187C31.3936 20.4562 31.8092 20.4562 32.0717 20.6969C32.3342 20.9375 32.3342 21.3531 32.0936 21.6156C29.9936 23.8687 27.1061 25.0937 23.9998 25.0937Z" fill="#67BAE4"/>
<path d="M34.9375 17.875C34.5656 17.875 34.2812 17.5906 34.2812 17.2188C34.2812 16.3656 33.6031 15.6875 32.75 15.6875H15.25C14.3969 15.6875 13.7188 16.3656 13.7188 17.2188C13.7188 17.5906 13.4344 17.875 13.0625 17.875C12.6906 17.875 12.4062 17.5906 12.4062 17.2188C12.4062 15.6438 13.675 14.375 15.25 14.375H32.75C34.325 14.375 35.5938 15.6438 35.5938 17.2188C35.5938 17.5906 35.3094 17.875 34.9375 17.875Z" fill="#67BAE4"/>
</svg>
