<svg width="48" height="48" viewBox="0 0 48 48" fill="none" xmlns="http://www.w3.org/2000/svg">
<path opacity="0.1" d="M24 48C37.2548 48 48 37.2548 48 24C48 10.7452 37.2548 0 24 0C10.7452 0 0 10.7452 0 24C0 37.2548 10.7452 48 24 48Z" fill="#FF5576"/>
<path d="M30.7812 30.3438V35.1562L34.9375 32.75L30.7812 30.3438Z" fill="#FFD0D0"/>
<path d="M30.7812 35.8124C30.6719 35.8124 30.5625 35.7905 30.4531 35.7249C30.2563 35.6155 30.125 35.3968 30.125 35.1562V30.3437C30.125 30.103 30.2563 29.8843 30.4531 29.7749C30.65 29.6655 30.9125 29.6655 31.1094 29.7749L35.2656 32.1812C35.4625 32.2905 35.5938 32.5093 35.5938 32.7499C35.5938 32.9905 35.4625 33.2093 35.2656 33.3187L31.1094 35.7249C31 35.7905 30.8906 35.8124 30.7812 35.8124ZM31.4375 31.4812V34.0187L33.625 32.7499L31.4375 31.4812Z" fill="#FF9898"/>
<path d="M26.4062 33.625H15.25C13.675 33.625 12.4062 32.3562 12.4062 30.7812V20.0625C12.4062 19.6906 12.6906 19.4062 13.0625 19.4062C13.4344 19.4062 13.7188 19.6906 13.7188 20.0625V30.7812C13.7188 31.6344 14.3969 32.3125 15.25 32.3125H26.4062C26.7781 32.3125 27.0625 32.5969 27.0625 32.9688C27.0625 33.3406 26.7781 33.625 26.4062 33.625Z" fill="#CF2F4E"/>
<path d="M34.9375 29.0312C34.5656 29.0312 34.2812 28.7469 34.2812 28.375V20.0625C34.2812 19.6906 34.5656 19.4062 34.9375 19.4062C35.3094 19.4062 35.5938 19.6906 35.5938 20.0625V28.375C35.5938 28.7469 35.3094 29.0312 34.9375 29.0312Z" fill="#CF2F4E"/>
<path d="M24.0006 25.0937C20.8943 25.0937 18.0068 23.8687 15.8631 21.6156C15.6225 21.3531 15.6225 20.9375 15.885 20.6969C16.1475 20.4562 16.5631 20.4562 16.8037 20.7187C18.7068 22.6875 21.2443 23.7812 23.9787 23.7812C26.7131 23.7812 29.2725 22.6875 31.1537 20.7187C31.3943 20.4562 31.81 20.4562 32.0725 20.6969C32.335 20.9375 32.335 21.3531 32.0943 21.6156C29.9943 23.8687 27.1068 25.0937 24.0006 25.0937Z" fill="#CF2F4E"/>
<path d="M34.9375 17.875C34.5656 17.875 34.2812 17.5906 34.2812 17.2188C34.2812 16.3656 33.6031 15.6875 32.75 15.6875H15.25C14.3969 15.6875 13.7188 16.3656 13.7188 17.2188C13.7188 17.5906 13.4344 17.875 13.0625 17.875C12.6906 17.875 12.4062 17.5906 12.4062 17.2188C12.4062 15.6438 13.675 14.375 15.25 14.375H32.75C34.325 14.375 35.5938 15.6438 35.5938 17.2188C35.5938 17.5906 35.3094 17.875 34.9375 17.875Z" fill="#CF2F4E"/>
</svg>
