<svg width="48" height="48" viewBox="0 0 48 48" fill="none" xmlns="http://www.w3.org/2000/svg">
<path opacity="0.1" d="M24 48C37.2548 48 48 37.2548 48 24C48 10.7452 37.2548 0 24 0C10.7452 0 0 10.7452 0 24C0 37.2548 10.7452 48 24 48Z" fill="#9D8DFF"/>
<path d="M27.2812 37.125C28.4894 37.125 29.4688 36.1456 29.4688 34.9375C29.4688 33.7294 28.4894 32.75 27.2812 32.75C26.0731 32.75 25.0938 33.7294 25.0938 34.9375C25.0938 36.1456 26.0731 37.125 27.2812 37.125Z" fill="#DDD1FF"/>
<path d="M16.7812 32.3125H15.25C13.675 32.3125 12.4062 31.0437 12.4062 29.4688V18.75C12.4062 18.3781 12.6906 18.0938 13.0625 18.0938C13.4344 18.0938 13.7188 18.3781 13.7188 18.75V29.4688C13.7188 30.3219 14.3969 31 15.25 31H16.7812C17.1531 31 17.4375 31.2844 17.4375 31.6562C17.4375 32.0281 17.1531 32.3125 16.7812 32.3125Z" fill="#767BF1"/>
<path d="M34.9375 25.0938C34.5656 25.0938 34.2812 24.8094 34.2812 24.4375V18.75C34.2812 18.3781 34.5656 18.0938 34.9375 18.0938C35.3094 18.0938 35.5938 18.3781 35.5938 18.75V24.4375C35.5938 24.8094 35.3094 25.0938 34.9375 25.0938Z" fill="#767BF1"/>
<path d="M24.0006 23.7812C20.8943 23.7812 18.0068 22.5562 15.8631 20.3031C15.6225 20.0406 15.6225 19.625 15.885 19.3844C16.1475 19.1437 16.5631 19.1437 16.8037 19.4062C18.7068 21.375 21.2443 22.4687 23.9787 22.4687C26.7131 22.4687 29.2725 21.375 31.1537 19.4062C31.3943 19.1437 31.81 19.1437 32.0725 19.3844C32.335 19.625 32.335 20.0406 32.0943 20.3031C29.9943 22.5562 27.1068 23.7812 24.0006 23.7812Z" fill="#767BF1"/>
<path d="M34.9375 16.5625C34.5656 16.5625 34.2812 16.2781 34.2812 15.9062C34.2812 15.0531 33.6031 14.375 32.75 14.375H15.25C14.3969 14.375 13.7188 15.0531 13.7188 15.9062C13.7188 16.2781 13.4344 16.5625 13.0625 16.5625C12.6906 16.5625 12.4062 16.2781 12.4062 15.9062C12.4062 14.3313 13.675 13.0625 15.25 13.0625H32.75C34.325 13.0625 35.5938 14.3313 35.5938 15.9062C35.5938 16.2781 35.3094 16.5625 34.9375 16.5625Z" fill="#767BF1"/>
<path d="M25.6187 33.9312C25.4437 33.9312 25.2906 33.8656 25.1594 33.7344L22.9937 31.5687C22.7313 31.3062 22.7313 30.8906 22.9937 30.65C23.2562 30.3875 23.6719 30.3875 23.9125 30.65L26.0781 32.8156C26.3406 33.0781 26.3406 33.4937 26.0781 33.7344C25.9687 33.8656 25.7937 33.9312 25.6187 33.9312Z" fill="#B095FC"/>
<path d="M21.8125 32.3125C20.2375 32.3125 18.9688 31.0437 18.9688 29.4688C18.9688 27.8938 20.2375 26.625 21.8125 26.625C23.3875 26.625 24.6562 27.8938 24.6562 29.4688C24.6562 31.0437 23.3875 32.3125 21.8125 32.3125ZM21.8125 27.9375C20.9594 27.9375 20.2812 28.6156 20.2812 29.4688C20.2812 30.3219 20.9594 31 21.8125 31C22.6656 31 23.3438 30.3219 23.3438 29.4688C23.3438 28.6156 22.6656 27.9375 21.8125 27.9375Z" fill="#B095FC"/>
<path d="M28.9441 33.9312C28.7691 33.9312 28.6159 33.8656 28.4847 33.7344C28.2222 33.4719 28.2222 33.0562 28.4847 32.8156L30.6503 30.65C30.9128 30.3875 31.3284 30.3875 31.5691 30.65C31.8316 30.9125 31.8316 31.3281 31.5691 31.5687L29.4034 33.7344C29.2722 33.8656 29.1191 33.9312 28.9441 33.9312Z" fill="#B095FC"/>
<path d="M32.75 32.3125C31.175 32.3125 29.9062 31.0437 29.9062 29.4688C29.9062 27.8938 31.175 26.625 32.75 26.625C34.325 26.625 35.5938 27.8938 35.5938 29.4688C35.5938 31.0437 34.325 32.3125 32.75 32.3125ZM32.75 27.9375C31.8969 27.9375 31.2188 28.6156 31.2188 29.4688C31.2188 30.3219 31.8969 31 32.75 31C33.6031 31 34.2812 30.3219 34.2812 29.4688C34.2812 28.6156 33.6031 27.9375 32.75 27.9375Z" fill="#B095FC"/>
<path d="M27.2812 37.7812C25.7063 37.7812 24.4375 36.5125 24.4375 34.9375C24.4375 33.3625 25.7063 32.0938 27.2812 32.0938C28.8562 32.0938 30.125 33.3625 30.125 34.9375C30.125 36.5125 28.8562 37.7812 27.2812 37.7812ZM27.2812 33.4062C26.4281 33.4062 25.75 34.0844 25.75 34.9375C25.75 35.7906 26.4281 36.4688 27.2812 36.4688C28.1344 36.4688 28.8125 35.7906 28.8125 34.9375C28.8125 34.0844 28.1344 33.4062 27.2812 33.4062Z" fill="#B095FC"/>
</svg>
