<svg width="20" height="20" viewBox="0 0 20 20" fill="none" xmlns="http://www.w3.org/2000/svg">
<path d="M4.10747 15.8925C3.3325 15.1196 2.71791 14.2011 2.29903 13.1898C1.88015 12.1786 1.66524 11.0946 1.66663 10C1.66663 5.39752 5.39747 1.66669 9.99997 1.66669C14.6025 1.66669 18.3333 5.39752 18.3333 10C18.3333 14.6025 14.6025 18.3334 9.99997 18.3334H1.66663L4.10747 15.8925ZM6.66663 10.8334C6.66663 11.7174 7.01782 12.5653 7.64294 13.1904C8.26806 13.8155 9.11591 14.1667 9.99997 14.1667C10.884 14.1667 11.7319 13.8155 12.357 13.1904C12.9821 12.5653 13.3333 11.7174 13.3333 10.8334H6.66663Z" fill="white"/>
</svg>
