<svg width="14" height="14" viewBox="0 0 14 14" fill="none" xmlns="http://www.w3.org/2000/svg">
<path fill-rule="evenodd" clip-rule="evenodd" d="M7.0003 12.3028C4.07143 12.3028 1.69727 9.92867 1.69727 6.99981C1.69727 4.07094 4.07143 1.69678 7.0003 1.69678C9.92916 1.69678 12.3033 4.07094 12.3033 6.99981C12.3033 9.92867 9.92916 12.3028 7.0003 12.3028ZM7.17857 8.41389C6.78805 8.80446 6.15485 8.80448 5.7643 8.41394L4.59631 7.24594C4.38924 7.03888 4.38924 6.70316 4.59631 6.49609C4.80337 6.28903 5.13909 6.28903 5.34616 6.49609L5.76429 6.91423C6.15484 7.30477 6.78805 7.30475 7.17857 6.91416L9.09593 4.99646C9.30299 4.78936 9.63873 4.78935 9.84581 4.99642C10.0529 5.20348 10.0529 5.53917 9.84583 5.74624L7.17857 8.41389Z" fill="white"/>
</svg>
