<svg width="20" height="20" viewBox="0 0 20 20" fill="none" xmlns="http://www.w3.org/2000/svg">
<g opacity="0.2">
<path d="M9.293 8.11467C9.68353 8.5052 10.3167 8.50519 10.7072 8.11467L13.5359 5.28594C13.8613 4.96056 14.3889 4.96056 14.7143 5.28594C15.0397 5.61133 15.0397 6.13889 14.7143 6.46428L11.8855 9.293C11.495 9.68353 11.495 10.3167 11.8855 10.7072L14.7143 13.5359C15.0397 13.8613 15.0397 14.3889 14.7143 14.7143C14.3889 15.0397 13.8613 15.0397 13.5359 14.7143L10.7072 11.8855C10.3167 11.495 9.68353 11.495 9.293 11.8856L6.46428 14.7143C6.13889 15.0397 5.61133 15.0397 5.28594 14.7143C4.96056 14.3889 4.96056 13.8613 5.28594 13.5359L8.11467 10.7072C8.5052 10.3167 8.50519 9.68353 8.11467 9.293L5.28594 6.46428C4.96056 6.13889 4.96056 5.61133 5.28594 5.28594C5.61133 4.96056 6.13889 4.96056 6.46428 5.28594L9.293 8.11467Z" fill="#07080A"/>
</g>
</svg>
