<svg width="16" height="16" viewBox="0 0 16 16" fill="none" xmlns="http://www.w3.org/2000/svg">
<path d="M4.86035 13.8827L1.33302 14.6667L2.11702 11.1394C1.6007 10.1736 1.33137 9.09514 1.33302 8.00004C1.33302 4.31804 4.31768 1.33337 7.99968 1.33337C11.6817 1.33337 14.6663 4.31804 14.6663 8.00004C14.6663 11.682 11.6817 14.6667 7.99968 14.6667C6.90458 14.6684 5.82609 14.399 4.86035 13.8827ZM5.05368 12.474L5.48902 12.7074C6.26138 13.1201 7.12394 13.3352 7.99968 13.3334C9.05452 13.3334 10.0857 13.0206 10.9627 12.4345C11.8398 11.8485 12.5234 11.0156 12.927 10.041C13.3307 9.06648 13.4363 7.99412 13.2305 6.95956C13.0247 5.92499 12.5168 4.97468 11.7709 4.2288C11.025 3.48292 10.0747 2.97497 9.04016 2.76919C8.0056 2.5634 6.93324 2.66902 5.9587 3.07268C4.98416 3.47635 4.15121 4.15994 3.56518 5.037C2.97914 5.91406 2.66635 6.94521 2.66635 8.00004C2.66635 8.88937 2.88302 9.74537 3.29302 10.5107L3.52568 10.946L3.08902 12.9107L5.05368 12.474Z" fill="#5D82F1"/>
</svg>
