<svg width="44" height="44" viewBox="0 0 44 44" fill="none" xmlns="http://www.w3.org/2000/svg">
<path d="M22 44C34.1503 44 44 34.1503 44 22C44 9.84974 34.1503 0 22 0C9.84974 0 0 9.84974 0 22C0 34.1503 9.84974 44 22 44Z" fill="#4489F2"/>
<path d="M17.8346 17.8337V14.5003C17.8346 14.2793 17.9224 14.0674 18.0787 13.9111C18.235 13.7548 18.447 13.667 18.668 13.667H29.5013C29.7223 13.667 29.9343 13.7548 30.0906 13.9111C30.2468 14.0674 30.3346 14.2793 30.3346 14.5003V25.3337C30.3346 25.5547 30.2468 25.7666 30.0906 25.9229C29.9343 26.0792 29.7223 26.167 29.5013 26.167H26.168V29.4945C26.168 29.9578 25.7938 30.3337 25.3288 30.3337H14.5071C14.3969 30.3338 14.2877 30.3121 14.1859 30.27C14.084 30.2279 13.9915 30.1661 13.9135 30.0881C13.8356 30.0102 13.7738 29.9176 13.7316 29.8158C13.6895 29.7139 13.6679 29.6047 13.668 29.4945L13.6705 18.6728C13.6705 18.2095 14.0446 17.8337 14.5096 17.8337H17.8346ZM19.5013 17.8337H25.3288C25.7921 17.8337 26.168 18.2078 26.168 18.6728V24.5003H28.668V15.3337H19.5013V17.8337ZM15.3371 19.5003L15.3346 28.667H24.5013V19.5003H15.3371Z" fill="white"/>
</svg>
