<svg width="17" height="16" viewBox="0 0 17 16" fill="none" xmlns="http://www.w3.org/2000/svg">
<path d="M11.6713 1.9999L10.338 3.33324H3.83333V12.6666H13.1667V6.1619L14.5 4.82857V13.3332C14.5 13.51 14.4298 13.6796 14.3047 13.8046C14.1797 13.9297 14.0101 13.9999 13.8333 13.9999H3.16667C2.98986 13.9999 2.82029 13.9297 2.69526 13.8046C2.57024 13.6796 2.5 13.51 2.5 13.3332V2.66657C2.5 2.48976 2.57024 2.32019 2.69526 2.19516C2.82029 2.07014 2.98986 1.9999 3.16667 1.9999H11.6713ZM14.1567 1.3999L15.1 2.3439L8.972 8.4719L8.03067 8.4739L8.02933 7.52924L14.1567 1.3999Z" fill="#B4C0D4"/>
</svg>
