<svg width="48" height="48" viewBox="0 0 48 48" fill="none" xmlns="http://www.w3.org/2000/svg">
<path d="M33.375 44.625V37.125C33.375 35.0625 35.0625 33.375 37.125 33.375H44.625L33.375 44.625Z" fill="white"/>
<path d="M3.375 7.125V40.875C3.375 42.9375 5.0625 44.625 7.125 44.625H33.375V37.125C33.375 35.0625 35.0625 33.375 37.125 33.375H44.625V3.375H7.125C5.0625 3.375 3.375 5.0625 3.375 7.125Z" fill="white"/>
<path d="M25.875 45.75H7.125C4.425 45.75 2.25 43.575 2.25 40.875V7.125C2.25 4.425 4.425 2.25 7.125 2.25H29.625C30.2625 2.25 30.75 2.7375 30.75 3.375C30.75 4.0125 30.2625 4.5 29.625 4.5H7.125C5.6625 4.5 4.5 5.6625 4.5 7.125V40.875C4.5 42.3375 5.6625 43.5 7.125 43.5H25.875C26.5125 43.5 27 43.9875 27 44.625C27 45.2625 26.5125 45.75 25.875 45.75Z" fill="#445069"/>
<path d="M30.2619 20.25C30.0369 20.475 27.0369 23.5125 26.6994 23.6625L22.8369 19.8375C22.8744 19.725 22.9869 19.575 23.0619 19.4625L26.2494 16.275L30.2619 20.25Z" fill="white"/>
<path d="M47.1374 4.425L43.4249 0.7125C42.9749 0.2625 42.2624 0.2625 41.8499 0.7125L40.8374 1.725C40.3874 2.175 40.3874 2.85 40.8374 3.3L42.6749 5.2125C43.0874 5.6625 40.2749 5.9625 40.2749 5.9625L39.2249 4.9125C38.7749 4.4625 38.0624 4.4625 37.6124 4.9125L26.2499 16.275C26.0249 16.5 25.9124 16.7625 25.9124 17.0625C25.9124 17.3625 26.0249 17.6625 26.2499 17.85L27.6374 19.2375L28.3499 19.95C28.7249 20.325 28.8374 20.9625 28.5374 21.4125C28.1249 22.0125 27.2999 22.0875 26.8124 21.6L26.2499 21L24.7124 19.4625C24.4499 19.2 24.0749 19.0875 23.6999 19.1625C23.3249 19.2375 23.0249 19.5 22.8749 19.8375L20.2499 26.175C20.0624 26.5875 20.1749 27.1125 20.4749 27.45C20.7749 27.7875 21.2624 27.8625 21.6749 27.7125L28.0499 25.0125C28.1624 24.975 28.3124 24.8625 28.4249 24.7875L31.6124 21.6L47.2124 6.0375C47.4374 5.8125 47.5499 5.55 47.5499 5.25C47.4749 4.9125 47.3624 4.65 47.1374 4.425Z" fill="#73ABFF"/>
<path d="M37.6127 4.91257C38.0627 4.46257 38.7752 4.46257 39.1877 4.91257L39.4502 5.17507C39.9002 5.62507 39.8627 6.33757 39.4502 6.75007L33.4127 12.8251C32.9627 13.2751 32.9627 13.9876 33.4127 14.4001C33.8627 14.8501 34.5752 14.8501 34.9877 14.4001L42.6002 6.82507C43.0502 6.37507 43.0502 5.70007 42.6002 5.25007L40.7627 3.33757C40.3502 2.88757 40.3502 2.21257 40.7627 1.76257L37.6127 4.91257Z" fill="white"/>
<path d="M45.75 14.625C45.75 13.9875 45.2625 13.5 44.625 13.5C43.9875 13.5 43.5 13.9875 43.5 14.625V32.25H37.125C34.425 32.25 32.25 34.425 32.25 37.125V44.625C32.25 45.075 32.5125 45.4875 32.9625 45.675C33.1125 45.75 33.2625 45.75 33.375 45.75C33.675 45.75 33.9375 45.6375 34.1625 45.4125L45.4125 34.1625C45.6375 33.9375 45.75 33.675 45.75 33.375V14.625ZM34.5 41.925V37.125C34.5 35.6625 35.6625 34.5 37.125 34.5H41.925L34.5 41.925Z" fill="#445069"/>
</svg>
