<svg width="14" height="14" viewBox="0 0 14 14" fill="none" xmlns="http://www.w3.org/2000/svg">
<path d="M4.51798 10.2071C4.33044 10.3947 4.07609 10.5 3.81087 10.5H2.75C2.19772 10.5 1.75 10.0523 1.75 9.50001V8.43914C1.75 8.17392 1.85536 7.91957 2.04289 7.73203L8.42042 1.35451C8.52981 1.24515 8.67815 1.18372 8.83283 1.18372C8.98751 1.18372 9.13586 1.24515 9.24525 1.35451L10.8955 3.00476C11.0049 3.11415 11.0663 3.2625 11.0663 3.41717C11.0663 3.57185 11.0049 3.7202 10.8955 3.82959L4.51798 10.2071ZM1.75 12.25C1.75 11.9278 2.01117 11.6667 2.33333 11.6667H11.6667C11.9888 11.6667 12.25 11.9278 12.25 12.25C12.25 12.5722 11.9888 12.8333 11.6667 12.8333H2.33333C2.01117 12.8333 1.75 12.5722 1.75 12.25Z" fill="#4F8AF4"/>
</svg>
