<svg width="40" height="40" viewBox="0 0 40 40" fill="none" xmlns="http://www.w3.org/2000/svg">
<circle opacity="0.2" cx="20" cy="20" r="20" fill="#97A4BD"/>
<path d="M12.4998 12.5H27.4998C27.7209 12.5 27.9328 12.5878 28.0891 12.7441C28.2454 12.9004 28.3332 13.1123 28.3332 13.3333V26.6667C28.3332 26.8877 28.2454 27.0996 28.0891 27.2559C27.9328 27.4122 27.7209 27.5 27.4998 27.5H12.4998C12.2788 27.5 12.0669 27.4122 11.9106 27.2559C11.7543 27.0996 11.6665 26.8877 11.6665 26.6667V13.3333C11.6665 13.1123 11.7543 12.9004 11.9106 12.7441C12.0669 12.5878 12.2788 12.5 12.4998 12.5ZM20.6981 19.175C20.3251 19.4977 19.7724 19.5003 19.3964 19.181L15.3415 15.7375C14.9907 15.4397 14.465 15.4825 14.1671 15.8331C13.869 16.1839 13.9119 16.7099 14.2628 17.0079L19.4073 21.376C19.7833 21.6953 20.3359 21.6927 20.7089 21.3699L25.7483 17.0092C26.0962 16.7082 26.1343 16.1821 25.8334 15.834C25.5323 15.4858 25.0059 15.4476 24.6577 15.7488L20.6981 19.175Z" fill="#97A4BD"/>
</svg>
