<svg width="44" height="44" viewBox="0 0 44 44" fill="none" xmlns="http://www.w3.org/2000/svg">
<circle cx="22" cy="22" r="22" fill="#6672E8"/>
<path d="M12.243 16.854L21.49 11.31C21.6454 11.2167 21.8233 11.1675 22.0045 11.1675C22.1857 11.1675 22.3636 11.2167 22.519 11.31L31.757 16.855C31.8311 16.8994 31.8925 16.9623 31.9351 17.0375C31.9776 17.1126 32 17.1976 32 17.284V30C32 30.2652 31.8946 30.5196 31.7071 30.7071C31.5196 30.8946 31.2652 31 31 31H13C12.7348 31 12.4804 30.8946 12.2929 30.7071C12.1054 30.5196 12 30.2652 12 30V17.283C12 17.1966 12.0224 17.1116 12.0649 17.0365C12.1075 16.9613 12.1689 16.8984 12.243 16.854ZM28.346 18.244L22.061 23.683L15.647 18.238L14.353 19.762L22.073 26.317L29.654 19.757L28.346 18.244Z" fill="white"/>
</svg>
