<svg width="20" height="20" viewBox="0 0 20 20" fill="none" xmlns="http://www.w3.org/2000/svg">
<path fill-rule="evenodd" clip-rule="evenodd" d="M10 7.79423C8.78167 7.79423 7.79399 8.78192 7.79399 10.0003C7.79399 11.2187 8.78167 12.2064 10 12.2064C11.2184 12.2064 12.2061 11.2187 12.2061 10.0003C12.2061 8.78192 11.2184 7.79423 10 7.79423ZM5.90308 10.0003C5.90308 7.7376 7.73735 5.90332 10 5.90332C12.2627 5.90332 14.097 7.7376 14.097 10.0003C14.097 12.263 12.2627 14.0973 10 14.0973C7.73735 14.0973 5.90308 12.263 5.90308 10.0003Z" fill="#2F9EEE"/>
<path fill-rule="evenodd" clip-rule="evenodd" d="M6.23011 2.0218C8.03077 1.17086 10.0663 0.954071 12.0058 1.40669C13.9453 1.85931 15.6747 2.95472 16.9127 4.5148C18.1507 6.07487 18.8245 8.00787 18.8246 9.99948V10.7874C18.8246 11.665 18.476 12.5067 17.8554 13.1273C17.2349 13.7479 16.3932 14.0965 15.5156 14.0965C14.6379 14.0965 13.7962 13.7479 13.1757 13.1273C12.5551 12.5067 12.2065 11.665 12.2065 10.7874V6.84802C12.2065 6.32586 12.6298 5.90257 13.1519 5.90257C13.6741 5.90257 14.0974 6.32586 14.0974 6.84802V10.7874C14.0974 11.1635 14.2468 11.5243 14.5127 11.7902C14.7787 12.0562 15.1394 12.2056 15.5156 12.2056C15.8917 12.2056 16.2524 12.0562 16.5184 11.7902C16.7843 11.5243 16.9337 11.1635 16.9337 10.7874V9.99959C16.9337 9.99957 16.9337 9.99961 16.9337 9.99959C16.9336 8.43478 16.4042 6.91596 15.4315 5.6902C14.4588 4.46443 13.1 3.60375 11.5761 3.24812C10.0522 2.89249 8.45283 3.06282 7.03803 3.73142C5.62322 4.40002 4.47619 5.52756 3.78346 6.93071C3.09072 8.33386 2.89302 9.93008 3.22249 11.4598C3.55196 12.9896 4.38924 14.3629 5.59817 15.3565C6.8071 16.35 8.31659 16.9054 9.88119 16.9323C11.4458 16.9592 12.9735 16.4561 14.2159 15.5047C14.6304 15.1872 15.2239 15.2659 15.5413 15.6805C15.8588 16.095 15.7801 16.6885 15.3655 17.0059C13.7843 18.2168 11.84 18.8572 9.84868 18.823C7.85737 18.7887 5.9362 18.0819 4.39756 16.8173C2.85892 15.5528 1.7933 13.8049 1.37397 11.858C0.954637 9.911 1.20626 7.87944 2.08793 6.09362C2.96959 4.3078 4.42944 2.87275 6.23011 2.0218Z" fill="#2F9EEE"/>
</svg>
