<svg width="58" height="58" viewBox="0 0 58 58" fill="none" xmlns="http://www.w3.org/2000/svg">
<path d="M26.2812 14.5V13.5938C26.2812 11.1016 24.2422 9.0625 21.75 9.0625H10.875C8.38281 9.0625 6.34375 11.1016 6.34375 13.5938V20.8438L49.8438 47.125V53.0156C49.8438 54.7828 51.2484 56.1875 53.0156 56.1875C54.7828 56.1875 56.1875 54.7828 56.1875 53.0156V19.0312C56.1875 16.5391 54.1484 14.5 51.6562 14.5H26.2812Z" fill="#A8E0EE"/>
<path d="M1.8125 25.375V51.6562C1.8125 54.1484 3.85156 56.1875 6.34375 56.1875H40.7812V57.5469H53.0156L49.8438 54.8281V25.375C49.8438 22.8828 47.8047 20.8438 45.3125 20.8438H6.34375C3.85156 20.8438 1.8125 22.8828 1.8125 25.375Z" fill="white"/>
<path d="M53.0156 57.5469C50.5234 57.5469 48.4844 55.5078 48.4844 53.0156V25.375C48.4844 23.6078 47.0797 22.2031 45.3125 22.2031H6.34375C4.57656 22.2031 3.17188 23.6078 3.17188 25.375V51.6562C3.17188 53.4234 4.57656 54.8281 6.34375 54.8281H40.7812C41.5516 54.8281 42.1406 55.4172 42.1406 56.1875C42.1406 56.9578 41.5516 57.5469 40.7812 57.5469H6.34375C3.08125 57.5469 0.453125 54.9188 0.453125 51.6562V25.375C0.453125 22.1125 3.08125 19.4844 6.34375 19.4844H45.3125C48.575 19.4844 51.2031 22.1125 51.2031 25.375V53.0156C51.2031 54.0125 52.0187 54.8281 53.0156 54.8281C54.0125 54.8281 54.8281 54.0125 54.8281 53.0156V19.0312C54.8281 17.2641 53.4234 15.8594 51.6562 15.8594H26.2812C25.5109 15.8594 24.9219 15.2703 24.9219 14.5V13.5938C24.9219 11.8266 23.5172 10.4219 21.75 10.4219H10.875C9.10781 10.4219 7.70312 11.8266 7.70312 13.5938V15.4062C7.70312 16.1766 7.11406 16.7656 6.34375 16.7656C5.57344 16.7656 4.98438 16.1766 4.98438 15.4062V13.5938C4.98438 10.3313 7.6125 7.70312 10.875 7.70312H21.75C24.8312 7.70312 27.3687 10.1047 27.6406 13.1406H51.6562C54.9188 13.1406 57.5469 15.7688 57.5469 19.0312V53.0156C57.5469 55.5078 55.5078 57.5469 53.0156 57.5469Z" fill="#3C91CE"/>
</svg>
