<svg width="16" height="16" viewBox="0 0 16 16" fill="none" xmlns="http://www.w3.org/2000/svg">
<path fill-rule="evenodd" clip-rule="evenodd" d="M5.06665 7.99928C5.06665 7.48382 5.48452 7.06595 5.99998 7.06595H11.3333C11.8488 7.06595 12.2666 7.48382 12.2666 7.99928C12.2666 8.51475 11.8488 8.93262 11.3333 8.93262H5.99998C5.48452 8.93262 5.06665 8.51475 5.06665 7.99928Z" fill="#67BAE4"/>
<path fill-rule="evenodd" clip-rule="evenodd" d="M2.40002 3.99928C2.40002 3.48382 2.81789 3.06595 3.33336 3.06595L14 3.06595C14.5155 3.06595 14.9334 3.48382 14.9334 3.99928C14.9334 4.51475 14.5155 4.93262 14 4.93262L3.33336 4.93262C2.81789 4.93262 2.40002 4.51475 2.40002 3.99928Z" fill="#67BAE4"/>
<path fill-rule="evenodd" clip-rule="evenodd" d="M7.06665 11.9993C7.06665 11.4838 7.48452 11.066 7.99998 11.066H9.33332C9.84878 11.066 10.2666 11.4838 10.2666 11.9993C10.2666 12.5147 9.84878 12.9326 9.33332 12.9326H7.99998C7.48452 12.9326 7.06665 12.5147 7.06665 11.9993Z" fill="#67BAE4"/>
</svg>
