<svg width="58" height="58" viewBox="0 0 58 58" fill="none" xmlns="http://www.w3.org/2000/svg">
<path d="M35.5703 7.70312H43.5C45.9922 7.70312 48.0312 9.74219 48.0312 12.2344V49.3906C48.0312 51.8828 45.9922 53.9219 43.5 53.9219H14.5C12.0078 53.9219 9.96875 51.8828 9.96875 49.3906V12.2344C9.96875 9.74219 12.0078 7.70312 14.5 7.70312H17.4453" fill="white"/>
<path d="M32.625 10.6484H25.375C23.6078 10.6484 22.2031 9.24375 22.2031 7.47656C22.2031 5.70937 23.6078 4.30469 25.375 4.30469H32.625C34.3922 4.30469 35.7969 5.70937 35.7969 7.47656C35.7969 9.24375 34.3922 10.6484 32.625 10.6484Z" fill="white"/>
<path d="M43.5 6.34375H37.0203C36.5219 4.39531 34.7547 2.94531 32.625 2.94531H25.375C22.8828 2.94531 20.8438 4.98438 20.8438 7.47656C20.8438 9.96875 22.8828 12.0078 25.375 12.0078H32.625C34.5734 12.0078 36.2047 10.7844 36.8844 9.0625H43.5C45.2672 9.0625 46.6719 10.4672 46.6719 12.2344V49.3906C46.6719 51.1578 45.2672 52.5625 43.5 52.5625H14.5C12.7328 52.5625 11.3281 51.1578 11.3281 49.3906V12.2344C11.3281 10.4672 12.7328 9.0625 14.5 9.0625H17.4453C18.2156 9.0625 18.8047 8.47344 18.8047 7.70312C18.8047 6.93281 18.2156 6.34375 17.4453 6.34375H14.5C11.2375 6.34375 8.60938 8.97188 8.60938 12.2344V49.3906C8.60938 52.6531 11.2375 55.2812 14.5 55.2812H43.5C46.7625 55.2812 49.3906 52.6531 49.3906 49.3906V12.2344C49.3906 8.97188 46.7625 6.34375 43.5 6.34375ZM32.625 9.28906H25.375C24.3781 9.28906 23.5625 8.47344 23.5625 7.47656C23.5625 6.47969 24.3781 5.66406 25.375 5.66406H32.625C33.6219 5.66406 34.4375 6.47969 34.4375 7.47656C34.4375 8.47344 33.6219 9.28906 32.625 9.28906Z" fill="#3C91CE"/>
<path d="M38.5156 25.8281H25.8281C25.0578 25.8281 24.4688 25.2391 24.4688 24.4688C24.4688 23.6984 25.0578 23.1094 25.8281 23.1094H38.5156C39.2859 23.1094 39.875 23.6984 39.875 24.4688C39.875 25.2391 39.2859 25.8281 38.5156 25.8281Z" fill="#A8E0EE"/>
<path d="M38.5156 34.8906H25.8281C25.0578 34.8906 24.4688 34.3016 24.4688 33.5312C24.4688 32.7609 25.0578 32.1719 25.8281 32.1719H38.5156C39.2859 32.1719 39.875 32.7609 39.875 33.5312C39.875 34.3016 39.2859 34.8906 38.5156 34.8906Z" fill="#A8E0EE"/>
<path d="M38.5156 43.9531H25.8281C25.0578 43.9531 24.4688 43.3641 24.4688 42.5938C24.4688 41.8234 25.0578 41.2344 25.8281 41.2344H38.5156C39.2859 41.2344 39.875 41.8234 39.875 42.5938C39.875 43.3641 39.2859 43.9531 38.5156 43.9531Z" fill="#A8E0EE"/>
<path d="M19.0312 25.8282C18.9406 25.8282 18.85 25.8282 18.7594 25.7829C18.6688 25.7829 18.5781 25.7376 18.4875 25.6923C18.3969 25.647 18.3516 25.6017 18.2609 25.5564C18.1703 25.5111 18.125 25.4657 18.0797 25.3751C17.8078 25.1939 17.6719 24.8314 17.6719 24.4689C17.6719 24.3782 17.6719 24.2876 17.7172 24.197C17.7172 24.1064 17.7625 24.0157 17.8078 23.9251C17.8531 23.8345 17.8984 23.7892 17.9437 23.6986C17.9891 23.6079 18.0344 23.5626 18.125 23.472C18.2156 23.3814 18.2609 23.3361 18.3063 23.2907C18.3969 23.2454 18.4422 23.2001 18.5328 23.1548C18.6234 23.1095 18.7141 23.1095 18.8047 23.0642C19.2578 22.9736 19.7109 23.1095 20.0281 23.4267C20.0734 23.472 20.1641 23.5626 20.2094 23.6532C20.2547 23.7439 20.3 23.7892 20.3453 23.8798C20.3906 23.9704 20.3906 24.0611 20.4359 24.1517C20.4359 24.2423 20.4813 24.3329 20.4813 24.4236C20.4813 24.7861 20.3453 25.1486 20.0734 25.3751C19.7562 25.6923 19.3937 25.8282 19.0312 25.8282Z" fill="#A8E0EE"/>
<path d="M19.0312 34.8908C18.9406 34.8908 18.85 34.8908 18.7594 34.8455C18.6688 34.8455 18.5781 34.8002 18.4875 34.7549C18.3969 34.7096 18.3516 34.6643 18.2609 34.619C18.1703 34.5737 18.125 34.5283 18.0797 34.4377C17.8078 34.2565 17.6719 33.894 17.6719 33.5315C17.6719 33.169 17.8078 32.8065 18.0797 32.5799C18.125 32.5346 18.2156 32.444 18.2609 32.3987C18.3516 32.3533 18.3969 32.308 18.4875 32.2627C18.5781 32.2174 18.6688 32.2174 18.7594 32.1721C19.2125 32.0815 19.6656 32.2174 19.9828 32.5346C20.2547 32.8065 20.3906 33.1237 20.3906 33.4862C20.3906 33.8487 20.2547 34.2112 19.9828 34.4377C19.7562 34.7549 19.3937 34.8908 19.0312 34.8908Z" fill="#A8E0EE"/>
<path d="M19.0312 43.9532C18.9406 43.9532 18.85 43.9532 18.7594 43.9079C18.6688 43.9079 18.5781 43.8626 18.4875 43.8173C18.3969 43.772 18.3516 43.7267 18.2609 43.6814C18.1703 43.6361 18.125 43.5907 18.0797 43.5001C17.8078 43.3189 17.6719 42.9564 17.6719 42.5939C17.6719 42.5032 17.6719 42.4126 17.7172 42.322C17.7172 42.2314 17.7625 42.1407 17.8078 42.0501C17.8531 41.9595 17.8984 41.9142 17.9437 41.8236C17.9891 41.7329 18.0344 41.6876 18.125 41.597C18.2156 41.5064 18.2609 41.4611 18.3063 41.4157C18.3969 41.3704 18.4422 41.3251 18.5328 41.2798C18.6234 41.2345 18.7141 41.2345 18.8047 41.1892C19.2578 41.0986 19.7109 41.2345 20.0281 41.5517C20.0734 41.597 20.1641 41.6876 20.2094 41.7782C20.2547 41.8689 20.3 41.9142 20.3453 42.0048C20.3906 42.0954 20.3906 42.1861 20.4359 42.2767C20.4359 42.3673 20.4813 42.4579 20.4813 42.5486C20.4813 42.9111 20.3453 43.2736 20.0734 43.5001C19.7562 43.8173 19.3937 43.9532 19.0312 43.9532Z" fill="#A8E0EE"/>
</svg>
