<svg width="58" height="58" viewBox="0 0 58 58" fill="none" xmlns="http://www.w3.org/2000/svg">
<g clip-path="url(#clip0)">
<path d="M45.8109 47.85C42.4578 42.0047 36.2047 38.0625 29 38.0625C21.7953 38.0625 15.5422 42.0047 12.1891 47.85L12.2344 49.3906H45.7656L45.8109 47.85Z" fill="white"/>
<path d="M52.1732 54.4393C55.7123 50.9003 55.7123 45.1622 52.1732 41.6232C48.6341 38.0841 42.8961 38.0841 39.357 41.6232C35.8179 45.1622 35.8179 50.9003 39.357 54.4393C42.8961 57.9784 48.6341 57.9784 52.1732 54.4393Z" fill="#8AD4EB"/>
<path d="M48.8923 49.3906H42.5485C41.7782 49.3906 41.1891 48.8016 41.1891 48.0312C41.1891 47.2609 41.7782 46.6719 42.5485 46.6719H48.8923C49.6626 46.6719 50.2516 47.2609 50.2516 48.0312C50.2516 48.8016 49.6626 49.3906 48.8923 49.3906Z" fill="white"/>
<path d="M35.7063 40.6453C35.5704 40.6453 35.3891 40.6 35.2532 40.5547C33.2594 39.8297 31.175 39.4219 29 39.4219C28.2297 39.4219 27.6407 38.8328 27.6407 38.0625C27.6407 37.2922 28.2297 36.7031 29 36.7031C31.4922 36.7031 33.8938 37.1563 36.2047 37.9719C36.9297 38.2438 37.2469 39.0141 37.0204 39.7391C36.7938 40.2828 36.25 40.6453 35.7063 40.6453Z" fill="#3C91CE"/>
<path d="M12.1891 49.2094C11.9625 49.2094 11.736 49.1641 11.5094 49.0281C10.875 48.6656 10.6485 47.85 11.011 47.1703C14.6813 40.7359 21.5688 36.7031 29 36.7031C29.7704 36.7031 30.3594 37.2922 30.3594 38.0625C30.3594 38.8328 29.7704 39.4219 29 39.4219C22.5657 39.4219 16.5844 42.9109 13.3672 48.5297C13.1407 48.9375 12.6875 49.2094 12.1891 49.2094Z" fill="#3C91CE"/>
<path d="M29 31.7188C34.0051 31.7188 38.0625 27.6613 38.0625 22.6562C38.0625 17.6512 34.0051 13.5938 29 13.5938C23.995 13.5938 19.9375 17.6512 19.9375 22.6562C19.9375 27.6613 23.995 31.7188 29 31.7188Z" fill="white"/>
<path d="M29 33.0781C23.2454 33.0781 18.5782 28.4109 18.5782 22.6562C18.5782 16.9016 23.2454 12.2344 29 12.2344C34.7547 12.2344 39.4219 16.9016 39.4219 22.6562C39.4219 28.4109 34.7547 33.0781 29 33.0781ZM29 14.9531C24.7407 14.9531 21.2969 18.3969 21.2969 22.6562C21.2969 26.9156 24.7407 30.3594 29 30.3594C33.2594 30.3594 36.7032 26.9156 36.7032 22.6562C36.7032 18.3969 33.2594 14.9531 29 14.9531Z" fill="#3C91CE"/>
<path d="M45.7203 52.5625C44.95 52.5625 44.3609 51.9734 44.3609 51.2031V44.8594C44.3609 44.0891 44.95 43.5 45.7203 43.5C46.4906 43.5 47.0797 44.0891 47.0797 44.8594V51.2031C47.0797 51.9734 46.4906 52.5625 45.7203 52.5625Z" fill="white"/>
</g>
<defs>
<clipPath id="clip0">
<rect width="58" height="58" fill="white"/>
</clipPath>
</defs>
</svg>
