<svg width="58" height="58" viewBox="0 0 58 58" fill="none" xmlns="http://www.w3.org/2000/svg">
<path d="M20.1641 6.38906L51.6562 6.34375L36.2047 33.7578L30.4953 23.9703L23.1094 23.0641L25.9188 16.1766L20.1641 6.38906Z" fill="white"/>
<path d="M52.8344 5.66406C52.6079 5.25625 52.1548 4.98438 51.6563 4.98438L20.1641 5.02969C19.6657 5.02969 19.2126 5.30156 18.986 5.70938C18.7594 6.11719 18.7594 6.66094 18.986 7.06875L24.3782 16.2672L21.8407 22.5203C21.6594 22.9281 21.7048 23.3359 21.9313 23.6984C22.1579 24.0609 22.5204 24.2875 22.9282 24.3781L29.6344 25.2391L35.0266 34.4375C35.2532 34.8453 35.7063 35.1172 36.2048 35.1172C36.7032 35.1172 37.1563 34.8453 37.3829 34.4375L52.8344 7.02344C53.061 6.57031 53.061 6.07187 52.8344 5.66406ZM36.1594 31.0391L31.6282 23.2906C31.4016 22.9281 31.0391 22.7016 30.6313 22.6109L26.3719 22.0672L40.9173 13.1406C41.461 12.8234 41.7329 12.1891 41.5516 11.6C41.3251 10.875 40.6001 10.4672 39.8751 10.6938L26.5532 14.5906L22.5657 7.79375L49.3454 7.74844L36.1594 31.0391Z" fill="#56ACD8"/>
<path d="M4.5313 35.1171C4.07818 35.1171 3.62505 34.8906 3.35318 34.4375C2.99068 33.8031 3.21724 32.9421 3.85162 32.5796L17.1735 24.8312C17.8079 24.4687 18.6688 24.6953 19.0313 25.3296C19.3938 25.964 19.1672 26.825 18.5329 27.1875L5.21099 34.9359C4.98443 35.0718 4.75787 35.1171 4.5313 35.1171Z" fill="#A8E0EE"/>
<path d="M11.3282 50.7496C11.1017 50.7496 10.9204 50.7043 10.7392 50.6137C10.0595 50.2965 9.78759 49.4808 10.1501 48.8012C13.2313 42.6387 17.3095 37.1105 22.2938 32.398L24.0157 30.7668C24.5595 30.2683 25.4204 30.2683 25.9188 30.8121C26.4173 31.3558 26.4173 32.2168 25.8735 32.7152L24.1517 34.3465C19.3938 38.8777 15.497 44.134 12.5517 50.0246C12.3251 50.4777 11.8267 50.7496 11.3282 50.7496Z" fill="#A8E0EE"/>
<path d="M6.34382 20.3904C5.98132 20.3904 5.61882 20.2545 5.39226 19.9826C5.34695 19.9373 5.25632 19.8467 5.21101 19.8014C5.1657 19.7107 5.12038 19.6654 5.07507 19.5748C5.02976 19.4842 5.02976 19.3936 4.98445 19.3029C4.98445 19.2123 4.93913 19.1217 4.93913 19.0311C4.93913 18.6686 5.07507 18.3061 5.34695 18.0795C5.39226 18.0342 5.48288 17.9436 5.57351 17.8982C5.66413 17.8529 5.70945 17.8076 5.80007 17.7623C5.8907 17.717 5.98132 17.717 6.07195 17.6717C6.2532 17.6264 6.43445 17.6264 6.6157 17.6717C6.70632 17.6717 6.79695 17.717 6.88757 17.7623C6.9782 17.8076 7.06882 17.8529 7.11413 17.8982C7.20476 17.9436 7.25007 17.9889 7.3407 18.0795C7.61257 18.3514 7.74851 18.6686 7.74851 19.0311C7.74851 19.1217 7.74851 19.2123 7.7032 19.3029C7.7032 19.3936 7.65788 19.4842 7.61257 19.5748C7.56726 19.6654 7.52195 19.7561 7.47663 19.8014C7.43132 19.892 7.38601 19.9373 7.29538 19.9826C7.25007 20.0279 7.15945 20.1186 7.06882 20.1639C6.9782 20.2092 6.93288 20.2545 6.84226 20.2998C6.75163 20.3451 6.66101 20.3451 6.57038 20.3904C6.52507 20.3904 6.43445 20.3904 6.34382 20.3904Z" fill="#A8E0EE"/>
<path d="M12.1891 18.7593C11.6001 18.7593 11.0563 18.3515 10.8751 17.7624C10.6938 17.0374 11.1016 16.2671 11.8266 16.0858L17.4907 14.4999C18.2157 14.3187 18.986 14.7265 19.1672 15.4515C19.3485 16.1765 18.9407 16.9468 18.2157 17.128L12.5516 18.714C12.4157 18.7593 12.3251 18.7593 12.1891 18.7593Z" fill="#A8E0EE"/>
</svg>
