<svg width="25" height="24" viewBox="0 0 25 24" fill="none" xmlns="http://www.w3.org/2000/svg">
<path d="M23.0911 12C23.0911 17.9299 18.2842 22.7368 12.3543 22.7368C6.42501 22.7368 1.61743 17.9299 1.61743 12C1.61743 6.07071 6.42501 1.26313 12.3543 1.26313C18.2842 1.26313 23.0911 6.07071 23.0911 12Z" fill="#FFCC4D"/>
<path d="M18.0385 17.6841H6.67011C5.28064 17.6841 4.1438 16.5472 4.1438 15.1578C4.1438 13.7683 5.28064 12.6315 6.67011 12.6315H18.0385C19.428 12.6315 20.5648 13.7683 20.5648 15.1578C20.5648 16.5472 19.428 17.6841 18.0385 17.6841Z" fill="#664500"/>
<path d="M16.1437 13.8946H12.9858V16.4209H16.1437V13.8946Z" fill="#F5F8FA"/>
<path d="M8.5647 16.4209H11.7226V13.8946H8.5647V16.4209Z" fill="#F5F8FA"/>
<path d="M7.30172 13.8946H6.67014C5.97288 13.8946 5.40698 14.4605 5.40698 15.1577C5.40698 15.855 5.97288 16.4209 6.67014 16.4209H7.30172V13.8946Z" fill="#F5F8FA"/>
<path d="M18.0386 13.8946H17.407V16.4209H18.0386C18.7358 16.4209 19.3017 15.855 19.3017 15.1577C19.3017 14.4605 18.7358 13.8946 18.0386 13.8946Z" fill="#F5F8FA"/>
<path d="M11.0912 11.3686C10.8265 11.3686 10.5802 11.2012 10.4918 10.9366C10.3636 10.5582 9.84947 9.47381 9.19642 9.47381C8.52568 9.47381 8.004 10.6277 7.90105 10.9366C7.79052 11.2675 7.43431 11.4469 7.1021 11.3357C6.77115 11.2258 6.59179 10.8683 6.70231 10.5374C6.78189 10.2993 7.52589 8.21066 9.19642 8.21066C10.8669 8.21066 11.6109 10.2993 11.6905 10.5374C11.8011 10.8683 11.6217 11.2258 11.2907 11.3357C11.2244 11.3578 11.1575 11.3686 11.0912 11.3686Z" fill="#664500"/>
<path d="M17.407 11.3686C17.1424 11.3686 16.896 11.2012 16.8083 10.9366C16.68 10.5582 16.1647 9.47381 15.5123 9.47381C14.8415 9.47381 14.3192 10.6277 14.2163 10.9366C14.1057 11.2675 13.7514 11.4469 13.4179 11.3357C13.087 11.2258 12.9083 10.8683 13.0188 10.5374C13.0977 10.2993 13.8417 8.21066 15.5123 8.21066C17.1828 8.21066 17.9268 10.2993 18.0057 10.5374C18.1163 10.8683 17.9375 11.2258 17.6066 11.3357C17.5403 11.3578 17.4733 11.3686 17.407 11.3686Z" fill="#664500"/>
</svg>
