<svg width="25" height="24" viewBox="0 0 25 24" fill="none" xmlns="http://www.w3.org/2000/svg">
<path d="M23.0911 12C23.0911 17.9299 18.2842 22.7368 12.3543 22.7368C6.42501 22.7368 1.61743 17.9299 1.61743 12C1.61743 6.07071 6.42501 1.26313 12.3543 1.26313C18.2842 1.26313 23.0911 6.07071 23.0911 12Z" fill="#FDCB58"/>
<path d="M17.082 18.2391C17.0536 18.1261 16.3443 15.4735 12.3546 15.4735C8.36431 15.4735 7.65505 18.1261 7.62726 18.2391C7.59252 18.3762 7.65442 18.5183 7.77695 18.589C7.9001 18.6591 8.05421 18.6383 8.15526 18.5404C8.16726 18.5284 9.38937 17.3682 12.3546 17.3682C15.3193 17.3682 16.542 18.5284 16.5534 18.5404C16.614 18.5998 16.6948 18.6313 16.7757 18.6313C16.8287 18.6313 16.8824 18.6181 16.9311 18.5909C17.0548 18.5202 17.1167 18.3768 17.082 18.2391Z" fill="#664500"/>
<path d="M19.3024 9.47363C19.1097 9.47363 18.9209 9.38647 18.7965 9.221C17.2611 7.17216 14.683 8.68669 14.5744 8.75174C14.2744 8.93174 13.8866 8.83384 13.7079 8.53574C13.5279 8.23637 13.6251 7.84858 13.9239 7.66921C15.1858 6.91195 18.038 6.10479 19.807 8.46311C20.0167 8.74226 19.9599 9.13826 19.6807 9.34732C19.567 9.43258 19.4344 9.47363 19.3024 9.47363Z" fill="#664500"/>
<path d="M5.40631 9.47363C5.27494 9.47363 5.14168 9.43258 5.02799 9.34732C4.74883 9.13826 4.69262 8.74226 4.90168 8.46311C6.67073 6.10479 9.52357 6.91195 10.7848 7.66921C11.0836 7.84858 11.1808 8.23637 11.0008 8.53574C10.8221 8.83447 10.4349 8.93237 10.1356 8.75237C10.0231 8.68542 7.4362 7.18921 5.9122 9.221C5.78778 9.38647 5.59831 9.47363 5.40631 9.47363Z" fill="#664500"/>
<path d="M19.3016 10.7368C19.3016 10.3882 19.0193 10.1053 18.6701 10.1053H14.249C13.8997 10.1053 13.6174 10.3882 13.6174 10.7368C13.6174 11.0855 13.8997 11.3684 14.249 11.3684H17.465C17.5957 11.7354 17.9425 12 18.3543 12C18.8772 12 19.3016 11.5762 19.3016 11.0526C19.3016 10.9832 19.2928 10.9156 19.2789 10.8499C19.2865 10.812 19.3016 10.7766 19.3016 10.7368Z" fill="#664500"/>
<path d="M11.0912 10.7368C11.0912 10.3882 10.8082 10.1053 10.4596 10.1053H6.03856C5.68993 10.1053 5.40698 10.3882 5.40698 10.7368C5.40698 11.0855 5.68993 11.3684 6.03856 11.3684H9.25456C9.3853 11.7354 9.73204 12 10.1438 12C10.6668 12 11.0912 11.5762 11.0912 11.0526C11.0912 10.9832 11.0824 10.9156 11.0685 10.8499C11.0754 10.812 11.0912 10.7766 11.0912 10.7368Z" fill="#664500"/>
</svg>
