<svg width="25" height="24" viewBox="0 0 25 24" fill="none" xmlns="http://www.w3.org/2000/svg">
<path d="M23.0911 12C23.0911 17.9299 18.2842 22.7368 12.3543 22.7368C6.42501 22.7368 1.61743 17.9299 1.61743 12C1.61743 6.07071 6.42501 1.26313 12.3543 1.26313C18.2842 1.26313 23.0911 6.07071 23.0911 12Z" fill="#FDCB58"/>
<path d="M4.77538 8.84229C4.42675 8.84229 4.1438 8.55934 4.1438 8.21071C4.1438 7.86271 4.42485 7.58039 4.77285 7.57913C4.87075 7.57786 7.02633 7.52481 8.69117 5.30544C8.90022 5.02755 9.29622 4.96944 9.57538 5.17913C9.85454 5.38818 9.91075 5.78418 9.70169 6.06334C7.64148 8.81071 4.89159 8.84229 4.77538 8.84229Z" fill="#664500"/>
<path d="M19.9332 8.84229C19.817 8.84229 17.0678 8.81071 15.0069 6.06334C14.7972 5.78418 14.8541 5.38818 15.1332 5.17913C15.4124 4.96881 15.8078 5.02629 16.0175 5.30544C17.6848 7.52923 19.8455 7.5785 19.937 7.57913C20.2844 7.58292 20.5648 7.86713 20.5629 8.21386C20.561 8.56186 20.2806 8.84229 19.9332 8.84229Z" fill="#664500"/>
<path d="M20.3119 13.3897C20.2399 13.3354 19.0923 12.489 17.3775 11.9092C17.3946 11.8366 17.4066 11.7621 17.4066 11.6844C17.4066 11.4514 17.3194 11.2404 17.1799 11.0756C18.3186 10.7465 19.2855 10.737 19.3026 10.737C19.6506 10.7358 19.9329 10.4528 19.9323 10.1042C19.9316 9.75619 19.65 9.47388 19.3013 9.47388C19.1624 9.47388 15.8586 9.49725 13.8022 11.5537C13.6215 11.7343 13.5672 12.0059 13.6657 12.2421C13.763 12.4783 13.9935 12.6318 14.2487 12.6318C17.1476 12.6318 19.5312 14.3825 19.5552 14.4008C19.6683 14.4848 19.8009 14.5259 19.9323 14.5259C20.1249 14.5259 20.315 14.4381 20.4388 14.2726C20.6472 13.9935 20.5904 13.5987 20.3119 13.3897Z" fill="#664500"/>
<path d="M10.9061 11.5535C8.85029 9.49774 5.5465 9.47373 5.40693 9.47373C5.05829 9.47373 4.77598 9.75605 4.77598 10.1047C4.77535 10.4527 5.05766 10.7363 5.40629 10.7369C5.42271 10.7369 6.39029 10.747 7.5284 11.0754C7.38945 11.2403 7.30166 11.4512 7.30166 11.6843C7.30166 11.7619 7.31366 11.8365 7.33135 11.9091C5.61598 12.4889 4.4684 13.3352 4.3964 13.3895C4.11724 13.5986 4.06103 13.9946 4.27008 14.2737C4.39387 14.4392 4.58398 14.5264 4.77598 14.5264C4.90735 14.5264 5.04061 14.4853 5.15429 14.4001C5.17766 14.3824 7.54608 12.6316 10.4596 12.6316C10.7147 12.6316 10.9452 12.4782 11.0431 12.2419C11.141 12.0057 11.0867 11.7342 10.9061 11.5535Z" fill="#664500"/>
<path d="M12.3543 19.5791C12.1623 19.5791 11.981 19.4919 11.861 19.3423L9.84376 16.821L8.4385 18.6949C8.32861 18.8414 8.16061 18.933 7.97808 18.9456C7.79492 18.9595 7.61555 18.8919 7.48671 18.7625L6.85513 18.1309C6.60819 17.8839 6.60819 17.4848 6.85513 17.2378C7.10208 16.9909 7.50124 16.9909 7.74818 17.2378L7.86503 17.3547L9.32271 15.4107C9.44018 15.254 9.62271 15.1612 9.81787 15.158C10.0048 15.1517 10.1987 15.242 10.3212 15.3949L12.3543 17.9364L14.3873 15.3949C14.5092 15.2427 14.693 15.158 14.8907 15.158C15.0859 15.1612 15.2684 15.254 15.3859 15.4107L16.8435 17.3547L16.9604 17.2378C17.2073 16.9909 17.6065 16.9909 17.8534 17.2378C18.1004 17.4848 18.1004 17.8839 17.8534 18.1309L17.2219 18.7625C17.0924 18.8919 16.92 18.9608 16.7305 18.9456C16.548 18.933 16.38 18.8414 16.2701 18.6949L14.8648 16.821L12.8476 19.3423C12.7276 19.4919 12.5463 19.5791 12.3543 19.5791Z" fill="#664500"/>
</svg>
