<svg width="20" height="20" viewBox="0 0 20 20" fill="none" xmlns="http://www.w3.org/2000/svg">
<path d="M18.9472 9.9999C18.9472 14.9415 14.9414 18.9473 9.99986 18.9473C5.05828 18.9473 1.05249 14.9415 1.05249 9.9999C1.05249 5.05832 5.05828 1.05253 9.99986 1.05253C14.9414 1.05253 18.9472 5.05832 18.9472 9.9999Z" fill="#FFCC4D"/>
<path d="M9.9998 12.0255C8.43875 12.0255 7.40244 11.8434 6.12138 11.5944C5.82822 11.5381 5.25928 11.5944 5.25928 12.456C5.25928 14.1802 7.2398 16.335 9.9998 16.335C12.7598 16.335 14.7403 14.1802 14.7403 12.456C14.7403 11.5944 14.1709 11.5376 13.8782 11.5944C12.5977 11.8434 11.5614 12.0255 9.9998 12.0255Z" fill="#664500"/>
<path d="M9.28932 2.25305C8.83721 0.97358 7.43458 0.302001 6.15458 0.753054C5.37774 1.02726 4.82774 1.65358 4.61353 2.38726C3.98669 1.95042 3.16564 1.80832 2.39037 2.08148C1.1109 2.53305 0.438794 3.93674 0.890373 5.21621C0.954584 5.39779 1.03985 5.56516 1.13879 5.72042C2.16564 7.60569 5.13248 8.93095 6.92932 8.94727C8.31669 7.80674 9.79564 4.91358 9.41195 2.80148C9.39195 2.61832 9.35248 2.43411 9.28932 2.25305Z" fill="#E75A70"/>
<path d="M10.7101 2.25305C11.1622 0.97358 12.5654 0.302001 13.8448 0.753054C14.6222 1.02726 15.1717 1.65358 15.3864 2.38726C16.0133 1.95042 16.8343 1.80832 17.6096 2.08148C18.8885 2.53305 19.5606 3.93674 19.1096 5.21621C19.0448 5.39779 18.9601 5.56516 18.8606 5.72042C17.8338 7.60569 14.8669 8.93095 13.0701 8.94727C11.6827 7.80674 10.2043 4.91358 10.588 2.80148C10.608 2.61832 10.6475 2.43411 10.7101 2.25305Z" fill="#E75A70"/>
</svg>
