<svg width="25" height="24" viewBox="0 0 25 24" fill="none" xmlns="http://www.w3.org/2000/svg">
<path d="M23.0911 12C23.0911 17.9299 18.2842 22.7368 12.3543 22.7368C6.42501 22.7368 1.61743 17.9299 1.61743 12C1.61743 6.07071 6.42501 1.26313 12.3543 1.26313C18.2842 1.26313 23.0911 6.07071 23.0911 12Z" fill="#DA2F47"/>
<path d="M17.082 19.5023C17.0536 19.3893 16.3443 16.7366 12.3546 16.7366C8.36431 16.7366 7.65505 19.3893 7.62726 19.5023C7.59252 19.6394 7.65442 19.7815 7.77695 19.8522C7.9001 19.9211 8.05421 19.9021 8.15526 19.8036C8.16726 19.7916 9.38937 18.6314 12.3546 18.6314C15.3193 18.6314 16.542 19.7916 16.5534 19.8036C16.614 19.863 16.6948 19.8945 16.7757 19.8945C16.8287 19.8945 16.8824 19.8813 16.9311 19.8541C17.0548 19.7834 17.1167 19.64 17.082 19.5023Z" fill="#292F33"/>
<path d="M10.906 11.5533C8.8502 9.4975 5.54641 9.4735 5.40683 9.4735C5.0582 9.4735 4.77588 9.75582 4.77588 10.1045C4.77525 10.4525 5.05756 10.736 5.4062 10.7367C5.42451 10.7367 6.62199 10.7506 7.92177 11.2021C7.54725 11.6063 7.30156 12.2341 7.30156 12.9472C7.30156 14.1687 8.0083 15.1577 8.88051 15.1577C9.75272 15.1577 10.4595 14.1687 10.4595 12.9472C10.4595 12.8373 10.4475 12.7325 10.4361 12.627C10.4443 12.627 10.4519 12.6314 10.4595 12.6314C10.6211 12.6314 10.7828 12.5695 10.906 12.4463C11.1529 12.1994 11.1529 11.8002 10.906 11.5533Z" fill="#292F33"/>
<path d="M19.3016 9.47351C19.162 9.47351 15.8588 9.49751 13.8024 11.5533C13.5555 11.8002 13.5555 12.1994 13.8024 12.4463C13.9256 12.5695 14.0872 12.6314 14.2489 12.6314C14.2571 12.6314 14.2641 12.627 14.2717 12.627C14.2616 12.7325 14.2489 12.8373 14.2489 12.9472C14.2489 14.1687 14.9557 15.1577 15.8279 15.1577C16.7001 15.1577 17.4068 14.1687 17.4068 12.9472C17.4068 12.2341 17.1611 11.6063 16.7866 11.2021C18.0864 10.7506 19.2839 10.7367 19.3028 10.7367C19.6508 10.736 19.9331 10.4525 19.9325 10.1045C19.9319 9.75582 19.6502 9.47351 19.3016 9.47351Z" fill="#292F33"/>
</svg>
