<svg width="25" height="24" viewBox="0 0 25 24" fill="none" xmlns="http://www.w3.org/2000/svg">
<path d="M2.07635 14.7151C2.07635 14.7151 1.19593 13.8998 2.0113 13.0187C2.82666 12.1389 3.70772 12.9549 3.70772 12.9549L7.79466 16.7406C7.73024 16.68 8.07887 16.1854 8.02708 16.1374L2.35424 10.8833C2.35424 10.8833 1.47382 10.068 2.28919 9.18818C3.10519 8.30713 3.98561 9.12313 3.98561 9.12313L9.32119 14.0652C9.30856 14.0539 9.70582 13.6035 9.69824 13.5966L3.51256 7.86692C3.51256 7.86692 2.63214 7.05155 3.44751 6.17113C4.26351 5.29134 5.14393 6.10671 5.14393 6.10671L11.329 11.8364C11.3366 11.8427 11.7603 11.417 11.773 11.429L5.99151 6.07386C5.99151 6.07386 5.11108 5.2585 5.92645 4.37807C6.74245 3.49829 7.62287 4.31365 7.62287 4.31365C7.62287 4.31365 11.9252 8.29892 13.7359 9.97576C15.546 11.6526 15.954 11.2124 15.954 11.2124L14.3195 9.6985L12.4317 7.95092C12.4317 7.95092 11.5513 7.13555 12.3673 6.2545C13.1833 5.37407 14.0631 6.18944 14.0631 6.18944L18.9054 10.6749C21.822 13.3768 21.997 17.9324 19.2945 20.8497C16.5926 23.7669 12.0363 23.9406 9.11908 21.2393C8.96498 21.0966 8.68835 20.8206 8.70035 20.8073L8.6795 20.8313L2.07635 14.7151Z" fill="#C1694F"/>
<path d="M3.90814 13.4839C3.90814 13.4839 3.02771 12.6686 3.84308 11.7881C4.65845 10.9071 5.53887 11.7224 5.53887 11.7224L9.62645 15.5094C9.5614 15.4488 9.91066 14.9542 9.85887 14.9062L4.18603 9.65213C4.18603 9.65213 3.30561 8.83676 4.12098 7.95634C4.93635 7.07592 5.81677 7.89129 5.81677 7.89129L11.1523 12.834C11.1403 12.822 11.5376 12.3723 11.53 12.3654L5.34435 6.63508C5.34435 6.63508 4.46392 5.82034 5.27929 4.93992C6.09466 4.0595 6.97508 4.87487 6.97508 4.87487L13.1601 10.6039C13.1683 10.6115 13.5915 10.1858 13.6041 10.1972L7.82329 4.84202C7.82329 4.84202 6.94287 4.02666 7.75824 3.14687C8.57361 2.26645 9.45403 3.08181 9.45403 3.08181C9.45403 3.08181 13.757 7.06771 15.5677 8.74455C17.3772 10.4208 17.7858 9.98055 17.7858 9.98055L16.1507 8.46666L14.2635 6.71908C14.2635 6.71908 13.3837 5.90371 14.1984 5.02329C15.0144 4.14287 15.8949 4.95823 15.8949 4.95823L20.7366 9.44308C23.6538 12.145 23.8281 16.7012 21.1262 19.6178C18.4237 22.5351 13.8681 22.7088 10.9509 20.0069C10.7961 19.8648 10.5201 19.5888 10.5321 19.5761L10.5107 19.6001L3.90814 13.4839Z" fill="#D99E82"/>
<path d="M16.4855 4.71094C16.351 4.71094 16.2146 4.66799 16.1003 4.57957C15.8236 4.3661 15.7731 3.96946 15.9866 3.69346L17.8674 1.25873C18.0796 0.982727 18.4769 0.930937 18.7535 1.14504C19.0295 1.35788 19.08 1.75452 18.8672 2.03052L16.9857 4.46525C16.8619 4.62631 16.675 4.71094 16.4855 4.71094Z" fill="#FFAC33"/>
<path d="M12.9858 5.05273C12.6372 5.05273 12.3542 4.76979 12.3542 4.42116V1.26326C12.3542 0.914629 12.6372 0.631681 12.9858 0.631681C13.3351 0.631681 13.6174 0.914629 13.6174 1.26326V4.42116C13.6174 4.76979 13.3351 5.05273 12.9858 5.05273Z" fill="#FFAC33"/>
<path d="M18.9333 6.7373C18.6756 6.7373 18.4331 6.57815 18.3403 6.32109C18.2203 5.9933 18.3902 5.63141 18.7173 5.51204L21.6119 4.4592C21.9409 4.33983 22.3022 4.50973 22.4209 4.83688C22.5409 5.16467 22.371 5.5272 22.0439 5.64657L19.1493 6.69878C19.078 6.72467 19.0047 6.7373 18.9333 6.7373Z" fill="#FFAC33"/>
</svg>
