<svg width="25" height="24" viewBox="0 0 25 24" fill="none" xmlns="http://www.w3.org/2000/svg">
<g clip-path="url(#clip0)">
<path d="M23.0684 8.18234L23.0911 8.21076C23.0911 8.21076 23.7227 1.89497 23.0911 1.26339C22.5164 0.688656 18.8147 1.68023 18.1509 1.86402C16.6187 1.08466 14.7132 0.631813 12.3543 0.631813C9.9991 0.631813 8.09615 1.08592 6.56584 1.86592C5.92163 1.68718 2.19405 0.68676 1.61742 1.26339C0.98584 1.89497 1.61742 8.21076 1.61742 8.21076L1.6471 8.1735C1.18037 9.78592 0.98584 11.5272 0.98584 13.2634C0.98584 19.5419 7.93321 23.3687 12.3543 23.3687C16.7753 23.3687 23.7227 19.5792 23.7227 13.2634C23.7227 11.5253 23.5294 9.78844 23.0684 8.18234Z" fill="#FFCC4D"/>
<path d="M20.8202 15.6032C20.7425 15.4965 20.6067 15.4485 20.4779 15.4858C20.4343 15.4984 16.0568 16.7369 12.3539 16.7369C8.65411 16.7369 4.27411 15.4984 4.23053 15.4858C4.09853 15.4466 3.95832 15.4997 3.8819 15.6127C3.80611 15.7258 3.81053 15.8754 3.89453 15.9834C4.07895 16.2209 8.45516 21.7896 12.3539 21.7896C16.8918 21.7896 20.6693 16.2026 20.8278 15.9645C20.9011 15.854 20.8979 15.7106 20.8202 15.6032Z" fill="#292F33"/>
<path d="M6.03833 16.4214C6.03833 16.4214 9.19622 17.6846 12.3541 17.6846C15.512 17.6846 18.6699 16.4214 18.6699 16.4214C18.6699 16.4214 18.6699 18.3162 18.0383 18.3162C17.4068 18.3162 16.7752 17.6846 16.7752 17.6846C16.7752 17.6846 14.2489 18.9478 12.3541 18.9478C10.4594 18.9478 7.93307 17.6846 7.93307 17.6846C7.93307 17.6846 7.30149 18.3162 6.66991 18.3162C6.03833 18.3162 6.03833 16.4214 6.03833 16.4214Z" fill="#F5F8FA"/>
<path d="M12.354 12.9474C14.2487 12.9474 14.2487 13.2632 14.2487 13.8948C14.2487 14.5264 13.3013 15.7896 12.354 15.7896C11.4066 15.7896 10.4592 14.5264 10.4592 13.8948C10.4592 13.2632 10.4592 12.9474 12.354 12.9474Z" fill="#67757F"/>
<path d="M17.407 13.5791C17.275 13.5791 17.1518 13.4951 17.107 13.3631C17.052 13.1976 17.1417 13.0189 17.3072 12.9633L22.9914 11.0692C23.1575 11.0136 23.3356 11.1033 23.3912 11.2688C23.4461 11.4343 23.3565 11.613 23.191 11.6679L17.5068 13.5633C17.4733 13.574 17.4405 13.5791 17.407 13.5791Z" fill="#9AAAB4"/>
<path d="M16.7747 14.8423C16.6275 14.8423 16.4961 14.7387 16.4658 14.5884C16.4311 14.4172 16.5422 14.2505 16.7134 14.217L23.0292 12.9539C23.1934 12.9198 23.3665 13.0297 23.4006 13.2014C23.4353 13.3726 23.3241 13.5393 23.153 13.5728L16.8372 14.836C16.8164 14.8404 16.7955 14.8423 16.7747 14.8423Z" fill="#9AAAB4"/>
<path d="M7.30181 13.5791C7.26897 13.5791 7.23549 13.574 7.20202 13.5633L1.51781 11.6679C1.35234 11.613 1.26265 11.4343 1.31823 11.2688C1.37318 11.1033 1.55065 11.0136 1.71739 11.0692L7.4016 12.9633C7.56707 13.0189 7.65676 13.1976 7.60118 13.3631C7.55697 13.4951 7.43381 13.5791 7.30181 13.5791Z" fill="#9AAAB4"/>
<path d="M7.93356 14.8423C7.91335 14.8423 7.89251 14.8404 7.87103 14.836L1.55524 13.5728C1.38472 13.5393 1.27356 13.3726 1.30767 13.2014C1.34177 13.0303 1.50535 12.9179 1.67967 12.9539L7.99546 14.217C8.16598 14.2505 8.27714 14.4172 8.24303 14.5884C8.21272 14.7387 8.08072 14.8423 7.93356 14.8423Z" fill="#9AAAB4"/>
<path d="M18.9328 11.8252C18.8943 11.7677 17.976 10.4212 16.1438 10.4212C14.3122 10.4212 13.3933 11.7677 13.3547 11.8252C13.2695 11.9528 13.2891 12.122 13.3996 12.2281C13.5095 12.3336 13.6819 12.3443 13.8057 12.254C13.8133 12.2483 14.6027 11.6843 16.1438 11.6843C17.676 11.6843 18.4642 12.2414 18.4819 12.254C18.5381 12.2957 18.6038 12.3159 18.6701 12.3159C18.7484 12.3159 18.8267 12.2869 18.8874 12.23C18.9985 12.1239 19.0181 11.9534 18.9328 11.8252Z" fill="#292F33"/>
<path d="M11.354 11.8252C11.3154 11.7677 10.3971 10.4212 8.56491 10.4212C6.73333 10.4212 5.81438 11.7677 5.77586 11.8252C5.69122 11.9528 5.71017 12.122 5.8207 12.2281C5.93186 12.3336 6.10301 12.3443 6.22617 12.254C6.23438 12.2483 7.02322 11.6843 8.56491 11.6843C10.0971 11.6843 10.8853 12.2414 10.903 12.254C10.9592 12.2957 11.0249 12.3159 11.0912 12.3159C11.1695 12.3159 11.2479 12.2869 11.3085 12.23C11.4196 12.1239 11.4392 11.9534 11.354 11.8252Z" fill="#292F33"/>
<path d="M18.0386 12.6315C21.1965 13.8947 23.7228 15.7894 23.7228 18.9473C23.7228 21.4736 21.828 21.4736 21.828 21.4736C18.0386 21.4736 20.5649 16.421 18.0386 12.6315Z" fill="#5DADEC"/>
<path d="M6.67005 12.6315C3.51216 13.8947 0.98584 15.7894 0.98584 18.9473C0.98584 21.4736 2.88058 21.4736 2.88058 21.4736C6.67005 21.4736 4.14373 16.421 6.67005 12.6315Z" fill="#5DADEC"/>
<path d="M20.5655 10.7368C20.3729 10.7368 20.1841 10.6497 20.0596 10.4842C18.3923 8.2604 16.2316 8.21113 16.1401 8.2105C15.7927 8.20671 15.5123 7.9225 15.5142 7.57576C15.5161 7.22776 15.7965 6.94734 16.1439 6.94734C16.2601 6.94734 19.0093 6.97892 21.0702 9.72629C21.2799 10.0054 21.223 10.4014 20.9439 10.6105C20.8302 10.6958 20.6975 10.7368 20.5655 10.7368Z" fill="#292F33"/>
<path d="M4.14312 10.7368C4.01175 10.7368 3.87849 10.6958 3.76481 10.6105C3.48565 10.4014 3.42944 10.0054 3.63849 9.72629C5.6987 6.97892 8.4486 6.94734 8.56481 6.94734C8.91344 6.94734 9.19639 7.23029 9.19639 7.57892C9.19639 7.92692 8.91533 8.20924 8.56733 8.2105C8.46944 8.21176 6.31386 8.26482 4.64902 10.4842C4.5246 10.6497 4.33512 10.7368 4.14312 10.7368Z" fill="#292F33"/>
</g>
<defs>
<clipPath id="clip0">
<path d="M0.354248 0H24.3542V24H0.354248V0Z" fill="white"/>
</clipPath>
</defs>
</svg>
