<svg width="25" height="24" viewBox="0 0 25 24" fill="none" xmlns="http://www.w3.org/2000/svg">
<path d="M23.0911 12C23.0911 17.9299 18.2842 22.7368 12.3543 22.7368C6.42501 22.7368 1.61743 17.9299 1.61743 12C1.61743 6.07071 6.42501 1.26313 12.3543 1.26313C18.2842 1.26313 23.0911 6.07071 23.0911 12Z" fill="#FFCC4D"/>
<path d="M10.4597 10.4208C10.4597 11.6423 9.75292 12.6313 8.8807 12.6313C8.00849 12.6313 7.30176 11.6423 7.30176 10.4208C7.30176 9.19998 8.00849 8.21029 8.8807 8.21029C9.75292 8.21029 10.4597 9.19998 10.4597 10.4208Z" fill="#664500"/>
<path d="M17.4069 10.4208C17.4069 11.6423 16.7002 12.6313 15.828 12.6313C14.9558 12.6313 14.249 11.6423 14.249 10.4208C14.249 9.19998 14.9558 8.21029 15.828 8.21029C16.7002 8.21029 17.4069 9.19998 17.4069 10.4208Z" fill="#664500"/>
<path d="M14.1676 18.3159C15.0108 18.0557 15.828 17.5858 15.828 16.7369C15.828 15.0828 12.7257 14.8624 12.372 14.8428C12.199 14.8258 12.0506 14.9647 12.0392 15.1384C12.0285 15.3108 12.1592 15.4605 12.3322 15.4731C12.3543 15.4744 14.5649 15.662 14.5649 16.7369C14.5649 17.8119 12.3543 17.9994 12.3322 18.0007C12.324 18.0013 12.3171 18.0058 12.3095 18.007C12.2754 18.0108 12.2445 18.0178 12.2154 18.0329C12.2116 18.0348 12.2091 18.0373 12.2059 18.0386C12.1756 18.0557 12.1485 18.0752 12.1257 18.1011C12.1169 18.1106 12.1112 18.1207 12.1036 18.1308C12.0891 18.151 12.0752 18.1712 12.0657 18.1959C12.0581 18.2142 12.0543 18.2338 12.0506 18.2533C12.0474 18.2685 12.0398 18.2811 12.0392 18.2963C12.0386 18.3026 12.0417 18.3089 12.0417 18.3159C12.0417 18.3228 12.0386 18.3291 12.0392 18.3354C12.0398 18.3512 12.0474 18.3639 12.0506 18.379C12.0543 18.3986 12.0575 18.4169 12.0651 18.4352C12.0733 18.4548 12.0847 18.4712 12.096 18.4883C12.1068 18.5041 12.1162 18.5199 12.1295 18.5338C12.1434 18.5483 12.1611 18.5597 12.1781 18.5717C12.1939 18.5824 12.2072 18.5931 12.2249 18.6013C12.2451 18.6108 12.2666 18.6146 12.288 18.6184C12.3032 18.6222 12.3165 18.6298 12.3322 18.631C12.3543 18.6323 14.5649 18.8199 14.5649 19.8948C14.5649 20.9698 12.3543 21.1573 12.3322 21.1586C12.1592 21.1712 12.0285 21.3209 12.0392 21.4933C12.0499 21.6607 12.1889 21.7896 12.3537 21.7896C12.36 21.7896 12.3663 21.7896 12.372 21.7889C12.7257 21.7693 15.828 21.5489 15.828 19.8948C15.828 19.046 15.0108 18.5761 14.1676 18.3159Z" fill="#664500"/>
</svg>
