<svg width="25" height="24" viewBox="0 0 25 24" fill="none" xmlns="http://www.w3.org/2000/svg">
<path d="M14.5097 2.49275C13.2743 2.23001 13.0116 3.46538 13.0116 3.46538L11.0556 10.7721C10.7739 10.7873 10.5011 10.8119 10.2314 10.8397L8.92971 4.20054C8.92971 4.20054 8.81097 2.94306 7.55287 3.06117C6.29539 3.17991 6.41413 4.43738 6.41413 4.43738L7.78781 11.9999H7.93308H9.19623H10.3223H10.7948H11.091H12.9857C13.1171 11.9999 13.2453 12.0138 13.3691 12.0391L15.4823 3.99085C15.4823 3.99085 15.7451 2.75485 14.5097 2.49275Z" fill="#D99E82"/>
<path d="M19.9331 14.5788C19.9331 15.2477 19.3918 15.7896 18.7229 15.7896H18.6168C17.948 15.7896 17.4067 15.2477 17.4067 14.5788V11.9477C17.4067 11.2788 17.948 10.7369 18.6168 10.7369H18.7229C19.3918 10.7369 19.9331 11.2788 19.9331 11.9477V14.5788Z" fill="#D99E82"/>
<path d="M15.5119 9.47376C14.8147 9.47376 14.2488 10.0397 14.2488 10.7369V12.4914C14.6334 12.8382 14.8804 13.3352 14.8804 13.8948C14.8804 14.3704 14.6991 14.7999 14.4098 15.1321C14.6252 15.5218 15.0351 15.7896 15.5119 15.7896C16.2092 15.7896 16.7751 15.2237 16.7751 14.5264V10.7369C16.7751 10.0397 16.2092 9.47376 15.5119 9.47376Z" fill="#D99E82"/>
<path d="M18.7094 16.4213H18.6305C17.9837 16.4213 17.4147 16.0891 17.0831 15.5863C17.0054 15.7013 16.9119 15.8042 16.8109 15.9002C16.7799 15.9293 16.7465 15.9539 16.713 15.9811C16.6378 16.043 16.5595 16.0998 16.4749 16.1503C16.4332 16.175 16.3915 16.1977 16.3479 16.2192C16.2595 16.2628 16.1679 16.2981 16.0726 16.3278C16.0302 16.3404 15.9898 16.3562 15.9462 16.3663C15.806 16.3998 15.662 16.4213 15.5123 16.4213C15.3627 16.4213 15.2212 16.3985 15.0822 16.3651C15.0342 16.3543 14.9881 16.3385 14.9414 16.3234C14.8549 16.2956 14.7721 16.2609 14.6919 16.2217C14.6401 16.1964 14.589 16.1731 14.5397 16.1434C14.4361 16.0802 14.3389 16.0089 14.2492 15.928C14.1216 15.8118 14.0073 15.6836 13.9145 15.5377L13.9163 15.5358C13.7894 15.6084 13.617 15.7897 12.9854 15.7897H11.3831C12.5256 16.6518 13.3012 18.3097 13.3012 20.2108C13.3012 20.3851 13.1603 20.5265 12.9854 20.5265C12.8111 20.5265 12.6696 20.3851 12.6696 20.2108C12.6696 17.7735 11.2883 15.7897 9.59066 15.7897H9.51172C9.3374 15.7897 9.19593 15.6482 9.19593 15.4739C9.19593 15.2996 9.3374 15.1581 9.51172 15.1581H10.4591H12.9854C13.6833 15.1581 14.2492 14.5922 14.2492 13.895C14.2492 13.1977 13.6833 12.6318 12.9854 12.6318H7.9334C7.91256 12.6318 7.89361 12.6369 7.8734 12.6381C7.82793 12.64 7.78245 12.6444 7.73698 12.6514C7.69782 12.6577 7.65993 12.6653 7.62203 12.6748C7.58224 12.6855 7.54308 12.6975 7.50456 12.7114C7.4654 12.7253 7.4275 12.7411 7.39024 12.7588C7.35424 12.7764 7.32014 12.7954 7.28603 12.8156C7.25066 12.8364 7.21719 12.8579 7.18435 12.8825C7.15151 12.9072 7.11993 12.9337 7.08961 12.9609C7.06056 12.9874 7.03277 13.0139 7.00624 13.043C6.97719 13.0739 6.95129 13.1061 6.9254 13.1402C6.9014 13.1718 6.87929 13.2047 6.85845 13.2388C6.83698 13.2741 6.81803 13.3095 6.79972 13.3468C6.78077 13.3853 6.76435 13.4257 6.74919 13.4668C6.74224 13.487 6.7315 13.5047 6.72456 13.5255L6.03866 15.7897C5.97361 16.0013 5.73614 16.9714 5.77908 17.1735C5.77908 20.2108 8.74498 23.3687 12.3538 23.3687C16.4831 23.3687 19.8342 20.0649 19.9246 15.9577C19.598 16.2425 19.1761 16.4213 18.7094 16.4213Z" fill="#D99E82"/>
</svg>
