<svg width="16" height="16" viewBox="0 0 16 16" fill="none" xmlns="http://www.w3.org/2000/svg">
<path fill-rule="evenodd" clip-rule="evenodd" d="M7.86669 1.9999C4.62662 1.9999 2.00002 4.6265 2.00002 7.86657C2.00002 11.1066 4.62662 13.7332 7.86669 13.7332C11.1068 13.7332 13.7334 11.1066 13.7334 7.86657C13.7334 4.6265 11.1068 1.9999 7.86669 1.9999ZM0.400024 7.86657C0.400024 3.74284 3.74296 0.399902 7.86669 0.399902C11.9904 0.399902 15.3334 3.74284 15.3334 7.86657C15.3334 11.9903 11.9904 15.3332 7.86669 15.3332C3.74296 15.3332 0.400024 11.9903 0.400024 7.86657Z" fill="#98ADCF"/>
<path fill-rule="evenodd" clip-rule="evenodd" d="M5.97043 8.84939C5.70458 8.49927 5.20551 8.42912 4.85334 8.69325C4.49988 8.95835 4.42825 9.45979 4.69334 9.81325L5.33334 9.33325C4.69334 9.81325 4.69353 9.81351 4.69373 9.81377L4.69414 9.81431L4.69504 9.8155L4.69712 9.81825L4.70245 9.82521L4.71774 9.84479C4.72999 9.86026 4.74636 9.8805 4.76679 9.90484C4.80758 9.95345 4.86486 10.0187 4.93804 10.0951C5.08375 10.2471 5.29625 10.447 5.57114 10.6469C6.11782 11.0445 6.94625 11.4666 8.00001 11.4666C9.05377 11.4666 9.88219 11.0445 10.4289 10.6469C10.7038 10.447 10.9163 10.2471 11.062 10.0951C11.1352 10.0187 11.1924 9.95345 11.2332 9.90484C11.2537 9.8805 11.27 9.86026 11.2823 9.84479L11.2976 9.82521L11.3029 9.81825L11.305 9.8155L11.3059 9.81431L11.3063 9.81377C11.3065 9.81351 11.3067 9.81325 10.6667 9.33325L11.3067 9.81325C11.5718 9.45979 11.5001 8.95835 11.1467 8.69325C10.7945 8.42912 10.2954 8.49927 10.0296 8.84939C10.0299 8.84898 10.03 8.84882 10.0299 8.84894L10.029 8.85018L10.028 8.85148L10.0278 8.85166M5.97044 8.8494C5.97079 8.84986 5.97139 8.85061 5.97222 8.85166C5.97543 8.85572 5.98217 8.86412 5.99235 8.87624C6.01275 8.90055 6.04661 8.93942 6.09322 8.98806C6.18711 9.08602 6.32876 9.21951 6.51221 9.35293C6.88219 9.62201 7.3871 9.86658 8.00001 9.86658C8.61292 9.86658 9.11782 9.62201 9.4878 9.35293C9.67126 9.21951 9.81291 9.08602 9.90679 8.98806C9.9534 8.93942 9.98727 8.90055 10.0077 8.87624C10.0178 8.86412 10.0246 8.85572 10.0278 8.85166L10.0274 8.85231M5.97044 8.8494C5.97044 8.8494 5.97043 8.84939 5.97043 8.84939L5.97044 8.8494Z" fill="#98ADCF"/>
<path fill-rule="evenodd" clip-rule="evenodd" d="M4.70002 3.8999C4.2582 3.8999 3.90002 4.25807 3.90002 4.6999C3.90002 5.14173 4.2582 5.4999 4.70002 5.4999H4.70669C5.14852 5.4999 5.50669 5.14173 5.50669 4.6999C5.50669 4.25807 5.14852 3.8999 4.70669 3.8999H4.70002ZM8.70002 3.8999C8.2582 3.8999 7.90002 4.25807 7.90002 4.6999C7.90002 5.14173 8.2582 5.4999 8.70002 5.4999H8.70669C9.14852 5.4999 9.50669 5.14173 9.50669 4.6999C9.50669 4.25807 9.14852 3.8999 8.70669 3.8999H8.70002Z" fill="#98ADCF"/>
</svg>
