<svg width="22" height="19" viewBox="0 0 22 19" fill="none" xmlns="http://www.w3.org/2000/svg">
<path d="M11.8646 1L21.3906 17.5C21.4784 17.652 21.5246 17.8245 21.5246 18C21.5246 18.1755 21.4784 18.348 21.3906 18.5C21.3029 18.652 21.1766 18.7782 21.0246 18.866C20.8726 18.9538 20.7002 19 20.5246 19H1.47263C1.2971 19 1.12466 18.9538 0.97264 18.866C0.820624 18.7782 0.69439 18.652 0.606624 18.5C0.518859 18.348 0.472655 18.1755 0.472656 18C0.472657 17.8245 0.518864 17.652 0.606631 17.5L10.1326 1C10.2204 0.847994 10.3466 0.721768 10.4987 0.634007C10.6507 0.546247 10.8231 0.500046 10.9986 0.500046C11.1742 0.500046 11.3466 0.546247 11.4986 0.634007C11.6506 0.721768 11.7769 0.847994 11.8646 1ZM9.99863 14V16H11.9986V14H9.99863ZM9.99863 7V12H11.9986V7H9.99863Z" fill="#E4667D"/>
</svg>
