<svg width="16" height="17" viewBox="0 0 16 17" fill="none" xmlns="http://www.w3.org/2000/svg">
<path d="M8.00002 2.21094C11.5947 2.21094 14.5854 4.7976 15.2127 8.21094C14.586 11.6243 11.5947 14.2109 8.00002 14.2109C4.40535 14.2109 1.41469 11.6243 0.787354 8.21094C1.41402 4.7976 4.40535 2.21094 8.00002 2.21094ZM8.00002 12.8776C9.35967 12.8773 10.6789 12.4155 11.7419 11.5677C12.8049 10.7199 13.5486 9.53645 13.8514 8.21094C13.5475 6.88647 12.8033 5.70427 11.7404 4.85762C10.6776 4.01097 9.35889 3.54996 8.00002 3.54996C6.64115 3.54996 5.32248 4.01097 4.2596 4.85762C3.19673 5.70427 2.45253 6.88647 2.14869 8.21094C2.45142 9.53645 3.19514 10.7199 4.25812 11.5677C5.3211 12.4155 6.64037 12.8773 8.00002 12.8776ZM8.00002 11.2109C7.20437 11.2109 6.44131 10.8949 5.8787 10.3323C5.31609 9.76965 5.00002 9.00659 5.00002 8.21094C5.00002 7.41529 5.31609 6.65223 5.8787 6.08962C6.44131 5.52701 7.20437 5.21094 8.00002 5.21094C8.79567 5.21094 9.55873 5.52701 10.1213 6.08962C10.6839 6.65223 11 7.41529 11 8.21094C11 9.00659 10.6839 9.76965 10.1213 10.3323C9.55873 10.8949 8.79567 11.2109 8.00002 11.2109ZM8.00002 9.8776C8.44205 9.8776 8.86597 9.70201 9.17853 9.38945C9.49109 9.07689 9.66669 8.65297 9.66669 8.21094C9.66669 7.76891 9.49109 7.34499 9.17853 7.03243C8.86597 6.71987 8.44205 6.54427 8.00002 6.54427C7.55799 6.54427 7.13407 6.71987 6.82151 7.03243C6.50895 7.34499 6.33335 7.76891 6.33335 8.21094C6.33335 8.65297 6.50895 9.07689 6.82151 9.38945C7.13407 9.70201 7.55799 9.8776 8.00002 9.8776Z" fill="#B4C0D4"/>
</svg>
