<svg width="16" height="16" viewBox="0 0 16 16" fill="none" xmlns="http://www.w3.org/2000/svg">
<path d="M14 5.33331V13.9953C14.0006 14.0829 13.984 14.1697 13.951 14.2508C13.9181 14.3319 13.8695 14.4057 13.808 14.4681C13.7466 14.5304 13.6734 14.58 13.5928 14.6141C13.5121 14.6482 13.4255 14.666 13.338 14.6666H2.662C2.48654 14.6666 2.31826 14.597 2.19413 14.473C2.07 14.349 2.00018 14.1808 2 14.0053V1.99465C2 1.63665 2.29933 1.33331 2.668 1.33331H9.998L14 5.33331ZM12.6667 5.99998H9.33333V2.66665H3.33333V13.3333H12.6667V5.99998Z" fill="#B4C0D4"/>
</svg>
