<svg width="16" height="16" viewBox="0 0 16 16" fill="none" xmlns="http://www.w3.org/2000/svg">
<path d="M14 5.33325V13.9953C14.0006 14.0828 13.984 14.1696 13.951 14.2507C13.9181 14.3319 13.8695 14.4057 13.808 14.468C13.7466 14.5304 13.6734 14.58 13.5928 14.6141C13.5121 14.6481 13.4255 14.666 13.338 14.6666H2.662C2.48654 14.6666 2.31826 14.5969 2.19413 14.4729C2.07 14.3489 2.00018 14.1807 2 14.0053V1.99459C2 1.63659 2.29933 1.33325 2.668 1.33325H9.998L14 5.33325ZM12.6667 5.99992H9.33333V2.66659H3.33333V13.3333H12.6667V5.99992Z" fill="#4F8AF4"/>
</svg>
