<svg width="17" height="17" viewBox="0 0 17 17" fill="none" xmlns="http://www.w3.org/2000/svg">
<path d="M6.6901 11.5438C6.6901 11.912 6.98858 12.2104 7.35677 12.2104H8.6901C9.05829 12.2104 9.35677 11.912 9.35677 11.5438C9.35677 11.1756 9.05829 10.8771 8.6901 10.8771H7.35677C6.98858 10.8771 6.6901 11.1756 6.6901 11.5438ZM2.6901 4.21045C2.32191 4.21045 2.02344 4.50893 2.02344 4.87712C2.02344 5.24531 2.32191 5.54378 2.6901 5.54378H13.3568C13.725 5.54378 14.0234 5.24531 14.0234 4.87712C14.0234 4.50893 13.725 4.21045 13.3568 4.21045H2.6901ZM4.02344 8.21045C4.02344 8.57864 4.32191 8.87712 4.6901 8.87712H11.3568C11.725 8.87712 12.0234 8.57864 12.0234 8.21045C12.0234 7.84226 11.725 7.54378 11.3568 7.54378H4.6901C4.32191 7.54378 4.02344 7.84226 4.02344 8.21045Z" fill="#97A4BD"/>
</svg>
