<svg width="16" height="16" viewBox="0 0 16 16" fill="none" xmlns="http://www.w3.org/2000/svg">
<path d="M4.73671 5.86005C4.85235 6.28327 5.10391 6.65675 5.45265 6.92297C5.80139 7.18919 6.22797 7.3334 6.66671 7.33338H9.33338C10.1187 7.33344 10.8788 7.61073 11.4798 8.11639C12.0807 8.62204 12.4838 9.32359 12.618 10.0974C13.0705 10.245 13.4555 10.5491 13.704 10.955C13.9524 11.361 14.048 11.8422 13.9736 12.3123C13.8991 12.7824 13.6595 13.2105 13.2978 13.5199C12.9361 13.8292 12.476 13.9994 12 14C11.5344 14.0004 11.0832 13.8383 10.7243 13.5416C10.3654 13.245 10.1212 12.8324 10.034 12.375C9.94666 11.9176 10.0217 11.4441 10.2461 11.0361C10.4706 10.6281 10.8303 10.3112 11.2634 10.14C11.1477 9.71682 10.8962 9.34334 10.5474 9.07712C10.1987 8.8109 9.77212 8.6667 9.33338 8.66671H6.66671C5.94531 8.66778 5.2432 8.43374 4.66671 8.00005V10.1134C5.11171 10.2707 5.48677 10.5802 5.72562 10.9873C5.96446 11.3943 6.0517 11.8727 5.97192 12.3379C5.89214 12.8031 5.65047 13.2251 5.28963 13.5293C4.92879 13.8335 4.47201 14.0004 4.00005 14.0004C3.52808 14.0004 3.0713 13.8335 2.71046 13.5293C2.34962 13.2251 2.10795 12.8031 2.02817 12.3379C1.94839 11.8727 2.03563 11.3943 2.27447 10.9873C2.51332 10.5802 2.88838 10.2707 3.33338 10.1134V5.88671C2.89136 5.73065 2.51818 5.42434 2.27895 5.02123C2.03972 4.61811 1.94963 4.14379 2.0244 3.68104C2.09918 3.21828 2.33407 2.79648 2.68808 2.48922C3.0421 2.18197 3.49277 2.00878 3.96144 1.99987C4.43011 1.99097 4.88703 2.14691 5.25247 2.44049C5.6179 2.73408 5.86865 3.14665 5.96095 3.60623C6.05325 4.06581 5.98125 4.54321 5.7575 4.95512C5.53376 5.36704 5.17248 5.68731 4.73671 5.86005Z" fill="#4F8AF4"/>
</svg>
