<svg width="20" height="20" viewBox="0 0 20 20" fill="none" xmlns="http://www.w3.org/2000/svg">
<path d="M2.55317 6.25866C3.24651 4.87803 4.31015 3.71742 5.6252 2.90655C6.94025 2.09568 8.45489 1.66651 9.99984 1.66699C12.2457 1.66699 14.1323 2.49199 15.5748 3.83783L13.1857 6.22783C12.3215 5.40199 11.2232 4.98116 9.99984 4.98116C7.82901 4.98116 5.99151 6.44783 5.33734 8.41699C5.17067 8.91699 5.07567 9.45033 5.07567 10.0003C5.07567 10.5503 5.17067 11.0837 5.33734 11.5837C5.99234 13.5537 7.82901 15.0195 9.99984 15.0195C11.1207 15.0195 12.0748 14.7237 12.8215 14.2237C13.2544 13.9387 13.6249 13.5688 13.9108 13.1366C14.1967 12.7043 14.392 12.2185 14.4848 11.7087H9.99984V8.48533H17.8482C17.9465 9.03033 17.9998 9.59866 17.9998 10.1895C17.9998 12.7278 17.0915 14.8645 15.5148 16.3145C14.1365 17.5878 12.2498 18.3337 9.99984 18.3337C8.90537 18.3341 7.82154 18.1189 6.81029 17.7002C5.79905 17.2816 4.88021 16.6678 4.1063 15.8939C3.3324 15.12 2.71858 14.2011 2.29995 13.1899C1.88132 12.1786 1.66607 11.0948 1.6665 10.0003C1.6665 8.65533 1.98817 7.38366 2.55317 6.25866Z" fill="white"/>
</svg>
