<svg width="41" height="40" viewBox="0 0 41 40" fill="none" xmlns="http://www.w3.org/2000/svg">
<path opacity="0.2" d="M20.653 40C31.6987 40 40.653 31.0457 40.653 20C40.653 8.9543 31.6987 0 20.653 0C9.60732 0 0.653015 8.9543 0.653015 20C0.653015 31.0457 9.60732 40 20.653 40Z" fill="#73ABFF"/>
<path d="M11.717 15.51C12.549 13.8532 13.826 12.4605 15.404 11.4875C16.982 10.5144 18.799 9.9994 20.653 10C23.348 10 25.612 10.99 27.343 12.605L24.476 15.473C23.439 14.482 22.121 13.977 20.653 13.977C18.048 13.977 15.843 15.737 15.058 18.1C14.858 18.7 14.744 19.34 14.744 20C14.744 20.66 14.858 21.3 15.058 21.9C15.844 24.264 18.048 26.023 20.653 26.023C21.998 26.023 23.143 25.668 24.039 25.068C24.559 24.726 25.003 24.2822 25.347 23.7635C25.69 23.2448 25.924 22.6619 26.035 22.05H20.653V18.182H30.071C30.189 18.836 30.253 19.518 30.253 20.227C30.253 23.273 29.163 25.837 27.271 27.577C25.617 29.105 23.353 30 20.653 30C19.34 30.0005 18.039 29.7422 16.826 29.2399C15.612 28.7375 14.51 28.0009 13.581 27.0722C12.652 26.1436 11.916 25.041 11.413 23.8275C10.911 22.614 10.653 21.3134 10.653 20C10.653 18.386 11.039 16.86 11.717 15.51Z" fill="#4489F2"/>
</svg>
