<svg width="20" height="20" viewBox="0 0 20 20" fill="none" xmlns="http://www.w3.org/2000/svg">
<path fill-rule="evenodd" clip-rule="evenodd" d="M15.185 4.54733C15.1717 4.54733 15.1629 4.54733 15.1496 4.54733C14.9285 4.54733 14.7252 4.63576 14.5748 4.77282C14.3317 4.96294 14.1769 5.25917 14.1769 5.59078V8.06675V9.77782C13.9824 10.5781 13.664 9.77782 13.664 9.77782V5.68805V3.21207C13.664 2.64614 13.2042 2.17747 12.6383 2.16421C12.6294 2.16421 12.625 2.16421 12.6162 2.16421C12.0414 2.16421 11.5683 2.6373 11.5683 3.21207V5.68805V9.70265C11.4003 10.441 10.9935 9.66286 10.9935 9.66286V8.60173V4.57828V2.10231C10.9935 1.52753 10.5204 1.05444 9.94565 1.05444C9.37088 1.05444 8.89779 1.52753 8.89779 2.10231V4.57828V9.47717V9.77782C8.50429 10.4278 8.17268 9.84856 8.17268 9.84856V8.62826V6.08155V3.60558C8.17268 3.0308 7.6996 2.55771 7.12482 2.55771C7.11155 2.55771 7.09829 2.55771 7.08502 2.55771C7.07176 2.55771 7.06292 2.55771 7.04965 2.55771C6.82858 2.55771 6.6252 2.64614 6.47487 2.7832C6.2317 2.97332 6.07695 3.26955 6.07695 3.60116V6.07713V8.62384V9.65402V9.88835L6.09464 9.90162C6.47487 12.4528 6.62962 11.6657 8.22574 12.7048C8.99064 13.2 9.59194 13.7394 9.89702 15.2647C10.2021 16.7901 9.4372 16.0296 9.4372 16.0296C7.42105 11.5994 5.86472 15.2117 4.90086 9.25167C4.74612 8.28781 3.49045 8.87144 3.29591 10.4366C2.73439 15.0481 5.9001 19.6198 10.5027 19.6198C16.9933 19.6198 16.255 13.1469 16.255 13.1469V12.9656V10.8036V8.06232V5.58635C16.255 5.01157 15.7819 4.53849 15.2071 4.53849C15.1938 4.53849 15.1806 4.53849 15.1673 4.53849L15.185 4.54733Z" fill="#B4C0D4"/>
</svg>
