<svg width="21" height="20" viewBox="0 0 21 20" fill="none" xmlns="http://www.w3.org/2000/svg">
<g clip-path="url(#clip0)">
<path d="M15.7821 6.7698V4.42103C16.0925 4.27596 16.3553 4.04572 16.5399 3.75711C16.7245 3.46849 16.8234 3.13338 16.825 2.79076V2.73687C16.825 1.73793 16.0152 0.928134 15.0163 0.928134H14.9623C13.9634 0.928134 13.1536 1.73793 13.1536 2.73687V2.79076C13.1552 3.13338 13.254 3.46849 13.4387 3.75711C13.6233 4.04572 13.8861 4.27596 14.1965 4.42103V6.7698C13.3044 6.90641 12.4643 7.27631 11.7611 7.84205L5.31948 2.82467C5.36541 2.65886 5.38937 2.48835 5.39207 2.31721C5.39286 1.9141 5.27408 1.51982 5.05075 1.18424C4.82743 0.84865 4.50959 0.586835 4.13745 0.431909C3.76531 0.276983 3.35558 0.235906 2.96009 0.313873C2.5646 0.391841 2.20111 0.58535 1.91561 0.869925C1.63012 1.1545 1.43543 1.51735 1.35618 1.91259C1.27693 2.30783 1.31668 2.71769 1.47039 3.09033C1.62411 3.46297 1.8849 3.78166 2.21976 4.00607C2.55462 4.23048 2.94851 4.35054 3.35161 4.35106C3.70425 4.3494 4.05029 4.25525 4.35517 4.07802L10.6983 9.01396C9.53214 10.7757 9.56335 13.0716 10.7769 14.8011L8.84764 16.7309C8.69162 16.6811 8.52922 16.6546 8.36548 16.6523C7.44153 16.6531 6.69302 17.4024 6.69326 18.3264C6.6935 19.2503 7.44249 19.9992 8.36636 19.9994C9.29031 19.9996 10.0396 19.2511 10.0404 18.3272C10.0382 18.1635 10.0117 18.001 9.96176 17.8451L11.8703 15.9358C13.5757 17.2486 15.9178 17.3618 17.7418 16.2194C19.5656 15.0769 20.4861 12.9202 20.049 10.8129C19.612 8.70558 17.9099 7.09274 15.7821 6.76972V6.7698ZM14.991 14.4947C14.6384 14.5042 14.2875 14.4429 13.9589 14.3146C13.6304 14.1862 13.3309 13.9933 13.0782 13.7472C12.8254 13.5012 12.6246 13.207 12.4874 12.8821C12.3502 12.5571 12.2795 12.208 12.2795 11.8552C12.2795 11.5025 12.3502 11.1534 12.4874 10.8284C12.6246 10.5034 12.8254 10.2093 13.0782 9.96322C13.3309 9.71719 13.6304 9.52428 13.9589 9.3959C14.2875 9.26752 14.6384 9.20627 14.991 9.21575C16.4119 9.26551 17.5383 10.4314 17.5391 11.8533C17.5397 13.275 16.4145 14.4422 14.9936 14.4934" fill="#97A4BD"/>
</g>
<defs>
<clipPath id="clip0">
<rect x="0.765625" width="20" height="20" fill="white"/>
</clipPath>
</defs>
</svg>
