<svg width="12" height="12" viewBox="0 0 12 12" fill="none" xmlns="http://www.w3.org/2000/svg">
<path fill-rule="evenodd" clip-rule="evenodd" d="M0.5 12H4.5C4.77615 12 5 11.7417 5 11.4231V7.57692C5 7.25829 4.77615 7 4.5 7H0.5C0.223854 7 0 7.25829 0 7.57692V11.4231C0 11.7417 0.223854 12 0.5 12ZM11.475 12H7.475C7.19885 12 6.975 11.7417 6.975 11.4231V7.57692C6.975 7.25829 7.19885 7 7.475 7H11.475C11.7511 7 11.975 7.25829 11.975 7.57692V11.4231C11.975 11.7417 11.7511 12 11.475 12ZM0 4.43022V0.584066C0 0.265436 0.223854 0.00714302 0.5 0.00714302H4.5C4.77615 0.00714302 5 0.265436 5 0.584066V4.43022C5 4.74885 4.77615 5.00714 4.5 5.00714H0.5C0.223854 5.00714 0 4.74885 0 4.43022ZM11.475 0.00714302H7.475C7.19885 0.00714302 6.975 0.265436 6.975 0.584066V4.43022C6.975 4.74885 7.19885 5.00714 7.475 5.00714H11.475C11.7511 5.00714 11.975 4.74885 11.975 4.43022V0.584066C11.975 0.265436 11.7511 0.00714302 11.475 0.00714302Z" fill="#494B77"/>
<mask id="mask0" mask-type="alpha" maskUnits="userSpaceOnUse" x="0" y="0" width="12" height="12">
<path fill-rule="evenodd" clip-rule="evenodd" d="M0.5 12H4.5C4.77615 12 5 11.7417 5 11.4231V7.57692C5 7.25829 4.77615 7 4.5 7H0.5C0.223854 7 0 7.25829 0 7.57692V11.4231C0 11.7417 0.223854 12 0.5 12ZM11.475 12H7.475C7.19885 12 6.975 11.7417 6.975 11.4231V7.57692C6.975 7.25829 7.19885 7 7.475 7H11.475C11.7511 7 11.975 7.25829 11.975 7.57692V11.4231C11.975 11.7417 11.7511 12 11.475 12ZM0 4.43022V0.584066C0 0.265436 0.223854 0.00714302 0.5 0.00714302H4.5C4.77615 0.00714302 5 0.265436 5 0.584066V4.43022C5 4.74885 4.77615 5.00714 4.5 5.00714H0.5C0.223854 5.00714 0 4.74885 0 4.43022ZM11.475 0.00714302H7.475C7.19885 0.00714302 6.975 0.265436 6.975 0.584066V4.43022C6.975 4.74885 7.19885 5.00714 7.475 5.00714H11.475C11.7511 5.00714 11.975 4.74885 11.975 4.43022V0.584066C11.975 0.265436 11.7511 0.00714302 11.475 0.00714302Z" fill="white"/>
</mask>
<g mask="url(#mask0)">
</g>
</svg>
