<svg width="16" height="16" viewBox="0 0 16 16" fill="none" xmlns="http://www.w3.org/2000/svg">
<path fill-rule="evenodd" clip-rule="evenodd" d="M3.33335 2.80001C3.03879 2.80001 2.80001 3.03879 2.80001 3.33335V12.6667C2.80001 12.9612 3.03879 13.2 3.33335 13.2H12.6667C12.9612 13.2 13.2 12.9612 13.2 12.6667V3.33335C13.2 3.03879 12.9612 2.80001 12.6667 2.80001H3.33335ZM1.20001 3.33335C1.20001 2.15514 2.15514 1.20001 3.33335 1.20001H12.6667C13.8449 1.20001 14.8 2.15514 14.8 3.33335V12.6667C14.8 13.8449 13.8449 14.8 12.6667 14.8H3.33335C2.15514 14.8 1.20001 13.8449 1.20001 12.6667V3.33335Z" fill="#98ADCF"/>
<path fill-rule="evenodd" clip-rule="evenodd" d="M5.6667 5.4667C5.55624 5.4667 5.4667 5.55624 5.4667 5.6667C5.4667 5.77716 5.55624 5.8667 5.6667 5.8667C5.77716 5.8667 5.8667 5.77716 5.8667 5.6667C5.8667 5.55624 5.77716 5.4667 5.6667 5.4667ZM3.8667 5.6667C3.8667 4.67259 4.67259 3.8667 5.6667 3.8667C6.66081 3.8667 7.4667 4.67259 7.4667 5.6667C7.4667 6.66081 6.66081 7.4667 5.6667 7.4667C4.67259 7.4667 3.8667 6.66081 3.8667 5.6667Z" fill="#98ADCF"/>
<path fill-rule="evenodd" clip-rule="evenodd" d="M10.101 6.10101C10.4134 5.78859 10.9199 5.78859 11.2323 6.10101L14.5657 9.43435C14.8781 9.74677 14.8781 10.2533 14.5657 10.5657C14.2533 10.8781 13.7467 10.8781 13.4343 10.5657L10.6667 7.79807L3.89901 14.5657C3.58659 14.8781 3.08006 14.8781 2.76764 14.5657C2.45522 14.2533 2.45522 13.7468 2.76764 13.4343L10.101 6.10101Z" fill="#98ADCF"/>
</svg>
