<svg width="14" height="14" viewBox="0 0 14 14" fill="none" xmlns="http://www.w3.org/2000/svg">
<path d="M7.0013 12.8334C3.77955 12.8334 1.16797 10.2218 1.16797 7.00002C1.16797 3.77827 3.77955 1.16669 7.0013 1.16669C10.2231 1.16669 12.8346 3.77827 12.8346 7.00002C12.8346 10.2218 10.2231 12.8334 7.0013 12.8334Z" fill="#B4C0D4"/>
<path d="M6.18359 9.91669V6.65002C6.18359 6.19899 6.54923 5.83336 7.00026 5.83336C7.45129 5.83336 7.81693 6.19899 7.81693 6.65003V9.91669C7.81693 10.3677 7.45129 10.7334 7.00026 10.7334C6.54923 10.7334 6.18359 10.3677 6.18359 9.91669Z" fill="white"/>
<path d="M7.00026 3.15002C7.45129 3.15002 7.81693 3.51566 7.81693 3.96669C7.81693 4.41772 7.45129 4.78336 7.00026 4.78336C6.54923 4.78336 6.18359 4.41772 6.18359 3.96669C6.18359 3.51566 6.54923 3.15002 7.00026 3.15002Z" fill="white"/>
</svg>
