<svg width="16" height="16" viewBox="0 0 16 16" fill="none" xmlns="http://www.w3.org/2000/svg">
<path d="M7.33334 12H5.294C5.096 11.1513 4.20267 10.4573 3.836 9.99998C3.20813 9.21551 2.81464 8.26963 2.70085 7.27129C2.58706 6.27296 2.7576 5.26279 3.19284 4.35715C3.62808 3.4515 4.31029 2.68723 5.16091 2.15237C6.01152 1.61751 6.99593 1.33382 8.00072 1.33398C9.00552 1.33415 9.98984 1.61815 10.8403 2.15328C11.6907 2.68841 12.3727 3.4529 12.8076 4.35869C13.2426 5.26447 13.4128 6.27469 13.2987 7.27299C13.1846 8.27129 12.7908 9.21705 12.1627 10.0013C11.796 10.458 10.904 11.152 10.706 12H8.66667V8.66665H7.33334V12ZM10.6667 13.3333V14C10.6667 14.3536 10.5262 14.6927 10.2761 14.9428C10.0261 15.1928 9.68696 15.3333 9.33334 15.3333H6.66667C6.31305 15.3333 5.97391 15.1928 5.72386 14.9428C5.47381 14.6927 5.33334 14.3536 5.33334 14V13.3333H10.6667Z" fill="#B4C0D4"/>
</svg>
