<svg width="16" height="16" viewBox="0 0 16 16" fill="none" xmlns="http://www.w3.org/2000/svg">
<path d="M4.66699 3.33317C4.66699 2.96498 4.96547 2.6665 5.33366 2.6665H13.3337C13.7018 2.6665 14.0003 2.96498 14.0003 3.33317C14.0003 3.70136 13.7018 3.99984 13.3337 3.99984H5.33366C4.96547 3.99984 4.66699 3.70136 4.66699 3.33317ZM4.66699 7.99984C4.66699 7.63165 4.96547 7.33317 5.33366 7.33317H13.3337C13.7018 7.33317 14.0003 7.63165 14.0003 7.99984C14.0003 8.36803 13.7018 8.6665 13.3337 8.6665H5.33366C4.96547 8.6665 4.66699 8.36803 4.66699 7.99984ZM4.66699 12.6665C4.66699 12.2983 4.96547 11.9998 5.33366 11.9998H13.3337C13.7018 11.9998 14.0003 12.2983 14.0003 12.6665C14.0003 13.0347 13.7018 13.3332 13.3337 13.3332H5.33366C4.96547 13.3332 4.66699 13.0347 4.66699 12.6665Z" fill="#7B89A6"/>
<path d="M2 3.33317C2 2.96498 2.29848 2.6665 2.66667 2.6665C3.03486 2.6665 3.33333 2.96498 3.33333 3.33317C3.33333 3.70136 3.03486 3.99984 2.66667 3.99984C2.29848 3.99984 2 3.70136 2 3.33317ZM2 7.99984C2 7.63165 2.29848 7.33317 2.66667 7.33317C3.03486 7.33317 3.33333 7.63165 3.33333 7.99984C3.33333 8.36803 3.03486 8.6665 2.66667 8.6665C2.29848 8.6665 2 8.36803 2 7.99984ZM2 12.6665C2 12.2983 2.29848 11.9998 2.66667 11.9998C3.03486 11.9998 3.33333 12.2983 3.33333 12.6665C3.33333 13.0347 3.03486 13.3332 2.66667 13.3332C2.29848 13.3332 2 13.0347 2 12.6665Z" fill="#7B89A6"/>
</svg>
