<svg width="250" height="250" viewBox="0 0 250 250" fill="none" xmlns="http://www.w3.org/2000/svg">
<path d="M0 0H250V250H0V0Z" fill="white"/>
<path d="M162.681 122.629L156.64 116.587V108.879C156.64 106.118 154.402 103.879 151.64 103.879H46.8438C44.0833 103.879 41.8438 106.116 41.8438 108.879V136.379C41.8438 139.139 44.0812 141.379 46.8438 141.379H151.64C154.4 141.379 156.64 139.141 156.64 136.379V128.671L162.681 122.629Z" fill="white"/>
<path d="M163.142 122.404C161.296 120.558 159.45 118.712 157.602 116.865C157.473 116.735 157.346 116.598 157.21 116.473C157.031 116.306 157.146 116.487 157.15 116.504C157.054 116.09 157.15 115.525 157.15 115.104C157.15 113.498 157.15 111.892 157.15 110.287C157.15 108.99 157.206 107.731 156.625 106.523C155.702 104.608 153.765 103.537 151.681 103.498C151.217 103.49 150.75 103.498 150.285 103.498C147.029 103.498 143.773 103.498 140.515 103.498C135.004 103.498 129.496 103.498 123.985 103.498C117.206 103.498 110.429 103.498 103.65 103.498C96.6917 103.498 89.7333 103.498 82.775 103.498C76.5979 103.498 70.4208 103.498 64.2437 103.498C59.9312 103.498 55.6187 103.498 51.3062 103.498C49.3437 103.498 46.8708 103.162 44.9833 103.842C43.0042 104.554 41.5271 106.377 41.35 108.49C41.3083 108.996 41.3312 109.51 41.3312 110.017C41.3312 112.573 41.3312 115.131 41.3312 117.687C41.3312 123.604 41.3312 129.521 41.3312 135.437C41.3312 135.981 41.3062 136.535 41.3708 137.077C41.6208 139.229 43.2375 141.015 45.3146 141.569C46.1417 141.79 46.9833 141.758 47.8271 141.758C50.8979 141.758 53.9708 141.758 57.0417 141.758C62.4292 141.758 67.8146 141.758 73.2021 141.758C79.9271 141.758 86.6542 141.758 93.3792 141.758C100.356 141.758 107.331 141.758 114.308 141.758C120.548 141.758 126.785 141.758 133.025 141.758C137.523 141.758 142.023 141.758 146.521 141.758C148.298 141.758 150.106 141.858 151.881 141.75C153.946 141.625 155.865 140.356 156.7 138.448C157.235 137.229 157.148 135.937 157.148 134.642C157.148 133.015 157.148 131.387 157.148 129.762C157.148 129.412 157.081 128.985 157.148 128.642C157.098 128.894 157.044 128.802 157.219 128.669C157.394 128.535 157.544 128.344 157.698 128.19C159.5 126.387 161.3 124.587 163.102 122.785C163.548 122.34 162.583 122.142 162.254 122.471C160.438 124.287 158.621 126.104 156.804 127.921C156.212 128.512 156.125 128.642 156.125 129.479C156.125 131.042 156.125 132.602 156.125 134.165C156.125 135.381 156.277 136.775 155.881 137.944C155.254 139.794 153.581 140.952 151.65 140.996C151.092 141.008 150.533 140.996 149.975 140.996C141.217 140.996 132.46 140.996 123.702 140.996C110.258 140.996 96.8146 140.996 83.3687 140.996C72.9146 140.996 62.4583 140.996 52.0042 140.996C50.3 140.996 48.5854 141.05 46.8812 140.996C44.3458 140.917 42.4125 138.842 42.35 136.34C42.3396 135.912 42.35 135.483 42.35 135.056C42.35 132.496 42.35 129.933 42.35 127.373C42.35 121.565 42.35 115.754 42.35 109.946C42.35 109.485 42.3312 109.019 42.3583 108.558C42.5021 106.154 44.4021 104.315 46.8042 104.258C47.2937 104.246 47.7854 104.258 48.275 104.258C56.8604 104.258 65.4437 104.258 74.0292 104.258C87.4542 104.258 100.881 104.258 114.306 104.258C124.896 104.258 135.487 104.258 146.077 104.258C147.908 104.258 149.75 104.202 151.581 104.258C153.71 104.323 155.537 105.819 156.01 107.904C156.271 109.058 156.127 110.375 156.127 111.548C156.127 113.062 156.127 114.575 156.127 116.09C156.127 116.879 156.394 117.029 156.962 117.598C158.715 119.35 160.467 121.102 162.219 122.854C162.552 123.185 163.504 122.767 163.142 122.404Z" fill="#56627F"/>
<path d="M143.581 125.922C140.604 125.922 137.629 125.922 134.652 125.922C127.542 125.922 120.433 125.922 113.323 125.922C104.727 125.922 96.1292 125.922 87.5334 125.922C80.073 125.922 72.6125 125.922 65.1521 125.922C62.7125 125.922 60.273 125.922 57.8334 125.922C56.6792 125.922 55.4771 125.827 54.325 125.922C54.275 125.927 54.223 125.922 54.173 125.922C53.5855 125.922 53.4125 126.697 54.0938 126.697C57.0709 126.697 60.0459 126.697 63.023 126.697C70.1334 126.697 77.2417 126.697 84.3521 126.697C92.948 126.697 101.546 126.697 110.142 126.697C117.602 126.697 125.063 126.697 132.523 126.697C134.963 126.697 137.402 126.697 139.842 126.697C140.996 126.697 142.198 126.793 143.35 126.697C143.4 126.693 143.452 126.697 143.502 126.697C144.09 126.697 144.263 125.922 143.581 125.922Z" fill="#56627F"/>
<path d="M82.5397 131.858C74.2501 131.858 65.9605 131.858 57.6709 131.858C56.5042 131.858 55.3376 131.858 54.1709 131.858C53.5834 131.858 53.4105 132.633 54.0917 132.633C62.3813 132.633 70.6709 132.633 78.9605 132.633C80.1272 132.633 81.2938 132.633 82.4605 132.633C83.048 132.633 83.2209 131.858 82.5397 131.858Z" fill="#56627F"/>
<path d="M143.796 119.554C140.825 119.554 137.856 119.554 134.885 119.554C127.754 119.554 120.623 119.554 113.492 119.554C104.867 119.554 96.2438 119.554 87.6188 119.554C80.1938 119.554 72.7688 119.554 65.3438 119.554C61.725 119.554 58.0834 119.431 54.4667 119.554C54.4167 119.556 54.3646 119.554 54.3146 119.554C53.8854 119.554 53.2667 120.204 53.9438 120.204C56.9146 120.204 59.8834 120.204 62.8542 120.204C69.9855 120.204 77.1167 120.204 84.2479 120.204C92.8729 120.204 101.496 120.204 110.121 120.204C117.546 120.204 124.971 120.204 132.396 120.204C136.015 120.204 139.656 120.327 143.273 120.204C143.323 120.202 143.375 120.204 143.425 120.204C143.856 120.202 144.475 119.554 143.796 119.554Z" fill="#56627F"/>
<path d="M106.438 112.241C100.56 112.241 94.6854 112.241 88.8083 112.241C79.4354 112.241 70.0625 112.241 60.6896 112.241C58.5292 112.241 56.3708 112.241 54.2104 112.241C53.0375 112.241 52.6875 113.781 54.05 113.781C59.9271 113.781 65.8021 113.781 71.6792 113.781C81.0521 113.781 90.425 113.781 99.7979 113.781C101.958 113.781 104.117 113.781 106.277 113.781C107.45 113.783 107.8 112.241 106.438 112.241Z" fill="#6B93F9"/>
<path d="M189.487 141.379C199.843 141.379 208.237 132.984 208.237 122.629C208.237 112.274 199.843 103.879 189.487 103.879C179.132 103.879 170.737 112.274 170.737 122.629C170.737 132.984 179.132 141.379 189.487 141.379Z" fill="#6B93F9"/>
<path d="M193.071 123.015C194.994 121.796 196.275 119.654 196.281 117.211C196.294 113.402 193.217 110.306 189.408 110.294C185.6 110.281 182.504 113.359 182.492 117.167C182.483 119.613 183.75 121.763 185.667 122.992C180.325 124.277 176.054 128.319 174.448 133.534C177.794 138.119 183.2 141.109 189.31 141.127C195.423 141.146 200.846 138.192 204.221 133.627C202.65 128.402 198.404 124.334 193.071 123.015Z" fill="#E3E3E3"/>
<path d="M193.289 122.986C195.098 121.84 196.31 119.146 196.31 118.186C196.31 114.605 193.869 111.69 190.285 111.68C186.704 111.669 183.79 114.342 183.779 117.926C183.773 120.226 184.964 122.248 186.764 123.405C181.739 124.615 177.281 129.961 175.771 134.865C178.917 139.18 184.444 141.109 190.194 141.128C195.944 141.146 201.046 138.365 204.221 134.071C202.742 129.157 198.308 124.228 193.289 122.986Z" fill="white"/>
<path d="M193.467 123.067C197.819 120.177 197.867 113.561 193.173 110.956C189.062 108.675 183.392 110.929 182.208 115.544C181.456 118.479 182.71 121.504 185.196 123.177C185.333 123.046 185.473 122.915 185.61 122.783C181.356 123.852 177.621 126.517 175.396 130.323C174.867 131.227 174.277 132.292 174.04 133.319C173.85 134.135 175.183 135.229 175.744 135.8C177.329 137.41 179.208 138.725 181.26 139.669C185.571 141.652 190.587 141.888 195.098 140.446C197.2 139.775 199.185 138.748 200.94 137.408C201.783 136.765 202.573 136.05 203.298 135.275C203.715 134.831 204.154 134.365 204.498 133.861C204.815 133.394 204.631 133.158 204.437 132.629C202.65 127.752 198.485 124.081 193.477 122.79C193.206 122.721 192.31 123.142 192.665 123.233C196.594 124.248 200.029 126.727 202.14 130.208C202.656 131.06 203.09 131.963 203.431 132.898C203.635 133.452 203.677 133.76 203.285 134.246C202.929 134.688 202.554 135.113 202.16 135.519C200.637 137.088 198.829 138.377 196.846 139.292C192.721 141.194 187.925 141.363 183.648 139.856C181.694 139.169 179.873 138.148 178.26 136.848C177.512 136.246 176.812 135.581 176.167 134.871C175.873 134.546 175.512 134.206 175.285 133.827C174.896 133.171 175.181 132.704 175.462 132.036C177.296 127.656 181.121 124.35 185.723 123.194C185.773 123.181 186.356 122.948 186.137 122.8C183.717 121.171 182.479 118.254 183.208 115.388C183.946 112.49 186.631 110.306 189.673 110.554C192.392 110.777 194.737 112.769 195.5 115.369C196.35 118.263 195.162 121.304 192.675 122.954C192.233 123.256 193.24 123.217 193.467 123.067Z" fill="#56627F"/>
<path d="M207.725 122.662C207.667 130.254 202.973 137.26 195.785 139.894C188.562 142.54 180.26 140.192 175.412 134.25C170.608 128.365 169.917 119.89 173.735 113.312C177.608 106.64 185.469 103.112 193.027 104.629C201.527 106.337 207.66 114.058 207.725 122.662C207.729 123.21 208.752 123.079 208.748 122.598C208.685 114.544 203.567 107.198 195.91 104.554C188.392 101.956 179.821 104.321 174.702 110.41C169.527 116.569 168.796 125.575 172.931 132.479C177.089 139.423 185.389 142.973 193.296 141.381C202.171 139.594 208.679 131.625 208.75 122.6C208.752 122.048 207.729 122.179 207.725 122.662Z" fill="#56627F"/>
<path d="M203.238 51.7959H98.4397C95.6793 51.7959 93.4397 54.0334 93.4397 56.7959V64.4397L87.3335 70.5459L93.4397 76.6522V84.2959C93.4397 87.0563 95.6772 89.2959 98.4397 89.2959H203.236C205.996 89.2959 208.236 87.0584 208.236 84.2959V56.7959C208.238 54.0355 205.998 51.7959 203.238 51.7959Z" fill="white"/>
<path d="M203.279 51.4168C198.394 51.4168 193.511 51.4168 188.625 51.4168C177.602 51.4168 166.581 51.4168 155.558 51.4168C143.875 51.4168 132.192 51.4168 120.508 51.4168C113.54 51.4168 106.571 51.4168 99.6022 51.4168C99.2293 51.4168 98.8564 51.4085 98.4855 51.4168C95.2168 51.496 92.9314 54.0605 92.9314 57.2543C92.9314 59.6189 93.0168 62.0001 92.9314 64.3647C92.923 64.5876 92.9959 64.3105 93.0001 64.3022C92.9418 64.3918 92.8251 64.4835 92.748 64.5543C92.3814 64.8918 92.0397 65.2626 91.6876 65.6147C90.6668 66.6356 89.646 67.6543 88.6272 68.6751C88.0564 69.246 87.4855 69.8168 86.9126 70.3897C86.8272 70.4751 86.7793 70.6731 86.8772 70.771C87.773 71.6668 88.671 72.5647 89.5668 73.4606C90.6355 74.5293 91.6626 75.8085 92.8501 76.7439C93.0334 76.8897 92.9585 76.8356 92.9314 76.7335C92.9751 76.9064 92.9314 77.1564 92.9314 77.3314C92.9314 78.1189 92.9314 78.9085 92.9314 79.696C92.9314 81.2189 92.9043 82.746 92.9314 84.2689C92.9876 87.4731 95.4855 89.6543 98.6064 89.6772C99.5543 89.6835 100.5 89.6772 101.448 89.6772C106.061 89.6772 110.673 89.6772 115.286 89.6772C122.254 89.6772 129.223 89.6772 136.19 89.6772C144.098 89.6772 152.008 89.6772 159.917 89.6772C167.258 89.6772 174.602 89.6772 181.944 89.6772C187.221 89.6772 192.5 89.6772 197.777 89.6772C199.211 89.6772 200.642 89.6772 202.075 89.6772C203.383 89.6772 204.621 89.6564 205.831 89.0106C207.621 88.0522 208.706 86.2314 208.748 84.2126C208.763 83.5376 208.748 82.8626 208.748 82.1876C208.748 78.8814 208.748 75.5772 208.748 72.271C208.748 68.573 208.748 64.8751 208.748 61.1772C208.748 59.2897 209.1 56.8605 208.469 55.0314C207.692 52.7814 205.592 51.4814 203.279 51.4168C202.696 51.4001 202.517 52.1564 203.196 52.1751C205.761 52.246 207.673 54.3689 207.727 56.8814C207.742 57.5355 207.727 58.1939 207.727 58.848C207.727 62.0355 207.727 65.223 207.727 68.4126C207.727 72.0335 207.727 75.6522 207.727 79.2731C207.727 81.0835 207.858 82.9481 207.708 84.7543C207.511 87.1106 205.602 88.8647 203.256 88.9147C203.058 88.9189 202.858 88.9147 202.661 88.9147C201.496 88.9147 200.331 88.9147 199.167 88.9147C194.4 88.9147 189.636 88.9147 184.871 88.9147C177.94 88.9147 171.011 88.9147 164.079 88.9147C156.4 88.9147 148.723 88.9147 141.044 88.9147C133.942 88.9147 126.838 88.9147 119.736 88.9147C114.542 88.9147 109.346 88.9147 104.152 88.9147C102.719 88.9147 101.288 88.9147 99.8543 88.9147C98.8334 88.9147 97.8168 88.9835 96.8459 88.5793C94.7543 87.7085 93.9522 85.7356 93.9522 83.6147C93.9522 81.9022 93.9522 80.1897 93.9522 78.4751C93.9522 77.6981 94.1939 76.7397 93.6314 76.1543C92.5334 75.0126 91.3897 73.9126 90.2709 72.7939C89.4459 71.9689 88.621 71.1439 87.796 70.3189C87.7835 70.446 87.771 70.573 87.7605 70.7001C89.3522 69.1085 90.9439 67.5168 92.5355 65.9251C92.948 65.5126 93.7647 64.9689 93.9543 64.3939C94.0335 64.1501 93.9543 63.748 93.9543 63.498C93.9543 62.8626 93.9543 62.2272 93.9543 61.5918C93.9543 60.2355 93.9543 58.8814 93.9543 57.5251C93.9543 56.1335 94.1105 54.8126 95.0626 53.7043C96.0793 52.521 97.4751 52.171 98.9522 52.171C105.206 52.171 111.463 52.171 117.717 52.171C129.127 52.171 140.538 52.171 151.946 52.171C163.138 52.171 174.327 52.171 185.519 52.171C189.438 52.171 193.358 52.171 197.277 52.171C199.158 52.171 201.069 52.2647 202.948 52.171C203.031 52.1668 203.115 52.171 203.198 52.171C203.777 52.1751 203.961 51.4168 203.279 51.4168Z" fill="#56627F"/>
<path d="M185.088 73.8396C182.465 73.8396 179.844 73.8396 177.221 73.8396C170.921 73.8396 164.621 73.8396 158.321 73.8396C150.658 73.8396 142.998 73.8396 135.335 73.8396C128.74 73.8396 122.144 73.8396 115.548 73.8396C113.365 73.8396 111.181 73.8396 108.996 73.8396C107.981 73.8396 106.919 73.75 105.908 73.8396C105.863 73.8438 105.815 73.8396 105.769 73.8396C105.181 73.8396 105.008 74.6146 105.69 74.6146C108.313 74.6146 110.933 74.6146 113.556 74.6146C119.856 74.6146 126.156 74.6146 132.456 74.6146C140.119 74.6146 147.779 74.6146 155.442 74.6146C162.038 74.6146 168.633 74.6146 175.229 74.6146C177.413 74.6146 179.596 74.6146 181.781 74.6146C182.796 74.6146 183.858 74.7042 184.869 74.6146C184.915 74.6105 184.963 74.6146 185.008 74.6146C185.596 74.6125 185.769 73.8396 185.088 73.8396Z" fill="#56627F"/>
<path d="M176.669 79.7744C168.642 79.7744 160.615 79.7744 152.588 79.7744C139.89 79.7744 127.192 79.7744 114.492 79.7744C111.583 79.7744 108.675 79.7744 105.767 79.7744C105.179 79.7744 105.006 80.5494 105.688 80.5494C113.715 80.5494 121.742 80.5494 129.769 80.5494C142.467 80.5494 155.165 80.5494 167.865 80.5494C170.773 80.5494 173.681 80.5494 176.59 80.5494C177.177 80.5494 177.35 79.7744 176.669 79.7744Z" fill="#56627F"/>
<path d="M195.394 67.4706C192.423 67.4706 189.454 67.4706 186.483 67.4706C179.352 67.4706 172.221 67.4706 165.09 67.4706C156.465 67.4706 147.842 67.4706 139.217 67.4706C131.792 67.4706 124.367 67.4706 116.942 67.4706C113.323 67.4706 109.681 67.3477 106.065 67.4706C106.015 67.4727 105.963 67.4706 105.913 67.4706C105.483 67.4706 104.865 68.1207 105.542 68.1207C108.513 68.1207 111.481 68.1207 114.452 68.1207C121.583 68.1207 128.715 68.1207 135.846 68.1207C144.471 68.1207 153.094 68.1207 161.719 68.1207C169.144 68.1207 176.569 68.1207 183.994 68.1207C187.613 68.1207 191.254 68.2436 194.871 68.1207C194.921 68.1186 194.973 68.1207 195.023 68.1207C195.452 68.1186 196.073 67.4706 195.394 67.4706Z" fill="#56627F"/>
<path d="M158.033 60.1582C152.156 60.1582 146.281 60.1582 140.404 60.1582C131.031 60.1582 121.658 60.1582 112.285 60.1582C110.125 60.1582 107.965 60.1582 105.806 60.1582C104.633 60.1582 104.283 61.6978 105.646 61.6978C111.523 61.6978 117.398 61.6978 123.275 61.6978C132.648 61.6978 142.021 61.6978 151.394 61.6978C153.554 61.6978 155.712 61.6978 157.873 61.6978C159.046 61.6999 159.398 60.1582 158.033 60.1582Z" fill="#DBE6FF"/>
<path d="M188.96 70.9377C188.96 70.7315 189.029 70.5211 189.163 70.3086C189.296 70.0961 189.492 69.9211 189.746 69.7815C190.002 69.6419 190.3 69.5732 190.64 69.5752C190.956 69.5773 191.235 69.6357 191.477 69.7544C191.719 69.8711 191.904 70.0315 192.038 70.2315C192.169 70.4336 192.233 70.6502 192.233 70.8857C192.233 71.0711 192.194 71.2336 192.119 71.3732C192.044 71.5127 191.952 71.6336 191.85 71.7336C191.746 71.8357 191.56 72.0044 191.29 72.244C191.215 72.3107 191.156 72.3711 191.11 72.4211C191.065 72.4732 191.031 72.519 191.01 72.5607C190.988 72.6023 190.971 72.6461 190.958 72.6877C190.946 72.7294 190.927 72.8044 190.904 72.9107C190.863 73.1377 190.731 73.2502 190.515 73.2502C190.402 73.2502 190.306 73.2127 190.229 73.1377C190.152 73.0627 190.115 72.9523 190.115 72.8065C190.115 72.6232 190.144 72.4648 190.202 72.3315C190.258 72.1982 190.335 72.0794 190.429 71.9794C190.523 71.8794 190.65 71.7586 190.81 71.619C190.95 71.4982 191.052 71.4065 191.115 71.344C191.177 71.2815 191.229 71.2127 191.273 71.1377C191.317 71.0607 191.338 70.9794 191.338 70.8898C191.338 70.7148 191.273 70.569 191.144 70.4482C191.015 70.3273 190.848 70.2669 190.642 70.2669C190.402 70.2669 190.225 70.3252 190.11 70.4461C189.996 70.5669 189.9 70.744 189.821 70.9794C189.746 71.2252 189.604 71.3482 189.398 71.3482C189.275 71.3482 189.173 71.3044 189.09 71.2169C189.002 71.1315 188.96 71.0377 188.96 70.9377ZM190.544 74.5273C190.41 74.5273 190.294 74.4836 190.196 74.3961C190.098 74.3107 190.048 74.1898 190.048 74.0336C190.048 73.8961 190.098 73.7815 190.194 73.6878C190.29 73.594 190.408 73.5482 190.548 73.5482C190.685 73.5482 190.8 73.5961 190.894 73.6898C190.988 73.7836 191.033 73.9003 191.033 74.0378C191.033 74.1898 190.983 74.3107 190.885 74.3961C190.785 74.4857 190.673 74.5273 190.544 74.5273Z" fill="#56627F"/>
<path d="M60.5939 89.2959C70.9492 89.2959 79.3439 80.9013 79.3439 70.5459C79.3439 60.1906 70.9492 51.7959 60.5939 51.7959C50.2385 51.7959 41.8439 60.1906 41.8439 70.5459C41.8439 80.9013 50.2385 89.2959 60.5939 89.2959Z" fill="#A6BFFF" fill-opacity="0.4"/>
<path d="M64.1771 70.9318C66.1 69.7131 67.3813 67.5714 67.3875 65.1276C67.4 61.3193 64.3229 58.2235 60.5146 58.211C56.7063 58.1985 53.6104 61.2756 53.5979 65.0839C53.5896 67.5297 54.8563 69.6797 56.7729 70.9089C51.4313 72.1943 47.1604 76.236 45.5542 81.4506C48.9 86.036 54.3063 89.0256 60.4167 89.0443C66.5292 89.0631 71.9521 86.1089 75.3271 81.5443C73.7563 76.3193 69.5104 72.2506 64.1771 70.9318Z" fill="#E3E3E3"/>
<path d="M64.3979 70.903C66.2062 69.7571 67.4187 67.0634 67.4187 66.103C67.4187 62.5217 64.9771 59.6071 61.3937 59.5967C57.8125 59.5863 54.8979 62.2592 54.8875 65.8425C54.8812 68.1425 56.0729 70.1655 57.8729 71.3217C52.8479 72.5321 48.3896 77.878 46.8792 82.7821C50.025 87.0967 55.5521 89.0259 61.3021 89.0446C67.0521 89.0634 72.1541 86.2821 75.3291 81.9884C73.85 77.0738 69.4146 72.1446 64.3979 70.903Z" fill="white"/>
<path d="M64.5729 70.9838C68.925 68.0942 68.9729 61.4775 64.2792 58.8734C60.1688 56.5921 54.4979 58.8463 53.3146 63.4608C52.5625 66.3963 53.8167 69.4213 56.3021 71.0942C56.4396 70.9629 56.5792 70.8317 56.7167 70.7004C52.4625 71.7692 48.7271 74.4338 46.5021 78.24C45.9729 79.1442 45.3834 80.2088 45.1459 81.2358C44.9563 82.0525 46.2896 83.1463 46.85 83.7171C48.4354 85.3275 50.3146 86.6421 52.3667 87.5858C56.6771 89.5692 61.6938 89.8046 66.2042 88.3629C68.3063 87.6921 70.2917 86.665 72.0459 85.3254C72.8896 84.6817 73.6792 83.9671 74.4042 83.1921C74.8209 82.7483 75.2604 82.2817 75.6042 81.7775C75.9208 81.3108 75.7375 81.0754 75.5438 80.5463C73.7563 75.6692 69.5917 71.9984 64.5834 70.7067C64.3125 70.6379 63.4167 71.0588 63.7709 71.1504C67.7 72.165 71.1354 74.6442 73.2458 78.1254C73.7625 78.9775 74.1959 79.8796 74.5375 80.815C74.7417 81.3692 74.7833 81.6775 74.3917 82.1629C74.0354 82.6046 73.6604 83.0296 73.2667 83.4358C71.7438 85.0046 69.9354 86.2942 67.9521 87.2088C63.8271 89.1108 59.0313 89.2796 54.7542 87.7733C52.8 87.0858 50.9792 86.065 49.3667 84.765C48.6188 84.1629 47.9188 83.4983 47.2729 82.7879C46.9792 82.4629 46.6188 82.1233 46.3917 81.7442C46.0021 81.0879 46.2875 80.6213 46.5688 79.9525C48.4021 75.5733 52.2271 72.2671 56.8292 71.1108C56.8792 71.0983 57.4625 70.865 57.2438 70.7171C54.8229 69.0879 53.5854 66.1713 54.3146 63.3046C55.0521 60.4067 57.7375 58.2234 60.7792 58.4713C63.4979 58.6942 65.8438 60.6859 66.6063 63.2858C67.4563 66.1796 66.2688 69.2213 63.7813 70.8713C63.3396 71.1733 64.3479 71.1338 64.5729 70.9838Z" fill="#56627F"/>
<path d="M78.8334 70.5795C78.7751 78.1711 74.0813 85.1774 66.8938 87.8107C59.6709 90.4565 51.3688 88.1086 46.5209 82.167C41.7167 76.2815 41.025 67.8065 44.8438 61.2295C48.7167 54.5565 56.5771 51.0295 64.1355 52.5461C72.6355 54.2545 78.7667 61.9753 78.8334 70.5795C78.8376 71.1274 79.8605 70.9961 79.8563 70.5149C79.7938 62.4607 74.6751 55.1149 67.0188 52.4711C59.5 49.8732 50.9292 52.2378 45.8105 58.3274C40.6355 64.4857 39.9042 73.492 44.0396 80.3961C48.198 87.3399 56.498 90.8899 64.4042 89.2982C73.2792 87.5107 79.7876 79.542 79.8584 70.517C79.8584 69.9649 78.8355 70.0961 78.8334 70.5795Z" fill="#56627F"/>
<path d="M203.238 155.962H98.4397C95.6793 155.962 93.4397 158.199 93.4397 160.962V168.606L87.3335 174.712L93.4397 180.818V188.462C93.4397 191.222 95.6772 193.462 98.4397 193.462H203.236C205.996 193.462 208.236 191.224 208.236 188.462V160.962C208.238 158.202 205.998 155.962 203.238 155.962Z" fill="white"/>
<path d="M203.283 155.599C198.398 155.599 193.515 155.599 188.629 155.599C177.606 155.599 166.586 155.599 155.563 155.599C143.879 155.599 132.196 155.599 120.513 155.599C113.544 155.599 106.575 155.599 99.6064 155.599C99.2335 155.599 98.8605 155.591 98.4897 155.599C95.2251 155.679 92.9314 158.231 92.9314 161.424C92.9314 163.791 93.0105 166.17 92.9314 168.535C92.923 168.751 92.996 168.491 93.0022 168.481C92.946 168.57 92.8272 168.662 92.7501 168.733C92.3856 169.072 92.0418 169.441 91.6897 169.793C90.6689 170.814 89.6481 171.835 88.6293 172.854C88.0585 173.424 87.4876 173.995 86.9147 174.568C86.8314 174.652 86.7772 174.835 86.873 174.933C88.8522 176.912 90.7501 179.052 92.846 180.906C93.0251 181.064 92.9501 180.985 92.9293 180.904C92.971 181.079 92.9293 181.322 92.9293 181.502C92.9293 182.289 92.9293 183.079 92.9293 183.866C92.9293 185.389 92.9043 186.916 92.9293 188.439C92.9814 191.631 95.4772 193.806 98.5876 193.824C99.5251 193.831 100.465 193.824 101.402 193.824C106 193.824 110.6 193.824 115.198 193.824C122.158 193.824 129.121 193.824 136.081 193.824C143.99 193.824 151.898 193.824 159.806 193.824C167.154 193.824 174.502 193.824 181.85 193.824C187.14 193.824 192.429 193.824 197.719 193.824C199.152 193.824 200.586 193.824 202.019 193.824C203.298 193.824 204.506 193.818 205.704 193.218C207.55 192.293 208.7 190.445 208.744 188.391C208.758 187.731 208.744 187.068 208.744 186.406C208.744 183.149 208.744 179.893 208.744 176.637C208.744 172.922 208.744 169.21 208.744 165.495C208.744 164.31 208.744 163.124 208.744 161.939C208.744 161.104 208.779 160.268 208.546 159.454C207.89 157.154 205.756 155.666 203.411 155.601C202.931 155.589 202.381 156.301 203.058 156.322C205.671 156.395 207.661 158.426 207.725 161.035C207.74 161.658 207.725 162.283 207.725 162.906C207.725 166.064 207.725 169.22 207.725 172.379C207.725 177.787 207.923 183.237 207.721 188.643C207.629 191.112 205.742 193.041 203.265 193.099C203.071 193.104 202.875 193.099 202.681 193.099C201.525 193.099 200.369 193.099 199.213 193.099C194.461 193.099 189.706 193.099 184.954 193.099C178.029 193.099 171.106 193.099 164.183 193.099C156.506 193.099 148.827 193.099 141.15 193.099C134.013 193.099 126.875 193.099 119.738 193.099C114.561 193.099 109.381 193.099 104.204 193.099C102.754 193.099 101.306 193.099 99.8564 193.099C98.8293 193.099 97.8293 193.162 96.848 192.76C94.7522 191.899 93.9501 189.891 93.9501 187.777C93.9501 186.064 93.9501 184.352 93.9501 182.637C93.9501 181.862 94.1939 180.908 93.6314 180.324C92.5314 179.185 91.3897 178.083 90.271 176.964C89.446 176.139 88.621 175.314 87.796 174.489C87.7814 174.61 87.7689 174.731 87.7543 174.854C89.346 173.262 90.9376 171.67 92.5293 170.079C92.9376 169.67 93.7564 169.124 93.9501 168.556C94.0314 168.316 93.9501 167.906 93.9501 167.66C93.9501 167.024 93.9501 166.389 93.9501 165.754C93.9501 164.397 93.9501 163.043 93.9501 161.687C93.9501 160.293 94.1064 158.97 95.0564 157.858C96.0689 156.668 97.4668 156.32 98.9439 156.32C105.198 156.32 111.454 156.32 117.708 156.32C129.119 156.32 140.529 156.32 151.938 156.32C163.129 156.32 174.319 156.32 185.511 156.32C189.429 156.32 193.35 156.32 197.269 156.32C199.15 156.32 201.061 156.416 202.94 156.32C203.023 156.316 203.106 156.32 203.19 156.32C203.761 156.324 203.967 155.599 203.283 155.599Z" fill="#56627F"/>
<path d="M175.473 180.089C167.613 180.089 159.752 180.089 151.892 180.089C139.375 180.089 126.858 180.089 114.34 180.089C111.481 180.089 108.623 180.089 105.765 180.089C105.177 180.089 105.004 180.864 105.685 180.864C113.546 180.864 121.406 180.864 129.267 180.864C141.783 180.864 154.3 180.864 166.819 180.864C169.677 180.864 172.535 180.864 175.394 180.864C175.981 180.864 176.154 180.089 175.473 180.089Z" fill="#56627F"/>
<path d="M195.394 173.72C192.423 173.72 189.454 173.72 186.483 173.72C179.352 173.72 172.221 173.72 165.09 173.72C156.465 173.72 147.842 173.72 139.217 173.72C131.792 173.72 124.367 173.72 116.942 173.72C113.323 173.72 109.681 173.597 106.065 173.72C106.015 173.722 105.963 173.72 105.913 173.72C105.483 173.72 104.865 174.37 105.542 174.37C108.513 174.37 111.481 174.37 114.452 174.37C121.583 174.37 128.715 174.37 135.846 174.37C144.471 174.37 153.094 174.37 161.719 174.37C169.144 174.37 176.569 174.37 183.994 174.37C187.613 174.37 191.254 174.493 194.871 174.37C194.921 174.368 194.973 174.37 195.023 174.37C195.452 174.368 196.073 173.72 195.394 173.72Z" fill="#56627F"/>
<path d="M158.033 164.324C152.156 164.324 146.281 164.324 140.404 164.324C131.031 164.324 121.658 164.324 112.285 164.324C110.125 164.324 107.965 164.324 105.806 164.324C104.633 164.324 104.283 165.864 105.646 165.864C111.523 165.864 117.398 165.864 123.275 165.864C132.648 165.864 142.021 165.864 151.394 165.864C153.554 165.864 155.712 165.864 157.873 165.864C159.046 165.866 159.398 164.324 158.033 164.324Z" fill="#DBE6FF"/>
<path d="M179.381 178.216C179.54 178.216 179.698 178.216 179.856 178.216C179.994 178.216 180.125 178.2 180.252 178.143C180.344 178.102 180.471 178.022 180.517 177.927C180.617 177.72 180.431 177.568 180.227 177.568C180.069 177.568 179.911 177.568 179.752 177.568C179.615 177.568 179.484 177.585 179.356 177.641C179.265 177.683 179.138 177.762 179.092 177.858C178.994 178.064 179.179 178.216 179.381 178.216Z" fill="#56627F"/>
<path d="M179.363 179.939C179.521 179.939 179.679 179.939 179.838 179.939C180.056 179.939 180.367 179.86 180.504 179.677C180.646 179.489 180.381 179.429 180.244 179.429C180.086 179.429 179.927 179.429 179.769 179.429C179.55 179.429 179.24 179.508 179.102 179.691C178.963 179.879 179.225 179.939 179.363 179.939Z" fill="#56627F"/>
<path d="M181.588 180.891C183.675 180.7 183.983 176.931 181.806 176.729C181.315 176.683 180.779 177.397 181.458 177.46C182.019 177.512 182.225 178.214 182.267 178.685C182.3 179.077 182.229 180.106 181.679 180.156C181.115 180.208 180.902 180.956 181.588 180.891Z" fill="#56627F"/>
<path d="M60.5939 193.462C70.9492 193.462 79.3439 185.067 79.3439 174.712C79.3439 164.357 70.9492 155.962 60.5939 155.962C50.2385 155.962 41.8439 164.357 41.8439 174.712C41.8439 185.067 50.2385 193.462 60.5939 193.462Z" fill="#A6BFFF" fill-opacity="0.4"/>
<path d="M64.1771 175.098C66.1 173.879 67.3813 171.737 67.3875 169.294C67.4 165.485 64.3229 162.389 60.5146 162.377C56.7063 162.364 53.6104 165.442 53.5979 169.25C53.5896 171.696 54.8563 173.846 56.7729 175.075C51.4313 176.36 47.1604 180.402 45.5542 185.617C48.9 190.202 54.3063 193.192 60.4167 193.21C66.5292 193.229 71.9521 190.275 75.3271 185.71C73.7563 180.485 69.5104 176.417 64.1771 175.098Z" fill="#E3E3E3"/>
<path d="M64.3979 175.068C66.2062 173.922 67.4187 171.228 67.4187 170.268C67.4187 166.687 64.9771 163.772 61.3937 163.762C57.8125 163.751 54.8979 166.424 54.8875 170.008C54.8812 172.308 56.0729 174.331 57.8729 175.487C52.8479 176.697 48.3896 182.043 46.8792 186.947C50.025 191.262 55.5521 193.191 61.3021 193.21C67.0521 193.228 72.1541 190.447 75.3291 186.153C73.85 181.239 69.4146 176.31 64.3979 175.068Z" fill="white"/>
<path d="M64.5729 175.15C68.925 172.26 68.9729 165.644 64.2792 163.039C60.1688 160.758 54.4979 163.012 53.3146 167.627C52.5625 170.562 53.8167 173.587 56.3021 175.26C56.4396 175.129 56.5792 174.998 56.7167 174.866C52.4625 175.935 48.7271 178.6 46.5021 182.406C45.9729 183.31 45.3834 184.375 45.1459 185.402C44.9563 186.218 46.2896 187.312 46.85 187.883C48.4354 189.493 50.3146 190.808 52.3667 191.752C56.6771 193.735 61.6938 193.971 66.2042 192.529C68.3063 191.858 70.2917 190.831 72.0459 189.491C72.8896 188.848 73.6792 188.133 74.4042 187.358C74.8209 186.914 75.2604 186.448 75.6042 185.943C75.9208 185.477 75.7375 185.241 75.5438 184.712C73.7563 179.835 69.5917 176.164 64.5834 174.873C64.3125 174.804 63.4167 175.225 63.7709 175.316C67.7 176.331 71.1354 178.81 73.2458 182.291C73.7625 183.143 74.1959 184.046 74.5375 184.981C74.7417 185.535 74.7833 185.843 74.3917 186.329C74.0354 186.771 73.6604 187.196 73.2667 187.602C71.7438 189.171 69.9354 190.46 67.9521 191.375C63.8271 193.277 59.0313 193.446 54.7542 191.939C52.8 191.252 50.9792 190.231 49.3667 188.931C48.6188 188.329 47.9188 187.664 47.2729 186.954C46.9792 186.629 46.6188 186.289 46.3917 185.91C46.0021 185.254 46.2875 184.787 46.5688 184.118C48.4021 179.739 52.2271 176.433 56.8292 175.277C56.8792 175.264 57.4625 175.031 57.2438 174.883C54.8229 173.254 53.5854 170.337 54.3146 167.471C55.0521 164.573 57.7375 162.389 60.7792 162.637C63.4979 162.86 65.8438 164.852 66.6063 167.452C67.4563 170.346 66.2688 173.387 63.7813 175.037C63.3396 175.339 64.3479 175.3 64.5729 175.15Z" fill="#56627F"/>
<path d="M78.8334 174.745C78.7751 182.337 74.0813 189.343 66.8938 191.977C59.6709 194.623 51.3688 192.275 46.5209 186.333C41.7167 180.448 41.025 171.973 44.8438 165.395C48.7167 158.723 56.5771 155.195 64.1355 156.712C72.6355 158.42 78.7667 166.141 78.8334 174.745C78.8376 175.293 79.8605 175.162 79.8563 174.681C79.7938 166.627 74.6751 159.281 67.0188 156.637C59.5 154.039 50.9292 156.404 45.8105 162.493C40.6355 168.652 39.9042 177.658 44.0396 184.562C48.198 191.506 56.498 195.056 64.4042 193.464C73.2792 191.677 79.7876 183.708 79.8584 174.683C79.8584 174.131 78.8355 174.262 78.8334 174.745Z" fill="#56627F"/>
</svg>
