<svg width="16" height="16" viewBox="0 0 16 16" fill="none" xmlns="http://www.w3.org/2000/svg">
<path d="M6.66675 7.33301V5.33301L10.0001 7.99967L6.66675 10.6663V8.66634H0.666748V7.33301H6.66675ZM1.63875 9.99967H3.05475C3.52011 11.1457 4.36922 12.0945 5.45683 12.6836C6.54443 13.2728 7.80295 13.4658 9.01711 13.2295C10.2313 12.9933 11.3256 12.3425 12.113 11.3885C12.9003 10.4345 13.3317 9.2366 13.3334 7.99967C13.3341 6.76145 12.9039 5.56156 12.1167 4.60582C11.3294 3.65008 10.2342 2.99805 9.01873 2.76155C7.80329 2.52505 6.54345 2.71884 5.45527 3.30966C4.36709 3.90048 3.51839 4.85153 3.05475 5.99967H1.63875C2.48808 3.29501 5.01475 1.33301 8.00008 1.33301C11.6821 1.33301 14.6667 4.31767 14.6667 7.99967C14.6667 11.6817 11.6821 14.6663 8.00008 14.6663C5.01475 14.6663 2.48808 12.7043 1.63875 9.99967Z" fill="#B4C0D4"/>
</svg>
