<?xml version="1.0" encoding="UTF-8"?>
<svg width="62px" height="44px" viewBox="0 0 62 44" version="1.1" xmlns="http://www.w3.org/2000/svg" xmlns:xlink="http://www.w3.org/1999/xlink">
    <!-- Generator: sketchtool 51.1 (57501) - http://www.bohemiancoding.com/sketch -->
    <title>54A7AFE5-2335-4BC8-84ED-63B1039A7ABB</title>
    <desc>Created with sketchtool.</desc>
    <defs>
        <linearGradient x1="-35.6095982%" y1="5.84869026%" x2="75.254987%" y2="111.452814%" id="linearGradient-1">
            <stop stop-color="#5C37F2" offset="0%"></stop>
            <stop stop-color="#AA7BFF" offset="100%"></stop>
        </linearGradient>
        <linearGradient x1="50%" y1="50%" x2="120.206942%" y2="111.216042%" id="linearGradient-2">
            <stop stop-color="#5C37F2" offset="0%"></stop>
            <stop stop-color="#AA7BFF" offset="100%"></stop>
        </linearGradient>
        <linearGradient x1="115.711492%" y1="45.5045498%" x2="-8.98417169%" y2="-13.6739899%" id="linearGradient-3">
            <stop stop-color="#6945FF" offset="0%"></stop>
            <stop stop-color="#AD80FF" offset="100%"></stop>
        </linearGradient>
        <linearGradient x1="115.711492%" y1="45.5045498%" x2="-8.98417169%" y2="-13.6739899%" id="linearGradient-4">
            <stop stop-color="#7452FF" offset="1.93054552%"></stop>
            <stop stop-color="#C6A6FF" offset="100%"></stop>
        </linearGradient>
        <linearGradient x1="-11.0156224%" y1="123.481146%" x2="75.4972108%" y2="50%" id="linearGradient-5">
            <stop stop-color="#FFBC6E" offset="0%"></stop>
            <stop stop-color="#F14369" offset="100%"></stop>
        </linearGradient>
        <path d="M20.2692308,2.52702703 L20.2692308,17.6891892 C20.2692308,19.0853716 19.1354207,20.2162162 17.7355769,20.2162162 L2.53365385,20.2162162 C1.17498197,20.2162162 0.0696754808,19.1517061 0.00316706731,17.8155405 C0,17.7744764 0,17.7302534 0,17.6891892 L0,2.52702703 C0,1.13084459 1.1338101,0 2.53365385,0 L17.7355769,0 C19.1354207,0 20.2692308,1.13084459 20.2692308,2.52702703 Z" id="path-6"></path>
        <linearGradient x1="12.4563898%" y1="106.602404%" x2="69.9343836%" y2="-61.9524392%" id="linearGradient-8">
            <stop stop-color="#FFBC6E" offset="0%"></stop>
            <stop stop-color="#FF5076" offset="100%"></stop>
        </linearGradient>
    </defs>
    <g id="Platform-Pages" stroke="none" stroke-width="1" fill="none" fill-rule="evenodd">
        <g id="0-1-1-Login" transform="translate(-699.000000, -502.000000)">
            <g id="Group-7" transform="translate(699.000000, 502.000000)">
                <g id="message-unread-email-envelope-text" transform="translate(0.000000, 8.324324)" fill-rule="nonzero">
                    <path d="M0,5.19675676 L0,28.9805405 C-1.58847294e-15,30.7562008 0.707228052,32.4591346 1.96610206,33.714716 C3.22497606,34.9702974 4.93237562,35.6756757 6.71269231,35.6756757 L43.3642308,35.6756757 C45.1445475,35.6756757 46.851947,34.9702974 48.110821,33.714716 C49.369695,32.4591346 50.0769231,30.7562008 50.0769231,28.9805405 L50.0769231,5.19675676 C50.0769231,2.32666725 47.7441544,0 44.8665385,0 L5.21038462,0 C2.33276865,0 2.11796392e-15,2.32666725 0,5.19675676 Z" id="Shape" fill="url(#linearGradient-1)"></path>
                    <path d="M39.6442308,1.48648649 L20.8534615,14.8767568 C19.4414464,15.8847354 18.5402339,17.4566467 18.3853846,19.1816216 C18.5402339,20.9065966 19.4414464,22.4785079 20.8534615,23.4864865 L33.5873077,32.56 C36.4409668,34.5896654 39.8593006,35.6790081 43.3642308,35.6756757 C47.0715484,35.6756757 50.0769231,32.6781616 50.0769231,28.9805405 L50.0769231,6.63567568 C50.0753417,4.79747597 49.221414,3.06335633 47.7638462,1.93837838 L47.12,1.48648649 C44.8832542,-0.10418654 41.8809766,-0.10418654 39.6442308,1.48648649 Z" id="Shape" fill="url(#linearGradient-2)"></path>
                    <path d="M44.8665385,0 L5.21038462,0 C2.33276865,0 2.11796392e-15,2.32666725 0,5.19675676 L0,6.38594595 C0.00431506747,7.80251621 0.692174073,9.13037407 1.84807692,9.95351351 L21.5926923,23.9859459 C23.6571691,25.4443932 26.4197539,25.4443932 28.4842308,23.9859459 L48.2288462,9.91783784 C49.3832229,9.09338086 50.0706476,7.76636139 50.0769231,6.35027027 L50.0769231,5.16108108 C50.0572638,2.30493357 47.7302434,-6.73047305e-05 44.8665385,0 Z" id="Shape" fill="url(#linearGradient-3)"></path>
                    <path d="M5.21038462,0 C2.83714122,0.0022376691 0.766712987,1.60727146 0.178846154,3.90054054 C0.448579376,4.85926706 1.03722257,5.69798647 1.84807692,6.27891892 L21.5926923,20.3589189 C23.6571691,21.8173662 26.4197539,21.8173662 28.4842308,20.3589189 L48.2288462,6.3027027 C49.0397005,5.72177026 49.6283437,4.88305084 49.8980769,3.92432432 C49.319419,1.62161316 47.246695,0.00500200628 44.8665385,0 L5.21038462,0 Z" id="Shape" fill="url(#linearGradient-4)"></path>
                </g>
                <g id="Group-6" transform="translate(41.730769, 0.000000)">
                    <g id="graph-3">
                        <g id="Yellow">
                            <g id="Group">
                                <mask id="mask-7" fill="white">
                                    <use xlink:href="#path-6"></use>
                                </mask>
                                <use id="Shape" fill="url(#linearGradient-5)" fill-rule="nonzero" xlink:href="#path-6"></use>
                                <path d="M17.7355769,0 L2.53365385,0 C1.1338101,0 0,1.13084459 0,2.52702703 L0,17.6891892 C0,17.7302534 0,17.7744764 0.00316706731,17.8155405 C0.0361045673,18.4738311 0.321774038,19.0654713 0.764846755,19.497277 L25.0698381,0.762846284 L19.5484063,0.762846284 C19.0882314,0.292819257 18.4465835,0 17.7355769,0 Z" id="Shape" fill="url(#linearGradient-8)" fill-rule="nonzero" mask="url(#mask-7)"></path>
                            </g>
                        </g>
                    </g>
                    <g id="flash-1007" transform="translate(5.405128, 5.390991)" fill="#FFFFFF" fill-rule="nonzero">
                        <path d="M9.21248238,5.44008799 L4.64285838,9.28927591 C4.21011092,9.61334357 3.47704145,9.35720276 3.53379521,8.88501684 L3.8279689,5.99105018 C3.86344,5.69811566 3.61325048,5.4537677 3.26941726,5.44480513 L0.594896069,5.37735 C0.0401280136,5.36319857 -0.214318034,4.78393353 0.218429426,4.45986587 L4.69772035,0.146039455 C5.13046781,-0.178028205 5.68192523,0.0733954671 5.62469851,0.545581387 L5.33052483,3.90182796 C5.29505373,4.19476249 5.54524324,4.43911044 5.88907647,4.4476013 L8.92682176,4.52496243 C9.48206276,4.53911386 9.64522984,5.11602033 9.21248238,5.44008799" id="flash-[#1007]"></path>
                    </g>
                </g>
            </g>
        </g>
    </g>
</svg>