<svg width="14" height="14" viewBox="0 0 14 14" fill="none" xmlns="http://www.w3.org/2000/svg">
<path d="M1.82613 4.27094L6.72984 1.33094C6.81226 1.28149 6.90657 1.25537 7.00268 1.25537C7.0988 1.25537 7.1931 1.28149 7.27552 1.33094L12.1745 4.27147C12.2138 4.29503 12.2463 4.32837 12.2689 4.36824C12.2915 4.40811 12.3033 4.45315 12.3033 4.49897V11.2423C12.3033 11.383 12.2475 11.5178 12.148 11.6173C12.0486 11.7167 11.9137 11.7726 11.773 11.7726H2.22757C2.08692 11.7726 1.95204 11.7167 1.85259 11.6173C1.75314 11.5178 1.69727 11.383 1.69727 11.2423V4.49844C1.69726 4.45262 1.70912 4.40758 1.73171 4.36771C1.75429 4.32783 1.78682 4.2945 1.82613 4.27094ZM10.3656 5.00807L7.03264 7.89238L3.63128 5.00488L2.94507 5.81307L7.03901 9.2892L11.0592 5.81041L10.3656 5.00807Z" fill="white"/>
</svg>
