<svg width="16" height="16" viewBox="0 0 16 16" fill="none" xmlns="http://www.w3.org/2000/svg">
<path d="M1.33333 5.99601C1.33298 5.47081 1.43623 4.9507 1.63717 4.46546C1.83812 3.98023 2.1328 3.53939 2.50436 3.16821C2.87592 2.79702 3.31705 2.50278 3.80248 2.30232C4.28792 2.10186 4.80813 1.99913 5.33333 2.00001H10.6667C12.8753 2.00001 14.6667 3.79667 14.6667 5.99601V14H5.33333C3.12466 14 1.33333 12.2033 1.33333 10.004V5.99601ZM13.3333 12.6667V5.99601C13.3316 5.28967 13.0499 4.61283 12.5501 4.11375C12.0503 3.61467 11.373 3.33404 10.6667 3.33334H5.33333C4.98323 3.33246 4.6364 3.4007 4.31273 3.53416C3.98906 3.66761 3.69491 3.86364 3.44717 4.11102C3.19942 4.35839 3.00295 4.65224 2.86901 4.97571C2.73507 5.29918 2.66631 5.6459 2.66666 5.99601V10.004C2.66843 10.7103 2.95007 11.3872 3.4499 11.8863C3.94973 12.3853 4.62699 12.666 5.33333 12.6667H13.3333ZM9.33333 7.33334H10.6667V8.66667H9.33333V7.33334ZM5.33333 7.33334H6.66666V8.66667H5.33333V7.33334Z" fill="#B4C0D4"/>
</svg>
