<svg width="16" height="16" viewBox="0 0 16 16" fill="none" xmlns="http://www.w3.org/2000/svg">
<path d="M1.33301 5.99601C1.33266 5.47081 1.43591 4.9507 1.63685 4.46546C1.8378 3.98023 2.13248 3.53939 2.50404 3.16821C2.8756 2.79702 3.31673 2.50278 3.80216 2.30232C4.2876 2.10186 4.80781 1.99913 5.33301 2.00001H10.6663C12.875 2.00001 14.6663 3.79667 14.6663 5.99601V14H5.33301C3.12434 14 1.33301 12.2033 1.33301 10.004V5.99601ZM13.333 12.6667V5.99601C13.3312 5.28967 13.0496 4.61283 12.5498 4.11375C12.0499 3.61467 11.3727 3.33404 10.6663 3.33334H5.33301C4.98291 3.33246 4.63608 3.4007 4.31241 3.53416C3.98874 3.66761 3.69459 3.86364 3.44685 4.11102C3.1991 4.35839 3.00263 4.65224 2.86869 4.97571C2.73475 5.29918 2.66599 5.6459 2.66634 5.99601V10.004C2.66811 10.7103 2.94975 11.3872 3.44958 11.8863C3.94941 12.3853 4.62667 12.666 5.33301 12.6667H13.333ZM9.33301 7.33334H10.6663V8.66667H9.33301V7.33334ZM5.33301 7.33334H6.66634V8.66667H5.33301V7.33334Z" fill="#B4C0D4"/>
</svg>
