<svg width="16" height="17" viewBox="0 0 16 17" fill="none" xmlns="http://www.w3.org/2000/svg">
<path fill-rule="evenodd" clip-rule="evenodd" d="M7.20125 15.0692L7.19582 15.0638C7.08945 14.9574 7.04924 14.8172 7.04924 14.673V13.8274C6.42028 13.7561 5.86393 13.6 5.38374 13.3552L5.37952 13.353C4.86836 13.077 4.46594 12.7347 4.1808 12.3229L4.17748 12.3181C3.90501 11.8989 3.756 11.449 3.73477 10.9712L3.73438 10.9624C3.73438 10.8276 3.7875 10.7092 3.88115 10.6156C3.97978 10.517 4.1051 10.469 4.24257 10.469H4.94657C5.07628 10.469 5.1993 10.5039 5.30318 10.5838C5.40534 10.6624 5.47333 10.7724 5.51668 10.8963L5.52083 10.9082L5.52347 10.9204C5.59901 11.273 5.8136 11.5902 6.1925 11.8705C6.56626 12.1303 7.11565 12.273 7.86524 12.273C8.6792 12.273 9.25053 12.1282 9.61166 11.8703C9.96811 11.6157 10.1439 11.2714 10.1439 10.8157C10.1439 10.5281 10.0568 10.3058 9.89123 10.1324L9.88787 10.1289C9.72063 9.94496 9.45337 9.77351 9.06853 9.62333L9.06298 9.62117C8.68277 9.45958 8.10035 9.26171 7.31066 9.02771C6.5507 8.81053 5.93439 8.57605 5.46707 8.32208C4.99422 8.06509 4.6288 7.7456 4.38203 7.35936L4.3807 7.35728C4.13122 6.95594 4.01324 6.46206 4.01324 5.88768C4.01324 5.09868 4.30533 4.42954 4.88392 3.89303C5.42634 3.39006 6.15371 3.09047 7.04924 2.98011V2.14768C7.04924 2.00349 7.08945 1.8633 7.19582 1.75693L7.20125 1.7515L7.20708 1.7465C7.31495 1.65404 7.44541 1.61035 7.58657 1.61035H8.11457C8.26265 1.61035 8.39644 1.66418 8.49609 1.77711C8.59502 1.87913 8.63724 2.00956 8.63724 2.14768V3.00061C9.21283 3.09128 9.71993 3.26695 10.1546 3.53151C10.625 3.81786 10.9874 4.16098 11.2321 4.56412C11.4817 4.94977 11.622 5.34897 11.6436 5.75984L11.6439 5.76509V5.77035C11.6439 5.90782 11.596 6.03315 11.4973 6.13177C11.3987 6.2304 11.2734 6.27835 11.1359 6.27835H10.4026C10.2806 6.27835 10.1661 6.23976 10.0619 6.17462L10.0567 6.17135L10.0517 6.16776C9.93437 6.08399 9.86734 5.96201 9.83979 5.82424L9.83864 5.81848L9.83782 5.81266C9.78837 5.4582 9.59262 5.15786 9.22097 4.91009C8.85047 4.6631 8.37824 4.53302 7.79191 4.53302C7.1512 4.53302 6.66689 4.6605 6.3198 4.89479L6.31692 4.89673C5.98838 5.11028 5.82124 5.42503 5.82124 5.87302C5.82124 6.17887 5.89894 6.40885 6.03837 6.58034C6.19852 6.76493 6.44829 6.93971 6.80207 7.09807C7.17231 7.25939 7.71021 7.44709 8.41992 7.66102C9.25568 7.89706 9.9231 8.13539 10.4172 8.37741C10.9194 8.62339 11.3068 8.93733 11.5656 9.325C11.8289 9.7095 11.9519 10.197 11.9519 10.7717C11.9519 11.657 11.6312 12.3837 10.9877 12.9326C10.3966 13.4447 9.60751 13.7434 8.63724 13.8439V14.673C8.63724 14.8111 8.59502 14.9416 8.49609 15.0436C8.39644 15.1565 8.26265 15.2104 8.11457 15.2104H7.58657C7.44541 15.2104 7.31495 15.1667 7.20708 15.0742L7.20125 15.0692Z" fill="black"/>
</svg>
