<svg width="16" height="17" viewBox="0 0 16 17" fill="none" xmlns="http://www.w3.org/2000/svg">
<path d="M8.0013 2.21045C7.26797 2.21045 6.66797 2.81045 6.66797 3.54378C6.66797 4.27712 7.26797 4.87712 8.0013 4.87712C8.73464 4.87712 9.33464 4.27712 9.33464 3.54378C9.33464 2.81045 8.73464 2.21045 8.0013 2.21045ZM8.0013 11.5438C7.26797 11.5438 6.66797 12.1438 6.66797 12.8771C6.66797 13.6104 7.26797 14.2104 8.0013 14.2104C8.73464 14.2104 9.33464 13.6104 9.33464 12.8771C9.33464 12.1438 8.73464 11.5438 8.0013 11.5438ZM8.0013 6.87712C7.26797 6.87712 6.66797 7.47712 6.66797 8.21045C6.66797 8.94378 7.26797 9.54378 8.0013 9.54378C8.73464 9.54378 9.33464 8.94378 9.33464 8.21045C9.33464 7.47712 8.73464 6.87712 8.0013 6.87712Z" fill="#B4C0D4"/>
</svg>
