<svg width="44" height="44" viewBox="0 0 44 44" fill="none" xmlns="http://www.w3.org/2000/svg">
<circle cx="22" cy="22" r="22" fill="#60BC94"/>
<path fill-rule="evenodd" clip-rule="evenodd" d="M22.0003 30.3334C17.3978 30.3334 13.667 26.6026 13.667 22.0001C13.667 17.3976 17.3978 13.6667 22.0003 13.6667C26.6028 13.6667 30.3337 17.3976 30.3337 22.0001C30.3337 26.6026 26.6028 30.3334 22.0003 30.3334ZM21.8764 24.6263C21.4859 25.0169 20.8527 25.0169 20.4621 24.6264L18.2226 22.3869C17.8972 22.0615 17.8972 21.5339 18.2226 21.2085C18.548 20.8831 19.0756 20.8831 19.401 21.2085L20.4621 22.2697C20.8527 22.6602 21.4859 22.6602 21.8764 22.2696L25.2935 18.852C25.6188 18.5265 26.1464 18.5265 26.4718 18.8519C26.7972 19.1773 26.7972 19.7048 26.4719 20.0302L21.8764 24.6263Z" fill="white"/>
</svg>
