<svg width="44" height="44" viewBox="0 0 44 44" fill="none" xmlns="http://www.w3.org/2000/svg">
<circle cx="22" cy="22" r="22" fill="#6F7CFF"/>
<path d="M13 13H31C31.2652 13 31.5196 13.1054 31.7071 13.2929C31.8946 13.4804 32 13.7348 32 14V30C32 30.2652 31.8946 30.5196 31.7071 30.7071C31.5196 30.8946 31.2652 31 31 31H13C12.7348 31 12.4804 30.8946 12.2929 30.7071C12.1054 30.5196 12 30.2652 12 30V14C12 13.7348 12.1054 13.4804 12.2929 13.2929C12.4804 13.1054 12.7348 13 13 13ZM30 20H14V29H30V20ZM15 16V18H17V16H15ZM19 16V18H21V16H19Z" fill="white"/>
</svg>
