<svg width="24" height="20" viewBox="0 0 24 20" fill="none" xmlns="http://www.w3.org/2000/svg">
<path d="M12.0544 1.66663C17.4479 1.66663 21.8217 4.98163 21.8217 9.07413C21.821 10.3018 21.2489 11.479 20.2314 12.347C19.2138 13.215 17.8339 13.7029 16.395 13.7033H14.4748C13.5742 13.7033 12.8466 14.3241 12.8466 15.0925C12.8466 15.4441 13.0097 15.7683 13.2587 16.0091C13.5195 16.2591 13.6826 16.5833 13.6826 16.9441C13.6826 17.7133 12.9335 18.3333 12.0544 18.3333C6.66091 18.3333 2.28711 14.6016 2.28711 9.99996C2.28711 5.39829 6.66091 1.66663 12.0544 1.66663ZM7.65913 9.99996C8.0477 9.99996 8.42035 9.86826 8.69511 9.63384C8.96987 9.39942 9.12423 9.08148 9.12423 8.74996C9.12423 8.41844 8.96987 8.1005 8.69511 7.86608C8.42035 7.63166 8.0477 7.49996 7.65913 7.49996C7.27057 7.49996 6.89791 7.63166 6.62315 7.86608C6.34839 8.1005 6.19404 8.41844 6.19404 8.74996C6.19404 9.08148 6.34839 9.39942 6.62315 9.63384C6.89791 9.86826 7.27057 9.99996 7.65913 9.99996ZM16.4497 9.99996C16.8383 9.99996 17.2109 9.86826 17.4857 9.63384C17.7605 9.39942 17.9148 9.08148 17.9148 8.74996C17.9148 8.41844 17.7605 8.1005 17.4857 7.86608C17.2109 7.63166 16.8383 7.49996 16.4497 7.49996C16.0611 7.49996 15.6885 7.63166 15.4137 7.86608C15.139 8.1005 14.9846 8.41844 14.9846 8.74996C14.9846 9.08148 15.139 9.39942 15.4137 9.63384C15.6885 9.86826 16.0611 9.99996 16.4497 9.99996ZM12.0544 7.49996C12.443 7.49996 12.8156 7.36826 13.0904 7.13384C13.3652 6.89942 13.5195 6.58148 13.5195 6.24996C13.5195 5.91844 13.3652 5.6005 13.0904 5.36608C12.8156 5.13166 12.443 4.99996 12.0544 4.99996C11.6659 4.99996 11.2932 5.13166 11.0184 5.36608C10.7437 5.6005 10.5893 5.91844 10.5893 6.24996C10.5893 6.58148 10.7437 6.89942 11.0184 7.13384C11.2932 7.36826 11.6659 7.49996 12.0544 7.49996Z" fill="#B4C0D4"/>
</svg>
