<svg width="16" height="16" viewBox="0 0 16 16" fill="none" xmlns="http://www.w3.org/2000/svg">
<path d="M7.99998 14.6666C4.31798 14.6666 1.33331 11.6819 1.33331 7.99992C1.33331 4.31792 4.31798 1.33325 7.99998 1.33325C11.682 1.33325 14.6666 4.31792 14.6666 7.99992C14.6666 11.6819 11.682 14.6666 7.99998 14.6666ZM7.99998 13.3333C9.41447 13.3333 10.771 12.7713 11.7712 11.7712C12.7714 10.771 13.3333 9.41441 13.3333 7.99992C13.3333 6.58543 12.7714 5.22888 11.7712 4.22868C10.771 3.22849 9.41447 2.66659 7.99998 2.66659C6.58549 2.66659 5.22894 3.22849 4.22874 4.22868C3.22855 5.22888 2.66665 6.58543 2.66665 7.99992C2.66665 9.41441 3.22855 10.771 4.22874 11.7712C5.22894 12.7713 6.58549 13.3333 7.99998 13.3333ZM5.66665 9.33325H9.33331C9.42172 9.33325 9.5065 9.29813 9.56902 9.23562C9.63153 9.17311 9.66665 9.08832 9.66665 8.99992C9.66665 8.91151 9.63153 8.82673 9.56902 8.76422C9.5065 8.7017 9.42172 8.66659 9.33331 8.66659H6.66665C6.22462 8.66659 5.8007 8.49099 5.48814 8.17843C5.17557 7.86587 4.99998 7.44195 4.99998 6.99992C4.99998 6.55789 5.17557 6.13397 5.48814 5.82141C5.8007 5.50885 6.22462 5.33325 6.66665 5.33325H7.33331V3.99992H8.66665V5.33325H10.3333V6.66659H6.66665C6.57824 6.66659 6.49346 6.7017 6.43094 6.76422C6.36843 6.82673 6.33331 6.91151 6.33331 6.99992C6.33331 7.08832 6.36843 7.17311 6.43094 7.23562C6.49346 7.29813 6.57824 7.33325 6.66665 7.33325H9.33331C9.77534 7.33325 10.1993 7.50885 10.5118 7.82141C10.8244 8.13397 11 8.55789 11 8.99992C11 9.44195 10.8244 9.86587 10.5118 10.1784C10.1993 10.491 9.77534 10.6666 9.33331 10.6666H8.66665V11.9999H7.33331V10.6666H5.66665V9.33325Z" fill="#687693"/>
</svg>
