<svg width="44" height="44" viewBox="0 0 44 44" fill="none" xmlns="http://www.w3.org/2000/svg">
<circle cx="22" cy="22" r="22" fill="#73ABFF"/>
<path d="M22.0013 13.667C26.6013 13.667 30.3346 17.4003 30.3346 22.0003C30.3346 26.6003 26.6013 30.3337 22.0013 30.3337C17.4013 30.3337 13.668 26.6003 13.668 22.0003C13.668 17.4003 17.4013 13.667 22.0013 13.667ZM17.0205 24.847C18.2438 26.672 20.0805 27.8337 22.1346 27.8337C24.188 27.8337 26.0255 26.6728 27.248 24.847C25.8611 23.5508 24.0329 22.831 22.1346 22.8337C20.2361 22.8308 18.4076 23.5506 17.0205 24.847ZM22.0013 21.167C22.6643 21.167 23.3002 20.9036 23.7691 20.4348C24.2379 19.9659 24.5013 19.33 24.5013 18.667C24.5013 18.004 24.2379 17.3681 23.7691 16.8992C23.3002 16.4304 22.6643 16.167 22.0013 16.167C21.3383 16.167 20.7024 16.4304 20.2335 16.8992C19.7647 17.3681 19.5013 18.004 19.5013 18.667C19.5013 19.33 19.7647 19.9659 20.2335 20.4348C20.7024 20.9036 21.3383 21.167 22.0013 21.167Z" fill="white"/>
</svg>
