<svg width="48" height="48" viewBox="0 0 48 48" fill="none" xmlns="http://www.w3.org/2000/svg">
<path d="M37.9119 39.6C35.1369 34.7625 29.9619 31.5 23.9994 31.5C18.0369 31.5 12.8619 34.7625 10.0869 39.6C18.0744 46.5375 29.9244 46.5375 37.9119 39.6Z" fill="white"/>
<path d="M24 26.25C28.1421 26.25 31.5 22.8921 31.5 18.75C31.5 14.6079 28.1421 11.25 24 11.25C19.8579 11.25 16.5 14.6079 16.5 18.75C16.5 22.8921 19.8579 26.25 24 26.25Z" fill="white"/>
<path d="M24 27.375C19.2375 27.375 15.375 23.5125 15.375 18.75C15.375 13.9875 19.2375 10.125 24 10.125C28.7625 10.125 32.625 13.9875 32.625 18.75C32.625 23.5125 28.7625 27.375 24 27.375ZM24 12.375C20.475 12.375 17.625 15.225 17.625 18.75C17.625 22.275 20.475 25.125 24 25.125C27.525 25.125 30.375 22.275 30.375 18.75C30.375 15.225 27.525 12.375 24 12.375Z" fill="#333D54"/>
<path d="M34.6488 36.7125C34.3863 36.7125 34.1238 36.6 33.8988 36.4125C31.1988 33.975 27.6738 32.625 23.9988 32.625C21.3363 32.625 18.7113 33.3375 16.4238 34.6875C15.8988 34.9875 15.1863 34.8375 14.8863 34.3125C14.5863 33.7875 14.7363 33.075 15.2613 32.775C17.8863 31.2 20.9238 30.375 23.9988 30.375C28.2363 30.375 32.2863 31.9125 35.3988 34.725C35.8488 35.1375 35.8863 35.85 35.4738 36.3C35.2863 36.5625 34.9488 36.7125 34.6488 36.7125Z" fill="#333D54"/>
<path d="M34.0873 11.0626C33.5248 11.0626 33.0373 10.6501 32.9623 10.0876C32.8873 9.48762 33.3373 8.92512 33.9373 8.85012L37.3498 8.43762L37.1998 5.25012C37.1623 4.61262 37.6498 4.08762 38.2498 4.05012C38.8873 4.01262 39.4123 4.50012 39.4498 5.10012L39.7123 9.33762C39.7498 9.93762 39.2998 10.4626 38.7373 10.5376L34.2373 11.0626C34.1998 11.0626 34.1248 11.0626 34.0873 11.0626Z" fill="#73ABFF"/>
<path d="M23.9996 45.7502C18.4121 45.7502 12.8621 43.6127 8.62461 39.3752C8.17461 38.9252 8.17461 38.2127 8.62461 37.8002C9.07461 37.3502 9.78711 37.3502 10.1996 37.8002C17.8121 45.4127 30.1871 45.4127 37.7621 37.8002C43.4996 32.0627 45.0746 23.5502 41.8121 16.1252C41.5496 15.5627 41.8121 14.8877 42.3746 14.6252C42.9371 14.3627 43.6121 14.6252 43.8746 15.1877C47.5121 23.4752 45.7496 32.9627 39.3371 39.3377C35.1371 43.6127 29.5871 45.7502 23.9996 45.7502Z" fill="#73ABFF"/>
<path d="M5.06203 33.3377C4.61203 33.3377 4.19953 33.0752 4.01203 32.6627C0.449525 24.4127 2.24953 14.9627 8.62453 8.62517C17.0995 0.150171 30.8995 0.150171 39.3745 8.62517C39.8245 9.07517 39.8245 9.78767 39.3745 10.2002C38.9245 10.6502 38.212 10.6502 37.7995 10.2002C30.187 2.62517 17.812 2.62517 10.1995 10.2002C4.49953 15.9002 2.88703 24.3752 6.11203 31.7627C6.37453 32.3252 6.11203 33.0002 5.51203 33.2252C5.36203 33.3002 5.21203 33.3377 5.06203 33.3377Z" fill="#73ABFF"/>
<path d="M9.67484 43.9501C9.07484 43.9501 8.58734 43.5001 8.54984 42.9001L8.28734 38.6626C8.24984 38.0626 8.69984 37.5376 9.26234 37.4626L13.7623 36.9376C14.3623 36.8626 14.9248 37.3126 14.9998 37.9126C15.0748 38.5126 14.6248 39.0751 14.0248 39.1501L10.6123 39.5626L10.7998 42.7501C10.8373 43.3876 10.3498 43.9126 9.74984 43.9501C9.71234 43.9501 9.67484 43.9501 9.67484 43.9501Z" fill="#73ABFF"/>
</svg>
