<svg width="48" height="48" viewBox="0 0 48 48" fill="none" xmlns="http://www.w3.org/2000/svg">
<g clip-path="url(#clip0)">
<path d="M37.9129 39.6C35.1379 34.7625 29.9629 31.5 24.0004 31.5C18.0379 31.5 12.8629 34.7625 10.0879 39.6L10.1254 40.875H37.8754L37.9129 39.6Z" fill="white"/>
<path d="M43.1783 45.0533C46.1072 42.1243 46.1072 37.3757 43.1783 34.4467C40.2494 31.5178 35.5007 31.5178 32.5718 34.4467C29.6429 37.3757 29.6429 42.1243 32.5718 45.0533C35.5007 47.9822 40.2494 47.9822 43.1783 45.0533Z" fill="#73ABFF"/>
<path d="M40.4629 40.875H35.2129C34.5754 40.875 34.0879 40.3875 34.0879 39.75C34.0879 39.1125 34.5754 38.625 35.2129 38.625H40.4629C41.1004 38.625 41.5879 39.1125 41.5879 39.75C41.5879 40.3875 41.1004 40.875 40.4629 40.875Z" fill="white"/>
<path d="M37.8379 43.5C37.2004 43.5 36.7129 43.0125 36.7129 42.375V37.125C36.7129 36.4875 37.2004 36 37.8379 36C38.4754 36 38.9629 36.4875 38.9629 37.125V42.375C38.9629 43.0125 38.4754 43.5 37.8379 43.5Z" fill="white"/>
<path d="M29.55 33.6375C29.4375 33.6375 29.2875 33.6 29.175 33.5625C27.525 32.9625 25.8 32.625 24 32.625C23.3625 32.625 22.875 32.1375 22.875 31.5C22.875 30.8625 23.3625 30.375 24 30.375C26.0625 30.375 28.05 30.75 29.9625 31.425C30.5625 31.65 30.825 32.2875 30.6375 32.8875C30.45 33.3375 30 33.6375 29.55 33.6375Z" fill="#445069"/>
<path d="M10.0879 40.725C9.9004 40.725 9.7129 40.6875 9.5254 40.575C9.0004 40.275 8.8129 39.6 9.1129 39.0375C12.1504 33.7125 17.8504 30.375 24.0004 30.375C24.6379 30.375 25.1254 30.8625 25.1254 31.5C25.1254 32.1375 24.6379 32.625 24.0004 32.625C18.6754 32.625 13.7254 35.5125 11.0629 40.1625C10.8754 40.5 10.5004 40.725 10.0879 40.725Z" fill="#445069"/>
<path d="M24 26.25C28.1421 26.25 31.5 22.8921 31.5 18.75C31.5 14.6079 28.1421 11.25 24 11.25C19.8579 11.25 16.5 14.6079 16.5 18.75C16.5 22.8921 19.8579 26.25 24 26.25Z" fill="white"/>
<path d="M24 27.375C19.2375 27.375 15.375 23.5125 15.375 18.75C15.375 13.9875 19.2375 10.125 24 10.125C28.7625 10.125 32.625 13.9875 32.625 18.75C32.625 23.5125 28.7625 27.375 24 27.375ZM24 12.375C20.475 12.375 17.625 15.225 17.625 18.75C17.625 22.275 20.475 25.125 24 25.125C27.525 25.125 30.375 22.275 30.375 18.75C30.375 15.225 27.525 12.375 24 12.375Z" fill="#445069"/>
</g>
<defs>
<clipPath id="clip0">
<rect width="48" height="48" fill="white"/>
</clipPath>
</defs>
</svg>
