<svg width="16" height="16" viewBox="0 0 16 16" fill="none" xmlns="http://www.w3.org/2000/svg">
<path d="M5.79071 2.66659L7.52871 0.928589C7.65373 0.803609 7.82327 0.733398 8.00004 0.733398C8.17682 0.733398 8.34636 0.803609 8.47138 0.928589L10.2094 2.66659H12.6667C12.8435 2.66659 13.0131 2.73683 13.1381 2.86185C13.2631 2.98688 13.3334 3.15645 13.3334 3.33326V5.79059L15.0714 7.52859C15.1964 7.65361 15.2666 7.82315 15.2666 7.99992C15.2666 8.1767 15.1964 8.34624 15.0714 8.47126L13.3334 10.2093V12.6666C13.3334 12.8434 13.2631 13.013 13.1381 13.138C13.0131 13.263 12.8435 13.3333 12.6667 13.3333H10.2094L8.47138 15.0713C8.34636 15.1962 8.17682 15.2664 8.00004 15.2664C7.82327 15.2664 7.65373 15.1962 7.52871 15.0713L5.79071 13.3333H3.33338C3.15657 13.3333 2.987 13.263 2.86197 13.138C2.73695 13.013 2.66671 12.8434 2.66671 12.6666V10.2093L0.928711 8.47126C0.803731 8.34624 0.733521 8.1767 0.733521 7.99992C0.733521 7.82315 0.803731 7.65361 0.928711 7.52859L2.66671 5.79059V3.33326C2.66671 3.15645 2.73695 2.98688 2.86197 2.86185C2.987 2.73683 3.15657 2.66659 3.33338 2.66659H5.79071ZM4.00004 3.99992V6.34326L2.34338 7.99992L4.00004 9.65659V11.9999H6.34338L8.00004 13.6566L9.65671 11.9999H12V9.65659L13.6567 7.99992L12 6.34326V3.99992H9.65671L8.00004 2.34326L6.34338 3.99992H4.00004ZM8.00004 10.6666C7.2928 10.6666 6.61452 10.3856 6.11443 9.88554C5.61433 9.38544 5.33338 8.70717 5.33338 7.99992C5.33338 7.29268 5.61433 6.6144 6.11443 6.1143C6.61452 5.61421 7.2928 5.33326 8.00004 5.33326C8.70729 5.33326 9.38557 5.61421 9.88566 6.1143C10.3858 6.6144 10.6667 7.29268 10.6667 7.99992C10.6667 8.70717 10.3858 9.38544 9.88566 9.88554C9.38557 10.3856 8.70729 10.6666 8.00004 10.6666ZM8.00004 9.33325C8.35367 9.33325 8.6928 9.19278 8.94285 8.94273C9.1929 8.69268 9.33338 8.35354 9.33338 7.99992C9.33338 7.6463 9.1929 7.30716 8.94285 7.05711C8.6928 6.80707 8.35367 6.66659 8.00004 6.66659C7.64642 6.66659 7.30728 6.80707 7.05724 7.05711C6.80719 7.30716 6.66671 7.6463 6.66671 7.99992C6.66671 8.35354 6.80719 8.69268 7.05724 8.94273C7.30728 9.19278 7.64642 9.33325 8.00004 9.33325Z" fill="#687693"/>
</svg>
