<svg width="16" height="16" viewBox="0 0 16 16" fill="none" xmlns="http://www.w3.org/2000/svg">
<path d="M7.99998 14.6667C4.31798 14.6667 1.33331 11.682 1.33331 8C1.33331 5.01467 3.29531 2.488 5.99998 1.63867V3.05467C4.85393 3.52003 3.90518 4.36914 3.31602 5.45675C2.72686 6.54435 2.5339 7.80287 2.77015 9.01703C3.0064 10.2312 3.65717 11.3255 4.61116 12.1129C5.56514 12.9002 6.76305 13.3316 7.99998 13.3333C9.0625 13.3333 10.1008 13.016 10.9819 12.4222C11.8629 11.8283 12.5466 10.9849 12.9453 10H14.3613C13.512 12.7047 10.9853 14.6667 7.99998 14.6667ZM14.6333 8.66667H7.33331V1.36667C7.55265 1.34467 7.77531 1.33334 7.99998 1.33334C11.682 1.33334 14.6666 4.318 14.6666 8C14.6666 8.22467 14.6553 8.44734 14.6333 8.66667ZM8.66665 2.708V7.33334H13.292C13.1436 6.15841 12.6086 5.06623 11.7712 4.22883C10.9338 3.39143 9.84158 2.85639 8.66665 2.708Z" fill="#687693"/>
</svg>
