<svg width="34" height="33" viewBox="0 0 34 33" fill="none" xmlns="http://www.w3.org/2000/svg">
<rect x="0.635742" y="16" width="23.1417" height="23.1417" rx="8" transform="rotate(-45 0.635742 16)" fill="#97A4BD"/>
<path d="M20.688 16.2079L15.3885 19.7409C15.3509 19.766 15.3071 19.7803 15.2619 19.7825C15.2168 19.7847 15.1719 19.7745 15.132 19.7532C15.0921 19.7318 15.0588 19.7001 15.0356 19.6613C15.0123 19.6225 15 19.5781 15 19.5329V12.4669C15 12.4217 15.0123 12.3773 15.0356 12.3385C15.0588 12.2997 15.0921 12.268 15.132 12.2466C15.1719 12.2253 15.2168 12.2152 15.2619 12.2173C15.3071 12.2195 15.3509 12.2339 15.3885 12.2589L20.688 15.7919C20.7222 15.8147 20.7503 15.8457 20.7697 15.882C20.7891 15.9182 20.7993 15.9588 20.7993 15.9999C20.7993 16.0411 20.7891 16.0816 20.7697 16.1179C20.7503 16.1542 20.7222 16.1851 20.688 16.2079Z" fill="white"/>
</svg>
