<svg width="12" height="12" viewBox="0 0 12 12" fill="none" xmlns="http://www.w3.org/2000/svg">
<path fill-rule="evenodd" clip-rule="evenodd" d="M6.12501 0C5.64175 0 5.25 0.391754 5.25 0.875007V5H1.875C1.32272 5 0.875 5.44772 0.875 6C0.875 6.55228 1.32272 7 1.875 7H5.25V11.125C5.25 11.6082 5.64175 12 6.12501 12C6.60826 12 7.00002 11.6082 7.00002 11.125V7H10.375C10.9273 7 11.375 6.55228 11.375 6C11.375 5.44772 10.9273 5 10.375 5H7.00002V0.875008C7.00002 0.391754 6.60826 0 6.12501 0Z" fill="#C4CFE1"/>
</svg>
