<svg width="28" height="28" viewBox="0 0 28 28" fill="none" xmlns="http://www.w3.org/2000/svg">
<path d="M27 14C27 21.1797 21.1797 27 14 27C6.8203 27 1 21.1797 1 14C1 6.8203 6.8203 1 14 1C21.1797 1 27 6.8203 27 14Z" fill="white" stroke="#DBE4F3" stroke-width="2"/>
<path fill-rule="evenodd" clip-rule="evenodd" d="M14 8C13.4477 8 13 8.44772 13 9V13H9C8.44772 13 8 13.4477 8 14C8 14.5523 8.44772 15 9 15H13V19C13 19.5523 13.4477 20 14 20C14.5523 20 15 19.5523 15 19V15H19C19.5523 15 20 14.5523 20 14C20 13.4477 19.5523 13 19 13H15V9C15 8.44772 14.5523 8 14 8Z" fill="#D5DFEF"/>
</svg>
