<svg width="16" height="16" viewBox="0 0 16 16" fill="none" xmlns="http://www.w3.org/2000/svg">
<g clip-path="url(#clip0)">
<path fill-rule="evenodd" clip-rule="evenodd" d="M1.6 8C1.6 11.5346 4.46538 14.4 8 14.4C11.5346 14.4 14.4 11.5346 14.4 8C14.4 4.46538 11.5346 1.6 8 1.6C4.46538 1.6 1.6 4.46538 1.6 8ZM8 16C3.58172 16 0 12.4183 0 8C0 3.58172 3.58172 0 8 0C12.4183 0 16 3.58172 16 8C16 12.4183 12.4183 16 8 16Z" fill="#98ADCF"/>
<path fill-rule="evenodd" clip-rule="evenodd" d="M4.53334 8.16174C4.53334 7.71992 4.89151 7.36174 5.33334 7.36174L10.9902 7.36174C11.432 7.36174 11.7902 7.71992 11.7902 8.16174C11.7902 8.60357 11.432 8.96174 10.9902 8.96174L5.33334 8.96174C4.89151 8.96174 4.53334 8.60357 4.53334 8.16174Z" fill="#98ADCF"/>
<path fill-rule="evenodd" clip-rule="evenodd" d="M8.16176 4.53332C8.60359 4.53332 8.96176 4.89149 8.96176 5.33332V10.9902C8.96176 11.432 8.60359 11.7902 8.16176 11.7902C7.71994 11.7902 7.36176 11.432 7.36176 10.9902V5.33332C7.36176 4.89149 7.71994 4.53332 8.16176 4.53332Z" fill="#98ADCF"/>
</g>
<defs>
<clipPath id="clip0">
<rect width="16" height="16" fill="white" transform="translate(16) rotate(90)"/>
</clipPath>
</defs>
</svg>
