<svg width="8" height="8" viewBox="0 0 8 8" fill="none" xmlns="http://www.w3.org/2000/svg">
<path d="M7.53639 4.06655C7.53639 4.39989 7.26973 4.66655 6.93639 4.66655H4.53639V6.93322C4.53639 7.26655 4.26973 7.53322 3.93639 7.53322C3.60306 7.53322 3.33639 7.26655 3.33639 6.93322V4.66655H1.06973C0.736393 4.66655 0.469727 4.39989 0.469727 4.06655C0.469727 3.73322 0.736393 3.46655 1.06973 3.46655H3.33639V1.06655C3.33639 0.733219 3.60306 0.466553 3.93639 0.466553C4.26973 0.466553 4.53639 0.733219 4.53639 1.06655V3.46655H6.93639C7.26973 3.46655 7.53639 3.73322 7.53639 4.06655Z" fill="#4489F2"/>
</svg>
