<svg width="20" height="20" viewBox="0 0 20 20" fill="none" xmlns="http://www.w3.org/2000/svg">
<path d="M2.5 5.83333L9.5375 1.14167C9.67444 1.0503 9.83538 1.00154 10 1.00154C10.1646 1.00154 10.3256 1.0503 10.4625 1.14167L17.5 5.83333V17.5C17.5 17.721 17.4122 17.933 17.2559 18.0893C17.0996 18.2455 16.8877 18.3333 16.6667 18.3333H3.33333C3.11232 18.3333 2.90036 18.2455 2.74408 18.0893C2.5878 17.933 2.5 17.721 2.5 17.5V5.83333ZM4.16667 6.725V16.6667H15.8333V6.725L10 2.83667L4.16667 6.725ZM10 9.16667C9.55797 9.16667 9.13405 8.99107 8.82149 8.67851C8.50893 8.36595 8.33333 7.94203 8.33333 7.5C8.33333 7.05797 8.50893 6.63405 8.82149 6.32149C9.13405 6.00893 9.55797 5.83333 10 5.83333C10.442 5.83333 10.866 6.00893 11.1785 6.32149C11.4911 6.63405 11.6667 7.05797 11.6667 7.5C11.6667 7.94203 11.4911 8.36595 11.1785 8.67851C10.866 8.99107 10.442 9.16667 10 9.16667Z" fill="#B4C0D4"/>
</svg>
