<svg width="20" height="20" viewBox="0 0 20 20" fill="none" xmlns="http://www.w3.org/2000/svg">
<path d="M9.99996 18.3332C5.39746 18.3332 1.66663 14.6023 1.66663 9.99984C1.66663 5.39734 5.39746 1.6665 9.99996 1.6665C14.6025 1.6665 18.3333 5.39734 18.3333 9.99984C18.3333 14.6023 14.6025 18.3332 9.99996 18.3332ZM9.16663 12.4998V14.1665H10.8333V12.4998H9.16663ZM10.8333 11.129C11.503 10.9272 12.078 10.4915 12.4534 9.90129C12.8289 9.31112 12.9799 8.60572 12.8789 7.91356C12.7779 7.2214 12.4317 6.58854 11.9033 6.13022C11.3749 5.6719 10.6994 5.41862 9.99996 5.4165C9.32567 5.41645 8.67218 5.64997 8.15062 6.07733C7.62906 6.5047 7.27163 7.09953 7.13913 7.76067L8.77413 8.08817C8.82053 7.85603 8.93189 7.64184 9.09527 7.47052C9.25864 7.2992 9.4673 7.17779 9.69698 7.12043C9.92666 7.06306 10.1679 7.0721 10.3926 7.14648C10.6174 7.22086 10.8164 7.35754 10.9665 7.5406C11.1166 7.72366 11.2116 7.94558 11.2405 8.18054C11.2694 8.4155 11.231 8.65384 11.1298 8.86782C11.0285 9.08181 10.8686 9.26264 10.6686 9.38928C10.4686 9.51592 10.2367 9.58316 9.99996 9.58317C9.77895 9.58317 9.56698 9.67097 9.4107 9.82725C9.25442 9.98353 9.16663 10.1955 9.16663 10.4165V11.6665H10.8333V11.129Z" fill="#B4C0D4"/>
</svg>
