<svg width="16" height="16" viewBox="0 0 16 16" fill="none" xmlns="http://www.w3.org/2000/svg">
<path d="M7.9987 14.6663C4.3167 14.6663 1.33203 11.6817 1.33203 7.99967C1.33203 4.31767 4.3167 1.33301 7.9987 1.33301C11.6807 1.33301 14.6654 4.31767 14.6654 7.99967C14.6654 11.6817 11.6807 14.6663 7.9987 14.6663ZM11.212 11.3837C12.0168 10.6209 12.5236 9.59655 12.6418 8.49408C12.76 7.39161 12.4818 6.28308 11.857 5.36708C11.2322 4.45108 10.3017 3.78747 9.23213 3.49513C8.16258 3.20279 7.02388 3.30083 6.02003 3.77167L6.67003 4.94167C7.17732 4.7212 7.73149 4.63043 8.28261 4.67754C8.83372 4.72465 9.36445 4.90816 9.82695 5.21154C10.2895 5.51491 10.6692 5.92861 10.9319 6.41535C11.1947 6.90208 11.3322 7.44655 11.332 7.99967H9.33203L11.212 11.3837ZM9.97737 12.2277L9.32736 11.0577C8.82008 11.2781 8.2659 11.3689 7.71479 11.3218C7.16368 11.2747 6.63295 11.0912 6.17044 10.7878C5.70794 10.4844 5.3282 10.0707 5.06545 9.584C4.80271 9.09727 4.66521 8.5528 4.66536 7.99967H6.66536L4.78536 4.61567C3.98062 5.37843 3.47376 6.4028 3.35558 7.50527C3.2374 8.60774 3.51562 9.71627 4.14041 10.6323C4.76519 11.5483 5.69571 12.2119 6.76526 12.5042C7.83482 12.7966 8.97352 12.6985 9.97737 12.2277Z" fill="#97A4BD"/>
</svg>
