<svg width="136" height="136" viewBox="0 0 136 136" fill="none" xmlns="http://www.w3.org/2000/svg">
<circle cx="68" cy="68" r="65" stroke="#E8EEF9" stroke-width="2"/>
<path d="M6.32654 44.4972C1.33625 57.5922 0.643556 71.9357 4.34878 85.4506C8.054 98.9655 15.9648 110.95 26.9356 119.669C37.9064 128.388 51.3677 133.389 65.3702 133.948C79.3727 134.506 93.1894 130.593 104.82 122.775C116.45 114.957 125.29 103.641 130.06 90.4636C134.829 77.2866 135.281 62.9335 131.349 49.4828C127.417 36.032 119.306 24.1818 108.191 15.6483C97.075 7.11467 83.5316 2.34067 69.5217 2.01758" stroke="#8C95F8" stroke-width="3" stroke-linecap="round"/>
<path d="M53.5861 61.2C52.5728 61.2 51.6661 61.0333 50.8661 60.7C50.0794 60.3533 49.4661 59.86 49.0261 59.22C48.5861 58.58 48.3661 57.8333 48.3661 56.98C48.3661 56.1933 48.5594 55.5067 48.9461 54.92C49.3461 54.32 49.8794 53.86 50.5461 53.54C50.0128 53.2333 49.5994 52.8333 49.3061 52.34C49.0128 51.8333 48.8661 51.24 48.8661 50.56C48.8661 49.4 49.2994 48.4867 50.1661 47.82C51.0328 47.14 52.1728 46.8 53.5861 46.8C54.9994 46.8 56.1328 47.1333 56.9861 47.8C57.8528 48.4667 58.2861 49.3867 58.2861 50.56C58.2861 51.2267 58.1394 51.8133 57.8461 52.32C57.5528 52.8133 57.1461 53.22 56.6261 53.54C57.2928 53.86 57.8194 54.32 58.2061 54.92C58.6061 55.5067 58.8061 56.2 58.8061 57C58.8061 57.8533 58.5861 58.6 58.1461 59.24C57.7061 59.8667 57.0861 60.3533 56.2861 60.7C55.4994 61.0333 54.5994 61.2 53.5861 61.2ZM53.5861 52.84C54.3994 52.8133 55.0861 52.6 55.6461 52.2C56.2061 51.8 56.4861 51.2667 56.4861 50.6C56.4861 49.92 56.2061 49.38 55.6461 48.98C55.0994 48.5667 54.4128 48.36 53.5861 48.36C52.7461 48.36 52.0528 48.5667 51.5061 48.98C50.9594 49.38 50.6861 49.92 50.6861 50.6C50.6861 51.28 50.9594 51.8267 51.5061 52.24C52.0528 52.64 52.7461 52.84 53.5861 52.84ZM53.5861 59.64C54.5328 59.64 55.3194 59.4 55.9461 58.92C56.5861 58.44 56.9061 57.8 56.9061 57C56.9061 56.2 56.5861 55.56 55.9461 55.08C55.3194 54.6 54.5328 54.36 53.5861 54.36C52.6261 54.36 51.8261 54.6 51.1861 55.08C50.5594 55.56 50.2461 56.2 50.2461 57C50.2461 57.8 50.5594 58.44 51.1861 58.92C51.8261 59.4 52.6261 59.64 53.5861 59.64ZM66.2419 61.2C64.5219 61.2 63.2619 60.7 62.4619 59.7C61.6752 58.6867 61.2552 57.3667 61.2019 55.74L61.1819 54.02L61.2019 52.24C61.2419 50.6267 61.6619 49.32 62.4619 48.32C63.2752 47.3067 64.5352 46.8 66.2419 46.8C67.9619 46.8 69.2219 47.3067 70.0219 48.32C70.8352 49.32 71.2619 50.6267 71.3019 52.24C71.3152 52.6133 71.3219 53.2067 71.3219 54.02C71.3219 54.8067 71.3152 55.38 71.3019 55.74C71.2485 57.3667 70.8219 58.6867 70.0219 59.7C69.2352 60.7 67.9752 61.2 66.2419 61.2ZM66.2419 59.54C67.2685 59.54 68.0419 59.2 68.5619 58.52C69.0819 57.84 69.3552 56.88 69.3819 55.64C69.3952 55.2533 69.4019 54.7 69.4019 53.98C69.4019 53.2467 69.3952 52.7 69.3819 52.34C69.3552 51.1133 69.0752 50.16 68.5419 49.48C68.0219 48.7867 67.2552 48.44 66.2419 48.44C65.2285 48.44 64.4619 48.7867 63.9419 49.48C63.4219 50.16 63.1485 51.1133 63.1219 52.34L63.1019 53.98L63.1219 55.64C63.1485 56.88 63.4219 57.84 63.9419 58.52C64.4619 59.2 65.2285 59.54 66.2419 59.54ZM76.4381 54.02C75.5715 54.02 74.8848 53.7933 74.3781 53.34C73.8848 52.8733 73.6181 52.2333 73.5781 51.42C73.5648 51.1933 73.5581 50.9 73.5581 50.54C73.5581 50.1533 73.5648 49.84 73.5781 49.6C73.6181 48.7733 73.8781 48.12 74.3581 47.64C74.8381 47.1467 75.5315 46.9 76.4381 46.9C77.3448 46.9 78.0381 47.1467 78.5181 47.64C79.0115 48.12 79.2781 48.7733 79.3181 49.6C79.3448 50.08 79.3581 50.3933 79.3581 50.54C79.3581 50.6733 79.3448 50.9667 79.3181 51.42C79.2781 52.2333 79.0048 52.8733 78.4981 53.34C77.9915 53.7933 77.3048 54.02 76.4381 54.02ZM74.7581 61C74.6381 61 74.5381 60.9667 74.4581 60.9C74.3781 60.82 74.3381 60.72 74.3381 60.6C74.3381 60.52 74.3648 60.4467 74.4181 60.38L84.2981 47.38C84.4048 47.2333 84.4981 47.1333 84.5781 47.08C84.6715 47.0267 84.7981 47 84.9581 47H85.5981C85.7181 47 85.8115 47.04 85.8781 47.12C85.9581 47.1867 85.9981 47.28 85.9981 47.4C85.9981 47.48 85.9715 47.5533 85.9181 47.62L76.0581 60.62C75.9515 60.7533 75.8515 60.8533 75.7581 60.92C75.6781 60.9733 75.5581 61 75.3981 61H74.7581ZM76.4381 52.8C76.9181 52.8 77.2715 52.66 77.4981 52.38C77.7248 52.1 77.8581 51.7533 77.8981 51.34C77.9248 50.86 77.9381 50.58 77.9381 50.5C77.9381 50.38 77.9248 50.1067 77.8981 49.68C77.8715 49.2667 77.7381 48.92 77.4981 48.64C77.2715 48.3467 76.9181 48.2 76.4381 48.2C75.9581 48.2 75.6048 48.3467 75.3781 48.64C75.1515 48.92 75.0248 49.2667 74.9981 49.68C74.9848 49.8933 74.9781 50.1667 74.9781 50.5C74.9781 50.82 74.9848 51.1 74.9981 51.34C75.0381 51.74 75.1648 52.0867 75.3781 52.38C75.6048 52.66 75.9581 52.8 76.4381 52.8ZM83.8781 61.12C83.0115 61.12 82.3248 60.8733 81.8181 60.38C81.3248 59.8867 81.0581 59.2333 81.0181 58.42C80.9915 58.02 80.9781 57.7533 80.9781 57.62C80.9781 57.4867 80.9915 57.1533 81.0181 56.62C81.0581 55.7933 81.3181 55.14 81.7981 54.66C82.2781 54.1667 82.9715 53.92 83.8781 53.92C84.7848 53.92 85.4781 54.1667 85.9581 54.66C86.4515 55.14 86.7181 55.7933 86.7581 56.62C86.7848 57.1 86.7981 57.4067 86.7981 57.54C86.7981 57.6733 86.7848 57.9667 86.7581 58.42C86.7181 59.2333 86.4448 59.8867 85.9381 60.38C85.4315 60.8733 84.7448 61.12 83.8781 61.12ZM83.8781 59.82C84.3581 59.82 84.7115 59.68 84.9381 59.4C85.1648 59.12 85.2981 58.7733 85.3381 58.36C85.3648 57.88 85.3781 57.5933 85.3781 57.5C85.3781 57.3933 85.3648 57.1267 85.3381 56.7C85.3115 56.2867 85.1781 55.94 84.9381 55.66C84.7115 55.3667 84.3581 55.22 83.8781 55.22C83.3981 55.22 83.0448 55.3667 82.8181 55.66C82.5915 55.94 82.4648 56.2867 82.4381 56.7C82.4248 56.9133 82.4181 57.18 82.4181 57.5C82.4181 57.8333 82.4248 58.12 82.4381 58.36C82.4648 58.76 82.5915 59.1067 82.8181 59.4C83.0448 59.68 83.3981 59.82 83.8781 59.82Z" fill="#151A25"/>
<path d="M35.056 85.12C33.992 85.12 33.18 84.832 32.62 84.256C32.068 83.672 31.772 82.876 31.732 81.868C31.724 81.652 31.72 81.3 31.72 80.812C31.72 80.316 31.724 79.956 31.732 79.732C31.772 78.724 32.068 77.932 32.62 77.356C33.18 76.772 33.992 76.48 35.056 76.48C35.768 76.48 36.372 76.608 36.868 76.864C37.364 77.112 37.736 77.44 37.984 77.848C38.24 78.256 38.38 78.692 38.404 79.156C38.404 79.228 38.376 79.288 38.32 79.336C38.272 79.376 38.212 79.396 38.14 79.396H37.54C37.46 79.396 37.396 79.376 37.348 79.336C37.3 79.296 37.264 79.228 37.24 79.132C37.104 78.516 36.856 78.084 36.496 77.836C36.144 77.588 35.664 77.464 35.056 77.464C33.664 77.464 32.94 78.24 32.884 79.792C32.876 80.008 32.872 80.34 32.872 80.788C32.872 81.236 32.876 81.576 32.884 81.808C32.94 83.352 33.664 84.124 35.056 84.124C35.656 84.124 36.136 84 36.496 83.752C36.856 83.504 37.104 83.076 37.24 82.468C37.264 82.372 37.3 82.304 37.348 82.264C37.396 82.224 37.46 82.204 37.54 82.204H38.14C38.212 82.204 38.272 82.228 38.32 82.276C38.376 82.316 38.404 82.372 38.404 82.444C38.38 82.908 38.24 83.344 37.984 83.752C37.736 84.16 37.364 84.492 36.868 84.748C36.372 84.996 35.768 85.12 35.056 85.12ZM43.5165 85.12C42.4765 85.12 41.6725 84.848 41.1045 84.304C40.5365 83.752 40.2365 82.924 40.2045 81.82C40.1965 81.58 40.1925 81.24 40.1925 80.8C40.1925 80.36 40.1965 80.024 40.2045 79.792C40.2365 78.704 40.5445 77.88 41.1285 77.32C41.7205 76.76 42.5165 76.48 43.5165 76.48C44.5165 76.48 45.3085 76.76 45.8925 77.32C46.4765 77.88 46.7845 78.704 46.8165 79.792C46.8325 80.256 46.8405 80.592 46.8405 80.8C46.8405 81 46.8325 81.34 46.8165 81.82C46.7845 82.924 46.4845 83.752 45.9165 84.304C45.3565 84.848 44.5565 85.12 43.5165 85.12ZM43.5165 84.124C44.1565 84.124 44.6685 83.932 45.0525 83.548C45.4365 83.156 45.6445 82.56 45.6765 81.76C45.6925 81.28 45.7005 80.96 45.7005 80.8C45.7005 80.624 45.6925 80.304 45.6765 79.84C45.6445 79.04 45.4365 78.444 45.0525 78.052C44.6685 77.66 44.1565 77.464 43.5165 77.464C42.8765 77.464 42.3605 77.66 41.9685 78.052C41.5845 78.444 41.3805 79.04 41.3565 79.84C41.3485 80.072 41.3445 80.392 41.3445 80.8C41.3445 81.2 41.3485 81.52 41.3565 81.76C41.3805 82.56 41.5845 83.156 41.9685 83.548C42.3525 83.932 42.8685 84.124 43.5165 84.124ZM49.3701 85C49.2901 85 49.2221 84.976 49.1661 84.928C49.1181 84.872 49.0941 84.804 49.0941 84.724V76.888C49.0941 76.8 49.1181 76.732 49.1661 76.684C49.2141 76.628 49.2821 76.6 49.3701 76.6H49.9341C50.0781 76.6 50.1781 76.66 50.2341 76.78L52.7901 81.688L55.3701 76.78C55.4341 76.66 55.5301 76.6 55.6581 76.6H56.2221C56.3101 76.6 56.3781 76.628 56.4261 76.684C56.4741 76.732 56.4981 76.8 56.4981 76.888V84.724C56.4981 84.804 56.4701 84.872 56.4141 84.928C56.3661 84.976 56.3021 85 56.2221 85H55.6701C55.5901 85 55.5261 84.976 55.4781 84.928C55.4301 84.872 55.4061 84.804 55.4061 84.724V78.76L53.3541 82.732C53.2741 82.9 53.1461 82.984 52.9701 82.984H52.6101C52.4421 82.984 52.3141 82.9 52.2261 82.732L50.1861 78.76V84.724C50.1861 84.804 50.1581 84.872 50.1021 84.928C50.0541 84.976 49.9901 85 49.9101 85H49.3701ZM59.3538 85C59.2738 85 59.2098 84.976 59.1618 84.928C59.1138 84.872 59.0898 84.804 59.0898 84.724V76.888C59.0898 76.8 59.1138 76.732 59.1618 76.684C59.2098 76.628 59.2738 76.6 59.3538 76.6H62.3898C63.2938 76.6 64.0018 76.82 64.5138 77.26C65.0338 77.692 65.2938 78.324 65.2938 79.156C65.2938 79.988 65.0338 80.62 64.5138 81.052C64.0018 81.484 63.2938 81.7 62.3898 81.7H60.2298V84.724C60.2298 84.804 60.2018 84.872 60.1458 84.928C60.0978 84.976 60.0338 85 59.9538 85H59.3538ZM62.3298 80.728C63.5378 80.728 64.1418 80.204 64.1418 79.156C64.1418 78.644 63.9898 78.252 63.6858 77.98C63.3898 77.708 62.9378 77.572 62.3298 77.572H60.2298V80.728H62.3298ZM67.5212 85C67.4412 85 67.3772 84.976 67.3292 84.928C67.2812 84.872 67.2572 84.804 67.2572 84.724V76.876C67.2572 76.796 67.2812 76.732 67.3292 76.684C67.3772 76.628 67.4412 76.6 67.5212 76.6H68.1212C68.2012 76.6 68.2652 76.628 68.3132 76.684C68.3612 76.732 68.3852 76.796 68.3852 76.876V83.992H72.3932C72.4812 83.992 72.5492 84.02 72.5972 84.076C72.6532 84.124 72.6812 84.188 72.6812 84.268V84.724C72.6812 84.804 72.6532 84.872 72.5972 84.928C72.5412 84.976 72.4732 85 72.3932 85H67.5212ZM74.7278 85C74.6478 85 74.5838 84.976 74.5358 84.928C74.4878 84.872 74.4638 84.804 74.4638 84.724V76.888C74.4638 76.8 74.4878 76.732 74.5358 76.684C74.5838 76.628 74.6478 76.6 74.7278 76.6H79.6598C79.7478 76.6 79.8158 76.628 79.8638 76.684C79.9198 76.732 79.9478 76.8 79.9478 76.888V77.32C79.9478 77.4 79.9198 77.464 79.8638 77.512C79.8158 77.56 79.7478 77.584 79.6598 77.584H75.5678V80.26H79.3958C79.4838 80.26 79.5518 80.288 79.5998 80.344C79.6558 80.392 79.6838 80.46 79.6838 80.548V80.956C79.6838 81.036 79.6558 81.104 79.5998 81.16C79.5518 81.208 79.4838 81.232 79.3958 81.232H75.5678V84.004H79.7558C79.8438 84.004 79.9118 84.032 79.9598 84.088C80.0158 84.136 80.0438 84.204 80.0438 84.292V84.724C80.0438 84.804 80.0158 84.872 79.9598 84.928C79.9038 84.976 79.8358 85 79.7558 85H74.7278ZM84.3214 85C84.2414 85 84.1734 84.976 84.1174 84.928C84.0694 84.872 84.0454 84.804 84.0454 84.724V77.632H81.7294C81.6494 77.632 81.5814 77.608 81.5254 77.56C81.4774 77.504 81.4534 77.436 81.4534 77.356V76.888C81.4534 76.8 81.4774 76.732 81.5254 76.684C81.5814 76.628 81.6494 76.6 81.7294 76.6H87.4894C87.5774 76.6 87.6454 76.628 87.6934 76.684C87.7414 76.732 87.7654 76.8 87.7654 76.888V77.356C87.7654 77.436 87.7374 77.504 87.6814 77.56C87.6334 77.608 87.5694 77.632 87.4894 77.632H85.1854V84.724C85.1854 84.804 85.1574 84.872 85.1014 84.928C85.0454 84.976 84.9774 85 84.8974 85H84.3214ZM89.8792 85C89.7992 85 89.7352 84.976 89.6872 84.928C89.6392 84.872 89.6152 84.804 89.6152 84.724V76.888C89.6152 76.8 89.6392 76.732 89.6872 76.684C89.7352 76.628 89.7992 76.6 89.8792 76.6H94.8112C94.8992 76.6 94.9672 76.628 95.0152 76.684C95.0712 76.732 95.0992 76.8 95.0992 76.888V77.32C95.0992 77.4 95.0712 77.464 95.0152 77.512C94.9672 77.56 94.8992 77.584 94.8112 77.584H90.7192V80.26H94.5472C94.6352 80.26 94.7032 80.288 94.7512 80.344C94.8072 80.392 94.8352 80.46 94.8352 80.548V80.956C94.8352 81.036 94.8072 81.104 94.7512 81.16C94.7032 81.208 94.6352 81.232 94.5472 81.232H90.7192V84.004H94.9072C94.9952 84.004 95.0632 84.032 95.1112 84.088C95.1672 84.136 95.1952 84.204 95.1952 84.292V84.724C95.1952 84.804 95.1672 84.872 95.1112 84.928C95.0552 84.976 94.9872 85 94.9072 85H89.8792ZM97.6248 85C97.5448 85 97.4808 84.976 97.4328 84.928C97.3848 84.872 97.3608 84.804 97.3608 84.724V76.888C97.3608 76.8 97.3848 76.732 97.4328 76.684C97.4808 76.628 97.5448 76.6 97.6248 76.6H100.337C101.545 76.6 102.417 76.872 102.953 77.416C103.489 77.952 103.765 78.764 103.781 79.852C103.789 80.084 103.793 80.396 103.793 80.788C103.793 81.18 103.789 81.496 103.781 81.736C103.765 82.496 103.641 83.116 103.409 83.596C103.185 84.068 102.829 84.42 102.341 84.652C101.853 84.884 101.205 85 100.397 85H97.6248ZM100.337 84.004C100.897 84.004 101.341 83.928 101.669 83.776C102.005 83.616 102.245 83.372 102.389 83.044C102.541 82.708 102.625 82.256 102.641 81.688C102.657 81.208 102.665 80.908 102.665 80.788C102.665 80.66 102.657 80.364 102.641 79.9C102.625 79.1 102.433 78.516 102.065 78.148C101.705 77.772 101.109 77.584 100.277 77.584H98.4888V84.004H100.337Z" fill="#7B89A6"/>
</svg>
