<svg width="44" height="44" viewBox="0 0 44 44" fill="none" xmlns="http://www.w3.org/2000/svg">
<circle cx="22" cy="22" r="22" fill="#717CEF"/>
<path d="M22.2606 27.1592C22.1006 27.0614 21.8994 27.0614 21.7394 27.1592L17.1478 29.9635C16.7683 30.1953 16.2977 29.8534 16.4009 29.4208L17.6491 24.1871C17.6926 24.0047 17.6304 23.8133 17.4881 23.6913L13.403 20.1921C13.0653 19.9028 13.2451 19.3495 13.6884 19.314L19.0505 18.8844C19.2374 18.8694 19.4003 18.7511 19.4723 18.578L21.5383 13.6101C21.7091 13.1994 22.2909 13.1994 22.4617 13.6101L24.5277 18.578C24.5997 18.7511 24.7625 18.8694 24.9494 18.8844L30.3124 19.314C30.7558 19.3495 30.9356 19.9028 30.5977 20.1922L26.512 23.6913C26.3695 23.8133 26.3073 24.0047 26.3508 24.1871L27.5991 29.4208C27.7023 29.8534 27.2317 30.1953 26.8521 29.9635L22.2606 27.1592Z" fill="white"/>
</svg>
