<svg width="250" height="250" viewBox="0 0 250 250" fill="none" xmlns="http://www.w3.org/2000/svg">
<path d="M250 0H0V250H250V0Z" fill="white"/>
<path d="M208.28 198.496C208.137 198.681 207.135 198.867 204.987 199.083C189.969 200.58 172.212 200.117 156.765 200.117C127.75 200.133 98.7168 199.808 69.7195 199.808C51.623 199.5 30.5552 198.697 48.4906 197.616C68.8782 196.381 90.9842 196.566 111.605 196.412C130.292 196.273 148.979 196.381 167.648 196.705C170.816 196.752 209.032 197.477 208.28 198.496Z" fill="#E8EEF9"/>
<path d="M81.5422 45.458H165.313C170.584 45.458 174.855 49.8122 174.855 55.1663V172.729C174.855 178.083 170.584 182.437 165.313 182.437H81.5422C76.2713 182.437 72.0005 178.083 72.0005 172.729V55.1663C72.0005 49.7913 76.2713 45.458 81.5422 45.458Z" fill="#E1E9F6"/>
<path d="M78.8546 181.687C75.0004 180.27 72.5421 176.645 72.5004 172.562C72.5004 172.145 72.5004 171.75 72.5004 171.333C72.5004 168.812 72.5004 166.291 72.5004 163.77C72.5004 154.02 72.5004 144.27 72.5004 134.52C72.5004 122.229 72.5004 109.937 72.5004 97.6454C72.5004 87.2704 72.5004 76.8954 72.5004 66.5412C72.5004 63.5412 72.5004 60.5621 72.5004 57.5621C72.5004 55.0412 72.4379 52.6246 73.7296 50.3121C74.8962 48.2287 76.8337 46.6454 79.1254 45.9787C79.7087 45.8121 79.6046 45.3954 79.0212 45.5621C75.0004 46.7079 71.9379 50.0829 71.5421 54.3121C71.4796 54.9162 71.5004 55.5204 71.5004 56.1246C71.5004 58.4787 71.5004 60.8329 71.5004 63.1871C71.5004 72.9162 71.5004 82.6454 71.5004 92.3746C71.5004 104.937 71.5004 117.479 71.5004 130.041C71.5004 140.52 71.5004 151 71.5004 161.479C71.5004 164.5 71.5004 167.5 71.5004 170.52C71.5004 173.312 71.5212 175.916 73.1879 178.375C74.3754 180.125 76.0629 181.416 78.0629 182.125C78.3129 182.229 79.2296 181.833 78.8546 181.687Z" fill="#B4C0D4"/>
<path d="M84.3542 45.458H168.125C173.396 45.458 177.667 49.8122 177.667 55.1663V172.729C177.667 178.083 173.396 182.437 168.125 182.437H84.3542C79.0833 182.437 74.8125 178.083 74.8125 172.729V55.1663C74.8125 49.7913 79.0833 45.458 84.3542 45.458Z" fill="white"/>
<path d="M84.3129 45.7915C88.7088 45.7915 93.0838 45.7915 97.4796 45.7915C107.125 45.7915 116.771 45.7915 126.417 45.7915C136 45.7915 145.584 45.7915 155.167 45.7915C158.313 45.7915 161.459 45.7915 164.584 45.7915C165.896 45.7915 167.23 45.729 168.542 45.8123C173.688 46.1248 177.188 50.6248 177.188 55.5832C177.188 57.0623 177.188 58.5624 177.188 60.0415C177.188 66.9373 177.188 73.854 177.188 80.7498C177.188 90.604 177.188 100.479 177.188 110.333C177.188 120.5 177.188 130.687 177.188 140.854C177.188 148.667 177.188 156.479 177.188 164.312C177.188 166.521 177.188 168.708 177.188 170.917C177.188 172.792 177.23 174.604 176.5 176.396C175.125 179.812 171.875 182.042 168.209 182.083C167.875 182.083 167.542 182.083 167.209 182.083C164.896 182.083 162.584 182.083 160.25 182.083C151.417 182.083 142.605 182.083 133.771 182.083C123.688 182.083 113.625 182.083 103.542 182.083C97.4379 182.083 91.3546 182.083 85.2504 182.083C84.7296 182.083 84.2088 182.083 83.6879 182.042C79.9588 181.708 76.7713 178.958 75.7296 175.396C75.2713 173.812 75.3338 172.208 75.3338 170.583C75.3338 164.833 75.3338 159.083 75.3338 153.312C75.3338 143.937 75.3338 134.542 75.3338 125.167C75.3338 114.792 75.3338 104.417 75.3338 94.0415C75.3338 85.3957 75.3338 76.729 75.3338 68.0832C75.3338 63.854 75.3129 59.604 75.3338 55.3748C75.3338 50.2707 79.0213 45.8748 84.3129 45.7915C84.8754 45.7915 85.1046 45.0832 84.4171 45.104C78.8129 45.1873 74.3546 49.7498 74.3129 55.3332C74.3129 56.604 74.3129 57.8748 74.3129 59.1457C74.3129 65.854 74.3129 72.5623 74.3129 79.2915C74.3129 89.229 74.3129 99.1665 74.3129 109.104C74.3129 119.479 74.3129 129.833 74.3129 140.208C74.3129 148.208 74.3129 156.208 74.3129 164.208C74.3129 166.458 74.3129 168.687 74.3129 170.937C74.3129 172.833 74.2713 174.646 75.0004 176.479C76.6254 180.646 80.5629 182.812 84.8963 182.812C86.9796 182.812 89.0629 182.812 91.1463 182.812C99.9379 182.812 108.73 182.812 117.521 182.812C127.792 182.812 138.063 182.812 148.355 182.812C154.625 182.812 160.917 182.812 167.188 182.812C170.98 182.812 174.5 181.417 176.625 178.083C177.98 175.979 178.188 173.667 178.188 171.25C178.188 165.75 178.188 160.25 178.188 154.75C178.188 145.312 178.188 135.854 178.188 126.417C178.188 115.937 178.188 105.437 178.188 94.9582C178.188 86.104 178.188 77.2498 178.188 68.3748C178.188 64.0415 178.209 59.7082 178.188 55.3748C178.167 50.5832 175.063 46.2915 170.271 45.3123C168.625 44.979 166.834 45.104 165.146 45.104C157.542 45.104 149.938 45.104 142.355 45.104C131.98 45.104 121.584 45.104 111.209 45.104C103.438 45.104 95.6463 45.104 87.8754 45.104C86.7296 45.104 85.5629 45.104 84.4171 45.104C83.8546 45.104 83.6254 45.7915 84.3129 45.7915Z" fill="#56627F"/>
<path d="M171.334 59.5H168.23V166.958H171.334V59.5Z" fill="#E1E9F6"/>
<path d="M168.542 59.5H81.167V166.958H168.542V59.5Z" fill="white"/>
<path d="M169.021 165.479C169.021 162 169.021 158.521 169.021 155.042C169.021 146.688 169.021 138.334 169.021 129.979C169.021 119.917 169.021 109.854 169.021 99.7711C169.021 91.042 169.021 82.3128 169.021 73.5836C169.021 70.7086 169.021 67.8545 169.021 64.9795C169.021 63.6461 169.188 62.1878 169.021 60.8753C169.021 60.8128 169.021 60.7503 169.021 60.7086C169.021 60.2086 168.001 60.3545 168.001 60.792C168.001 64.2711 168.001 67.7503 168.001 71.2295C168.001 79.5836 168.001 87.9378 168.001 96.292C168.001 106.354 168.001 116.417 168.001 126.5C168.001 135.229 168.001 143.959 168.001 152.688C168.001 155.563 168.001 158.417 168.001 161.292C168.001 162.625 167.834 164.084 168.001 165.396C168.001 165.459 168.001 165.521 168.001 165.563C168.021 166.063 169.021 165.917 169.021 165.479Z" fill="#B4C0D4"/>
<path d="M80.9588 167.291C83.9588 167.291 86.938 167.291 89.938 167.291C97.1255 167.291 104.313 167.291 111.501 167.291C120.167 167.291 128.813 167.291 137.48 167.291C145.001 167.291 152.521 167.291 160.021 167.291C163.667 167.291 167.334 167.416 170.959 167.291C171.021 167.291 171.063 167.291 171.126 167.291C171.292 167.291 171.813 167.208 171.813 166.937C171.813 163.375 171.813 159.812 171.813 156.27C171.813 147.729 171.813 139.166 171.813 130.625C171.813 120.27 171.813 109.937 171.813 99.5829C171.813 90.6246 171.813 81.6871 171.813 72.7287C171.813 69.7704 171.813 66.7912 171.813 63.8329C171.813 62.4787 171.98 60.9996 171.813 59.6454C171.813 59.5829 171.813 59.5204 171.813 59.4579C171.813 59.2912 171.667 59.2079 171.501 59.2079C168.501 59.2079 165.521 59.2079 162.521 59.2079C155.334 59.2079 148.146 59.2079 140.959 59.2079C132.292 59.2079 123.646 59.2079 114.98 59.2079C107.459 59.2079 99.938 59.2079 92.438 59.2079C88.7922 59.2079 85.1255 59.0829 81.5005 59.2079C81.438 59.2079 81.3963 59.2079 81.3338 59.2079C81.1672 59.2079 80.6463 59.2912 80.6463 59.5621C80.6463 63.1246 80.6463 66.6871 80.6463 70.2287C80.6463 78.7704 80.6463 87.3329 80.6463 95.8746C80.6463 106.229 80.6463 116.562 80.6463 126.916C80.6463 135.875 80.6463 144.812 80.6463 153.77C80.6463 156.729 80.6463 159.708 80.6463 162.666C80.6463 164.02 80.4797 165.5 80.6463 166.854C80.6463 166.916 80.6463 166.979 80.6463 167.041C80.6463 167.479 81.6463 167.291 81.6463 166.937C81.6463 163.375 81.6463 159.812 81.6463 156.27C81.6463 147.729 81.6463 139.166 81.6463 130.625C81.6463 120.27 81.6463 109.937 81.6463 99.5829C81.6463 90.6246 81.6463 81.6871 81.6463 72.7287C81.6463 69.7704 81.6463 66.7912 81.6463 63.8329C81.6463 62.9162 81.6463 61.9996 81.6463 61.1037C81.6463 60.6871 81.7505 60.0621 81.6463 59.6662C81.6255 59.6037 81.6463 59.5412 81.6463 59.4787C81.4172 59.6037 81.188 59.7287 80.9588 59.8329C83.9588 59.8329 86.938 59.8329 89.938 59.8329C97.1255 59.8329 104.313 59.8329 111.501 59.8329C120.167 59.8329 128.813 59.8329 137.48 59.8329C145.001 59.8329 152.521 59.8329 160.021 59.8329C162.501 59.8329 164.98 59.8329 167.459 59.8329C168.23 59.8329 169.001 59.8329 169.751 59.8329C170.063 59.8329 170.667 59.9579 170.959 59.8329C171.001 59.8121 171.084 59.8329 171.126 59.8329C171.021 59.7496 170.917 59.6662 170.813 59.5829C170.813 63.1454 170.813 66.7079 170.813 70.2496C170.813 78.7912 170.813 87.3537 170.813 95.8954C170.813 106.25 170.813 116.583 170.813 126.937C170.813 135.895 170.813 144.833 170.813 153.791C170.813 156.75 170.813 159.729 170.813 162.687C170.813 163.604 170.813 164.52 170.813 165.416C170.813 165.833 170.709 166.458 170.813 166.854C170.834 166.916 170.813 166.979 170.813 167.041C171.042 166.916 171.271 166.791 171.501 166.687C168.501 166.687 165.521 166.687 162.521 166.687C155.334 166.687 148.146 166.687 140.959 166.687C132.292 166.687 123.646 166.687 114.98 166.687C107.459 166.687 99.938 166.687 92.438 166.687C88.7922 166.687 85.1255 166.562 81.5005 166.687C81.438 166.687 81.3963 166.687 81.3338 166.687C80.938 166.687 80.2922 167.291 80.9588 167.291Z" fill="#56627F"/>
<path d="M125.646 53.9997C126.459 53.9997 127.438 53.4997 127.542 52.6038C127.646 51.7288 126.896 51.083 126.063 51.083C125.251 51.083 124.292 51.583 124.167 52.4788C124.063 53.3955 124.813 53.958 125.646 53.9997C126.001 54.0205 126.73 53.4997 126.042 53.4788C125.563 53.458 125.209 52.9997 125.167 52.5413C125.146 52.2288 125.271 51.6663 125.646 51.6247C126.084 51.5622 126.459 52.1247 126.521 52.4997C126.563 52.7913 126.438 53.4788 126.042 53.4788C125.855 53.4788 125.48 53.5413 125.376 53.7497C125.292 53.9372 125.48 53.9997 125.646 53.9997Z" fill="#E5E5E5"/>
<path d="M126.314 53.9368C127.105 53.9368 128.105 53.5618 128.314 52.7077C128.522 51.8535 127.814 51.166 126.98 51.166C126.21 51.166 125.189 51.541 124.98 52.3952C124.793 53.2702 125.501 53.8952 126.314 53.9368C126.522 53.9577 126.855 53.8743 127.022 53.7493C127.168 53.6452 127.189 53.5618 126.96 53.541C126.439 53.5202 126.043 53.1035 125.96 52.6035C125.918 52.3952 125.939 52.2077 126.022 52.0202C126.064 51.916 126.105 51.8327 126.168 51.7493C126.21 51.6868 126.272 51.6243 126.355 51.5618C126.46 51.4993 126.439 51.4993 126.314 51.541C126.793 51.541 127.21 51.9577 127.314 52.416C127.355 52.6243 127.355 52.8535 127.272 53.0619C127.23 53.166 127.189 53.2493 127.126 53.3327C127.085 53.3743 127.043 53.416 127.001 53.4577C126.835 53.5618 126.835 53.5827 126.98 53.5202C126.751 53.5202 126.46 53.5618 126.272 53.7077C126.126 53.8327 126.105 53.9368 126.314 53.9368Z" fill="#56627F"/>
<path d="M123.855 178.292C125.25 178.292 126.667 178.396 128.063 178.271C130.459 178.063 132.209 175.521 131.125 173.271C130.188 171.292 128.188 171.292 126.313 171.292C124.459 171.292 122.438 171.042 121.105 172.625C119.167 174.896 120.917 178.167 123.75 178.292C124.25 178.313 124.771 177.583 124.105 177.542C120.688 177.396 120.334 172.188 123.896 172.042C125.188 171.979 126.584 171.938 127.875 172.042C131.188 172.333 131.292 177.375 127.855 177.542C126.563 177.604 125.25 177.542 123.98 177.542C123.375 177.542 123.167 178.292 123.855 178.292Z" fill="#E5E5E5"/>
<path d="M124.501 178.229C125.896 178.229 127.292 178.313 128.688 178.229C131.084 178.083 133.021 175.646 131.938 173.313C131.001 171.313 129.021 171.333 127.146 171.333C125.334 171.333 123.355 171.083 121.98 172.562C119.896 174.792 121.626 178.104 124.501 178.229C124.938 178.25 125.563 177.625 124.876 177.583C121.542 177.438 121.021 172.188 124.563 171.979C125.834 171.896 127.167 171.917 128.417 171.979C131.751 172.146 132.271 177.375 128.73 177.583C127.459 177.667 126.146 177.583 124.876 177.583C124.438 177.583 123.813 178.229 124.501 178.229Z" fill="#56627F"/>
<path d="M96.0845 70.2705L97.5428 73.208C97.6053 73.3122 97.7095 73.3955 97.8345 73.4163L101.084 73.8747C101.397 73.9163 101.522 74.2913 101.293 74.5205L98.9595 76.8122C98.8762 76.8955 98.8345 77.0205 98.8553 77.1455L99.4178 80.3747C99.4803 80.6872 99.147 80.9163 98.8762 80.7705L95.9595 79.2497C95.8553 79.1872 95.7095 79.1872 95.6053 79.2497L92.7095 80.7913C92.4387 80.9372 92.1053 80.708 92.1678 80.3955L92.7095 77.1663C92.7303 77.0413 92.6887 76.9163 92.6053 76.833L90.2512 74.5413C90.022 74.333 90.147 73.9372 90.4595 73.8955L93.7095 73.4163C93.8345 73.3955 93.9387 73.3122 94.0012 73.208L95.4387 70.2705C95.5428 69.9997 95.9387 69.9997 96.0845 70.2705Z" fill="#FFCF72"/>
<path d="M126.251 70.1875L127.71 73.125C127.772 73.2292 127.876 73.3125 128.001 73.3333L131.251 73.7917C131.564 73.8333 131.689 74.2083 131.46 74.4375L129.126 76.7292C129.043 76.8125 129.001 76.9375 129.022 77.0625L129.585 80.2917C129.647 80.6042 129.314 80.8333 129.043 80.6875L126.126 79.1667C126.022 79.1042 125.876 79.1042 125.772 79.1667L122.876 80.7083C122.605 80.8542 122.272 80.625 122.335 80.3125L122.876 77.0833C122.897 76.9583 122.855 76.8333 122.772 76.75L120.418 74.4583C120.189 74.25 120.314 73.8542 120.626 73.8125L123.876 73.3333C124.001 73.3125 124.105 73.2292 124.168 73.125L125.605 70.1875C125.73 69.9167 126.126 69.9167 126.251 70.1875Z" fill="#FFCF72"/>
<path d="M95.3345 70.3123C95.6053 70.854 95.8761 71.4165 96.147 71.9581C96.3553 72.3748 96.5428 73.1248 96.9386 73.4373C97.2928 73.7081 98.0636 73.6665 98.4803 73.729C98.897 73.7915 99.3345 73.854 99.7511 73.9165C99.897 73.9373 100.376 73.9165 100.48 74.0206C101.043 74.4998 98.3553 76.354 98.1261 76.8956C97.9595 77.3123 98.2095 77.979 98.2928 78.4165C98.3761 78.8331 98.4386 79.2498 98.522 79.6873C98.5428 79.854 98.5428 80.2915 98.647 80.4165C98.6678 80.4373 99.0845 80.6248 98.897 80.4165C98.8136 80.3331 98.6053 80.2706 98.5011 80.2081C98.1261 80.0206 97.772 79.8123 97.397 79.6248C96.9386 79.3956 96.397 78.9581 95.8553 78.8956C94.6261 78.7706 93.4803 80.1873 92.3761 80.4998C92.0011 80.604 92.3553 80.354 92.4386 80.0623C92.5428 79.729 92.5636 79.3748 92.6053 79.0415C92.7095 78.4165 92.9595 77.6665 92.9386 77.0415C92.9178 76.5623 92.522 76.3123 92.1886 75.9998C91.647 75.479 91.1053 74.9373 90.5428 74.4165C90.2511 74.1456 89.9803 74.1665 90.397 74.0415C90.8136 73.9373 91.2928 73.9165 91.7095 73.854C92.3345 73.7706 93.0845 73.7498 93.6886 73.4998C94.2511 73.2706 94.397 72.6665 94.6678 72.1665C94.8761 71.7498 95.0845 71.3331 95.272 70.9165C95.3553 70.7498 95.4803 70.5623 95.5428 70.3748C95.6886 69.8748 95.6053 70.6873 95.3553 70.4165C95.5636 70.6248 96.5011 70.2706 96.2928 70.0415C95.022 68.6665 93.9386 71.729 93.6261 72.3956C93.522 72.6248 93.272 72.9581 93.2303 73.2081C93.2303 73.2081 93.6678 73.1456 93.3761 73.1665C93.2095 73.1873 93.022 73.229 92.8553 73.2498C92.0428 73.3748 91.1886 73.4373 90.3761 73.6248C89.8345 73.7498 89.1053 74.0415 89.522 74.6873C89.8761 75.2706 90.647 75.7706 91.1261 76.2498C91.6261 76.729 92.0011 76.9165 91.8761 77.6248C91.7303 78.479 91.5428 79.3331 91.4386 80.1873C91.2511 81.8956 93.5636 80.4165 94.1886 80.0831C94.5845 79.8748 94.9803 79.6873 95.3761 79.4581C95.4595 79.4165 95.5636 79.3748 95.6261 79.3331C95.3553 79.5623 95.272 79.2915 95.4178 79.4998C95.5428 79.7081 96.1886 79.8956 96.3761 79.9998C96.8136 80.229 97.2303 80.4581 97.6678 80.6665C98.1886 80.9373 98.7303 81.1873 99.2928 80.7915C99.8553 80.4165 99.5636 79.7081 99.4595 79.1665C99.3553 78.5623 98.9178 77.4581 99.1053 76.854C99.2928 76.2915 100.189 75.7081 100.605 75.3123C100.939 74.9998 102.043 74.229 101.439 73.7081C100.959 73.2915 99.6678 73.3748 99.1053 73.2915C98.7928 73.2498 98.2303 73.2915 97.9386 73.1248C97.6886 72.9998 97.6053 72.6665 97.4803 72.4165C97.0845 71.6456 96.7095 70.854 96.3136 70.0831C96.1886 69.7498 95.2303 70.104 95.3345 70.3123Z" fill="#56627F"/>
<path d="M111.168 70.2285L112.626 73.166C112.689 73.2702 112.793 73.3535 112.918 73.3744L116.168 73.8327C116.48 73.8743 116.605 74.2493 116.376 74.4785L114.043 76.7702C113.96 76.8535 113.918 76.9785 113.939 77.1035L114.501 80.3327C114.564 80.6452 114.23 80.8743 113.96 80.7285L111.043 79.2077C110.939 79.1452 110.793 79.1452 110.689 79.2077L107.793 80.7493C107.522 80.8952 107.189 80.666 107.251 80.3535L107.793 77.1243C107.814 76.9993 107.772 76.8743 107.689 76.791L105.335 74.4993C105.105 74.291 105.23 73.8952 105.543 73.8535L108.793 73.3744C108.918 73.3535 109.022 73.2702 109.085 73.166L110.522 70.2285C110.626 69.9577 111.043 69.9577 111.168 70.2285Z" fill="#FFCF72"/>
<path d="M110.418 70.2706C110.689 70.8123 110.96 71.3748 111.23 71.9165C111.439 72.3331 111.626 73.104 112.022 73.3956C112.397 73.6665 113.147 73.6248 113.564 73.6873C113.96 73.7498 114.355 73.7915 114.751 73.854C114.918 73.8748 115.46 73.854 115.585 73.979C116.168 74.5415 113.376 76.2915 113.189 76.8956C113.043 77.354 113.335 78.104 113.418 78.5415C113.48 78.9165 113.543 79.3123 113.626 79.6873C113.647 79.8123 113.647 79.9998 113.71 80.104C113.814 80.3331 113.793 80.1665 113.918 80.354C113.98 80.4581 114.085 80.4165 113.897 80.2706C113.793 80.1873 113.647 80.1248 113.522 80.0623C113.147 79.8748 112.772 79.6665 112.397 79.479C111.96 79.2498 111.418 78.8331 110.897 78.7915C110.397 78.7498 109.897 79.104 109.48 79.3331C108.918 79.6248 108.064 80.3331 107.418 80.4165C107.105 80.4581 107.46 80.1873 107.543 79.9165C107.647 79.5623 107.668 79.1873 107.73 78.8331C107.835 78.229 108.085 77.5206 108.043 76.9165C108.022 76.4165 107.564 76.1456 107.23 75.8123C106.71 75.2915 106.189 74.729 105.626 74.2498C105.335 73.9998 105.126 74.0206 105.501 73.9165C105.918 73.8123 106.397 73.7915 106.814 73.729C107.439 73.6456 108.189 73.6248 108.793 73.3748C109.355 73.1456 109.501 72.5415 109.751 72.0415C109.96 71.6248 110.168 71.2081 110.355 70.7915C110.439 70.6248 110.564 70.4373 110.626 70.2498C110.772 69.7498 110.689 70.5623 110.439 70.2915C110.647 70.5206 111.585 70.1456 111.376 69.9165C110.105 68.5415 109.022 71.604 108.71 72.2706C108.605 72.4998 108.355 72.8331 108.314 73.0831C108.314 73.0623 108.751 73.0206 108.46 73.0415C108.293 73.0415 108.105 73.104 107.939 73.1248C107.126 73.2498 106.272 73.3123 105.46 73.4998C104.918 73.6248 104.189 73.9165 104.605 74.5831C104.96 75.1665 105.73 75.6665 106.21 76.1456C106.71 76.6248 107.085 76.8123 106.96 77.5206C106.814 78.3748 106.626 79.229 106.522 80.0831C106.335 81.8123 108.647 80.3331 109.272 79.979C109.668 79.7706 110.064 79.5831 110.46 79.354C110.543 79.3123 110.647 79.2706 110.71 79.229C110.439 79.4581 110.355 79.1665 110.48 79.3956C110.605 79.604 111.251 79.7915 111.439 79.8956C111.876 80.1248 112.293 80.354 112.73 80.5623C113.251 80.8331 113.793 81.0831 114.355 80.6873C114.918 80.3123 114.626 79.604 114.522 79.0623C114.418 78.4581 113.98 77.354 114.168 76.7498C114.355 76.1873 115.251 75.604 115.668 75.2081C116.001 74.8956 117.105 74.1248 116.501 73.604C116.022 73.1873 114.73 73.2706 114.168 73.1873C113.855 73.1456 113.293 73.1873 113.001 73.0206C112.751 72.8956 112.668 72.5623 112.543 72.3123C112.147 71.5415 111.772 70.7498 111.376 69.979C111.293 69.7081 110.314 70.0415 110.418 70.2706Z" fill="#56627F"/>
<path d="M125.522 70.2292C125.793 70.7708 126.064 71.3333 126.335 71.875C126.543 72.2917 126.751 73.0625 127.126 73.3542C127.501 73.6458 128.23 73.6042 128.668 73.6667C129.064 73.7292 129.46 73.7708 129.855 73.8333C130.022 73.8542 130.543 73.8333 130.689 73.9583C131.23 74.4375 128.564 76.1875 128.314 76.7917C128.147 77.2292 128.397 77.8958 128.48 78.3333C128.543 78.7292 128.626 79.125 128.689 79.5208C128.71 79.6875 128.71 80.1875 128.835 80.3125C129.001 80.5 129.21 80.4792 129.085 80.3125C129.022 80.2292 128.835 80.1875 128.751 80.1458C128.397 79.9583 128.022 79.7708 127.668 79.5833C127.189 79.3333 126.647 78.9375 126.126 78.8333C124.98 78.6042 123.626 80 122.626 80.375C122.189 80.5417 122.522 80.4167 122.647 80.0625C122.751 79.7708 122.751 79.3958 122.814 79.0833C122.918 78.4375 123.168 77.6667 123.168 77C123.147 76.5208 122.814 76.2917 122.48 75.9792C121.918 75.4375 121.397 74.8542 120.814 74.3542C120.522 74.1042 120.23 74.125 120.647 74C121.043 73.8542 121.543 73.875 121.96 73.8125C122.585 73.7292 123.355 73.7292 123.939 73.4583C124.48 73.2083 124.647 72.6042 124.897 72.1042C125.105 71.6875 125.314 71.2708 125.501 70.8542C125.585 70.6875 125.71 70.5 125.772 70.3125C125.918 69.8125 125.835 70.625 125.585 70.3542C125.814 70.6042 126.772 70.2292 126.522 69.9792C125.251 68.6042 124.23 71.5625 123.897 72.25C123.772 72.5208 123.522 72.8333 123.46 73.125C123.46 73.1667 123.876 73.0625 123.585 73.0833C123.418 73.0833 123.23 73.1458 123.064 73.1667C122.251 73.2917 121.397 73.3542 120.585 73.5417C120.022 73.6667 119.314 73.9792 119.73 74.6458C120.064 75.1875 120.814 75.6875 121.272 76.1458C121.751 76.6042 122.168 76.8125 122.105 77.5C122.022 78.3542 121.772 79.2083 121.668 80.0625C121.439 81.8958 123.71 80.4375 124.418 80.0625C124.793 79.875 125.168 79.6875 125.543 79.4583C125.605 79.4167 125.751 79.375 125.814 79.3125C125.689 79.4583 125.501 79.2292 125.689 79.4792C125.855 79.7083 126.46 79.875 126.71 80C127.126 80.2292 127.564 80.4375 127.98 80.6667C128.501 80.9375 129.043 81.1458 129.585 80.75C130.085 80.3542 129.793 79.6458 129.71 79.125C129.605 78.5417 129.168 77.4375 129.335 76.8542C129.48 76.3125 130.522 75.625 130.939 75.2292C131.293 74.8958 132.293 74.2083 131.689 73.6667C131.21 73.25 129.918 73.3333 129.335 73.25C129.022 73.2083 128.46 73.2292 128.168 73.0833C127.918 72.9583 127.835 72.6458 127.71 72.3958C127.314 71.625 126.939 70.8333 126.543 70.0625C126.355 69.625 125.376 69.9583 125.522 70.2292Z" fill="#56627F"/>
<path d="M141.689 70.166L143.147 73.1035C143.21 73.2077 143.314 73.291 143.439 73.3119L146.689 73.7702C147.001 73.8119 147.126 74.1869 146.897 74.416L144.564 76.7077C144.48 76.791 144.439 76.916 144.46 77.041L145.022 80.2702C145.085 80.5827 144.751 80.8119 144.48 80.666L141.564 79.1452C141.46 79.0827 141.314 79.0827 141.21 79.1452L138.314 80.6868C138.043 80.8327 137.71 80.6035 137.772 80.291L138.314 77.0619C138.335 76.9369 138.293 76.8118 138.21 76.7285L135.855 74.4368C135.626 74.2285 135.751 73.8327 136.064 73.791L139.314 73.3119C139.439 73.291 139.543 73.2077 139.605 73.1035L141.043 70.166C141.147 69.8743 141.543 69.8743 141.689 70.166Z" fill="#FFCF72"/>
<path d="M140.939 70.2081C141.209 70.7498 141.48 71.3123 141.751 71.854C141.959 72.2915 142.168 73.0206 142.543 73.354C142.897 73.6665 143.584 73.6456 144.022 73.7081C144.418 73.7706 144.814 73.8123 145.209 73.8748C145.376 73.8956 146.084 73.8956 146.168 74.0206C146.418 74.3539 144.064 76.0831 143.793 76.5623C143.522 77.0206 143.751 77.6248 143.834 78.104C143.897 78.4998 143.98 78.8956 144.043 79.2915C144.084 79.479 144.064 80.0831 144.209 80.2081C144.272 80.2706 144.564 80.354 144.522 80.2498C144.501 80.2081 144.293 80.1456 144.251 80.104C143.939 79.8956 143.564 79.7498 143.209 79.5623C142.689 79.2915 142.168 78.9373 141.626 78.729C140.501 78.3331 139.064 79.729 138.084 80.1456C137.73 80.2915 137.939 80.2915 138.022 79.9998C138.105 79.6873 138.126 79.3331 138.189 79.0206C138.293 78.3539 138.543 77.6039 138.543 76.9373C138.543 76.4165 138.189 76.2081 137.855 75.854C137.314 75.3331 136.793 74.6664 136.189 74.2289C135.98 74.0831 135.709 74.104 135.939 73.9998C136.251 73.854 136.814 73.8748 137.168 73.8123C137.814 73.7081 138.564 73.7081 139.189 73.4998C139.814 73.2914 139.98 72.6456 140.251 72.104C140.459 71.6873 140.668 71.2706 140.855 70.854C140.939 70.6873 141.084 70.479 141.126 70.3123C141.23 69.8331 141.23 70.5415 140.959 70.2498C141.251 70.5831 142.209 70.1665 141.876 69.8123C140.564 68.3748 139.564 71.3956 139.189 72.1665C139.064 72.4165 138.959 72.6665 138.814 72.9165C138.876 72.7915 139.147 72.8331 138.855 72.854C138.668 72.8748 138.48 72.9165 138.293 72.9373C137.501 73.0623 136.668 73.1248 135.876 73.2914C133.772 73.7498 136.022 75.4165 136.709 76.0831C137.23 76.5831 137.564 76.729 137.439 77.4581C137.293 78.2914 137.105 79.1248 137.022 79.9373C136.814 81.8956 139.272 80.2706 139.98 79.8956C140.293 79.729 140.689 79.604 140.939 79.3748C141.126 79.2081 141.23 79.354 140.918 79.2706C141.022 79.2915 141.147 79.3748 141.23 79.4373C141.939 79.9164 142.772 80.2706 143.543 80.6456C144.064 80.8956 144.772 81.0831 145.147 80.4581C145.439 79.979 145.105 79.1456 145.022 78.6665C144.939 78.1456 144.543 77.1248 144.751 76.6456C144.855 76.4165 145.272 76.1456 145.439 75.9581C145.793 75.604 146.147 75.2706 146.501 74.9165C146.897 74.5415 147.668 73.8956 146.959 73.3748C146.397 72.979 145.23 73.0415 144.584 72.9581C144.314 72.9165 143.668 72.9373 143.418 72.7915C143.314 72.729 143.189 72.3748 143.105 72.1873C142.709 71.4165 142.334 70.6248 141.939 69.8539C141.73 69.4998 140.73 69.8123 140.939 70.2081Z" fill="#56627F"/>
<path d="M155.355 71.2084C155.709 71.9167 156.001 73.0209 156.543 73.5834C157.126 74.1876 159.209 73.6042 159.439 74.3126C159.668 74.9584 157.793 75.8126 157.584 76.4792C157.459 76.8542 157.668 77.3542 157.73 77.7292C157.772 78.0001 158.168 79.1876 157.897 79.3959C158.126 79.3334 158.376 79.2709 158.605 79.2084C157.459 79.0834 156.626 77.6667 155.376 78.0417C154.814 78.2084 154.293 78.5834 153.772 78.8542C153.605 78.9376 153.147 79.2917 152.959 79.2917C153.168 79.3126 153.293 78.7501 153.334 78.4792C153.439 77.8751 153.73 77.0834 153.668 76.4584C153.626 75.9584 153.043 75.5834 152.709 75.2501C152.439 75.0001 152.189 74.7084 151.918 74.4792C151.855 74.4167 151.793 74.3334 151.709 74.2917C151.397 74.0834 151.209 74.2292 151.522 74.1042C152.126 73.8334 153.022 73.8959 153.689 73.7917C155.251 73.5001 154.939 71.7917 155.939 70.8959C155.668 70.9792 155.418 71.0626 155.147 71.1459C155.23 71.1876 155.293 71.2292 155.376 71.2501C155.584 71.4376 156.48 71.0417 156.314 70.8959C155.209 69.8959 154.418 71.9376 154.105 72.6042C154.022 72.7501 153.668 73.2501 153.709 73.4167C153.709 73.4584 154.272 73.3542 153.751 73.4167C153.043 73.5001 152.293 73.5834 151.605 73.7292C151.293 73.7917 150.584 73.9167 150.626 74.3751C150.668 74.7917 151.501 75.3334 151.751 75.5834C152.105 75.9376 152.626 76.2501 152.647 76.7709C152.668 77.5001 152.334 78.2501 152.272 79.0001C152.189 80.2501 153.793 79.2917 154.334 79.0001C154.668 78.8126 155.022 78.6459 155.355 78.4584C156.064 78.0834 155.272 78.3959 155.272 78.3542C155.272 78.5001 156.98 79.2501 157.168 79.3334C157.918 79.7292 159.022 79.6667 158.918 78.6251C158.855 77.9376 158.605 77.2709 158.564 76.5834C158.522 75.9792 159.147 75.6251 159.564 75.2084C159.814 74.9584 160.751 74.3126 160.501 73.8751C160.293 73.5209 159.147 73.5417 158.834 73.5001C158.147 73.3959 157.647 73.4792 157.314 72.8334C157.001 72.1876 156.668 71.5417 156.355 70.8959C156.23 70.6876 155.272 71.0417 155.355 71.2084Z" fill="#56627F"/>
<path d="M128.688 96.2077L135.73 110.354C136.355 111.624 137.584 112.499 138.98 112.708L154.625 114.937C158.167 115.437 159.584 119.791 157.042 122.291L145.75 133.354C144.73 134.354 144.271 135.77 144.521 137.187L147.23 152.749C147.855 156.27 144.146 158.979 140.98 157.312L126.98 149.999C125.73 149.333 124.209 149.354 122.959 150.02L109 157.416C105.834 159.083 102.125 156.416 102.73 152.895L105.355 137.312C105.584 135.916 105.125 134.479 104.105 133.499L92.7505 122.499C90.188 120.02 91.5838 115.666 95.1255 115.124L113 112.479L120.959 96.2494C122.521 93.0202 127.105 92.9994 128.688 96.2077Z" fill="#E5E5E5"/>
<path d="M126.772 97.083L134.834 113.312C135.147 113.916 135.73 114.354 136.397 114.437L154.334 117C156.043 117.25 156.73 119.333 155.501 120.541L142.564 133.229C142.084 133.708 141.855 134.396 141.98 135.062L145.105 152.916C145.397 154.604 143.626 155.916 142.105 155.104L126.043 146.708C125.439 146.396 124.709 146.396 124.105 146.708L108.064 155.208C106.543 156.021 104.751 154.729 105.043 153.021L108.064 135.146C108.168 134.479 107.959 133.791 107.459 133.312L94.4387 120.708C93.2095 119.521 93.8762 117.416 95.5845 117.166L113.522 114.5C114.189 114.396 114.772 113.979 115.084 113.354L123.064 97.083C123.793 95.5413 126.001 95.5413 126.772 97.083Z" fill="#FFCF72"/>
<path d="M126.439 101.146L133.501 115.354C133.772 115.896 134.272 116.271 134.876 116.354L150.584 118.583C152.084 118.791 152.668 120.625 151.605 121.687L140.272 132.791C139.834 133.208 139.647 133.812 139.751 134.396L142.48 150.041C142.73 151.521 141.189 152.666 139.855 151.958L125.793 144.604C125.272 144.333 124.626 144.333 124.105 144.604L110.084 152.041C108.751 152.75 107.189 151.625 107.439 150.125L110.084 134.479C110.189 133.896 109.98 133.291 109.564 132.875L98.1678 121.833C97.0845 120.791 97.6678 118.958 99.1678 118.729L114.876 116.396C115.459 116.312 115.98 115.937 116.251 115.396L123.23 101.146C123.834 99.7913 125.772 99.7913 126.439 101.146Z" fill="#FFE49D"/>
<path d="M126.126 97.3117C127.584 100.27 129.064 103.208 130.522 106.166C131.439 108.02 132.376 109.895 133.293 111.749C133.834 112.833 134.272 114.291 135.564 114.666C136.522 114.958 137.626 114.978 138.626 115.124C140.814 115.437 143.022 115.749 145.209 116.062C147.314 116.353 149.439 116.666 151.543 116.958C152.709 117.124 154.501 117.062 155.189 118.208C156.126 119.77 154.647 120.874 153.668 121.853C152.209 123.27 150.772 124.687 149.314 126.124C146.876 128.52 144.251 130.791 141.959 133.333C141.001 134.374 141.355 135.52 141.564 136.749C141.918 138.728 142.251 140.708 142.605 142.687C143.209 146.124 144.043 149.624 144.418 153.083C144.564 154.374 143.709 155.583 142.314 154.978C141.897 154.791 141.501 154.541 141.084 154.333C139.334 153.416 137.584 152.499 135.834 151.583C132.689 149.937 129.584 148.187 126.376 146.645C125.105 146.041 123.98 146.541 122.855 147.124C121.251 147.978 119.668 148.812 118.064 149.666C116.001 150.749 113.959 151.833 111.897 152.937C110.564 153.645 109.251 154.458 107.876 155.062C106.855 155.499 105.772 154.999 105.439 153.895C105.293 153.374 105.397 152.874 105.48 152.374C105.772 150.687 106.043 148.999 106.334 147.291C107.001 143.374 107.647 139.478 108.314 135.562C108.501 134.437 108.168 133.603 107.376 132.833C106.189 131.687 105.001 130.52 103.793 129.374C100.918 126.583 98.0427 123.791 95.1469 120.999C94.751 120.624 94.376 120.27 94.2094 119.728C93.9177 118.708 94.4594 117.645 95.501 117.416C96.876 117.103 98.3344 116.999 99.751 116.791C103.918 116.166 108.064 115.562 112.23 114.937C113.48 114.749 114.709 114.562 115.397 113.333C115.959 112.312 116.418 111.228 116.939 110.187C118.834 106.333 120.709 102.478 122.605 98.6242C122.834 98.1659 123.043 97.7075 123.272 97.2492C124.001 95.9784 125.439 96.0825 126.126 97.3117C126.272 97.5825 127.23 97.2284 127.126 97.0409C126.064 95.1659 123.314 95.5825 122.376 97.3325C121.73 98.5409 121.168 99.8117 120.564 101.041C118.668 104.895 116.793 108.749 114.897 112.603C114.751 112.916 114.605 113.228 114.439 113.52C114.001 114.312 113.459 114.374 112.73 114.478C110.897 114.749 109.064 115.02 107.23 115.291C103.397 115.853 99.5427 116.374 95.7302 116.999C93.8135 117.312 92.2302 119.228 93.8344 120.958C94.5844 121.77 95.4385 122.52 96.251 123.291C99.3969 126.353 102.564 129.395 105.709 132.458C106.605 133.333 107.584 134.041 107.418 135.458C107.23 136.916 106.918 138.374 106.689 139.833C105.98 144.02 105.272 148.187 104.584 152.374C104.522 152.728 104.439 153.103 104.418 153.478C104.355 154.791 105.459 155.749 106.73 155.77C107.939 155.77 109.126 154.937 110.147 154.395C114.064 152.333 117.98 150.249 121.876 148.187C122.918 147.624 124.251 146.52 125.48 147.02C126.689 147.499 127.855 148.27 129.022 148.874C132.855 150.874 136.668 152.874 140.501 154.874C141.751 155.52 142.98 156.062 144.355 155.228C145.855 154.312 145.48 152.853 145.251 151.437C144.501 147.124 143.751 142.812 143.001 138.499C142.793 137.353 142.522 136.187 142.397 135.041C142.251 133.541 143.709 132.562 144.668 131.624C147.834 128.52 151.001 125.416 154.168 122.312C154.918 121.583 156.251 120.624 156.501 119.541C156.939 117.645 155.23 116.978 153.751 116.77C149.564 116.166 145.355 115.583 141.168 114.978C139.709 114.77 138.23 114.645 136.793 114.353C135.418 114.083 135.043 112.853 134.48 111.749C132.522 107.812 130.564 103.874 128.605 99.9159C128.126 98.9575 127.668 98.02 127.189 97.0617C127.001 96.77 126.043 97.1034 126.126 97.3117Z" fill="#56627F"/>
</svg>
