<svg width="132" height="133" viewBox="0 0 132 133" fill="none" xmlns="http://www.w3.org/2000/svg">
<circle cx="66" cy="67" r="65" stroke="#E8EEF9" stroke-width="2"/>
<path d="M112.841 20.1594C107.083 14.4021 100.249 9.83526 92.7264 6.71947C85.2042 3.60368 77.142 2 69 2" stroke="#8C95F8" stroke-width="3" stroke-linecap="round"/>
<path d="M53.52 60C53.3867 60 53.28 59.96 53.2 59.88C53.12 59.7867 53.08 59.6733 53.08 59.54V48.26L49.72 50.84C49.6267 50.92 49.5267 50.96 49.42 50.96C49.3 50.96 49.1867 50.8933 49.08 50.76L48.6 50.14C48.5333 50.0467 48.5 49.9533 48.5 49.86C48.5 49.7133 48.5667 49.5933 48.7 49.5L53.04 46.14C53.1867 46.0467 53.36 46 53.56 46H54.5C54.6333 46 54.74 46.0467 54.82 46.14C54.9133 46.22 54.96 46.3267 54.96 46.46V59.54C54.96 59.6733 54.9133 59.7867 54.82 59.88C54.74 59.96 54.6333 60 54.5 60H53.52ZM62.3161 60.2C61.3161 60.2 60.4494 60.02 59.7161 59.66C58.9828 59.3 58.4228 58.8333 58.0361 58.26C57.6494 57.6733 57.4428 57.0467 57.4161 56.38V56.34C57.4161 56.2333 57.4561 56.1467 57.5361 56.08C57.6161 56.0133 57.7094 55.98 57.8161 55.98H58.7961C59.0761 55.98 59.2561 56.1267 59.3361 56.42C59.5361 57.14 59.9028 57.68 60.4361 58.04C60.9828 58.3867 61.6094 58.56 62.3161 58.56C63.2228 58.56 63.9761 58.2867 64.5761 57.74C65.1761 57.18 65.4761 56.4133 65.4761 55.44C65.4761 54.5467 65.1761 53.84 64.5761 53.32C63.9761 52.7867 63.2228 52.52 62.3161 52.52C61.8361 52.52 61.4494 52.58 61.1561 52.7C60.8628 52.82 60.5628 52.9933 60.2561 53.22C60.0828 53.3533 59.9361 53.4533 59.8161 53.52C59.7094 53.5733 59.5894 53.6 59.4561 53.6H58.4961C58.3761 53.6 58.2694 53.56 58.1761 53.48C58.0828 53.3867 58.0428 53.28 58.0561 53.16L58.6761 46.5C58.7161 46.1667 58.8828 46 59.1761 46H66.0961C66.2428 46 66.3561 46.04 66.4361 46.12C66.5161 46.2 66.5561 46.3133 66.5561 46.46V47.2C66.5561 47.3333 66.5094 47.44 66.4161 47.52C66.3361 47.6 66.2294 47.64 66.0961 47.64H60.3361L59.9761 51.66C60.6161 51.2067 61.4761 50.98 62.5561 50.98C63.4494 50.98 64.2628 51.16 64.9961 51.52C65.7294 51.8667 66.3094 52.38 66.7361 53.06C67.1761 53.74 67.3961 54.5467 67.3961 55.48C67.3961 56.4667 67.1761 57.32 66.7361 58.04C66.3094 58.7467 65.7094 59.2867 64.9361 59.66C64.1761 60.02 63.3028 60.2 62.3161 60.2ZM72.192 53.02C71.3254 53.02 70.6387 52.7933 70.132 52.34C69.6387 51.8733 69.372 51.2333 69.332 50.42C69.3187 50.1933 69.312 49.9 69.312 49.54C69.312 49.1533 69.3187 48.84 69.332 48.6C69.372 47.7733 69.632 47.12 70.112 46.64C70.592 46.1467 71.2854 45.9 72.192 45.9C73.0987 45.9 73.792 46.1467 74.272 46.64C74.7654 47.12 75.032 47.7733 75.072 48.6C75.0987 49.08 75.112 49.3933 75.112 49.54C75.112 49.6733 75.0987 49.9667 75.072 50.42C75.032 51.2333 74.7587 51.8733 74.252 52.34C73.7454 52.7933 73.0587 53.02 72.192 53.02ZM70.512 60C70.392 60 70.292 59.9667 70.212 59.9C70.132 59.82 70.092 59.72 70.092 59.6C70.092 59.52 70.1187 59.4467 70.172 59.38L80.052 46.38C80.1587 46.2333 80.252 46.1333 80.332 46.08C80.4254 46.0267 80.552 46 80.712 46H81.352C81.472 46 81.5654 46.04 81.632 46.12C81.712 46.1867 81.752 46.28 81.752 46.4C81.752 46.48 81.7254 46.5533 81.672 46.62L71.812 59.62C71.7054 59.7533 71.6054 59.8533 71.512 59.92C71.432 59.9733 71.312 60 71.152 60H70.512ZM72.192 51.8C72.672 51.8 73.0254 51.66 73.252 51.38C73.4787 51.1 73.612 50.7533 73.652 50.34C73.6787 49.86 73.692 49.58 73.692 49.5C73.692 49.38 73.6787 49.1067 73.652 48.68C73.6254 48.2667 73.492 47.92 73.252 47.64C73.0254 47.3467 72.672 47.2 72.192 47.2C71.712 47.2 71.3587 47.3467 71.132 47.64C70.9054 47.92 70.7787 48.2667 70.752 48.68C70.7387 48.8933 70.732 49.1667 70.732 49.5C70.732 49.82 70.7387 50.1 70.752 50.34C70.792 50.74 70.9187 51.0867 71.132 51.38C71.3587 51.66 71.712 51.8 72.192 51.8ZM79.632 60.12C78.7654 60.12 78.0787 59.8733 77.572 59.38C77.0787 58.8867 76.812 58.2333 76.772 57.42C76.7454 57.02 76.732 56.7533 76.732 56.62C76.732 56.4867 76.7454 56.1533 76.772 55.62C76.812 54.7933 77.072 54.14 77.552 53.66C78.032 53.1667 78.7254 52.92 79.632 52.92C80.5387 52.92 81.232 53.1667 81.712 53.66C82.2054 54.14 82.472 54.7933 82.512 55.62C82.5387 56.1 82.552 56.4067 82.552 56.54C82.552 56.6733 82.5387 56.9667 82.512 57.42C82.472 58.2333 82.1987 58.8867 81.692 59.38C81.1854 59.8733 80.4987 60.12 79.632 60.12ZM79.632 58.82C80.112 58.82 80.4654 58.68 80.692 58.4C80.9187 58.12 81.052 57.7733 81.092 57.36C81.1187 56.88 81.132 56.5933 81.132 56.5C81.132 56.3933 81.1187 56.1267 81.092 55.7C81.0654 55.2867 80.932 54.94 80.692 54.66C80.4654 54.3667 80.112 54.22 79.632 54.22C79.152 54.22 78.7987 54.3667 78.572 54.66C78.3454 54.94 78.2187 55.2867 78.192 55.7C78.1787 55.9133 78.172 56.18 78.172 56.5C78.172 56.8333 78.1787 57.12 78.192 57.36C78.2187 57.76 78.3454 58.1067 78.572 58.4C78.7987 58.68 79.152 58.82 79.632 58.82Z" fill="#151A25"/>
<path d="M33.056 84.12C31.992 84.12 31.18 83.832 30.62 83.256C30.068 82.672 29.772 81.876 29.732 80.868C29.724 80.652 29.72 80.3 29.72 79.812C29.72 79.316 29.724 78.956 29.732 78.732C29.772 77.724 30.068 76.932 30.62 76.356C31.18 75.772 31.992 75.48 33.056 75.48C33.768 75.48 34.372 75.608 34.868 75.864C35.364 76.112 35.736 76.44 35.984 76.848C36.24 77.256 36.38 77.692 36.404 78.156C36.404 78.228 36.376 78.288 36.32 78.336C36.272 78.376 36.212 78.396 36.14 78.396H35.54C35.46 78.396 35.396 78.376 35.348 78.336C35.3 78.296 35.264 78.228 35.24 78.132C35.104 77.516 34.856 77.084 34.496 76.836C34.144 76.588 33.664 76.464 33.056 76.464C31.664 76.464 30.94 77.24 30.884 78.792C30.876 79.008 30.872 79.34 30.872 79.788C30.872 80.236 30.876 80.576 30.884 80.808C30.94 82.352 31.664 83.124 33.056 83.124C33.656 83.124 34.136 83 34.496 82.752C34.856 82.504 35.104 82.076 35.24 81.468C35.264 81.372 35.3 81.304 35.348 81.264C35.396 81.224 35.46 81.204 35.54 81.204H36.14C36.212 81.204 36.272 81.228 36.32 81.276C36.376 81.316 36.404 81.372 36.404 81.444C36.38 81.908 36.24 82.344 35.984 82.752C35.736 83.16 35.364 83.492 34.868 83.748C34.372 83.996 33.768 84.12 33.056 84.12ZM41.5165 84.12C40.4765 84.12 39.6725 83.848 39.1045 83.304C38.5365 82.752 38.2365 81.924 38.2045 80.82C38.1965 80.58 38.1925 80.24 38.1925 79.8C38.1925 79.36 38.1965 79.024 38.2045 78.792C38.2365 77.704 38.5445 76.88 39.1285 76.32C39.7205 75.76 40.5165 75.48 41.5165 75.48C42.5165 75.48 43.3085 75.76 43.8925 76.32C44.4765 76.88 44.7845 77.704 44.8165 78.792C44.8325 79.256 44.8405 79.592 44.8405 79.8C44.8405 80 44.8325 80.34 44.8165 80.82C44.7845 81.924 44.4845 82.752 43.9165 83.304C43.3565 83.848 42.5565 84.12 41.5165 84.12ZM41.5165 83.124C42.1565 83.124 42.6685 82.932 43.0525 82.548C43.4365 82.156 43.6445 81.56 43.6765 80.76C43.6925 80.28 43.7005 79.96 43.7005 79.8C43.7005 79.624 43.6925 79.304 43.6765 78.84C43.6445 78.04 43.4365 77.444 43.0525 77.052C42.6685 76.66 42.1565 76.464 41.5165 76.464C40.8765 76.464 40.3605 76.66 39.9685 77.052C39.5845 77.444 39.3805 78.04 39.3565 78.84C39.3485 79.072 39.3445 79.392 39.3445 79.8C39.3445 80.2 39.3485 80.52 39.3565 80.76C39.3805 81.56 39.5845 82.156 39.9685 82.548C40.3525 82.932 40.8685 83.124 41.5165 83.124ZM47.3701 84C47.2901 84 47.2221 83.976 47.1661 83.928C47.1181 83.872 47.0941 83.804 47.0941 83.724V75.888C47.0941 75.8 47.1181 75.732 47.1661 75.684C47.2141 75.628 47.2821 75.6 47.3701 75.6H47.9341C48.0781 75.6 48.1781 75.66 48.2341 75.78L50.7901 80.688L53.3701 75.78C53.4341 75.66 53.5301 75.6 53.6581 75.6H54.2221C54.3101 75.6 54.3781 75.628 54.4261 75.684C54.4741 75.732 54.4981 75.8 54.4981 75.888V83.724C54.4981 83.804 54.4701 83.872 54.4141 83.928C54.3661 83.976 54.3021 84 54.2221 84H53.6701C53.5901 84 53.5261 83.976 53.4781 83.928C53.4301 83.872 53.4061 83.804 53.4061 83.724V77.76L51.3541 81.732C51.2741 81.9 51.1461 81.984 50.9701 81.984H50.6101C50.4421 81.984 50.3141 81.9 50.2261 81.732L48.1861 77.76V83.724C48.1861 83.804 48.1581 83.872 48.1021 83.928C48.0541 83.976 47.9901 84 47.9101 84H47.3701ZM57.3538 84C57.2738 84 57.2098 83.976 57.1618 83.928C57.1138 83.872 57.0898 83.804 57.0898 83.724V75.888C57.0898 75.8 57.1138 75.732 57.1618 75.684C57.2098 75.628 57.2738 75.6 57.3538 75.6H60.3898C61.2938 75.6 62.0018 75.82 62.5138 76.26C63.0338 76.692 63.2938 77.324 63.2938 78.156C63.2938 78.988 63.0338 79.62 62.5138 80.052C62.0018 80.484 61.2938 80.7 60.3898 80.7H58.2298V83.724C58.2298 83.804 58.2018 83.872 58.1458 83.928C58.0978 83.976 58.0338 84 57.9538 84H57.3538ZM60.3298 79.728C61.5378 79.728 62.1418 79.204 62.1418 78.156C62.1418 77.644 61.9898 77.252 61.6858 76.98C61.3898 76.708 60.9378 76.572 60.3298 76.572H58.2298V79.728H60.3298ZM65.5212 84C65.4412 84 65.3772 83.976 65.3292 83.928C65.2812 83.872 65.2572 83.804 65.2572 83.724V75.876C65.2572 75.796 65.2812 75.732 65.3292 75.684C65.3772 75.628 65.4412 75.6 65.5212 75.6H66.1212C66.2012 75.6 66.2652 75.628 66.3132 75.684C66.3612 75.732 66.3852 75.796 66.3852 75.876V82.992H70.3932C70.4812 82.992 70.5492 83.02 70.5972 83.076C70.6532 83.124 70.6812 83.188 70.6812 83.268V83.724C70.6812 83.804 70.6532 83.872 70.5972 83.928C70.5412 83.976 70.4732 84 70.3932 84H65.5212ZM72.7278 84C72.6478 84 72.5838 83.976 72.5358 83.928C72.4878 83.872 72.4638 83.804 72.4638 83.724V75.888C72.4638 75.8 72.4878 75.732 72.5358 75.684C72.5838 75.628 72.6478 75.6 72.7278 75.6H77.6598C77.7478 75.6 77.8158 75.628 77.8638 75.684C77.9198 75.732 77.9478 75.8 77.9478 75.888V76.32C77.9478 76.4 77.9198 76.464 77.8638 76.512C77.8158 76.56 77.7478 76.584 77.6598 76.584H73.5678V79.26H77.3958C77.4838 79.26 77.5518 79.288 77.5998 79.344C77.6558 79.392 77.6838 79.46 77.6838 79.548V79.956C77.6838 80.036 77.6558 80.104 77.5998 80.16C77.5518 80.208 77.4838 80.232 77.3958 80.232H73.5678V83.004H77.7558C77.8438 83.004 77.9118 83.032 77.9598 83.088C78.0158 83.136 78.0438 83.204 78.0438 83.292V83.724C78.0438 83.804 78.0158 83.872 77.9598 83.928C77.9038 83.976 77.8358 84 77.7558 84H72.7278ZM82.3214 84C82.2414 84 82.1734 83.976 82.1174 83.928C82.0694 83.872 82.0454 83.804 82.0454 83.724V76.632H79.7294C79.6494 76.632 79.5814 76.608 79.5254 76.56C79.4774 76.504 79.4534 76.436 79.4534 76.356V75.888C79.4534 75.8 79.4774 75.732 79.5254 75.684C79.5814 75.628 79.6494 75.6 79.7294 75.6H85.4894C85.5774 75.6 85.6454 75.628 85.6934 75.684C85.7414 75.732 85.7654 75.8 85.7654 75.888V76.356C85.7654 76.436 85.7374 76.504 85.6814 76.56C85.6334 76.608 85.5694 76.632 85.4894 76.632H83.1854V83.724C83.1854 83.804 83.1574 83.872 83.1014 83.928C83.0454 83.976 82.9774 84 82.8974 84H82.3214ZM87.8792 84C87.7992 84 87.7352 83.976 87.6872 83.928C87.6392 83.872 87.6152 83.804 87.6152 83.724V75.888C87.6152 75.8 87.6392 75.732 87.6872 75.684C87.7352 75.628 87.7992 75.6 87.8792 75.6H92.8112C92.8992 75.6 92.9672 75.628 93.0152 75.684C93.0712 75.732 93.0992 75.8 93.0992 75.888V76.32C93.0992 76.4 93.0712 76.464 93.0152 76.512C92.9672 76.56 92.8992 76.584 92.8112 76.584H88.7192V79.26H92.5472C92.6352 79.26 92.7032 79.288 92.7512 79.344C92.8072 79.392 92.8352 79.46 92.8352 79.548V79.956C92.8352 80.036 92.8072 80.104 92.7512 80.16C92.7032 80.208 92.6352 80.232 92.5472 80.232H88.7192V83.004H92.9072C92.9952 83.004 93.0632 83.032 93.1112 83.088C93.1672 83.136 93.1952 83.204 93.1952 83.292V83.724C93.1952 83.804 93.1672 83.872 93.1112 83.928C93.0552 83.976 92.9872 84 92.9072 84H87.8792ZM95.6248 84C95.5448 84 95.4808 83.976 95.4328 83.928C95.3848 83.872 95.3608 83.804 95.3608 83.724V75.888C95.3608 75.8 95.3848 75.732 95.4328 75.684C95.4808 75.628 95.5448 75.6 95.6248 75.6H98.3368C99.5448 75.6 100.417 75.872 100.953 76.416C101.489 76.952 101.765 77.764 101.781 78.852C101.789 79.084 101.793 79.396 101.793 79.788C101.793 80.18 101.789 80.496 101.781 80.736C101.765 81.496 101.641 82.116 101.409 82.596C101.185 83.068 100.829 83.42 100.341 83.652C99.8528 83.884 99.2048 84 98.3968 84H95.6248ZM98.3368 83.004C98.8968 83.004 99.3408 82.928 99.6688 82.776C100.005 82.616 100.245 82.372 100.389 82.044C100.541 81.708 100.625 81.256 100.641 80.688C100.657 80.208 100.665 79.908 100.665 79.788C100.665 79.66 100.657 79.364 100.641 78.9C100.625 78.1 100.433 77.516 100.065 77.148C99.7048 76.772 99.1088 76.584 98.2768 76.584H96.4888V83.004H98.3368Z" fill="#7B89A6"/>
</svg>
