<svg width="133" height="133" viewBox="0 0 133 133" fill="none" xmlns="http://www.w3.org/2000/svg">
<circle cx="66" cy="67" r="65" stroke="#E8EEF9" stroke-width="2"/>
<path d="M131 64C131 55.858 129.396 47.7958 126.281 40.2736C123.165 32.7514 118.598 25.9166 112.841 20.1594C107.083 14.4021 100.249 9.83526 92.7264 6.71947C85.2042 3.60368 77.142 2 69 2" stroke="#8C95F8" stroke-width="3" stroke-linecap="round"/>
<path d="M46.52 60C46.3867 60 46.28 59.96 46.2 59.88C46.12 59.7867 46.08 59.6733 46.08 59.54V48.26L42.72 50.84C42.6267 50.92 42.5267 50.96 42.42 50.96C42.3 50.96 42.1867 50.8933 42.08 50.76L41.6 50.14C41.5333 50.0467 41.5 49.9533 41.5 49.86C41.5 49.7133 41.5667 49.5933 41.7 49.5L46.04 46.14C46.1867 46.0467 46.36 46 46.56 46H47.5C47.6333 46 47.74 46.0467 47.82 46.14C47.9133 46.22 47.96 46.3267 47.96 46.46V59.54C47.96 59.6733 47.9133 59.7867 47.82 59.88C47.74 59.96 47.6333 60 47.5 60H46.52ZM55.8161 60.2C54.0961 60.2 52.8361 59.7 52.0361 58.7C51.2494 57.6867 50.8294 56.3667 50.7761 54.74L50.7561 53.02L50.7761 51.24C50.8161 49.6267 51.2361 48.32 52.0361 47.32C52.8494 46.3067 54.1094 45.8 55.8161 45.8C57.5361 45.8 58.7961 46.3067 59.5961 47.32C60.4094 48.32 60.8361 49.6267 60.8761 51.24C60.8894 51.6133 60.8961 52.2067 60.8961 53.02C60.8961 53.8067 60.8894 54.38 60.8761 54.74C60.8228 56.3667 60.3961 57.6867 59.5961 58.7C58.8094 59.7 57.5494 60.2 55.8161 60.2ZM55.8161 58.54C56.8428 58.54 57.6161 58.2 58.1361 57.52C58.6561 56.84 58.9294 55.88 58.9561 54.64C58.9694 54.2533 58.9761 53.7 58.9761 52.98C58.9761 52.2467 58.9694 51.7 58.9561 51.34C58.9294 50.1133 58.6494 49.16 58.1161 48.48C57.5961 47.7867 56.8294 47.44 55.8161 47.44C54.8028 47.44 54.0361 47.7867 53.5161 48.48C52.9961 49.16 52.7228 50.1133 52.6961 51.34L52.6761 52.98L52.6961 54.64C52.7228 55.88 52.9961 56.84 53.5161 57.52C54.0361 58.2 54.8028 58.54 55.8161 58.54ZM68.4723 60.2C66.7523 60.2 65.4923 59.7 64.6923 58.7C63.9057 57.6867 63.4857 56.3667 63.4323 54.74L63.4123 53.02L63.4323 51.24C63.4723 49.6267 63.8923 48.32 64.6923 47.32C65.5057 46.3067 66.7657 45.8 68.4723 45.8C70.1923 45.8 71.4523 46.3067 72.2523 47.32C73.0657 48.32 73.4923 49.6267 73.5323 51.24C73.5457 51.6133 73.5523 52.2067 73.5523 53.02C73.5523 53.8067 73.5457 54.38 73.5323 54.74C73.479 56.3667 73.0523 57.6867 72.2523 58.7C71.4657 59.7 70.2057 60.2 68.4723 60.2ZM68.4723 58.54C69.499 58.54 70.2723 58.2 70.7923 57.52C71.3123 56.84 71.5857 55.88 71.6123 54.64C71.6257 54.2533 71.6323 53.7 71.6323 52.98C71.6323 52.2467 71.6257 51.7 71.6123 51.34C71.5857 50.1133 71.3057 49.16 70.7723 48.48C70.2523 47.7867 69.4857 47.44 68.4723 47.44C67.459 47.44 66.6923 47.7867 66.1723 48.48C65.6523 49.16 65.379 50.1133 65.3523 51.34L65.3323 52.98L65.3523 54.64C65.379 55.88 65.6523 56.84 66.1723 57.52C66.6923 58.2 67.459 58.54 68.4723 58.54ZM78.6686 53.02C77.8019 53.02 77.1153 52.7933 76.6086 52.34C76.1153 51.8733 75.8486 51.2333 75.8086 50.42C75.7953 50.1933 75.7886 49.9 75.7886 49.54C75.7886 49.1533 75.7953 48.84 75.8086 48.6C75.8486 47.7733 76.1086 47.12 76.5886 46.64C77.0686 46.1467 77.7619 45.9 78.6686 45.9C79.5753 45.9 80.2686 46.1467 80.7486 46.64C81.2419 47.12 81.5086 47.7733 81.5486 48.6C81.5753 49.08 81.5886 49.3933 81.5886 49.54C81.5886 49.6733 81.5753 49.9667 81.5486 50.42C81.5086 51.2333 81.2353 51.8733 80.7286 52.34C80.2219 52.7933 79.5353 53.02 78.6686 53.02ZM76.9886 60C76.8686 60 76.7686 59.9667 76.6886 59.9C76.6086 59.82 76.5686 59.72 76.5686 59.6C76.5686 59.52 76.5953 59.4467 76.6486 59.38L86.5286 46.38C86.6353 46.2333 86.7286 46.1333 86.8086 46.08C86.9019 46.0267 87.0286 46 87.1886 46H87.8286C87.9486 46 88.0419 46.04 88.1086 46.12C88.1886 46.1867 88.2286 46.28 88.2286 46.4C88.2286 46.48 88.2019 46.5533 88.1486 46.62L78.2886 59.62C78.1819 59.7533 78.0819 59.8533 77.9886 59.92C77.9086 59.9733 77.7886 60 77.6286 60H76.9886ZM78.6686 51.8C79.1486 51.8 79.5019 51.66 79.7286 51.38C79.9553 51.1 80.0886 50.7533 80.1286 50.34C80.1553 49.86 80.1686 49.58 80.1686 49.5C80.1686 49.38 80.1553 49.1067 80.1286 48.68C80.1019 48.2667 79.9686 47.92 79.7286 47.64C79.5019 47.3467 79.1486 47.2 78.6686 47.2C78.1886 47.2 77.8353 47.3467 77.6086 47.64C77.3819 47.92 77.2553 48.2667 77.2286 48.68C77.2153 48.8933 77.2086 49.1667 77.2086 49.5C77.2086 49.82 77.2153 50.1 77.2286 50.34C77.2686 50.74 77.3953 51.0867 77.6086 51.38C77.8353 51.66 78.1886 51.8 78.6686 51.8ZM86.1086 60.12C85.2419 60.12 84.5553 59.8733 84.0486 59.38C83.5553 58.8867 83.2886 58.2333 83.2486 57.42C83.2219 57.02 83.2086 56.7533 83.2086 56.62C83.2086 56.4867 83.2219 56.1533 83.2486 55.62C83.2886 54.7933 83.5486 54.14 84.0286 53.66C84.5086 53.1667 85.2019 52.92 86.1086 52.92C87.0153 52.92 87.7086 53.1667 88.1886 53.66C88.6819 54.14 88.9486 54.7933 88.9886 55.62C89.0153 56.1 89.0286 56.4067 89.0286 56.54C89.0286 56.6733 89.0153 56.9667 88.9886 57.42C88.9486 58.2333 88.6753 58.8867 88.1686 59.38C87.6619 59.8733 86.9753 60.12 86.1086 60.12ZM86.1086 58.82C86.5886 58.82 86.9419 58.68 87.1686 58.4C87.3953 58.12 87.5286 57.7733 87.5686 57.36C87.5953 56.88 87.6086 56.5933 87.6086 56.5C87.6086 56.3933 87.5953 56.1267 87.5686 55.7C87.5419 55.2867 87.4086 54.94 87.1686 54.66C86.9419 54.3667 86.5886 54.22 86.1086 54.22C85.6286 54.22 85.2753 54.3667 85.0486 54.66C84.8219 54.94 84.6953 55.2867 84.6686 55.7C84.6553 55.9133 84.6486 56.18 84.6486 56.5C84.6486 56.8333 84.6553 57.12 84.6686 57.36C84.6953 57.76 84.8219 58.1067 85.0486 58.4C85.2753 58.68 85.6286 58.82 86.1086 58.82Z" fill="#151A25"/>
<path d="M33.056 84.12C31.992 84.12 31.18 83.832 30.62 83.256C30.068 82.672 29.772 81.876 29.732 80.868C29.724 80.652 29.72 80.3 29.72 79.812C29.72 79.316 29.724 78.956 29.732 78.732C29.772 77.724 30.068 76.932 30.62 76.356C31.18 75.772 31.992 75.48 33.056 75.48C33.768 75.48 34.372 75.608 34.868 75.864C35.364 76.112 35.736 76.44 35.984 76.848C36.24 77.256 36.38 77.692 36.404 78.156C36.404 78.228 36.376 78.288 36.32 78.336C36.272 78.376 36.212 78.396 36.14 78.396H35.54C35.46 78.396 35.396 78.376 35.348 78.336C35.3 78.296 35.264 78.228 35.24 78.132C35.104 77.516 34.856 77.084 34.496 76.836C34.144 76.588 33.664 76.464 33.056 76.464C31.664 76.464 30.94 77.24 30.884 78.792C30.876 79.008 30.872 79.34 30.872 79.788C30.872 80.236 30.876 80.576 30.884 80.808C30.94 82.352 31.664 83.124 33.056 83.124C33.656 83.124 34.136 83 34.496 82.752C34.856 82.504 35.104 82.076 35.24 81.468C35.264 81.372 35.3 81.304 35.348 81.264C35.396 81.224 35.46 81.204 35.54 81.204H36.14C36.212 81.204 36.272 81.228 36.32 81.276C36.376 81.316 36.404 81.372 36.404 81.444C36.38 81.908 36.24 82.344 35.984 82.752C35.736 83.16 35.364 83.492 34.868 83.748C34.372 83.996 33.768 84.12 33.056 84.12ZM41.5165 84.12C40.4765 84.12 39.6725 83.848 39.1045 83.304C38.5365 82.752 38.2365 81.924 38.2045 80.82C38.1965 80.58 38.1925 80.24 38.1925 79.8C38.1925 79.36 38.1965 79.024 38.2045 78.792C38.2365 77.704 38.5445 76.88 39.1285 76.32C39.7205 75.76 40.5165 75.48 41.5165 75.48C42.5165 75.48 43.3085 75.76 43.8925 76.32C44.4765 76.88 44.7845 77.704 44.8165 78.792C44.8325 79.256 44.8405 79.592 44.8405 79.8C44.8405 80 44.8325 80.34 44.8165 80.82C44.7845 81.924 44.4845 82.752 43.9165 83.304C43.3565 83.848 42.5565 84.12 41.5165 84.12ZM41.5165 83.124C42.1565 83.124 42.6685 82.932 43.0525 82.548C43.4365 82.156 43.6445 81.56 43.6765 80.76C43.6925 80.28 43.7005 79.96 43.7005 79.8C43.7005 79.624 43.6925 79.304 43.6765 78.84C43.6445 78.04 43.4365 77.444 43.0525 77.052C42.6685 76.66 42.1565 76.464 41.5165 76.464C40.8765 76.464 40.3605 76.66 39.9685 77.052C39.5845 77.444 39.3805 78.04 39.3565 78.84C39.3485 79.072 39.3445 79.392 39.3445 79.8C39.3445 80.2 39.3485 80.52 39.3565 80.76C39.3805 81.56 39.5845 82.156 39.9685 82.548C40.3525 82.932 40.8685 83.124 41.5165 83.124ZM47.3701 84C47.2901 84 47.2221 83.976 47.1661 83.928C47.1181 83.872 47.0941 83.804 47.0941 83.724V75.888C47.0941 75.8 47.1181 75.732 47.1661 75.684C47.2141 75.628 47.2821 75.6 47.3701 75.6H47.9341C48.0781 75.6 48.1781 75.66 48.2341 75.78L50.7901 80.688L53.3701 75.78C53.4341 75.66 53.5301 75.6 53.6581 75.6H54.2221C54.3101 75.6 54.3781 75.628 54.4261 75.684C54.4741 75.732 54.4981 75.8 54.4981 75.888V83.724C54.4981 83.804 54.4701 83.872 54.4141 83.928C54.3661 83.976 54.3021 84 54.2221 84H53.6701C53.5901 84 53.5261 83.976 53.4781 83.928C53.4301 83.872 53.4061 83.804 53.4061 83.724V77.76L51.3541 81.732C51.2741 81.9 51.1461 81.984 50.9701 81.984H50.6101C50.4421 81.984 50.3141 81.9 50.2261 81.732L48.1861 77.76V83.724C48.1861 83.804 48.1581 83.872 48.1021 83.928C48.0541 83.976 47.9901 84 47.9101 84H47.3701ZM57.3538 84C57.2738 84 57.2098 83.976 57.1618 83.928C57.1138 83.872 57.0898 83.804 57.0898 83.724V75.888C57.0898 75.8 57.1138 75.732 57.1618 75.684C57.2098 75.628 57.2738 75.6 57.3538 75.6H60.3898C61.2938 75.6 62.0018 75.82 62.5138 76.26C63.0338 76.692 63.2938 77.324 63.2938 78.156C63.2938 78.988 63.0338 79.62 62.5138 80.052C62.0018 80.484 61.2938 80.7 60.3898 80.7H58.2298V83.724C58.2298 83.804 58.2018 83.872 58.1458 83.928C58.0978 83.976 58.0338 84 57.9538 84H57.3538ZM60.3298 79.728C61.5378 79.728 62.1418 79.204 62.1418 78.156C62.1418 77.644 61.9898 77.252 61.6858 76.98C61.3898 76.708 60.9378 76.572 60.3298 76.572H58.2298V79.728H60.3298ZM65.5212 84C65.4412 84 65.3772 83.976 65.3292 83.928C65.2812 83.872 65.2572 83.804 65.2572 83.724V75.876C65.2572 75.796 65.2812 75.732 65.3292 75.684C65.3772 75.628 65.4412 75.6 65.5212 75.6H66.1212C66.2012 75.6 66.2652 75.628 66.3132 75.684C66.3612 75.732 66.3852 75.796 66.3852 75.876V82.992H70.3932C70.4812 82.992 70.5492 83.02 70.5972 83.076C70.6532 83.124 70.6812 83.188 70.6812 83.268V83.724C70.6812 83.804 70.6532 83.872 70.5972 83.928C70.5412 83.976 70.4732 84 70.3932 84H65.5212ZM72.7278 84C72.6478 84 72.5838 83.976 72.5358 83.928C72.4878 83.872 72.4638 83.804 72.4638 83.724V75.888C72.4638 75.8 72.4878 75.732 72.5358 75.684C72.5838 75.628 72.6478 75.6 72.7278 75.6H77.6598C77.7478 75.6 77.8158 75.628 77.8638 75.684C77.9198 75.732 77.9478 75.8 77.9478 75.888V76.32C77.9478 76.4 77.9198 76.464 77.8638 76.512C77.8158 76.56 77.7478 76.584 77.6598 76.584H73.5678V79.26H77.3958C77.4838 79.26 77.5518 79.288 77.5998 79.344C77.6558 79.392 77.6838 79.46 77.6838 79.548V79.956C77.6838 80.036 77.6558 80.104 77.5998 80.16C77.5518 80.208 77.4838 80.232 77.3958 80.232H73.5678V83.004H77.7558C77.8438 83.004 77.9118 83.032 77.9598 83.088C78.0158 83.136 78.0438 83.204 78.0438 83.292V83.724C78.0438 83.804 78.0158 83.872 77.9598 83.928C77.9038 83.976 77.8358 84 77.7558 84H72.7278ZM82.3214 84C82.2414 84 82.1734 83.976 82.1174 83.928C82.0694 83.872 82.0454 83.804 82.0454 83.724V76.632H79.7294C79.6494 76.632 79.5814 76.608 79.5254 76.56C79.4774 76.504 79.4534 76.436 79.4534 76.356V75.888C79.4534 75.8 79.4774 75.732 79.5254 75.684C79.5814 75.628 79.6494 75.6 79.7294 75.6H85.4894C85.5774 75.6 85.6454 75.628 85.6934 75.684C85.7414 75.732 85.7654 75.8 85.7654 75.888V76.356C85.7654 76.436 85.7374 76.504 85.6814 76.56C85.6334 76.608 85.5694 76.632 85.4894 76.632H83.1854V83.724C83.1854 83.804 83.1574 83.872 83.1014 83.928C83.0454 83.976 82.9774 84 82.8974 84H82.3214ZM87.8792 84C87.7992 84 87.7352 83.976 87.6872 83.928C87.6392 83.872 87.6152 83.804 87.6152 83.724V75.888C87.6152 75.8 87.6392 75.732 87.6872 75.684C87.7352 75.628 87.7992 75.6 87.8792 75.6H92.8112C92.8992 75.6 92.9672 75.628 93.0152 75.684C93.0712 75.732 93.0992 75.8 93.0992 75.888V76.32C93.0992 76.4 93.0712 76.464 93.0152 76.512C92.9672 76.56 92.8992 76.584 92.8112 76.584H88.7192V79.26H92.5472C92.6352 79.26 92.7032 79.288 92.7512 79.344C92.8072 79.392 92.8352 79.46 92.8352 79.548V79.956C92.8352 80.036 92.8072 80.104 92.7512 80.16C92.7032 80.208 92.6352 80.232 92.5472 80.232H88.7192V83.004H92.9072C92.9952 83.004 93.0632 83.032 93.1112 83.088C93.1672 83.136 93.1952 83.204 93.1952 83.292V83.724C93.1952 83.804 93.1672 83.872 93.1112 83.928C93.0552 83.976 92.9872 84 92.9072 84H87.8792ZM95.6248 84C95.5448 84 95.4808 83.976 95.4328 83.928C95.3848 83.872 95.3608 83.804 95.3608 83.724V75.888C95.3608 75.8 95.3848 75.732 95.4328 75.684C95.4808 75.628 95.5448 75.6 95.6248 75.6H98.3368C99.5448 75.6 100.417 75.872 100.953 76.416C101.489 76.952 101.765 77.764 101.781 78.852C101.789 79.084 101.793 79.396 101.793 79.788C101.793 80.18 101.789 80.496 101.781 80.736C101.765 81.496 101.641 82.116 101.409 82.596C101.185 83.068 100.829 83.42 100.341 83.652C99.8528 83.884 99.2048 84 98.3968 84H95.6248ZM98.3368 83.004C98.8968 83.004 99.3408 82.928 99.6688 82.776C100.005 82.616 100.245 82.372 100.389 82.044C100.541 81.708 100.625 81.256 100.641 80.688C100.657 80.208 100.665 79.908 100.665 79.788C100.665 79.66 100.657 79.364 100.641 78.9C100.625 78.1 100.433 77.516 100.065 77.148C99.7048 76.772 99.1088 76.584 98.2768 76.584H96.4888V83.004H98.3368Z" fill="#7B89A6"/>
</svg>
