<svg width="250" height="250" viewBox="0 0 250 250" fill="none" xmlns="http://www.w3.org/2000/svg">
<path d="M250 0H0V250H250V0Z" fill="white"/>
<path d="M179.081 70.2917V171.375C179.081 173.958 176.915 176.042 174.248 176.042H75.6021C72.9354 176.042 70.7688 173.958 70.7688 171.375V154.875L70.8521 145.792V45.2917C70.8521 42.7083 73.0188 40.625 75.6854 40.625H171.54C175.706 40.625 179.102 43.8958 179.102 47.9375V65.5208L179.081 70.2917Z" fill="#EFEFEF"/>
<path d="M176.04 69.8543V171.479C176.04 174 173.956 176.021 171.373 176.021H75.4147C72.8313 176.021 70.748 173.979 70.748 171.479V155.396L70.8313 146.521V48.5002C70.8313 45.9793 72.9147 43.9585 75.498 43.9585H171.852C174.165 43.9585 176.04 45.7502 176.04 47.9585V69.8543Z" fill="#F9F9F9"/>
<path d="M178.581 70.4373C178.581 74.6457 178.581 78.8748 178.581 83.0831C178.581 92.854 178.581 102.604 178.581 112.375C178.581 123.25 178.581 134.104 178.581 144.979C178.581 152.604 178.581 160.25 178.581 167.875C178.581 169.083 178.623 170.291 178.581 171.521C178.519 173.937 176.685 175.812 174.248 175.833C173.664 175.833 173.102 175.833 172.519 175.833C165.664 175.833 158.81 175.833 151.956 175.833C141.248 175.833 130.539 175.833 119.831 175.833C109.852 175.833 99.8518 175.833 89.8727 175.833C85.206 175.833 80.5185 175.958 75.831 175.833C73.1018 175.75 71.2685 173.604 71.2477 170.958C71.2268 168.958 71.2477 166.958 71.2477 164.979C71.2477 161.354 71.2268 157.729 71.2477 154.104C71.2893 149.354 71.331 144.604 71.331 139.854C71.331 131.458 71.331 123.062 71.331 114.666C71.331 103.687 71.331 92.729 71.331 81.7498C71.331 72.5831 71.331 63.4165 71.331 54.2498C71.331 51.7706 71.331 49.2707 71.331 46.7915C71.331 46.2915 71.331 45.7915 71.331 45.2915C71.3727 42.9373 73.0602 40.9581 75.4977 40.8956C80.2685 40.7706 85.081 40.8956 89.8518 40.8956C99.956 40.8956 110.06 40.8956 120.164 40.8956C130.727 40.8956 141.31 40.8956 151.873 40.8956C158.06 40.8956 164.248 40.8956 170.435 40.8956C170.894 40.8956 171.352 40.8748 171.789 40.9165C175.602 41.1873 178.519 44.3748 178.581 48.1665C178.644 52.4582 178.581 56.729 178.581 61.0206C178.581 64.1248 178.581 67.2707 178.581 70.4373C178.581 70.6457 179.581 70.4998 179.581 70.1665C179.581 66.7706 179.581 63.354 179.581 59.9581C179.581 57.229 179.581 54.4998 179.581 51.7707C179.581 50.2707 179.685 48.729 179.56 47.2498C179.269 43.5415 176.06 40.729 172.435 40.4373C171.935 40.3957 171.414 40.4165 170.914 40.4165C168.664 40.4165 166.435 40.4165 164.185 40.4165C155.019 40.4165 145.852 40.4165 136.664 40.4165C125.602 40.4165 114.539 40.4165 103.477 40.4165C95.4977 40.4165 87.5393 40.4165 79.5602 40.4165C78.331 40.4165 77.1018 40.3957 75.8727 40.4165C72.9977 40.479 70.3935 42.4582 70.3102 45.4582C70.3102 45.854 70.3102 46.2498 70.3102 46.6457C70.3102 53.0623 70.3102 59.479 70.3102 65.8956C70.3102 76.6665 70.3102 87.4165 70.3102 98.1873C70.3102 108.562 70.3102 118.916 70.3102 129.291C70.3102 134.75 70.3102 140.187 70.3102 145.646C70.3102 152.5 70.2268 159.375 70.2268 166.229C70.2268 167.979 70.1852 169.729 70.2268 171.458C70.2893 174.312 72.6227 176.229 75.3727 176.271C76.7268 176.291 78.1018 176.271 79.456 176.271C87.4768 176.271 95.5185 176.271 103.539 176.271C114.644 176.271 125.727 176.271 136.831 176.271C146.185 176.271 155.56 176.271 164.914 176.271C167.435 176.271 169.977 176.271 172.498 176.271C172.977 176.271 173.435 176.271 173.914 176.271C176.31 176.229 178.769 174.875 179.394 172.396C179.727 171.062 179.539 169.437 179.539 168.083C179.539 165.021 179.539 161.937 179.539 158.875C179.539 149.041 179.539 139.229 179.539 129.396C179.539 118.333 179.539 107.291 179.539 96.229C179.539 88.6456 179.539 81.0415 179.539 73.4582C179.539 72.354 179.539 71.2498 179.539 70.1457C179.581 69.9582 178.581 70.104 178.581 70.4373Z" fill="#56627F"/>
<path d="M170.061 75.3743V162.979C170.061 165.208 168.248 167.02 166.019 167.02H83.8107C81.5815 167.02 79.769 165.208 79.769 162.979V148.687L79.8315 140.812V53.7077C79.8315 51.4785 81.644 49.666 83.8732 49.666H163.748C167.227 49.666 170.04 52.4993 170.04 55.9993V71.2493L170.061 75.3743Z" fill="#F9F9F9"/>
<path d="M167.519 74.9995V163.083C167.519 165.27 165.769 167.02 163.623 167.02H83.6441C81.4982 167.02 79.7482 165.25 79.7482 163.083V149.145L79.8107 141.458V56.4995C79.8107 54.312 81.5607 52.562 83.7066 52.562H163.998C165.936 52.562 167.498 54.1037 167.498 56.0203L167.519 74.9995Z" fill="white"/>
<path d="M169.56 77.479C169.56 80.3331 169.56 83.2081 169.56 86.0623C169.56 92.8956 169.56 99.729 169.56 106.562C169.56 114.812 169.56 123.062 169.56 131.312C169.56 138.437 169.56 145.541 169.56 152.666C169.56 156.104 169.623 159.541 169.56 162.979C169.519 164.896 168.29 166.729 166.248 166.791C166.019 166.791 165.79 166.791 165.581 166.791C164.019 166.791 162.477 166.791 160.915 166.791C154.644 166.791 148.352 166.791 142.081 166.791C133.873 166.791 125.685 166.791 117.477 166.791C110.102 166.791 102.727 166.791 95.3522 166.791C91.6438 166.791 87.9355 166.854 84.248 166.791C82.748 166.771 81.373 166 80.7063 164.604C80.1647 163.479 80.3105 162.166 80.3105 160.958C80.3105 157.25 80.3105 153.541 80.3105 149.833C80.3105 146.354 80.373 142.896 80.373 139.416C80.373 134.875 80.373 130.333 80.373 125.791C80.373 118.166 80.373 110.541 80.373 102.937C80.373 94.7706 80.373 86.604 80.373 78.4373C80.373 72.1665 80.373 65.8748 80.373 59.604C80.373 57.9373 80.373 56.2706 80.373 54.604C80.373 54.2915 80.373 53.9581 80.373 53.6456C80.4147 51.7498 81.6855 49.9581 83.7272 49.8956C87.8522 49.7915 91.9772 49.8956 96.1022 49.8956C104.123 49.8956 112.123 49.8956 120.144 49.8956C126.665 49.8956 133.165 49.8956 139.685 49.8956C140.706 49.8956 141.727 49.8956 142.727 49.8956C143.04 49.8956 143.81 49.4373 143.144 49.4373C139.185 49.4373 135.227 49.4373 131.269 49.4373C123.144 49.4373 115.04 49.4373 106.915 49.4373C100.29 49.4373 93.6438 49.4373 87.0188 49.4373C85.7688 49.4373 84.3938 49.2915 83.1438 49.5415C81.0188 49.9581 79.4355 51.6665 79.373 53.854C79.373 54.104 79.373 54.354 79.373 54.604C79.373 58.8956 79.373 63.1665 79.373 67.4581C79.373 75.0623 79.373 82.6456 79.373 90.2498C79.373 98.5831 79.373 106.896 79.373 115.229C79.373 121.708 79.373 128.208 79.373 134.687C79.373 137.479 79.373 140.291 79.3522 143.083C79.2897 149.375 79.3105 155.666 79.3105 161.958C79.3105 163.458 79.373 164.875 80.5188 166.021C81.4147 166.916 82.5813 167.25 83.8105 167.25C85.0397 167.271 86.2688 167.25 87.498 167.25C93.4772 167.25 99.4563 167.25 105.456 167.25C113.727 167.25 121.998 167.25 130.248 167.25C137.894 167.25 145.519 167.25 153.165 167.25C157.269 167.25 161.352 167.271 165.456 167.25C168.102 167.229 170.519 165.666 170.602 162.812C170.623 161.875 170.602 160.916 170.602 159.979C170.602 154.479 170.602 148.979 170.602 143.479C170.602 135.375 170.602 127.291 170.602 119.187C170.602 111.187 170.602 103.166 170.602 95.1665C170.602 89.9165 170.602 84.6873 170.602 79.4373C170.602 78.6873 170.602 77.9373 170.602 77.2081C170.56 76.9998 169.56 77.1456 169.56 77.479Z" fill="#56627F"/>
<path d="M111.31 125.667H93.498C92.4355 125.667 91.5813 124.812 91.5813 123.75V109.083C91.5813 108.021 92.4355 107.167 93.498 107.167H111.31C112.373 107.167 113.227 108.021 113.227 109.083V123.75C113.248 124.791 112.373 125.667 111.31 125.667Z" fill="#C6CAFC"/>
<path d="M98.9979 110.541C106.935 110.541 114.873 110.541 122.831 110.541C123.956 110.541 125.06 110.541 126.185 110.541C126.602 110.541 127.248 109.916 126.56 109.916C118.623 109.916 110.685 109.916 102.727 109.916C101.602 109.916 100.498 109.916 99.3729 109.916C98.9562 109.916 98.3104 110.541 98.9979 110.541Z" fill="#56627F"/>
<path d="M92.373 118.166C99.8313 118.166 107.269 118.166 114.727 118.166C126.581 118.166 138.435 118.166 150.29 118.166C152.977 118.166 155.665 118.166 158.373 118.166C158.727 118.166 159.456 117.624 158.769 117.624C151.31 117.624 143.873 117.624 136.415 117.624C124.56 117.624 112.706 117.624 100.852 117.624C98.1646 117.624 95.4771 117.624 92.7688 117.624C92.4146 117.624 91.7063 118.166 92.373 118.166Z" fill="#56627F"/>
<path d="M91.9563 123.374C99.4563 123.374 106.956 123.374 114.456 123.374C126.394 123.374 138.352 123.374 150.29 123.374C153.019 123.374 155.748 123.374 158.477 123.374C158.685 123.374 159.602 122.978 159.144 122.978C151.644 122.978 144.144 122.978 136.644 122.978C124.706 122.978 112.748 122.978 100.81 122.978C98.0813 122.978 95.3521 122.978 92.623 122.978C92.4146 122.978 91.498 123.374 91.9563 123.374Z" fill="#56627F"/>
<path d="M91.9771 128.52C96.5812 128.52 101.185 128.52 105.79 128.52C113.123 128.52 120.477 128.52 127.81 128.52C129.498 128.52 131.206 128.52 132.894 128.52C133.123 128.52 134.04 128.103 133.54 128.103C128.935 128.103 124.331 128.103 119.727 128.103C112.394 128.103 105.04 128.103 97.7062 128.103C96.0187 128.103 94.3104 128.103 92.6229 128.103C92.3937 128.103 91.4771 128.52 91.9771 128.52Z" fill="#56627F"/>
<path d="M111.248 94.9792H93.8312C92.6646 94.9792 91.7062 94.0208 91.7062 92.8542V78.5625C91.7062 77.3958 92.6646 76.4375 93.8312 76.4375H111.248C112.415 76.4375 113.373 77.3958 113.373 78.5625V92.8542C113.352 94.0417 112.415 94.9792 111.248 94.9792Z" fill="#C6CAFC"/>
<path d="M98.7682 79.9375C106.935 79.9375 115.081 79.9375 123.247 79.9375C124.393 79.9375 125.539 79.9375 126.664 79.9375C127.247 79.9375 127.435 79.1875 126.747 79.1875C118.581 79.1875 110.435 79.1875 102.268 79.1875C101.122 79.1875 99.9765 79.1875 98.8515 79.1875C98.289 79.1875 98.1015 79.9375 98.7682 79.9375Z" fill="#56627F"/>
<path d="M92.3724 87.5207C99.8307 87.5207 107.268 87.5207 114.727 87.5207C126.581 87.5207 138.435 87.5207 150.289 87.5207C152.977 87.5207 155.664 87.5207 158.372 87.5207C158.768 87.5207 159.435 86.9165 158.747 86.9165C151.289 86.9165 143.852 86.9165 136.393 86.9165C124.539 86.9165 112.685 86.9165 100.831 86.9165C98.1432 86.9165 95.4557 86.9165 92.7474 86.9165C92.3516 86.9165 91.7057 87.5207 92.3724 87.5207Z" fill="#56627F"/>
<path d="M92.2474 92.875C99.7474 92.875 107.247 92.875 114.747 92.875C126.685 92.875 138.643 92.875 150.581 92.875C153.31 92.875 156.039 92.875 158.768 92.875C159.352 92.875 159.539 92.125 158.852 92.125C151.352 92.125 143.852 92.125 136.352 92.125C124.414 92.125 112.456 92.125 100.518 92.125C97.7891 92.125 95.0599 92.125 92.3307 92.125C91.7682 92.125 91.5599 92.875 92.2474 92.875Z" fill="#56627F"/>
<path d="M92.0807 97.8958C96.6849 97.8958 101.289 97.8958 105.893 97.8958C113.227 97.8958 120.581 97.8958 127.914 97.8958C129.602 97.8958 131.31 97.8958 132.997 97.8958C133.352 97.8958 134.081 97.375 133.393 97.375C128.789 97.375 124.185 97.375 119.581 97.375C112.247 97.375 104.893 97.375 97.5599 97.375C95.8724 97.375 94.1641 97.375 92.4766 97.375C92.1432 97.375 91.4141 97.8958 92.0807 97.8958Z" fill="#56627F"/>
<path d="M157.415 80.0208C167.206 80.0208 175.144 72.0832 175.144 62.2917C175.144 52.5001 167.206 44.5625 157.415 44.5625C147.623 44.5625 139.686 52.5001 139.686 62.2917C139.686 72.0832 147.623 80.0208 157.415 80.0208Z" fill="#AFB4FA"/>
<path d="M216.709 195.431C216.551 195.635 215.448 195.839 213.085 196.076C196.563 197.724 177.028 197.214 160.033 197.214C128.111 197.231 96.1687 196.875 64.2663 196.875C44.3568 196.535 21.1783 195.652 40.9105 194.463C63.3407 193.104 87.6614 193.308 110.348 193.138C130.907 192.985 151.466 193.104 172.006 193.461C175.492 193.512 217.536 194.31 216.709 195.431Z" fill="#E8EEF9"/>
<path d="M162.658 61.9727C162.658 62.4588 162.269 62.8477 161.783 62.8477H158.283V66.1532C158.283 66.6393 157.894 67.0282 157.408 67.0282C156.922 67.0282 156.533 66.6393 156.533 66.1532V62.8477H153.227C152.741 62.8477 152.352 62.4588 152.352 61.9727C152.352 61.4865 152.741 61.0977 153.227 61.0977H156.533V57.5977C156.533 57.1115 156.922 56.7227 157.408 56.7227C157.894 56.7227 158.283 57.1115 158.283 57.5977V61.0977H161.783C162.269 61.0977 162.658 61.4865 162.658 61.9727Z" fill="white"/>
<path d="M126.932 136.81L134.995 153.039C135.307 153.643 135.89 154.081 136.557 154.164L154.495 156.727C156.203 156.977 156.89 159.06 155.661 160.268L142.724 172.956C142.245 173.435 142.015 174.123 142.14 174.789L145.265 192.643C145.557 194.331 143.786 195.643 142.265 194.831L126.203 186.435C125.599 186.123 124.87 186.123 124.265 186.435L108.224 194.935C106.703 195.748 104.911 194.456 105.203 192.748L108.224 174.873C108.328 174.206 108.12 173.518 107.62 173.039L94.5988 160.435C93.3696 159.248 94.0363 157.143 95.7446 156.893L113.682 154.227C114.349 154.123 114.932 153.706 115.245 153.081L123.224 136.81C123.953 135.268 126.161 135.268 126.932 136.81Z" fill="#FFDD85"/>
<path d="M126.599 140.873L133.661 155.081C133.932 155.623 134.432 155.998 135.036 156.081L150.745 158.31C152.245 158.518 152.828 160.352 151.766 161.414L140.432 172.518C139.995 172.935 139.807 173.539 139.911 174.123L142.641 189.768C142.891 191.248 141.349 192.393 140.016 191.685L125.953 184.331C125.432 184.06 124.786 184.06 124.266 184.331L110.245 191.768C108.911 192.477 107.349 191.352 107.599 189.852L110.245 174.206C110.349 173.623 110.141 173.018 109.724 172.602L98.3281 161.56C97.2448 160.518 97.8281 158.685 99.3281 158.456L115.036 156.123C115.62 156.039 116.141 155.664 116.411 155.123L123.391 140.873C123.995 139.518 125.932 139.518 126.599 140.873Z" fill="#FFE49D"/>
<path d="M126.286 137.039C127.744 139.998 129.224 142.935 130.682 145.893C131.599 147.748 132.536 149.623 133.453 151.477C133.994 152.56 134.432 154.018 135.724 154.393C136.682 154.685 137.786 154.706 138.786 154.852C140.974 155.164 143.182 155.477 145.369 155.789C147.474 156.081 149.599 156.393 151.703 156.685C152.869 156.852 154.661 156.789 155.349 157.935C156.286 159.498 154.807 160.602 153.828 161.581C152.369 162.998 150.932 164.414 149.474 165.852C147.036 168.248 144.411 170.518 142.119 173.06C141.161 174.102 141.515 175.248 141.724 176.477C142.078 178.456 142.411 180.435 142.765 182.414C143.369 185.852 144.203 189.352 144.578 192.81C144.724 194.102 143.869 195.31 142.474 194.706C142.057 194.518 141.661 194.268 141.244 194.06C139.494 193.143 137.744 192.227 135.994 191.31C132.849 189.664 129.744 187.914 126.536 186.373C125.265 185.768 124.14 186.268 123.015 186.852C121.411 187.706 119.828 188.539 118.224 189.393C116.161 190.477 114.119 191.56 112.057 192.664C110.724 193.373 109.411 194.185 108.036 194.789C107.015 195.227 105.932 194.727 105.599 193.623C105.453 193.102 105.557 192.602 105.64 192.102C105.932 190.414 106.203 188.727 106.494 187.018C107.161 183.102 107.807 179.206 108.474 175.289C108.661 174.164 108.328 173.331 107.536 172.56C106.349 171.414 105.161 170.248 103.953 169.102C101.078 166.31 98.2027 163.518 95.3069 160.727C94.911 160.352 94.536 159.998 94.3694 159.456C94.0777 158.435 94.6194 157.373 95.661 157.143C97.036 156.831 98.4944 156.727 99.911 156.518C104.078 155.893 108.224 155.289 112.39 154.664C113.64 154.477 114.869 154.289 115.557 153.06C116.119 152.039 116.578 150.956 117.099 149.914C118.994 146.06 120.869 142.206 122.765 138.352C122.994 137.893 123.203 137.435 123.432 136.977C124.161 135.706 125.599 135.81 126.286 137.039C126.432 137.31 127.39 136.956 127.286 136.768C126.224 134.893 123.474 135.31 122.536 137.06C121.89 138.268 121.328 139.539 120.724 140.768C118.828 144.623 116.953 148.477 115.057 152.331C114.911 152.643 114.765 152.956 114.599 153.248C114.161 154.039 113.619 154.102 112.89 154.206C111.057 154.477 109.224 154.748 107.39 155.018C103.557 155.581 99.7027 156.102 95.8902 156.727C93.9735 157.039 92.3902 158.956 93.9944 160.685C94.7444 161.498 95.5985 162.248 96.411 163.018C99.5569 166.081 102.724 169.123 105.869 172.185C106.765 173.06 107.744 173.768 107.578 175.185C107.39 176.643 107.078 178.102 106.849 179.56C106.14 183.748 105.432 187.914 104.744 192.102C104.682 192.456 104.599 192.831 104.578 193.206C104.515 194.518 105.619 195.477 106.89 195.498C108.099 195.498 109.286 194.664 110.307 194.123C114.224 192.06 118.14 189.977 122.036 187.914C123.078 187.352 124.411 186.248 125.64 186.748C126.849 187.227 128.015 187.998 129.182 188.602C133.015 190.602 136.828 192.602 140.661 194.602C141.911 195.248 143.14 195.789 144.515 194.956C146.015 194.039 145.64 192.581 145.411 191.164C144.661 186.852 143.911 182.539 143.161 178.227C142.953 177.081 142.682 175.914 142.557 174.768C142.411 173.268 143.869 172.289 144.828 171.352C147.994 168.248 151.161 165.143 154.328 162.039C155.078 161.31 156.411 160.352 156.661 159.268C157.099 157.373 155.39 156.706 153.911 156.498C149.724 155.893 145.515 155.31 141.328 154.706C139.869 154.498 138.39 154.373 136.953 154.081C135.578 153.81 135.203 152.581 134.64 151.477C132.682 147.539 130.724 143.602 128.765 139.643C128.286 138.685 127.828 137.748 127.349 136.789C127.161 136.498 126.203 136.831 126.286 137.039Z" fill="#56627F"/>
</svg>
