<svg width="49" height="48" viewBox="0 0 49 48" fill="none" xmlns="http://www.w3.org/2000/svg">
<circle cx="24.5" cy="24" r="24" fill="#8C95F8"/>
<path d="M19.0548 25.6667L24 23.6351L19.0548 22.3333L19 15.5384C19 15.466 19.0189 15.3949 19.0548 15.332C19.0907 15.2691 19.1423 15.2166 19.2046 15.1798C19.267 15.143 19.3378 15.123 19.4102 15.1219C19.4826 15.1208 19.5541 15.1385 19.6175 15.1734L35.0025 23.6351C35.0678 23.6711 35.1223 23.7239 35.1602 23.7881C35.1982 23.8523 35.2182 23.9255 35.2182 24.0001C35.2182 24.0747 35.1982 24.1479 35.1602 24.2121C35.1223 24.2763 35.0678 24.3291 35.0025 24.3651L19.6175 32.8268C19.5541 32.8617 19.4826 32.8794 19.4102 32.8783C19.3378 32.8772 19.267 32.8572 19.2046 32.8204C19.1423 32.7835 19.0907 32.7311 19.0548 32.6682C19.0189 32.6053 19 32.5342 19 32.4618L19.0548 25.6667Z" fill="white"/>
</svg>
