<svg width="32" height="32" viewBox="0 0 32 32" fill="none" xmlns="http://www.w3.org/2000/svg">
<path d="M20.2704 9.85742C20.3922 9.83031 20.4464 9.87097 20.5203 9.95229C20.9398 10.4194 22.2808 12.0594 22.6452 12.5067C22.7128 12.588 22.666 12.6766 22.6118 12.7235C19.905 14.8379 16.8931 17.8333 15.2148 19.9748C15.1815 20.0227 15.2086 20.0227 15.2357 20.0154C18.1591 18.7549 25.0272 16.7417 28.1203 16.1797V12.2564L16.0144 2.66663L3.8877 12.2491V16.5384C7.64294 14.3031 16.3319 10.8395 20.2704 9.85742Z" fill="#006AFF"/>
<path d="M10.416 26.3389C10.315 26.3931 10.2327 26.3796 10.1515 26.2983L7.8913 23.6011C7.83091 23.526 7.82363 23.4854 7.90483 23.3707C9.6518 20.809 13.2176 16.817 15.4913 15.1301C15.5319 15.103 15.5184 15.0686 15.4705 15.0894C13.102 15.862 6.36921 18.7625 3.87891 20.172V29.3332H28.1125V20.5109C24.8102 21.0728 14.9166 24.0213 10.416 26.3389Z" fill="#006AFF"/>
</svg>
