<svg width="16" height="16" viewBox="0 0 16 16" fill="none" xmlns="http://www.w3.org/2000/svg">
<path d="M7.33301 1.33325C10.645 1.33325 13.333 4.02125 13.333 7.33325C13.333 10.6453 10.645 13.3333 7.33301 13.3333C4.02101 13.3333 1.33301 10.6453 1.33301 7.33325C1.33301 4.02125 4.02101 1.33325 7.33301 1.33325ZM7.33301 11.9999C9.91101 11.9999 11.9997 9.91125 11.9997 7.33325C11.9997 4.75459 9.91101 2.66659 7.33301 2.66659C4.75434 2.66659 2.66634 4.75459 2.66634 7.33325C2.66634 9.91125 4.75434 11.9999 7.33301 11.9999ZM12.9897 12.0473L14.8757 13.9326L13.9323 14.8759L12.047 12.9899L12.9897 12.0473Z" fill="#7B89A6"/>
</svg>
