<svg width="17" height="17" viewBox="0 0 17 17" fill="none" xmlns="http://www.w3.org/2000/svg">
<path d="M7.33594 1.54376C10.6479 1.54376 13.3359 4.23176 13.3359 7.54376C13.3359 10.8558 10.6479 13.5438 7.33594 13.5438C4.02394 13.5438 1.33594 10.8558 1.33594 7.54376C1.33594 4.23176 4.02394 1.54376 7.33594 1.54376ZM7.33594 12.2104C9.91394 12.2104 12.0026 10.1218 12.0026 7.54376C12.0026 4.9651 9.91394 2.8771 7.33594 2.8771C4.75727 2.8771 2.66927 4.9651 2.66927 7.54376C2.66927 10.1218 4.75727 12.2104 7.33594 12.2104ZM12.9926 12.2578L14.8786 14.1431L13.9353 15.0864L12.0499 13.2004L12.9926 12.2578Z" fill="#7B89A6"/>
</svg>
