<svg width="16" height="17" viewBox="0 0 16 17" fill="none" xmlns="http://www.w3.org/2000/svg">
<path d="M2.66699 10.8533C2.66699 10.6611 2.77715 10.4859 2.95037 10.4026L6.1971 8.84191C6.34823 8.76926 6.34823 8.55406 6.1971 8.4814L2.95036 6.92058C2.77715 6.83731 2.66699 6.66213 2.66699 6.46994V2.30782C2.667 2.25345 2.68175 2.20002 2.70977 2.1528C2.7378 2.10558 2.77814 2.06619 2.82682 2.03853C2.87551 2.01086 2.93084 1.99587 2.98739 1.99503C3.04393 1.99419 3.09972 2.00753 3.14927 2.03374L15.1652 8.38758C15.2162 8.41459 15.2588 8.45427 15.2884 8.50248C15.318 8.55069 15.3337 8.60566 15.3337 8.66166C15.3337 8.71766 15.318 8.77263 15.2884 8.82084C15.2588 8.86905 15.2162 8.90873 15.1652 8.93574L3.14927 15.2896C3.09972 15.3158 3.04393 15.3291 2.98739 15.3283C2.93084 15.3274 2.87551 15.3125 2.82682 15.2848C2.77814 15.2571 2.7378 15.2177 2.70977 15.1705C2.68175 15.1233 2.667 15.0699 2.66699 15.0155V10.8533Z" fill="#D5DFEF"/>
</svg>
