<svg width="13" height="13" viewBox="0 0 13 13" fill="none" xmlns="http://www.w3.org/2000/svg">
<path d="M0.539364 7.69932L4.09305 6.23941L0.539364 5.30396L0.5 0.421073C0.500009 0.369043 0.513576 0.317913 0.539364 0.272722C0.565152 0.227532 0.60227 0.189842 0.647061 0.163366C0.691852 0.136891 0.742769 0.122544 0.794793 0.12174C0.846818 0.120936 0.898153 0.133702 0.943741 0.158781L11.9995 6.23941C12.0465 6.26526 12.0856 6.30323 12.1129 6.34937C12.1402 6.3955 12.1545 6.44811 12.1545 6.5017C12.1545 6.55529 12.1402 6.6079 12.1129 6.65404C12.0856 6.70018 12.0465 6.73815 11.9995 6.764L0.943741 12.8446C0.898153 12.8697 0.846818 12.8825 0.794793 12.8817C0.742769 12.8809 0.691852 12.8665 0.647061 12.84C0.60227 12.8136 0.565152 12.7759 0.539364 12.7307C0.513576 12.6855 0.500009 12.6344 0.5 12.5823L0.539364 7.69932Z" fill="white"/>
</svg>
