<svg width="56" height="56" viewBox="0 0 56 56" fill="none" xmlns="http://www.w3.org/2000/svg">
<path d="M10.5 45.9375H45.5C47.9062 45.9375 49.875 43.9688 49.875 41.5625V14.4375C49.875 12.0312 47.9062 10.0625 45.5 10.0625L10.5 10.0625C8.09375 10.0625 6.125 12.0312 6.125 14.4375L6.125 41.5625C6.125 43.9688 8.09375 45.9375 10.5 45.9375Z" fill="white"/>
<path d="M37.625 10.0625C37.625 5.25 41.5625 1.3125 46.375 1.3125C51.1875 1.3125 55.125 4.8125 55.125 9.625C55.125 14.4375 51.1875 18.8125 46.375 18.8125C41.5625 18.8125 37.625 14.875 37.625 10.0625Z" fill="#56ACD8"/>
<path d="M46.375 13.125C46.375 13.125 46.3313 13.125 46.375 13.125C45.9375 13.125 45.5875 12.9063 45.325 12.6L42.2625 8.66254C41.825 8.09379 41.9125 7.26254 42.4813 6.82504C43.05 6.38754 43.8813 6.47504 44.3188 7.04379L46.4188 9.75629L52.4125 3.06254C52.8938 2.53754 53.725 2.45004 54.25 2.97504C54.775 3.45629 54.8188 4.28754 54.3375 4.81254L47.3375 12.6875C47.1188 12.95 46.7688 13.125 46.375 13.125Z" fill="white"/>
<path d="M45.5 47.25H10.5C7.35 47.25 4.8125 44.7125 4.8125 41.5625L4.8125 20.125C4.8125 19.3812 5.38125 18.8125 6.125 18.8125C6.86875 18.8125 7.4375 19.3812 7.4375 20.125L7.4375 41.5625C7.4375 43.2687 8.79375 44.625 10.5 44.625H45.5C47.2062 44.625 48.5625 43.225 48.5625 42V22.3125C48.5625 21.5687 49.1312 21 49.875 21C50.6188 21 51.1875 21.5687 51.1875 22.3125V42C51.1875 44.8 48.5187 47.25 45.5 47.25Z" fill="#444B54"/>
<path d="M27.9998 30.1875C21.7873 30.1875 16.0123 27.7375 11.7248 23.2312C11.2435 22.7062 11.2435 21.875 11.7685 21.3937C12.2935 20.9125 13.1248 20.9125 13.606 21.4375C17.4123 25.375 22.4873 27.5625 27.956 27.5625C33.4248 27.5625 38.5435 25.375 42.306 21.4375C42.7873 20.9125 43.6185 20.9125 44.1435 21.3937C44.6685 21.875 44.6685 22.7062 44.1873 23.2312C39.9873 27.7375 34.2123 30.1875 27.9998 30.1875Z" fill="#444B54"/>
<path d="M6.125 15.75C5.38125 15.75 4.8125 15.1813 4.8125 14.4375C4.8125 11.2875 7.35 8.75 10.5 8.75L33.25 8.75C33.9937 8.75 34.5625 9.31875 34.5625 10.0625C34.5625 10.8063 33.9937 11.375 33.25 11.375L10.5 11.375C8.79375 11.375 7.4375 12.7313 7.4375 14.4375C7.4375 15.1813 6.86875 15.75 6.125 15.75Z" fill="#444B54"/>
</svg>
