<svg width="20" height="20" viewBox="0 0 20 20" fill="none" xmlns="http://www.w3.org/2000/svg">
<path d="M8.29488 1.84164C9.41898 1.60592 10.5797 1.60535 11.704 1.83998C11.7789 2.33438 11.9643 2.80555 12.2464 3.21846C12.5284 3.63137 12.8999 3.9754 13.3332 4.22498C13.7662 4.47542 14.25 4.62503 14.7488 4.66269C15.2475 4.70034 15.7484 4.62507 16.214 4.44248C16.9793 5.29919 17.5589 6.30501 17.9165 7.39664C17.526 7.70879 17.2108 8.10493 16.9944 8.55564C16.778 9.00634 16.6659 9.50001 16.6665 9.99998C16.6665 11.0533 17.1549 11.9925 17.9182 12.6033C17.5585 13.694 16.9781 14.6991 16.2132 15.5558C15.7477 15.3733 15.247 15.2981 14.7484 15.3358C14.2498 15.3735 13.7661 15.523 13.3332 15.7733C12.9003 16.0228 12.5291 16.3666 12.2472 16.7792C11.9653 17.1918 11.7799 17.6626 11.7049 18.1566C10.5809 18.3929 9.42016 18.394 8.29571 18.16C8.22116 17.6651 8.03596 17.1935 7.75389 16.7801C7.47182 16.3667 7.10015 16.0223 6.66654 15.7725C6.23351 15.5222 5.74963 15.3727 5.25087 15.3352C4.75211 15.2977 4.25131 15.3731 3.78571 15.5558C3.02037 14.6988 2.44071 13.6927 2.08321 12.6008C2.47354 12.2888 2.78859 11.893 3.00499 11.4426C3.22139 10.9922 3.33357 10.4988 3.33321 9.99914C3.33362 9.49904 3.2213 9.00528 3.0046 8.55457C2.7879 8.10386 2.4724 7.70779 2.08154 7.39581C2.44127 6.30508 3.02164 5.30006 3.78654 4.44331C4.25209 4.62577 4.75277 4.70097 5.25137 4.66332C5.74998 4.62566 6.23368 4.47612 6.66654 4.22581C7.0995 3.97631 7.4707 3.6325 7.75259 3.2199C8.03449 2.8073 8.21983 2.33651 8.29488 1.84248V1.84164ZM9.99988 12.5C10.6629 12.5 11.2988 12.2366 11.7676 11.7677C12.2365 11.2989 12.4999 10.663 12.4999 9.99998C12.4999 9.33693 12.2365 8.70105 11.7676 8.23221C11.2988 7.76337 10.6629 7.49998 9.99988 7.49998C9.33683 7.49998 8.70095 7.76337 8.23211 8.23221C7.76327 8.70105 7.49988 9.33693 7.49988 9.99998C7.49988 10.663 7.76327 11.2989 8.23211 11.7677C8.70095 12.2366 9.33683 12.5 9.99988 12.5Z" fill="#7B89A6"/>
</svg>
