<svg width="16" height="16" viewBox="0 0 16 16" fill="none" xmlns="http://www.w3.org/2000/svg">
<path d="M6.63601 1.47331C7.5353 1.28474 8.46387 1.28428 9.36334 1.47198C9.42326 1.86751 9.57156 2.24444 9.7972 2.57477C10.0228 2.90509 10.32 3.18032 10.6667 3.37998C11.0131 3.58033 11.4001 3.70002 11.7991 3.73015C12.1982 3.76027 12.5988 3.70006 12.9713 3.55398C13.5835 4.23935 14.0473 5.04401 14.3333 5.91731C14.0209 6.16703 13.7688 6.48395 13.5956 6.84451C13.4225 7.20507 13.3329 7.60001 13.3333 7.99998C13.3333 8.84265 13.724 9.59398 14.3347 10.0826C14.0469 10.9552 13.5826 11.7592 12.9707 12.4446C12.5982 12.2987 12.1977 12.2385 11.7988 12.2686C11.3999 12.2988 11.013 12.4184 10.6667 12.6186C10.3203 12.8183 10.0234 13.0933 9.79784 13.4234C9.57232 13.7535 9.42404 14.1301 9.36401 14.5253C8.46482 14.7143 7.53624 14.7152 6.63668 14.528C6.57704 14.1321 6.42888 13.7548 6.20323 13.4241C5.97757 13.0934 5.68023 12.8179 5.33334 12.618C4.98692 12.4177 4.59981 12.2982 4.2008 12.2682C3.8018 12.2381 3.40116 12.2985 3.02868 12.4446C2.41641 11.7591 1.95268 10.9542 1.66668 10.0806C1.97894 9.83107 2.23098 9.51437 2.4041 9.15405C2.57722 8.79374 2.66696 8.39906 2.66668 7.99931C2.667 7.59924 2.57715 7.20423 2.40379 6.84366C2.23043 6.48309 1.97803 6.16623 1.66534 5.91665C1.95312 5.04406 2.41742 4.24005 3.02934 3.55465C3.40178 3.70062 3.80232 3.76078 4.20121 3.73066C4.60009 3.70053 4.98706 3.5809 5.33334 3.38065C5.67971 3.18105 5.97667 2.906 6.20218 2.57592C6.4277 2.24584 6.57598 1.86921 6.63601 1.47398V1.47331ZM8.00001 9.99998C8.53044 9.99998 9.03915 9.78927 9.41422 9.4142C9.7893 9.03912 10 8.53041 10 7.99998C10 7.46955 9.7893 6.96084 9.41422 6.58577C9.03915 6.21069 8.53044 5.99998 8.00001 5.99998C7.46958 5.99998 6.96087 6.21069 6.5858 6.58577C6.21072 6.96084 6.00001 7.46955 6.00001 7.99998C6.00001 8.53041 6.21072 9.03912 6.5858 9.4142C6.96087 9.78927 7.46958 9.99998 8.00001 9.99998Z" fill="#717CEF"/>
</svg>
