<svg width="64" height="64" viewBox="0 0 64 64" fill="none" xmlns="http://www.w3.org/2000/svg">
<path d="M12 52.5H52C54.75 52.5 57 50.25 57 47.5V16.5C57 13.75 54.75 11.5 52 11.5H12C9.25 11.5 7 13.75 7 16.5V47.5C7 50.25 9.25 52.5 12 52.5Z" fill="#71C2FF"/>
<path d="M52 54H12C8.4 54 5.5 51.1 5.5 47.5V23C5.5 22.15 6.15 21.5 7 21.5C7.85 21.5 8.5 22.15 8.5 23V47.5C8.5 49.45 10.05 51 12 51H52C53.95 51 55.5 49.4 55.5 48V23C55.5 22.15 56.15 21.5 57 21.5C57.85 21.5 58.5 22.15 58.5 23V48C58.5 51.2 55.45 54 52 54Z" fill="#444B54"/>
<g filter="url(#filter0_d)">
<path d="M31.9999 34.4999C24.8999 34.4999 18.2999 31.6999 13.3999 26.5499C12.8499 25.9499 12.8499 24.9999 13.4499 24.4499C14.0499 23.8999 14.9999 23.8999 15.5499 24.4999C19.8999 28.9999 25.6999 31.4999 31.9499 31.4999C38.1999 31.4999 44.0499 28.9999 48.3499 24.4999C48.8999 23.8999 49.8499 23.8999 50.4499 24.4499C51.0499 24.9999 51.0499 25.9499 50.4999 26.5499C45.6999 31.6999 39.0999 34.4999 31.9999 34.4999Z" fill="white"/>
</g>
<path d="M57 18C56.15 18 55.5 17.35 55.5 16.5C55.5 14.55 53.95 13 52 13H12C10.05 13 8.5 14.55 8.5 16.5C8.5 17.35 7.85 18 7 18C6.15 18 5.5 17.35 5.5 16.5C5.5 12.9 8.4 10 12 10H52C55.6 10 58.5 12.9 58.5 16.5C58.5 17.35 57.85 18 57 18Z" fill="#444B54"/>
<defs>
<filter id="filter0_d" x="6.99341" y="22.0435" width="49.9129" height="22.4565" filterUnits="userSpaceOnUse" color-interpolation-filters="sRGB">
<feFlood flood-opacity="0" result="BackgroundImageFix"/>
<feColorMatrix in="SourceAlpha" type="matrix" values="0 0 0 0 0 0 0 0 0 0 0 0 0 0 0 0 0 0 127 0"/>
<feOffset dy="4"/>
<feGaussianBlur stdDeviation="3"/>
<feColorMatrix type="matrix" values="0 0 0 0 0 0 0 0 0 0.153 0 0 0 0 0.45 0 0 0 0.04 0"/>
<feBlend mode="normal" in2="BackgroundImageFix" result="effect1_dropShadow"/>
<feBlend mode="normal" in="SourceGraphic" in2="effect1_dropShadow" result="shape"/>
</filter>
</defs>
</svg>
