<svg width="44" height="44" viewBox="0 0 44 44" fill="none" xmlns="http://www.w3.org/2000/svg">
<circle cx="22" cy="22" r="22" fill="#8C95F8"/>
<path fill-rule="evenodd" clip-rule="evenodd" d="M15.6017 30.6967C16.3064 30.1431 17.1766 29.8421 18.0728 29.8421H27C29.7614 29.8421 32 27.6035 32 24.8421V18C32 15.2386 29.7614 13 27 13L17 13C14.2386 13 12 15.2386 12 18V32.4977C12 32.9149 12.4808 33.1486 12.8089 32.8908L15.6017 30.6967ZM22 20C21.4477 20 21 20.4477 21 21C21 21.5523 21.4477 22 22 22C22.5523 22 23 21.5523 23 21C23 20.4477 22.5523 20 22 20ZM18 20C17.4477 20 17 20.4477 17 21C17 21.5523 17.4477 22 18 22C18.5523 22 19 21.5523 19 21C19 20.4477 18.5523 20 18 20ZM26 20C25.4477 20 25 20.4477 25 21C25 21.5523 25.4477 22 26 22C26.5523 22 27 21.5523 27 21C27 20.4477 26.5523 20 26 20Z" fill="white"/>
</svg>
