<svg width="250" height="251" viewBox="0 0 250 251" fill="none" xmlns="http://www.w3.org/2000/svg">
<path d="M250 250.003H0V0.00341659H250V250.003Z" fill="white"/>
<path d="M180.129 123.272L60.2629 123.44C58.329 123.443 56.7588 121.877 56.7561 119.943L56.7161 91.3508C56.7134 89.4169 58.2792 87.8466 60.2131 87.8439L180.079 87.6764C182.013 87.6737 183.583 89.2396 183.586 91.1735L183.626 119.766C183.629 121.7 182.063 123.27 180.129 123.272Z" fill="#EFF3FC"/>
<path d="M183.719 126.276C181.91 126.279 180.101 126.281 178.292 126.284C173.532 126.291 168.772 126.297 164.012 126.304C157.3 126.313 150.589 126.323 143.877 126.332C136.215 126.343 128.552 126.354 120.89 126.364C113.308 126.375 105.727 126.385 98.1453 126.396C91.5736 126.405 85.002 126.414 78.4303 126.424C73.9032 126.43 69.3761 126.436 64.849 126.443C63.668 126.444 62.4872 126.446 61.3061 126.448C59.8234 126.45 58.3997 126.274 57.6036 124.736C57.2051 123.967 57.2307 123.192 57.2297 122.365C57.2282 121.33 57.2267 120.295 57.2253 119.259C57.2205 115.817 57.2157 112.374 57.2109 108.932C57.2026 103.008 57.1592 97.0827 57.1859 91.1588C57.1947 89.2431 58.368 87.7881 60.3165 87.7783C61.2636 87.7736 62.2109 87.7756 63.158 87.7744C67.289 87.7685 71.4201 87.7627 75.5511 87.7571C81.8855 87.7481 88.2199 87.7394 94.5542 87.7304C102.08 87.72 109.605 87.7094 117.131 87.699C124.848 87.6881 132.564 87.6773 140.281 87.6665C147.188 87.6569 154.096 87.6473 161.004 87.6375C166.086 87.6304 171.167 87.6233 176.249 87.6163C178.549 87.6131 180.862 87.5431 183.162 87.6067C184.559 87.6452 185.765 88.4181 186.232 89.7702C186.457 90.4223 186.407 91.1269 186.408 91.8056C186.412 94.4515 186.415 97.0971 186.419 99.7427C186.429 106.705 186.438 113.667 186.448 120.63C186.451 122.875 186.792 126.146 183.592 126.28C183.067 126.302 182.778 126.928 183.471 126.899C185.594 126.81 187.392 125.267 187.462 123.083C187.479 122.555 187.461 122.023 187.46 121.494C187.456 118.527 187.452 115.56 187.448 112.593C187.438 105.786 187.429 98.9806 187.419 92.1748C187.418 91.6746 187.432 91.1721 187.417 90.6721C187.356 88.5683 185.746 87.0475 183.663 86.9808C183.145 86.9642 182.624 86.9823 182.106 86.9829C178.516 86.9879 174.926 86.9929 171.336 86.9979C165.264 87.0065 159.192 87.015 153.119 87.0236C145.611 87.034 138.102 87.0444 130.593 87.055C122.668 87.0661 114.744 87.0771 106.819 87.0881C99.6057 87.0983 92.3922 87.1083 85.1788 87.1185C79.6965 87.126 74.2142 87.1338 68.7317 87.1415C66.0309 87.1452 63.3299 87.1398 60.629 87.1527C58.358 87.1638 56.2499 88.5079 56.1749 90.9721C56.1207 92.7575 56.1799 94.5538 56.1824 96.3396C56.1926 103.641 56.2028 110.943 56.213 118.244C56.2155 119.956 56.1699 121.675 56.2203 123.386C56.2903 125.77 58.199 127.077 60.4124 127.074C63.2101 127.07 66.0076 127.066 68.8053 127.062C74.3561 127.054 79.907 127.047 85.4576 127.039C92.7413 127.029 100.025 127.019 107.308 127.008C115.203 126.997 123.098 126.986 130.993 126.975C138.473 126.965 145.954 126.954 153.434 126.944C159.468 126.935 165.501 126.927 171.534 126.919C175.009 126.914 178.485 126.909 181.96 126.904C182.421 126.903 182.882 126.903 183.343 126.902C183.757 126.901 184.397 126.276 183.719 126.276Z" fill="#B4C0D4"/>
<path d="M180.129 79.1062L60.2629 79.2739C58.329 79.2766 56.7588 77.7108 56.7561 75.7768L56.7161 47.1845C56.7134 45.2506 58.2792 43.6804 60.2131 43.6777L180.079 43.5102C182.013 43.5075 183.583 45.0733 183.586 47.0073L183.626 75.5993C183.629 77.5335 182.063 79.1035 180.129 79.1062Z" fill="#EFF3FC"/>
<path d="M72.6637 62.4586C79.5058 62.4586 86.3764 62.4586 93.2186 62.4586C104.08 62.4586 114.971 62.4586 125.833 62.4586C128.342 62.4586 130.85 62.4586 133.388 62.4586C133.872 62.4586 134.87 61.7459 133.929 61.7459C127.087 61.7459 120.216 61.7459 113.374 61.7459C102.512 61.7459 91.6221 61.7459 80.7602 61.7459C78.2514 61.7459 75.7426 61.7459 73.2053 61.7459C72.7492 61.7174 71.7514 62.4586 72.6637 62.4586Z" fill="#B4C0D4"/>
<path d="M72.8225 106.252C82.5895 106.252 92.3972 106.252 102.164 106.252C117.669 106.252 133.215 106.252 148.72 106.252C152.301 106.252 155.883 106.252 159.504 106.252C160.196 106.252 161.621 105.419 160.278 105.419C150.511 105.419 140.703 105.419 130.936 105.419C115.431 105.419 99.8852 105.419 84.3801 105.419C80.7989 105.419 77.2177 105.419 73.5958 105.419C72.9446 105.386 71.5203 106.252 72.8225 106.252Z" fill="#B4C0D4"/>
<path d="M183.719 82.1102C181.91 82.1127 180.101 82.1152 178.292 82.1179C173.532 82.1244 168.772 82.131 164.012 82.1377C157.3 82.1471 150.589 82.1565 143.877 82.1658C136.215 82.1767 128.552 82.1873 120.89 82.1981C113.308 82.2085 105.727 82.2192 98.1453 82.2298C91.5736 82.239 85.002 82.2481 78.4303 82.2575C73.9032 82.2638 69.3761 82.27 64.849 82.2765C63.668 82.2781 62.4872 82.2796 61.3061 82.2812C59.8234 82.2833 58.3997 82.1075 57.6036 80.5702C57.2051 79.8006 57.2307 79.0258 57.2297 78.199C57.2282 77.1635 57.2267 76.1283 57.2253 75.0931C57.2205 71.6504 57.2157 68.2079 57.2109 64.7654C57.2026 58.8415 57.1592 52.9165 57.1859 46.9925C57.1947 45.0769 58.368 43.6219 60.3165 43.6121C61.2636 43.6073 62.2109 43.6094 63.158 43.6081C67.289 43.6023 71.4201 43.5965 75.5511 43.5908C81.8855 43.5819 88.2199 43.5731 94.5542 43.5642C102.08 43.5537 109.605 43.5431 117.131 43.5327C124.848 43.5219 132.564 43.511 140.281 43.5002C147.188 43.4906 154.096 43.481 161.004 43.4713C166.086 43.4642 171.167 43.4571 176.249 43.45C178.549 43.4469 180.862 43.3769 183.162 43.4404C184.559 43.479 185.765 44.2519 186.232 45.604C186.457 46.256 186.407 46.9606 186.408 47.6394C186.412 50.2852 186.415 52.9308 186.419 55.5765C186.429 62.5388 186.438 69.501 186.448 76.4633C186.451 78.7087 186.792 81.98 183.592 82.114C183.067 82.1358 182.778 82.7613 183.471 82.7323C185.594 82.6435 187.392 81.1008 187.462 78.9171C187.479 78.3885 187.461 77.8562 187.46 77.3275C187.456 74.3604 187.452 71.3933 187.448 68.4262C187.438 61.6202 187.429 54.8144 187.419 48.0085C187.418 47.5083 187.432 47.0058 187.417 46.5058C187.356 44.4021 185.746 42.8812 183.663 42.8146C183.145 42.7979 182.624 42.816 182.106 42.8167C178.516 42.8217 174.926 42.8267 171.336 42.8317C165.264 42.8402 159.192 42.8488 153.119 42.8573C145.611 42.8677 138.102 42.8781 130.593 42.8888C122.668 42.8998 114.744 42.9108 106.819 42.9219C99.6057 42.9321 92.3922 42.9421 85.1788 42.9523C79.6965 42.9598 74.2142 42.9675 68.7317 42.9752C66.0309 42.979 63.3299 42.9735 60.629 42.9865C58.358 42.9975 56.2499 44.3417 56.1749 46.8058C56.1207 48.5912 56.1799 50.3875 56.1824 52.1733C56.1926 59.475 56.2028 66.7765 56.213 74.0781C56.2155 75.7896 56.1699 77.5088 56.2203 79.2198C56.2903 81.6033 58.199 82.9108 60.4124 82.9077C63.2101 82.9038 66.0076 82.8998 68.8053 82.896C74.3561 82.8881 79.907 82.8804 85.4576 82.8727C92.7413 82.8625 100.025 82.8523 107.308 82.8421C115.203 82.831 123.098 82.82 130.993 82.809C138.473 82.7985 145.954 82.7881 153.434 82.7777C159.468 82.7692 165.501 82.7608 171.534 82.7523C175.009 82.7475 178.485 82.7427 181.96 82.7379C182.421 82.7371 182.882 82.7365 183.343 82.7358C183.757 82.7352 184.397 82.1094 183.719 82.1102Z" fill="#B4C0D4"/>
<path d="M199.566 125.22C197.383 127.499 194.924 129.454 192.214 131.069C191.631 131.417 192.491 131.655 192.857 131.437C195.631 129.783 198.154 127.774 200.388 125.442C200.809 125.003 199.832 124.942 199.566 125.22Z" fill="#71BE9B"/>
<path d="M202.4 135.327C199.385 136.237 196.295 136.73 193.147 136.809C192.603 136.822 192.348 137.488 193.038 137.471C196.274 137.39 199.465 136.875 202.564 135.939C203.168 135.757 203.014 135.142 202.4 135.327Z" fill="#71BE9B"/>
<path d="M188.197 127.577C189.899 124.416 191.206 121.075 192.02 117.577C192.115 117.171 191.097 117.318 191.011 117.689C190.209 121.133 188.929 124.417 187.253 127.529C187.015 127.972 188.026 127.895 188.197 127.577Z" fill="#71BE9B"/>
<path d="M182.762 126.551C182.554 123.365 181.923 120.246 180.876 117.23C180.743 116.849 179.742 117.134 179.87 117.5C180.917 120.516 181.548 123.635 181.756 126.821C181.78 127.182 182.789 126.965 182.762 126.551Z" fill="#71BE9B"/>
<path d="M183.2 172.007L60.492 172.178C58.4145 172.181 56.7278 170.499 56.7249 168.422L56.6805 136.649C56.6776 134.572 58.3595 132.886 60.437 132.883L183.145 132.711C185.222 132.708 186.909 134.39 186.912 136.468L186.956 168.24C186.959 170.317 185.277 172.004 183.2 172.007Z" fill="#96D0A5"/>
<path d="M180.129 168.689L60.2628 168.857C58.3288 168.86 56.7586 167.294 56.7559 165.36L56.7159 136.768C56.7132 134.834 58.279 133.263 60.213 133.261L180.079 133.093C182.013 133.09 183.583 134.656 183.586 136.59L183.626 165.182C183.628 167.117 182.063 168.687 180.129 168.689Z" fill="#ABDCB3"/>
<path d="M180.554 168.689L63.2725 168.853C61.575 168.855 60.197 167.481 60.1948 165.784L60.1579 139.454C60.1556 137.757 61.5295 136.379 63.227 136.377L180.509 136.213C182.206 136.21 183.584 137.584 183.586 139.282L183.623 165.611C183.626 167.308 182.251 168.686 180.554 168.689Z" fill="#ABDCB3"/>
<path d="M208.28 208.499C208.137 208.684 207.135 208.869 204.987 209.085C189.969 210.583 172.213 210.12 156.765 210.12C127.75 210.135 98.7168 209.811 69.7195 209.811C51.6231 209.502 30.5553 208.699 48.4906 207.619C68.8782 206.384 90.9842 206.569 111.605 206.415C130.292 206.276 148.979 206.384 167.648 206.708C170.816 206.754 209.032 207.48 208.28 208.499Z" fill="#E8EEF9"/>
<path d="M183.719 171.693C181.91 171.696 180.101 171.698 178.292 171.701C173.532 171.707 168.772 171.714 164.011 171.721C157.3 171.73 150.588 171.739 143.877 171.749C136.214 171.76 128.552 171.77 120.889 171.781C113.308 171.792 105.726 171.802 98.1449 171.813C91.5733 171.822 85.0016 171.831 78.4299 171.841C73.9028 171.847 69.3758 171.853 64.8487 171.859C63.6676 171.861 62.4868 171.863 61.3058 171.864C59.823 171.866 58.3993 171.691 57.6033 170.153C57.2047 169.384 57.2303 168.609 57.2293 167.782C57.2278 166.747 57.2264 165.711 57.2249 164.676C57.2201 161.233 57.2153 157.791 57.2105 154.348C57.2022 148.424 57.1589 142.499 57.1855 136.576C57.1943 134.66 58.3676 133.205 60.3162 133.195C61.2633 133.19 62.2105 133.192 63.1576 133.191C67.2887 133.185 71.4197 133.179 75.5508 133.174C81.8851 133.165 88.2195 133.156 94.5539 133.147C102.08 133.137 109.605 133.126 117.131 133.116C124.847 133.105 132.564 133.094 140.28 133.083C147.188 133.074 154.096 133.064 161.004 133.054C166.085 133.047 171.167 133.04 176.248 133.033C178.549 133.03 180.861 132.96 183.161 133.023C184.559 133.062 185.765 133.835 186.232 135.187C186.457 135.839 186.406 136.544 186.407 137.222C186.411 139.868 186.415 142.514 186.418 145.159C186.428 152.122 186.438 159.084 186.448 166.046C186.451 168.292 186.792 171.563 183.591 171.697C183.066 171.719 182.777 172.344 183.47 172.315C185.594 172.227 187.391 170.684 187.462 168.5C187.479 167.972 187.46 167.439 187.46 166.911C187.456 163.943 187.451 160.976 187.447 158.009C187.438 151.203 187.428 144.397 187.419 137.592C187.418 137.091 187.431 136.589 187.417 136.089C187.355 133.985 185.746 132.464 183.662 132.398C183.145 132.381 182.624 132.399 182.106 132.4C178.516 132.405 174.926 132.41 171.336 132.415C165.263 132.423 159.191 132.432 153.119 132.44C145.61 132.451 138.101 132.461 130.593 132.472C122.668 132.483 114.743 132.494 106.819 132.505C99.6053 132.515 92.3918 132.525 85.1785 132.535C79.6962 132.543 74.2139 132.551 68.7314 132.558C66.0305 132.562 63.3295 132.557 60.6287 132.569C58.3576 132.581 56.2495 133.925 56.1745 136.389C56.1203 138.174 56.1795 139.971 56.182 141.756C56.1922 149.058 56.2024 156.359 56.2126 163.661C56.2151 165.373 56.1695 167.092 56.2199 168.803C56.2899 171.186 58.1987 172.494 60.412 172.491C63.2097 172.487 66.0072 172.483 68.8049 172.479C74.3558 172.471 79.9066 172.463 85.4572 172.456C92.741 172.446 100.025 172.435 107.308 172.425C115.203 172.414 123.098 172.403 130.993 172.392C138.473 172.382 145.953 172.371 153.434 172.361C159.467 172.352 165.501 172.344 171.534 172.335C175.009 172.331 178.485 172.326 181.96 172.321C182.421 172.32 182.881 172.319 183.342 172.319C183.756 172.318 184.397 171.692 183.719 171.693Z" fill="#56627F"/>
<path d="M78.5304 155.183C78.5314 155.996 78.3231 156.727 77.9052 157.376C77.4873 158.024 76.8752 158.532 76.0689 158.9C75.2625 159.268 74.306 159.453 73.1996 159.454C71.8731 159.456 70.7785 159.207 69.916 158.707C69.3041 158.347 68.8066 157.867 68.4239 157.265C68.041 156.663 67.8491 156.079 67.8483 155.51C67.8479 155.18 67.9621 154.897 68.191 154.661C68.42 154.426 68.7116 154.307 69.0662 154.307C69.3535 154.307 69.5964 154.398 69.7956 154.581C69.9943 154.764 70.1643 155.036 70.3056 155.396C70.4773 155.824 70.6629 156.181 70.8619 156.468C71.0608 156.756 71.3408 156.992 71.7018 157.178C72.0627 157.364 72.5366 157.456 73.1235 157.456C73.9304 157.455 74.5858 157.266 75.0896 156.889C75.5933 156.512 75.845 156.043 75.8441 155.48C75.8435 155.034 75.7069 154.672 75.4346 154.394C75.1621 154.117 74.8102 153.905 74.3791 153.759C73.9479 153.612 73.3714 153.457 72.65 153.293C71.6839 153.069 70.875 152.805 70.2235 152.503C69.5721 152.202 69.055 151.79 68.6723 151.268C68.2896 150.746 68.0975 150.097 68.0964 149.32C68.0954 148.581 68.2962 147.923 68.6987 147.348C69.1014 146.773 69.6846 146.33 70.4483 146.02C71.2118 145.711 72.1104 145.555 73.1435 145.554C73.9687 145.552 74.6827 145.654 75.285 145.858C75.8873 146.062 76.3875 146.333 76.7854 146.672C77.1831 147.01 77.4739 147.366 77.6581 147.739C77.8419 148.111 77.9341 148.475 77.9346 148.83C77.935 149.154 77.8208 149.446 77.5918 149.706C77.3631 149.966 77.0775 150.096 76.7352 150.097C76.4235 150.097 76.1862 150.02 76.0243 149.864C75.8621 149.708 75.6858 149.453 75.4958 149.099C75.2506 148.592 74.9566 148.196 74.6139 147.913C74.271 147.629 73.7208 147.488 72.9629 147.489C72.2598 147.49 71.6931 147.645 71.2625 147.954C70.8321 148.263 70.6171 148.635 70.6177 149.069C70.6179 149.338 70.6918 149.57 70.8387 149.766C70.9856 149.961 71.1877 150.129 71.4446 150.269C71.7014 150.41 71.9614 150.519 72.2246 150.598C72.4873 150.677 72.9214 150.793 73.5271 150.945C74.2852 151.121 74.9718 151.316 75.5864 151.529C76.201 151.742 76.7239 152.001 77.1554 152.306C77.5868 152.611 77.9235 152.997 78.1656 153.465C78.4077 153.932 78.5293 154.505 78.5304 155.183Z" fill="white"/>
<path d="M80.8574 153.658L80.8482 147.193C80.8476 146.643 80.9707 146.23 81.2178 145.955C81.4651 145.679 81.7903 145.541 82.1938 145.541C82.6155 145.54 82.9505 145.677 83.1984 145.952C83.4463 146.227 83.5709 146.639 83.5715 147.189L83.5809 153.801C83.5817 154.552 83.6667 155.18 83.8357 155.684C84.0044 156.189 84.3028 156.579 84.7311 156.857C85.1594 157.134 85.7588 157.273 86.529 157.272C87.5928 157.27 88.3442 156.987 88.7836 156.42C89.223 155.854 89.4417 154.997 89.4403 153.848L89.4309 147.181C89.4301 146.625 89.5517 146.211 89.7959 145.938C90.0399 145.666 90.3667 145.529 90.7765 145.529C91.1859 145.528 91.5178 145.664 91.7719 145.936C92.0259 146.207 92.1532 146.621 92.154 147.177L92.1632 153.642C92.1646 154.693 92.0634 155.571 91.8596 156.274C91.6559 156.977 91.2701 157.595 90.7024 158.128C90.2138 158.581 89.6459 158.912 88.9982 159.12C88.3505 159.329 87.5926 159.434 86.7246 159.435C85.6915 159.437 84.8019 159.326 84.0559 159.104C83.3096 158.882 82.7009 158.538 82.2296 158.071C81.7582 157.604 81.4121 157.005 81.1911 156.275C80.9699 155.545 80.8588 154.673 80.8574 153.658Z" fill="white"/>
<path d="M100.644 153.218L97.8108 153.222L97.8164 157.146L100.741 157.142C102.581 157.139 103.501 156.475 103.499 155.148C103.498 154.47 103.259 153.978 102.781 153.673C102.304 153.368 101.592 153.216 100.644 153.218ZM97.8033 147.793L97.8081 151.268L100.302 151.265C100.981 151.264 101.505 151.199 101.875 151.07C102.244 150.941 102.526 150.697 102.722 150.336C102.874 150.079 102.95 149.791 102.95 149.473C102.949 148.795 102.707 148.344 102.224 148.122C101.74 147.899 101.004 147.789 100.013 147.79L97.8033 147.793ZM100.855 159.187L96.7464 159.192C96.1535 159.193 95.73 159.061 95.476 158.795C95.2216 158.53 95.0945 158.107 95.0937 157.526L95.0793 147.421C95.0785 146.828 95.2079 146.402 95.4675 146.141C95.7266 145.881 96.1468 145.751 96.7277 145.75L101.083 145.744C101.725 145.743 102.281 145.782 102.752 145.861C103.223 145.94 103.645 146.092 104.018 146.317C104.336 146.507 104.618 146.746 104.863 147.036C105.108 147.326 105.295 147.647 105.424 147.998C105.552 148.349 105.617 148.721 105.617 149.112C105.619 150.457 104.948 151.442 103.605 152.067C105.372 152.627 106.257 153.72 106.259 155.346C106.26 156.098 106.068 156.776 105.684 157.378C105.3 157.981 104.781 158.426 104.127 158.714C103.718 158.886 103.247 159.008 102.716 159.079C102.184 159.15 101.564 159.186 100.855 159.187Z" fill="white"/>
<path d="M118.83 155.127C118.831 155.94 118.623 156.67 118.205 157.319C117.787 157.967 117.175 158.476 116.369 158.844C115.562 159.212 114.606 159.396 113.499 159.398C112.173 159.4 111.078 159.151 110.216 158.651C109.604 158.291 109.107 157.81 108.724 157.208C108.341 156.607 108.149 156.022 108.148 155.453C108.148 155.123 108.262 154.84 108.491 154.605C108.72 154.369 109.012 154.251 109.366 154.25C109.653 154.25 109.896 154.341 110.095 154.524C110.294 154.708 110.464 154.979 110.605 155.34C110.777 155.767 110.963 156.125 111.162 156.412C111.361 156.699 111.641 156.935 112.002 157.121C112.363 157.307 112.837 157.4 113.423 157.399C114.23 157.398 114.886 157.209 115.389 156.832C115.893 156.456 116.145 155.986 116.144 155.424C116.143 154.977 116.007 154.616 115.734 154.338C115.462 154.06 115.11 153.848 114.679 153.702C114.248 153.556 113.671 153.401 112.95 153.237C111.984 153.012 111.175 152.749 110.523 152.447C109.872 152.145 109.355 151.733 108.972 151.211C108.589 150.689 108.397 150.04 108.396 149.264C108.395 148.524 108.596 147.867 108.999 147.291C109.401 146.716 109.984 146.274 110.748 145.964C111.512 145.654 112.41 145.498 113.443 145.497C114.269 145.496 114.983 145.597 115.585 145.801C116.187 146.005 116.687 146.276 117.085 146.615C117.483 146.954 117.774 147.31 117.958 147.682C118.142 148.055 118.234 148.419 118.234 148.773C118.235 149.097 118.121 149.389 117.892 149.649C117.663 149.909 117.377 150.04 117.035 150.04C116.723 150.04 116.486 149.963 116.324 149.807C116.162 149.651 115.986 149.397 115.796 149.042C115.55 148.535 115.257 148.14 114.914 147.856C114.571 147.572 114.021 147.431 113.263 147.432C112.56 147.433 111.993 147.588 111.562 147.897C111.132 148.207 110.917 148.579 110.918 149.012C110.918 149.282 110.992 149.514 111.139 149.709C111.285 149.905 111.488 150.072 111.744 150.212C112.001 150.353 112.261 150.462 112.524 150.541C112.787 150.621 113.221 150.736 113.827 150.888C114.585 151.064 115.272 151.259 115.886 151.472C116.501 151.685 117.024 151.944 117.455 152.249C117.887 152.554 118.223 152.94 118.465 153.408C118.708 153.875 118.829 154.448 118.83 155.127Z" fill="white"/>
<path d="M132.593 154.897C132.594 155.325 132.489 155.788 132.279 156.286C132.069 156.785 131.738 157.274 131.286 157.755C130.834 158.235 130.257 158.626 129.554 158.926C128.852 159.227 128.033 159.378 127.098 159.379C126.389 159.38 125.744 159.313 125.163 159.18C124.582 159.046 124.054 158.838 123.58 158.554C123.106 158.271 122.67 157.897 122.272 157.433C121.917 157.011 121.613 156.54 121.362 156.017C121.111 155.495 120.922 154.937 120.796 154.345C120.67 153.752 120.606 153.122 120.605 152.456C120.604 151.374 120.76 150.405 121.073 149.548C121.387 148.692 121.837 147.96 122.423 147.351C123.009 146.742 123.696 146.278 124.484 145.958C125.272 145.64 126.112 145.48 127.005 145.478C128.093 145.477 129.062 145.692 129.913 146.125C130.763 146.558 131.415 147.094 131.868 147.732C132.321 148.37 132.548 148.973 132.549 149.542C132.549 149.853 132.44 150.129 132.22 150.367C132 150.606 131.735 150.726 131.423 150.726C131.074 150.727 130.813 150.645 130.638 150.48C130.464 150.315 130.269 150.031 130.055 149.628C129.699 148.962 129.282 148.464 128.801 148.135C128.321 147.805 127.729 147.641 127.026 147.642C125.908 147.644 125.017 148.07 124.355 148.92C123.693 149.771 123.363 150.979 123.365 152.544C123.367 153.589 123.515 154.459 123.809 155.152C124.104 155.845 124.52 156.363 125.058 156.704C125.597 157.046 126.227 157.216 126.948 157.215C127.73 157.214 128.392 157.019 128.932 156.63C129.473 156.241 129.88 155.671 130.154 154.918C130.27 154.564 130.413 154.275 130.584 154.051C130.755 153.828 131.03 153.716 131.409 153.715C131.733 153.715 132.011 153.828 132.244 154.053C132.476 154.279 132.593 154.56 132.593 154.897Z" fill="white"/>
<path d="M140.249 147.734L137.736 147.737L137.742 151.432L140.181 151.429C140.835 151.428 141.385 151.371 141.831 151.257C142.277 151.143 142.617 150.95 142.852 150.678C143.087 150.406 143.205 150.031 143.204 149.554C143.203 149.181 143.108 148.853 142.918 148.569C142.728 148.285 142.465 148.073 142.129 147.933C141.811 147.799 141.184 147.732 140.249 147.734ZM138.698 153.384L137.744 153.386L137.75 157.704C137.751 158.273 137.626 158.692 137.376 158.961C137.126 159.23 136.799 159.365 136.396 159.366C135.961 159.366 135.625 159.226 135.386 158.946C135.147 158.665 135.028 158.252 135.027 157.708L135.012 147.365C135.012 146.778 135.143 146.353 135.405 146.09C135.667 145.827 136.092 145.695 136.679 145.694L141.108 145.688C141.719 145.687 142.242 145.712 142.676 145.763C143.11 145.815 143.502 145.92 143.85 146.078C144.272 146.255 144.646 146.508 144.97 146.838C145.294 147.167 145.541 147.551 145.709 147.987C145.878 148.424 145.963 148.887 145.964 149.376C145.965 150.379 145.683 151.18 145.119 151.78C144.554 152.38 143.698 152.806 142.548 153.058C143.032 153.314 143.494 153.692 143.935 154.193C144.376 154.694 144.769 155.227 145.116 155.791C145.461 156.356 145.731 156.867 145.924 157.322C146.117 157.777 146.214 158.09 146.215 158.261C146.215 158.438 146.159 158.614 146.046 158.788C145.933 158.963 145.779 159.101 145.583 159.202C145.388 159.303 145.161 159.354 144.905 159.354C144.599 159.354 144.342 159.283 144.134 159.139C143.926 158.996 143.747 158.814 143.597 158.595C143.447 158.375 143.243 158.051 142.986 157.624L141.892 155.81C141.5 155.144 141.149 154.637 140.84 154.289C140.531 153.941 140.217 153.703 139.899 153.575C139.581 153.447 139.181 153.384 138.698 153.384Z" fill="white"/>
<path d="M148.662 157.689L148.647 147.098C148.646 146.548 148.771 146.135 149.022 145.86C149.272 145.584 149.596 145.446 149.993 145.446C150.402 145.445 150.734 145.581 150.988 145.853C151.242 146.124 151.37 146.538 151.371 147.094L151.385 157.685C151.386 158.241 151.26 158.657 151.006 158.933C150.753 159.208 150.422 159.346 150.012 159.347C149.621 159.347 149.298 159.209 149.044 158.931C148.79 158.653 148.663 158.239 148.662 157.689Z" fill="white"/>
<path d="M159.962 153.134L157.128 153.138L157.134 157.063L160.059 157.059C161.899 157.056 162.818 156.392 162.816 155.065C162.815 154.387 162.576 153.895 162.099 153.59C161.622 153.285 160.909 153.133 159.962 153.134ZM157.121 147.71L157.126 151.185L159.62 151.182C160.298 151.181 160.822 151.116 161.192 150.987C161.562 150.858 161.844 150.613 162.039 150.252C162.192 149.995 162.268 149.708 162.267 149.39C162.266 148.711 162.024 148.261 161.541 148.039C161.057 147.816 160.321 147.706 159.331 147.707L157.121 147.71ZM160.172 159.104L156.064 159.109C155.471 159.11 155.047 158.978 154.793 158.712C154.539 158.447 154.412 158.024 154.411 157.443L154.397 147.338C154.396 146.745 154.525 146.319 154.785 146.058C155.044 145.798 155.464 145.668 156.045 145.667L160.401 145.661C161.042 145.66 161.599 145.699 162.069 145.777C162.54 145.856 162.962 146.009 163.336 146.234C163.654 146.423 163.935 146.663 164.18 146.953C164.425 147.243 164.612 147.564 164.741 147.915C164.87 148.266 164.934 148.637 164.935 149.029C164.937 150.374 164.266 151.359 162.922 151.984C164.689 152.544 165.574 153.637 165.576 155.263C165.577 156.015 165.386 156.692 165.002 157.295C164.617 157.898 164.098 158.343 163.445 158.631C163.035 158.803 162.565 158.924 162.033 158.995C161.501 159.066 160.881 159.102 160.172 159.104Z" fill="white"/>
<path d="M176.78 147.737L170.646 147.746L170.65 151.047L176.299 151.039C176.714 151.039 177.025 151.131 177.23 151.318C177.435 151.504 177.538 151.75 177.538 152.055C177.539 152.361 177.438 152.61 177.237 152.803C177.035 152.996 176.723 153.093 176.302 153.093L170.653 153.101L170.659 156.925L177.004 156.916C177.432 156.915 177.754 157.014 177.972 157.212C178.189 157.411 178.298 157.675 178.298 158.005C178.299 158.323 178.19 158.582 177.974 158.78C177.757 158.979 177.435 159.079 177.007 159.08L169.607 159.09C169.014 159.091 168.588 158.96 168.328 158.698C168.067 158.435 167.937 158.01 167.936 157.424L167.922 147.319C167.921 146.928 167.979 146.608 168.095 146.36C168.21 146.113 168.392 145.932 168.639 145.819C168.887 145.705 169.203 145.648 169.588 145.648L176.777 145.638C177.211 145.637 177.534 145.733 177.745 145.925C177.956 146.117 178.062 146.369 178.062 146.681C178.063 146.999 177.958 147.254 177.747 147.447C177.537 147.64 177.214 147.737 176.78 147.737Z" fill="white"/>
<path d="M206.246 196.404L193.499 183.656L185.857 191.298C185.002 192.153 183.539 191.547 183.539 190.337V165.952C183.539 165.185 184.161 164.563 184.928 164.563H209.313C210.523 164.563 211.129 166.026 210.273 166.882L202.871 174.284L215.619 187.031C216.431 187.843 216.431 189.16 215.619 189.972L209.187 196.404C208.375 197.216 207.058 197.216 206.246 196.404Z" fill="#D5DFEF"/>
<path d="M205.903 192.915L195.215 182.277C195.01 182.073 194.678 182.074 194.474 182.279L187.759 189.026C186.965 189.823 185.27 188.929 185.254 187.79L184.269 165.818C184.258 165.1 184.837 164.518 185.556 164.525L208.503 164.755C210.853 164.755 211.157 165.847 209.749 167.255L202.885 174.15L216.151 187.353L210.305 192.904C209.092 194.123 207.121 194.127 205.903 192.915Z" fill="#EFF3FC"/>
<path d="M206.968 196.468C203.18 192.68 199.391 188.892 195.603 185.104C195.058 184.559 194.513 184.014 193.968 183.468C193.746 183.246 193.212 183.485 193.035 183.663C191.214 185.483 189.394 187.304 187.573 189.124C187.078 189.619 186.583 190.114 186.088 190.609C185.89 190.807 185.656 191.151 185.408 191.289C184.156 191.987 184.042 190.208 184.042 189.45C184.042 183.518 184.042 177.585 184.042 171.653C184.042 169.754 183.884 167.781 184.042 165.888C184.134 164.788 184.745 164.82 185.515 164.82C186.548 164.82 187.58 164.82 188.613 164.82C194.817 164.82 201.021 164.82 207.225 164.82C207.815 164.82 208.465 164.743 209.051 164.82C210.112 164.96 210.458 166.088 209.809 166.888C209.653 167.081 209.449 167.249 209.274 167.424C207.163 169.534 205.053 171.644 202.943 173.755C202.764 173.933 202.586 174.111 202.407 174.29C202.358 174.34 202.352 174.422 202.402 174.472C205.358 177.428 208.315 180.385 211.271 183.341C212.599 184.669 213.993 185.955 215.266 187.336C215.976 188.106 216.064 189.024 215.309 189.825C214.659 190.513 213.967 191.166 213.298 191.835C212.217 192.916 211.137 193.997 210.056 195.077C209.247 195.886 208.201 197.517 206.968 196.468C206.722 196.259 205.794 196.645 206.029 196.844C207.853 198.396 209.499 196.55 210.74 195.309C212.442 193.606 214.145 191.904 215.847 190.201C216.432 189.616 217.006 189.024 216.858 188.103C216.758 187.477 216.33 187.085 215.91 186.665C214.514 185.269 213.118 183.873 211.722 182.477C209.869 180.624 208.015 178.77 206.161 176.916C205.511 176.266 204.861 175.616 204.211 174.966C203.982 174.737 203.475 174.4 203.343 174.098C203.441 174.323 203.384 174.193 203.622 173.991C203.93 173.728 204.205 173.407 204.492 173.121C205.388 172.224 206.285 171.327 207.182 170.43C208.017 169.595 208.853 168.76 209.688 167.925C210.117 167.496 210.74 167.034 211.017 166.478C211.583 165.338 210.619 164.368 209.51 164.307C209.195 164.29 208.874 164.307 208.557 164.307C206.687 164.307 204.817 164.307 202.946 164.307C197.981 164.307 193.016 164.307 188.05 164.307C187.044 164.307 186.009 164.236 185.005 164.317C183.934 164.404 183.108 165.04 183.036 166.145C183.01 166.534 183.036 166.934 183.036 167.324C183.036 171.971 183.036 176.618 183.036 181.266C183.036 183.52 183.036 185.774 183.036 188.028C183.036 188.92 182.748 190.52 183.315 191.303C184.646 193.144 186.581 191.032 187.571 190.042C189.321 188.291 191.072 186.54 192.823 184.79C193.203 184.41 193.583 184.03 193.962 183.65C193.651 183.715 193.34 183.78 193.029 183.844C196.817 187.633 200.605 191.421 204.393 195.209C204.938 195.754 205.484 196.299 206.029 196.844C206.253 197.068 207.199 196.7 206.968 196.468Z" fill="#6A79A8"/>
</svg>
