<svg width="250" height="250" viewBox="0 0 250 250" fill="none" xmlns="http://www.w3.org/2000/svg">
<path d="M250 0H0V250H250V0Z" fill="white"/>
<path d="M195.615 210.513C195.489 210.675 194.608 210.838 192.72 211.028C179.52 212.344 163.913 211.937 150.335 211.937C124.832 211.951 99.3122 211.666 73.8244 211.666C57.9181 211.395 39.4 210.689 55.1647 209.739C73.0849 208.653 92.5155 208.816 110.64 208.681C127.066 208.558 143.491 208.653 159.901 208.938C162.686 208.979 196.276 209.617 195.615 210.513Z" fill="#E8EEF9"/>
<path d="M170.159 75.3918H74.5558C66.1065 75.3918 59.2599 81.9017 59.2599 89.9313V147.418C59.2599 155.448 66.1088 161.958 74.5558 161.958H125.106L151.741 185.7C152.239 186.563 153.482 186.563 153.98 185.7L154.72 161.958H170.159C178.606 161.958 185.455 155.448 185.455 147.418V89.9313C185.455 81.9017 178.606 75.3918 170.159 75.3918Z" fill="#ABDCB3"/>
<path d="M170.159 75.3918H74.5558C66.1065 75.3918 59.2599 81.9017 59.2599 89.9313V143.03C59.2599 151.059 66.1088 157.569 74.5558 157.569H125.922C126.771 157.569 127.55 158.037 127.949 158.787L149.162 178.335C149.635 179.156 150.818 179.156 151.291 178.335L151.436 158.787C151.835 158.037 152.615 157.569 153.463 157.569H170.157C178.603 157.569 185.452 151.059 185.452 143.03V89.9313C185.455 81.9017 178.606 75.3918 170.159 75.3918Z" fill="#C4EBC0"/>
<path d="M81.0001 92.1338C91.4215 92.1338 101.843 92.1338 112.236 92.1338C113.741 92.1338 115.246 92.1338 116.751 92.1338C117.234 92.1338 118.228 90.563 117.29 90.563C106.869 90.563 96.4476 90.563 86.0546 90.563C84.5496 90.563 83.0446 90.563 81.5396 90.563C81.0569 90.563 80.0914 92.1338 81.0001 92.1338Z" fill="#56627F"/>
<path d="M81.0356 122.522C90.2928 122.522 99.5499 122.522 108.807 122.522C123.545 122.522 138.282 122.522 153.02 122.522C156.371 122.522 159.75 122.522 163.101 122.522C163.669 122.522 164.549 121.047 163.612 121.047C154.355 121.047 145.097 121.047 135.84 121.047C121.103 121.047 106.365 121.047 91.6274 121.047C88.2766 121.047 84.8975 121.047 81.5467 121.047C80.9788 120.997 80.0985 122.522 81.0356 122.522Z" fill="#56627F"/>
<path d="M81.1941 107.087C90.4513 107.087 99.7085 107.087 108.966 107.087C123.703 107.087 138.441 107.087 153.179 107.087C156.529 107.087 159.908 107.087 163.259 107.087C164.026 107.087 164.31 105.677 163.373 105.677C154.116 105.677 144.858 105.677 135.601 105.677C120.864 105.677 106.126 105.677 91.3884 105.677C88.0376 105.677 84.6585 105.677 81.3077 105.677C80.5694 105.717 80.2855 107.087 81.1941 107.087Z" fill="#56627F"/>
<path d="M132.257 137.817C141.23 137.817 150.175 137.817 159.148 137.817C160.426 137.817 161.704 137.817 162.982 137.817C163.465 137.817 164.458 136.273 163.521 136.273C154.548 136.273 145.603 136.273 136.63 136.273C135.352 136.273 134.074 136.273 132.797 136.273C132.342 136.273 131.32 137.817 132.257 137.817Z" fill="#56627F"/>
<path d="M170.237 70.6272C163.328 70.6272 156.42 70.6272 149.511 70.6272C135.675 70.6272 121.836 70.6272 108 70.6272C97.7244 70.6272 87.4487 70.6272 77.1731 70.6272C76.3752 70.6272 75.5773 70.6249 74.7795 70.6272C71.3804 70.6388 68.0574 71.6488 65.2671 73.5951C61.423 76.2747 58.8564 80.6192 58.4667 85.3005C58.3767 86.3797 58.4136 87.4773 58.4136 88.5612C58.4136 100.49 58.4136 112.419 58.4136 124.348C58.4136 130.164 58.4136 135.98 58.4136 141.793C58.4136 146.05 58.1899 150.178 60.2861 154.094C62.4607 158.157 66.4201 161.086 70.9123 162.061C72.6256 162.432 74.3344 162.432 76.0685 162.432C81.2663 162.432 86.4641 162.432 91.6618 162.432C98.5684 162.432 105.477 162.432 112.384 162.432C115.089 162.432 117.794 162.432 120.499 162.432C121.885 162.432 123.305 162.525 124.689 162.432C124.76 162.428 124.841 162.425 124.912 162.432C124.225 162.363 124.596 162.34 124.714 162.545C124.982 163.018 125.703 163.454 126.1 163.818C128.079 165.638 130.057 167.455 132.036 169.274C136.952 173.792 141.866 178.309 146.783 182.827C147.864 183.821 149.056 184.768 150.064 185.841C150.495 186.3 150.77 186.717 151.425 186.95C152.329 187.268 153.366 187.13 154.185 186.655C155.013 186.173 155.377 185.596 155.384 184.708C155.433 178.683 155.479 172.657 155.527 166.629C155.541 165.008 155.552 163.389 155.566 161.768C155.26 161.99 154.951 162.211 154.644 162.432C158.26 162.432 161.876 162.432 165.489 162.432C166.995 162.432 168.503 162.444 170.009 162.432C172.896 162.412 175.742 161.674 178.244 160.225C183.181 157.366 186.259 152.104 186.299 146.399C186.31 144.591 186.299 142.785 186.299 140.977C186.299 132.346 186.299 123.712 186.299 115.08C186.299 106.846 186.299 98.6131 186.299 90.3783C186.299 88.7272 186.368 87.0553 186.264 85.4065C185.854 78.8851 181.274 73.1593 175.006 71.3029C173.45 70.8394 171.858 70.6434 170.237 70.6272C169.294 70.618 168.946 71.8056 170.08 71.8195C176.802 71.8886 182.72 76.7497 184.226 83.2804C184.698 85.3258 184.611 87.4082 184.611 89.4905C184.611 97.0727 184.611 104.655 184.611 112.237C184.611 120.975 184.611 129.712 184.611 138.45C184.611 140.866 184.611 143.281 184.611 145.697C184.611 149.62 183.631 153.33 180.997 156.351C178.853 158.812 175.892 160.514 172.665 161.049C171.164 161.298 169.635 161.242 168.118 161.242C164.004 161.242 159.892 161.242 155.778 161.242C155.451 161.242 155.126 161.242 154.798 161.242C154.478 161.242 153.878 161.521 153.876 161.907C153.837 166.968 153.795 172.028 153.756 177.089C153.735 179.647 153.717 182.204 153.696 184.761C153.694 184.923 153.754 185.246 153.692 185.398C153.316 186.332 152.135 185.802 151.665 185.273C151.374 184.948 151.104 184.658 150.774 184.358C142.687 176.926 134.6 169.493 126.513 162.061C125.867 161.468 125.431 161.242 124.541 161.242C122.961 161.242 121.382 161.242 119.802 161.242C113.652 161.242 107.502 161.242 101.352 161.242C94.9456 161.242 88.5395 161.242 82.1334 161.242C78.4645 161.242 74.2422 161.713 70.6794 160.654C66.0396 159.275 62.2924 155.586 60.8188 150.976C60.2285 149.129 60.1062 147.249 60.1062 145.333C60.1062 141.019 60.1062 136.706 60.1062 132.392C60.1062 119.453 60.1062 106.514 60.1062 93.5722C60.1062 90.4267 59.7949 87.03 60.3161 83.9076C61.1024 79.2126 64.2156 75.0756 68.5486 73.0855C70.5986 72.1446 72.7686 71.8172 75.0031 71.8172C83.3417 71.8172 91.6803 71.8172 100.019 71.8172C113.666 71.8172 127.313 71.8172 140.96 71.8172C150.2 71.8172 159.44 71.8172 168.681 71.8172C169.146 71.8172 169.612 71.8172 170.078 71.8172C171.021 71.8172 171.372 70.6272 170.237 70.6272Z" fill="#6A79A8"/>
<path d="M190.155 87.215C196.513 80.8572 196.513 70.5491 190.155 64.1912C183.797 57.8334 173.489 57.8334 167.131 64.1912C160.773 70.5491 160.773 80.8572 167.131 87.215C173.489 93.5729 183.797 93.5729 190.155 87.215Z" fill="#65B6A6"/>
<path d="M189.995 64.3513C196.149 70.5057 196.149 80.4841 189.995 86.6385C183.84 92.7929 173.862 92.7929 167.708 86.6385C161.553 80.484 161.553 70.5057 167.708 64.3513C173.862 58.1968 183.84 58.1968 189.995 64.3513Z" stroke="#6A79A8" stroke-width="1.04167"/>
<path d="M179.007 82.2794C177.858 82.2794 176.879 82.0966 176.07 81.7311C175.273 81.3655 174.673 80.9086 174.268 80.3602C173.876 79.7989 173.667 79.2244 173.641 78.6369C173.641 78.5194 173.68 78.428 173.759 78.3627C173.85 78.2844 173.955 78.2452 174.072 78.2452H175.835C176.122 78.2452 176.311 78.3758 176.403 78.6369C176.69 79.5769 177.565 80.0469 179.027 80.0469C179.823 80.0469 180.45 79.8641 180.907 79.4986C181.364 79.12 181.592 78.5847 181.592 77.8927C181.592 76.5872 180.776 75.9344 179.144 75.9344H177.127C176.984 75.9344 176.866 75.8887 176.775 75.7973C176.683 75.7059 176.638 75.595 176.638 75.4644V74.6419C176.638 74.433 176.729 74.2372 176.912 74.0544L180.417 70.6273H174.816C174.686 70.6273 174.575 70.5816 174.483 70.4902C174.392 70.3989 174.346 70.2879 174.346 70.1573V68.8648C174.346 68.7212 174.385 68.6037 174.464 68.5123C174.555 68.4209 174.673 68.3752 174.816 68.3752H183.218C183.361 68.3752 183.479 68.4209 183.57 68.5123C183.661 68.6037 183.707 68.7212 183.707 68.8648V70.0398C183.707 70.2357 183.622 70.4184 183.453 70.5882L180.065 74.074L180.3 74.0936C181.553 74.198 182.545 74.5766 183.276 75.2294C184.02 75.8822 184.393 76.8157 184.393 78.0298C184.393 78.8915 184.158 79.6422 183.688 80.2819C183.231 80.9216 182.591 81.4177 181.768 81.7702C180.959 82.1097 180.039 82.2794 179.007 82.2794Z" fill="white"/>
</svg>
