<svg width="18" height="18" viewBox="0 0 18 18" fill="none" xmlns="http://www.w3.org/2000/svg">
<path d="M1.5 14.25C1.5 13.8358 1.83579 13.5 2.25 13.5H6C6.41421 13.5 6.75 13.8358 6.75 14.25C6.75 14.6642 6.41421 15 6 15H2.25C1.83579 15 1.5 14.6642 1.5 14.25ZM1.5 9C1.5 8.58579 1.83579 8.25 2.25 8.25H7.5C7.91421 8.25 8.25 8.58579 8.25 9C8.25 9.41421 7.91421 9.75 7.5 9.75H2.25C1.83579 9.75 1.5 9.41421 1.5 9ZM1.5 3.75C1.5 3.33579 1.83579 3 2.25 3H15.75C16.1642 3 16.5 3.33579 16.5 3.75C16.5 4.16421 16.1642 4.5 15.75 4.5H2.25C1.83579 4.5 1.5 4.16421 1.5 3.75Z" fill="#7B89A6"/>
<path d="M14.25 12.45C14.25 12.6157 14.3843 12.75 14.55 12.75H15.7757C16.043 12.75 16.1769 13.0731 15.9879 13.2621L13.7121 15.5379C13.595 15.655 13.405 15.655 13.2879 15.5379L11.0121 13.2621C10.8231 13.0731 10.957 12.75 11.2243 12.75H12.45C12.6157 12.75 12.75 12.6157 12.75 12.45V7.8C12.75 7.63431 12.8843 7.5 13.05 7.5H13.95C14.1157 7.5 14.25 7.63431 14.25 7.8V12.45Z" fill="#7B89A6"/>
</svg>
