<svg width="20" height="20" viewBox="0 0 20 20" fill="none" xmlns="http://www.w3.org/2000/svg">
<path d="M9.52435 1.94692C9.67403 1.48627 10.3257 1.48627 10.4754 1.94693L11.8772 6.26118C11.9822 6.58424 11.7414 6.91569 11.4017 6.91569H8.59809C8.25841 6.91569 8.0176 6.58424 8.12256 6.26118L9.52435 1.94692Z" fill="#F9C573"/>
<path d="M11.2657 15.9339C10.9909 15.7343 10.9909 15.3246 11.2657 15.1249L13.5336 13.4772C13.8084 13.2775 14.1981 13.4041 14.303 13.7272L15.7047 18.041C15.8544 18.5017 15.3271 18.8847 14.9353 18.6L11.2657 15.9339Z" fill="#F9C573"/>
<path d="M18.7551 8.65353C19.1469 8.36883 18.9455 7.74902 18.4612 7.74902H1.53884C1.05448 7.74902 0.853093 8.36883 1.24495 8.65353L5.88645 12.0258C6.06169 12.1531 6.13502 12.3788 6.06808 12.5848L4.29519 18.0412C4.14551 18.5019 4.67275 18.8849 5.06461 18.6002L18.7551 8.65353Z" fill="#F9C573"/>
</svg>
