<svg width="36" height="36" viewBox="0 0 36 36" fill="none" xmlns="http://www.w3.org/2000/svg">
<path d="M18 36C27.9411 36 36 27.9411 36 18C36 8.05887 27.9411 0 18 0C8.05887 0 0 8.05887 0 18C0 27.9411 8.05887 36 18 36Z" fill="#73ABFF"/>
<path d="M13.9157 19.2499L17.6246 17.7263L13.9157 16.7499L13.8746 11.6538C13.8746 11.5995 13.8888 11.5461 13.9157 11.4989C13.9426 11.4518 13.9814 11.4124 14.0281 11.3848C14.0749 11.3572 14.128 11.3422 14.1823 11.3413C14.2366 11.3405 14.2902 11.3538 14.3378 11.38L25.8765 17.7263C25.9255 17.7532 25.9664 17.7929 25.9948 17.841C26.0233 17.8892 26.0383 17.9441 26.0383 18C26.0383 18.0559 26.0233 18.1108 25.9948 18.159C25.9664 18.2071 25.9255 18.2468 25.8765 18.2738L14.3378 24.62C14.2902 24.6462 14.2366 24.6595 14.1823 24.6587C14.128 24.6578 14.0749 24.6428 14.0281 24.6152C13.9814 24.5876 13.9426 24.5482 13.9157 24.5011C13.8888 24.4539 13.8746 24.4006 13.8746 24.3463L13.9157 19.2499Z" fill="white"/>
</svg>
