<svg width="36" height="36" viewBox="0 0 36 36" fill="none" xmlns="http://www.w3.org/2000/svg">
<circle opacity="0.15" cx="18" cy="18" r="18" fill="#B4C0D4"/>
<path fill-rule="evenodd" clip-rule="evenodd" d="M15.4333 17.9999C15.4333 17.5488 15.799 17.1832 16.25 17.1832H20.9167C21.3677 17.1832 21.7333 17.5488 21.7333 17.9999C21.7333 18.4509 21.3677 18.8165 20.9167 18.8165H16.25C15.799 18.8165 15.4333 18.4509 15.4333 17.9999Z" fill="#7B89A6"/>
<path fill-rule="evenodd" clip-rule="evenodd" d="M13.1001 14.4999C13.1001 14.0488 13.4657 13.6832 13.9168 13.6832H23.2501C23.7011 13.6832 24.0668 14.0488 24.0668 14.4999C24.0668 14.9509 23.7011 15.3165 23.2501 15.3165H13.9168C13.4657 15.3165 13.1001 14.9509 13.1001 14.4999Z" fill="#7B89A6"/>
<path fill-rule="evenodd" clip-rule="evenodd" d="M17.1833 21.4999C17.1833 21.0488 17.549 20.6832 18 20.6832H19.1667C19.6177 20.6832 19.9833 21.0488 19.9833 21.4999C19.9833 21.9509 19.6177 22.3165 19.1667 22.3165H18C17.549 22.3165 17.1833 21.9509 17.1833 21.4999Z" fill="#7B89A6"/>
</svg>
