<svg width="64" height="64" viewBox="0 0 64 64" fill="none" xmlns="http://www.w3.org/2000/svg">
<path opacity="0.1" d="M32 64C49.6731 64 64 49.6731 64 32C64 14.3269 49.6731 0 32 0C14.3269 0 0 14.3269 0 32C0 49.6731 14.3269 64 32 64Z" fill="#73ABFF"/>
<path d="M22.6663 23.8333V40.1667H41.333V26.1667H31.5167L29.1833 23.8333H22.6663ZM32.4827 23.8333H42.4997C42.8091 23.8333 43.1058 23.9562 43.3246 24.175C43.5434 24.3938 43.6663 24.6906 43.6663 25V41.3333C43.6663 41.6428 43.5434 41.9395 43.3246 42.1583C43.1058 42.3771 42.8091 42.5 42.4997 42.5H21.4997C21.1903 42.5 20.8935 42.3771 20.6747 42.1583C20.4559 41.9395 20.333 41.6428 20.333 41.3333V22.6667C20.333 22.3572 20.4559 22.0605 20.6747 21.8417C20.8935 21.6229 21.1903 21.5 21.4997 21.5H30.1493L32.4827 23.8333Z" fill="#73ABFF"/>
</svg>
