<svg width="58" height="58" viewBox="0 0 58 58" fill="none" xmlns="http://www.w3.org/2000/svg">
<path d="M5.16534 37.972C3.57941 39.8751 3.89659 42.7298 5.79972 44.3158L16.1763 52.7439C16.7653 53.2423 17.6716 52.7892 17.6716 52.0189V25.1486C17.6716 24.2876 16.5841 23.9251 16.0403 24.5595L5.16534 37.972Z" fill="#73ABFF"/>
<path d="M24.4234 17.3547C23.0188 19.0312 22.2031 21.1609 22.2031 23.3359V51.6562C22.2031 54.1484 24.2422 56.1875 26.7344 56.1875H49.3906C51.8828 56.1875 53.9219 54.1484 53.9219 51.6562V23.3359C53.9219 21.1609 53.1062 19.0312 51.7016 17.3547L44.9047 9.60625C41.2797 5.48281 34.8906 5.48281 31.2656 9.60625L24.4234 17.3547Z" fill="white"/>
<path d="M49.3906 57.5468H26.7344C23.4719 57.5468 20.8438 54.9187 20.8438 51.6562V23.3358C20.8438 20.7983 21.75 18.3515 23.4266 16.4937L24.7859 14.953C25.2844 14.4093 26.1453 14.3187 26.6891 14.8171C27.2328 15.3155 27.3234 16.1765 26.825 16.7202L25.4656 18.2608C24.2422 19.6655 23.5625 21.478 23.5625 23.3358V51.6562C23.5625 53.4233 24.9672 54.828 26.7344 54.828H49.3906C51.1578 54.828 52.5625 53.4233 52.5625 51.6562V23.3358C52.5625 21.478 51.8828 19.6655 50.6594 18.2608L43.8625 10.5124C41.7781 8.11084 38.5156 7.2499 35.525 8.29209C34.8 8.51865 34.0297 8.15615 33.8031 7.43115C33.5766 6.70615 33.9391 5.93584 34.6641 5.70927C38.6969 4.30459 43.1375 5.48271 45.9016 8.6999L52.6984 16.4483C54.375 18.3515 55.2812 20.7983 55.2812 23.2905V51.6562C55.2812 54.9187 52.6531 57.5468 49.3906 57.5468Z" fill="#3970D9"/>
<path d="M37.6092 13.1406C36.6123 13.1406 35.6607 13.4125 34.7998 13.8656L22.3842 1.40464C21.8404 0.860889 20.9795 0.860889 20.4811 1.40464C19.9373 1.94839 19.9373 2.80933 20.4811 3.30776L33.6217 16.4484C33.6217 16.4484 33.6217 16.4484 33.6217 16.4937C33.667 16.539 33.7123 16.539 33.7123 16.5843L37.1107 19.9828C37.3826 20.2546 37.7451 20.3906 38.0623 20.3906C38.3795 20.3906 38.742 20.2546 39.0139 19.9828C39.5576 19.439 39.5576 18.5781 39.0139 18.0796L36.8842 15.95C37.1107 15.9046 37.3373 15.8593 37.6092 15.8593C39.3764 15.8593 40.7811 17.264 40.7811 19.0312C40.7811 20.7984 39.3764 22.2031 37.6092 22.2031C36.7029 22.2031 35.8873 21.8406 35.2529 21.1609C34.7545 20.6171 33.8936 20.5718 33.3498 21.0703C32.8061 21.5687 32.7607 22.4296 33.2592 22.9734C34.392 24.1968 35.9779 24.8765 37.6092 24.8765C40.8717 24.8765 43.4998 22.2484 43.4998 18.9859C43.4998 15.7234 40.8717 13.1406 37.6092 13.1406Z" fill="#3970D9"/>
</svg>
