<svg width="64" height="64" viewBox="0 0 64 64" fill="none" xmlns="http://www.w3.org/2000/svg">
<path opacity="0.1" d="M32 64C49.6731 64 64 49.6731 64 32C64 14.3269 49.6731 0 32 0C14.3269 0 0 14.3269 0 32C0 49.6731 14.3269 64 32 64Z" fill="#73ABFF"/>
<path d="M30.7167 20.45L42.2655 22.1008L43.9152 33.6508L33.1912 44.3748C32.9724 44.5935 32.6757 44.7164 32.3663 44.7164C32.057 44.7164 31.7603 44.5935 31.5415 44.3748L19.9915 32.8248C19.7728 32.606 19.6499 32.3093 19.6499 32C19.6499 31.6906 19.7728 31.3939 19.9915 31.1751L30.7167 20.45ZM31.5415 22.9256L22.466 32L32.3663 41.8991L41.4407 32.8248L40.204 24.1623L31.5415 22.9256ZM34.0148 30.3503C33.5771 29.9125 33.3313 29.3187 33.3314 28.6996C33.3315 28.3931 33.3919 28.0896 33.5093 27.8064C33.6266 27.5232 33.7986 27.2659 34.0154 27.0492C34.2322 26.8325 34.4895 26.6606 34.7728 26.5433C35.056 26.4261 35.3595 26.3658 35.6661 26.3658C36.2851 26.3659 36.8788 26.612 37.3165 27.0498C37.7542 27.4876 38 28.0814 37.9999 28.7004C37.9998 29.3195 37.7537 29.9132 37.3159 30.3509C36.8781 30.7885 36.2843 31.0344 35.6652 31.0343C35.0462 31.0341 34.4525 30.7881 34.0148 30.3503Z" fill="#73ABFF"/>
</svg>
