<svg width="56" height="56" viewBox="0 0 56 56" fill="none" xmlns="http://www.w3.org/2000/svg">
<rect x="2.03891" y="28" width="36.7125" height="36.7125" rx="13" transform="rotate(-45 2.03891 28)" fill="#97A4BD" stroke="white" stroke-width="2"/>
<path d="M33.532 28.3119L25.5828 33.6114C25.5263 33.6489 25.4607 33.6705 25.3929 33.6737C25.3252 33.677 25.2578 33.6618 25.198 33.6298C25.1382 33.5978 25.0882 33.5501 25.0533 33.4919C25.0185 33.4338 25 33.3672 25 33.2994V22.7004C25 22.6325 25.0185 22.566 25.0533 22.5078C25.0882 22.4496 25.1382 22.402 25.198 22.37C25.2578 22.3379 25.3252 22.3227 25.3929 22.326C25.4607 22.3292 25.5263 22.3508 25.5828 22.3884L33.532 27.6879C33.5834 27.7221 33.6255 27.7685 33.6546 27.8229C33.6837 27.8774 33.699 27.9381 33.699 27.9999C33.699 28.0616 33.6837 28.1224 33.6546 28.1768C33.6255 28.2312 33.5834 28.2776 33.532 28.3119Z" fill="white"/>
</svg>
