<svg width="16" height="16" viewBox="0 0 16 16" fill="none" xmlns="http://www.w3.org/2000/svg">
<path d="M7.99967 14.6666C4.31767 14.6666 1.33301 11.6819 1.33301 7.99992C1.33301 4.31792 4.31767 1.33325 7.99967 1.33325C11.6817 1.33325 14.6663 4.31792 14.6663 7.99992C14.6663 11.6819 11.6817 14.6666 7.99967 14.6666ZM4.67501 12.1706C5.61871 12.9251 6.79146 13.3352 7.99967 13.3333C9.31301 13.3333 10.515 12.8586 11.4443 12.0719C11.0102 11.6264 10.491 11.2725 9.9177 11.0311C9.34435 10.7897 8.72843 10.6658 8.10634 10.6666C7.4614 10.6658 6.82334 10.7992 6.23265 11.0581C5.64196 11.317 5.11153 11.6958 4.67501 12.1706ZM3.74367 11.2133C4.30398 10.6186 4.98012 10.1451 5.73043 9.82173C6.48075 9.4984 7.28933 9.33216 8.10634 9.33325C8.89411 9.33223 9.67432 9.48683 10.4022 9.78817C11.13 10.0895 11.7912 10.5317 12.3477 11.0893C12.9184 10.286 13.2554 9.34034 13.3214 8.35719C13.3873 7.37404 13.1796 6.39184 12.7213 5.51956C12.263 4.64727 11.572 3.919 10.725 3.41555C9.87795 2.9121 8.908 2.65314 7.92274 2.66742C6.93749 2.6817 5.97545 2.96864 5.14335 3.49642C4.31126 4.0242 3.64165 4.77219 3.2088 5.65739C2.77596 6.54259 2.5968 7.53039 2.69122 8.51122C2.78563 9.49204 3.14992 10.4275 3.74367 11.2139V11.2133ZM7.99967 8.66659C7.29243 8.66659 6.61415 8.38563 6.11406 7.88554C5.61396 7.38544 5.33301 6.70716 5.33301 5.99992C5.33301 5.29267 5.61396 4.6144 6.11406 4.1143C6.61415 3.6142 7.29243 3.33325 7.99967 3.33325C8.70692 3.33325 9.3852 3.6142 9.88529 4.1143C10.3854 4.6144 10.6663 5.29267 10.6663 5.99992C10.6663 6.70716 10.3854 7.38544 9.88529 7.88554C9.3852 8.38563 8.70692 8.66659 7.99967 8.66659ZM7.99967 7.33325C8.3533 7.33325 8.69243 7.19278 8.94248 6.94273C9.19253 6.69268 9.33301 6.35354 9.33301 5.99992C9.33301 5.6463 9.19253 5.30716 8.94248 5.05711C8.69243 4.80706 8.3533 4.66659 7.99967 4.66659C7.64605 4.66659 7.30691 4.80706 7.05687 5.05711C6.80682 5.30716 6.66634 5.6463 6.66634 5.99992C6.66634 6.35354 6.80682 6.69268 7.05687 6.94273C7.30691 7.19278 7.64605 7.33325 7.99967 7.33325Z" fill="#B4C0D4"/>
</svg>
