<svg width="16" height="16" viewBox="0 0 16 16" fill="none" xmlns="http://www.w3.org/2000/svg">
<path d="M8.00004 14.6668C4.31804 14.6668 1.33337 11.6822 1.33337 8.00016C1.33337 4.31816 4.31804 1.3335 8.00004 1.3335C11.682 1.3335 14.6667 4.31816 14.6667 8.00016C14.6667 11.6822 11.682 14.6668 8.00004 14.6668ZM4.67537 12.1708C5.61907 12.9253 6.79183 13.3354 8.00004 13.3335C9.31337 13.3335 10.5154 12.8588 11.4447 12.0722C11.0105 11.6267 10.4914 11.2727 9.91806 11.0314C9.34472 10.79 8.72879 10.666 8.10671 10.6668C7.46177 10.6661 6.82371 10.7994 6.23302 11.0583C5.64233 11.3172 5.11189 11.6961 4.67537 12.1708ZM3.74404 11.2135C4.30434 10.6189 4.98049 10.1453 5.7308 9.82197C6.48111 9.49864 7.28969 9.3324 8.10671 9.3335C8.89447 9.33247 9.67469 9.48707 10.4025 9.78842C11.1304 10.0898 11.7915 10.5319 12.348 11.0895C12.9188 10.2862 13.2558 9.34059 13.3218 8.35744C13.3877 7.37429 13.18 6.39209 12.7217 5.5198C12.2634 4.64751 11.5724 3.91924 10.7254 3.41579C9.87832 2.91234 8.90837 2.65339 7.92311 2.66766C6.93785 2.68194 5.97581 2.96889 5.14372 3.49667C4.31163 4.02445 3.64201 4.77243 3.20917 5.65763C2.77632 6.54283 2.59717 7.53064 2.69158 8.51146C2.786 9.49229 3.15029 10.4278 3.74404 11.2142V11.2135ZM8.00004 8.66683C7.2928 8.66683 6.61452 8.38588 6.11442 7.88578C5.61433 7.38568 5.33337 6.70741 5.33337 6.00016C5.33337 5.29292 5.61433 4.61464 6.11442 4.11454C6.61452 3.61445 7.2928 3.3335 8.00004 3.3335C8.70728 3.3335 9.38556 3.61445 9.88566 4.11454C10.3858 4.61464 10.6667 5.29292 10.6667 6.00016C10.6667 6.70741 10.3858 7.38568 9.88566 7.88578C9.38556 8.38588 8.70728 8.66683 8.00004 8.66683ZM8.00004 7.3335C8.35366 7.3335 8.6928 7.19302 8.94285 6.94297C9.1929 6.69292 9.33337 6.35379 9.33337 6.00016C9.33337 5.64654 9.1929 5.3074 8.94285 5.05735C8.6928 4.80731 8.35366 4.66683 8.00004 4.66683C7.64642 4.66683 7.30728 4.80731 7.05723 5.05735C6.80718 5.3074 6.66671 5.64654 6.66671 6.00016C6.66671 6.35379 6.80718 6.69292 7.05723 6.94297C7.30728 7.19302 7.64642 7.3335 8.00004 7.3335Z" fill="#B4C0D4"/>
</svg>
