<svg width="16" height="16" viewBox="0 0 16 16" fill="none" xmlns="http://www.w3.org/2000/svg">
<path d="M2.66602 14.6667C2.66602 13.2522 3.22792 11.8956 4.22811 10.8955C5.22831 9.89526 6.58486 9.33335 7.99935 9.33335C9.41384 9.33335 10.7704 9.89526 11.7706 10.8955C12.7708 11.8956 13.3327 13.2522 13.3327 14.6667H11.9993C11.9993 13.6058 11.5779 12.5884 10.8278 11.8383C10.0776 11.0881 9.06021 10.6667 7.99935 10.6667C6.93848 10.6667 5.92107 11.0881 5.17092 11.8383C4.42078 12.5884 3.99935 13.6058 3.99935 14.6667H2.66602ZM7.99935 8.66669C5.78935 8.66669 3.99935 6.87669 3.99935 4.66669C3.99935 2.45669 5.78935 0.666687 7.99935 0.666687C10.2093 0.666687 11.9993 2.45669 11.9993 4.66669C11.9993 6.87669 10.2093 8.66669 7.99935 8.66669ZM7.99935 7.33335C9.47268 7.33335 10.666 6.14002 10.666 4.66669C10.666 3.19335 9.47268 2.00002 7.99935 2.00002C6.52602 2.00002 5.33268 3.19335 5.33268 4.66669C5.33268 6.14002 6.52602 7.33335 7.99935 7.33335Z" fill="#7B89A6"/>
</svg>
