<svg width="64" height="64" viewBox="0 0 64 64" fill="none" xmlns="http://www.w3.org/2000/svg">
<path d="M32 31.9375C36.4873 31.9375 40.125 28.2998 40.125 23.8125C40.125 19.3252 36.4873 15.6875 32 15.6875C27.5127 15.6875 23.875 19.3252 23.875 23.8125C23.875 28.2998 27.5127 31.9375 32 31.9375Z" fill="white"/>
<path d="M32 33.1562C26.8406 33.1562 22.6562 28.9719 22.6562 23.8125C22.6562 18.6531 26.8406 14.4688 32 14.4688C37.1594 14.4688 41.3438 18.6531 41.3438 23.8125C41.3438 28.9719 37.1594 33.1562 32 33.1562ZM32 16.9062C28.1813 16.9062 25.0938 19.9938 25.0938 23.8125C25.0938 27.6312 28.1813 30.7188 32 30.7188C35.8188 30.7188 38.9063 27.6312 38.9063 23.8125C38.9063 19.9938 35.8188 16.9062 32 16.9062Z" fill="#C4CFE1"/>
<path d="M46.828 45.2221C46.503 45.2221 46.178 45.1002 45.9342 44.8564C42.278 40.9564 37.3217 38.8033 31.9999 38.8033C26.678 38.8033 21.7217 40.9564 18.0655 44.8564C17.6186 45.3439 16.8467 45.3846 16.3592 44.8971C15.8717 44.4502 15.8311 43.6783 16.3186 43.1908C20.3405 38.8439 26.0686 36.3252 31.9999 36.3252C37.9311 36.3252 43.6592 38.8033 47.7217 43.1502C48.1686 43.6377 48.1686 44.4096 47.6811 44.8564C47.4374 45.1002 47.1124 45.2221 46.828 45.2221Z" fill="#C4CFE1"/>
<circle cx="32" cy="32" r="30.75" stroke="#EFF3FC" stroke-width="2.5"/>
</svg>
