<svg width="12" height="12" viewBox="0 0 12 12" fill="none" xmlns="http://www.w3.org/2000/svg">
<g clip-path="url(#clip0)">
<path fill-rule="evenodd" clip-rule="evenodd" d="M1.2 6C1.2 8.65097 3.34903 10.8 6 10.8C8.65097 10.8 10.8 8.65097 10.8 6C10.8 3.34903 8.65097 1.2 6 1.2C3.34903 1.2 1.2 3.34903 1.2 6ZM6 12C2.68629 12 0 9.31371 0 6C0 2.68629 2.68629 0 6 0C9.31371 0 12 2.68629 12 6C12 9.31371 9.31371 12 6 12Z" fill="#09204F"/>
<path fill-rule="evenodd" clip-rule="evenodd" d="M6.45756 3.40572C6.69188 3.64003 6.69188 4.01993 6.45756 4.25424L4.71516 5.99665L6.45756 7.73905C6.69188 7.97336 6.69188 8.35326 6.45756 8.58758C6.22325 8.82189 5.84335 8.82189 5.60904 8.58758L3.44237 6.42091C3.32985 6.30839 3.26663 6.15578 3.26663 5.99665C3.26663 5.83752 3.32985 5.68491 3.44237 5.57238L5.60904 3.40572C5.84335 3.1714 6.22325 3.1714 6.45756 3.40572Z" fill="#09204F"/>
<path fill-rule="evenodd" clip-rule="evenodd" d="M8.80005 5.99648C8.80005 6.32786 8.53142 6.59648 8.20005 6.59648H3.86671C3.53534 6.59648 3.26671 6.32786 3.26671 5.99648C3.26671 5.66511 3.53534 5.39648 3.86671 5.39648H8.20005C8.53142 5.39648 8.80005 5.66511 8.80005 5.99648Z" fill="#09204F"/>
</g>
<defs>
<clipPath id="clip0">
<rect width="12" height="12" fill="white" transform="translate(12) rotate(90)"/>
</clipPath>
</defs>
</svg>
