<svg width="12" height="12" viewBox="0 0 12 12" fill="none" xmlns="http://www.w3.org/2000/svg">
<path fill-rule="evenodd" clip-rule="evenodd" d="M10.6001 5.9999C10.6001 6.33127 10.3315 6.5999 10.0001 6.5999L2.0001 6.5999C1.66873 6.5999 1.4001 6.33127 1.4001 5.9999C1.4001 5.66853 1.66873 5.3999 2.0001 5.3999L10.0001 5.3999C10.3315 5.3999 10.6001 5.66853 10.6001 5.9999Z" fill="#09204F"/>
<path fill-rule="evenodd" clip-rule="evenodd" d="M5.92436 2.07564C6.15868 2.30995 6.15868 2.68985 5.92436 2.92417L2.84863 5.9999L5.92436 9.07564C6.15868 9.30995 6.15868 9.68985 5.92436 9.92417C5.69005 10.1585 5.31015 10.1585 5.07583 9.92417L1.57583 6.42417C1.34152 6.18985 1.34152 5.80995 1.57583 5.57564L5.07583 2.07564C5.31015 1.84132 5.69005 1.84132 5.92436 2.07564Z" fill="#09204F"/>
</svg>
