<svg width="12" height="12" viewBox="0 0 12 12" fill="none" xmlns="http://www.w3.org/2000/svg">
<path fill-rule="evenodd" clip-rule="evenodd" d="M6.0001 10.6001C5.66873 10.6001 5.4001 10.3315 5.4001 10.0001L5.4001 2.0001C5.4001 1.66873 5.66873 1.4001 6.0001 1.4001C6.33147 1.4001 6.6001 1.66873 6.6001 2.0001L6.6001 10.0001C6.6001 10.3315 6.33147 10.6001 6.0001 10.6001Z" fill="#09204F"/>
<path fill-rule="evenodd" clip-rule="evenodd" d="M9.92436 5.92436C9.69005 6.15868 9.31015 6.15868 9.07583 5.92436L6.0001 2.84863L2.92436 5.92436C2.69005 6.15868 2.31015 6.15868 2.07583 5.92436C1.84152 5.69005 1.84152 5.31015 2.07583 5.07583L5.57583 1.57583C5.81015 1.34152 6.19005 1.34152 6.42436 1.57583L9.92436 5.07583C10.1587 5.31015 10.1587 5.69005 9.92436 5.92436Z" fill="#09204F"/>
</svg>
