<svg width="12" height="12" viewBox="0 0 12 12" fill="none" xmlns="http://www.w3.org/2000/svg">
<path d="M10.7199 5.52496L6.1249 10.12C5.56198 10.6829 4.79849 10.9991 4.0024 10.9991C3.20631 10.9991 2.44282 10.6829 1.8799 10.12C1.31698 9.55704 1.00073 8.79355 1.00073 7.99746C1.00073 7.20137 1.31698 6.43788 1.8799 5.87496L6.4749 1.27996C6.85018 0.904678 7.35917 0.693848 7.8899 0.693848C8.42063 0.693848 8.92962 0.904678 9.3049 1.27996C9.68018 1.65524 9.89101 2.16423 9.89101 2.69496C9.89101 3.22569 9.68018 3.73468 9.3049 4.10996L4.7049 8.70496C4.51726 8.8926 4.26276 8.99802 3.9974 8.99802C3.73204 8.99802 3.47754 8.8926 3.2899 8.70496C3.10226 8.51732 2.99684 8.26282 2.99684 7.99746C2.99684 7.7321 3.10226 7.4776 3.2899 7.28996L7.5349 3.04996" stroke="#09204F" stroke-width="1.2" stroke-linecap="round" stroke-linejoin="round"/>
</svg>
