<svg width="12" height="12" viewBox="0 0 12 12" fill="none" xmlns="http://www.w3.org/2000/svg">
<mask id="path-1-inside-1" fill="white">
<path fill-rule="evenodd" clip-rule="evenodd" d="M2.57576 2.57564C2.81007 2.34132 3.18997 2.34132 3.42429 2.57564L9.42429 8.57564C9.6586 8.80995 9.6586 9.18985 9.42429 9.42417C9.18997 9.65848 8.81007 9.65848 8.57576 9.42417L2.57576 3.42417C2.34145 3.18985 2.34145 2.80995 2.57576 2.57564Z"/>
</mask>
<path fill-rule="evenodd" clip-rule="evenodd" d="M2.57576 2.57564C2.81007 2.34132 3.18997 2.34132 3.42429 2.57564L9.42429 8.57564C9.6586 8.80995 9.6586 9.18985 9.42429 9.42417C9.18997 9.65848 8.81007 9.65848 8.57576 9.42417L2.57576 3.42417C2.34145 3.18985 2.34145 2.80995 2.57576 2.57564Z" fill="#09204F"/>
<path d="M3.42429 2.57564L2.57576 3.42417H2.57576L3.42429 2.57564ZM2.57576 2.57564L3.42429 3.42417L3.42429 3.42417L2.57576 2.57564ZM9.42429 8.57564L8.57576 9.42417L8.57576 9.42417L9.42429 8.57564ZM9.42429 9.42417L8.57576 8.57564L8.57576 8.57564L9.42429 9.42417ZM8.57576 9.42417L9.42429 8.57564L9.42429 8.57564L8.57576 9.42417ZM2.57576 3.42417L3.42429 2.57564V2.57564L2.57576 3.42417ZM4.27282 1.72711C3.56987 1.02417 2.43018 1.02417 1.72723 1.72711L3.42429 3.42417C3.18997 3.65848 2.81007 3.65848 2.57576 3.42417L4.27282 1.72711ZM10.2728 7.72711L4.27282 1.72711L2.57576 3.42417L8.57576 9.42417L10.2728 7.72711ZM10.2728 10.2727C10.9758 9.56975 10.9758 8.43005 10.2728 7.72711L8.57576 9.42417C8.34145 9.18985 8.34145 8.80995 8.57576 8.57564L10.2728 10.2727ZM7.72723 10.2727C8.43018 10.9756 9.56987 10.9756 10.2728 10.2727L8.57576 8.57564C8.81007 8.34132 9.18997 8.34132 9.42429 8.57564L7.72723 10.2727ZM1.72723 4.27269L7.72723 10.2727L9.42429 8.57564L3.42429 2.57564L1.72723 4.27269ZM1.72723 1.72711C1.02429 2.43005 1.02429 3.56975 1.72723 4.27269L3.42429 2.57564C3.6586 2.80995 3.6586 3.18985 3.42429 3.42417L1.72723 1.72711Z" fill="#09204F" mask="url(#path-1-inside-1)"/>
<mask id="path-3-inside-2" fill="white">
<path fill-rule="evenodd" clip-rule="evenodd" d="M9.42429 2.57564C9.6586 2.80995 9.6586 3.18985 9.42429 3.42417L3.42429 9.42417C3.18997 9.65848 2.81007 9.65848 2.57576 9.42417C2.34145 9.18985 2.34145 8.80995 2.57576 8.57564L8.57576 2.57564C8.81007 2.34132 9.18997 2.34132 9.42429 2.57564Z"/>
</mask>
<path fill-rule="evenodd" clip-rule="evenodd" d="M9.42429 2.57564C9.6586 2.80995 9.6586 3.18985 9.42429 3.42417L3.42429 9.42417C3.18997 9.65848 2.81007 9.65848 2.57576 9.42417C2.34145 9.18985 2.34145 8.80995 2.57576 8.57564L8.57576 2.57564C8.81007 2.34132 9.18997 2.34132 9.42429 2.57564Z" fill="#09204F"/>
<path d="M9.42429 3.42417L8.57576 2.57564L8.57576 2.57564L9.42429 3.42417ZM9.42429 2.57564L8.57576 3.42417L8.57576 3.42417L9.42429 2.57564ZM3.42429 9.42417L2.57576 8.57564L2.57576 8.57564L3.42429 9.42417ZM2.57576 9.42417L3.42429 8.57564L3.42429 8.57564L2.57576 9.42417ZM2.57576 8.57564L3.42429 9.42417H3.42429L2.57576 8.57564ZM8.57576 2.57564L9.42429 3.42417V3.42417L8.57576 2.57564ZM10.2728 4.2727C10.9758 3.56975 10.9758 2.43005 10.2728 1.72711L8.57576 3.42417C8.34145 3.18985 8.34145 2.80995 8.57576 2.57564L10.2728 4.2727ZM4.27282 10.2727L10.2728 4.27269L8.57576 2.57564L2.57576 8.57564L4.27282 10.2727ZM1.72723 10.2727C2.43018 10.9756 3.56987 10.9756 4.27282 10.2727L2.57576 8.57564C2.81007 8.34132 3.18997 8.34132 3.42429 8.57564L1.72723 10.2727ZM1.72723 7.72711C1.02429 8.43005 1.02429 9.56975 1.72723 10.2727L3.42429 8.57564C3.6586 8.80995 3.6586 9.18985 3.42429 9.42417L1.72723 7.72711ZM7.72723 1.72711L1.72723 7.72711L3.42429 9.42417L9.42429 3.42417L7.72723 1.72711ZM10.2728 1.72711C9.56987 1.02417 8.43018 1.02417 7.72723 1.72711L9.42429 3.42417C9.18997 3.65848 8.81007 3.65848 8.57576 3.42417L10.2728 1.72711Z" fill="#09204F" mask="url(#path-3-inside-2)"/>
</svg>
