<svg width="12" height="12" viewBox="0 0 12 12" fill="none" xmlns="http://www.w3.org/2000/svg">
<g clip-path="url(#clip0)">
<path d="M0 6C0 9.31371 2.68629 12 6 12C9.31371 12 12 9.31371 12 6C12 2.68629 9.31371 0 6 0C2.68629 0 0 2.68629 0 6Z" fill="#09204F"/>
<path fill-rule="evenodd" clip-rule="evenodd" d="M4.00507 4.00507C4.27844 3.73171 4.72166 3.73171 4.99502 4.00507L7.99502 7.00507C8.26839 7.27844 8.26839 7.72166 7.99502 7.99502C7.72166 8.26839 7.27844 8.26839 7.00507 7.99502L4.00507 4.99502C3.73171 4.72166 3.73171 4.27844 4.00507 4.00507Z" fill="white"/>
<path fill-rule="evenodd" clip-rule="evenodd" d="M7.99502 4.00507C8.26839 4.27844 8.26839 4.72166 7.99502 4.99502L4.99502 7.99502C4.72166 8.26839 4.27844 8.26839 4.00507 7.99502C3.73171 7.72166 3.73171 7.27844 4.00507 7.00507L7.00507 4.00507C7.27844 3.73171 7.72166 3.73171 7.99502 4.00507Z" fill="white"/>
</g>
<defs>
<clipPath id="clip0">
<rect width="12" height="12" fill="white" transform="translate(12) rotate(90)"/>
</clipPath>
</defs>
</svg>
