<svg width="12" height="12" viewBox="0 0 12 12" fill="none" xmlns="http://www.w3.org/2000/svg">
<path fill-rule="evenodd" clip-rule="evenodd" d="M0.400024 1.00002C0.400024 0.668654 0.668654 0.400024 1.00002 0.400024H8.00895C8.34032 0.400024 8.60895 0.668654 8.60895 1.00002V10.9762C8.60895 11.3076 8.34032 11.5762 8.00895 11.5762H1.00002C0.668654 11.5762 0.400024 11.3076 0.400024 10.9762V1.00002ZM1.60002 1.60002V10.3762H7.40895V1.60002H1.60002Z" fill="#09204F"/>
<path fill-rule="evenodd" clip-rule="evenodd" d="M7.54285 4.5834C7.54285 4.25203 7.81148 3.9834 8.14285 3.9834H11C11.3314 3.9834 11.6 4.25203 11.6 4.5834V10.9967C11.6 11.328 11.3314 11.5967 11 11.5967H8.14285C7.81148 11.5967 7.54285 11.328 7.54285 10.9967V4.5834ZM8.74285 5.1834V10.3967H10.4V5.1834H8.74285Z" fill="#09204F"/>
<path fill-rule="evenodd" clip-rule="evenodd" d="M6.59998 8.14968C6.59998 7.81831 6.33135 7.54968 5.99998 7.54968H3.14283C2.81146 7.54968 2.54283 7.81831 2.54283 8.14968V11C2.54283 11.3314 2.81146 11.6 3.14283 11.6H5.99998C6.33135 11.6 6.59998 11.3314 6.59998 11V8.14968ZM5.39998 8.74968V10.4H3.74283V8.74968H5.39998Z" fill="#09204F"/>
<path fill-rule="evenodd" clip-rule="evenodd" d="M2.54285 4.94302C2.54285 4.61165 2.81148 4.34302 3.14285 4.34302H5.99999C6.33136 4.34302 6.59999 4.61165 6.59999 4.94302C6.59999 5.27439 6.33136 5.54302 5.99999 5.54302H3.14285C2.81148 5.54302 2.54285 5.27439 2.54285 4.94302Z" fill="#09204F"/>
<path fill-rule="evenodd" clip-rule="evenodd" d="M2.54285 2.8052C2.54285 2.47383 2.81148 2.2052 3.14285 2.2052H5.99999C6.33136 2.2052 6.59999 2.47383 6.59999 2.8052C6.59999 3.13657 6.33136 3.4052 5.99999 3.4052H3.14285C2.81148 3.4052 2.54285 3.13657 2.54285 2.8052Z" fill="#09204F"/>
</svg>
