<svg width="12" height="12" viewBox="0 0 12 12" fill="none" xmlns="http://www.w3.org/2000/svg">
<path fill-rule="evenodd" clip-rule="evenodd" d="M5.50002 5.0999C5.27911 5.0999 5.10002 5.27899 5.10002 5.4999V9.9999C5.10002 10.2208 5.27911 10.3999 5.50002 10.3999H10C10.2209 10.3999 10.4 10.2208 10.4 9.9999V5.4999C10.4 5.27899 10.2209 5.0999 10 5.0999H5.50002ZM3.90002 5.4999C3.90002 4.61625 4.61637 3.8999 5.50002 3.8999H10C10.8837 3.8999 11.6 4.61625 11.6 5.4999V9.9999C11.6 10.8836 10.8837 11.5999 10 11.5999H5.50002C4.61637 11.5999 3.90002 10.8836 3.90002 9.9999V5.4999Z" fill="#09204F"/>
<path fill-rule="evenodd" clip-rule="evenodd" d="M2.00002 1.5999C1.89394 1.5999 1.7922 1.64205 1.71718 1.71706C1.64217 1.79207 1.60002 1.89382 1.60002 1.9999V6.4999C1.60002 6.60599 1.64217 6.70773 1.71718 6.78274C1.7922 6.85776 1.89394 6.8999 2.00002 6.8999H2.50002C2.8314 6.8999 3.10002 7.16853 3.10002 7.4999C3.10002 7.83127 2.8314 8.0999 2.50002 8.0999H2.00002C1.57568 8.0999 1.16871 7.93133 0.868654 7.63127C0.568595 7.33121 0.400024 6.92425 0.400024 6.4999V1.9999C0.400024 1.57556 0.568595 1.16859 0.868654 0.868531C1.16871 0.568473 1.57568 0.399902 2.00002 0.399902H6.50002C6.92437 0.399902 7.33134 0.568473 7.63139 0.868531C7.93145 1.16859 8.10002 1.57556 8.10002 1.9999V2.4999C8.10002 2.83127 7.8314 3.0999 7.50002 3.0999C7.16865 3.0999 6.90002 2.83127 6.90002 2.4999V1.9999C6.90002 1.89382 6.85788 1.79207 6.78287 1.71706C6.70785 1.64205 6.60611 1.5999 6.50002 1.5999H2.00002Z" fill="#09204F"/>
</svg>
