<svg width="12" height="12" viewBox="0 0 12 12" fill="none" xmlns="http://www.w3.org/2000/svg">
<g clip-path="url(#clip0)">
<path fill-rule="evenodd" clip-rule="evenodd" d="M1.20531 2.2C1.20218 2.21376 1.2 2.23044 1.2 2.25V9.75C1.2 9.76956 1.20218 9.78624 1.20531 9.8H10.7947C10.7978 9.78624 10.8 9.76956 10.8 9.75V2.25C10.8 2.23044 10.7978 2.21376 10.7947 2.2H1.20531ZM1.09091 1H10.9091C11.5116 1 12 1.55964 12 2.25V9.75C12 10.4404 11.5116 11 10.9091 11H1.09091C0.488417 11 0 10.4404 0 9.75V2.25C0 1.55964 0.488417 1 1.09091 1Z" fill="#09204F"/>
<path fill-rule="evenodd" clip-rule="evenodd" d="M-0.599976 4.50002C-0.599976 4.16865 -0.331346 3.90002 2.44379e-05 3.90002H12C12.3314 3.90002 12.6 4.16865 12.6 4.50002C12.6 4.8314 12.3314 5.10002 12 5.10002H2.44379e-05C-0.331346 5.10002 -0.599976 4.8314 -0.599976 4.50002Z" fill="#09204F"/>
</g>
<defs>
<clipPath id="clip0">
<rect width="12" height="12" fill="white" transform="translate(12) rotate(90)"/>
</clipPath>
</defs>
</svg>
