<svg width="12" height="12" viewBox="0 0 12 12" fill="none" xmlns="http://www.w3.org/2000/svg">
<path fill-rule="evenodd" clip-rule="evenodd" d="M6.57576 0.57576C6.81007 0.341446 7.18997 0.341446 7.42429 0.57576L9.42429 2.57576C9.6586 2.81007 9.6586 3.18997 9.42429 3.42429L3.92429 8.92429C3.81177 9.03681 3.65915 9.10003 3.50002 9.10003H1.50002C1.16865 9.10003 0.900024 8.8314 0.900024 8.50002V6.50002C0.900024 6.34089 0.963239 6.18828 1.07576 6.07576L6.57576 0.57576ZM2.10002 6.74855V7.90002H3.2515L8.1515 3.00002L7.00002 1.84855L2.10002 6.74855Z" fill="#09204F"/>
<path fill-rule="evenodd" clip-rule="evenodd" d="M0.900024 11C0.900024 10.6687 1.16865 10.4 1.50002 10.4H10.5C10.8314 10.4 11.1 10.6687 11.1 11C11.1 11.3314 10.8314 11.6 10.5 11.6H1.50002C1.16865 11.6 0.900024 11.3314 0.900024 11Z" fill="#09204F"/>
</svg>
