<svg width="12" height="12" viewBox="0 0 12 12" fill="none" xmlns="http://www.w3.org/2000/svg">
<g clip-path="url(#clip0)">
<path fill-rule="evenodd" clip-rule="evenodd" d="M6.00002 4.5999C5.22683 4.5999 4.60002 5.2267 4.60002 5.9999C4.60002 6.7731 5.22683 7.3999 6.00002 7.3999C6.77322 7.3999 7.40002 6.7731 7.40002 5.9999C7.40002 5.2267 6.77322 4.5999 6.00002 4.5999ZM3.40002 5.9999C3.40002 4.56396 4.56408 3.3999 6.00002 3.3999C7.43596 3.3999 8.60002 4.56396 8.60002 5.9999C8.60002 7.43584 7.43596 8.5999 6.00002 8.5999C4.56408 8.5999 3.40002 7.43584 3.40002 5.9999Z" fill="#09204F"/>
<path fill-rule="evenodd" clip-rule="evenodd" d="M3.60734 0.937289C4.75007 0.397266 6.04188 0.25969 7.27271 0.54693C8.50354 0.834169 9.60101 1.52933 10.3867 2.51938C11.1723 3.50943 11.6 4.73614 11.6 6.00004V6.50008C11.6 7.05703 11.3788 7.59118 10.985 7.985C10.5911 8.37883 10.057 8.60008 9.50003 8.60008C8.94308 8.60008 8.40893 8.37883 8.01511 7.985C7.62128 7.59118 7.40003 7.05703 7.40003 6.50008V4.00008C7.40003 3.66871 7.66866 3.40008 8.00003 3.40008C8.3314 3.40008 8.60003 3.66871 8.60003 4.00008V6.50008C8.60003 6.73878 8.69485 6.96769 8.86363 7.13648C9.03242 7.30526 9.26134 7.40008 9.50003 7.40008C9.73873 7.40008 9.96764 7.30526 10.1364 7.13648C10.3052 6.96769 10.4 6.73878 10.4 6.50008V6.00012C10.4 6.00011 10.4 6.00013 10.4 6.00012C10.4 5.00706 10.064 4.0432 9.44667 3.26531C8.82937 2.48742 7.96707 1.94122 6.99999 1.71553C6.03291 1.48984 5.01792 1.59794 4.12006 2.02224C3.2222 2.44654 2.49428 3.1621 2.05466 4.05256C1.61504 4.94301 1.48958 5.956 1.69866 6.92681C1.90775 7.89761 2.4391 8.76914 3.20631 9.39968C3.97351 10.0302 4.93146 10.3827 5.92438 10.3997C6.9173 10.4168 7.8868 10.0975 8.67523 9.49372C8.93832 9.29225 9.31492 9.34219 9.51639 9.60528C9.71787 9.86837 9.66792 10.245 9.40483 10.4464C8.40137 11.2149 7.16747 11.6213 5.90375 11.5996C4.64003 11.5778 3.42083 11.1293 2.44438 10.3268C1.46794 9.52425 0.791677 8.41504 0.525564 7.17947C0.259451 5.9439 0.419136 4.65464 0.978654 3.52133C1.53817 2.38802 2.46462 1.47731 3.60734 0.937289Z" fill="#09204F"/>
</g>
<defs>
<clipPath id="clip0">
<rect width="12" height="12" fill="white" transform="translate(12) rotate(90)"/>
</clipPath>
</defs>
</svg>
