<svg width="12" height="12" viewBox="0 0 12 12" fill="none" xmlns="http://www.w3.org/2000/svg">
<path fill-rule="evenodd" clip-rule="evenodd" d="M1.86865 0.868654C2.16871 0.568595 2.57568 0.400024 3.00002 0.400024H6.50002C6.65915 0.400024 6.81177 0.463239 6.92429 0.57576L10.4243 4.07576C10.5368 4.18828 10.6 4.34089 10.6 4.50002V10C10.6 10.4244 10.4315 10.8313 10.1314 11.1314C9.83134 11.4315 9.42437 11.6 9.00002 11.6H3.00002C2.57568 11.6 2.16871 11.4315 1.86865 11.1314C1.5686 10.8313 1.40002 10.4244 1.40002 10V2.00002C1.40002 1.57568 1.5686 1.16871 1.86865 0.868654ZM3.00002 1.60002C2.89394 1.60002 2.7922 1.64217 2.71718 1.71718C2.64217 1.7922 2.60002 1.89394 2.60002 2.00002V10C2.60002 10.1061 2.64217 10.2079 2.71718 10.2829C2.7922 10.3579 2.89394 10.4 3.00002 10.4H9.00002C9.10611 10.4 9.20785 10.3579 9.28287 10.2829C9.35788 10.2079 9.40002 10.1061 9.40002 10V4.74855L6.2515 1.60002H3.00002Z" fill="#09204F"/>
<path d="M6.5 1V4.5H10" fill="#09204F"/>
<path fill-rule="evenodd" clip-rule="evenodd" d="M6.50002 0.400024C6.8314 0.400024 7.10002 0.668654 7.10002 1.00002V3.90002H10C10.3314 3.90002 10.6 4.16865 10.6 4.50002C10.6 4.8314 10.3314 5.10002 10 5.10002H6.50002C6.16865 5.10002 5.90002 4.8314 5.90002 4.50002V1.00002C5.90002 0.668654 6.16865 0.400024 6.50002 0.400024Z" fill="#09204F"/>
</svg>
