<svg width="12" height="12" viewBox="0 0 12 12" fill="none" xmlns="http://www.w3.org/2000/svg">
<path fill-rule="evenodd" clip-rule="evenodd" d="M6.73315 1.9999C6.73315 1.66853 7.00178 1.3999 7.33315 1.3999H9.11093C9.50581 1.3999 9.88451 1.55677 10.1637 1.83599C10.443 2.11521 10.5998 2.49391 10.5998 2.88879V9.11101C10.5998 9.50589 10.443 9.8846 10.1637 10.1638C9.88451 10.443 9.50581 10.5999 9.11093 10.5999H7.33315C7.00178 10.5999 6.73315 10.3313 6.73315 9.9999C6.73315 9.66853 7.00178 9.3999 7.33315 9.3999H9.11093C9.18755 9.3999 9.26103 9.36947 9.31521 9.31529C9.36938 9.26111 9.39982 9.18763 9.39982 9.11101V2.88879C9.39982 2.81217 9.36938 2.73869 9.31521 2.68452C9.26103 2.63034 9.18755 2.5999 9.11093 2.5999H7.33315C7.00178 2.5999 6.73315 2.33127 6.73315 1.9999Z" fill="#09204F"/>
<path fill-rule="evenodd" clip-rule="evenodd" d="M4.68672 3.35347C4.92104 3.11916 5.30094 3.11916 5.53525 3.35347L7.75747 5.57569C7.99179 5.81001 7.99179 6.18991 7.75747 6.42422L5.53525 8.64644C5.30094 8.88076 4.92104 8.88076 4.68672 8.64644C4.45241 8.41213 4.45241 8.03223 4.68672 7.79791L6.48468 5.99996L4.68672 4.202C4.45241 3.96768 4.45241 3.58778 4.68672 3.35347Z" fill="#09204F"/>
<path fill-rule="evenodd" clip-rule="evenodd" d="M1.3999 5.9999C1.3999 5.66853 1.66853 5.3999 1.9999 5.3999H7.33324C7.66461 5.3999 7.93324 5.66853 7.93324 5.9999C7.93324 6.33127 7.66461 6.5999 7.33324 6.5999H1.9999C1.66853 6.5999 1.3999 6.33127 1.3999 5.9999Z" fill="#09204F"/>
</svg>
