<svg width="12" height="12" viewBox="0 0 12 12" fill="none" xmlns="http://www.w3.org/2000/svg">
<path fill-rule="evenodd" clip-rule="evenodd" d="M6.00002 1.5999C5.2309 1.5999 4.49327 1.90544 3.94941 2.44929C3.40556 2.99315 3.10002 3.73077 3.10002 4.4999V6.9999C3.10002 7.31421 3.02956 7.62125 2.89739 7.8999H9.10266C8.97048 7.62125 8.90002 7.31421 8.90002 6.9999V4.4999C8.90002 3.73077 8.59449 2.99315 8.05063 2.44929C7.50678 1.90544 6.76915 1.5999 6.00002 1.5999ZM11 7.8999C10.7613 7.8999 10.5324 7.80508 10.3636 7.6363C10.1948 7.46752 10.1 7.2386 10.1 6.9999V4.4999C10.1 3.41251 9.66806 2.36966 8.89916 1.60076C8.13026 0.831865 7.08741 0.399902 6.00002 0.399902C4.91264 0.399902 3.86979 0.831865 3.10089 1.60076C2.33199 2.36966 1.90002 3.41251 1.90002 4.4999V6.9999C1.90002 7.2386 1.8052 7.46752 1.63642 7.6363C1.46764 7.80508 1.23872 7.8999 1.00002 7.8999C0.668654 7.8999 0.400024 8.16853 0.400024 8.4999C0.400024 8.83127 0.668654 9.0999 1.00002 9.0999H11.1563C11.4876 9.0999 11.7563 8.83127 11.7563 8.4999C11.7563 8.16853 11.4876 7.8999 11.1563 7.8999H11Z" fill="#09204F"/>
<path fill-rule="evenodd" clip-rule="evenodd" d="M3.90002 10.4999C3.90002 10.1685 4.16865 9.8999 4.50002 9.8999H7.50002C7.8314 9.8999 8.10002 10.1685 8.10002 10.4999C8.10002 10.8313 7.8314 11.0999 7.50002 11.0999H4.50002C4.16865 11.0999 3.90002 10.8313 3.90002 10.4999Z" fill="#09204F"/>
</svg>
