<svg width="12" height="12" viewBox="0 0 12 12" fill="none" xmlns="http://www.w3.org/2000/svg">
<g clip-path="url(#clip0)">
<path d="M5 4L8.11111 6L5 8V4Z" fill="#09204F"/>
<path fill-rule="evenodd" clip-rule="evenodd" d="M4.76041 3.56114C4.92094 3.4735 5.11652 3.4805 5.27038 3.57941L8.38149 5.57941C8.5246 5.67141 8.61111 5.82987 8.61111 6C8.61111 6.17013 8.5246 6.32859 8.38149 6.42059L5.27038 8.42059C5.11652 8.5195 4.92094 8.5265 4.76041 8.43886C4.59987 8.35121 4.5 8.1829 4.5 8V4C4.5 3.8171 4.59987 3.64879 4.76041 3.56114ZM5.5 4.91583V7.08417L7.18648 6L5.5 4.91583Z" fill="#09204F"/>
<path fill-rule="evenodd" clip-rule="evenodd" d="M6 1.2C3.34903 1.2 1.2 3.34903 1.2 6C1.2 8.65097 3.34903 10.8 6 10.8C8.65097 10.8 10.8 8.65097 10.8 6C10.8 3.34903 8.65097 1.2 6 1.2ZM0 6C0 2.68629 2.68629 0 6 0C9.31371 0 12 2.68629 12 6C12 9.31371 9.31371 12 6 12C2.68629 12 0 9.31371 0 6Z" fill="#09204F"/>
</g>
<defs>
<clipPath id="clip0">
<rect width="12" height="12" fill="white"/>
</clipPath>
</defs>
</svg>
