<svg width="12" height="12" viewBox="0 0 12 12" fill="none" xmlns="http://www.w3.org/2000/svg">
<path fill-rule="evenodd" clip-rule="evenodd" d="M2.83568 4.53078C3.5356 4.53078 4.10107 3.96531 4.10107 3.26539C4.10107 2.56547 3.5356 2 2.83568 2C2.13576 2 1.57029 2.56547 1.57029 3.26539C1.57029 3.96531 2.13576 4.53078 2.83568 4.53078ZM9.1627 4.53078C9.86262 4.53078 10.4281 3.96531 10.4281 3.26539C10.4281 2.56547 9.86262 2 9.1627 2C8.46278 2 7.89731 2.56547 7.89731 3.26539C7.89731 3.96531 8.46278 4.53078 9.1627 4.53078ZM2.67753 7.40166C3.50003 8.3942 4.71402 8.95968 5.99918 8.95968C7.28435 8.95968 8.49833 8.39025 9.32084 7.40166C9.65695 6.99832 10.258 6.94691 10.6574 7.27908C11.0607 7.6152 11.1161 8.2123 10.78 8.61565C9.59369 10.0392 7.84982 10.8538 5.99918 10.8538C4.14855 10.8538 2.40468 10.0392 1.21838 8.61565C0.88621 8.2123 0.937617 7.6152 1.34096 7.27908C1.74035 6.94691 2.34141 6.99832 2.67753 7.40166Z" fill="#09204F"/>
</svg>
