<svg width="12" height="12" viewBox="0 0 12 12" fill="none" xmlns="http://www.w3.org/2000/svg">
<path fill-rule="evenodd" clip-rule="evenodd" d="M2.78057 4.56114C3.48889 4.56114 4.06114 3.98889 4.06114 3.28057C4.06114 2.57226 3.48889 2 2.78057 2C2.07226 2 1.5 2.57226 1.5 3.28057C1.5 3.98889 2.07226 4.56114 2.78057 4.56114ZM9.18338 4.56114C9.89169 4.56114 10.4639 3.98889 10.4639 3.28057C10.4639 2.57226 9.89169 2 9.18338 2C8.47506 2 7.90281 2.57226 7.90281 3.28057C7.90281 3.98889 8.47506 4.56114 9.18338 4.56114ZM3.39286 10.4833C4.03277 9.71106 4.97777 9.26863 5.98217 9.26863C6.984 9.26863 7.93013 9.71241 8.57136 10.4831C8.93177 10.9156 9.57701 10.9736 10.0082 10.6149C10.4419 10.2535 10.501 9.61123 10.1399 9.17787C9.10909 7.94088 7.59262 7.23136 5.98217 7.23136C4.37171 7.23136 2.85524 7.94088 1.82442 9.17787C1.46593 9.61318 1.52363 10.2545 1.95595 10.6148C2.38733 10.9736 3.03256 10.9156 3.39286 10.4833Z" fill="#09204F"/>
</svg>
