<svg width="12" height="12" viewBox="0 0 12 12" fill="none" xmlns="http://www.w3.org/2000/svg">
<path fill-rule="evenodd" clip-rule="evenodd" d="M5.5556 2.5999C3.92328 2.5999 2.60002 3.92316 2.60002 5.55548C2.60002 7.1878 3.92328 8.51105 5.5556 8.51105C7.18792 8.51105 8.51117 7.1878 8.51117 5.55548C8.51117 3.92316 7.18792 2.5999 5.5556 2.5999ZM1.40002 5.55548C1.40002 3.26042 3.26054 1.3999 5.5556 1.3999C7.85066 1.3999 9.71117 3.26042 9.71117 5.55548C9.71117 7.85054 7.85066 9.71105 5.5556 9.71105C3.26054 9.71105 1.40002 7.85054 1.40002 5.55548Z" fill="#09204F"/>
<path fill-rule="evenodd" clip-rule="evenodd" d="M7.64241 7.64229C7.87673 7.40797 8.25662 7.40797 8.49094 7.64229L10.4243 9.57563C10.6586 9.80995 10.6586 10.1898 10.4243 10.4242C10.19 10.6585 9.81007 10.6585 9.57575 10.4242L7.64241 8.49082C7.4081 8.2565 7.4081 7.8766 7.64241 7.64229Z" fill="#09204F"/>
</svg>
