<svg width="12" height="12" viewBox="0 0 12 12" fill="none" xmlns="http://www.w3.org/2000/svg">
<path fill-rule="evenodd" clip-rule="evenodd" d="M1.9999 5.3999C2.33127 5.3999 2.5999 5.66853 2.5999 5.9999V9.9999C2.5999 10.106 2.64205 10.2077 2.71706 10.2827C2.79207 10.3578 2.89382 10.3999 2.9999 10.3999H8.9999C9.10599 10.3999 9.20773 10.3578 9.28274 10.2827C9.35776 10.2077 9.3999 10.106 9.3999 9.9999V5.9999C9.3999 5.66853 9.66853 5.3999 9.9999 5.3999C10.3313 5.3999 10.5999 5.66853 10.5999 5.9999V9.9999C10.5999 10.4242 10.4313 10.8312 10.1313 11.1313C9.83122 11.4313 9.42425 11.5999 8.9999 11.5999H2.9999C2.57556 11.5999 2.16859 11.4313 1.86853 11.1313C1.56847 10.8312 1.3999 10.4242 1.3999 9.9999V5.9999C1.3999 5.66853 1.66853 5.3999 1.9999 5.3999Z" fill="#09204F"/>
<path fill-rule="evenodd" clip-rule="evenodd" d="M5.57564 0.575638C5.80995 0.341324 6.18985 0.341324 6.42417 0.575638L8.42417 2.57564C8.65848 2.80995 8.65848 3.18985 8.42417 3.42417C8.18985 3.65848 7.80995 3.65848 7.57564 3.42417L5.9999 1.84843L4.42417 3.42417C4.18985 3.65848 3.80995 3.65848 3.57564 3.42417C3.34132 3.18985 3.34132 2.80995 3.57564 2.57564L5.57564 0.575638Z" fill="#09204F"/>
<path fill-rule="evenodd" clip-rule="evenodd" d="M5.9999 0.399902C6.33127 0.399902 6.5999 0.668532 6.5999 0.999902V7.4999C6.5999 7.83127 6.33127 8.0999 5.9999 8.0999C5.66853 8.0999 5.3999 7.83127 5.3999 7.4999V0.999902C5.3999 0.668532 5.66853 0.399902 5.9999 0.399902Z" fill="#09204F"/>
</svg>
