<svg width="12" height="12" viewBox="0 0 12 12" fill="none" xmlns="http://www.w3.org/2000/svg">
<path d="M10.3808 4.478C10.3808 4.38162 10.3808 4.28577 10.3742 4.19047C10.8158 3.8764 11.1969 3.48652 11.5 3.04032C11.0886 3.2201 10.6514 3.33815 10.2042 3.39013C10.675 3.11234 11.0276 2.67589 11.1964 2.16093C10.7531 2.41977 10.2685 2.60225 9.7631 2.70027C8.9084 1.80571 7.47895 1.76239 6.5698 2.60388C5.98405 3.14646 5.7349 3.95546 5.91695 4.72709C4.1025 4.63721 2.4118 3.79355 1.2656 2.40569C0.66665 3.421 0.973 4.71951 1.96465 5.37148C1.6055 5.36119 1.25405 5.26588 0.94 5.09369V5.12184C0.94055 6.17939 1.6979 7.09019 2.7506 7.29975C2.4184 7.3891 2.0697 7.40209 1.732 7.33766C2.02735 8.24304 2.8749 8.86306 3.84015 8.88093C3.041 9.49932 2.05375 9.83505 1.03735 9.83397C0.85805 9.83342 0.67875 9.82313 0.5 9.80202C1.53235 10.454 2.733 10.8 3.9595 10.7984C8.11035 10.8 10.3808 7.41401 10.3808 4.478Z" fill="#09204F"/>
</svg>
