<svg width="12" height="12" viewBox="0 0 12 12" fill="none" xmlns="http://www.w3.org/2000/svg">
<path d="M6 5C6.82843 5 7.5 4.32843 7.5 3.5C7.5 2.67157 6.82843 2 6 2C5.17157 2 4.5 2.67157 4.5 3.5C4.5 4.32843 5.17157 5 6 5Z" fill="#09204F"/>
<path fill-rule="evenodd" clip-rule="evenodd" d="M6.00002 2.60002C5.50297 2.60002 5.10002 3.00297 5.10002 3.50002C5.10002 3.99708 5.50297 4.40002 6.00002 4.40002C6.49708 4.40002 6.90002 3.99708 6.90002 3.50002C6.90002 3.00297 6.49708 2.60002 6.00002 2.60002ZM3.90002 3.50002C3.90002 2.34023 4.84023 1.40002 6.00002 1.40002C7.15982 1.40002 8.10002 2.34023 8.10002 3.50002C8.10002 4.65982 7.15982 5.60002 6.00002 5.60002C4.84023 5.60002 3.90002 4.65982 3.90002 3.50002Z" fill="#09204F"/>
<path d="M6 7.20007C3.79086 7.20007 2 8.69093 2 10.9001H10C10 8.69093 8.20914 7.20007 6 7.20007Z" fill="#09204F"/>
<path fill-rule="evenodd" clip-rule="evenodd" d="M2.65551 10.3001H9.34453C9.06095 8.80653 7.71978 7.8001 6.00002 7.8001C4.28027 7.8001 2.9391 8.80653 2.65551 10.3001ZM1.40002 10.9001C1.40002 8.29955 3.52292 6.6001 6.00002 6.6001C8.47713 6.6001 10.6 8.29955 10.6 10.9001C10.6 11.2315 10.3314 11.5001 10 11.5001H2.00002C1.66865 11.5001 1.40002 11.2315 1.40002 10.9001Z" fill="#09204F"/>
</svg>
