<svg width="12" height="12" viewBox="0 0 12 12" fill="none" xmlns="http://www.w3.org/2000/svg">
<path fill-rule="evenodd" clip-rule="evenodd" d="M2.09002 1.60002C1.8194 1.60002 1.60002 1.8194 1.60002 2.09002V9.91002C1.60002 10.1806 1.8194 10.4 2.09002 10.4H9.91002C10.1806 10.4 10.4 10.1806 10.4 9.91002V2.09002C10.4 1.8194 10.1806 1.60002 9.91002 1.60002H2.09002ZM0.400024 2.09002C0.400024 1.15666 1.15666 0.400024 2.09002 0.400024H9.91002C10.8434 0.400024 11.6 1.15666 11.6 2.09002V9.91002C11.6 10.8434 10.8434 11.6 9.91002 11.6H2.09002C1.15666 11.6 0.400024 10.8434 0.400024 9.91002V2.09002Z" fill="#09204F"/>
<path fill-rule="evenodd" clip-rule="evenodd" d="M3.50002 0.400024C3.8314 0.400024 4.10002 0.668654 4.10002 1.00002V11C4.10002 11.3314 3.8314 11.6 3.50002 11.6C3.16865 11.6 2.90002 11.3314 2.90002 11V1.00002C2.90002 0.668654 3.16865 0.400024 3.50002 0.400024Z" fill="#09204F"/>
<path fill-rule="evenodd" clip-rule="evenodd" d="M8.50002 0.400024C8.8314 0.400024 9.10002 0.668654 9.10002 1.00002V11C9.10002 11.3314 8.8314 11.6 8.50002 11.6C8.16865 11.6 7.90002 11.3314 7.90002 11V1.00002C7.90002 0.668654 8.16865 0.400024 8.50002 0.400024Z" fill="#09204F"/>
<path fill-rule="evenodd" clip-rule="evenodd" d="M0.400024 6.00002C0.400024 5.66865 0.668654 5.40002 1.00002 5.40002H11C11.3314 5.40002 11.6 5.66865 11.6 6.00002C11.6 6.3314 11.3314 6.60002 11 6.60002H1.00002C0.668654 6.60002 0.400024 6.3314 0.400024 6.00002Z" fill="#09204F"/>
<path fill-rule="evenodd" clip-rule="evenodd" d="M0.400024 3.50002C0.400024 3.16865 0.668654 2.90002 1.00002 2.90002H3.50002C3.8314 2.90002 4.10002 3.16865 4.10002 3.50002C4.10002 3.8314 3.8314 4.10002 3.50002 4.10002H1.00002C0.668654 4.10002 0.400024 3.8314 0.400024 3.50002Z" fill="#09204F"/>
<path fill-rule="evenodd" clip-rule="evenodd" d="M0.400024 8.50002C0.400024 8.16865 0.668654 7.90002 1.00002 7.90002H3.50002C3.8314 7.90002 4.10002 8.16865 4.10002 8.50002C4.10002 8.8314 3.8314 9.10002 3.50002 9.10002H1.00002C0.668654 9.10002 0.400024 8.8314 0.400024 8.50002Z" fill="#09204F"/>
<path fill-rule="evenodd" clip-rule="evenodd" d="M7.90002 8.50002C7.90002 8.16865 8.16865 7.90002 8.50002 7.90002H11C11.3314 7.90002 11.6 8.16865 11.6 8.50002C11.6 8.8314 11.3314 9.10002 11 9.10002H8.50002C8.16865 9.10002 7.90002 8.8314 7.90002 8.50002Z" fill="#09204F"/>
<path fill-rule="evenodd" clip-rule="evenodd" d="M7.90002 3.50002C7.90002 3.16865 8.16865 2.90002 8.50002 2.90002H11C11.3314 2.90002 11.6 3.16865 11.6 3.50002C11.6 3.8314 11.3314 4.10002 11 4.10002H8.50002C8.16865 4.10002 7.90002 3.8314 7.90002 3.50002Z" fill="#09204F"/>
</svg>
