<svg width="16" height="17" viewBox="0 0 16 17" fill="none" xmlns="http://www.w3.org/2000/svg">
<path d="M7.9987 15.6576C4.3167 15.6576 1.33203 12.6729 1.33203 8.99089C1.33203 6.00555 3.29403 3.47889 5.9987 2.62955V4.04555C4.85265 4.51092 3.9039 5.36002 3.31474 6.44763C2.72558 7.53524 2.53262 8.79376 2.76887 10.0079C3.00512 11.2221 3.65589 12.3164 4.60987 13.1038C5.56386 13.8911 6.76177 14.3225 7.9987 14.3242C9.06122 14.3242 10.0995 14.0069 10.9806 13.413C11.8617 12.8192 12.5453 11.9758 12.944 10.9909H14.36C13.5107 13.6956 10.984 15.6576 7.9987 15.6576ZM14.632 9.65755H7.33203V2.35755C7.55136 2.33555 7.77403 2.32422 7.9987 2.32422C11.6807 2.32422 14.6654 5.30889 14.6654 8.99089C14.6654 9.21555 14.654 9.43822 14.632 9.65755ZM8.66536 3.69889V8.32422H13.2907C13.1423 7.14929 12.6073 6.05711 11.7699 5.21971C10.9325 4.38231 9.84029 3.84728 8.66536 3.69889Z" fill="#4489F2"/>
</svg>
