<svg width="48" height="48" viewBox="0 0 48 48" fill="none" xmlns="http://www.w3.org/2000/svg">
<path d="M32 6H16V42H32V6Z" fill="#BD0712"/>
<path d="M48 40C48 41.105 47.105 42 46 42H32V6H46C47.105 6 48 6.895 48 8V40Z" fill="#149717"/>
<path d="M16 42H2C0.895 42 0 41.105 0 40V8C0 6.895 0.895 6 2 6H16V42Z" fill="black"/>
<path d="M18 24C18 27.314 20.686 30 24 30C27.314 30 30 27.314 30 24H18ZM24 28C21.791 28 20 26.209 20 24C20 21.791 24 18 24 18C24 18 28 21.791 28 24C28 26.209 26.209 28 24 28Z" fill="white"/>
</svg>
