<svg width="48" height="48" viewBox="0 0 48 48" fill="none" xmlns="http://www.w3.org/2000/svg">
<path d="M48 40C48 41.105 47.105 42 46 42H2C0.895 42 0 41.105 0 40V8C0 6.895 0.895 6 2 6H46C47.105 6 48 6.895 48 8V40Z" fill="#161796"/>
<path d="M12 6L38 42V6H12Z" fill="#FFFF00"/>
<path d="M11.7169 10.997L12.8129 9.865H11.3129L10.6839 8.5L10.0549 9.865H8.55493L9.64993 10.997L9.24593 12.641L10.6839 11.824L12.1209 12.641L11.7169 10.997Z" fill="white"/>
<path d="M16.2971 15.2871H14.7971L14.1681 13.9221L13.5391 15.2871H12.0391L13.1351 16.4191L12.7301 18.0631L14.1681 17.2461L15.6051 18.0631L15.2011 16.4191L16.2971 15.2871Z" fill="white"/>
<path d="M18.8341 21.7941L19.9301 20.6621H18.4301L17.8011 19.2971L17.1721 20.6621H15.6721L16.7681 21.7941L16.3631 23.4381L17.8011 22.6211L19.2381 23.4381L18.8341 21.7941Z" fill="white"/>
<path d="M23.4919 25.865H21.9919L21.3629 24.5L20.7339 25.865H19.2339L20.3299 26.997L19.9259 28.641L21.3629 27.824L22.8009 28.641L22.3959 26.997L23.4919 25.865Z" fill="white"/>
<path d="M27.3129 31.2871H25.8129L25.1839 29.9221L24.5549 31.2871H23.0549L24.1499 32.4191L23.7459 34.0631L25.1839 33.2461L26.6209 34.0631L26.2169 32.4191L27.3129 31.2871Z" fill="white"/>
<path d="M31.57 36.7249H30.07L29.441 35.3589L28.813 36.7249H27.313L28.408 37.8559L28.004 39.4999L29.441 38.6839L30.879 39.4999L30.475 37.8559L31.57 36.7249Z" fill="white"/>
</svg>
