<svg width="48" height="48" viewBox="0 0 48 48" fill="none" xmlns="http://www.w3.org/2000/svg">
<path d="M48 40C48 41.105 47.105 42 46 42H2C0.895 42 0 41.105 0 40V8C0 6.895 0.895 6 2 6H46C47.105 6 48 6.895 48 8V40Z" fill="#009C3B"/>
<path d="M23.969 12.031L5.96899 24L23.969 36.031L42.031 24L23.969 12.031Z" fill="#FFFF00"/>
<path d="M24 32C28.4183 32 32 28.4183 32 24C32 19.5817 28.4183 16 24 16C19.5817 16 16 19.5817 16 24C16 28.4183 19.5817 32 24 32Z" fill="#052379"/>
<path d="M26.023 21.952C24.759 21.32 23.408 21.001 22.004 21.001C19.767 21.001 17.686 21.821 16.076 23.233C16.052 23.49 16 23.737 16 24C16 24.686 16.113 25.34 16.275 25.975C17.573 24.12 19.685 23.001 22.005 23.001C23.095 23.001 24.146 23.25 25.129 23.741C27.644 24.998 29.053 27.577 28.975 30.219C29.682 29.653 30.294 28.984 30.775 28.212C30.239 25.597 28.59 23.235 26.023 21.952Z" fill="white"/>
</svg>
