<svg width="48" height="48" viewBox="0 0 48 48" fill="none" xmlns="http://www.w3.org/2000/svg">
<path d="M0 38V10L20 24" fill="#2CB04D"/>
<path d="M48 38V10L28 24" fill="#2CB04D"/>
<path d="M48 8C48 6.895 47.105 6 46 6H44L24 20L4 6H2C0.895 6 0 6.895 0 8V10L20 24L0 38V40C0 41.105 0.895 42 2 42H4L24 28L44 42H46C47.105 42 48 41.105 48 40V38L28 24L48 10V8Z" fill="#E6E6E6"/>
<path d="M24 28L4 42H44L24 28Z" fill="#BD2230"/>
<path d="M24 20L4 6H44L24 20Z" fill="#BD2230"/>
<path d="M24 34C29.5228 34 34 29.5228 34 24C34 18.4772 29.5228 14 24 14C18.4772 14 14 18.4772 14 24C14 29.5228 18.4772 34 24 34Z" fill="#E6E6E6"/>
<path d="M26.145 19.299H24.685L24.073 17.969L23.46 19.299H22L23.066 20.399L22.672 22L24.072 21.205L25.472 22L25.078 20.398L26.145 19.299Z" fill="#BD2230"/>
<path d="M22.145 25.33H20.685L20.072 24L19.459 25.33H18L19.066 26.43L18.671 28.032L20.071 27.237L21.471 28.032L21.077 26.43L22.145 25.33Z" fill="#BD2230"/>
<path d="M30.145 25.33H28.685L28.072 24L27.459 25.33H26L27.066 26.43L26.671 28.032L28.071 27.237L29.471 28.032L29.077 26.43L30.145 25.33Z" fill="#BD2230"/>
</svg>
