<svg width="48" height="48" viewBox="0 0 48 48" fill="none" xmlns="http://www.w3.org/2000/svg">
<path d="M48 40C48 41.105 47.105 42 46 42H2C0.895 42 0 41.105 0 40V24H48V40Z" fill="#D52A20"/>
<path d="M18 24H0V8C0 6.895 0.895 6 2 6H18V24Z" fill="#003AB5"/>
<path d="M13.1839 13.6129H10.2369L8.99992 10.9299L7.76192 13.6139H4.81592L6.96792 15.8409L6.17092 19.0709L8.99992 17.4649L11.8279 19.0699L11.0309 15.8399L13.1839 13.6129Z" fill="white"/>
<path d="M48 24H18V6H46C47.105 6 48 6.895 48 8V24Z" fill="#E6E6E6"/>
</svg>
