<svg width="48" height="48" viewBox="0 0 48 48" fill="none" xmlns="http://www.w3.org/2000/svg">
<path d="M48 40C48 41.105 47.105 42 46 42H2C0.895 42 0 41.105 0 40V8C0 6.895 0.895 6 2 6H46C47.105 6 48 6.895 48 8V40Z" fill="#D82827"/>
<path d="M15.3961 13.299H11.7701L10.2481 10L8.72507 13.299H5.10107L7.74907 16.039L6.77107 20.014L10.2481 18.038L13.7261 20.014L12.7471 16.039L15.3961 13.299Z" fill="#FFFD38"/>
<path d="M17 12C17.5523 12 18 11.5523 18 11C18 10.4477 17.5523 10 17 10C16.4477 10 16 10.4477 16 11C16 11.5523 16.4477 12 17 12Z" fill="#FFFD38"/>
<path d="M17 20C17.5523 20 18 19.5523 18 19C18 18.4477 17.5523 18 17 18C16.4477 18 16 18.4477 16 19C16 19.5523 16.4477 20 17 20Z" fill="#FFFD38"/>
<path d="M21 14.001C21.5523 14.001 22 13.5529 22 13C22 12.4472 21.5523 11.999 21 11.999C20.4477 11.999 20 12.4472 20 13C20 13.5529 20.4477 14.001 21 14.001Z" fill="#FFFD38"/>
<path d="M20.9991 18C21.5525 18 22.0011 17.5523 22.0011 17C22.0011 16.4477 21.5525 16 20.9991 16C20.4457 16 19.9971 16.4477 19.9971 17C19.9971 17.5523 20.4457 18 20.9991 18Z" fill="#FFFD38"/>
</svg>
