<svg width="48" height="48" viewBox="0 0 48 48" fill="none" xmlns="http://www.w3.org/2000/svg">
<path d="M48 40C48 41.105 47.105 42 46 42H2C0.895 42 0 41.105 0 40V36H48V40Z" fill="#1D266B"/>
<path d="M48 18H0V30H48V18Z" fill="#EA212D"/>
<path d="M48 12H0V8C0 6.895 0.895 6 2 6H46C47.105 6 48 6.895 48 8V12Z" fill="#1D266B"/>
<path d="M48 30H0V36H48V30Z" fill="#E6E6E6"/>
<path d="M48 12H0V18H48V12Z" fill="#E6E6E6"/>
<path d="M14 20C11.791 20 10 21.791 10 24C10 26.209 11.791 28 14 28C16.209 28 18 26.209 18 24C18 21.791 16.209 20 14 20ZM14 26C12.895 26 12 25.105 12 24C12 22.895 12.895 22 14 22C15.105 22 16 22.895 16 24C16 25.105 15.105 26 14 26Z" fill="white"/>
</svg>
