<svg width="48" height="48" viewBox="0 0 48 48" fill="none" xmlns="http://www.w3.org/2000/svg">
<path d="M20 20H0V8C0 6.895 0.895 6 2 6H20V20Z" fill="#002F68"/>
<path d="M48 40C48 41.105 47.105 42 46 42H28V28H48V40Z" fill="#002F68"/>
<path d="M0 40C0 41.105 0.895 42 2 42H20V28H0V40Z" fill="#CE1127"/>
<path d="M28 20H48V8C48 6.895 47.105 6 46 6H28V20Z" fill="#CE1127"/>
<path d="M48 20H28V6H20V20H0V28H20V42H28V28H48V20Z" fill="#E6E6E6"/>
<path d="M24 20C21.791 20 20 21.791 20 24C20 26.209 21.791 28 24 28C26.209 28 28 26.209 28 24C28 21.791 26.209 20 24 20ZM24 26C22.895 26 22 25.105 22 24C22 22.895 22.895 22 24 22C25.105 22 26 22.895 26 24C26 25.105 25.105 26 24 26Z" fill="#688671"/>
</svg>
