<svg width="48" height="48" viewBox="0 0 48 48" fill="none" xmlns="http://www.w3.org/2000/svg">
<path d="M48 18H0V8C0 6.895 0.895 6 2 6H46C47.105 6 48 6.895 48 8V18Z" fill="#108745"/>
<path d="M48 18H0V30H48V18Z" fill="#FDDC05"/>
<path d="M48 40C48 41.105 47.105 42 46 42H2C0.895 42 0 41.105 0 40V30H48V40Z" fill="#C60B1E"/>
<path d="M24 34C29.5228 34 34 29.5228 34 24C34 18.4772 29.5228 14 24 14C18.4772 14 14 18.4772 14 24C14 29.5228 18.4772 34 24 34Z" fill="#20508E"/>
<path d="M28.3199 24.0001L30.6299 20.0001H26.0109L23.9999 16.5161L21.9879 20.0001H17.3689L19.6789 24.0001L17.3689 28.0001H21.9879L23.9999 31.4841L26.0119 28.0001H30.6309L28.3199 24.0001ZM23.1429 26.0001L21.9889 24.0001L23.1429 22.0001H24.8579L26.0119 24.0001L24.8579 26.0001H23.1429Z" fill="#FDDC05"/>
</svg>
