<svg width="48" height="48" viewBox="0 0 48 48" fill="none" xmlns="http://www.w3.org/2000/svg">
<path d="M48 40C48 41.105 47.105 42 46 42H2C0.895 42 0 41.105 0 40V8C0 6.895 0.895 6 2 6H46C47.105 6 48 6.895 48 8V40Z" fill="#E6E6E6"/>
<path d="M48 22H26V6H22V22H0V26H22V42H26V26H48V22Z" fill="#E7112D"/>
<path d="M12 10.001H10V14.001H6V16.001H10V20.001H12V16.001H16V14.001H12V10.001Z" fill="#E7112D"/>
<path d="M38 14V10H36V14H32V16H36V20H38V16H42V14H38Z" fill="#E7112D"/>
<path d="M12 28.001H10V32.001H6V34.001H10V38.001H12V34.001H16V32.001H12V28.001Z" fill="#E7112D"/>
<path d="M38 28H36V32H32V34H36V38H38V34H42V32H38V28Z" fill="#E7112D"/>
</svg>
