<svg width="48" height="48" viewBox="0 0 48 48" fill="none" xmlns="http://www.w3.org/2000/svg">
<path d="M46 6H2C0.896 6 0 6.896 0 8V40C0 41.104 0.896 42 2 42H46C47.104 42 48 41.104 48 40V8C48 6.896 47.104 6 46 6ZM42 36H6V12H42V36Z" fill="#D50F28"/>
<path d="M42 12H6V36H42V12Z" fill="#FFCA1C"/>
<path d="M18 24C18 22.769 18.373 21.625 19.01 20.673L6 12V36L19.01 27.327C18.373 26.375 18 25.231 18 24Z" fill="#007B56"/>
<path d="M30 24C30 22.769 29.627 21.625 28.99 20.673L42 12V36L28.99 27.327C29.627 26.375 30 25.231 30 24Z" fill="#007B56"/>
<path d="M24 30C27.3137 30 30 27.3137 30 24C30 20.6863 27.3137 18 24 18C20.6863 18 18 20.6863 18 24C18 27.3137 20.6863 30 24 30Z" fill="#D50F28"/>
<path d="M26 38H22V40H26V38Z" fill="#FFCA1C"/>
<path d="M18 38H14V40H18V38Z" fill="#FFCA1C"/>
<path d="M34 38H30V40H34V38Z" fill="#FFCA1C"/>
<path d="M26 8H22V10H26V8Z" fill="#FFCA1C"/>
<path d="M18 8H14V10H18V8Z" fill="#FFCA1C"/>
<path d="M34 8H30V10H34V8Z" fill="#FFCA1C"/>
<path d="M28.248 22.4659H25.256L24 19.7429L22.744 22.4659H19.752L21.938 24.7279L21.129 28.0069L24 26.3759L26.871 28.0069L26.063 24.7279L28.248 22.4659Z" fill="#E7CE02"/>
</svg>
