<svg width="48" height="48" viewBox="0 0 48 48" fill="none" xmlns="http://www.w3.org/2000/svg">
<path d="M48 18H0V8C0 6.895 0.895 6 2 6H46C47.105 6 48 6.895 48 8V18Z" fill="#0C72C4"/>
<path d="M48 18H0V30H48V18Z" fill="#E6E6E6"/>
<path d="M48 40C48 41.105 47.105 42 46 42H2C0.895 42 0 41.105 0 40V30H48V40Z" fill="#0C72C4"/>
<path d="M18.273 19.368H16.767L16.137 18L15.504 19.368H14L15.1 20.508L14.694 22.156L16.137 21.338L17.58 22.156L17.174 20.508L18.273 19.368Z" fill="#0067C6"/>
<path d="M18.273 27.212H16.767L16.136 25.844L15.503 27.212H14L15.1 28.352L14.693 30L16.136 29.182L17.58 30L17.174 28.352L18.273 27.212Z" fill="#0067C6"/>
<path d="M34.0001 19.368H32.4941L31.8631 18L31.2301 19.368H29.7261L30.8261 20.508L30.4201 22.156L31.8631 21.338L33.3061 22.156L32.9001 20.508L34.0001 19.368Z" fill="#0067C6"/>
<path d="M34.0001 27.212H32.4941L31.8631 25.844L31.2301 27.212H29.7261L30.8261 28.352L30.4201 30L31.8631 29.182L33.3071 30L32.9001 28.351L34.0001 27.212Z" fill="#0067C6"/>
<path d="M26.137 23.2901H24.631L24 21.9221L23.367 23.2901H21.863L22.963 24.4301L22.557 26.0781L24 25.2601L25.443 26.0781L25.037 24.4301L26.137 23.2901Z" fill="#0067C6"/>
</svg>
