<svg width="48" height="48" viewBox="0 0 48 48" fill="none" xmlns="http://www.w3.org/2000/svg">
<path d="M48 40C48 41.105 47.105 42 46 42H2C0.895 42 0 41.105 0 40V8C0 6.895 0.895 6 2 6H46C47.105 6 48 6.895 48 8V40Z" fill="#CE2029"/>
<path d="M31.7951 25.2359L30.0061 21.658C29.5131 20.67 28.3111 20.2689 27.3231 20.7629L25.5341 21.658L23.7451 18.0799C23.2511 17.0929 22.0501 16.692 21.0611 17.186L17.4841 18.9749L15.6951 15.3979C14.7071 15.8909 14.3061 17.0929 14.8001 18.0809L15.6951 19.87C16.1891 20.858 17.3901 21.2589 18.3791 20.7639L21.9561 18.9749L23.7451 22.5529L21.9561 23.4469C20.9691 23.941 20.5681 25.1419 21.0621 26.1299L22.8511 29.7079L19.2741 31.4969C19.7671 32.4839 20.9691 32.8849 21.9571 32.3919L23.7461 31.4969C24.7341 31.0029 25.1351 29.8019 24.6401 28.8129L22.8511 25.2359L24.6401 24.3409L26.4291 23.4459L28.2181 22.5519L30.0061 26.1289C30.5001 27.1169 31.7011 27.518 32.6901 27.0239L34.4791 26.1289C35.4661 25.6359 35.8671 24.4339 35.3731 23.4459L31.7951 25.2359Z" fill="white"/>
</svg>
