<svg width="48" height="48" viewBox="0 0 48 48" fill="none" xmlns="http://www.w3.org/2000/svg">
<path d="M48 18H14L2 6H46C47.105 6 48 6.895 48 8V18Z" fill="#2D2D2D"/>
<path d="M48 30H14L20 24L14 18H48V30Z" fill="#E6E6E6"/>
<path d="M48 40C48 41.105 47.105 42 46 42H2L14 30H48V40Z" fill="#0EA651"/>
<path d="M2 6C0.895 6 0 6.895 0 8V24V40C0 41.105 0.895 42 2 42L20 24L2 6Z" fill="#D81D38"/>
<path d="M8.359 19.5269L9.33 21.9839L11.855 21.2109L10.539 23.5019L12.719 24.9959L10.107 25.3949L10.299 28.0289L8.359 26.2359L6.42 28.0289L6.611 25.3949L4 24.9959L6.18 23.5019L4.863 21.2109L7.389 21.9839L8.359 19.5269Z" fill="white"/>
</svg>
