<svg width="48" height="48" viewBox="0 0 48 48" fill="none" xmlns="http://www.w3.org/2000/svg">
<path d="M48 14H0V8C0 6.895 0.895 6 2 6H46C47.105 6 48 6.895 48 8V14Z" fill="#E52635"/>
<path d="M48 14H0V34H48V14Z" fill="#41423D"/>
<path d="M48 40C48 41.105 47.105 42 46 42H2C0.895 42 0 41.105 0 40V34H48V40Z" fill="#0EA651"/>
<path d="M26 30C22.687 30 20 27.313 20 24C20 20.688 22.687 18 26 18C26.52 18 27.016 18.086 27.497 18.211C26.063 16.85 24.135 16 22 16C17.582 16 14 19.582 14 24C14 28.418 17.582 32 22 32C24.135 32 26.063 31.15 27.497 29.789C27.016 29.914 26.52 30 26 30Z" fill="white"/>
<path d="M34.0001 22.5429H31.0521L29.8161 19.8589L28.5791 22.5429H25.6321L27.7851 24.7699L26.9881 27.9999L29.8151 26.3949L32.6431 27.9999L31.8471 24.7699L34.0001 22.5429Z" fill="white"/>
</svg>
