<svg width="48" height="48" viewBox="0 0 48 48" fill="none" xmlns="http://www.w3.org/2000/svg">
<path d="M48 8C48 6.895 47.105 6 46 6H20V26H0V40C0 41.105 0.895 42 2 42H46C47.105 42 48 41.105 48 40V8Z" fill="#E6E6E6"/>
<path d="M48 10H20V14H48V10Z" fill="#DA2728"/>
<path d="M48 18H20V22H48V18Z" fill="#DA2728"/>
<path d="M0 26V30H48V26H20H0Z" fill="#DA2728"/>
<path d="M48 34H0V38H48V34Z" fill="#DA2728"/>
<path d="M20 26H0V8C0 6.895 0.895 6 2 6H20V26Z" fill="#073AAA"/>
<path d="M16 14H12V18H16V14Z" fill="#FED02F"/>
<path d="M6.4 16C6.4 13.766 7.933 11.906 10 11.369C9.615 11.269 9.217 11.199 8.801 11.199C6.148 11.199 4 13.35 4 16C4 18.65 6.148 20.801 8.801 20.801C9.217 20.801 9.615 20.731 10 20.631C7.934 20.094 6.4 18.234 6.4 16Z" fill="#FED02F"/>
</svg>
