<svg width="48" height="48" viewBox="0 0 48 48" fill="none" xmlns="http://www.w3.org/2000/svg">
<path d="M48 40C48 41.105 47.105 42 46 42H2C0.895 42 0 41.105 0 40V8C0 6.895 0.895 6 2 6H46C47.105 6 48 6.895 48 8V40Z" fill="#0D8643"/>
<path d="M31.573 17.5371C31.827 18.3181 32 19.1351 32 20.0001C32 24.4181 28.418 28.0001 24 28.0001C19.582 28.0001 16 24.4181 16 20.0001C16 19.1351 16.173 18.3181 16.427 17.5371C14.935 19.2851 14 21.5231 14 24.0001C14 29.5231 18.478 34.0001 24 34.0001C29.522 34.0001 34 29.5231 34 24.0001C34 21.5231 33.065 19.2851 31.573 17.5371Z" fill="#FFCE19"/>
<path d="M28.1849 16.5429H25.2369L23.9999 13.8589L22.7629 16.5429H19.8159L21.9689 18.7699L21.1729 21.9999L23.9999 20.3949L26.8269 21.9999L26.0309 18.7699L28.1849 16.5429Z" fill="#FFCE19"/>
</svg>
