<svg width="48" height="48" viewBox="0 0 48 48" fill="none" xmlns="http://www.w3.org/2000/svg">
<path d="M32 6.5H16V42.5H32V6.5Z" fill="#E6E6E6"/>
<path d="M48 40.5C48 41.605 47.105 42.5 46 42.5H32V6.5H46C47.105 6.5 48 7.395 48 8.5V40.5Z" fill="#D30F25"/>
<path d="M16 42.5H2C0.895 42.5 0 41.605 0 40.5V8.5C0 7.395 0.895 6.5 2 6.5H16V42.5Z" fill="#006847"/>
<path d="M24 18.5C20.688 18.5 18 21.188 18 24.5C18 27.813 20.688 30.5 24 30.5C27.313 30.5 30 27.813 30 24.5C30 21.188 27.313 18.5 24 18.5ZM24 28.5C21.791 28.5 20 26.709 20 24.5C20 22.291 21.791 20.5 24 20.5C26.209 20.5 28 22.291 28 24.5C28 26.709 26.209 28.5 24 28.5Z" fill="#6B422E"/>
</svg>
