<svg width="48" height="48" viewBox="0 0 48 48" fill="none" xmlns="http://www.w3.org/2000/svg">
<path d="M48 40C48 41.105 47.105 42 46 42H2C0.895 42 0 41.105 0 40V8C0 6.895 0.895 6 2 6H46C47.105 6 48 6.895 48 8V40Z" fill="#73B1DF"/>
<path d="M28.1839 14.5449H25.2369L23.9999 11.8589L22.7619 14.5449H19.8169L21.9689 16.7659L21.1719 19.9999L23.9999 18.3949L26.8279 19.9999L26.0309 16.7659L28.1839 14.5449Z" fill="#F6D031"/>
<path d="M28.1839 30.5449H25.2369L23.9999 27.8589L22.7619 30.5449H19.8169L21.9689 32.7659L21.1719 35.9999L23.9999 34.3949L26.8279 35.9999L26.0309 32.7659L28.1839 30.5449Z" fill="#F6D031"/>
<path d="M18.367 22.686H15.42L14.184 20L12.946 22.686H10L12.152 24.907L11.355 28.141L14.183 26.536L17.011 28.141L16.214 24.907L18.367 22.686Z" fill="#F6D031"/>
<path d="M38.367 22.686H35.42L34.184 20L32.946 22.686H30L32.152 24.907L31.355 28.141L34.183 26.536L37.011 28.141L36.214 24.907L38.367 22.686Z" fill="#F6D031"/>
</svg>
