<svg width="48" height="48" viewBox="0 0 48 48" fill="none" xmlns="http://www.w3.org/2000/svg">
<path d="M48.0001 18.0001L12.0001 42.0001H4.78906L48.0001 13.1931V18.0001Z" fill="#E6E6E6"/>
<path d="M36 6H43.211L0 34.807V30L36 6Z" fill="#E6E6E6"/>
<path d="M2 6H36L0 30V8C0 6.895 0.895 6 2 6Z" fill="#1A3A73"/>
<path d="M46 42H12L48 18V40C48 41.105 47.105 42 46 42Z" fill="#039847"/>
<path d="M4.789 42H2C0.895 42 0 41.105 0 40V34.807L43.211 6H46C47.105 6 48 6.895 48 8V13.193L4.789 42Z" fill="#BD1D27"/>
<path d="M8 18C10.2091 18 12 16.2091 12 14C12 11.7909 10.2091 10 8 10C5.79086 10 4 11.7909 4 14C4 16.2091 5.79086 18 8 18Z" fill="#F6D031"/>
</svg>
