<svg width="48" height="48" viewBox="0 0 48 48" fill="none" xmlns="http://www.w3.org/2000/svg">
<path d="M48 40C48 41.105 47.105 42 46 42H2C0.895 42 0 41.105 0 40V8C0 6.895 0.895 6 2 6H46C47.105 6 48 6.895 48 8V40Z" fill="#E6E6E6"/>
<path d="M12 22H28L8 6H2C0.896 6 0 6.895 0 8V20V40C0 41.105 0.896 42 2 42H30L12 22Z" fill="#DA1A40"/>
<path d="M12.6151 29.9939L11.4001 32.3649L14.0001 32.9589L11.5431 33.9959L13.1521 36.1189L10.6041 35.3359L10.4701 37.9999L9.02411 35.7599L7.20911 37.7129L7.54011 35.0679L4.89511 35.3979L6.85011 33.5839L4.61011 32.1369L7.27211 32.0039L6.48711 29.4549L8.61211 31.0639L9.64911 28.6089L10.2431 31.2069L12.6151 29.9939Z" fill="white"/>
<path d="M9 17C10.1046 17 11 16.1046 11 15C11 13.8954 10.1046 13 9 13C7.89543 13 7 13.8954 7 15C7 16.1046 7.89543 17 9 17Z" fill="white"/>
<path d="M9 20C6.243 20 4 17.758 4 15H6C6 16.654 7.346 18 9 18C10.654 18 12 16.654 12 15H14C14 17.758 11.757 20 9 20Z" fill="white"/>
</svg>
