<svg width="48" height="48" viewBox="0 0 48 48" fill="none" xmlns="http://www.w3.org/2000/svg">
<path d="M48 40C48 41.105 47.105 42 46 42H14V30H48V40Z" fill="#0F7F12"/>
<path d="M48 18H14V6H46C47.105 6 48 6.895 48 8V18Z" fill="#E6E6E6"/>
<path d="M14 18V6H2C0.896 6 0 6.895 0 8V40C0 41.105 0.896 42 2 42H14V30H48V18H14Z" fill="#D81B25"/>
<path d="M9.857 12.0959L8.556 10.5779L6.929 11.9729L5.302 10.5779L4 12.0959L5.393 13.2889L4 14.4819L5.302 15.9999L6.929 14.6049L8.556 15.9999L9.857 14.4819L8.465 13.2889L9.857 12.0959Z" fill="white"/>
</svg>
