<svg width="48" height="48" viewBox="0 0 48 48" fill="none" xmlns="http://www.w3.org/2000/svg">
<path d="M48 18H0V8C0 6.895 0.895 6 2 6H46C47.105 6 48 6.895 48 8V18Z" fill="#D63730"/>
<path d="M48 18H0V30H48V18Z" fill="#E6E6E6"/>
<path d="M48 40C48 41.105 47.105 42 46 42H2C0.895 42 0 41.105 0 40V30H48V40Z" fill="#0A3CAF"/>
<path d="M24 20C21.791 20 20 21.791 20 24C20 26.209 21.791 28 24 28C26.209 28 28 26.209 28 24C28 21.791 26.209 20 24 20ZM24 26C22.895 26 22 25.105 22 24C22 22.895 22.895 22 24 22C25.105 22 26 22.895 26 24C26 25.105 25.105 26 24 26Z" fill="#688671"/>
</svg>
