<svg width="48" height="48" viewBox="0 0 48 48" fill="none" xmlns="http://www.w3.org/2000/svg">
<path d="M48 40C48 41.105 47.105 42 46 42H2C0.895 42 0 41.105 0 40V8C0 6.895 0.895 6 2 6H46C47.105 6 48 6.895 48 8V40Z" fill="#0B6B37"/>
<path d="M38 14V16H32V18H38V20H32V22H38V24H32V26H38V28H30V24V22V20H28V22H26V24H28V28H24V18H22V28H20V18H18V28H16V24V22H14H10V20H16V18H10V14H8V18V20V22V24V28V30H10H14H16H38H40V28V18V16V14H38ZM10 28V24H14V28H10Z" fill="white"/>
<path d="M14 14H12V16H14V14Z" fill="white"/>
<path d="M24 14H18V16H24V14Z" fill="white"/>
<path d="M30 16H26V18H30V16Z" fill="white"/>
<path d="M40 34H8V36H40V34Z" fill="white"/>
</svg>
