<svg width="48" height="48" viewBox="0 0 48 48" fill="none" xmlns="http://www.w3.org/2000/svg">
<path d="M48 40C48 41.105 47.105 42 46 42H2C0.895 42 0 41.105 0 40V8C0 6.895 0.895 6 2 6H46C47.105 6 48 6.895 48 8V40Z" fill="#E6E6E6"/>
<path d="M0 14V18L10 24L0 30V34L16 24L0 14Z" fill="#DDB954"/>
<path d="M0 18V30L10 24L0 18Z" fill="black"/>
<path d="M48 40C48 41.105 47.105 42 46 42H10L24 32H48V40Z" fill="#1A3A73"/>
<path d="M48 16H24L10 6H46C47.105 6 48 6.895 48 8V16Z" fill="#BD1D27"/>
<path d="M23.395 20L2.395 6H2C0.896 6 0 6.895 0 8V14L16 24L0 34V40C0 41.105 0.896 42 2 42H2.395L23.395 28H48V20H23.395Z" fill="#0E825D"/>
</svg>
