<svg width="48" height="48" viewBox="0 0 48 48" fill="none" xmlns="http://www.w3.org/2000/svg">
<path d="M12 10H4V38H12V10Z" fill="#075641"/>
<path d="M20 10H12V38H20V10Z" fill="#FC5C1F"/>
<path d="M48 8C48 6.895 47.105 6 46 6H2C0.895 6 0 6.895 0 8V40C0 41.105 0.895 42 2 42H46C47.105 42 48 41.105 48 40V8ZM4 10H20V38H4V10ZM44 38H24V10H44V38Z" fill="#D5AD3B"/>
<path d="M44 10H24V38H44V10Z" fill="#8B222B"/>
<path d="M28 12H26V14H28V12Z" fill="#D5AD3B"/>
<path d="M42 12H40V14H42V12Z" fill="#D5AD3B"/>
<path d="M28 34H26V36H28V34Z" fill="#D5AD3B"/>
<path d="M42 34H40V36H42V34Z" fill="#D5AD3B"/>
<path d="M40 20V22H32V20C32 18.895 31.105 18 30 18H28H26C26 19.105 26.895 20 28 20V22V24H26C26 25.105 26.895 26 28 26V28C28 29.105 28.895 30 30 30V28C30 26.895 30.895 26 32 26H38C39.105 26 40 26.895 40 28V30C41.105 30 42 29.105 42 28V26V22C42 20.895 41.105 20 40 20Z" fill="#D5AD3B"/>
</svg>
