<svg width="48" height="48" viewBox="0 0 48 48" fill="none" xmlns="http://www.w3.org/2000/svg">
<path d="M48 18H0V8C0 6.895 0.895 6 2 6H46C47.105 6 48 6.895 48 8V18Z" fill="#3A7942"/>
<path d="M48 18H0V30H48V18Z" fill="#B5092F"/>
<path d="M48 40C48 41.105 47.105 42 46 42H2C0.895 42 0 41.105 0 40V30H48V40Z" fill="#3A7942"/>
<path d="M28.248 22.4061H25.256L24 19.6841L22.744 22.4071H19.752L21.938 24.6691L21.129 27.9481L24 26.3161L26.871 27.9471L26.063 24.6681L28.248 22.4061Z" fill="#E7CE02"/>
<path d="M48 16H0V18H48V16Z" fill="white"/>
<path d="M48 30H0V32H48V30Z" fill="white"/>
</svg>
