<svg width="48" height="48" viewBox="0 0 48 48" fill="none" xmlns="http://www.w3.org/2000/svg">
<path d="M48 40C48 41.105 47.105 42 46 42H2C0.895 42 0 41.105 0 40V8C0 6.895 0.895 6 2 6H46C47.105 6 48 6.895 48 8V40Z" fill="#DA1E05"/>
<path d="M35 28H13C12.448 28 12 27.552 12 27V21C12 20.448 12.448 20 13 20H35C35.552 20 36 20.448 36 21V27C36 27.552 35.552 28 35 28Z" fill="white"/>
<path d="M27 36H21C20.448 36 20 35.552 20 35V13C20 12.448 20.448 12 21 12H27C27.552 12 28 12.448 28 13V35C28 35.552 27.552 36 27 36Z" fill="white"/>
</svg>
