<svg width="48" height="48" viewBox="0 0 48 48" fill="none" xmlns="http://www.w3.org/2000/svg">
<path d="M48 40C48 41.105 47.105 42 46 42H2C0.895 42 0 41.105 0 40V30H48V40Z" fill="#000105"/>
<path d="M48 18H0V30H48V18Z" fill="#E6E6E6"/>
<path d="M48 18H0V8C0 6.895 0.895 6 2 6H46C47.105 6 48 6.895 48 8V18Z" fill="#CC162C"/>
<path d="M20.3131 22.6132H17.3651L16.1291 19.9292L14.8921 22.6132H11.9451L14.0981 24.8402L13.3021 28.0702L16.1291 26.4652L18.9561 28.0702L18.1601 24.8402L20.3131 22.6132Z" fill="#0E783D"/>
<path d="M36.0001 22.6132H33.0521L31.8161 19.9292L30.5791 22.6132H27.6321L29.7851 24.8402L28.9891 28.0702L31.8161 26.4652L34.6431 28.0702L33.8471 24.8402L36.0001 22.6132Z" fill="#0E783D"/>
</svg>
