<svg width="48" height="48" viewBox="0 0 48 48" fill="none" xmlns="http://www.w3.org/2000/svg">
<path d="M48 40C48 41.105 47.105 42 46 42H2C0.895 42 0 41.105 0 40V36H48V40Z" fill="#D12325"/>
<path d="M48 30H0V36H48V30Z" fill="#F8D406"/>
<path d="M48 24H0V30H48V24Z" fill="#443A17"/>
<path d="M48 18H0V24H48V18Z" fill="#D12325"/>
<path d="M0 12H48V8C48 6.895 47.105 6 46 6H2C0.895 6 0 6.895 0 8V12Z" fill="#443A17"/>
<path d="M48 12H0V18H48V12Z" fill="#F8D406"/>
<path d="M24 32C28.4183 32 32 28.4183 32 24C32 19.5817 28.4183 16 24 16C19.5817 16 16 19.5817 16 24C16 28.4183 19.5817 32 24 32Z" fill="white"/>
<path d="M26 22H22V20H24V18L20 20V22V24C20 25.105 20.895 26 22 26V30L24 26L26 30V26H28V24C28 22.895 27.105 22 26 22Z" fill="#9BA099"/>
</svg>
