<svg width="48" height="48" viewBox="0 0 48 48" fill="none" xmlns="http://www.w3.org/2000/svg">
<path d="M20 22L0 10V14L16 24L0 34V38L20 26H48V22H20Z" fill="#F8C90A"/>
<path d="M0 14V18V30V34L16 24L0 14Z" fill="black"/>
<path d="M2 6C0.895 6 0 6.895 0 8V10L20 22H48V10V8C48 6.895 47.105 6 46 6H2Z" fill="#F80000"/>
<path d="M2 42C0.895 42 0 41.105 0 40V38L20 26H48V38V40C48 41.105 47.105 42 46 42H2Z" fill="#088537"/>
<path d="M6 22C4.896 22 4 22.896 4 24C4 25.104 4.896 26 6 26C7.104 26 8 25.104 8 24C8 22.896 7.104 22 6 22ZM6 25C5.447 25 5 24.553 5 24C5 23.447 5.447 23 6 23C6.553 23 7 23.447 7 24C7 24.553 6.553 25 6 25Z" fill="#F8C90A"/>
</svg>
