<svg width="48" height="48" viewBox="0 0 48 48" fill="none" xmlns="http://www.w3.org/2000/svg">
<path d="M48 8C48 6.895 47.104 6 46 6H2C0.896 6 0 6.895 0 8V40C0 41.105 0.896 42 2 42H24V28H48V8Z" fill="#198B43"/>
<path d="M48 28H40V42H46C47.105 42 48 41.105 48 40V28Z" fill="#EA8028"/>
<path d="M40 28H32V42H40V28Z" fill="#57373A"/>
<path d="M32 28H24V42H32V28Z" fill="#DD2525"/>
<path d="M44.5529 16.894C44.8629 16.274 44.8299 15.538 44.4649 14.948C44.0999 14.358 43.4569 14 42.7639 14H29.2359C28.5429 14 27.8989 14.359 27.5349 14.949C27.1709 15.539 27.1369 16.275 27.4469 16.895L27.9999 18H43.9999L44.5529 16.894Z" fill="#7B6045"/>
<path d="M38 22L36 24L34 22V12C34 10.895 34.895 10 36 10C37.105 10 38 10.895 38 12V22Z" fill="#7B6045"/>
</svg>
