<svg width="28" height="28" viewBox="0 0 28 28" fill="none" xmlns="http://www.w3.org/2000/svg">
<path d="M13.9998 11.6666C12.2816 11.6666 10.8887 10.2737 10.8887 8.55545C10.8887 6.83723 12.2816 5.44434 13.9998 5.44434C15.718 5.44434 17.1109 6.83723 17.1109 8.55545C17.1109 10.2737 15.718 11.6666 13.9998 11.6666Z" fill="white"/>
<path d="M7.00051 18.822C7.30198 15.1099 10.3148 13.2227 13.987 13.2227C17.7109 13.2227 20.7705 15.0063 20.9984 18.8227C21.0075 18.9747 20.9984 19.4449 20.4141 19.4449C17.532 19.4449 13.2492 19.4449 7.56584 19.4449C7.37078 19.4449 6.98409 19.0242 7.00051 18.822Z" fill="white"/>
</svg>
