<svg width="28" height="28" viewBox="0 0 28 28" fill="none" xmlns="http://www.w3.org/2000/svg">
<g clip-path="url(#clip0)">
<path d="M9.14852 12.4912L13.8406 8.61116C13.8855 8.57398 13.942 8.55363 14.0003 8.55363C14.0586 8.55363 14.1151 8.57398 14.16 8.61116L18.8521 12.4912C18.9294 12.5554 19.0187 12.6035 19.1149 12.6325C19.2111 12.6615 19.3122 12.6709 19.412 12.6602C19.5119 12.6495 19.6087 12.6188 19.6965 12.57C19.7843 12.5212 19.8615 12.4553 19.9233 12.3761C20.0506 12.2148 20.11 12.0103 20.0889 11.8059C20.0678 11.6015 19.9678 11.4134 19.8103 11.2815L15.1182 7.40146C14.8035 7.14193 14.4082 7 14.0003 7C13.5924 7 13.1971 7.14193 12.8824 7.40146L8.19289 11.2815C8.03536 11.4134 7.93544 11.6015 7.91434 11.8059C7.89323 12.0103 7.95261 12.2148 8.07986 12.3761C8.14181 12.4548 8.21884 12.5203 8.30644 12.5687C8.39404 12.6172 8.49044 12.6477 8.58998 12.6584C8.68952 12.6692 8.79021 12.6599 8.88612 12.6312C8.98203 12.6025 9.07124 12.5549 9.14852 12.4912Z" fill="white"/>
<path d="M19.3308 18.4074V14.7778C19.3265 14.6218 19.2906 14.4683 19.2252 14.3266C19.1599 14.1849 19.0665 14.0579 18.9507 13.9533L14.647 10.3237C14.4662 10.1708 14.2371 10.0869 14.0004 10.0869C13.7637 10.0869 13.5346 10.1708 13.3538 10.3237L9.0501 13.9564C8.93445 14.0605 8.84106 14.187 8.77557 14.3281C8.71007 14.4693 8.67382 14.6222 8.66899 14.7778V18.4074C8.66637 18.6795 8.77179 18.9415 8.96213 19.1359C9.15248 19.3303 9.41218 19.4413 9.68425 19.4444H12.477C12.613 19.4429 12.7429 19.3875 12.8381 19.2902C12.9333 19.193 12.986 19.062 12.9846 18.9259V16.0741C12.9834 15.938 13.0361 15.8071 13.1313 15.7099C13.2264 15.6127 13.3562 15.5572 13.4923 15.5555H14.5075C14.6435 15.5572 14.7733 15.6127 14.8685 15.7099C14.9637 15.8071 15.0164 15.938 15.0151 16.0741V18.9259C15.0138 19.062 15.0664 19.193 15.1616 19.2902C15.2568 19.3875 15.3867 19.4429 15.5228 19.4444H18.3155C18.5876 19.4413 18.8473 19.3303 19.0376 19.1359C19.228 18.9415 19.3334 18.6795 19.3308 18.4074Z" fill="white"/>
</g>
<defs>
<clipPath id="clip0">
<rect width="12.4444" height="12.4444" fill="white" transform="translate(7.77783 7)"/>
</clipPath>
</defs>
</svg>
