<svg width="28" height="28" viewBox="0 0 28 28" fill="none" xmlns="http://www.w3.org/2000/svg">
<g clip-path="url(#clip0)">
<path d="M16.982 12.0561C16.3178 12.0561 15.7073 11.8185 15.2254 11.4213L12.2143 13.3674C12.3035 13.7845 12.3035 14.2167 12.2143 14.6338L15.2254 16.5798C15.7073 16.1825 16.3178 15.945 16.982 15.945C18.5397 15.945 19.8025 17.2508 19.8025 18.8617C19.8025 20.4725 18.5397 21.7783 16.982 21.7783C15.4243 21.7783 14.1615 20.4725 14.1615 18.8617C14.1615 18.6442 14.1847 18.4324 14.2284 18.2285L11.2173 16.2824C10.7354 16.6797 10.1249 16.9172 9.46065 16.9172C7.90293 16.9172 6.64014 15.6114 6.64014 14.0005C6.64014 12.3897 7.90293 11.0839 9.46065 11.0839C10.1249 11.0839 10.7354 11.3214 11.2173 11.7187L14.2284 9.77262C14.1839 9.5647 14.1614 9.35238 14.1615 9.13943C14.1615 7.52861 15.4243 6.22276 16.982 6.22276C18.5397 6.22276 19.8025 7.52861 19.8025 9.13943C19.8025 10.7503 18.5397 12.0561 16.982 12.0561Z" fill="white"/>
</g>
<defs>
<clipPath id="clip0">
<rect width="13.1624" height="15.5556" fill="white" transform="matrix(1 0 0 -1 6.64014 21.7783)"/>
</clipPath>
</defs>
</svg>
