<svg width="16" height="16" viewBox="0 0 16 16" fill="none" xmlns="http://www.w3.org/2000/svg">
<path d="M8.00016 14.6663C4.31816 14.6663 1.3335 11.6817 1.3335 7.99967C1.3335 4.31767 4.31816 1.33301 8.00016 1.33301C11.6822 1.33301 14.6668 4.31767 14.6668 7.99967C14.6668 11.6817 11.6822 14.6663 8.00016 14.6663ZM4.6755 12.1703C5.61919 12.9248 6.79195 13.3349 8.00016 13.333C9.3135 13.333 10.5155 12.8583 11.4448 12.0717C11.0106 11.6262 10.4915 11.2723 9.91819 11.0309C9.34484 10.7895 8.72891 10.6655 8.10683 10.6663C7.46189 10.6656 6.82383 10.7989 6.23314 11.0578C5.64245 11.3167 5.11202 11.6956 4.6755 12.1703ZM3.74416 11.213C4.30447 10.6184 4.98061 10.1448 5.73092 9.82149C6.48123 9.49815 7.28982 9.33191 8.10683 9.33301C8.8946 9.33198 9.67481 9.48658 10.4027 9.78793C11.1305 10.0893 11.7917 10.5314 12.3482 11.089C12.9189 10.2858 13.2559 9.3401 13.3219 8.35695C13.3878 7.3738 13.1801 6.3916 12.7218 5.51931C12.2635 4.64702 11.5725 3.91876 10.7255 3.4153C9.87844 2.91185 8.90849 2.6529 7.92323 2.66718C6.93798 2.68145 5.97594 2.9684 5.14384 3.49618C4.31175 4.02396 3.64214 4.77194 3.20929 5.65714C2.77645 6.54234 2.59729 7.53015 2.69171 8.51097C2.78612 9.4918 3.15041 10.4273 3.74416 11.2137V11.213ZM8.00016 8.66634C7.29292 8.66634 6.61464 8.38539 6.11454 7.88529C5.61445 7.3852 5.3335 6.70692 5.3335 5.99967C5.3335 5.29243 5.61445 4.61415 6.11454 4.11406C6.61464 3.61396 7.29292 3.33301 8.00016 3.33301C8.70741 3.33301 9.38568 3.61396 9.88578 4.11406C10.3859 4.61415 10.6668 5.29243 10.6668 5.99967C10.6668 6.70692 10.3859 7.3852 9.88578 7.88529C9.38568 8.38539 8.70741 8.66634 8.00016 8.66634ZM8.00016 7.33301C8.35379 7.33301 8.69292 7.19253 8.94297 6.94248C9.19302 6.69243 9.3335 6.3533 9.3335 5.99967C9.3335 5.64605 9.19302 5.30691 8.94297 5.05687C8.69292 4.80682 8.35379 4.66634 8.00016 4.66634C7.64654 4.66634 7.3074 4.80682 7.05735 5.05687C6.80731 5.30691 6.66683 5.64605 6.66683 5.99967C6.66683 6.3533 6.80731 6.69243 7.05735 6.94248C7.3074 7.19253 7.64654 7.33301 8.00016 7.33301Z" fill="#3970D9"/>
</svg>
