<svg width="28" height="28" viewBox="0 0 28 28" fill="none" xmlns="http://www.w3.org/2000/svg">
<path d="M22.1471 10.6834L22.1422 10.6786L19.4282 8.06822C18.716 7.38111 17.7644 6.99802 16.7747 7.00001C16.7051 7.01949 16.4741 6.9506 16.4268 7.20878C16.3472 7.80543 16.0607 8.35521 15.6172 8.76219C15.1737 9.16918 14.6014 9.40754 14.0001 9.43568C13.3987 9.40769 12.8263 9.16941 12.3826 8.76241C11.939 8.35541 11.6524 7.80554 11.5728 7.20878C11.5262 6.95129 11.2945 7.01949 11.2249 7.00001C10.2355 6.9982 9.28413 7.38127 8.57207 8.06822L5.85317 10.6834C5.7227 10.8139 5.64941 10.9909 5.64941 11.1754C5.64941 11.36 5.7227 11.5369 5.85317 11.6674L7.47045 13.2847C7.59075 13.4073 7.75255 13.4805 7.92407 13.4899C8.09559 13.4993 8.26442 13.4443 8.3974 13.3355L9.2638 12.6654C9.31547 12.6254 9.37736 12.6008 9.44237 12.5943C9.50739 12.5878 9.57291 12.5998 9.63144 12.6289C9.68997 12.6579 9.73913 12.7028 9.77331 12.7585C9.80749 12.8142 9.8253 12.8784 9.8247 12.9437V19.5263C9.8247 19.7109 9.89802 19.8879 10.0285 20.0184C10.159 20.1489 10.336 20.2222 10.5206 20.2222H17.4797C17.6642 20.2222 17.8412 20.1489 17.9717 20.0184C18.1022 19.8879 18.1756 19.7109 18.1756 19.5263V12.941C18.175 12.8756 18.1928 12.8114 18.227 12.7557C18.2611 12.7001 18.3103 12.6551 18.3688 12.6261C18.4274 12.597 18.4929 12.5851 18.5579 12.5915C18.6229 12.598 18.6848 12.6226 18.7365 12.6626L19.5931 13.3244C19.7265 13.4353 19.8964 13.4925 20.0697 13.4846C20.243 13.4768 20.4071 13.4045 20.5298 13.2819L22.1471 11.6647C22.2767 11.5343 22.3495 11.3579 22.3495 11.174C22.3495 10.9902 22.2767 10.8138 22.1471 10.6834Z" fill="white"/>
</svg>
