<svg width="28" height="28" viewBox="0 0 28 28" fill="none" xmlns="http://www.w3.org/2000/svg">
<path fill-rule="evenodd" clip-rule="evenodd" d="M13.9338 14.8886L15.648 13.1743C16.1214 12.7009 16.2388 11.9776 15.9394 11.3787L15.8423 11.1844C15.5428 10.5856 15.6602 9.86228 16.1336 9.38883L18.2592 7.26332C18.411 7.11145 18.6573 7.11145 18.8091 7.26332C18.8387 7.29287 18.8633 7.327 18.882 7.36439L19.7406 9.08168C20.3975 10.3954 20.14 11.9821 19.1014 13.0207L14.4356 17.6865C13.3051 18.817 11.6329 19.2118 10.1161 18.7062L8.23818 18.0802C8.03443 18.0123 7.92431 17.7921 7.99223 17.5883C8.01132 17.531 8.04349 17.479 8.08618 17.4363L10.1483 15.3742C10.6217 14.9007 11.345 14.7834 11.9439 15.0828L12.1381 15.1799C12.737 15.4794 13.4603 15.362 13.9338 14.8886Z" fill="white"/>
</svg>
