<svg width="16" height="16" viewBox="0 0 16 16" fill="none" xmlns="http://www.w3.org/2000/svg">
<path d="M7.9987 1.33333C11.6787 1.33333 14.6654 4.31999 14.6654 8C14.6654 11.68 11.6787 14.6667 7.9987 14.6667C4.3187 14.6667 1.33203 11.68 1.33203 8C1.33203 4.31999 4.3187 1.33333 7.9987 1.33333ZM4.01403 10.2773C4.9927 11.7373 6.46203 12.6667 8.10536 12.6667C9.74803 12.6667 11.218 11.738 12.196 10.2773C11.0865 9.24039 9.62399 8.66453 8.10536 8.66666C6.5865 8.66436 5.12371 9.24024 4.01403 10.2773ZM7.9987 7.33333C8.52913 7.33333 9.03784 7.12261 9.41291 6.74754C9.78798 6.37247 9.9987 5.86376 9.9987 5.33333C9.9987 4.8029 9.78798 4.29419 9.41291 3.91911C9.03784 3.54404 8.52913 3.33333 7.9987 3.33333C7.46827 3.33333 6.95956 3.54404 6.58448 3.91911C6.20941 4.29419 5.9987 4.8029 5.9987 5.33333C5.9987 5.86376 6.20941 6.37247 6.58448 6.74754C6.95956 7.12261 7.46827 7.33333 7.9987 7.33333Z" fill="#73ABFF"/>
</svg>
