<svg width="48" height="48" viewBox="0 0 48 48" fill="none" xmlns="http://www.w3.org/2000/svg">
<g clip-path="url(#clip0)">
<path d="M38.5838 38.5839C46.6383 30.5295 46.6383 17.4705 38.5838 9.41606C30.5294 1.36158 17.4705 1.36158 9.41597 9.41606C1.36148 17.4705 1.36148 30.5295 9.41597 38.5839C17.4705 46.6384 30.5294 46.6384 38.5838 38.5839Z" fill="white"/>
<path opacity="0.4" d="M23.9998 45.75C18.4123 45.75 12.8623 43.6125 8.6248 39.375C0.149805 30.9 0.149805 17.1 8.6248 8.62499C17.0998 0.149988 30.8998 0.149988 39.3748 8.62499C47.8498 17.1 47.8498 30.9 39.3748 39.375C35.1373 43.6125 29.5873 45.75 23.9998 45.75ZM23.9998 4.49999C19.0123 4.49999 14.0248 6.41249 10.1998 10.2C2.6248 17.8125 2.6248 30.1875 10.1998 37.8C17.8123 45.4125 30.1873 45.4125 37.7623 37.8C45.3748 30.1875 45.3748 17.8125 37.7623 10.2375C33.9748 6.41249 28.9873 4.49999 23.9998 4.49999Z" fill="#C6CAFC"/>
<path d="M31.125 22.875H25.125V16.875C25.125 16.2375 24.6375 15.75 24 15.75C23.3625 15.75 22.875 16.2375 22.875 16.875V22.875H16.875C16.2375 22.875 15.75 23.3625 15.75 24C15.75 24.6375 16.2375 25.125 16.875 25.125H22.875V31.125C22.875 31.7625 23.3625 32.25 24 32.25C24.6375 32.25 25.125 31.7625 25.125 31.125V25.125H31.125C31.7625 25.125 32.25 24.6375 32.25 24C32.25 23.3625 31.7625 22.875 31.125 22.875Z" fill="#8C95F8"/>
</g>
<defs>
<clipPath id="clip0">
<path d="M0 0H48V48H0V0Z" fill="white"/>
</clipPath>
</defs>
</svg>
