<svg width="26" height="24" viewBox="0 0 26 24" fill="none" xmlns="http://www.w3.org/2000/svg">
<path d="M11.1875 11C11.7398 11 12.1875 10.5523 12.1875 10V6C12.1875 5.44772 12.6352 5 13.1875 5H13.3125C13.8648 5 14.3125 5.44772 14.3125 6V10C14.3125 10.5523 14.7602 11 15.3125 11H19.6875C20.2398 11 20.6875 11.4477 20.6875 12C20.6875 12.5523 20.2398 13 19.6875 13H15.3125C14.7602 13 14.3125 13.4477 14.3125 14V18C14.3125 18.5523 13.8648 19 13.3125 19H13.1875C12.6352 19 12.1875 18.5523 12.1875 18V14C12.1875 13.4477 11.7398 13 11.1875 13H6.8125C6.26022 13 5.8125 12.5523 5.8125 12C5.8125 11.4477 6.26022 11 6.8125 11H11.1875Z" fill="#B4C0D4"/>
</svg>
