<svg width="16" height="16" viewBox="0 0 16 16" fill="none" xmlns="http://www.w3.org/2000/svg">
<path d="M3.33333 2.83333H2.83333V3.33333V12.6667V13.1667H3.33333H12.6667H13.1667V12.6667V3.33333V2.83333H12.6667H3.33333ZM7.33333 7.83333H7.83333V7.33333V5.16667H8.16667V7.33333V7.83333H8.66667H10.8333V8.16667H8.66667H8.16667V8.66667V10.8333H7.83333V8.66667V8.16667H7.33333H5.16667V7.83333H7.33333ZM2.66667 2.5H13.3333C13.3775 2.5 13.4199 2.51756 13.4512 2.54882C13.4824 2.58007 13.5 2.62246 13.5 2.66667V13.3333C13.5 13.3775 13.4824 13.4199 13.4512 13.4512C13.4199 13.4824 13.3775 13.5 13.3333 13.5H2.66667C2.62246 13.5 2.58007 13.4824 2.54881 13.4512C2.51756 13.4199 2.5 13.3775 2.5 13.3333V2.66667C2.5 2.62246 2.51756 2.58007 2.54882 2.54882C2.58007 2.51756 2.62246 2.5 2.66667 2.5Z" fill="#07080A" stroke="#687693"/>
</svg>
