<svg width="16" height="16" viewBox="0 0 16 16" fill="none" xmlns="http://www.w3.org/2000/svg">
<path d="M7.33325 7.33301V4.66634H8.66659V7.33301H11.3333V8.66634H8.66659V11.333H7.33325V8.66634H4.66659V7.33301H7.33325ZM7.99992 14.6663C4.31792 14.6663 1.33325 11.6817 1.33325 7.99967C1.33325 4.31767 4.31792 1.33301 7.99992 1.33301C11.6819 1.33301 14.6666 4.31767 14.6666 7.99967C14.6666 11.6817 11.6819 14.6663 7.99992 14.6663ZM7.99992 13.333C9.41441 13.333 10.771 12.7711 11.7712 11.7709C12.7713 10.7707 13.3333 9.41416 13.3333 7.99967C13.3333 6.58519 12.7713 5.22863 11.7712 4.22844C10.771 3.22824 9.41441 2.66634 7.99992 2.66634C6.58543 2.66634 5.22888 3.22824 4.22868 4.22844C3.22849 5.22863 2.66659 6.58519 2.66659 7.99967C2.66659 9.41416 3.22849 10.7707 4.22868 11.7709C5.22888 12.7711 6.58543 13.333 7.99992 13.333Z" fill="#97A4BD"/>
</svg>
