<svg width="326" height="126" viewBox="0 0 326 126" fill="none" xmlns="http://www.w3.org/2000/svg">
<circle cx="162" cy="32" r="32" fill="#F6F9FE"/>
<path d="M163 32H166L162 36L158 32H161V28H163V32ZM165 24H155V40H169V28H165V24ZM153 22.992C153 22.444 153.447 22 153.999 22H166L171 27V40.993C171.001 41.1243 170.976 41.2545 170.927 41.3762C170.877 41.4979 170.804 41.6087 170.712 41.7022C170.62 41.7957 170.51 41.8701 170.389 41.9212C170.268 41.9723 170.138 41.9991 170.007 42H153.993C153.73 41.9982 153.479 41.8931 153.293 41.7075C153.107 41.5219 153.002 41.2706 153 41.008V22.992Z" fill="#4489F2"/>
<path d="M2.05398 97C1.96064 97 1.88131 96.9673 1.81598 96.902C1.75064 96.8367 1.71798 96.7573 1.71798 96.664V87.55C1.71798 87.4473 1.74598 87.3633 1.80198 87.298C1.86731 87.2327 1.95131 87.2 2.05398 87.2H5.46998C8.22331 87.2 9.62798 88.4693 9.68398 91.008C9.70264 91.5493 9.71198 91.9133 9.71198 92.1C9.71198 92.2773 9.70264 92.6367 9.68398 93.178C9.64664 94.4847 9.29198 95.4507 8.61998 96.076C7.95731 96.692 6.93064 97 5.53998 97H2.05398ZM5.46998 95.376C6.24464 95.376 6.80464 95.2033 7.14998 94.858C7.49531 94.5127 7.67731 93.9387 7.69598 93.136C7.71464 92.576 7.72398 92.226 7.72398 92.086C7.72398 91.9367 7.71464 91.5913 7.69598 91.05C7.67731 90.2847 7.48598 89.7247 7.12198 89.37C6.75798 89.006 6.18398 88.824 5.39998 88.824H3.69198V95.376H5.46998ZM11.7297 97C11.6364 97 11.5571 96.9673 11.4917 96.902C11.4264 96.8367 11.3937 96.7573 11.3937 96.664V90.07C11.3937 89.9673 11.4264 89.8833 11.4917 89.818C11.5571 89.7527 11.6364 89.72 11.7297 89.72H12.8777C12.9804 89.72 13.0644 89.7527 13.1297 89.818C13.1951 89.8833 13.2277 89.9673 13.2277 90.07V90.644C13.6944 90.028 14.3664 89.72 15.2437 89.72H15.8317C15.9344 89.72 16.0137 89.7527 16.0697 89.818C16.1351 89.874 16.1677 89.9533 16.1677 90.056V91.078C16.1677 91.1713 16.1351 91.2507 16.0697 91.316C16.0137 91.3813 15.9344 91.414 15.8317 91.414H14.7257C14.2871 91.414 13.9417 91.54 13.6897 91.792C13.4377 92.044 13.3117 92.3893 13.3117 92.828V96.664C13.3117 96.7573 13.2791 96.8367 13.2137 96.902C13.1484 96.9673 13.0691 97 12.9757 97H11.7297ZM19.2636 97.14C18.7876 97.14 18.3489 97.0467 17.9476 96.86C17.5556 96.664 17.2429 96.4027 17.0096 96.076C16.7856 95.7493 16.6736 95.39 16.6736 94.998C16.6736 94.3633 16.9303 93.85 17.4436 93.458C17.9569 93.066 18.6616 92.8 19.5576 92.66L21.4756 92.38V92.086C21.4756 91.6847 21.3729 91.3813 21.1676 91.176C20.9623 90.9707 20.6356 90.868 20.1876 90.868C19.8796 90.868 19.6323 90.924 19.4456 91.036C19.2589 91.148 19.1049 91.2647 18.9836 91.386C18.8716 91.498 18.7969 91.5727 18.7596 91.61C18.7223 91.722 18.6523 91.778 18.5496 91.778H17.4576C17.3736 91.778 17.2989 91.75 17.2336 91.694C17.1776 91.638 17.1496 91.5633 17.1496 91.47C17.1589 91.2367 17.2709 90.9753 17.4856 90.686C17.7096 90.3873 18.0503 90.1307 18.5076 89.916C18.9649 89.692 19.5296 89.58 20.2016 89.58C21.3029 89.58 22.1056 89.8273 22.6096 90.322C23.1136 90.8167 23.3656 91.4653 23.3656 92.268V96.664C23.3656 96.7573 23.3329 96.8367 23.2676 96.902C23.2116 96.9673 23.1323 97 23.0296 97H21.8676C21.7743 97 21.6949 96.9673 21.6296 96.902C21.5643 96.8367 21.5316 96.7573 21.5316 96.664V96.118C21.3263 96.4167 21.0369 96.664 20.6636 96.86C20.2903 97.0467 19.8236 97.14 19.2636 97.14ZM19.7396 95.796C20.2529 95.796 20.6729 95.628 20.9996 95.292C21.3263 94.956 21.4896 94.4707 21.4896 93.836V93.556L20.0896 93.78C19.0163 93.948 18.4796 94.3073 18.4796 94.858C18.4796 95.1567 18.6009 95.39 18.8436 95.558C19.0956 95.7167 19.3943 95.796 19.7396 95.796ZM28.4513 100.08C27.6206 100.08 26.9486 99.94 26.4353 99.66C25.922 99.3893 25.558 99.0767 25.3433 98.722C25.1286 98.3673 25.0213 98.064 25.0213 97.812C25.0213 97.7187 25.054 97.6393 25.1193 97.574C25.1846 97.518 25.264 97.49 25.3573 97.49H26.6033C26.6873 97.49 26.7573 97.5087 26.8133 97.546C26.8786 97.5927 26.93 97.672 26.9673 97.784C27.07 98.0267 27.224 98.232 27.4293 98.4C27.6346 98.5773 27.952 98.666 28.3813 98.666C28.9413 98.666 29.352 98.54 29.6133 98.288C29.8746 98.0453 30.0053 97.616 30.0053 97V96.048C29.5013 96.6453 28.7873 96.944 27.8633 96.944C26.8926 96.944 26.16 96.65 25.6653 96.062C25.18 95.474 24.9186 94.6713 24.8813 93.654L24.8673 93.276L24.8813 92.898C24.9186 91.8993 25.1846 91.0967 25.6793 90.49C26.174 89.8833 26.902 89.58 27.8633 89.58C28.358 89.58 28.792 89.6733 29.1653 89.86C29.5386 90.0467 29.8466 90.2987 30.0893 90.616V90.07C30.0893 89.9673 30.122 89.8833 30.1873 89.818C30.262 89.7527 30.346 89.72 30.4393 89.72H31.5873C31.6806 89.72 31.76 89.7527 31.8253 89.818C31.8906 89.8833 31.9233 89.9673 31.9233 90.07L31.9373 96.818C31.9373 97.854 31.648 98.6567 31.0693 99.226C30.4906 99.7953 29.618 100.08 28.4513 100.08ZM28.3953 95.46C28.918 95.46 29.31 95.292 29.5713 94.956C29.8326 94.62 29.9773 94.2093 30.0053 93.724C30.0146 93.6493 30.0193 93.5 30.0193 93.276C30.0193 93.052 30.0146 92.9027 30.0053 92.828C29.9773 92.3427 29.8326 91.932 29.5713 91.596C29.31 91.26 28.918 91.092 28.3953 91.092C27.3873 91.092 26.8553 91.708 26.7993 92.94L26.7853 93.276C26.7853 94.732 27.322 95.46 28.3953 95.46ZM39.0878 97.14C38.6118 97.14 38.1731 97.0467 37.7718 96.86C37.3798 96.664 37.0671 96.4027 36.8338 96.076C36.6098 95.7493 36.4978 95.39 36.4978 94.998C36.4978 94.3633 36.7545 93.85 37.2678 93.458C37.7811 93.066 38.4858 92.8 39.3818 92.66L41.2998 92.38V92.086C41.2998 91.6847 41.1971 91.3813 40.9918 91.176C40.7865 90.9707 40.4598 90.868 40.0118 90.868C39.7038 90.868 39.4565 90.924 39.2698 91.036C39.0831 91.148 38.9291 91.2647 38.8078 91.386C38.6958 91.498 38.6211 91.5727 38.5838 91.61C38.5465 91.722 38.4765 91.778 38.3738 91.778H37.2818C37.1978 91.778 37.1231 91.75 37.0578 91.694C37.0018 91.638 36.9738 91.5633 36.9738 91.47C36.9831 91.2367 37.0951 90.9753 37.3098 90.686C37.5338 90.3873 37.8745 90.1307 38.3318 89.916C38.7891 89.692 39.3538 89.58 40.0258 89.58C41.1271 89.58 41.9298 89.8273 42.4338 90.322C42.9378 90.8167 43.1898 91.4653 43.1898 92.268V96.664C43.1898 96.7573 43.1571 96.8367 43.0918 96.902C43.0358 96.9673 42.9565 97 42.8538 97H41.6918C41.5985 97 41.5191 96.9673 41.4538 96.902C41.3885 96.8367 41.3558 96.7573 41.3558 96.664V96.118C41.1505 96.4167 40.8611 96.664 40.4878 96.86C40.1145 97.0467 39.6478 97.14 39.0878 97.14ZM39.5638 95.796C40.0771 95.796 40.4971 95.628 40.8238 95.292C41.1505 94.956 41.3138 94.4707 41.3138 93.836V93.556L39.9138 93.78C38.8405 93.948 38.3038 94.3073 38.3038 94.858C38.3038 95.1567 38.4251 95.39 38.6678 95.558C38.9198 95.7167 39.2185 95.796 39.5638 95.796ZM45.3215 97C45.2282 97 45.1489 96.9673 45.0835 96.902C45.0182 96.8367 44.9855 96.7573 44.9855 96.664V90.056C44.9855 89.9533 45.0182 89.874 45.0835 89.818C45.1489 89.7527 45.2282 89.72 45.3215 89.72H46.4835C46.5862 89.72 46.6655 89.7527 46.7215 89.818C46.7869 89.874 46.8195 89.9533 46.8195 90.056V90.63C47.3889 89.93 48.1682 89.58 49.1575 89.58C50.0162 89.58 50.6975 89.86 51.2015 90.42C51.7055 90.98 51.9575 91.75 51.9575 92.73V96.664C51.9575 96.7573 51.9249 96.8367 51.8595 96.902C51.8035 96.9673 51.7242 97 51.6215 97H50.3615C50.2682 97 50.1889 96.9673 50.1235 96.902C50.0582 96.8367 50.0255 96.7573 50.0255 96.664V92.814C50.0255 92.2727 49.8902 91.8527 49.6195 91.554C49.3582 91.246 48.9802 91.092 48.4855 91.092C48.0095 91.092 47.6269 91.246 47.3375 91.554C47.0482 91.862 46.9035 92.282 46.9035 92.814V96.664C46.9035 96.7573 46.8709 96.8367 46.8055 96.902C46.7495 96.9673 46.6702 97 46.5675 97H45.3215ZM56.4375 97.14C55.4949 97.14 54.7715 96.8413 54.2675 96.244C53.7635 95.6373 53.4882 94.83 53.4415 93.822L53.4275 93.36L53.4415 92.898C53.4789 91.9087 53.7495 91.1107 54.2535 90.504C54.7669 89.888 55.4949 89.58 56.4375 89.58C57.3335 89.58 58.0475 89.888 58.5795 90.504V87.396C58.5795 87.2933 58.6122 87.214 58.6775 87.158C58.7429 87.0927 58.8222 87.06 58.9155 87.06H60.1335C60.2362 87.06 60.3155 87.0927 60.3715 87.158C60.4369 87.214 60.4695 87.2933 60.4695 87.396V96.664C60.4695 96.7573 60.4369 96.8367 60.3715 96.902C60.3155 96.9673 60.2362 97 60.1335 97H58.9995C58.9062 97 58.8269 96.9673 58.7615 96.902C58.6962 96.8367 58.6635 96.7573 58.6635 96.664V96.146C58.1502 96.8087 57.4082 97.14 56.4375 97.14ZM56.9695 95.628C57.5015 95.628 57.8935 95.46 58.1455 95.124C58.4069 94.7787 58.5515 94.354 58.5795 93.85C58.5889 93.738 58.5935 93.5607 58.5935 93.318C58.5935 93.066 58.5889 92.884 58.5795 92.772C58.5609 92.3053 58.4162 91.9087 58.1455 91.582C57.8749 91.2553 57.4829 91.092 56.9695 91.092C55.9709 91.092 55.4389 91.708 55.3735 92.94L55.3595 93.36L55.3735 93.78C55.4389 95.012 55.9709 95.628 56.9695 95.628ZM68.2227 97.14C67.28 97.14 66.5567 96.8413 66.0527 96.244C65.5487 95.6373 65.2733 94.83 65.2267 93.822L65.2127 93.36L65.2267 92.898C65.264 91.9087 65.5347 91.1107 66.0387 90.504C66.552 89.888 67.28 89.58 68.2227 89.58C69.1187 89.58 69.8327 89.888 70.3647 90.504V87.396C70.3647 87.2933 70.3973 87.214 70.4627 87.158C70.528 87.0927 70.6073 87.06 70.7007 87.06H71.9187C72.0213 87.06 72.1007 87.0927 72.1567 87.158C72.222 87.214 72.2547 87.2933 72.2547 87.396V96.664C72.2547 96.7573 72.222 96.8367 72.1567 96.902C72.1007 96.9673 72.0213 97 71.9187 97H70.7847C70.6913 97 70.612 96.9673 70.5467 96.902C70.4813 96.8367 70.4487 96.7573 70.4487 96.664V96.146C69.9353 96.8087 69.1933 97.14 68.2227 97.14ZM68.7547 95.628C69.2867 95.628 69.6787 95.46 69.9307 95.124C70.192 94.7787 70.3367 94.354 70.3647 93.85C70.374 93.738 70.3787 93.5607 70.3787 93.318C70.3787 93.066 70.374 92.884 70.3647 92.772C70.346 92.3053 70.2013 91.9087 69.9307 91.582C69.66 91.2553 69.268 91.092 68.7547 91.092C67.756 91.092 67.224 91.708 67.1587 92.94L67.1447 93.36L67.1587 93.78C67.224 95.012 67.756 95.628 68.7547 95.628ZM74.4563 97C74.363 97 74.2836 96.9673 74.2183 96.902C74.153 96.8367 74.1203 96.7573 74.1203 96.664V90.07C74.1203 89.9673 74.153 89.8833 74.2183 89.818C74.2836 89.7527 74.363 89.72 74.4563 89.72H75.6043C75.707 89.72 75.791 89.7527 75.8563 89.818C75.9216 89.8833 75.9543 89.9673 75.9543 90.07V90.644C76.421 90.028 77.093 89.72 77.9703 89.72H78.5583C78.661 89.72 78.7403 89.7527 78.7963 89.818C78.8616 89.874 78.8943 89.9533 78.8943 90.056V91.078C78.8943 91.1713 78.8616 91.2507 78.7963 91.316C78.7403 91.3813 78.661 91.414 78.5583 91.414H77.4523C77.0136 91.414 76.6683 91.54 76.4163 91.792C76.1643 92.044 76.0383 92.3893 76.0383 92.828V96.664C76.0383 96.7573 76.0056 96.8367 75.9403 96.902C75.875 96.9673 75.7956 97 75.7023 97H74.4563ZM83.1238 97.14C82.0225 97.14 81.1732 96.86 80.5758 96.3C79.9785 95.74 79.6565 94.9653 79.6098 93.976L79.5958 93.36L79.6098 92.744C79.6565 91.764 79.9832 90.994 80.5898 90.434C81.1965 89.8647 82.0412 89.58 83.1238 89.58C84.1972 89.58 85.0372 89.8647 85.6438 90.434C86.2505 90.994 86.5772 91.764 86.6238 92.744C86.6332 92.856 86.6378 93.0613 86.6378 93.36C86.6378 93.6587 86.6332 93.864 86.6238 93.976C86.5772 94.9653 86.2552 95.74 85.6578 96.3C85.0605 96.86 84.2158 97.14 83.1238 97.14ZM83.1238 95.726C83.6185 95.726 83.9965 95.572 84.2578 95.264C84.5285 94.956 84.6732 94.5033 84.6918 93.906C84.7012 93.8127 84.7058 93.6307 84.7058 93.36C84.7058 93.0893 84.7012 92.9073 84.6918 92.814C84.6732 92.2167 84.5285 91.764 84.2578 91.456C83.9872 91.1387 83.6092 90.98 83.1238 90.98C82.6292 90.98 82.2465 91.1387 81.9758 91.456C81.7052 91.764 81.5605 92.2167 81.5418 92.814L81.5278 93.36L81.5418 93.906C81.5605 94.5033 81.7052 94.956 81.9758 95.264C82.2465 95.572 82.6292 95.726 83.1238 95.726ZM88.5386 99.66C88.4453 99.66 88.366 99.6273 88.3006 99.562C88.2353 99.506 88.2026 99.4267 88.2026 99.324V90.056C88.2026 89.9533 88.2353 89.874 88.3006 89.818C88.366 89.7527 88.4453 89.72 88.5386 89.72H89.6586C89.7613 89.72 89.8453 89.7527 89.9106 89.818C89.976 89.8833 90.0086 89.9627 90.0086 90.056V90.616C90.5033 89.9253 91.2453 89.58 92.2346 89.58C93.1773 89.58 93.9006 89.8787 94.4046 90.476C94.9086 91.064 95.1793 91.8573 95.2166 92.856C95.226 92.968 95.2306 93.136 95.2306 93.36C95.2306 93.584 95.226 93.752 95.2166 93.864C95.1886 94.844 94.918 95.6373 94.4046 96.244C93.9006 96.8413 93.1773 97.14 92.2346 97.14C91.3013 97.14 90.5873 96.8087 90.0926 96.146V99.324C90.0926 99.4267 90.06 99.506 89.9946 99.562C89.9386 99.6273 89.8593 99.66 89.7566 99.66H88.5386ZM91.7026 95.628C92.7013 95.628 93.2333 95.012 93.2986 93.78C93.308 93.6867 93.3126 93.5467 93.3126 93.36C93.3126 93.1733 93.308 93.0333 93.2986 92.94C93.2333 91.708 92.7013 91.092 91.7026 91.092C91.1706 91.092 90.774 91.2647 90.5126 91.61C90.2513 91.9553 90.1113 92.3753 90.0926 92.87C90.0833 92.982 90.0786 93.1593 90.0786 93.402C90.0786 93.6447 90.0833 93.8267 90.0926 93.948C90.1113 94.4147 90.256 94.8113 90.5266 95.138C90.7973 95.4647 91.1893 95.628 91.7026 95.628ZM103.922 97.14C102.634 97.14 101.635 96.8133 100.926 96.16C100.226 95.4973 99.8525 94.5593 99.8058 93.346C99.7965 93.094 99.7918 92.6833 99.7918 92.114C99.7918 91.5353 99.7965 91.1153 99.8058 90.854C99.8525 89.6593 100.23 88.7307 100.94 88.068C101.649 87.396 102.643 87.06 103.922 87.06C104.752 87.06 105.476 87.2047 106.092 87.494C106.708 87.774 107.184 88.1613 107.52 88.656C107.865 89.1507 108.047 89.706 108.066 90.322V90.35C108.066 90.4247 108.033 90.49 107.968 90.546C107.912 90.5927 107.846 90.616 107.772 90.616H106.414C106.302 90.616 106.218 90.5927 106.162 90.546C106.106 90.49 106.059 90.3967 106.022 90.266C105.882 89.6873 105.639 89.2813 105.294 89.048C104.948 88.8053 104.491 88.684 103.922 88.684C102.587 88.684 101.892 89.4307 101.836 90.924C101.826 91.176 101.822 91.5633 101.822 92.086C101.822 92.6087 101.826 93.0053 101.836 93.276C101.892 94.7693 102.587 95.516 103.922 95.516C104.482 95.516 104.934 95.3993 105.28 95.166C105.634 94.9233 105.882 94.5127 106.022 93.934C106.059 93.8033 106.106 93.7147 106.162 93.668C106.218 93.612 106.302 93.584 106.414 93.584H107.772C107.856 93.584 107.926 93.612 107.982 93.668C108.047 93.724 108.075 93.794 108.066 93.878C108.047 94.494 107.865 95.0493 107.52 95.544C107.184 96.0387 106.708 96.4307 106.092 96.72C105.476 97 104.752 97.14 103.922 97.14ZM113.142 97.14C112.302 97.14 111.583 97.014 110.986 96.762C110.388 96.51 109.936 96.1787 109.628 95.768C109.32 95.3573 109.156 94.9093 109.138 94.424C109.138 94.3493 109.166 94.284 109.222 94.228C109.278 94.1627 109.348 94.13 109.432 94.13H110.706C110.808 94.13 110.892 94.1533 110.958 94.2C111.023 94.2467 111.084 94.312 111.14 94.396C111.233 94.7133 111.443 94.9793 111.77 95.194C112.106 95.4087 112.563 95.516 113.142 95.516C113.795 95.516 114.285 95.4087 114.612 95.194C114.948 94.97 115.116 94.6667 115.116 94.284C115.116 94.032 115.032 93.822 114.864 93.654C114.696 93.486 114.439 93.3413 114.094 93.22C113.758 93.0893 113.254 92.9353 112.582 92.758C111.48 92.4967 110.673 92.1513 110.16 91.722C109.646 91.2927 109.39 90.6767 109.39 89.874C109.39 89.3327 109.539 88.852 109.838 88.432C110.136 88.0027 110.561 87.6667 111.112 87.424C111.672 87.1813 112.32 87.06 113.058 87.06C113.832 87.06 114.5 87.1953 115.06 87.466C115.629 87.7367 116.058 88.0773 116.348 88.488C116.646 88.8893 116.805 89.2907 116.824 89.692C116.824 89.7667 116.796 89.8367 116.74 89.902C116.684 89.958 116.614 89.986 116.53 89.986H115.2C114.994 89.986 114.854 89.902 114.78 89.734C114.733 89.4353 114.551 89.188 114.234 88.992C113.916 88.7867 113.524 88.684 113.058 88.684C112.544 88.684 112.138 88.782 111.84 88.978C111.55 89.174 111.406 89.4587 111.406 89.832C111.406 90.084 111.48 90.294 111.63 90.462C111.779 90.63 112.012 90.7793 112.33 90.91C112.647 91.0313 113.109 91.1713 113.716 91.33C114.546 91.5167 115.204 91.7267 115.69 91.96C116.184 92.1933 116.548 92.4873 116.782 92.842C117.015 93.1967 117.132 93.6493 117.132 94.2C117.132 94.8067 116.964 95.334 116.628 95.782C116.301 96.2207 115.834 96.5567 115.228 96.79C114.63 97.0233 113.935 97.14 113.142 97.14ZM121.236 97C120.956 97 120.774 96.8693 120.69 96.608L117.694 87.62C117.685 87.592 117.68 87.55 117.68 87.494C117.68 87.41 117.708 87.34 117.764 87.284C117.82 87.228 117.89 87.2 117.974 87.2H119.22C119.341 87.2 119.439 87.2327 119.514 87.298C119.589 87.3633 119.64 87.4333 119.668 87.508L122.006 94.676L124.358 87.508C124.377 87.4333 124.423 87.3633 124.498 87.298C124.573 87.2327 124.671 87.2 124.792 87.2H126.052C126.127 87.2 126.192 87.228 126.248 87.284C126.313 87.34 126.346 87.41 126.346 87.494L126.318 87.62L123.336 96.608C123.243 96.8693 123.061 97 122.79 97H121.236ZM133.71 97.14C132.608 97.14 131.759 96.86 131.162 96.3C130.564 95.74 130.242 94.9653 130.196 93.976L130.182 93.36L130.196 92.744C130.242 91.764 130.569 90.994 131.176 90.434C131.782 89.8647 132.627 89.58 133.71 89.58C134.783 89.58 135.623 89.8647 136.23 90.434C136.836 90.994 137.163 91.764 137.21 92.744C137.219 92.856 137.224 93.0613 137.224 93.36C137.224 93.6587 137.219 93.864 137.21 93.976C137.163 94.9653 136.841 95.74 136.244 96.3C135.646 96.86 134.802 97.14 133.71 97.14ZM133.71 95.726C134.204 95.726 134.582 95.572 134.844 95.264C135.114 94.956 135.259 94.5033 135.278 93.906C135.287 93.8127 135.292 93.6307 135.292 93.36C135.292 93.0893 135.287 92.9073 135.278 92.814C135.259 92.2167 135.114 91.764 134.844 91.456C134.573 91.1387 134.195 90.98 133.71 90.98C133.215 90.98 132.832 91.1387 132.562 91.456C132.291 91.764 132.146 92.2167 132.128 92.814L132.114 93.36L132.128 93.906C132.146 94.5033 132.291 94.956 132.562 95.264C132.832 95.572 133.215 95.726 133.71 95.726ZM139.111 97C139.017 97 138.938 96.9673 138.873 96.902C138.807 96.8367 138.775 96.7573 138.775 96.664V90.07C138.775 89.9673 138.807 89.8833 138.873 89.818C138.938 89.7527 139.017 89.72 139.111 89.72H140.259C140.361 89.72 140.445 89.7527 140.511 89.818C140.576 89.8833 140.609 89.9673 140.609 90.07V90.644C141.075 90.028 141.747 89.72 142.625 89.72H143.213C143.315 89.72 143.395 89.7527 143.451 89.818C143.516 89.874 143.549 89.9533 143.549 90.056V91.078C143.549 91.1713 143.516 91.2507 143.451 91.316C143.395 91.3813 143.315 91.414 143.213 91.414H142.107C141.668 91.414 141.323 91.54 141.071 91.792C140.819 92.044 140.693 92.3893 140.693 92.828V96.664C140.693 96.7573 140.66 96.8367 140.595 96.902C140.529 96.9673 140.45 97 140.357 97H139.111ZM149.843 97C149.749 97 149.67 96.9673 149.605 96.902C149.539 96.8367 149.507 96.7573 149.507 96.664V88.95H146.917C146.823 88.95 146.744 88.9173 146.679 88.852C146.613 88.7867 146.581 88.7027 146.581 88.6V87.55C146.581 87.4473 146.609 87.3633 146.665 87.298C146.73 87.2327 146.814 87.2 146.917 87.2H154.071C154.173 87.2 154.257 87.2327 154.323 87.298C154.388 87.3633 154.421 87.4473 154.421 87.55V88.6C154.421 88.7027 154.388 88.7867 154.323 88.852C154.257 88.9173 154.173 88.95 154.071 88.95H151.495V96.664C151.495 96.7573 151.462 96.8367 151.397 96.902C151.341 96.9673 151.261 97 151.159 97H149.843ZM155.281 97C155.206 97 155.136 96.972 155.071 96.916C155.015 96.86 154.987 96.79 154.987 96.706C154.987 96.6687 155.006 96.6127 155.043 96.538L158.165 92.002L155.239 87.662C155.202 87.606 155.183 87.55 155.183 87.494C155.183 87.41 155.211 87.34 155.267 87.284C155.332 87.228 155.402 87.2 155.477 87.2H156.947C157.115 87.2 157.26 87.2887 157.381 87.466L159.425 90.462L161.483 87.466C161.586 87.2887 161.73 87.2 161.917 87.2H163.303C163.378 87.2 163.443 87.228 163.499 87.284C163.564 87.34 163.597 87.41 163.597 87.494C163.597 87.5313 163.578 87.5873 163.541 87.662L160.615 92.002L163.751 96.538C163.779 96.594 163.793 96.65 163.793 96.706C163.793 96.79 163.765 96.86 163.709 96.916C163.653 96.972 163.583 97 163.499 97H162.001C161.833 97 161.688 96.916 161.567 96.748L159.355 93.598L157.171 96.748C157.05 96.916 156.905 97 156.737 97H155.281ZM167.616 97C167.523 97 167.444 96.9673 167.378 96.902C167.313 96.8367 167.28 96.7573 167.28 96.664V88.95H164.69C164.597 88.95 164.518 88.9173 164.452 88.852C164.387 88.7867 164.354 88.7027 164.354 88.6V87.55C164.354 87.4473 164.382 87.3633 164.438 87.298C164.504 87.2327 164.588 87.2 164.69 87.2H171.844C171.947 87.2 172.031 87.2327 172.096 87.298C172.162 87.3633 172.194 87.4473 172.194 87.55V88.6C172.194 88.7027 172.162 88.7867 172.096 88.852C172.031 88.9173 171.947 88.95 171.844 88.95H169.268V96.664C169.268 96.7573 169.236 96.8367 169.17 96.902C169.114 96.9673 169.035 97 168.932 97H167.616ZM177.164 97C177.071 97 176.991 96.9673 176.926 96.902C176.861 96.8367 176.828 96.7573 176.828 96.664V91.218H175.694C175.601 91.218 175.521 91.1853 175.456 91.12C175.391 91.0547 175.358 90.9753 175.358 90.882V90.056C175.358 89.9627 175.391 89.8833 175.456 89.818C175.521 89.7527 175.601 89.72 175.694 89.72H176.828V89.16C176.828 88.3107 177.057 87.6807 177.514 87.27C177.971 86.85 178.662 86.64 179.586 86.64H182.484C182.587 86.64 182.666 86.6727 182.722 86.738C182.787 86.794 182.82 86.8733 182.82 86.976V87.802C182.82 87.8953 182.787 87.9747 182.722 88.04C182.657 88.1053 182.577 88.138 182.484 88.138H179.656C179.292 88.138 179.035 88.2267 178.886 88.404C178.737 88.5813 178.662 88.8567 178.662 89.23V89.72H182.484C182.587 89.72 182.666 89.7527 182.722 89.818C182.787 89.874 182.82 89.9533 182.82 90.056V96.664C182.82 96.7573 182.787 96.8367 182.722 96.902C182.666 96.9673 182.587 97 182.484 97H181.322C181.229 97 181.149 96.9673 181.084 96.902C181.019 96.8367 180.986 96.7573 180.986 96.664V91.218H178.662V96.664C178.662 96.7573 178.629 96.8367 178.564 96.902C178.508 96.9673 178.429 97 178.326 97H177.164ZM185.021 97C184.928 97 184.848 96.9673 184.783 96.902C184.718 96.8367 184.685 96.7573 184.685 96.664V87.396C184.685 87.2933 184.718 87.214 184.783 87.158C184.848 87.0927 184.928 87.06 185.021 87.06H186.197C186.3 87.06 186.379 87.0927 186.435 87.158C186.5 87.214 186.533 87.2933 186.533 87.396V96.664C186.533 96.7573 186.5 96.8367 186.435 96.902C186.379 96.9673 186.3 97 186.197 97H185.021ZM191.54 97.14C190.494 97.14 189.664 96.8413 189.048 96.244C188.441 95.6467 188.119 94.7973 188.082 93.696L188.068 93.346C188.068 92.1793 188.371 91.26 188.978 90.588C189.594 89.916 190.443 89.58 191.526 89.58C192.636 89.58 193.49 89.916 194.088 90.588C194.694 91.26 194.998 92.156 194.998 93.276V93.57C194.998 93.6633 194.965 93.7427 194.9 93.808C194.834 93.8733 194.75 93.906 194.648 93.906H190V94.018C190.018 94.5407 190.158 94.9747 190.42 95.32C190.69 95.656 191.059 95.824 191.526 95.824C192.058 95.824 192.492 95.6093 192.828 95.18C192.912 95.0773 192.977 95.0167 193.024 94.998C193.07 94.97 193.15 94.956 193.262 94.956H194.494C194.578 94.956 194.648 94.9793 194.704 95.026C194.769 95.0727 194.802 95.138 194.802 95.222C194.802 95.446 194.666 95.712 194.396 96.02C194.134 96.3187 193.756 96.58 193.262 96.804C192.767 97.028 192.193 97.14 191.54 97.14ZM193.066 92.716V92.688C193.066 92.1373 192.926 91.6987 192.646 91.372C192.375 91.036 192.002 90.868 191.526 90.868C191.05 90.868 190.676 91.036 190.406 91.372C190.135 91.6987 190 92.1373 190 92.688V92.716H193.066ZM201.343 97C201.109 97 200.955 96.8833 200.881 96.65L198.879 90.154C198.869 90.126 198.865 90.084 198.865 90.028C198.865 89.944 198.893 89.874 198.949 89.818C199.005 89.7527 199.075 89.72 199.159 89.72H200.223C200.316 89.72 200.395 89.748 200.461 89.804C200.535 89.86 200.582 89.9207 200.601 89.986L201.959 94.592L203.401 90.028C203.429 89.944 203.475 89.874 203.541 89.818C203.615 89.7527 203.709 89.72 203.821 89.72H204.535C204.647 89.72 204.735 89.7527 204.801 89.818C204.875 89.874 204.922 89.944 204.941 90.028L206.397 94.592L207.755 89.986C207.773 89.9207 207.815 89.86 207.881 89.804C207.946 89.748 208.03 89.72 208.133 89.72H209.183C209.267 89.72 209.337 89.7527 209.393 89.818C209.458 89.874 209.491 89.944 209.491 90.028L209.463 90.154L207.461 96.65C207.423 96.762 207.367 96.8507 207.293 96.916C207.227 96.972 207.134 97 207.013 97H206.089C205.846 97 205.692 96.8833 205.627 96.65L204.185 92.254L202.729 96.65C202.654 96.8833 202.495 97 202.253 97H201.343ZM211.133 88.53C211.039 88.53 210.96 88.4973 210.895 88.432C210.829 88.3667 210.797 88.2873 210.797 88.194V87.172C210.797 87.0693 210.829 86.9853 210.895 86.92C210.96 86.8547 211.039 86.822 211.133 86.822H212.421C212.523 86.822 212.607 86.8547 212.673 86.92C212.738 86.9853 212.771 87.0693 212.771 87.172V88.194C212.771 88.2873 212.733 88.3667 212.659 88.432C212.593 88.4973 212.514 88.53 212.421 88.53H211.133ZM211.189 97C211.095 97 211.016 96.9673 210.951 96.902C210.885 96.8367 210.853 96.7573 210.853 96.664V90.056C210.853 89.9533 210.885 89.874 210.951 89.818C211.016 89.7527 211.095 89.72 211.189 89.72H212.379C212.472 89.72 212.551 89.7527 212.617 89.818C212.682 89.8833 212.715 89.9627 212.715 90.056V96.664C212.715 96.7573 212.682 96.8367 212.617 96.902C212.551 96.9673 212.472 97 212.379 97H211.189ZM217.862 97C217.012 97 216.373 96.7807 215.944 96.342C215.514 95.894 215.3 95.2407 215.3 94.382V91.218H214.194C214.1 91.218 214.021 91.1853 213.956 91.12C213.89 91.0547 213.858 90.9753 213.858 90.882V90.056C213.858 89.9627 213.89 89.8833 213.956 89.818C214.021 89.7527 214.1 89.72 214.194 89.72H215.3V87.396C215.3 87.2933 215.332 87.214 215.398 87.158C215.463 87.0927 215.542 87.06 215.636 87.06H216.798C216.9 87.06 216.98 87.0927 217.036 87.158C217.101 87.214 217.134 87.2933 217.134 87.396V89.72H218.884C218.977 89.72 219.056 89.7527 219.122 89.818C219.187 89.8833 219.22 89.9627 219.22 90.056V90.882C219.22 90.9753 219.187 91.0547 219.122 91.12C219.056 91.1853 218.977 91.218 218.884 91.218H217.134V94.228C217.134 94.6293 217.204 94.9327 217.344 95.138C217.484 95.3433 217.712 95.446 218.03 95.446H219.01C219.112 95.446 219.192 95.4787 219.248 95.544C219.313 95.6 219.346 95.6793 219.346 95.782V96.664C219.346 96.7573 219.313 96.8367 219.248 96.902C219.192 96.9673 219.112 97 219.01 97H217.862ZM220.937 97C220.844 97 220.764 96.9673 220.699 96.902C220.634 96.8367 220.601 96.7573 220.601 96.664V87.396C220.601 87.2933 220.634 87.214 220.699 87.158C220.764 87.0927 220.844 87.06 220.937 87.06H222.211C222.314 87.06 222.393 87.0927 222.449 87.158C222.514 87.214 222.547 87.2933 222.547 87.396V90.588C223.107 89.916 223.858 89.58 224.801 89.58C225.66 89.58 226.346 89.8647 226.859 90.434C227.372 90.994 227.629 91.7593 227.629 92.73V96.664C227.629 96.7573 227.596 96.8367 227.531 96.902C227.475 96.9673 227.396 97 227.293 97H226.019C225.916 97 225.832 96.9673 225.767 96.902C225.702 96.8367 225.669 96.7573 225.669 96.664V92.814C225.669 92.2727 225.534 91.8527 225.263 91.554C225.002 91.246 224.624 91.092 224.129 91.092C223.653 91.092 223.27 91.246 222.981 91.554C222.692 91.862 222.547 92.282 222.547 92.814V96.664C222.547 96.7573 222.514 96.8367 222.449 96.902C222.393 96.9673 222.314 97 222.211 97H220.937ZM233.538 99.66C233.463 99.66 233.393 99.632 233.328 99.576C233.272 99.52 233.244 99.4547 233.244 99.38C233.244 99.3147 233.263 99.24 233.3 99.156L234.406 96.566L231.718 90.224C231.681 90.14 231.662 90.0747 231.662 90.028C231.671 89.944 231.704 89.874 231.76 89.818C231.816 89.7527 231.886 89.72 231.97 89.72H233.132C233.3 89.72 233.421 89.8087 233.496 89.986L235.358 94.55L237.248 89.986C237.341 89.8087 237.472 89.72 237.64 89.72H238.774C238.858 89.72 238.928 89.748 238.984 89.804C239.04 89.86 239.068 89.9253 239.068 90C239.068 90.0653 239.049 90.14 239.012 90.224L235.05 99.394C234.975 99.5713 234.845 99.66 234.658 99.66H233.538ZM243.249 97.14C242.147 97.14 241.298 96.86 240.701 96.3C240.103 95.74 239.781 94.9653 239.735 93.976L239.721 93.36L239.735 92.744C239.781 91.764 240.108 90.994 240.715 90.434C241.321 89.8647 242.166 89.58 243.249 89.58C244.322 89.58 245.162 89.8647 245.769 90.434C246.375 90.994 246.702 91.764 246.749 92.744C246.758 92.856 246.763 93.0613 246.763 93.36C246.763 93.6587 246.758 93.864 246.749 93.976C246.702 94.9653 246.38 95.74 245.783 96.3C245.185 96.86 244.341 97.14 243.249 97.14ZM243.249 95.726C243.743 95.726 244.121 95.572 244.383 95.264C244.653 94.956 244.798 94.5033 244.817 93.906C244.826 93.8127 244.831 93.6307 244.831 93.36C244.831 93.0893 244.826 92.9073 244.817 92.814C244.798 92.2167 244.653 91.764 244.383 91.456C244.112 91.1387 243.734 90.98 243.249 90.98C242.754 90.98 242.371 91.1387 242.101 91.456C241.83 91.764 241.685 92.2167 241.667 92.814L241.653 93.36L241.667 93.906C241.685 94.5033 241.83 94.956 242.101 95.264C242.371 95.572 242.754 95.726 243.249 95.726ZM251.016 97.14C250.157 97.14 249.48 96.86 248.986 96.3C248.491 95.74 248.244 94.97 248.244 93.99V90.056C248.244 89.9533 248.276 89.874 248.342 89.818C248.407 89.7527 248.486 89.72 248.58 89.72H249.84C249.933 89.72 250.012 89.7527 250.078 89.818C250.143 89.8833 250.176 89.9627 250.176 90.056V93.906C250.176 95.054 250.675 95.628 251.674 95.628C252.159 95.628 252.542 95.474 252.822 95.166C253.111 94.858 253.256 94.438 253.256 93.906V90.056C253.256 89.9533 253.288 89.874 253.354 89.818C253.419 89.7527 253.498 89.72 253.592 89.72H254.838C254.94 89.72 255.02 89.7527 255.076 89.818C255.141 89.874 255.174 89.9533 255.174 90.056V96.664C255.174 96.7573 255.141 96.8367 255.076 96.902C255.02 96.9673 254.94 97 254.838 97H253.676C253.582 97 253.503 96.9673 253.438 96.902C253.372 96.8367 253.34 96.7573 253.34 96.664V96.09C252.826 96.79 252.052 97.14 251.016 97.14ZM257.359 97C257.265 97 257.186 96.9673 257.121 96.902C257.055 96.8367 257.023 96.7573 257.023 96.664V90.07C257.023 89.9673 257.055 89.8833 257.121 89.818C257.186 89.7527 257.265 89.72 257.359 89.72H258.507C258.609 89.72 258.693 89.7527 258.759 89.818C258.824 89.8833 258.857 89.9673 258.857 90.07V90.644C259.323 90.028 259.995 89.72 260.873 89.72H261.461C261.563 89.72 261.643 89.7527 261.699 89.818C261.764 89.874 261.797 89.9533 261.797 90.056V91.078C261.797 91.1713 261.764 91.2507 261.699 91.316C261.643 91.3813 261.563 91.414 261.461 91.414H260.355C259.916 91.414 259.571 91.54 259.319 91.792C259.067 92.044 258.941 92.3893 258.941 92.828V96.664C258.941 96.7573 258.908 96.8367 258.843 96.902C258.777 96.9673 258.698 97 258.605 97H257.359ZM268.923 97.14C267.896 97.14 267.075 96.8553 266.459 96.286C265.852 95.7167 265.53 94.928 265.493 93.92L265.479 93.36L265.493 92.8C265.53 91.792 265.852 91.0033 266.459 90.434C267.075 89.8647 267.896 89.58 268.923 89.58C269.66 89.58 270.281 89.7107 270.785 89.972C271.298 90.2333 271.676 90.5553 271.919 90.938C272.171 91.3113 272.306 91.6707 272.325 92.016C272.334 92.1093 272.301 92.1887 272.227 92.254C272.161 92.3193 272.082 92.352 271.989 92.352H270.743C270.64 92.352 270.565 92.3333 270.519 92.296C270.472 92.2493 270.425 92.17 270.379 92.058C270.239 91.7033 270.052 91.4467 269.819 91.288C269.595 91.1293 269.305 91.05 268.951 91.05C268.475 91.05 268.101 91.1993 267.831 91.498C267.569 91.7967 267.429 92.254 267.411 92.87L267.397 93.388L267.411 93.85C267.467 95.0633 267.98 95.67 268.951 95.67C269.315 95.67 269.609 95.5953 269.833 95.446C270.057 95.2873 270.239 95.026 270.379 94.662C270.416 94.5593 270.458 94.4847 270.505 94.438C270.561 94.3913 270.64 94.368 270.743 94.368H271.989C272.082 94.368 272.161 94.4007 272.227 94.466C272.301 94.5313 272.334 94.6107 272.325 94.704C272.306 95.0307 272.175 95.3853 271.933 95.768C271.69 96.1413 271.317 96.4633 270.813 96.734C270.309 97.0047 269.679 97.14 268.923 97.14ZM277.018 97.14C275.917 97.14 275.068 96.86 274.47 96.3C273.873 95.74 273.551 94.9653 273.504 93.976L273.49 93.36L273.504 92.744C273.551 91.764 273.878 90.994 274.484 90.434C275.091 89.8647 275.936 89.58 277.018 89.58C278.092 89.58 278.932 89.8647 279.538 90.434C280.145 90.994 280.472 91.764 280.518 92.744C280.528 92.856 280.532 93.0613 280.532 93.36C280.532 93.6587 280.528 93.864 280.518 93.976C280.472 94.9653 280.15 95.74 279.552 96.3C278.955 96.86 278.11 97.14 277.018 97.14ZM277.018 95.726C277.513 95.726 277.891 95.572 278.152 95.264C278.423 94.956 278.568 94.5033 278.586 93.906C278.596 93.8127 278.6 93.6307 278.6 93.36C278.6 93.0893 278.596 92.9073 278.586 92.814C278.568 92.2167 278.423 91.764 278.152 91.456C277.882 91.1387 277.504 90.98 277.018 90.98C276.524 90.98 276.141 91.1387 275.87 91.456C275.6 91.764 275.455 92.2167 275.436 92.814L275.422 93.36L275.436 93.906C275.455 94.5033 275.6 94.956 275.87 95.264C276.141 95.572 276.524 95.726 277.018 95.726ZM282.419 97C282.326 97 282.247 96.9673 282.181 96.902C282.116 96.8367 282.083 96.7573 282.083 96.664V90.056C282.083 89.9533 282.116 89.874 282.181 89.818C282.247 89.7527 282.326 89.72 282.419 89.72H283.581C283.684 89.72 283.763 89.7527 283.819 89.818C283.885 89.874 283.917 89.9533 283.917 90.056V90.63C284.487 89.93 285.266 89.58 286.255 89.58C287.114 89.58 287.795 89.86 288.299 90.42C288.803 90.98 289.055 91.75 289.055 92.73V96.664C289.055 96.7573 289.023 96.8367 288.957 96.902C288.901 96.9673 288.822 97 288.719 97H287.459C287.366 97 287.287 96.9673 287.221 96.902C287.156 96.8367 287.123 96.7573 287.123 96.664V92.814C287.123 92.2727 286.988 91.8527 286.717 91.554C286.456 91.246 286.078 91.092 285.583 91.092C285.107 91.092 284.725 91.246 284.435 91.554C284.146 91.862 284.001 92.282 284.001 92.814V96.664C284.001 96.7573 283.969 96.8367 283.903 96.902C283.847 96.9673 283.768 97 283.665 97H282.419ZM294.055 97C293.206 97 292.566 96.7807 292.137 96.342C291.708 95.894 291.493 95.2407 291.493 94.382V91.218H290.387C290.294 91.218 290.214 91.1853 290.149 91.12C290.084 91.0547 290.051 90.9753 290.051 90.882V90.056C290.051 89.9627 290.084 89.8833 290.149 89.818C290.214 89.7527 290.294 89.72 290.387 89.72H291.493V87.396C291.493 87.2933 291.526 87.214 291.591 87.158C291.656 87.0927 291.736 87.06 291.829 87.06H292.991C293.094 87.06 293.173 87.0927 293.229 87.158C293.294 87.214 293.327 87.2933 293.327 87.396V89.72H295.077C295.17 89.72 295.25 89.7527 295.315 89.818C295.38 89.8833 295.413 89.9627 295.413 90.056V90.882C295.413 90.9753 295.38 91.0547 295.315 91.12C295.25 91.1853 295.17 91.218 295.077 91.218H293.327V94.228C293.327 94.6293 293.397 94.9327 293.537 95.138C293.677 95.3433 293.906 95.446 294.223 95.446H295.203C295.306 95.446 295.385 95.4787 295.441 95.544C295.506 95.6 295.539 95.6793 295.539 95.782V96.664C295.539 96.7573 295.506 96.8367 295.441 96.902C295.385 96.9673 295.306 97 295.203 97H294.055ZM298.894 97.14C298.418 97.14 297.98 97.0467 297.578 96.86C297.186 96.664 296.874 96.4027 296.64 96.076C296.416 95.7493 296.304 95.39 296.304 94.998C296.304 94.3633 296.561 93.85 297.074 93.458C297.588 93.066 298.292 92.8 299.188 92.66L301.106 92.38V92.086C301.106 91.6847 301.004 91.3813 300.798 91.176C300.593 90.9707 300.266 90.868 299.818 90.868C299.51 90.868 299.263 90.924 299.076 91.036C298.89 91.148 298.736 91.2647 298.614 91.386C298.502 91.498 298.428 91.5727 298.39 91.61C298.353 91.722 298.283 91.778 298.18 91.778H297.088C297.004 91.778 296.93 91.75 296.864 91.694C296.808 91.638 296.78 91.5633 296.78 91.47C296.79 91.2367 296.902 90.9753 297.116 90.686C297.34 90.3873 297.681 90.1307 298.138 89.916C298.596 89.692 299.16 89.58 299.832 89.58C300.934 89.58 301.736 89.8273 302.24 90.322C302.744 90.8167 302.996 91.4653 302.996 92.268V96.664C302.996 96.7573 302.964 96.8367 302.898 96.902C302.842 96.9673 302.763 97 302.66 97H301.498C301.405 97 301.326 96.9673 301.26 96.902C301.195 96.8367 301.162 96.7573 301.162 96.664V96.118C300.957 96.4167 300.668 96.664 300.294 96.86C299.921 97.0467 299.454 97.14 298.894 97.14ZM299.37 95.796C299.884 95.796 300.304 95.628 300.63 95.292C300.957 94.956 301.12 94.4707 301.12 93.836V93.556L299.72 93.78C298.647 93.948 298.11 94.3073 298.11 94.858C298.11 95.1567 298.232 95.39 298.474 95.558C298.726 95.7167 299.025 95.796 299.37 95.796ZM307.942 97.14C306.915 97.14 306.094 96.8553 305.478 96.286C304.871 95.7167 304.549 94.928 304.512 93.92L304.498 93.36L304.512 92.8C304.549 91.792 304.871 91.0033 305.478 90.434C306.094 89.8647 306.915 89.58 307.942 89.58C308.679 89.58 309.3 89.7107 309.804 89.972C310.317 90.2333 310.695 90.5553 310.938 90.938C311.19 91.3113 311.325 91.6707 311.344 92.016C311.353 92.1093 311.321 92.1887 311.246 92.254C311.181 92.3193 311.101 92.352 311.008 92.352H309.762C309.659 92.352 309.585 92.3333 309.538 92.296C309.491 92.2493 309.445 92.17 309.398 92.058C309.258 91.7033 309.071 91.4467 308.838 91.288C308.614 91.1293 308.325 91.05 307.97 91.05C307.494 91.05 307.121 91.1993 306.85 91.498C306.589 91.7967 306.449 92.254 306.43 92.87L306.416 93.388L306.43 93.85C306.486 95.0633 306.999 95.67 307.97 95.67C308.334 95.67 308.628 95.5953 308.852 95.446C309.076 95.2873 309.258 95.026 309.398 94.662C309.435 94.5593 309.477 94.4847 309.524 94.438C309.58 94.3913 309.659 94.368 309.762 94.368H311.008C311.101 94.368 311.181 94.4007 311.246 94.466C311.321 94.5313 311.353 94.6107 311.344 94.704C311.325 95.0307 311.195 95.3853 310.952 95.768C310.709 96.1413 310.336 96.4633 309.832 96.734C309.328 97.0047 308.698 97.14 307.942 97.14ZM316.108 97C315.259 97 314.619 96.7807 314.19 96.342C313.761 95.894 313.546 95.2407 313.546 94.382V91.218H312.44C312.347 91.218 312.267 91.1853 312.202 91.12C312.137 91.0547 312.104 90.9753 312.104 90.882V90.056C312.104 89.9627 312.137 89.8833 312.202 89.818C312.267 89.7527 312.347 89.72 312.44 89.72H313.546V87.396C313.546 87.2933 313.579 87.214 313.644 87.158C313.709 87.0927 313.789 87.06 313.882 87.06H315.044C315.147 87.06 315.226 87.0927 315.282 87.158C315.347 87.214 315.38 87.2933 315.38 87.396V89.72H317.13C317.223 89.72 317.303 89.7527 317.368 89.818C317.433 89.8833 317.466 89.9627 317.466 90.056V90.882C317.466 90.9753 317.433 91.0547 317.368 91.12C317.303 91.1853 317.223 91.218 317.13 91.218H315.38V94.228C315.38 94.6293 315.45 94.9327 315.59 95.138C315.73 95.3433 315.959 95.446 316.276 95.446H317.256C317.359 95.446 317.438 95.4787 317.494 95.544C317.559 95.6 317.592 95.6793 317.592 95.782V96.664C317.592 96.7573 317.559 96.8367 317.494 96.902C317.438 96.9673 317.359 97 317.256 97H316.108ZM321.605 97.14C320.896 97.14 320.303 97.0327 319.827 96.818C319.351 96.6033 318.997 96.356 318.763 96.076C318.539 95.7867 318.427 95.5393 318.427 95.334C318.427 95.2407 318.455 95.166 318.511 95.11C318.577 95.054 318.651 95.026 318.735 95.026H319.883C319.958 95.026 320.023 95.0633 320.079 95.138C320.126 95.1753 320.229 95.264 320.387 95.404C320.555 95.544 320.742 95.656 320.947 95.74C321.162 95.8147 321.395 95.852 321.647 95.852C322.021 95.852 322.324 95.782 322.557 95.642C322.791 95.4927 322.907 95.2827 322.907 95.012C322.907 94.8253 322.851 94.676 322.739 94.564C322.637 94.4427 322.445 94.3353 322.165 94.242C321.895 94.1393 321.484 94.0273 320.933 93.906C320.14 93.738 319.552 93.4813 319.169 93.136C318.796 92.7907 318.609 92.3333 318.609 91.764C318.609 91.3907 318.721 91.0407 318.945 90.714C319.169 90.378 319.501 90.1073 319.939 89.902C320.387 89.6873 320.919 89.58 321.535 89.58C322.17 89.58 322.716 89.6827 323.173 89.888C323.631 90.084 323.976 90.322 324.209 90.602C324.452 90.882 324.573 91.1293 324.573 91.344C324.573 91.428 324.541 91.5027 324.475 91.568C324.419 91.624 324.349 91.652 324.265 91.652H323.215C323.113 91.652 323.033 91.6147 322.977 91.54C322.912 91.4933 322.805 91.4093 322.655 91.288C322.515 91.1573 322.357 91.0547 322.179 90.98C322.002 90.9053 321.787 90.868 321.535 90.868C321.19 90.868 320.924 90.9427 320.737 91.092C320.551 91.2413 320.457 91.4373 320.457 91.68C320.457 91.848 320.499 91.988 320.583 92.1C320.677 92.212 320.859 92.3193 321.129 92.422C321.4 92.5153 321.806 92.6133 322.347 92.716C324.027 93.0427 324.867 93.7753 324.867 94.914C324.867 95.5767 324.578 96.1133 323.999 96.524C323.43 96.9347 322.632 97.14 321.605 97.14Z" fill="#333D54"/>
<path d="M79.6215 122.12C78.7415 122.12 78.0615 121.872 77.5815 121.376C77.1095 120.88 76.8575 120.22 76.8255 119.396L76.8135 118.88L76.8255 118.364C76.8575 117.54 77.1135 116.88 77.5935 116.384C78.0815 115.888 78.7575 115.64 79.6215 115.64C80.4855 115.64 81.1575 115.888 81.6375 116.384C82.1255 116.88 82.3855 117.54 82.4175 118.364C82.4335 118.54 82.4415 118.712 82.4415 118.88C82.4415 119.048 82.4335 119.22 82.4175 119.396C82.3855 120.22 82.1295 120.88 81.6495 121.376C81.1775 121.872 80.5015 122.12 79.6215 122.12ZM79.6215 121.22C80.1335 121.22 80.5375 121.06 80.8335 120.74C81.1375 120.412 81.3015 119.944 81.3255 119.336C81.3335 119.256 81.3375 119.104 81.3375 118.88C81.3375 118.656 81.3335 118.504 81.3255 118.424C81.3015 117.816 81.1375 117.352 80.8335 117.032C80.5375 116.704 80.1335 116.54 79.6215 116.54C79.1095 116.54 78.7015 116.704 78.3975 117.032C78.1015 117.352 77.9415 117.816 77.9175 118.424L77.9055 118.88L77.9175 119.336C77.9415 119.944 78.1015 120.412 78.3975 120.74C78.7015 121.06 79.1095 121.22 79.6215 121.22ZM84.2326 122C84.1526 122 84.0846 121.976 84.0286 121.928C83.9806 121.872 83.9566 121.804 83.9566 121.724V116.048C83.9566 115.968 83.9806 115.9 84.0286 115.844C84.0846 115.788 84.1526 115.76 84.2326 115.76H84.7366C84.8246 115.76 84.8926 115.788 84.9406 115.844C84.9966 115.892 85.0246 115.96 85.0246 116.048V116.576C85.3526 116.032 85.9086 115.76 86.6926 115.76H87.1606C87.2486 115.76 87.3166 115.784 87.3646 115.832C87.4126 115.88 87.4366 115.948 87.4366 116.036V116.48C87.4366 116.56 87.4126 116.628 87.3646 116.684C87.3166 116.732 87.2486 116.756 87.1606 116.756H86.4766C86.0366 116.756 85.6886 116.884 85.4326 117.14C85.1846 117.396 85.0606 117.744 85.0606 118.184V121.724C85.0606 121.804 85.0326 121.872 84.9766 121.928C84.9206 121.976 84.8526 122 84.7726 122H84.2326ZM93.2762 122.12C92.7242 122.12 92.2562 122.032 91.8722 121.856C91.4962 121.672 91.2162 121.464 91.0322 121.232C90.8482 121 90.7562 120.808 90.7562 120.656C90.7562 120.576 90.7842 120.516 90.8402 120.476C90.8962 120.428 90.9562 120.404 91.0202 120.404H91.5242C91.5722 120.404 91.6082 120.412 91.6322 120.428C91.6642 120.444 91.7042 120.48 91.7522 120.536C91.9362 120.76 92.1402 120.936 92.3642 121.064C92.5962 121.192 92.9042 121.256 93.2882 121.256C93.7202 121.256 94.0642 121.176 94.3202 121.016C94.5842 120.856 94.7162 120.624 94.7162 120.32C94.7162 120.12 94.6602 119.96 94.5482 119.84C94.4362 119.72 94.2482 119.612 93.9842 119.516C93.7282 119.42 93.3442 119.316 92.8322 119.204C92.1362 119.052 91.6442 118.832 91.3562 118.544C91.0682 118.256 90.9242 117.884 90.9242 117.428C90.9242 117.132 91.0122 116.848 91.1882 116.576C91.3642 116.296 91.6242 116.072 91.9682 115.904C92.3202 115.728 92.7362 115.64 93.2162 115.64C93.7202 115.64 94.1482 115.724 94.5002 115.892C94.8602 116.06 95.1282 116.256 95.3042 116.48C95.4882 116.704 95.5802 116.892 95.5802 117.044C95.5802 117.116 95.5522 117.176 95.4962 117.224C95.4482 117.272 95.3882 117.296 95.3162 117.296H94.8602C94.7482 117.296 94.6682 117.252 94.6202 117.164C94.4842 117.012 94.3682 116.896 94.2722 116.816C94.1842 116.728 94.0522 116.656 93.8762 116.6C93.7002 116.536 93.4802 116.504 93.2162 116.504C92.8242 116.504 92.5242 116.588 92.3162 116.756C92.1082 116.916 92.0042 117.132 92.0042 117.404C92.0042 117.572 92.0482 117.716 92.1362 117.836C92.2242 117.948 92.3922 118.056 92.6402 118.16C92.8882 118.256 93.2562 118.356 93.7442 118.46C94.5042 118.62 95.0402 118.848 95.3522 119.144C95.6722 119.44 95.8322 119.82 95.8322 120.284C95.8322 120.628 95.7322 120.94 95.5322 121.22C95.3402 121.5 95.0482 121.72 94.6562 121.88C94.2722 122.04 93.8122 122.12 93.2762 122.12ZM99.706 122.12C98.89 122.12 98.238 121.868 97.75 121.364C97.262 120.852 96.994 120.156 96.946 119.276L96.934 118.868L96.946 118.472C96.994 117.608 97.262 116.92 97.75 116.408C98.238 115.896 98.89 115.64 99.706 115.64C100.586 115.64 101.266 115.92 101.746 116.48C102.234 117.04 102.478 117.8 102.478 118.76V118.976C102.478 119.056 102.45 119.124 102.394 119.18C102.346 119.228 102.282 119.252 102.202 119.252H98.038V119.36C98.062 119.88 98.222 120.324 98.518 120.692C98.814 121.06 99.206 121.244 99.694 121.244C100.07 121.244 100.374 121.172 100.606 121.028C100.846 120.876 101.026 120.72 101.146 120.56C101.218 120.464 101.274 120.408 101.314 120.392C101.354 120.368 101.422 120.356 101.518 120.356H102.046C102.118 120.356 102.178 120.376 102.226 120.416C102.282 120.456 102.31 120.508 102.31 120.572C102.31 120.748 102.202 120.96 101.986 121.208C101.77 121.456 101.462 121.672 101.062 121.856C100.67 122.032 100.218 122.12 99.706 122.12ZM101.386 118.436V118.4C101.386 117.84 101.234 117.384 100.93 117.032C100.626 116.68 100.218 116.504 99.706 116.504C99.186 116.504 98.778 116.68 98.482 117.032C98.186 117.384 98.038 117.84 98.038 118.4V118.436H101.386ZM104.225 122C104.145 122 104.077 121.976 104.021 121.928C103.973 121.872 103.949 121.804 103.949 121.724V113.756C103.949 113.668 103.973 113.6 104.021 113.552C104.077 113.504 104.145 113.48 104.225 113.48H104.753C104.833 113.48 104.897 113.508 104.945 113.564C105.001 113.612 105.029 113.676 105.029 113.756V121.724C105.029 121.804 105.001 121.872 104.945 121.928C104.897 121.976 104.833 122 104.753 122H104.225ZM109.304 122.12C108.488 122.12 107.836 121.868 107.348 121.364C106.86 120.852 106.592 120.156 106.544 119.276L106.532 118.868L106.544 118.472C106.592 117.608 106.86 116.92 107.348 116.408C107.836 115.896 108.488 115.64 109.304 115.64C110.184 115.64 110.864 115.92 111.344 116.48C111.832 117.04 112.076 117.8 112.076 118.76V118.976C112.076 119.056 112.048 119.124 111.992 119.18C111.944 119.228 111.88 119.252 111.8 119.252H107.636V119.36C107.66 119.88 107.82 120.324 108.116 120.692C108.412 121.06 108.804 121.244 109.292 121.244C109.668 121.244 109.972 121.172 110.204 121.028C110.444 120.876 110.624 120.72 110.744 120.56C110.816 120.464 110.872 120.408 110.912 120.392C110.952 120.368 111.02 120.356 111.116 120.356H111.644C111.716 120.356 111.776 120.376 111.824 120.416C111.88 120.456 111.908 120.508 111.908 120.572C111.908 120.748 111.8 120.96 111.584 121.208C111.368 121.456 111.06 121.672 110.66 121.856C110.268 122.032 109.816 122.12 109.304 122.12ZM110.984 118.436V118.4C110.984 117.84 110.832 117.384 110.528 117.032C110.224 116.68 109.816 116.504 109.304 116.504C108.784 116.504 108.376 116.68 108.08 117.032C107.784 117.384 107.636 117.84 107.636 118.4V118.436H110.984ZM116.031 122.12C115.175 122.12 114.507 121.88 114.027 121.4C113.547 120.912 113.295 120.232 113.271 119.36L113.259 118.88L113.271 118.4C113.295 117.528 113.547 116.852 114.027 116.372C114.507 115.884 115.175 115.64 116.031 115.64C116.607 115.64 117.091 115.744 117.483 115.952C117.883 116.152 118.179 116.404 118.371 116.708C118.571 117.012 118.679 117.316 118.695 117.62C118.703 117.692 118.675 117.756 118.611 117.812C118.555 117.868 118.491 117.896 118.419 117.896H117.891C117.811 117.896 117.751 117.88 117.711 117.848C117.671 117.808 117.631 117.74 117.591 117.644C117.447 117.252 117.247 116.976 116.991 116.816C116.743 116.648 116.427 116.564 116.043 116.564C115.539 116.564 115.139 116.72 114.843 117.032C114.547 117.344 114.387 117.82 114.363 118.46L114.351 118.88L114.363 119.3C114.387 119.94 114.547 120.416 114.843 120.728C115.139 121.04 115.539 121.196 116.043 121.196C116.435 121.196 116.755 121.116 117.003 120.956C117.251 120.788 117.447 120.508 117.591 120.116C117.631 120.02 117.671 119.956 117.711 119.924C117.751 119.884 117.811 119.864 117.891 119.864H118.419C118.491 119.864 118.555 119.892 118.611 119.948C118.675 120.004 118.703 120.068 118.695 120.14C118.679 120.436 118.571 120.736 118.371 121.04C118.179 121.344 117.883 121.6 117.483 121.808C117.091 122.016 116.607 122.12 116.031 122.12ZM122.532 122C121.292 122 120.672 121.3 120.672 119.9V116.684H119.724C119.644 116.684 119.58 116.66 119.532 116.612C119.484 116.564 119.46 116.5 119.46 116.42V116.036C119.46 115.956 119.484 115.892 119.532 115.844C119.58 115.788 119.644 115.76 119.724 115.76H120.672V113.756C120.672 113.676 120.696 113.612 120.744 113.564C120.792 113.508 120.856 113.48 120.936 113.48H121.464C121.544 113.48 121.608 113.508 121.656 113.564C121.712 113.612 121.74 113.676 121.74 113.756V115.76H123.228C123.308 115.76 123.372 115.788 123.42 115.844C123.476 115.892 123.504 115.956 123.504 116.036V116.42C123.504 116.5 123.476 116.564 123.42 116.612C123.372 116.66 123.308 116.684 123.228 116.684H121.74V119.816C121.74 120.224 121.804 120.532 121.932 120.74C122.068 120.948 122.296 121.052 122.616 121.052H123.348C123.428 121.052 123.492 121.08 123.54 121.136C123.588 121.184 123.612 121.248 123.612 121.328V121.724C123.612 121.804 123.588 121.872 123.54 121.928C123.492 121.976 123.428 122 123.348 122H122.532ZM127.918 114.584C127.838 114.584 127.77 114.56 127.714 114.512C127.666 114.456 127.642 114.388 127.642 114.308V113.684C127.642 113.604 127.666 113.536 127.714 113.48C127.77 113.424 127.838 113.396 127.918 113.396H128.626C128.706 113.396 128.774 113.424 128.83 113.48C128.886 113.536 128.914 113.604 128.914 113.684V114.308C128.914 114.388 128.886 114.456 128.83 114.512C128.774 114.56 128.706 114.584 128.626 114.584H127.918ZM128.014 122C127.934 122 127.866 121.976 127.81 121.928C127.762 121.872 127.738 121.804 127.738 121.724V116.036C127.738 115.956 127.762 115.892 127.81 115.844C127.866 115.788 127.934 115.76 128.014 115.76H128.542C128.622 115.76 128.686 115.788 128.734 115.844C128.79 115.892 128.818 115.956 128.818 116.036V121.724C128.818 121.804 128.79 121.872 128.734 121.928C128.686 121.976 128.622 122 128.542 122H128.014ZM131.521 122C131.441 122 131.373 121.976 131.317 121.928C131.269 121.872 131.245 121.804 131.245 121.724V116.684H130.213C130.133 116.684 130.065 116.66 130.009 116.612C129.961 116.564 129.937 116.5 129.937 116.42V116.036C129.937 115.956 129.961 115.892 130.009 115.844C130.065 115.788 130.133 115.76 130.213 115.76H131.245V115.16C131.245 114.512 131.401 114.012 131.713 113.66C132.033 113.3 132.553 113.12 133.273 113.12H133.981C134.061 113.12 134.125 113.148 134.173 113.204C134.229 113.252 134.257 113.316 134.257 113.396V113.78C134.257 113.86 134.229 113.924 134.173 113.972C134.125 114.02 134.061 114.044 133.981 114.044H133.297C132.929 114.044 132.673 114.14 132.529 114.332C132.385 114.524 132.313 114.82 132.313 115.22V115.76H133.861C133.941 115.76 134.005 115.788 134.053 115.844C134.109 115.892 134.137 115.956 134.137 116.036V116.42C134.137 116.5 134.109 116.564 134.053 116.612C134.005 116.66 133.941 116.684 133.861 116.684H132.313V121.724C132.313 121.804 132.285 121.872 132.229 121.928C132.181 121.976 132.117 122 132.037 122H131.521ZM138.564 122C138.484 122 138.416 121.976 138.36 121.928C138.312 121.872 138.288 121.804 138.288 121.724V116.684H137.256C137.176 116.684 137.108 116.66 137.052 116.612C137.004 116.564 136.98 116.5 136.98 116.42V116.036C136.98 115.956 137.004 115.892 137.052 115.844C137.108 115.788 137.176 115.76 137.256 115.76H138.288V115.16C138.288 114.512 138.444 114.012 138.756 113.66C139.076 113.3 139.596 113.12 140.316 113.12H141.024C141.104 113.12 141.168 113.148 141.216 113.204C141.272 113.252 141.3 113.316 141.3 113.396V113.78C141.3 113.86 141.272 113.924 141.216 113.972C141.168 114.02 141.104 114.044 141.024 114.044H140.34C139.972 114.044 139.716 114.14 139.572 114.332C139.428 114.524 139.356 114.82 139.356 115.22V115.76H140.904C140.984 115.76 141.048 115.788 141.096 115.844C141.152 115.892 141.18 115.956 141.18 116.036V116.42C141.18 116.5 141.152 116.564 141.096 116.612C141.048 116.66 140.984 116.684 140.904 116.684H139.356V121.724C139.356 121.804 139.328 121.872 139.272 121.928C139.224 121.976 139.16 122 139.08 122H138.564ZM142.522 122C142.442 122 142.374 121.976 142.318 121.928C142.27 121.872 142.246 121.804 142.246 121.724V116.048C142.246 115.968 142.27 115.9 142.318 115.844C142.374 115.788 142.442 115.76 142.522 115.76H143.026C143.114 115.76 143.182 115.788 143.23 115.844C143.286 115.892 143.314 115.96 143.314 116.048V116.576C143.642 116.032 144.198 115.76 144.982 115.76H145.45C145.538 115.76 145.606 115.784 145.654 115.832C145.702 115.88 145.726 115.948 145.726 116.036V116.48C145.726 116.56 145.702 116.628 145.654 116.684C145.606 116.732 145.538 116.756 145.45 116.756H144.766C144.326 116.756 143.978 116.884 143.722 117.14C143.474 117.396 143.35 117.744 143.35 118.184V121.724C143.35 121.804 143.322 121.872 143.266 121.928C143.21 121.976 143.142 122 143.062 122H142.522ZM149.172 122.12C148.292 122.12 147.612 121.872 147.132 121.376C146.66 120.88 146.408 120.22 146.376 119.396L146.364 118.88L146.376 118.364C146.408 117.54 146.664 116.88 147.144 116.384C147.632 115.888 148.308 115.64 149.172 115.64C150.036 115.64 150.708 115.888 151.188 116.384C151.676 116.88 151.936 117.54 151.968 118.364C151.984 118.54 151.992 118.712 151.992 118.88C151.992 119.048 151.984 119.22 151.968 119.396C151.936 120.22 151.68 120.88 151.2 121.376C150.728 121.872 150.052 122.12 149.172 122.12ZM149.172 121.22C149.684 121.22 150.088 121.06 150.384 120.74C150.688 120.412 150.852 119.944 150.876 119.336C150.884 119.256 150.888 119.104 150.888 118.88C150.888 118.656 150.884 118.504 150.876 118.424C150.852 117.816 150.688 117.352 150.384 117.032C150.088 116.704 149.684 116.54 149.172 116.54C148.66 116.54 148.252 116.704 147.948 117.032C147.652 117.352 147.492 117.816 147.468 118.424L147.456 118.88L147.468 119.336C147.492 119.944 147.652 120.412 147.948 120.74C148.252 121.06 148.66 121.22 149.172 121.22ZM153.783 122C153.703 122 153.635 121.976 153.579 121.928C153.531 121.872 153.507 121.804 153.507 121.724V116.036C153.507 115.956 153.531 115.892 153.579 115.844C153.635 115.788 153.703 115.76 153.783 115.76H154.287C154.367 115.76 154.431 115.788 154.479 115.844C154.527 115.892 154.551 115.956 154.551 116.036V116.444C154.983 115.908 155.567 115.64 156.303 115.64C157.183 115.64 157.807 116.008 158.175 116.744C158.367 116.408 158.639 116.14 158.991 115.94C159.351 115.74 159.751 115.64 160.191 115.64C160.847 115.64 161.383 115.864 161.799 116.312C162.215 116.76 162.423 117.408 162.423 118.256V121.724C162.423 121.804 162.395 121.872 162.339 121.928C162.291 121.976 162.227 122 162.147 122H161.631C161.551 122 161.483 121.976 161.427 121.928C161.379 121.872 161.355 121.804 161.355 121.724V118.364C161.355 117.724 161.223 117.268 160.959 116.996C160.695 116.716 160.347 116.576 159.915 116.576C159.531 116.576 159.199 116.72 158.919 117.008C158.647 117.288 158.511 117.74 158.511 118.364V121.724C158.511 121.804 158.483 121.872 158.427 121.928C158.379 121.976 158.315 122 158.235 122H157.707C157.627 122 157.559 121.976 157.503 121.928C157.455 121.872 157.431 121.804 157.431 121.724V118.364C157.431 117.732 157.291 117.276 157.011 116.996C156.739 116.716 156.399 116.576 155.991 116.576C155.607 116.576 155.275 116.716 154.995 116.996C154.723 117.276 154.587 117.728 154.587 118.352V121.724C154.587 121.804 154.559 121.872 154.503 121.928C154.455 121.976 154.391 122 154.311 122H153.783ZM167.877 124.28C167.805 124.28 167.745 124.256 167.697 124.208C167.649 124.16 167.625 124.104 167.625 124.04C167.625 124.016 167.645 123.944 167.685 123.824L168.621 121.628L166.329 116.216C166.281 116.12 166.257 116.052 166.257 116.012C166.265 115.94 166.293 115.88 166.341 115.832C166.389 115.784 166.445 115.76 166.509 115.76H167.061C167.189 115.76 167.285 115.824 167.349 115.952L169.197 120.368L171.093 115.952C171.157 115.824 171.253 115.76 171.381 115.76H171.921C171.985 115.76 172.041 115.784 172.089 115.832C172.137 115.88 172.161 115.936 172.161 116C172.161 116.056 172.141 116.128 172.101 116.216L168.705 124.088C168.665 124.152 168.621 124.2 168.573 124.232C168.533 124.264 168.477 124.28 168.405 124.28H167.877ZM175.692 122.12C174.812 122.12 174.132 121.872 173.652 121.376C173.18 120.88 172.928 120.22 172.896 119.396L172.884 118.88L172.896 118.364C172.928 117.54 173.184 116.88 173.664 116.384C174.152 115.888 174.828 115.64 175.692 115.64C176.556 115.64 177.228 115.888 177.708 116.384C178.196 116.88 178.456 117.54 178.488 118.364C178.504 118.54 178.512 118.712 178.512 118.88C178.512 119.048 178.504 119.22 178.488 119.396C178.456 120.22 178.2 120.88 177.72 121.376C177.248 121.872 176.572 122.12 175.692 122.12ZM175.692 121.22C176.204 121.22 176.608 121.06 176.904 120.74C177.208 120.412 177.372 119.944 177.396 119.336C177.404 119.256 177.408 119.104 177.408 118.88C177.408 118.656 177.404 118.504 177.396 118.424C177.372 117.816 177.208 117.352 176.904 117.032C176.608 116.704 176.204 116.54 175.692 116.54C175.18 116.54 174.772 116.704 174.468 117.032C174.172 117.352 174.012 117.816 173.988 118.424L173.976 118.88L173.988 119.336C174.012 119.944 174.172 120.412 174.468 120.74C174.772 121.06 175.18 121.22 175.692 121.22ZM182.355 122.12C181.595 122.12 181.007 121.876 180.591 121.388C180.175 120.892 179.967 120.236 179.967 119.42V116.036C179.967 115.956 179.991 115.892 180.039 115.844C180.095 115.788 180.163 115.76 180.243 115.76H180.795C180.875 115.76 180.939 115.788 180.987 115.844C181.043 115.892 181.071 115.956 181.071 116.036V119.36C181.071 120.576 181.599 121.184 182.655 121.184C183.167 121.184 183.571 121.024 183.867 120.704C184.171 120.376 184.323 119.928 184.323 119.36V116.036C184.323 115.956 184.347 115.892 184.395 115.844C184.451 115.788 184.519 115.76 184.599 115.76H185.151C185.231 115.76 185.295 115.788 185.343 115.844C185.399 115.892 185.427 115.956 185.427 116.036V121.724C185.427 121.804 185.399 121.872 185.343 121.928C185.295 121.976 185.231 122 185.151 122H184.635C184.555 122 184.487 121.976 184.431 121.928C184.383 121.872 184.359 121.804 184.359 121.724V121.184C184.127 121.496 183.855 121.732 183.543 121.892C183.231 122.044 182.835 122.12 182.355 122.12ZM187.498 122C187.418 122 187.35 121.976 187.294 121.928C187.246 121.872 187.222 121.804 187.222 121.724V116.048C187.222 115.968 187.246 115.9 187.294 115.844C187.35 115.788 187.418 115.76 187.498 115.76H188.002C188.09 115.76 188.158 115.788 188.206 115.844C188.262 115.892 188.29 115.96 188.29 116.048V116.576C188.618 116.032 189.174 115.76 189.958 115.76H190.426C190.514 115.76 190.582 115.784 190.63 115.832C190.678 115.88 190.702 115.948 190.702 116.036V116.48C190.702 116.56 190.678 116.628 190.63 116.684C190.582 116.732 190.514 116.756 190.426 116.756H189.742C189.302 116.756 188.954 116.884 188.698 117.14C188.45 117.396 188.326 117.744 188.326 118.184V121.724C188.326 121.804 188.298 121.872 188.242 121.928C188.186 121.976 188.118 122 188.038 122H187.498ZM196.902 122.12C196.046 122.12 195.378 121.88 194.898 121.4C194.418 120.912 194.166 120.232 194.142 119.36L194.13 118.88L194.142 118.4C194.166 117.528 194.418 116.852 194.898 116.372C195.378 115.884 196.046 115.64 196.902 115.64C197.478 115.64 197.962 115.744 198.354 115.952C198.754 116.152 199.05 116.404 199.242 116.708C199.442 117.012 199.55 117.316 199.566 117.62C199.574 117.692 199.546 117.756 199.482 117.812C199.426 117.868 199.362 117.896 199.29 117.896H198.762C198.682 117.896 198.622 117.88 198.582 117.848C198.542 117.808 198.502 117.74 198.462 117.644C198.318 117.252 198.118 116.976 197.862 116.816C197.614 116.648 197.298 116.564 196.914 116.564C196.41 116.564 196.01 116.72 195.714 117.032C195.418 117.344 195.258 117.82 195.234 118.46L195.222 118.88L195.234 119.3C195.258 119.94 195.418 120.416 195.714 120.728C196.01 121.04 196.41 121.196 196.914 121.196C197.306 121.196 197.626 121.116 197.874 120.956C198.122 120.788 198.318 120.508 198.462 120.116C198.502 120.02 198.542 119.956 198.582 119.924C198.622 119.884 198.682 119.864 198.762 119.864H199.29C199.362 119.864 199.426 119.892 199.482 119.948C199.546 120.004 199.574 120.068 199.566 120.14C199.55 120.436 199.442 120.736 199.242 121.04C199.05 121.344 198.754 121.6 198.354 121.808C197.962 122.016 197.478 122.12 196.902 122.12ZM203.536 122.12C202.656 122.12 201.976 121.872 201.496 121.376C201.024 120.88 200.772 120.22 200.74 119.396L200.728 118.88L200.74 118.364C200.772 117.54 201.028 116.88 201.508 116.384C201.996 115.888 202.672 115.64 203.536 115.64C204.4 115.64 205.072 115.888 205.552 116.384C206.04 116.88 206.3 117.54 206.332 118.364C206.348 118.54 206.356 118.712 206.356 118.88C206.356 119.048 206.348 119.22 206.332 119.396C206.3 120.22 206.044 120.88 205.564 121.376C205.092 121.872 204.416 122.12 203.536 122.12ZM203.536 121.22C204.048 121.22 204.452 121.06 204.748 120.74C205.052 120.412 205.216 119.944 205.24 119.336C205.248 119.256 205.252 119.104 205.252 118.88C205.252 118.656 205.248 118.504 205.24 118.424C205.216 117.816 205.052 117.352 204.748 117.032C204.452 116.704 204.048 116.54 203.536 116.54C203.024 116.54 202.616 116.704 202.312 117.032C202.016 117.352 201.856 117.816 201.832 118.424L201.82 118.88L201.832 119.336C201.856 119.944 202.016 120.412 202.312 120.74C202.616 121.06 203.024 121.22 203.536 121.22ZM208.147 122C208.067 122 207.999 121.976 207.943 121.928C207.895 121.872 207.871 121.804 207.871 121.724V116.036C207.871 115.956 207.895 115.892 207.943 115.844C207.999 115.788 208.067 115.76 208.147 115.76H208.651C208.731 115.76 208.795 115.788 208.843 115.844C208.891 115.892 208.915 115.956 208.915 116.036V116.444C209.347 115.908 209.931 115.64 210.667 115.64C211.547 115.64 212.171 116.008 212.539 116.744C212.731 116.408 213.003 116.14 213.355 115.94C213.715 115.74 214.115 115.64 214.555 115.64C215.211 115.64 215.747 115.864 216.163 116.312C216.579 116.76 216.787 117.408 216.787 118.256V121.724C216.787 121.804 216.759 121.872 216.703 121.928C216.655 121.976 216.591 122 216.511 122H215.995C215.915 122 215.847 121.976 215.791 121.928C215.743 121.872 215.719 121.804 215.719 121.724V118.364C215.719 117.724 215.587 117.268 215.323 116.996C215.059 116.716 214.711 116.576 214.279 116.576C213.895 116.576 213.563 116.72 213.283 117.008C213.011 117.288 212.875 117.74 212.875 118.364V121.724C212.875 121.804 212.847 121.872 212.791 121.928C212.743 121.976 212.679 122 212.599 122H212.071C211.991 122 211.923 121.976 211.867 121.928C211.819 121.872 211.795 121.804 211.795 121.724V118.364C211.795 117.732 211.655 117.276 211.375 116.996C211.103 116.716 210.763 116.576 210.355 116.576C209.971 116.576 209.639 116.716 209.359 116.996C209.087 117.276 208.951 117.728 208.951 118.352V121.724C208.951 121.804 208.923 121.872 208.867 121.928C208.819 121.976 208.755 122 208.675 122H208.147ZM218.811 124.28C218.731 124.28 218.663 124.256 218.607 124.208C218.559 124.16 218.535 124.092 218.535 124.004V116.036C218.535 115.948 218.559 115.88 218.607 115.832C218.663 115.784 218.731 115.76 218.811 115.76H219.315C219.403 115.76 219.471 115.784 219.519 115.832C219.567 115.88 219.591 115.948 219.591 116.036V116.564C220.055 115.948 220.715 115.64 221.571 115.64C222.411 115.64 223.039 115.908 223.455 116.444C223.879 116.972 224.103 117.648 224.127 118.472C224.135 118.56 224.139 118.696 224.139 118.88C224.139 119.064 224.135 119.2 224.127 119.288C224.103 120.104 223.879 120.78 223.455 121.316C223.039 121.852 222.411 122.12 221.571 122.12C220.715 122.12 220.067 121.816 219.627 121.208V124.004C219.627 124.084 219.599 124.148 219.543 124.196C219.495 124.252 219.431 124.28 219.351 124.28H218.811ZM221.343 121.184C221.919 121.184 222.339 121.004 222.603 120.644C222.867 120.284 223.011 119.812 223.035 119.228C223.043 119.148 223.047 119.032 223.047 118.88C223.047 117.344 222.479 116.576 221.343 116.576C220.783 116.576 220.359 116.764 220.071 117.14C219.791 117.508 219.643 117.944 219.627 118.448C219.619 118.536 219.615 118.692 219.615 118.916C219.615 119.14 219.619 119.296 219.627 119.384C219.643 119.872 219.795 120.296 220.083 120.656C220.379 121.008 220.799 121.184 221.343 121.184ZM227.976 122.12C227.216 122.12 226.628 121.876 226.212 121.388C225.796 120.892 225.588 120.236 225.588 119.42V116.036C225.588 115.956 225.612 115.892 225.66 115.844C225.716 115.788 225.784 115.76 225.864 115.76H226.416C226.496 115.76 226.56 115.788 226.608 115.844C226.664 115.892 226.692 115.956 226.692 116.036V119.36C226.692 120.576 227.22 121.184 228.276 121.184C228.788 121.184 229.192 121.024 229.488 120.704C229.792 120.376 229.944 119.928 229.944 119.36V116.036C229.944 115.956 229.968 115.892 230.016 115.844C230.072 115.788 230.14 115.76 230.22 115.76H230.772C230.852 115.76 230.916 115.788 230.964 115.844C231.02 115.892 231.048 115.956 231.048 116.036V121.724C231.048 121.804 231.02 121.872 230.964 121.928C230.916 121.976 230.852 122 230.772 122H230.256C230.176 122 230.108 121.976 230.052 121.928C230.004 121.872 229.98 121.804 229.98 121.724V121.184C229.748 121.496 229.476 121.732 229.164 121.892C228.852 122.044 228.456 122.12 227.976 122.12ZM235.243 122C234.003 122 233.383 121.3 233.383 119.9V116.684H232.435C232.355 116.684 232.291 116.66 232.243 116.612C232.195 116.564 232.171 116.5 232.171 116.42V116.036C232.171 115.956 232.195 115.892 232.243 115.844C232.291 115.788 232.355 115.76 232.435 115.76H233.383V113.756C233.383 113.676 233.407 113.612 233.455 113.564C233.503 113.508 233.567 113.48 233.647 113.48H234.175C234.255 113.48 234.319 113.508 234.367 113.564C234.423 113.612 234.451 113.676 234.451 113.756V115.76H235.939C236.019 115.76 236.083 115.788 236.131 115.844C236.187 115.892 236.215 115.956 236.215 116.036V116.42C236.215 116.5 236.187 116.564 236.131 116.612C236.083 116.66 236.019 116.684 235.939 116.684H234.451V119.816C234.451 120.224 234.515 120.532 234.643 120.74C234.779 120.948 235.007 121.052 235.327 121.052H236.059C236.139 121.052 236.203 121.08 236.251 121.136C236.299 121.184 236.323 121.248 236.323 121.328V121.724C236.323 121.804 236.299 121.872 236.251 121.928C236.203 121.976 236.139 122 236.059 122H235.243ZM239.968 122.12C239.152 122.12 238.5 121.868 238.012 121.364C237.524 120.852 237.256 120.156 237.208 119.276L237.196 118.868L237.208 118.472C237.256 117.608 237.524 116.92 238.012 116.408C238.5 115.896 239.152 115.64 239.968 115.64C240.848 115.64 241.528 115.92 242.008 116.48C242.496 117.04 242.74 117.8 242.74 118.76V118.976C242.74 119.056 242.712 119.124 242.656 119.18C242.608 119.228 242.544 119.252 242.464 119.252H238.3V119.36C238.324 119.88 238.484 120.324 238.78 120.692C239.076 121.06 239.468 121.244 239.956 121.244C240.332 121.244 240.636 121.172 240.868 121.028C241.108 120.876 241.288 120.72 241.408 120.56C241.48 120.464 241.536 120.408 241.576 120.392C241.616 120.368 241.684 120.356 241.78 120.356H242.308C242.38 120.356 242.44 120.376 242.488 120.416C242.544 120.456 242.572 120.508 242.572 120.572C242.572 120.748 242.464 120.96 242.248 121.208C242.032 121.456 241.724 121.672 241.324 121.856C240.932 122.032 240.48 122.12 239.968 122.12ZM241.648 118.436V118.4C241.648 117.84 241.496 117.384 241.192 117.032C240.888 116.68 240.48 116.504 239.968 116.504C239.448 116.504 239.04 116.68 238.744 117.032C238.448 117.384 238.3 117.84 238.3 118.4V118.436H241.648ZM244.475 122C244.395 122 244.327 121.976 244.271 121.928C244.223 121.872 244.199 121.804 244.199 121.724V116.048C244.199 115.968 244.223 115.9 244.271 115.844C244.327 115.788 244.395 115.76 244.475 115.76H244.979C245.067 115.76 245.135 115.788 245.183 115.844C245.239 115.892 245.267 115.96 245.267 116.048V116.576C245.595 116.032 246.151 115.76 246.935 115.76H247.403C247.491 115.76 247.559 115.784 247.607 115.832C247.655 115.88 247.679 115.948 247.679 116.036V116.48C247.679 116.56 247.655 116.628 247.607 116.684C247.559 116.732 247.491 116.756 247.403 116.756H246.719C246.279 116.756 245.931 116.884 245.675 117.14C245.427 117.396 245.303 117.744 245.303 118.184V121.724C245.303 121.804 245.275 121.872 245.219 121.928C245.163 121.976 245.095 122 245.015 122H244.475Z" fill="#687693"/>
</svg>
