<svg width="147" height="121" viewBox="0 0 147 121" fill="none" xmlns="http://www.w3.org/2000/svg">
<path d="M88.5 40.125H58.5C57.8625 40.125 57.375 39.6375 57.375 39V31.5C57.375 30.8625 57.8625 30.375 58.5 30.375C59.1375 30.375 59.625 30.8625 59.625 31.5V37.875H87.375V31.5C87.375 30.8625 87.8625 30.375 88.5 30.375C89.1375 30.375 89.625 30.8625 89.625 31.5V39C89.625 39.6375 89.1375 40.125 88.5 40.125Z" fill="#D5DFEF"/>
<path d="M79.9125 21.3375C79.4625 20.8875 78.75 20.8875 78.3375 21.3375L74.625 25.05V9C74.625 8.3625 74.1375 7.875 73.5 7.875C72.8625 7.875 72.375 8.3625 72.375 9V25.05L68.6625 21.3375C68.2125 20.8875 67.5 20.8875 67.0875 21.3375C66.6375 21.7875 66.6375 22.5 67.0875 22.9125L72.7125 28.5375C72.75 28.575 72.825 28.65 72.9 28.6875C72.9375 28.6875 72.9375 28.725 72.975 28.725C73.0125 28.7625 73.05 28.7625 73.0875 28.8C73.125 28.8 73.1625 28.8375 73.2 28.8375C73.2375 28.8375 73.275 28.875 73.3125 28.875C73.3875 28.875 73.4625 28.9125 73.5375 28.9125C73.6125 28.9125 73.6875 28.9125 73.7625 28.875C73.8 28.875 73.8375 28.8375 73.875 28.8375C73.9125 28.8375 73.95 28.8 73.9875 28.8C74.025 28.8 74.0625 28.7625 74.1 28.725C74.1375 28.725 74.1375 28.6875 74.175 28.6875C74.25 28.65 74.2875 28.6125 74.3625 28.5375L79.9875 22.9125C80.3625 22.4625 80.3625 21.7875 79.9125 21.3375Z" fill="#B4C0D4"/>
<path d="M1.72457 73C1.63124 73 1.55657 72.972 1.50057 72.916C1.44457 72.8507 1.41657 72.7713 1.41657 72.678V63.536C1.41657 63.4333 1.44457 63.354 1.50057 63.298C1.55657 63.2327 1.63124 63.2 1.72457 63.2H4.88857C6.2979 63.2 7.31524 63.5173 7.94057 64.152C8.5659 64.7773 8.8879 65.7247 8.90657 66.994C8.9159 67.2647 8.92057 67.6287 8.92057 68.086C8.92057 68.5433 8.9159 68.912 8.90657 69.192C8.8879 70.0787 8.74324 70.802 8.47257 71.362C8.21124 71.9127 7.7959 72.3233 7.22657 72.594C6.65724 72.8647 5.90124 73 4.95857 73H1.72457ZM4.88857 71.838C5.5419 71.838 6.0599 71.7493 6.44257 71.572C6.83457 71.3853 7.11457 71.1007 7.28257 70.718C7.4599 70.326 7.5579 69.7987 7.57657 69.136C7.59524 68.576 7.60457 68.226 7.60457 68.086C7.60457 67.9367 7.59524 67.5913 7.57657 67.05C7.5579 66.1167 7.3339 65.4353 6.90457 65.006C6.48457 64.5673 5.78924 64.348 4.81857 64.348H2.73257V71.838H4.88857ZM11.1952 73C11.1019 73 11.0226 72.972 10.9572 72.916C10.9012 72.8507 10.8732 72.7713 10.8732 72.678V66.056C10.8732 65.9627 10.9012 65.8833 10.9572 65.818C11.0226 65.7527 11.1019 65.72 11.1952 65.72H11.7832C11.8859 65.72 11.9652 65.7527 12.0212 65.818C12.0866 65.874 12.1192 65.9533 12.1192 66.056V66.672C12.5019 66.0373 13.1506 65.72 14.0652 65.72H14.6112C14.7139 65.72 14.7932 65.748 14.8492 65.804C14.9052 65.86 14.9332 65.9393 14.9332 66.042V66.56C14.9332 66.6533 14.9052 66.7327 14.8492 66.798C14.7932 66.854 14.7139 66.882 14.6112 66.882H13.8132C13.2999 66.882 12.8939 67.0313 12.5952 67.33C12.3059 67.6287 12.1612 68.0347 12.1612 68.548V72.678C12.1612 72.7713 12.1286 72.8507 12.0632 72.916C11.9979 72.972 11.9186 73 11.8252 73H11.1952ZM18.0435 73.14C17.5862 73.14 17.1615 73.0467 16.7695 72.86C16.3869 72.6733 16.0789 72.4213 15.8455 72.104C15.6215 71.7773 15.5095 71.418 15.5095 71.026C15.5095 70.41 15.7615 69.906 16.2655 69.514C16.7695 69.122 17.4555 68.8607 18.3235 68.73L20.4235 68.436V68.03C20.4235 67.0687 19.8682 66.588 18.7575 66.588C18.3282 66.588 17.9829 66.6767 17.7215 66.854C17.4602 67.022 17.2689 67.2227 17.1475 67.456C17.1102 67.5493 17.0682 67.6147 17.0215 67.652C16.9842 67.68 16.9282 67.694 16.8535 67.694H16.3075C16.2235 67.694 16.1489 67.666 16.0835 67.61C16.0275 67.5447 15.9995 67.47 15.9995 67.386C15.9995 67.1713 16.0975 66.924 16.2935 66.644C16.4989 66.3547 16.8115 66.1073 17.2315 65.902C17.6515 65.6873 18.1649 65.58 18.7715 65.58C19.8169 65.58 20.5635 65.8227 21.0115 66.308C21.4689 66.7933 21.6975 67.4 21.6975 68.128V72.678C21.6975 72.7713 21.6649 72.8507 21.5995 72.916C21.5435 72.972 21.4689 73 21.3755 73H20.7595C20.6662 73 20.5915 72.972 20.5355 72.916C20.4795 72.8507 20.4515 72.7713 20.4515 72.678V72.062C20.2462 72.37 19.9475 72.6267 19.5555 72.832C19.1635 73.0373 18.6595 73.14 18.0435 73.14ZM18.3235 72.118C18.9395 72.118 19.4435 71.9173 19.8355 71.516C20.2275 71.1147 20.4235 70.5313 20.4235 69.766V69.374L18.7855 69.612C18.1135 69.7053 17.6049 69.864 17.2595 70.088C16.9142 70.312 16.7415 70.592 16.7415 70.928C16.7415 71.3107 16.8955 71.6047 17.2035 71.81C17.5209 72.0153 17.8942 72.118 18.3235 72.118ZM26.6788 76.08C25.9041 76.08 25.2835 75.9493 24.8168 75.688C24.3501 75.4267 24.0188 75.128 23.8228 74.792C23.6361 74.456 23.5428 74.1667 23.5428 73.924C23.5428 73.84 23.5755 73.7653 23.6408 73.7C23.7061 73.644 23.7808 73.616 23.8648 73.616H24.4808C24.5648 73.616 24.6348 73.6347 24.6908 73.672C24.7468 73.7187 24.7935 73.798 24.8308 73.91C25.0921 74.6567 25.6848 75.03 26.6088 75.03C27.3088 75.03 27.8268 74.8807 28.1628 74.582C28.4988 74.2833 28.6668 73.756 28.6668 73V72.034C28.1255 72.7247 27.3695 73.07 26.3988 73.07C25.4095 73.07 24.6675 72.7527 24.1728 72.118C23.6875 71.4833 23.4308 70.6807 23.4028 69.71L23.3888 69.318L23.4028 68.94C23.4308 67.9787 23.6875 67.1807 24.1728 66.546C24.6675 65.902 25.4095 65.58 26.3988 65.58C27.3788 65.58 28.1441 65.9393 28.6948 66.658V66.056C28.6948 65.9627 28.7228 65.8833 28.7788 65.818C28.8441 65.7527 28.9235 65.72 29.0168 65.72H29.6188C29.7121 65.72 29.7868 65.7527 29.8428 65.818C29.9081 65.8833 29.9408 65.9627 29.9408 66.056V72.846C29.9408 75.002 28.8535 76.08 26.6788 76.08ZM26.6508 71.978C27.3041 71.978 27.7941 71.768 28.1208 71.348C28.4568 70.9187 28.6388 70.4053 28.6668 69.808C28.6761 69.724 28.6808 69.5607 28.6808 69.318C28.6808 69.0847 28.6761 68.926 28.6668 68.842C28.6388 68.2447 28.4568 67.736 28.1208 67.316C27.7941 66.8867 27.3041 66.672 26.6508 66.672C25.9788 66.672 25.4888 66.8867 25.1808 67.316C24.8821 67.736 24.7188 68.282 24.6908 68.954L24.6768 69.318L24.6908 69.696C24.7188 70.368 24.8821 70.9187 25.1808 71.348C25.4888 71.768 25.9788 71.978 26.6508 71.978ZM37.5123 73.14C37.055 73.14 36.6303 73.0467 36.2383 72.86C35.8556 72.6733 35.5476 72.4213 35.3143 72.104C35.0903 71.7773 34.9783 71.418 34.9783 71.026C34.9783 70.41 35.2303 69.906 35.7343 69.514C36.2383 69.122 36.9243 68.8607 37.7923 68.73L39.8923 68.436V68.03C39.8923 67.0687 39.337 66.588 38.2263 66.588C37.797 66.588 37.4516 66.6767 37.1903 66.854C36.929 67.022 36.7376 67.2227 36.6163 67.456C36.579 67.5493 36.537 67.6147 36.4903 67.652C36.453 67.68 36.397 67.694 36.3223 67.694H35.7763C35.6923 67.694 35.6176 67.666 35.5523 67.61C35.4963 67.5447 35.4683 67.47 35.4683 67.386C35.4683 67.1713 35.5663 66.924 35.7623 66.644C35.9676 66.3547 36.2803 66.1073 36.7003 65.902C37.1203 65.6873 37.6336 65.58 38.2403 65.58C39.2856 65.58 40.0323 65.8227 40.4803 66.308C40.9376 66.7933 41.1663 67.4 41.1663 68.128V72.678C41.1663 72.7713 41.1336 72.8507 41.0683 72.916C41.0123 72.972 40.9376 73 40.8443 73H40.2283C40.135 73 40.0603 72.972 40.0043 72.916C39.9483 72.8507 39.9203 72.7713 39.9203 72.678V72.062C39.715 72.37 39.4163 72.6267 39.0243 72.832C38.6323 73.0373 38.1283 73.14 37.5123 73.14ZM37.7923 72.118C38.4083 72.118 38.9123 71.9173 39.3043 71.516C39.6963 71.1147 39.8923 70.5313 39.8923 69.766V69.374L38.2543 69.612C37.5823 69.7053 37.0736 69.864 36.7283 70.088C36.383 70.312 36.2103 70.592 36.2103 70.928C36.2103 71.3107 36.3643 71.6047 36.6723 71.81C36.9896 72.0153 37.363 72.118 37.7923 72.118ZM43.5156 73C43.4222 73 43.3429 72.972 43.2776 72.916C43.2216 72.8507 43.1936 72.7713 43.1936 72.678V66.042C43.1936 65.9487 43.2216 65.874 43.2776 65.818C43.3429 65.7527 43.4222 65.72 43.5156 65.72H44.1176C44.2202 65.72 44.2996 65.748 44.3556 65.804C44.4116 65.86 44.4396 65.9393 44.4396 66.042V66.658C44.7196 66.3127 45.0416 66.0467 45.4056 65.86C45.7789 65.6733 46.2409 65.58 46.7916 65.58C47.6876 65.58 48.3829 65.8693 48.8776 66.448C49.3722 67.0173 49.6196 67.7733 49.6196 68.716V72.678C49.6196 72.7713 49.5869 72.8507 49.5216 72.916C49.4656 72.972 49.3909 73 49.2976 73H48.6536C48.5602 73 48.4809 72.972 48.4156 72.916C48.3596 72.8507 48.3316 72.7713 48.3316 72.678V68.8C48.3316 68.128 48.1682 67.6053 47.8416 67.232C47.5149 66.8587 47.0482 66.672 46.4416 66.672C45.8442 66.672 45.3682 66.8633 45.0136 67.246C44.6589 67.6193 44.4816 68.1373 44.4816 68.8V72.678C44.4816 72.7713 44.4489 72.8507 44.3836 72.916C44.3276 72.972 44.2529 73 44.1596 73H43.5156ZM54.3028 73.14C53.3228 73.14 52.5854 72.8227 52.0908 72.188C51.6054 71.5533 51.3441 70.7507 51.3068 69.78L51.2928 69.36L51.3068 68.94C51.3441 67.9787 51.6101 67.1807 52.1048 66.546C52.5994 65.902 53.3321 65.58 54.3028 65.58C55.2734 65.58 56.0294 65.9253 56.5708 66.616V63.382C56.5708 63.2887 56.5988 63.214 56.6548 63.158C56.7201 63.0927 56.7994 63.06 56.8928 63.06H57.5228C57.6161 63.06 57.6908 63.0927 57.7468 63.158C57.8121 63.214 57.8448 63.2887 57.8448 63.382V72.678C57.8448 72.7713 57.8121 72.8507 57.7468 72.916C57.6908 72.972 57.6161 73 57.5228 73H56.9208C56.8274 73 56.7528 72.972 56.6968 72.916C56.6408 72.8507 56.6128 72.7713 56.6128 72.678V72.076C56.0808 72.7853 55.3108 73.14 54.3028 73.14ZM54.5688 72.048C55.2221 72.048 55.7121 71.8333 56.0388 71.404C56.3654 70.9653 56.5428 70.4473 56.5708 69.85C56.5801 69.7473 56.5848 69.57 56.5848 69.318C56.5848 69.0567 56.5801 68.8747 56.5708 68.772C56.5521 68.2027 56.3701 67.7127 56.0248 67.302C55.6888 66.882 55.2034 66.672 54.5688 66.672C53.8968 66.672 53.4068 66.882 53.0988 67.302C52.7908 67.722 52.6228 68.2727 52.5948 68.954L52.5808 69.36C52.5808 71.152 53.2434 72.048 54.5688 72.048ZM66.0606 73.14C65.0806 73.14 64.3433 72.8227 63.8486 72.188C63.3633 71.5533 63.1019 70.7507 63.0646 69.78L63.0506 69.36L63.0646 68.94C63.1019 67.9787 63.3679 67.1807 63.8626 66.546C64.3573 65.902 65.0899 65.58 66.0606 65.58C67.0313 65.58 67.7873 65.9253 68.3286 66.616V63.382C68.3286 63.2887 68.3566 63.214 68.4126 63.158C68.4779 63.0927 68.5573 63.06 68.6506 63.06H69.2806C69.3739 63.06 69.4486 63.0927 69.5046 63.158C69.5699 63.214 69.6026 63.2887 69.6026 63.382V72.678C69.6026 72.7713 69.5699 72.8507 69.5046 72.916C69.4486 72.972 69.3739 73 69.2806 73H68.6786C68.5853 73 68.5106 72.972 68.4546 72.916C68.3986 72.8507 68.3706 72.7713 68.3706 72.678V72.076C67.8386 72.7853 67.0686 73.14 66.0606 73.14ZM66.3266 72.048C66.9799 72.048 67.4699 71.8333 67.7966 71.404C68.1233 70.9653 68.3006 70.4473 68.3286 69.85C68.3379 69.7473 68.3426 69.57 68.3426 69.318C68.3426 69.0567 68.3379 68.8747 68.3286 68.772C68.3099 68.2027 68.1279 67.7127 67.7826 67.302C67.4466 66.882 66.9613 66.672 66.3266 66.672C65.6546 66.672 65.1646 66.882 64.8566 67.302C64.5486 67.722 64.3806 68.2727 64.3526 68.954L64.3386 69.36C64.3386 71.152 65.0013 72.048 66.3266 72.048ZM72.0351 73C71.9418 73 71.8624 72.972 71.7971 72.916C71.7411 72.8507 71.7131 72.7713 71.7131 72.678V66.056C71.7131 65.9627 71.7411 65.8833 71.7971 65.818C71.8624 65.7527 71.9418 65.72 72.0351 65.72H72.6231C72.7258 65.72 72.8051 65.7527 72.8611 65.818C72.9264 65.874 72.9591 65.9533 72.9591 66.056V66.672C73.3418 66.0373 73.9904 65.72 74.9051 65.72H75.4511C75.5538 65.72 75.6331 65.748 75.6891 65.804C75.7451 65.86 75.7731 65.9393 75.7731 66.042V66.56C75.7731 66.6533 75.7451 66.7327 75.6891 66.798C75.6331 66.854 75.5538 66.882 75.4511 66.882H74.6531C74.1398 66.882 73.7338 67.0313 73.4351 67.33C73.1458 67.6287 73.0011 68.0347 73.0011 68.548V72.678C73.0011 72.7713 72.9684 72.8507 72.9031 72.916C72.8378 72.972 72.7584 73 72.6651 73H72.0351ZM79.794 73.14C78.7674 73.14 77.974 72.8507 77.414 72.272C76.8634 71.6933 76.5694 70.9233 76.532 69.962L76.518 69.36L76.532 68.758C76.5694 67.7967 76.868 67.0267 77.428 66.448C77.9974 65.8693 78.786 65.58 79.794 65.58C80.802 65.58 81.586 65.8693 82.146 66.448C82.7154 67.0267 83.0187 67.7967 83.056 68.758C83.0747 68.9633 83.084 69.164 83.084 69.36C83.084 69.556 83.0747 69.7567 83.056 69.962C83.0187 70.9233 82.72 71.6933 82.16 72.272C81.6094 72.8507 80.8207 73.14 79.794 73.14ZM79.794 72.09C80.3914 72.09 80.8627 71.9033 81.208 71.53C81.5627 71.1473 81.754 70.6013 81.782 69.892C81.7914 69.7987 81.796 69.6213 81.796 69.36C81.796 69.0987 81.7914 68.9213 81.782 68.828C81.754 68.1187 81.5627 67.5773 81.208 67.204C80.8627 66.8213 80.3914 66.63 79.794 66.63C79.1967 66.63 78.7207 66.8213 78.366 67.204C78.0207 67.5773 77.834 68.1187 77.806 68.828L77.792 69.36L77.806 69.892C77.834 70.6013 78.0207 71.1473 78.366 71.53C78.7207 71.9033 79.1967 72.09 79.794 72.09ZM85.1878 75.66C85.0944 75.66 85.0151 75.632 84.9498 75.576C84.8938 75.52 84.8658 75.4407 84.8658 75.338V66.042C84.8658 65.9393 84.8938 65.86 84.9498 65.804C85.0151 65.748 85.0944 65.72 85.1878 65.72H85.7758C85.8784 65.72 85.9578 65.748 86.0138 65.804C86.0698 65.86 86.0978 65.9393 86.0978 66.042V66.658C86.6391 65.9393 87.4091 65.58 88.4078 65.58C89.3878 65.58 90.1204 65.8927 90.6058 66.518C91.1004 67.134 91.3618 67.9227 91.3898 68.884C91.3991 68.9867 91.4038 69.1453 91.4038 69.36C91.4038 69.5747 91.3991 69.7333 91.3898 69.836C91.3618 70.788 91.1004 71.5767 90.6058 72.202C90.1204 72.8273 89.3878 73.14 88.4078 73.14C87.4091 73.14 86.6531 72.7853 86.1398 72.076V75.338C86.1398 75.4313 86.1071 75.506 86.0418 75.562C85.9858 75.6273 85.9111 75.66 85.8178 75.66H85.1878ZM88.1418 72.048C88.8138 72.048 89.3038 71.838 89.6118 71.418C89.9198 70.998 90.0878 70.4473 90.1158 69.766C90.1251 69.6727 90.1298 69.5373 90.1298 69.36C90.1298 67.568 89.4671 66.672 88.1418 66.672C87.4884 66.672 86.9938 66.8913 86.6578 67.33C86.3311 67.7593 86.1584 68.268 86.1398 68.856C86.1304 68.9587 86.1258 69.1407 86.1258 69.402C86.1258 69.6633 86.1304 69.8453 86.1398 69.948C86.1584 70.5173 86.3358 71.012 86.6718 71.432C87.0171 71.8427 87.5071 72.048 88.1418 72.048ZM97.3998 73C97.3065 73 97.2271 72.972 97.1618 72.916C97.1058 72.8507 97.0778 72.7713 97.0778 72.678V66.798H95.8738C95.7805 66.798 95.7011 66.77 95.6358 66.714C95.5798 66.658 95.5518 66.5833 95.5518 66.49V66.042C95.5518 65.9487 95.5798 65.874 95.6358 65.818C95.7011 65.7527 95.7805 65.72 95.8738 65.72H97.0778V65.02C97.0778 64.264 97.2598 63.6807 97.6238 63.27C97.9971 62.85 98.6038 62.64 99.4438 62.64H101.544C101.637 62.64 101.712 62.6727 101.768 62.738C101.824 62.794 101.852 62.8687 101.852 62.962V63.41C101.852 63.5033 101.824 63.578 101.768 63.634C101.712 63.69 101.637 63.718 101.544 63.718H99.4718C99.0425 63.718 98.7438 63.83 98.5758 64.054C98.4078 64.278 98.3238 64.6233 98.3238 65.09V65.72H101.544C101.637 65.72 101.712 65.7527 101.768 65.818C101.824 65.874 101.852 65.9487 101.852 66.042V72.678C101.852 72.7713 101.824 72.8507 101.768 72.916C101.712 72.972 101.637 73 101.544 73H100.928C100.834 73 100.755 72.972 100.69 72.916C100.634 72.8507 100.606 72.7713 100.606 72.678V66.798H98.3238V72.678C98.3238 72.7713 98.2911 72.8507 98.2258 72.916C98.1698 72.972 98.0951 73 98.0018 73H97.3998ZM104.287 73C104.194 73 104.115 72.972 104.049 72.916C103.993 72.8507 103.965 72.7713 103.965 72.678V63.382C103.965 63.2793 103.993 63.2 104.049 63.144C104.115 63.088 104.194 63.06 104.287 63.06H104.903C104.997 63.06 105.071 63.0927 105.127 63.158C105.193 63.214 105.225 63.2887 105.225 63.382V72.678C105.225 72.7713 105.193 72.8507 105.127 72.916C105.071 72.972 104.997 73 104.903 73H104.287ZM110.212 73.14C109.26 73.14 108.5 72.846 107.93 72.258C107.361 71.6607 107.048 70.8487 106.992 69.822L106.978 69.346L106.992 68.884C107.048 67.876 107.361 67.0733 107.93 66.476C108.5 65.8787 109.26 65.58 110.212 65.58C111.239 65.58 112.032 65.9067 112.592 66.56C113.162 67.2133 113.446 68.1 113.446 69.22V69.472C113.446 69.5653 113.414 69.6447 113.348 69.71C113.292 69.766 113.218 69.794 113.124 69.794H108.266V69.92C108.294 70.5267 108.481 71.0447 108.826 71.474C109.172 71.9033 109.629 72.118 110.198 72.118C110.637 72.118 110.992 72.034 111.262 71.866C111.542 71.6887 111.752 71.5067 111.892 71.32C111.976 71.208 112.042 71.1427 112.088 71.124C112.135 71.096 112.214 71.082 112.326 71.082H112.942C113.026 71.082 113.096 71.1053 113.152 71.152C113.218 71.1987 113.25 71.2593 113.25 71.334C113.25 71.5393 113.124 71.7867 112.872 72.076C112.62 72.3653 112.261 72.6173 111.794 72.832C111.337 73.0373 110.81 73.14 110.212 73.14ZM112.172 68.842V68.8C112.172 68.1467 111.995 67.6147 111.64 67.204C111.286 66.7933 110.81 66.588 110.212 66.588C109.606 66.588 109.13 66.7933 108.784 67.204C108.439 67.6147 108.266 68.1467 108.266 68.8V68.842H112.172ZM118.93 73C118.837 73 118.757 72.972 118.692 72.916C118.636 72.8507 118.608 72.7713 118.608 72.678V63.382C118.608 63.2793 118.636 63.2 118.692 63.144C118.757 63.088 118.837 63.06 118.93 63.06H119.574C119.677 63.06 119.756 63.088 119.812 63.144C119.868 63.2 119.896 63.2793 119.896 63.382V66.644C120.167 66.2987 120.484 66.0373 120.848 65.86C121.221 65.6733 121.679 65.58 122.22 65.58C123.116 65.58 123.811 65.8693 124.306 66.448C124.81 67.0173 125.062 67.7733 125.062 68.716V72.678C125.062 72.7713 125.029 72.8507 124.964 72.916C124.908 72.972 124.833 73 124.74 73H124.082C123.989 73 123.909 72.972 123.844 72.916C123.788 72.8507 123.76 72.7713 123.76 72.678V68.8C123.76 68.128 123.597 67.6053 123.27 67.232C122.943 66.8587 122.472 66.672 121.856 66.672C121.259 66.672 120.783 66.8633 120.428 67.246C120.073 67.6193 119.896 68.1373 119.896 68.8V72.678C119.896 72.7713 119.863 72.8507 119.798 72.916C119.742 72.972 119.667 73 119.574 73H118.93ZM129.982 73.14C129.03 73.14 128.269 72.846 127.7 72.258C127.131 71.6607 126.818 70.8487 126.762 69.822L126.748 69.346L126.762 68.884C126.818 67.876 127.131 67.0733 127.7 66.476C128.269 65.8787 129.03 65.58 129.982 65.58C131.009 65.58 131.802 65.9067 132.362 66.56C132.931 67.2133 133.216 68.1 133.216 69.22V69.472C133.216 69.5653 133.183 69.6447 133.118 69.71C133.062 69.766 132.987 69.794 132.894 69.794H128.036V69.92C128.064 70.5267 128.251 71.0447 128.596 71.474C128.941 71.9033 129.399 72.118 129.968 72.118C130.407 72.118 130.761 72.034 131.032 71.866C131.312 71.6887 131.522 71.5067 131.662 71.32C131.746 71.208 131.811 71.1427 131.858 71.124C131.905 71.096 131.984 71.082 132.096 71.082H132.712C132.796 71.082 132.866 71.1053 132.922 71.152C132.987 71.1987 133.02 71.2593 133.02 71.334C133.02 71.5393 132.894 71.7867 132.642 72.076C132.39 72.3653 132.031 72.6173 131.564 72.832C131.107 73.0373 130.579 73.14 129.982 73.14ZM131.942 68.842V68.8C131.942 68.1467 131.765 67.6147 131.41 67.204C131.055 66.7933 130.579 66.588 129.982 66.588C129.375 66.588 128.899 66.7933 128.554 67.204C128.209 67.6147 128.036 68.1467 128.036 68.8V68.842H131.942ZM135.24 73C135.147 73 135.067 72.972 135.002 72.916C134.946 72.8507 134.918 72.7713 134.918 72.678V66.056C134.918 65.9627 134.946 65.8833 135.002 65.818C135.067 65.7527 135.147 65.72 135.24 65.72H135.828C135.931 65.72 136.01 65.7527 136.066 65.818C136.131 65.874 136.164 65.9533 136.164 66.056V66.672C136.547 66.0373 137.195 65.72 138.11 65.72H138.656C138.759 65.72 138.838 65.748 138.894 65.804C138.95 65.86 138.978 65.9393 138.978 66.042V66.56C138.978 66.6533 138.95 66.7327 138.894 66.798C138.838 66.854 138.759 66.882 138.656 66.882H137.858C137.345 66.882 136.939 67.0313 136.64 67.33C136.351 67.6287 136.206 68.0347 136.206 68.548V72.678C136.206 72.7713 136.173 72.8507 136.108 72.916C136.043 72.972 135.963 73 135.87 73H135.24ZM142.929 73.14C141.977 73.14 141.216 72.846 140.647 72.258C140.078 71.6607 139.765 70.8487 139.709 69.822L139.695 69.346L139.709 68.884C139.765 67.876 140.078 67.0733 140.647 66.476C141.216 65.8787 141.977 65.58 142.929 65.58C143.956 65.58 144.749 65.9067 145.309 66.56C145.878 67.2133 146.163 68.1 146.163 69.22V69.472C146.163 69.5653 146.13 69.6447 146.065 69.71C146.009 69.766 145.934 69.794 145.841 69.794H140.983V69.92C141.011 70.5267 141.198 71.0447 141.543 71.474C141.888 71.9033 142.346 72.118 142.915 72.118C143.354 72.118 143.708 72.034 143.979 71.866C144.259 71.6887 144.469 71.5067 144.609 71.32C144.693 71.208 144.758 71.1427 144.805 71.124C144.852 71.096 144.931 71.082 145.043 71.082H145.659C145.743 71.082 145.813 71.1053 145.869 71.152C145.934 71.1987 145.967 71.2593 145.967 71.334C145.967 71.5393 145.841 71.7867 145.589 72.076C145.337 72.3653 144.978 72.6173 144.511 72.832C144.054 73.0373 143.526 73.14 142.929 73.14ZM144.889 68.842V68.8C144.889 68.1467 144.712 67.6147 144.357 67.204C144.002 66.7933 143.526 66.588 142.929 66.588C142.322 66.588 141.846 66.7933 141.501 67.204C141.156 67.6147 140.983 68.1467 140.983 68.8V68.842H144.889Z" fill="#7B89A6"/>
<path d="M24 105C24 96.1634 31.1634 89 40 89H107C115.837 89 123 96.1634 123 105C123 113.837 115.837 121 107 121H40C31.1634 121 24 113.837 24 105Z" fill="#5893FF" fill-opacity="0.1"/>
<path d="M48.9295 110C48.8548 110 48.7848 109.972 48.7195 109.916C48.6635 109.86 48.6355 109.79 48.6355 109.706L48.6635 109.58L52.0375 100.55C52.1028 100.317 52.2661 100.2 52.5275 100.2H54.0535C54.2961 100.2 54.4595 100.317 54.5435 100.55L57.9175 109.58C57.9268 109.608 57.9315 109.65 57.9315 109.706C57.9315 109.79 57.9035 109.86 57.8475 109.916C57.7915 109.972 57.7261 110 57.6515 110H56.4335C56.3121 110 56.2188 109.972 56.1535 109.916C56.0881 109.86 56.0461 109.799 56.0275 109.734L55.3695 108.026H51.2115L50.5535 109.734C50.4788 109.911 50.3435 110 50.1475 110H48.9295ZM54.8795 106.416L53.2835 102.09L51.7015 106.416H54.8795ZM61.6905 110.14C60.7478 110.14 60.0245 109.837 59.5205 109.23C59.0165 108.623 58.7458 107.816 58.7085 106.808L58.6945 106.346L58.7085 105.898C58.7365 104.918 59.0025 104.12 59.5065 103.504C60.0198 102.888 60.7478 102.58 61.6905 102.58C62.5958 102.58 63.3145 102.888 63.8465 103.504V100.396C63.8465 100.293 63.8791 100.214 63.9445 100.158C64.0098 100.093 64.0891 100.06 64.1825 100.06H65.3725C65.4751 100.06 65.5545 100.093 65.6105 100.158C65.6758 100.214 65.7085 100.293 65.7085 100.396V109.664C65.7085 109.757 65.6758 109.837 65.6105 109.902C65.5545 109.967 65.4751 110 65.3725 110H64.2665C64.1731 110 64.0938 109.967 64.0285 109.902C63.9631 109.837 63.9305 109.757 63.9305 109.664V109.146C63.3985 109.809 62.6518 110.14 61.6905 110.14ZM62.2085 108.642C62.7498 108.642 63.1511 108.469 63.4125 108.124C63.6738 107.779 63.8185 107.354 63.8465 106.85C63.8558 106.738 63.8605 106.556 63.8605 106.304C63.8605 106.061 63.8558 105.884 63.8465 105.772C63.8278 105.305 63.6785 104.909 63.3985 104.582C63.1278 104.246 62.7311 104.078 62.2085 104.078C61.2005 104.078 60.6638 104.699 60.5985 105.94L60.5845 106.36L60.5985 106.78C60.6638 108.021 61.2005 108.642 62.2085 108.642ZM70.2764 110.14C69.3337 110.14 68.6104 109.837 68.1064 109.23C67.6024 108.623 67.3317 107.816 67.2944 106.808L67.2804 106.346L67.2944 105.898C67.3224 104.918 67.5884 104.12 68.0924 103.504C68.6057 102.888 69.3337 102.58 70.2764 102.58C71.1817 102.58 71.9004 102.888 72.4324 103.504V100.396C72.4324 100.293 72.4651 100.214 72.5304 100.158C72.5957 100.093 72.6751 100.06 72.7684 100.06H73.9584C74.0611 100.06 74.1404 100.093 74.1964 100.158C74.2617 100.214 74.2944 100.293 74.2944 100.396V109.664C74.2944 109.757 74.2617 109.837 74.1964 109.902C74.1404 109.967 74.0611 110 73.9584 110H72.8524C72.7591 110 72.6797 109.967 72.6144 109.902C72.5491 109.837 72.5164 109.757 72.5164 109.664V109.146C71.9844 109.809 71.2377 110.14 70.2764 110.14ZM70.7944 108.642C71.3357 108.642 71.7371 108.469 71.9984 108.124C72.2597 107.779 72.4044 107.354 72.4324 106.85C72.4417 106.738 72.4464 106.556 72.4464 106.304C72.4464 106.061 72.4417 105.884 72.4324 105.772C72.4137 105.305 72.2644 104.909 71.9844 104.582C71.7137 104.246 71.3171 104.078 70.7944 104.078C69.7864 104.078 69.2497 104.699 69.1844 105.94L69.1704 106.36L69.1844 106.78C69.2497 108.021 69.7864 108.642 70.7944 108.642ZM80.2335 110C80.1401 110 80.0608 109.967 79.9955 109.902C79.9301 109.837 79.8975 109.757 79.8975 109.664V104.204H78.7635C78.6701 104.204 78.5908 104.171 78.5255 104.106C78.4601 104.031 78.4275 103.947 78.4275 103.854V103.056C78.4275 102.963 78.4601 102.883 78.5255 102.818C78.5908 102.753 78.6701 102.72 78.7635 102.72H79.8975V102.146C79.8975 100.475 80.8121 99.64 82.6415 99.64H85.4975C85.6001 99.64 85.6795 99.6727 85.7355 99.738C85.8008 99.794 85.8335 99.8733 85.8335 99.976V100.774C85.8335 100.877 85.8008 100.961 85.7355 101.026C85.6701 101.091 85.5908 101.124 85.4975 101.124H82.6975C82.3335 101.124 82.0768 101.213 81.9275 101.39C81.7875 101.567 81.7175 101.843 81.7175 102.216V102.72H85.4975C85.6001 102.72 85.6795 102.753 85.7355 102.818C85.8008 102.874 85.8335 102.953 85.8335 103.056V109.664C85.8335 109.757 85.8008 109.837 85.7355 109.902C85.6795 109.967 85.6001 110 85.4975 110H84.3635C84.2701 110 84.1908 109.967 84.1255 109.902C84.0601 109.837 84.0275 109.757 84.0275 109.664V104.204H81.7175V109.664C81.7175 109.757 81.6848 109.837 81.6195 109.902C81.5541 109.967 81.4748 110 81.3815 110H80.2335ZM88.0494 110C87.9561 110 87.8767 109.967 87.8114 109.902C87.7461 109.837 87.7134 109.757 87.7134 109.664V100.396C87.7134 100.293 87.7461 100.214 87.8114 100.158C87.8767 100.093 87.9561 100.06 88.0494 100.06H89.2114C89.3141 100.06 89.3934 100.093 89.4494 100.158C89.5147 100.214 89.5474 100.293 89.5474 100.396V109.664C89.5474 109.757 89.5147 109.837 89.4494 109.902C89.3934 109.967 89.3141 110 89.2114 110H88.0494ZM94.5405 110.14C93.5045 110.14 92.6785 109.841 92.0625 109.244C91.4558 108.637 91.1338 107.788 91.0965 106.696L91.0825 106.346L91.0965 105.996C91.1431 104.932 91.4698 104.097 92.0765 103.49C92.6925 102.883 93.5138 102.58 94.5405 102.58C95.6418 102.58 96.4911 102.916 97.0885 103.588C97.6951 104.26 97.9985 105.156 97.9985 106.276V106.57C97.9985 106.663 97.9658 106.743 97.9005 106.808C97.8351 106.873 97.7511 106.906 97.6485 106.906H93.0005V107.018C93.0191 107.531 93.1591 107.965 93.4205 108.32C93.6911 108.665 94.0598 108.838 94.5265 108.838C95.0771 108.838 95.5205 108.623 95.8565 108.194C95.9405 108.091 96.0058 108.026 96.0525 107.998C96.1085 107.97 96.1878 107.956 96.2905 107.956H97.4945C97.5785 107.956 97.6485 107.984 97.7045 108.04C97.7698 108.087 97.8025 108.147 97.8025 108.222C97.8025 108.446 97.6671 108.712 97.3965 109.02C97.1351 109.319 96.7571 109.58 96.2625 109.804C95.7678 110.028 95.1938 110.14 94.5405 110.14ZM96.0945 105.73V105.688C96.0945 105.137 95.9545 104.694 95.6745 104.358C95.4038 104.022 95.0258 103.854 94.5405 103.854C94.0551 103.854 93.6771 104.022 93.4065 104.358C93.1358 104.694 93.0005 105.137 93.0005 105.688V105.73H96.0945Z" fill="#5893FF"/>
<path d="M40 90H107V88H40V90ZM107 120H40V122H107V120ZM40 120C31.7157 120 25 113.284 25 105H23C23 114.389 30.6112 122 40 122V120ZM122 105C122 113.284 115.284 120 107 120V122C116.389 122 124 114.389 124 105H122ZM107 90C115.284 90 122 96.7157 122 105H124C124 95.6112 116.389 88 107 88V90ZM40 88C30.6112 88 23 95.6112 23 105H25C25 96.7157 31.7157 90 40 90V88Z" fill="white"/>
</svg>
