<svg width="20" height="20" viewBox="0 0 20 20" fill="none" xmlns="http://www.w3.org/2000/svg">
<path d="M5.83325 9.5835C5.34079 9.5835 4.85316 9.4865 4.39819 9.29804C3.94322 9.10959 3.52982 8.83337 3.1816 8.48515C2.83338 8.13693 2.55716 7.72353 2.3687 7.26856C2.18025 6.81359 2.08325 6.32595 2.08325 5.8335C2.08325 5.34104 2.18025 4.8534 2.3687 4.39843C2.55716 3.94346 2.83338 3.53007 3.1816 3.18185C3.52982 2.83363 3.94322 2.5574 4.39819 2.36895C4.85316 2.18049 5.34079 2.0835 5.83325 2.0835C6.82781 2.0835 7.78164 2.47858 8.4849 3.18185C9.18816 3.88511 9.58325 4.83893 9.58325 5.8335C9.58325 6.82806 9.18816 7.78188 8.4849 8.48515C7.78164 9.18841 6.82781 9.5835 5.83325 9.5835ZM5.83325 17.9168C4.83869 17.9168 3.88486 17.5217 3.1816 16.8185C2.47834 16.1152 2.08325 15.1614 2.08325 14.1668C2.08325 13.1723 2.47834 12.2184 3.1816 11.5152C3.88486 10.8119 4.83869 10.4168 5.83325 10.4168C6.82781 10.4168 7.78164 10.8119 8.4849 11.5152C9.18816 12.2184 9.58325 13.1723 9.58325 14.1668C9.58325 15.1614 9.18816 16.1152 8.4849 16.8185C7.78164 17.5217 6.82781 17.9168 5.83325 17.9168ZM14.1666 9.5835C13.6741 9.5835 13.1865 9.4865 12.7315 9.29804C12.2766 9.10959 11.8632 8.83337 11.5149 8.48515C11.1667 8.13693 10.8905 7.72353 10.702 7.26856C10.5136 6.81359 10.4166 6.32595 10.4166 5.8335C10.4166 5.34104 10.5136 4.8534 10.702 4.39843C10.8905 3.94346 11.1667 3.53007 11.5149 3.18185C11.8632 2.83363 12.2766 2.5574 12.7315 2.36895C13.1865 2.18049 13.6741 2.0835 14.1666 2.0835C15.1611 2.0835 16.115 2.47858 16.8182 3.18185C17.5215 3.88511 17.9166 4.83893 17.9166 5.8335C17.9166 6.82806 17.5215 7.78188 16.8182 8.48515C16.115 9.18841 15.1611 9.5835 14.1666 9.5835ZM14.1666 17.9168C13.172 17.9168 12.2182 17.5217 11.5149 16.8185C10.8117 16.1152 10.4166 15.1614 10.4166 14.1668C10.4166 13.1723 10.8117 12.2184 11.5149 11.5152C12.2182 10.8119 13.172 10.4168 14.1666 10.4168C15.1611 10.4168 16.115 10.8119 16.8182 11.5152C17.5215 12.2184 17.9166 13.1723 17.9166 14.1668C17.9166 15.1614 17.5215 16.1152 16.8182 16.8185C16.115 17.5217 15.1611 17.9168 14.1666 17.9168Z" fill="#B4C0D4"/>
</svg>
