<svg width="16" height="16" viewBox="0 0 16 16" fill="none" xmlns="http://www.w3.org/2000/svg">
<path d="M6.16667 7.16667C6.71895 7.16667 7.16667 6.71895 7.16667 6.16667V1.33333C7.16667 0.873096 7.53976 0.5 8 0.5C8.46024 0.5 8.83333 0.873096 8.83333 1.33333V6.16667C8.83333 6.71895 9.28105 7.16667 9.83333 7.16667H14.6667C15.1269 7.16667 15.5 7.53976 15.5 8C15.5 8.46024 15.1269 8.83333 14.6667 8.83333H9.83333C9.28105 8.83333 8.83333 9.28105 8.83333 9.83333V14.6667C8.83333 15.1269 8.46024 15.5 8 15.5C7.53976 15.5 7.16667 15.1269 7.16667 14.6667V9.83333C7.16667 9.28105 6.71895 8.83333 6.16667 8.83333H1.33333C0.873096 8.83333 0.5 8.46024 0.5 8C0.5 7.53976 0.873096 7.16667 1.33333 7.16667H6.16667Z" fill="#6F7CFF"/>
</svg>
