<svg width="16" height="16" viewBox="0 0 16 16" fill="none" xmlns="http://www.w3.org/2000/svg">
<path d="M5.33333 7.33329H8.33333C8.77536 7.33329 9.19928 7.1577 9.51184 6.84514C9.82441 6.53258 10 6.10865 10 5.66663C10 5.2246 9.82441 4.80068 9.51184 4.48811C9.19928 4.17555 8.77536 3.99996 8.33333 3.99996H5.33333V7.33329ZM12 10.3333C12 10.7273 11.9224 11.1174 11.7716 11.4813C11.6209 11.8453 11.3999 12.176 11.1213 12.4546C10.8427 12.7332 10.512 12.9542 10.1481 13.1049C9.78407 13.2557 9.39397 13.3333 9 13.3333H4V2.66663H8.33333C8.92064 2.66665 9.49502 2.83906 9.98525 3.16248C10.4755 3.4859 10.86 3.94609 11.0911 4.48601C11.3223 5.02592 11.3898 5.6218 11.2855 6.19975C11.1811 6.77771 10.9094 7.31232 10.504 7.73729C10.9591 8.00082 11.3369 8.37941 11.5995 8.83506C11.862 9.29071 12.0002 9.8074 12 10.3333ZM5.33333 8.66663V12H9C9.44203 12 9.86595 11.8244 10.1785 11.5118C10.4911 11.1992 10.6667 10.7753 10.6667 10.3333C10.6667 9.89126 10.4911 9.46734 10.1785 9.15478C9.86595 8.84222 9.44203 8.66663 9 8.66663H5.33333Z" fill="#56627F"/>
</svg>
