<svg width="18" height="16" viewBox="0 0 18 16" fill="none" xmlns="http://www.w3.org/2000/svg">
<g opacity="0.6">
<path d="M9.00001 14.75V3.14136C9.00001 3.14136 7.36335 1.32336 1.84534 1.25003C1.80004 1.24946 1.75509 1.25802 1.71317 1.2752C1.67125 1.29238 1.63322 1.31783 1.60134 1.35003C1.53632 1.41537 1.49987 1.50384 1.50001 1.59603V12.5127C1.49928 12.6025 1.53376 12.689 1.59608 12.7537C1.65839 12.8184 1.74357 12.8561 1.83334 12.8587C7.36201 12.9334 9.00001 14.75 9.00001 14.75Z" stroke="#6E768F" stroke-width="1.3" stroke-linecap="round" stroke-linejoin="round"/>
<path d="M9.00001 14.75V3.14136C9.00001 3.14136 7.36335 1.32336 1.84534 1.25003C1.80004 1.24946 1.75509 1.25802 1.71317 1.2752C1.67125 1.29238 1.63322 1.31783 1.60134 1.35003C1.53632 1.41537 1.49987 1.50384 1.50001 1.59603V12.5127C1.49928 12.6025 1.53376 12.689 1.59608 12.7537C1.65839 12.8184 1.74357 12.8561 1.83334 12.8587C7.36201 12.9334 9.00001 14.75 9.00001 14.75Z" stroke="#98D2E8" stroke-opacity="0.3" stroke-width="1.3" stroke-linecap="round" stroke-linejoin="round"/>
<path d="M9.03295 14.75V3.14136C9.03295 3.14136 10.6696 1.32336 16.1876 1.25003C16.2329 1.24946 16.2779 1.25802 16.3198 1.2752C16.3617 1.29238 16.3997 1.31783 16.4316 1.35003C16.4966 1.41537 16.5331 1.50384 16.5329 1.59603V12.5127C16.5337 12.6025 16.4992 12.689 16.4369 12.7537C16.3746 12.8184 16.2894 12.8561 16.1996 12.8587C10.6709 12.9334 9.03295 14.75 9.03295 14.75Z" stroke="#6E768F" stroke-width="1.3" stroke-linecap="round" stroke-linejoin="round"/>
<path d="M9.03295 14.75V3.14136C9.03295 3.14136 10.6696 1.32336 16.1876 1.25003C16.2329 1.24946 16.2779 1.25802 16.3198 1.2752C16.3617 1.29238 16.3997 1.31783 16.4316 1.35003C16.4966 1.41537 16.5331 1.50384 16.5329 1.59603V12.5127C16.5337 12.6025 16.4992 12.689 16.4369 12.7537C16.3746 12.8184 16.2894 12.8561 16.1996 12.8587C10.6709 12.9334 9.03295 14.75 9.03295 14.75Z" stroke="#98D2E8" stroke-opacity="0.3" stroke-width="1.3" stroke-linecap="round" stroke-linejoin="round"/>
</g>
</svg>
