<svg width="16" height="17" viewBox="0 0 16 17" fill="none" xmlns="http://www.w3.org/2000/svg">
<path d="M14.0013 12.8771H15.3346V14.2104H0.667969V12.8771H2.0013V2.87712C2.0013 2.7003 2.07154 2.53074 2.19656 2.40571C2.32159 2.28069 2.49116 2.21045 2.66797 2.21045H9.33463C9.51145 2.21045 9.68102 2.28069 9.80604 2.40571C9.93106 2.53074 10.0013 2.7003 10.0013 2.87712V12.8771H11.3346V6.21045H13.3346C13.5114 6.21045 13.681 6.28069 13.806 6.40571C13.9311 6.53074 14.0013 6.7003 14.0013 6.87712V12.8771ZM4.66797 7.54378V8.87712H7.33463V7.54378H4.66797ZM4.66797 4.87712V6.21045H7.33463V4.87712H4.66797Z" fill="#B4C0D4"/>
</svg>
