<svg width="14" height="17" viewBox="0 0 14 17" fill="none" xmlns="http://www.w3.org/2000/svg">
<path d="M2.67188 3.87714C2.67188 3.32485 3.11959 2.87714 3.67188 2.87714H3.80521C4.35749 2.87714 4.80521 3.32485 4.80521 3.87714V4.01047C4.80521 4.56275 4.35749 5.01047 3.80521 5.01047H3.67187C3.11959 5.01047 2.67188 4.56275 2.67188 4.01047V3.87714Z" fill="#687693"/>
<path d="M2.67188 8.1438C2.67188 7.59152 3.11959 7.1438 3.67188 7.1438H3.80521C4.35749 7.1438 4.80521 7.59151 4.80521 8.1438V8.27713C4.80521 8.82942 4.35749 9.27713 3.80521 9.27713H3.67187C3.11959 9.27713 2.67188 8.82942 2.67188 8.27713V8.1438Z" fill="#687693"/>
<path d="M2.67188 12.4105C2.67188 11.8582 3.11959 11.4105 3.67188 11.4105H3.80521C4.35749 11.4105 4.80521 11.8582 4.80521 12.4105V12.5438C4.80521 13.0961 4.35749 13.5438 3.80521 13.5438H3.67187C3.11959 13.5438 2.67188 13.0961 2.67188 12.5438V12.4105Z" fill="#687693"/>
<path d="M6.9375 3.87714C6.9375 3.32485 7.38522 2.87714 7.9375 2.87714H8.07083C8.62312 2.87714 9.07083 3.32485 9.07083 3.87714V4.01047C9.07083 4.56275 8.62312 5.01047 8.07083 5.01047H7.9375C7.38522 5.01047 6.9375 4.56275 6.9375 4.01047V3.87714Z" fill="#687693"/>
<path d="M6.9375 8.1438C6.9375 7.59152 7.38522 7.1438 7.9375 7.1438H8.07083C8.62312 7.1438 9.07083 7.59151 9.07083 8.1438V8.27713C9.07083 8.82942 8.62312 9.27713 8.07083 9.27713H7.9375C7.38522 9.27713 6.9375 8.82942 6.9375 8.27713V8.1438Z" fill="#687693"/>
<path d="M6.9375 12.4105C6.9375 11.8582 7.38522 11.4105 7.9375 11.4105H8.07083C8.62312 11.4105 9.07083 11.8582 9.07083 12.4105V12.5438C9.07083 13.0961 8.62312 13.5438 8.07083 13.5438H7.9375C7.38522 13.5438 6.9375 13.0961 6.9375 12.5438V12.4105Z" fill="#687693"/>
<path d="M11.207 3.87714C11.207 3.32485 11.6547 2.87714 12.207 2.87714H12.3404C12.8926 2.87714 13.3404 3.32485 13.3404 3.87714V4.01047C13.3404 4.56275 12.8926 5.01047 12.3404 5.01047H12.207C11.6547 5.01047 11.207 4.56275 11.207 4.01047V3.87714Z" fill="#687693"/>
<path d="M11.207 8.1438C11.207 7.59152 11.6547 7.1438 12.207 7.1438H12.3404C12.8926 7.1438 13.3404 7.59151 13.3404 8.1438V8.27713C13.3404 8.82942 12.8926 9.27713 12.3404 9.27713H12.207C11.6547 9.27713 11.207 8.82942 11.207 8.27713V8.1438Z" fill="#687693"/>
<path d="M11.207 12.4105C11.207 11.8582 11.6547 11.4105 12.207 11.4105H12.3404C12.8926 11.4105 13.3404 11.8582 13.3404 12.4105V12.5438C13.3404 13.0961 12.8926 13.5438 12.3404 13.5438H12.207C11.6547 13.5438 11.207 13.0961 11.207 12.5438V12.4105Z" fill="#687693"/>
</svg>
