<svg width="32" height="32" viewBox="0 0 32 32" fill="none" xmlns="http://www.w3.org/2000/svg">
<path d="M16 31.5C24.5604 31.5 31.5 24.5604 31.5 16C31.5 7.43959 24.5604 0.5 16 0.5C7.43959 0.5 0.5 7.43959 0.5 16C0.5 24.5604 7.43959 31.5 16 31.5Z" stroke="#E8EEF9"/>
<path d="M16.2695 16.7067C16.66 16.3162 16.66 15.683 16.2695 15.2925L13.4407 12.4638C13.1153 12.1384 13.1153 11.6108 13.4407 11.2855C13.7661 10.9601 14.2937 10.9601 14.6191 11.2855L18.6261 15.2925C19.0166 15.683 19.0166 16.3162 18.6261 16.7067L14.6191 20.7138C14.2937 21.0392 13.7661 21.0392 13.4407 20.7138C13.1153 20.3884 13.1153 19.8608 13.4407 19.5355L16.2695 16.7067Z" fill="#B4C0D4"/>
</svg>
