<svg width="32" height="32" viewBox="0 0 32 32" fill="none" xmlns="http://www.w3.org/2000/svg">
<path d="M16 31.5C24.5604 31.5 31.5 24.5604 31.5 16C31.5 7.43959 24.5604 0.5 16 0.5C7.43959 0.5 0.5 7.43959 0.5 16C0.5 24.5604 7.43959 31.5 16 31.5Z" stroke="#E8EEF9"/>
<path d="M10.1667 14.333C9.25 14.333 8.5 15.083 8.5 15.9997C8.5 16.9163 9.25 17.6663 10.1667 17.6663C11.0833 17.6663 11.8333 16.9163 11.8333 15.9997C11.8333 15.083 11.0833 14.333 10.1667 14.333ZM21.8333 14.333C20.9167 14.333 20.1667 15.083 20.1667 15.9997C20.1667 16.9163 20.9167 17.6663 21.8333 17.6663C22.75 17.6663 23.5 16.9163 23.5 15.9997C23.5 15.083 22.75 14.333 21.8333 14.333ZM16 14.333C15.0833 14.333 14.3333 15.083 14.3333 15.9997C14.3333 16.9163 15.0833 17.6663 16 17.6663C16.9167 17.6663 17.6667 16.9163 17.6667 15.9997C17.6667 15.083 16.9167 14.333 16 14.333Z" fill="#B4C0D4"/>
</svg>
