<svg width="16" height="17" viewBox="0 0 16 17" fill="none" xmlns="http://www.w3.org/2000/svg">
<path d="M6.20916 9.88531C6.46587 10.1269 6.86632 10.1269 7.12301 9.88528L12.026 5.27013C12.2606 5.04935 12.6265 5.04927 12.8611 5.26996C13.1169 5.5105 13.1169 5.91686 12.8613 6.1575L7.12301 11.5583C6.86631 11.7999 6.46589 11.7999 6.20919 11.5583L3.13745 8.66717C2.88192 8.42667 2.88192 8.02057 3.13745 7.78007C3.37198 7.55933 3.73784 7.55933 3.97237 7.78007L6.20916 9.88531Z" fill="#07080A"/>
<path fill-rule="evenodd" clip-rule="evenodd" d="M6.89463 9.64289L11.7976 5.02773C12.1605 4.68617 12.7265 4.68605 13.0896 5.02747C13.4852 5.39961 13.4853 6.02828 13.0898 6.40056L7.35155 11.8013C6.9665 12.1637 6.36586 12.1637 5.98081 11.8013L2.90907 8.91023C2.51371 8.53812 2.51371 7.90977 2.90907 7.53766C3.27196 7.19612 3.83802 7.19612 4.20091 7.53766L6.4377 9.6429C6.56606 9.76371 6.76628 9.7637 6.89463 9.64289ZM7.12309 9.88561C6.8664 10.1272 6.46595 10.1272 6.20924 9.88563L3.97245 7.7804C3.73792 7.55965 3.37207 7.55965 3.13753 7.7804C2.882 8.02089 2.882 8.427 3.13753 8.6675L6.20927 11.5586C6.46597 11.8002 6.86639 11.8002 7.12309 11.5586L12.8613 6.15782C13.117 5.91719 13.1169 5.51083 12.8612 5.27028C12.6265 5.0496 12.2607 5.04967 12.0261 5.27045L7.12309 9.88561Z" fill="#07080A"/>
</svg>
