<svg width="20" height="20" viewBox="0 0 20 20" fill="none" xmlns="http://www.w3.org/2000/svg">
<path d="M8.18917 18.1358C4.45833 17.3091 1.66667 13.9808 1.66667 9.99997C1.66667 8.48163 2.0725 7.0583 2.7825 5.83163L6.35167 12.0141C6.75266 12.7409 7.36162 13.3313 8.10044 13.7096C8.83927 14.0879 9.67426 14.2369 10.4983 14.1375L8.19 18.1358H8.18917ZM10 18.3333L13.5725 12.1458C13.9624 11.498 14.1679 10.756 14.1667 9.99997C14.168 9.09821 13.8755 8.22057 13.3333 7.49997H17.9517C18.2 8.28913 18.3333 9.12913 18.3333 9.99997C18.3333 14.6025 14.6025 18.3333 10 18.3333ZM12.1433 11.2875C11.9194 11.6608 11.6019 11.9691 11.2222 12.1819C10.8424 12.3948 10.4137 12.5047 9.97844 12.5009C9.54316 12.4971 9.11642 12.3797 8.74047 12.1603C8.36451 11.9409 8.05239 11.6271 7.835 11.25L7.81083 11.2083C7.59981 10.8259 7.49265 10.3949 7.50003 9.95816C7.50741 9.52146 7.62908 9.0943 7.85291 8.71925C8.07674 8.34419 8.39492 8.03432 8.77577 7.82049C9.15662 7.60667 9.58685 7.49635 10.0236 7.50053C10.4603 7.50471 10.8884 7.62324 11.2651 7.84432C11.6418 8.06539 11.954 8.38129 12.1706 8.76056C12.3872 9.13984 12.5006 9.56924 12.4997 10.006C12.4987 10.4428 12.3833 10.8717 12.165 11.25L12.1433 11.2875ZM3.86 4.3658C4.63978 3.51404 5.5885 2.83412 6.64565 2.36939C7.70281 1.90466 8.84521 1.66532 10 1.66663C11.4631 1.66604 12.9006 2.05083 14.1677 2.78228C15.4349 3.51372 16.4871 4.56603 17.2183 5.8333H10C9.18369 5.83319 8.38533 6.07282 7.704 6.52245C7.02268 6.97207 6.48841 7.61188 6.1675 8.36246L3.86 4.3658Z" fill="#B4C0D4"/>
</svg>
