<svg width="18" height="18" viewBox="0 0 18 18" fill="none" xmlns="http://www.w3.org/2000/svg">
<path d="M5.25 3V1.5H12.75V3H15.0052C15.4163 3 15.75 3.33375 15.75 3.74475V15.7552C15.7498 15.9527 15.6713 16.142 15.5316 16.2816C15.392 16.4213 15.2027 16.4998 15.0052 16.5H2.99475C2.79729 16.4998 2.60798 16.4213 2.46835 16.2816C2.32873 16.142 2.2502 15.9527 2.25 15.7552V3.74475C2.25 3.33375 2.58375 3 2.99475 3H5.25ZM5.25 4.5H3.75V15H14.25V4.5H12.75V6H5.25V4.5ZM6.75 3V4.5H11.25V3H6.75Z" fill="#5893FF"/>
</svg>
