<svg width="48" height="48" viewBox="0 0 48 48" fill="none" xmlns="http://www.w3.org/2000/svg">
<path d="M24 32.25C28.1421 32.25 31.5 28.8921 31.5 24.75C31.5 20.6079 28.1421 17.25 24 17.25C19.8579 17.25 16.5 20.6079 16.5 24.75C16.5 28.8921 19.8579 32.25 24 32.25Z" fill="white"/>
<path d="M24 33.375C19.2375 33.375 15.375 29.5125 15.375 24.75C15.375 19.9875 19.2375 16.125 24 16.125C28.7625 16.125 32.625 19.9875 32.625 24.75C32.625 29.5125 28.7625 33.375 24 33.375ZM24 18.375C20.475 18.375 17.625 21.225 17.625 24.75C17.625 28.275 20.475 31.125 24 31.125C27.525 31.125 30.375 28.275 30.375 24.75C30.375 21.225 27.525 18.375 24 18.375Z" fill="#2657B3"/>
<path d="M37.6874 44.5125C37.3874 44.5125 37.0874 44.4 36.8624 44.175C33.4874 40.575 28.9124 38.5875 23.9999 38.5875C19.0874 38.5875 14.5124 40.575 11.1374 44.175C10.7249 44.625 10.0124 44.6625 9.5624 44.2125C9.1124 43.8 9.0749 43.0875 9.5249 42.6375C13.2374 38.625 18.5249 36.3 23.9999 36.3C29.4749 36.3 34.7624 38.5875 38.5124 42.6C38.9249 43.05 38.9249 43.7625 38.4749 44.175C38.2499 44.4 37.9499 44.5125 37.6874 44.5125Z" fill="#2657B3"/>
<path d="M46.6875 26.9625C46.3875 26.9625 46.0875 26.85 45.8625 26.625C43.3875 23.9625 40.0125 22.5 36.375 22.5C35.7375 22.5 35.25 22.0125 35.25 21.375C35.25 20.7375 35.7375 20.25 36.375 20.25C40.575 20.25 44.625 22.0125 47.5125 25.0875C47.925 25.5375 47.925 26.25 47.475 26.6625C47.25 26.85 46.95 26.9625 46.6875 26.9625Z" fill="#A5CEFF"/>
<path d="M36.3749 5.1001C33.2624 5.1001 30.7124 7.6501 30.7124 10.7626C30.7124 13.8751 33.2624 16.4251 36.3749 16.4251C39.4874 16.4251 42.0374 13.8751 42.0374 10.7626C42.0374 7.6501 39.4874 5.1001 36.3749 5.1001Z" fill="#A5CEFF"/>
<path d="M1.31255 26.9626C1.05005 26.9626 0.750048 26.8501 0.525048 26.6626C0.0750481 26.2501 0.0375481 25.5376 0.487548 25.0876C3.37505 21.9751 7.42505 20.2126 11.625 20.2126C12.2625 20.2126 12.75 20.7001 12.75 21.3376C12.75 21.9751 12.2625 22.4626 11.625 22.4626C7.98755 22.4626 4.61255 23.9251 2.13755 26.5876C1.91255 26.8501 1.61255 26.9626 1.31255 26.9626Z" fill="#A5CEFF"/>
<path d="M11.6249 5.1001C8.5124 5.1001 5.9624 7.6501 5.9624 10.7626C5.9624 13.8751 8.5124 16.4251 11.6249 16.4251C14.7374 16.4251 17.2874 13.8751 17.2874 10.7626C17.2874 7.6501 14.7374 5.1001 11.6249 5.1001Z" fill="#A5CEFF"/>
</svg>
