<svg width="16" height="16" viewBox="0 0 16 16" fill="none" xmlns="http://www.w3.org/2000/svg">
<path d="M14.0003 12.6667H15.3337V14H0.666992V12.6667H2.00033V2.66667C2.00033 2.48986 2.07056 2.32029 2.19559 2.19526C2.32061 2.07024 2.49018 2 2.66699 2H9.33366C9.51047 2 9.68004 2.07024 9.80506 2.19526C9.93009 2.32029 10.0003 2.48986 10.0003 2.66667V12.6667H12.667V7.33333H11.3337V6H13.3337C13.5105 6 13.68 6.07024 13.8051 6.19526C13.9301 6.32029 14.0003 6.48986 14.0003 6.66667V12.6667ZM3.33366 3.33333V12.6667H8.66699V3.33333H3.33366ZM4.66699 7.33333H7.33366V8.66667H4.66699V7.33333ZM4.66699 4.66667H7.33366V6H4.66699V4.66667Z" fill="#687693"/>
</svg>
