<svg width="16" height="16" viewBox="0 0 16 16" fill="none" xmlns="http://www.w3.org/2000/svg">
<path d="M7.26624 1.40002L13.8656 2.34336L14.8082 8.94336L8.68024 15.0714C8.55522 15.1963 8.38568 15.2665 8.20891 15.2665C8.03213 15.2665 7.86259 15.1963 7.73757 15.0714L1.13757 8.47136C1.01259 8.34634 0.942383 8.1768 0.942383 8.00002C0.942383 7.82325 1.01259 7.65371 1.13757 7.52869L7.26624 1.40002ZM7.73757 2.81469L2.55157 8.00002L8.20891 13.6567L13.3942 8.47136L12.6876 3.52136L7.73757 2.81469ZM9.15091 7.05736C8.90081 6.80717 8.76034 6.46788 8.7604 6.11412C8.76043 5.93896 8.79496 5.76552 8.86202 5.6037C8.92908 5.44189 9.02736 5.29486 9.15124 5.17102C9.27512 5.04719 9.42218 4.94896 9.58402 4.88196C9.74586 4.81496 9.91931 4.78049 10.0945 4.78052C10.4482 4.78058 10.7875 4.92117 11.0376 5.17136C11.2877 5.42155 11.4281 5.76084 11.4281 6.11459C11.428 6.46835 11.2874 6.80759 11.0372 7.05769C10.7871 7.30779 10.4478 7.44826 10.094 7.4482C9.74025 7.44813 9.40101 7.30755 9.15091 7.05736Z" fill="#687693"/>
</svg>
