<svg width="44" height="44" viewBox="0 0 44 44" fill="none" xmlns="http://www.w3.org/2000/svg">
<circle cx="22" cy="22" r="22" fill="#4489F2"/>
<path d="M21.9998 26.1665C25.0515 26.1665 27.7206 27.479 29.1723 29.4373L27.6373 30.1632C26.4556 28.7632 24.3723 27.8332 21.9998 27.8332C19.6273 27.8332 17.544 28.7632 16.3623 30.1632L14.8281 29.4365C16.2798 27.4782 18.9481 26.1665 21.9998 26.1665ZM21.9998 13.6665C23.1049 13.6665 24.1647 14.1055 24.9461 14.8869C25.7275 15.6683 26.1665 16.7281 26.1665 17.8332V20.3332C26.1665 21.4382 25.7275 22.498 24.9461 23.2795C24.1647 24.0609 23.1049 24.4998 21.9998 24.4998C20.8947 24.4998 19.8349 24.0609 19.0535 23.2795C18.2721 22.498 17.8331 21.4382 17.8331 20.3332V17.8332C17.8331 16.7281 18.2721 15.6683 19.0535 14.8869C19.8349 14.1055 20.8947 13.6665 21.9998 13.6665Z" fill="white"/>
</svg>
