<svg width="44" height="44" viewBox="0 0 44 44" fill="none" xmlns="http://www.w3.org/2000/svg">
<circle cx="22" cy="22" r="22" fill="#8C95F8"/>
<path d="M17.8337 17.8332V14.4998C17.8337 14.2788 17.9215 14.0669 18.0777 13.9106C18.234 13.7543 18.446 13.6665 18.667 13.6665H29.5003C29.7213 13.6665 29.9333 13.7543 30.0896 13.9106C30.2459 14.0669 30.3337 14.2788 30.3337 14.4998V25.3332C30.3337 25.5542 30.2459 25.7661 30.0896 25.9224C29.9333 26.0787 29.7213 26.1665 29.5003 26.1665H26.167V29.494C26.167 29.9573 25.7928 30.3332 25.3278 30.3332H14.5062C14.3959 30.3333 14.2868 30.3116 14.1849 30.2695C14.083 30.2274 13.9905 30.1656 13.9125 30.0876C13.8346 30.0097 13.7728 29.9171 13.7306 29.8153C13.6885 29.7134 13.6669 29.6042 13.667 29.494L13.6695 18.6723C13.6695 18.209 14.0437 17.8332 14.5087 17.8332H17.8337ZM19.5003 17.8332H25.3278C25.7912 17.8332 26.167 18.2073 26.167 18.6723V24.4998H28.667V15.3332H19.5003V17.8332Z" fill="white"/>
</svg>
