<svg width="48" height="48" viewBox="0 0 48 48" fill="none" xmlns="http://www.w3.org/2000/svg">
<path d="M37.5 46.5H10.5C8.4375 46.5 6.75 44.8125 6.75 42.75V5.25C6.75 3.1875 8.4375 1.5 10.5 1.5H28.875L41.25 13.875V42.75C41.25 44.8125 39.5625 46.5 37.5 46.5Z" fill="white"/>
<path d="M36 25.5H12V37.5H36V25.5Z" fill="white"/>
<path d="M36 38.625H12C11.3625 38.625 10.875 38.1375 10.875 37.5V25.5C10.875 24.8625 11.3625 24.375 12 24.375H36C36.6375 24.375 37.125 24.8625 37.125 25.5V37.5C37.125 38.1375 36.6375 38.625 36 38.625ZM13.125 36.375H34.875V26.625H13.125V36.375Z" fill="#73ABFF"/>
<path d="M36 32.625H12C11.3625 32.625 10.875 32.1375 10.875 31.5C10.875 30.8625 11.3625 30.375 12 30.375H36C36.6375 30.375 37.125 30.8625 37.125 31.5C37.125 32.1375 36.6375 32.625 36 32.625Z" fill="#73ABFF"/>
<path d="M19.875 38.625C19.2375 38.625 18.75 38.1375 18.75 37.5V25.5C18.75 24.8625 19.2375 24.375 19.875 24.375C20.5125 24.375 21 24.8625 21 25.5V37.5C21 38.1375 20.5125 38.625 19.875 38.625Z" fill="#73ABFF"/>
<path d="M28.875 1.5V10.125C28.875 12.1875 30.5625 13.875 32.625 13.875H41.25L28.875 1.5Z" fill="#DBE4F3"/>
<path d="M42.375 13.875C42.375 13.575 42.2625 13.3125 42.0375 13.0875L29.6625 0.7125C29.3625 0.375 28.875 0.3 28.4625 0.45C28.0125 0.6375 27.75 1.05 27.75 1.5V10.125C27.75 12.825 29.925 15 32.625 15H40.125V42.75C40.125 44.2125 38.9625 45.375 37.5 45.375H10.5C9.0375 45.375 7.875 44.2125 7.875 42.75V5.25C7.875 3.7875 9.0375 2.625 10.5 2.625H23.25C23.8875 2.625 24.375 2.1375 24.375 1.5C24.375 0.8625 23.8875 0.375 23.25 0.375H10.5C7.8 0.375 5.625 2.55 5.625 5.25V42.75C5.625 45.45 7.8 47.625 10.5 47.625H37.5C40.2 47.625 42.375 45.45 42.375 42.75V13.875ZM32.625 12.75C31.1625 12.75 30 11.5875 30 10.125V4.2L38.55 12.75H32.625Z" fill="#445069"/>
</svg>
