<svg width="48" height="46" viewBox="0 0 48 46" fill="none" xmlns="http://www.w3.org/2000/svg">
<path d="M35.8108 35.85C32.4577 30.0047 26.2046 26.0625 18.9999 26.0625C11.7952 26.0625 5.54209 30.0047 2.18896 35.85L2.23428 37.3906H35.7655L35.8108 35.85Z" fill="white"/>
<path d="M42.173 42.4393C45.7121 38.9003 45.7121 33.1622 42.173 29.6232C38.6339 26.0841 32.8959 26.0841 29.3568 29.6232C25.8177 33.1622 25.8177 38.9003 29.3568 42.4393C32.8959 45.9784 38.6339 45.9784 42.173 42.4393Z" fill="#73ABFF"/>
<path d="M38.8921 37.3906H32.5483C31.778 37.3906 31.189 36.8016 31.189 36.0312C31.189 35.2609 31.778 34.6719 32.5483 34.6719H38.8921C39.6624 34.6719 40.2515 35.2609 40.2515 36.0312C40.2515 36.8016 39.6624 37.3906 38.8921 37.3906Z" fill="white"/>
<path d="M25.7063 28.6453C25.5703 28.6453 25.3891 28.6 25.2531 28.5547C23.2594 27.8297 21.175 27.4219 19 27.4219C18.2297 27.4219 17.6406 26.8328 17.6406 26.0625C17.6406 25.2922 18.2297 24.7031 19 24.7031C21.4922 24.7031 23.8938 25.1563 26.2047 25.9719C26.9297 26.2438 27.2469 27.0141 27.0203 27.7391C26.7937 28.2828 26.25 28.6453 25.7063 28.6453Z" fill="#3970D9"/>
<path d="M2.18902 37.2094C1.96246 37.2094 1.73589 37.1641 1.50933 37.0281C0.874956 36.6656 0.648393 35.85 1.01089 35.1703C4.68121 28.7359 11.5687 24.7031 19 24.7031C19.7703 24.7031 20.3593 25.2922 20.3593 26.0625C20.3593 26.8328 19.7703 27.4219 19 27.4219C12.5656 27.4219 6.58433 30.9109 3.36714 36.5297C3.14058 36.9375 2.68746 37.2094 2.18902 37.2094Z" fill="#3970D9"/>
<path d="M19 19.7188C24.0051 19.7188 28.0625 15.6613 28.0625 10.6562C28.0625 5.65117 24.0051 1.59375 19 1.59375C13.9949 1.59375 9.9375 5.65117 9.9375 10.6562C9.9375 15.6613 13.9949 19.7188 19 19.7188Z" fill="white"/>
<path d="M19 21.0781C13.2453 21.0781 8.57812 16.4109 8.57812 10.6562C8.57812 4.90156 13.2453 0.234375 19 0.234375C24.7547 0.234375 29.4219 4.90156 29.4219 10.6562C29.4219 16.4109 24.7547 21.0781 19 21.0781ZM19 2.95312C14.7406 2.95312 11.2969 6.39688 11.2969 10.6562C11.2969 14.9156 14.7406 18.3594 19 18.3594C23.2594 18.3594 26.7031 14.9156 26.7031 10.6562C26.7031 6.39688 23.2594 2.95312 19 2.95312Z" fill="#3970D9"/>
<path d="M35.7202 40.5625C34.9499 40.5625 34.3608 39.9734 34.3608 39.2031V32.8594C34.3608 32.0891 34.9499 31.5 35.7202 31.5C36.4905 31.5 37.0796 32.0891 37.0796 32.8594V39.2031C37.0796 39.9734 36.4905 40.5625 35.7202 40.5625Z" fill="white"/>
</svg>
