<svg width="20" height="20" viewBox="0 0 20 20" fill="none" xmlns="http://www.w3.org/2000/svg">
<path d="M18.3334 14.1684C18.333 15.308 17.9434 16.4133 17.2292 17.3014C16.515 18.1894 15.5189 18.8069 14.4059 19.0517L13.8742 17.4567C14.3611 17.3765 14.8241 17.1893 15.2299 16.9086C15.6356 16.6279 15.9741 16.2606 16.2209 15.8334H14.1667C13.7247 15.8334 13.3007 15.6578 12.9882 15.3452C12.6756 15.0326 12.5 14.6087 12.5 14.1667V10.8334C12.5 10.3913 12.6756 9.9674 12.9882 9.65484C13.3007 9.34228 13.7247 9.16669 14.1667 9.16669H16.615C16.4117 7.55577 15.6275 6.07441 14.4095 5.00058C13.1916 3.92675 11.6237 3.33425 10 3.33425C8.37632 3.33425 6.80841 3.92675 5.5905 5.00058C4.37259 6.07441 3.58838 7.55577 3.38502 9.16669H5.83335C6.27538 9.16669 6.6993 9.34228 7.01187 9.65484C7.32443 9.9674 7.50002 10.3913 7.50002 10.8334V14.1667C7.50002 14.6087 7.32443 15.0326 7.01187 15.3452C6.6993 15.6578 6.27538 15.8334 5.83335 15.8334H3.33335C2.89133 15.8334 2.4674 15.6578 2.15484 15.3452C1.84228 15.0326 1.66669 14.6087 1.66669 14.1667V10C1.66669 5.39752 5.39752 1.66669 10 1.66669C14.6025 1.66669 18.3334 5.39752 18.3334 10V14.1684Z" fill="white"/>
</svg>
