<svg width="16" height="16" viewBox="0 0 16 16" fill="none" xmlns="http://www.w3.org/2000/svg">
<path d="M14 5.33343C14.3536 5.33343 14.6928 5.47391 14.9428 5.72395C15.1929 5.974 15.3333 6.31314 15.3333 6.66676V9.33343C15.3333 9.68705 15.1929 10.0262 14.9428 10.2762C14.6928 10.5263 14.3536 10.6668 14 10.6668H13.292C13.1295 11.9556 12.5022 13.1409 11.5278 14.0001C10.5535 14.8593 9.29908 15.3334 8 15.3334V14.0001C9.06087 14.0001 10.0783 13.5787 10.8284 12.8285C11.5786 12.0784 12 11.061 12 10.0001V6.0001C12 4.93923 11.5786 3.92182 10.8284 3.17167C10.0783 2.42152 9.06087 2.0001 8 2.0001C6.93914 2.0001 5.92172 2.42152 5.17158 3.17167C4.42143 3.92182 4.00001 4.93923 4 6.0001V10.6668H2.00001C1.64638 10.6668 1.30724 10.5263 1.0572 10.2762C0.807148 10.0262 0.666672 9.68705 0.666672 9.33343V6.66676C0.666672 6.31314 0.807148 5.974 1.0572 5.72395C1.30724 5.47391 1.64638 5.33343 2.00001 5.33343H2.708C2.87069 4.04469 3.49806 2.85961 4.47239 2.00055C5.44672 1.14148 6.70104 0.66748 8 0.66748C9.29897 0.66748 10.5533 1.14148 11.5276 2.00055C12.502 2.85961 13.1293 4.04469 13.292 5.33343H14ZM5.17334 10.5234L5.88 9.39276C6.51539 9.79079 7.25025 10.0013 8 10.0001C8.74976 10.0013 9.48462 9.79079 10.12 9.39276L10.8267 10.5234C9.97951 11.0542 8.9997 11.335 8 11.3334C7.00031 11.335 6.0205 11.0542 5.17334 10.5234Z" fill="#5893FF"/>
</svg>
