<svg width="28" height="28" viewBox="0 0 28 28" fill="none" xmlns="http://www.w3.org/2000/svg">
<path d="M14 28C21.732 28 28 21.732 28 14C28 6.26801 21.732 0 14 0C6.26801 0 0 6.26801 0 14C0 21.732 6.26801 28 14 28Z" fill="#64B2CB"/>
<path d="M14 27.5C21.4558 27.5 27.5 21.4558 27.5 14C27.5 6.54416 21.4558 0.5 14 0.5C6.54416 0.5 0.5 6.54416 0.5 14C0.5 21.4558 6.54416 27.5 14 27.5Z" stroke="black" stroke-opacity="0.05"/>
<path d="M15.9642 14.7778L13.1672 17.5748L13.0297 17.7123L13.1672 17.8498L13.992 18.6747L14.1295 18.8122L14.267 18.6747L18.8042 14.1375L18.9417 14L18.8042 13.8625L14.267 9.32535L14.1295 9.18785L13.992 9.32535L13.1672 10.1502L13.0297 10.2877L13.1672 10.4252L15.9642 13.2222H9.33333H9.13889V13.4167V14.5833V14.7778H9.33333H15.9642Z" fill="white" stroke="white" stroke-width="0.5"/>
</svg>
