<svg width="146" height="37" viewBox="0 0 146 37" fill="none" xmlns="http://www.w3.org/2000/svg">
<path d="M0.724573 11C0.63124 11 0.556573 10.972 0.500573 10.916C0.444573 10.8507 0.416573 10.7713 0.416573 10.678V1.536C0.416573 1.43333 0.444573 1.354 0.500573 1.298C0.556573 1.23267 0.63124 1.2 0.724573 1.2H3.88857C5.2979 1.2 6.31524 1.51733 6.94057 2.152C7.5659 2.77733 7.8879 3.72467 7.90657 4.994C7.9159 5.26467 7.92057 5.62867 7.92057 6.086C7.92057 6.54333 7.9159 6.912 7.90657 7.192C7.8879 8.07867 7.74324 8.802 7.47257 9.362C7.21124 9.91267 6.7959 10.3233 6.22657 10.594C5.65724 10.8647 4.90124 11 3.95857 11H0.724573ZM3.88857 9.838C4.5419 9.838 5.0599 9.74933 5.44257 9.572C5.83457 9.38533 6.11457 9.10067 6.28257 8.718C6.4599 8.326 6.5579 7.79867 6.57657 7.136C6.59524 6.576 6.60457 6.226 6.60457 6.086C6.60457 5.93667 6.59524 5.59133 6.57657 5.05C6.5579 4.11667 6.3339 3.43533 5.90457 3.006C5.48457 2.56733 4.78924 2.348 3.81857 2.348H1.73257V9.838H3.88857ZM10.1952 11C10.1019 11 10.0226 10.972 9.95724 10.916C9.90124 10.8507 9.87324 10.7713 9.87324 10.678V4.056C9.87324 3.96267 9.90124 3.88333 9.95724 3.818C10.0226 3.75267 10.1019 3.72 10.1952 3.72H10.7832C10.8859 3.72 10.9652 3.75267 11.0212 3.818C11.0866 3.874 11.1192 3.95333 11.1192 4.056V4.672C11.5019 4.03733 12.1506 3.72 13.0652 3.72H13.6112C13.7139 3.72 13.7932 3.748 13.8492 3.804C13.9052 3.86 13.9332 3.93933 13.9332 4.042V4.56C13.9332 4.65333 13.9052 4.73267 13.8492 4.798C13.7932 4.854 13.7139 4.882 13.6112 4.882H12.8132C12.2999 4.882 11.8939 5.03133 11.5952 5.33C11.3059 5.62867 11.1612 6.03467 11.1612 6.548V10.678C11.1612 10.7713 11.1286 10.8507 11.0632 10.916C10.9979 10.972 10.9186 11 10.8252 11H10.1952ZM17.0435 11.14C16.5862 11.14 16.1615 11.0467 15.7695 10.86C15.3869 10.6733 15.0789 10.4213 14.8455 10.104C14.6215 9.77733 14.5095 9.418 14.5095 9.026C14.5095 8.41 14.7615 7.906 15.2655 7.514C15.7695 7.122 16.4555 6.86067 17.3235 6.73L19.4235 6.436V6.03C19.4235 5.06867 18.8682 4.588 17.7575 4.588C17.3282 4.588 16.9829 4.67667 16.7215 4.854C16.4602 5.022 16.2689 5.22267 16.1475 5.456C16.1102 5.54933 16.0682 5.61467 16.0215 5.652C15.9842 5.68 15.9282 5.694 15.8535 5.694H15.3075C15.2235 5.694 15.1489 5.666 15.0835 5.61C15.0275 5.54467 14.9995 5.47 14.9995 5.386C14.9995 5.17133 15.0975 4.924 15.2935 4.644C15.4989 4.35467 15.8115 4.10733 16.2315 3.902C16.6515 3.68733 17.1649 3.58 17.7715 3.58C18.8169 3.58 19.5635 3.82267 20.0115 4.308C20.4689 4.79333 20.6975 5.4 20.6975 6.128V10.678C20.6975 10.7713 20.6649 10.8507 20.5995 10.916C20.5435 10.972 20.4689 11 20.3755 11H19.7595C19.6662 11 19.5915 10.972 19.5355 10.916C19.4795 10.8507 19.4515 10.7713 19.4515 10.678V10.062C19.2462 10.37 18.9475 10.6267 18.5555 10.832C18.1635 11.0373 17.6595 11.14 17.0435 11.14ZM17.3235 10.118C17.9395 10.118 18.4435 9.91733 18.8355 9.516C19.2275 9.11467 19.4235 8.53133 19.4235 7.766V7.374L17.7855 7.612C17.1135 7.70533 16.6049 7.864 16.2595 8.088C15.9142 8.312 15.7415 8.592 15.7415 8.928C15.7415 9.31067 15.8955 9.60467 16.2035 9.81C16.5209 10.0153 16.8942 10.118 17.3235 10.118ZM25.6788 14.08C24.9041 14.08 24.2835 13.9493 23.8168 13.688C23.3501 13.4267 23.0188 13.128 22.8228 12.792C22.6361 12.456 22.5428 12.1667 22.5428 11.924C22.5428 11.84 22.5755 11.7653 22.6408 11.7C22.7061 11.644 22.7808 11.616 22.8648 11.616H23.4808C23.5648 11.616 23.6348 11.6347 23.6908 11.672C23.7468 11.7187 23.7935 11.798 23.8308 11.91C24.0921 12.6567 24.6848 13.03 25.6088 13.03C26.3088 13.03 26.8268 12.8807 27.1628 12.582C27.4988 12.2833 27.6668 11.756 27.6668 11V10.034C27.1255 10.7247 26.3695 11.07 25.3988 11.07C24.4095 11.07 23.6675 10.7527 23.1728 10.118C22.6875 9.48333 22.4308 8.68067 22.4028 7.71L22.3888 7.318L22.4028 6.94C22.4308 5.97867 22.6875 5.18067 23.1728 4.546C23.6675 3.902 24.4095 3.58 25.3988 3.58C26.3788 3.58 27.1441 3.93933 27.6948 4.658V4.056C27.6948 3.96267 27.7228 3.88333 27.7788 3.818C27.8441 3.75267 27.9235 3.72 28.0168 3.72H28.6188C28.7121 3.72 28.7868 3.75267 28.8428 3.818C28.9081 3.88333 28.9408 3.96267 28.9408 4.056V10.846C28.9408 13.002 27.8535 14.08 25.6788 14.08ZM25.6508 9.978C26.3041 9.978 26.7941 9.768 27.1208 9.348C27.4568 8.91867 27.6388 8.40533 27.6668 7.808C27.6761 7.724 27.6808 7.56067 27.6808 7.318C27.6808 7.08467 27.6761 6.926 27.6668 6.842C27.6388 6.24467 27.4568 5.736 27.1208 5.316C26.7941 4.88667 26.3041 4.672 25.6508 4.672C24.9788 4.672 24.4888 4.88667 24.1808 5.316C23.8821 5.736 23.7188 6.282 23.6908 6.954L23.6768 7.318L23.6908 7.696C23.7188 8.368 23.8821 8.91867 24.1808 9.348C24.4888 9.768 24.9788 9.978 25.6508 9.978ZM36.5123 11.14C36.055 11.14 35.6303 11.0467 35.2383 10.86C34.8556 10.6733 34.5476 10.4213 34.3143 10.104C34.0903 9.77733 33.9783 9.418 33.9783 9.026C33.9783 8.41 34.2303 7.906 34.7343 7.514C35.2383 7.122 35.9243 6.86067 36.7923 6.73L38.8923 6.436V6.03C38.8923 5.06867 38.337 4.588 37.2263 4.588C36.797 4.588 36.4516 4.67667 36.1903 4.854C35.929 5.022 35.7376 5.22267 35.6163 5.456C35.579 5.54933 35.537 5.61467 35.4903 5.652C35.453 5.68 35.397 5.694 35.3223 5.694H34.7763C34.6923 5.694 34.6176 5.666 34.5523 5.61C34.4963 5.54467 34.4683 5.47 34.4683 5.386C34.4683 5.17133 34.5663 4.924 34.7623 4.644C34.9676 4.35467 35.2803 4.10733 35.7003 3.902C36.1203 3.68733 36.6336 3.58 37.2403 3.58C38.2856 3.58 39.0323 3.82267 39.4803 4.308C39.9376 4.79333 40.1663 5.4 40.1663 6.128V10.678C40.1663 10.7713 40.1336 10.8507 40.0683 10.916C40.0123 10.972 39.9376 11 39.8443 11H39.2283C39.135 11 39.0603 10.972 39.0043 10.916C38.9483 10.8507 38.9203 10.7713 38.9203 10.678V10.062C38.715 10.37 38.4163 10.6267 38.0243 10.832C37.6323 11.0373 37.1283 11.14 36.5123 11.14ZM36.7923 10.118C37.4083 10.118 37.9123 9.91733 38.3043 9.516C38.6963 9.11467 38.8923 8.53133 38.8923 7.766V7.374L37.2543 7.612C36.5823 7.70533 36.0736 7.864 35.7283 8.088C35.383 8.312 35.2103 8.592 35.2103 8.928C35.2103 9.31067 35.3643 9.60467 35.6723 9.81C35.9896 10.0153 36.363 10.118 36.7923 10.118ZM42.5156 11C42.4222 11 42.3429 10.972 42.2776 10.916C42.2216 10.8507 42.1936 10.7713 42.1936 10.678V4.042C42.1936 3.94867 42.2216 3.874 42.2776 3.818C42.3429 3.75267 42.4222 3.72 42.5156 3.72H43.1176C43.2202 3.72 43.2996 3.748 43.3556 3.804C43.4116 3.86 43.4396 3.93933 43.4396 4.042V4.658C43.7196 4.31267 44.0416 4.04667 44.4056 3.86C44.7789 3.67333 45.2409 3.58 45.7916 3.58C46.6876 3.58 47.3829 3.86933 47.8776 4.448C48.3722 5.01733 48.6196 5.77333 48.6196 6.716V10.678C48.6196 10.7713 48.5869 10.8507 48.5216 10.916C48.4656 10.972 48.3909 11 48.2976 11H47.6536C47.5602 11 47.4809 10.972 47.4156 10.916C47.3596 10.8507 47.3316 10.7713 47.3316 10.678V6.8C47.3316 6.128 47.1682 5.60533 46.8416 5.232C46.5149 4.85867 46.0482 4.672 45.4416 4.672C44.8442 4.672 44.3682 4.86333 44.0136 5.246C43.6589 5.61933 43.4816 6.13733 43.4816 6.8V10.678C43.4816 10.7713 43.4489 10.8507 43.3836 10.916C43.3276 10.972 43.2529 11 43.1596 11H42.5156ZM53.3028 11.14C52.3228 11.14 51.5854 10.8227 51.0908 10.188C50.6054 9.55333 50.3441 8.75067 50.3068 7.78L50.2928 7.36L50.3068 6.94C50.3441 5.97867 50.6101 5.18067 51.1048 4.546C51.5994 3.902 52.3321 3.58 53.3028 3.58C54.2734 3.58 55.0294 3.92533 55.5708 4.616V1.382C55.5708 1.28867 55.5988 1.214 55.6548 1.158C55.7201 1.09267 55.7994 1.06 55.8928 1.06H56.5228C56.6161 1.06 56.6908 1.09267 56.7468 1.158C56.8121 1.214 56.8448 1.28867 56.8448 1.382V10.678C56.8448 10.7713 56.8121 10.8507 56.7468 10.916C56.6908 10.972 56.6161 11 56.5228 11H55.9208C55.8274 11 55.7528 10.972 55.6968 10.916C55.6408 10.8507 55.6128 10.7713 55.6128 10.678V10.076C55.0808 10.7853 54.3108 11.14 53.3028 11.14ZM53.5688 10.048C54.2221 10.048 54.7121 9.83333 55.0388 9.404C55.3654 8.96533 55.5428 8.44733 55.5708 7.85C55.5801 7.74733 55.5848 7.57 55.5848 7.318C55.5848 7.05667 55.5801 6.87467 55.5708 6.772C55.5521 6.20267 55.3701 5.71267 55.0248 5.302C54.6888 4.882 54.2034 4.672 53.5688 4.672C52.8968 4.672 52.4068 4.882 52.0988 5.302C51.7908 5.722 51.6228 6.27267 51.5948 6.954L51.5808 7.36C51.5808 9.152 52.2434 10.048 53.5688 10.048ZM65.0606 11.14C64.0806 11.14 63.3433 10.8227 62.8486 10.188C62.3633 9.55333 62.1019 8.75067 62.0646 7.78L62.0506 7.36L62.0646 6.94C62.1019 5.97867 62.3679 5.18067 62.8626 4.546C63.3573 3.902 64.0899 3.58 65.0606 3.58C66.0313 3.58 66.7873 3.92533 67.3286 4.616V1.382C67.3286 1.28867 67.3566 1.214 67.4126 1.158C67.4779 1.09267 67.5573 1.06 67.6506 1.06H68.2806C68.3739 1.06 68.4486 1.09267 68.5046 1.158C68.5699 1.214 68.6026 1.28867 68.6026 1.382V10.678C68.6026 10.7713 68.5699 10.8507 68.5046 10.916C68.4486 10.972 68.3739 11 68.2806 11H67.6786C67.5853 11 67.5106 10.972 67.4546 10.916C67.3986 10.8507 67.3706 10.7713 67.3706 10.678V10.076C66.8386 10.7853 66.0686 11.14 65.0606 11.14ZM65.3266 10.048C65.9799 10.048 66.4699 9.83333 66.7966 9.404C67.1233 8.96533 67.3006 8.44733 67.3286 7.85C67.3379 7.74733 67.3426 7.57 67.3426 7.318C67.3426 7.05667 67.3379 6.87467 67.3286 6.772C67.3099 6.20267 67.1279 5.71267 66.7826 5.302C66.4466 4.882 65.9613 4.672 65.3266 4.672C64.6546 4.672 64.1646 4.882 63.8566 5.302C63.5486 5.722 63.3806 6.27267 63.3526 6.954L63.3386 7.36C63.3386 9.152 64.0013 10.048 65.3266 10.048ZM71.0351 11C70.9418 11 70.8624 10.972 70.7971 10.916C70.7411 10.8507 70.7131 10.7713 70.7131 10.678V4.056C70.7131 3.96267 70.7411 3.88333 70.7971 3.818C70.8624 3.75267 70.9418 3.72 71.0351 3.72H71.6231C71.7258 3.72 71.8051 3.75267 71.8611 3.818C71.9264 3.874 71.9591 3.95333 71.9591 4.056V4.672C72.3418 4.03733 72.9904 3.72 73.9051 3.72H74.4511C74.5538 3.72 74.6331 3.748 74.6891 3.804C74.7451 3.86 74.7731 3.93933 74.7731 4.042V4.56C74.7731 4.65333 74.7451 4.73267 74.6891 4.798C74.6331 4.854 74.5538 4.882 74.4511 4.882H73.6531C73.1398 4.882 72.7338 5.03133 72.4351 5.33C72.1458 5.62867 72.0011 6.03467 72.0011 6.548V10.678C72.0011 10.7713 71.9684 10.8507 71.9031 10.916C71.8378 10.972 71.7584 11 71.6651 11H71.0351ZM78.794 11.14C77.7674 11.14 76.974 10.8507 76.414 10.272C75.8634 9.69333 75.5694 8.92333 75.532 7.962L75.518 7.36L75.532 6.758C75.5694 5.79667 75.868 5.02667 76.428 4.448C76.9974 3.86933 77.786 3.58 78.794 3.58C79.802 3.58 80.586 3.86933 81.146 4.448C81.7154 5.02667 82.0187 5.79667 82.056 6.758C82.0747 6.96333 82.084 7.164 82.084 7.36C82.084 7.556 82.0747 7.75667 82.056 7.962C82.0187 8.92333 81.72 9.69333 81.16 10.272C80.6094 10.8507 79.8207 11.14 78.794 11.14ZM78.794 10.09C79.3914 10.09 79.8627 9.90333 80.208 9.53C80.5627 9.14733 80.754 8.60133 80.782 7.892C80.7914 7.79867 80.796 7.62133 80.796 7.36C80.796 7.09867 80.7914 6.92133 80.782 6.828C80.754 6.11867 80.5627 5.57733 80.208 5.204C79.8627 4.82133 79.3914 4.63 78.794 4.63C78.1967 4.63 77.7207 4.82133 77.366 5.204C77.0207 5.57733 76.834 6.11867 76.806 6.828L76.792 7.36L76.806 7.892C76.834 8.60133 77.0207 9.14733 77.366 9.53C77.7207 9.90333 78.1967 10.09 78.794 10.09ZM84.1878 13.66C84.0944 13.66 84.0151 13.632 83.9498 13.576C83.8938 13.52 83.8658 13.4407 83.8658 13.338V4.042C83.8658 3.93933 83.8938 3.86 83.9498 3.804C84.0151 3.748 84.0944 3.72 84.1878 3.72H84.7758C84.8784 3.72 84.9578 3.748 85.0138 3.804C85.0698 3.86 85.0978 3.93933 85.0978 4.042V4.658C85.6391 3.93933 86.4091 3.58 87.4078 3.58C88.3878 3.58 89.1204 3.89267 89.6058 4.518C90.1004 5.134 90.3618 5.92267 90.3898 6.884C90.3991 6.98667 90.4038 7.14533 90.4038 7.36C90.4038 7.57467 90.3991 7.73333 90.3898 7.836C90.3618 8.788 90.1004 9.57667 89.6058 10.202C89.1204 10.8273 88.3878 11.14 87.4078 11.14C86.4091 11.14 85.6531 10.7853 85.1398 10.076V13.338C85.1398 13.4313 85.1071 13.506 85.0418 13.562C84.9858 13.6273 84.9111 13.66 84.8178 13.66H84.1878ZM87.1418 10.048C87.8138 10.048 88.3038 9.838 88.6118 9.418C88.9198 8.998 89.0878 8.44733 89.1158 7.766C89.1251 7.67267 89.1298 7.53733 89.1298 7.36C89.1298 5.568 88.4671 4.672 87.1418 4.672C86.4884 4.672 85.9938 4.89133 85.6578 5.33C85.3311 5.75933 85.1584 6.268 85.1398 6.856C85.1304 6.95867 85.1258 7.14067 85.1258 7.402C85.1258 7.66333 85.1304 7.84533 85.1398 7.948C85.1584 8.51733 85.3358 9.012 85.6718 9.432C86.0171 9.84267 86.5071 10.048 87.1418 10.048ZM96.3998 11C96.3065 11 96.2271 10.972 96.1618 10.916C96.1058 10.8507 96.0778 10.7713 96.0778 10.678V4.798H94.8738C94.7805 4.798 94.7011 4.77 94.6358 4.714C94.5798 4.658 94.5518 4.58333 94.5518 4.49V4.042C94.5518 3.94867 94.5798 3.874 94.6358 3.818C94.7011 3.75267 94.7805 3.72 94.8738 3.72H96.0778V3.02C96.0778 2.264 96.2598 1.68067 96.6238 1.27C96.9971 0.849999 97.6038 0.639999 98.4438 0.639999H100.544C100.637 0.639999 100.712 0.672665 100.768 0.737998C100.824 0.793998 100.852 0.868665 100.852 0.961999V1.41C100.852 1.50333 100.824 1.578 100.768 1.634C100.712 1.69 100.637 1.718 100.544 1.718H98.4718C98.0425 1.718 97.7438 1.83 97.5758 2.054C97.4078 2.278 97.3238 2.62333 97.3238 3.09V3.72H100.544C100.637 3.72 100.712 3.75267 100.768 3.818C100.824 3.874 100.852 3.94867 100.852 4.042V10.678C100.852 10.7713 100.824 10.8507 100.768 10.916C100.712 10.972 100.637 11 100.544 11H99.9278C99.8345 11 99.7551 10.972 99.6898 10.916C99.6338 10.8507 99.6058 10.7713 99.6058 10.678V4.798H97.3238V10.678C97.3238 10.7713 97.2911 10.8507 97.2258 10.916C97.1698 10.972 97.0951 11 97.0018 11H96.3998ZM103.287 11C103.194 11 103.115 10.972 103.049 10.916C102.993 10.8507 102.965 10.7713 102.965 10.678V1.382C102.965 1.27933 102.993 1.2 103.049 1.144C103.115 1.088 103.194 1.06 103.287 1.06H103.903C103.997 1.06 104.071 1.09267 104.127 1.158C104.193 1.214 104.225 1.28867 104.225 1.382V10.678C104.225 10.7713 104.193 10.8507 104.127 10.916C104.071 10.972 103.997 11 103.903 11H103.287ZM109.212 11.14C108.26 11.14 107.5 10.846 106.93 10.258C106.361 9.66067 106.048 8.84867 105.992 7.822L105.978 7.346L105.992 6.884C106.048 5.876 106.361 5.07333 106.93 4.476C107.5 3.87867 108.26 3.58 109.212 3.58C110.239 3.58 111.032 3.90667 111.592 4.56C112.162 5.21333 112.446 6.1 112.446 7.22V7.472C112.446 7.56533 112.414 7.64467 112.348 7.71C112.292 7.766 112.218 7.794 112.124 7.794H107.266V7.92C107.294 8.52667 107.481 9.04467 107.826 9.474C108.172 9.90333 108.629 10.118 109.198 10.118C109.637 10.118 109.992 10.034 110.262 9.866C110.542 9.68867 110.752 9.50667 110.892 9.32C110.976 9.208 111.042 9.14267 111.088 9.124C111.135 9.096 111.214 9.082 111.326 9.082H111.942C112.026 9.082 112.096 9.10533 112.152 9.152C112.218 9.19867 112.25 9.25933 112.25 9.334C112.25 9.53933 112.124 9.78667 111.872 10.076C111.62 10.3653 111.261 10.6173 110.794 10.832C110.337 11.0373 109.81 11.14 109.212 11.14ZM111.172 6.842V6.8C111.172 6.14667 110.995 5.61467 110.64 5.204C110.286 4.79333 109.81 4.588 109.212 4.588C108.606 4.588 108.13 4.79333 107.784 5.204C107.439 5.61467 107.266 6.14667 107.266 6.8V6.842H111.172ZM117.93 11C117.837 11 117.757 10.972 117.692 10.916C117.636 10.8507 117.608 10.7713 117.608 10.678V1.382C117.608 1.27933 117.636 1.2 117.692 1.144C117.757 1.088 117.837 1.06 117.93 1.06H118.574C118.677 1.06 118.756 1.088 118.812 1.144C118.868 1.2 118.896 1.27933 118.896 1.382V4.644C119.167 4.29867 119.484 4.03733 119.848 3.86C120.221 3.67333 120.679 3.58 121.22 3.58C122.116 3.58 122.811 3.86933 123.306 4.448C123.81 5.01733 124.062 5.77333 124.062 6.716V10.678C124.062 10.7713 124.029 10.8507 123.964 10.916C123.908 10.972 123.833 11 123.74 11H123.082C122.989 11 122.909 10.972 122.844 10.916C122.788 10.8507 122.76 10.7713 122.76 10.678V6.8C122.76 6.128 122.597 5.60533 122.27 5.232C121.943 4.85867 121.472 4.672 120.856 4.672C120.259 4.672 119.783 4.86333 119.428 5.246C119.073 5.61933 118.896 6.13733 118.896 6.8V10.678C118.896 10.7713 118.863 10.8507 118.798 10.916C118.742 10.972 118.667 11 118.574 11H117.93ZM128.982 11.14C128.03 11.14 127.269 10.846 126.7 10.258C126.131 9.66067 125.818 8.84867 125.762 7.822L125.748 7.346L125.762 6.884C125.818 5.876 126.131 5.07333 126.7 4.476C127.269 3.87867 128.03 3.58 128.982 3.58C130.009 3.58 130.802 3.90667 131.362 4.56C131.931 5.21333 132.216 6.1 132.216 7.22V7.472C132.216 7.56533 132.183 7.64467 132.118 7.71C132.062 7.766 131.987 7.794 131.894 7.794H127.036V7.92C127.064 8.52667 127.251 9.04467 127.596 9.474C127.941 9.90333 128.399 10.118 128.968 10.118C129.407 10.118 129.761 10.034 130.032 9.866C130.312 9.68867 130.522 9.50667 130.662 9.32C130.746 9.208 130.811 9.14267 130.858 9.124C130.905 9.096 130.984 9.082 131.096 9.082H131.712C131.796 9.082 131.866 9.10533 131.922 9.152C131.987 9.19867 132.02 9.25933 132.02 9.334C132.02 9.53933 131.894 9.78667 131.642 10.076C131.39 10.3653 131.031 10.6173 130.564 10.832C130.107 11.0373 129.579 11.14 128.982 11.14ZM130.942 6.842V6.8C130.942 6.14667 130.765 5.61467 130.41 5.204C130.055 4.79333 129.579 4.588 128.982 4.588C128.375 4.588 127.899 4.79333 127.554 5.204C127.209 5.61467 127.036 6.14667 127.036 6.8V6.842H130.942ZM134.24 11C134.147 11 134.067 10.972 134.002 10.916C133.946 10.8507 133.918 10.7713 133.918 10.678V4.056C133.918 3.96267 133.946 3.88333 134.002 3.818C134.067 3.75267 134.147 3.72 134.24 3.72H134.828C134.931 3.72 135.01 3.75267 135.066 3.818C135.131 3.874 135.164 3.95333 135.164 4.056V4.672C135.547 4.03733 136.195 3.72 137.11 3.72H137.656C137.759 3.72 137.838 3.748 137.894 3.804C137.95 3.86 137.978 3.93933 137.978 4.042V4.56C137.978 4.65333 137.95 4.73267 137.894 4.798C137.838 4.854 137.759 4.882 137.656 4.882H136.858C136.345 4.882 135.939 5.03133 135.64 5.33C135.351 5.62867 135.206 6.03467 135.206 6.548V10.678C135.206 10.7713 135.173 10.8507 135.108 10.916C135.043 10.972 134.963 11 134.87 11H134.24ZM141.929 11.14C140.977 11.14 140.216 10.846 139.647 10.258C139.078 9.66067 138.765 8.84867 138.709 7.822L138.695 7.346L138.709 6.884C138.765 5.876 139.078 5.07333 139.647 4.476C140.216 3.87867 140.977 3.58 141.929 3.58C142.956 3.58 143.749 3.90667 144.309 4.56C144.878 5.21333 145.163 6.1 145.163 7.22V7.472C145.163 7.56533 145.13 7.64467 145.065 7.71C145.009 7.766 144.934 7.794 144.841 7.794H139.983V7.92C140.011 8.52667 140.198 9.04467 140.543 9.474C140.888 9.90333 141.346 10.118 141.915 10.118C142.354 10.118 142.708 10.034 142.979 9.866C143.259 9.68867 143.469 9.50667 143.609 9.32C143.693 9.208 143.758 9.14267 143.805 9.124C143.852 9.096 143.931 9.082 144.043 9.082H144.659C144.743 9.082 144.813 9.10533 144.869 9.152C144.934 9.19867 144.967 9.25933 144.967 9.334C144.967 9.53933 144.841 9.78667 144.589 10.076C144.337 10.3653 143.978 10.6173 143.511 10.832C143.054 11.0373 142.526 11.14 141.929 11.14ZM143.889 6.842V6.8C143.889 6.14667 143.712 5.61467 143.357 5.204C143.002 4.79333 142.526 4.588 141.929 4.588C141.322 4.588 140.846 4.79333 140.501 5.204C140.156 5.61467 139.983 6.14667 139.983 6.8V6.842H143.889Z" fill="#7B89A6"/>
<path d="M48.7512 36C48.6579 36 48.5786 35.9673 48.5132 35.902C48.4479 35.8367 48.4152 35.7573 48.4152 35.664V26.55C48.4152 26.4473 48.4432 26.3633 48.4992 26.298C48.5646 26.2327 48.6486 26.2 48.7512 26.2H52.8112C53.9032 26.2 54.7199 26.4427 55.2612 26.928C55.8026 27.404 56.0732 28.0573 56.0732 28.888C56.0732 29.3733 55.9519 29.7887 55.7092 30.134C55.4759 30.47 55.2006 30.7127 54.8832 30.862C55.2752 31.0393 55.6066 31.3287 55.8772 31.73C56.1479 32.1313 56.2832 32.5887 56.2832 33.102C56.2832 33.97 55.9892 34.67 55.4012 35.202C54.8132 35.734 53.9919 36 52.9372 36H48.7512ZM52.5592 30.218C53.0352 30.218 53.3992 30.1013 53.6512 29.868C53.9126 29.6347 54.0432 29.322 54.0432 28.93C54.0432 28.538 53.9172 28.2347 53.6652 28.02C53.4132 27.8053 53.0446 27.698 52.5592 27.698H50.3892V30.218H52.5592ZM52.6992 34.502C53.1846 34.502 53.5626 34.3713 53.8332 34.11C54.1039 33.8393 54.2392 33.4987 54.2392 33.088C54.2392 32.6773 54.0992 32.3413 53.8192 32.08C53.5486 31.8093 53.1752 31.674 52.6992 31.674H50.3892V34.502H52.6992ZM58.1946 36C58.1012 36 58.0219 35.9673 57.9566 35.902C57.8912 35.8367 57.8586 35.7573 57.8586 35.664V29.07C57.8586 28.9673 57.8912 28.8833 57.9566 28.818C58.0219 28.7527 58.1012 28.72 58.1946 28.72H59.3426C59.4452 28.72 59.5292 28.7527 59.5946 28.818C59.6599 28.8833 59.6926 28.9673 59.6926 29.07V29.644C60.1592 29.028 60.8312 28.72 61.7086 28.72H62.2966C62.3992 28.72 62.4786 28.7527 62.5346 28.818C62.5999 28.874 62.6326 28.9533 62.6326 29.056V30.078C62.6326 30.1713 62.5999 30.2507 62.5346 30.316C62.4786 30.3813 62.3992 30.414 62.2966 30.414H61.1906C60.7519 30.414 60.4066 30.54 60.1546 30.792C59.9026 31.044 59.7766 31.3893 59.7766 31.828V35.664C59.7766 35.7573 59.7439 35.8367 59.6786 35.902C59.6132 35.9673 59.5339 36 59.4406 36H58.1946ZM66.8621 36.14C65.7608 36.14 64.9114 35.86 64.3141 35.3C63.7168 34.74 63.3948 33.9653 63.3481 32.976L63.3341 32.36L63.3481 31.744C63.3948 30.764 63.7214 29.994 64.3281 29.434C64.9348 28.8647 65.7794 28.58 66.8621 28.58C67.9354 28.58 68.7754 28.8647 69.3821 29.434C69.9888 29.994 70.3154 30.764 70.3621 31.744C70.3714 31.856 70.3761 32.0613 70.3761 32.36C70.3761 32.6587 70.3714 32.864 70.3621 32.976C70.3154 33.9653 69.9934 34.74 69.3961 35.3C68.7988 35.86 67.9541 36.14 66.8621 36.14ZM66.8621 34.726C67.3568 34.726 67.7348 34.572 67.9961 34.264C68.2668 33.956 68.4114 33.5033 68.4301 32.906C68.4394 32.8127 68.4441 32.6307 68.4441 32.36C68.4441 32.0893 68.4394 31.9073 68.4301 31.814C68.4114 31.2167 68.2668 30.764 67.9961 30.456C67.7254 30.1387 67.3474 29.98 66.8621 29.98C66.3674 29.98 65.9848 30.1387 65.7141 30.456C65.4434 30.764 65.2988 31.2167 65.2801 31.814L65.2661 32.36L65.2801 32.906C65.2988 33.5033 65.4434 33.956 65.7141 34.264C65.9848 34.572 66.3674 34.726 66.8621 34.726ZM73.7099 36C73.4765 36 73.3225 35.8833 73.2479 35.65L71.2459 29.154C71.2365 29.126 71.2319 29.084 71.2319 29.028C71.2319 28.944 71.2599 28.874 71.3159 28.818C71.3719 28.7527 71.4419 28.72 71.5259 28.72H72.5899C72.6832 28.72 72.7625 28.748 72.8279 28.804C72.9025 28.86 72.9492 28.9207 72.9679 28.986L74.3259 33.592L75.7679 29.028C75.7959 28.944 75.8425 28.874 75.9079 28.818C75.9825 28.7527 76.0759 28.72 76.1879 28.72H76.9019C77.0139 28.72 77.1025 28.7527 77.1679 28.818C77.2425 28.874 77.2892 28.944 77.3079 29.028L78.7639 33.592L80.1219 28.986C80.1405 28.9207 80.1825 28.86 80.2479 28.804C80.3132 28.748 80.3972 28.72 80.4999 28.72H81.5499C81.6339 28.72 81.7039 28.7527 81.7599 28.818C81.8252 28.874 81.8579 28.944 81.8579 29.028L81.8299 29.154L79.8279 35.65C79.7905 35.762 79.7345 35.8507 79.6599 35.916C79.5945 35.972 79.5012 36 79.3799 36H78.4559C78.2132 36 78.0592 35.8833 77.9939 35.65L76.5519 31.254L75.0959 35.65C75.0212 35.8833 74.8625 36 74.6199 36H73.7099ZM85.8142 36.14C85.1048 36.14 84.5122 36.0327 84.0362 35.818C83.5602 35.6033 83.2055 35.356 82.9722 35.076C82.7482 34.7867 82.6362 34.5393 82.6362 34.334C82.6362 34.2407 82.6642 34.166 82.7202 34.11C82.7855 34.054 82.8602 34.026 82.9442 34.026H84.0922C84.1668 34.026 84.2322 34.0633 84.2882 34.138C84.3348 34.1753 84.4375 34.264 84.5962 34.404C84.7642 34.544 84.9508 34.656 85.1562 34.74C85.3708 34.8147 85.6042 34.852 85.8562 34.852C86.2295 34.852 86.5328 34.782 86.7662 34.642C86.9995 34.4927 87.1162 34.2827 87.1162 34.012C87.1162 33.8253 87.0602 33.676 86.9482 33.564C86.8455 33.4427 86.6542 33.3353 86.3742 33.242C86.1035 33.1393 85.6928 33.0273 85.1422 32.906C84.3488 32.738 83.7608 32.4813 83.3782 32.136C83.0048 31.7907 82.8182 31.3333 82.8182 30.764C82.8182 30.3907 82.9302 30.0407 83.1542 29.714C83.3782 29.378 83.7095 29.1073 84.1482 28.902C84.5962 28.6873 85.1282 28.58 85.7442 28.58C86.3788 28.58 86.9248 28.6827 87.3822 28.888C87.8395 29.084 88.1848 29.322 88.4182 29.602C88.6608 29.882 88.7822 30.1293 88.7822 30.344C88.7822 30.428 88.7495 30.5027 88.6842 30.568C88.6282 30.624 88.5582 30.652 88.4742 30.652H87.4242C87.3215 30.652 87.2422 30.6147 87.1862 30.54C87.1208 30.4933 87.0135 30.4093 86.8642 30.288C86.7242 30.1573 86.5655 30.0547 86.3882 29.98C86.2108 29.9053 85.9962 29.868 85.7442 29.868C85.3988 29.868 85.1328 29.9427 84.9462 30.092C84.7595 30.2413 84.6662 30.4373 84.6662 30.68C84.6662 30.848 84.7082 30.988 84.7922 31.1C84.8855 31.212 85.0675 31.3193 85.3382 31.422C85.6088 31.5153 86.0148 31.6133 86.5562 31.716C88.2362 32.0427 89.0762 32.7753 89.0762 33.914C89.0762 34.5767 88.7868 35.1133 88.2082 35.524C87.6388 35.9347 86.8408 36.14 85.8142 36.14ZM93.657 36.14C92.6117 36.14 91.781 35.8413 91.165 35.244C90.5583 34.6467 90.2363 33.7973 90.199 32.696L90.185 32.346C90.185 31.1793 90.4883 30.26 91.095 29.588C91.711 28.916 92.5603 28.58 93.643 28.58C94.7537 28.58 95.6077 28.916 96.205 29.588C96.8117 30.26 97.115 31.156 97.115 32.276V32.57C97.115 32.6633 97.0823 32.7427 97.017 32.808C96.9517 32.8733 96.8677 32.906 96.765 32.906H92.117V33.018C92.1357 33.5407 92.2757 33.9747 92.537 34.32C92.8077 34.656 93.1763 34.824 93.643 34.824C94.175 34.824 94.609 34.6093 94.945 34.18C95.029 34.0773 95.0943 34.0167 95.141 33.998C95.1877 33.97 95.267 33.956 95.379 33.956H96.611C96.695 33.956 96.765 33.9793 96.821 34.026C96.8863 34.0727 96.919 34.138 96.919 34.222C96.919 34.446 96.7837 34.712 96.513 35.02C96.2517 35.3187 95.8737 35.58 95.379 35.804C94.8843 36.028 94.3103 36.14 93.657 36.14ZM95.183 31.716V31.688C95.183 31.1373 95.043 30.6987 94.763 30.372C94.4923 30.036 94.119 29.868 93.643 29.868C93.167 29.868 92.7937 30.036 92.523 30.372C92.2523 30.6987 92.117 31.1373 92.117 31.688V31.716H95.183Z" fill="#6672E8"/>
</svg>
