<svg width="212" height="187" viewBox="0 0 212 187" fill="none" xmlns="http://www.w3.org/2000/svg">
<g filter="url(#filter0_d)">
<path d="M198 0H14C9.58172 0 6 3.58172 6 8V165C6 169.418 9.58172 173 14 173H198C202.418 173 206 169.418 206 165V8C206 3.58172 202.418 0 198 0Z" fill="#4F8AF4"/>
</g>
<g filter="url(#filter1_d)">
<path d="M160 71H52C48.6863 71 46 73.6863 46 77V141C46 144.314 48.6863 147 52 147H160C163.314 147 166 144.314 166 141V77C166 73.6863 163.314 71 160 71Z" fill="white"/>
</g>
<path d="M39.299 33H44.4126V32.0625H40.3558V24.2727H39.299V33ZM48.657 33.1364C49.9865 33.1364 50.9581 32.4716 51.2649 31.483L50.2933 31.2102C50.0376 31.892 49.4453 32.233 48.657 32.233C47.4766 32.233 46.6626 31.4702 46.6158 30.0682H51.3672V29.642C51.3672 27.2045 49.9183 26.3693 48.5547 26.3693C46.782 26.3693 45.6058 27.767 45.6058 29.7784C45.6058 31.7898 46.7649 33.1364 48.657 33.1364ZM46.6158 29.1989C46.6839 28.1804 47.4041 27.2727 48.5547 27.2727C49.6456 27.2727 50.3445 28.0909 50.3445 29.1989H46.6158ZM54.8232 33.1534C55.9652 33.1534 56.5618 32.5398 56.7663 32.1136H56.8175V33H57.8232V28.6875C57.8232 26.608 56.2379 26.3693 55.4027 26.3693C54.4141 26.3693 53.2891 26.7102 52.7777 27.9034L53.7322 28.2443C53.9538 27.767 54.478 27.2557 55.4368 27.2557C56.3615 27.2557 56.8175 27.7457 56.8175 28.5852V28.6193C56.8175 29.1051 56.3232 29.0625 55.13 29.2159C53.9155 29.3736 52.5902 29.642 52.5902 31.142C52.5902 32.4205 53.5788 33.1534 54.8232 33.1534ZM54.9766 32.25C54.1754 32.25 53.5959 31.892 53.5959 31.1932C53.5959 30.4261 54.2947 30.1875 55.0788 30.0852C55.505 30.0341 56.647 29.9148 56.8175 29.7102V30.6307C56.8175 31.4489 56.1697 32.25 54.9766 32.25ZM59.6587 33H60.6644V28.858C60.6644 27.9716 61.3633 27.3239 62.3178 27.3239C62.5863 27.3239 62.8633 27.375 62.9315 27.392V26.3693C62.8164 26.3608 62.5522 26.3523 62.4031 26.3523C61.619 26.3523 60.9371 26.7955 60.6985 27.4432H60.6303V26.4545H59.6587V33ZM65.1293 29.0625C65.1293 27.9205 65.8366 27.2727 66.7997 27.2727C67.733 27.2727 68.2997 27.8821 68.2997 28.9091V33H69.3054V28.8409C69.3054 27.1705 68.4148 26.3693 67.0895 26.3693C66.1009 26.3693 65.4872 26.8125 65.1804 27.4773H65.0952V26.4545H64.1236V33H65.1293V29.0625ZM75.5238 29.0625C75.5238 27.9205 76.2525 27.2727 77.2454 27.2727C78.1914 27.2727 78.7624 27.8693 78.7624 28.9091V33H79.7681V28.8409C79.7681 27.1577 78.8732 26.3693 77.5352 26.3693C76.5039 26.3693 75.9158 26.7997 75.609 27.4773H75.5238V24.2727H74.5181V33H75.5238V29.0625ZM84.267 33.1364C86.0398 33.1364 87.233 31.7898 87.233 29.7614C87.233 27.7159 86.0398 26.3693 84.267 26.3693C82.4943 26.3693 81.3011 27.7159 81.3011 29.7614C81.3011 31.7898 82.4943 33.1364 84.267 33.1364ZM84.267 32.233C82.9205 32.233 82.3068 31.0739 82.3068 29.7614C82.3068 28.4489 82.9205 27.2727 84.267 27.2727C85.6136 27.2727 86.2273 28.4489 86.2273 29.7614C86.2273 31.0739 85.6136 32.233 84.267 32.233ZM90.0284 33H91.017L92.4489 27.9716H92.5511L93.983 33H94.9716L96.9659 26.4545H95.9091L94.4943 31.4489H94.4261L93.0455 26.4545H91.9716L90.5739 31.4659H90.5057L89.0909 26.4545H88.0341L90.0284 33ZM104.517 26.4545H103.119V24.8864H102.114V26.4545H101.125V27.3068H102.114V31.3977C102.114 32.5398 103.034 33.0852 103.886 33.0852C104.261 33.0852 104.5 33.017 104.636 32.9659L104.432 32.0625C104.347 32.0795 104.21 32.1136 103.989 32.1136C103.545 32.1136 103.119 31.9773 103.119 31.125V27.3068H104.517V26.4545ZM108.619 33.1364C110.391 33.1364 111.585 31.7898 111.585 29.7614C111.585 27.7159 110.391 26.3693 108.619 26.3693C106.846 26.3693 105.653 27.7159 105.653 29.7614C105.653 31.7898 106.846 33.1364 108.619 33.1364ZM108.619 32.233C107.272 32.233 106.658 31.0739 106.658 29.7614C106.658 28.4489 107.272 27.2727 108.619 27.2727C109.965 27.2727 110.579 28.4489 110.579 29.7614C110.579 31.0739 109.965 32.233 108.619 32.233ZM120.62 30.3239C120.62 31.5511 119.682 32.1136 118.932 32.1136C118.097 32.1136 117.5 31.5 117.5 30.5455V26.4545H116.495V30.6136C116.495 32.2841 117.381 33.0852 118.608 33.0852C119.597 33.0852 120.245 32.5568 120.551 31.892H120.62V33H121.625V26.4545H120.62V30.3239ZM128.104 27.9205C127.788 26.9915 127.081 26.3693 125.786 26.3693C124.405 26.3693 123.382 27.1534 123.382 28.2614C123.382 29.1648 123.919 29.7699 125.121 30.0511L126.212 30.3068C126.872 30.4602 127.183 30.7756 127.183 31.2273C127.183 31.7898 126.587 32.25 125.649 32.25C124.827 32.25 124.311 31.8963 124.132 31.1932L123.178 31.4318C123.412 32.544 124.328 33.1364 125.666 33.1364C127.188 33.1364 128.223 32.3054 128.223 31.1761C128.223 30.2642 127.652 29.6889 126.484 29.4034L125.513 29.1648C124.737 28.973 124.388 28.7131 124.388 28.2102C124.388 27.6477 124.984 27.2386 125.786 27.2386C126.663 27.2386 127.026 27.7244 127.2 28.1761L128.104 27.9205ZM132.481 33.1364C133.811 33.1364 134.782 32.4716 135.089 31.483L134.118 31.2102C133.862 31.892 133.27 32.233 132.481 32.233C131.301 32.233 130.487 31.4702 130.44 30.0682H135.191V29.642C135.191 27.2045 133.743 26.3693 132.379 26.3693C130.606 26.3693 129.43 27.767 129.43 29.7784C129.43 31.7898 130.589 33.1364 132.481 33.1364ZM130.44 29.1989C130.508 28.1804 131.228 27.2727 132.379 27.2727C133.47 27.2727 134.169 28.0909 134.169 29.1989H130.44ZM140.037 33H145.747V31.6747H141.618V29.2926H145.419V27.9673H141.618V25.598H145.713V24.2727H140.037V33ZM147.257 33H148.8V29.0199C148.8 28.2145 149.337 27.669 150.002 27.669C150.654 27.669 151.101 28.108 151.101 28.7812V33H152.614V28.9176C152.614 28.1804 153.053 27.669 153.799 27.669C154.421 27.669 154.915 28.0355 154.915 28.8452V33H156.462V28.6065C156.462 27.1449 155.618 26.3693 154.417 26.3693C153.466 26.3693 152.742 26.8381 152.452 27.5668H152.384C152.132 26.8253 151.498 26.3693 150.615 26.3693C149.738 26.3693 149.081 26.821 148.809 27.5668H148.732V26.4545H147.257V33ZM159.911 33.1321C160.938 33.1321 161.551 32.6506 161.832 32.1009H161.884V33H163.366V28.6193C163.366 26.8892 161.956 26.3693 160.707 26.3693C159.331 26.3693 158.274 26.983 157.933 28.1761L159.374 28.3807C159.527 27.9332 159.962 27.5497 160.716 27.5497C161.432 27.5497 161.824 27.9162 161.824 28.5597V28.5852C161.824 29.0284 161.359 29.0497 160.205 29.1733C158.935 29.3097 157.72 29.6889 157.72 31.1634C157.72 32.4503 158.662 33.1321 159.911 33.1321ZM160.311 31.9986C159.668 31.9986 159.207 31.7045 159.207 31.1378C159.207 30.5455 159.723 30.2983 160.413 30.2003C160.818 30.1449 161.628 30.0426 161.828 29.8807V30.652C161.828 31.3807 161.24 31.9986 160.311 31.9986ZM164.918 33H166.46V26.4545H164.918V33ZM165.693 25.5256C166.183 25.5256 166.584 25.1506 166.584 24.6903C166.584 24.2259 166.183 23.8509 165.693 23.8509C165.199 23.8509 164.798 24.2259 164.798 24.6903C164.798 25.1506 165.199 25.5256 165.693 25.5256ZM169.589 24.2727H168.047V33H169.589V24.2727ZM67.188 50H68.1937V43.4545H67.188V50ZM67.6994 42.3636C68.0914 42.3636 68.4153 42.0568 68.4153 41.6818C68.4153 41.3068 68.0914 41 67.6994 41C67.3074 41 66.9835 41.3068 66.9835 41.6818C66.9835 42.0568 67.3074 42.3636 67.6994 42.3636ZM71.0414 46.0625C71.0414 44.9205 71.7488 44.2727 72.7118 44.2727C73.6451 44.2727 74.2118 44.8821 74.2118 45.9091V50H75.2175V45.8409C75.2175 44.1705 74.3269 43.3693 73.0016 43.3693C72.013 43.3693 71.3993 43.8125 71.0925 44.4773H71.0073V43.4545H70.0357V50H71.0414V46.0625ZM83.3109 50.1193C85.0751 50.1406 86.2257 48.8111 86.2257 47.1875C86.2257 45.5 84.9771 44.2898 83.4814 44.2898C82.5822 44.2898 81.8109 44.7287 81.3336 45.4489H81.2654C81.2697 43.3054 82.0964 42.0739 83.4473 42.0739C84.3677 42.0739 84.9217 42.6534 85.1177 43.4545H86.1575C85.9444 42.0824 84.9132 41.1364 83.4473 41.1364C81.4828 41.1364 80.2768 42.875 80.2768 45.9773C80.2768 49.2031 81.8791 50.1023 83.3109 50.1193ZM83.3109 49.1818C82.2157 49.1818 81.4146 48.2486 81.4189 47.2045C81.4231 46.1605 82.2626 45.2273 83.345 45.2273C84.4146 45.2273 85.2029 46.1051 85.2029 47.1875C85.2029 48.2955 84.3805 49.1818 83.3109 49.1818ZM90.748 50.1193C92.6742 50.1193 93.7821 48.4872 93.7821 45.6364C93.7821 42.8068 92.6571 41.1534 90.748 41.1534C88.839 41.1534 87.714 42.8068 87.714 45.6364C87.714 48.4872 88.8219 50.1193 90.748 50.1193ZM90.748 49.1818C89.4782 49.1818 88.7367 47.9077 88.7367 45.6364C88.7367 43.3693 89.4867 42.0739 90.748 42.0739C92.0094 42.0739 92.7594 43.3693 92.7594 45.6364C92.7594 47.9077 92.0179 49.1818 90.748 49.1818ZM103.43 44.9205C103.115 43.9915 102.407 43.3693 101.112 43.3693C99.731 43.3693 98.7083 44.1534 98.7083 45.2614C98.7083 46.1648 99.2452 46.7699 100.447 47.0511L101.538 47.3068C102.198 47.4602 102.509 47.7756 102.509 48.2273C102.509 48.7898 101.913 49.25 100.975 49.25C100.153 49.25 99.6373 48.8963 99.4583 48.1932L98.5037 48.4318C98.7381 49.544 99.6543 50.1364 100.992 50.1364C102.514 50.1364 103.549 49.3054 103.549 48.1761C103.549 47.2642 102.978 46.6889 101.811 46.4034L100.839 46.1648C100.063 45.973 99.714 45.7131 99.714 45.2102C99.714 44.6477 100.311 44.2386 101.112 44.2386C101.99 44.2386 102.352 44.7244 102.526 45.1761L103.43 44.9205ZM107.807 50.1364C109.137 50.1364 110.108 49.4716 110.415 48.483L109.444 48.2102C109.188 48.892 108.596 49.233 107.807 49.233C106.627 49.233 105.813 48.4702 105.766 47.0682H110.518V46.642C110.518 44.2045 109.069 43.3693 107.705 43.3693C105.932 43.3693 104.756 44.767 104.756 46.7784C104.756 48.7898 105.915 50.1364 107.807 50.1364ZM105.766 46.1989C105.834 45.1804 106.555 44.2727 107.705 44.2727C108.796 44.2727 109.495 45.0909 109.495 46.1989H105.766ZM114.706 50.1364C116.155 50.1364 117.11 49.25 117.28 48.0909H116.275C116.087 48.8068 115.491 49.233 114.706 49.233C113.513 49.233 112.746 48.2443 112.746 46.7273C112.746 45.2443 113.53 44.2727 114.706 44.2727C115.593 44.2727 116.121 44.8182 116.275 45.4148H117.28C117.11 44.1875 116.07 43.3693 114.689 43.3693C112.917 43.3693 111.741 44.767 111.741 46.7614C111.741 48.7216 112.866 50.1364 114.706 50.1364ZM121.41 50.1364C123.182 50.1364 124.376 48.7898 124.376 46.7614C124.376 44.7159 123.182 43.3693 121.41 43.3693C119.637 43.3693 118.444 44.7159 118.444 46.7614C118.444 48.7898 119.637 50.1364 121.41 50.1364ZM121.41 49.233C120.063 49.233 119.449 48.0739 119.449 46.7614C119.449 45.4489 120.063 44.2727 121.41 44.2727C122.756 44.2727 123.37 45.4489 123.37 46.7614C123.37 48.0739 122.756 49.233 121.41 49.233ZM126.916 46.0625C126.916 44.9205 127.624 44.2727 128.587 44.2727C129.52 44.2727 130.087 44.8821 130.087 45.9091V50H131.093V45.8409C131.093 44.1705 130.202 43.3693 128.877 43.3693C127.888 43.3693 127.274 43.8125 126.968 44.4773H126.882V43.4545H125.911V50H126.916V46.0625ZM135.402 50.1364C136.663 50.1364 137.089 49.3523 137.311 48.9943H137.43V50H138.402V41.2727H137.396V44.4943H137.311C137.089 44.1534 136.697 43.3693 135.419 43.3693C133.765 43.3693 132.623 44.6818 132.623 46.7443C132.623 48.8239 133.765 50.1364 135.402 50.1364ZM135.538 49.233C134.277 49.233 133.629 48.125 133.629 46.7273C133.629 45.3466 134.26 44.2727 135.538 44.2727C136.765 44.2727 137.413 45.2614 137.413 46.7273C137.413 48.2102 136.748 49.233 135.538 49.233ZM145.02 44.9205C144.704 43.9915 143.997 43.3693 142.702 43.3693C141.321 43.3693 140.298 44.1534 140.298 45.2614C140.298 46.1648 140.835 46.7699 142.037 47.0511L143.128 47.3068C143.788 47.4602 144.099 47.7756 144.099 48.2273C144.099 48.7898 143.503 49.25 142.565 49.25C141.743 49.25 141.227 48.8963 141.048 48.1932L140.094 48.4318C140.328 49.544 141.244 50.1364 142.582 50.1364C144.104 50.1364 145.139 49.3054 145.139 48.1761C145.139 47.2642 144.568 46.6889 143.4 46.4034L142.429 46.1648C141.653 45.973 141.304 45.7131 141.304 45.2102C141.304 44.6477 141.9 44.2386 142.702 44.2386C143.579 44.2386 143.942 44.7244 144.116 45.1761L145.02 44.9205Z" fill="white"/>
<g filter="url(#filter2_d)">
<path d="M106 125C97.1632 125 90 117.837 90 109C90 100.163 97.1632 92.9999 106 92.9999C114.837 92.9999 122 100.163 122 109C122 117.837 114.837 125 106 125Z" fill="#73ABFF"/>
<g filter="url(#filter3_d)">
<path d="M103.559 104.001C103.656 104.005 103.749 104.036 103.829 104.09H103.828L110.335 108.426C110.408 108.474 110.468 108.54 110.509 108.618C110.551 108.695 110.573 108.782 110.573 108.87C110.573 108.957 110.551 109.044 110.509 109.121C110.468 109.199 110.408 109.265 110.335 109.314L103.829 113.65C103.749 113.703 103.656 113.734 103.559 113.739C103.463 113.743 103.367 113.722 103.282 113.676C103.197 113.631 103.126 113.563 103.076 113.481C103.027 113.398 103 113.303 103 113.207V104.532C103 104.436 103.027 104.341 103.076 104.259C103.126 104.176 103.197 104.108 103.282 104.063C103.367 104.017 103.463 103.996 103.559 104.001Z" fill="white"/>
</g>
</g>
<g opacity="0.5">
<path opacity="0.5" d="M191.293 12.1145C191.683 12.5051 192.316 12.5051 192.707 12.1145L195.535 9.28582C195.861 8.96043 196.388 8.96043 196.714 9.28582C197.039 9.61121 197.039 10.1388 196.714 10.4642L193.885 13.2929C193.495 13.6834 193.495 14.3166 193.885 14.7071L196.714 17.5358C197.039 17.8612 197.039 18.3888 196.714 18.7142C196.388 19.0395 195.861 19.0395 195.535 18.7142L192.707 15.8854C192.316 15.4949 191.683 15.4949 191.293 15.8854L188.464 18.7142C188.138 19.0395 187.611 19.0395 187.285 18.7142C186.96 18.3888 186.96 17.8612 187.285 17.5358L190.114 14.7071C190.505 14.3166 190.505 13.6834 190.114 13.2929L187.285 10.4642C186.96 10.1388 186.96 9.61121 187.285 9.28582C187.611 8.96043 188.138 8.96043 188.464 9.28582L191.293 12.1145Z" fill="white"/>
</g>
<path d="M166 84H46V85H166V84Z" fill="#EFF3FC"/>
<path d="M54.5 79C55.3284 79 56 78.3284 56 77.5C56 76.6716 55.3284 76 54.5 76C53.6716 76 53 76.6716 53 77.5C53 78.3284 53.6716 79 54.5 79Z" fill="#EB5757"/>
<path d="M60.5 79C61.3284 79 62 78.3284 62 77.5C62 76.6716 61.3284 76 60.5 76C59.6716 76 59 76.6716 59 77.5C59 78.3284 59.6716 79 60.5 79Z" fill="#F2C94C"/>
<path d="M66.5 79C67.3284 79 68 78.3284 68 77.5C68 76.6716 67.3284 76 66.5 76C65.6716 76 65 76.6716 65 77.5C65 78.3284 65.6716 79 66.5 79Z" fill="#6FCF97"/>
<defs>
<filter id="filter0_d" x="0" y="0" width="212" height="187" filterUnits="userSpaceOnUse" color-interpolation-filters="sRGB">
<feFlood flood-opacity="0" result="BackgroundImageFix"/>
<feColorMatrix in="SourceAlpha" type="matrix" values="0 0 0 0 0 0 0 0 0 0 0 0 0 0 0 0 0 0 127 0"/>
<feOffset dy="8"/>
<feGaussianBlur stdDeviation="3"/>
<feColorMatrix type="matrix" values="0 0 0 0 0 0 0 0 0 0.17 0 0 0 0 0.5 0 0 0 0.06 0"/>
<feBlend mode="normal" in2="BackgroundImageFix" result="effect1_dropShadow"/>
<feBlend mode="normal" in="SourceGraphic" in2="effect1_dropShadow" result="shape"/>
</filter>
<filter id="filter1_d" x="43" y="71" width="126" height="82" filterUnits="userSpaceOnUse" color-interpolation-filters="sRGB">
<feFlood flood-opacity="0" result="BackgroundImageFix"/>
<feColorMatrix in="SourceAlpha" type="matrix" values="0 0 0 0 0 0 0 0 0 0 0 0 0 0 0 0 0 0 127 0"/>
<feOffset dy="3"/>
<feGaussianBlur stdDeviation="1.5"/>
<feColorMatrix type="matrix" values="0 0 0 0 0 0 0 0 0 0.0368333 0 0 0 0 0.108333 0 0 0 0.1 0"/>
<feBlend mode="normal" in2="BackgroundImageFix" result="effect1_dropShadow"/>
<feBlend mode="normal" in="SourceGraphic" in2="effect1_dropShadow" result="shape"/>
</filter>
<filter id="filter2_d" x="89" y="92.9999" width="34" height="35.0001" filterUnits="userSpaceOnUse" color-interpolation-filters="sRGB">
<feFlood flood-opacity="0" result="BackgroundImageFix"/>
<feColorMatrix in="SourceAlpha" type="matrix" values="0 0 0 0 0 0 0 0 0 0 0 0 0 0 0 0 0 0 127 0"/>
<feOffset dy="2"/>
<feGaussianBlur stdDeviation="0.5"/>
<feColorMatrix type="matrix" values="0 0 0 0 0 0 0 0 0 0.14154 0 0 0 0 0.395833 0 0 0 0.05 0"/>
<feBlend mode="normal" in2="BackgroundImageFix" result="effect1_dropShadow"/>
<feBlend mode="normal" in="SourceGraphic" in2="effect1_dropShadow" result="shape"/>
</filter>
<filter id="filter3_d" x="102" y="104" width="9.573" height="11.7392" filterUnits="userSpaceOnUse" color-interpolation-filters="sRGB">
<feFlood flood-opacity="0" result="BackgroundImageFix"/>
<feColorMatrix in="SourceAlpha" type="matrix" values="0 0 0 0 0 0 0 0 0 0 0 0 0 0 0 0 0 0 127 0"/>
<feOffset dy="1"/>
<feGaussianBlur stdDeviation="0.5"/>
<feColorMatrix type="matrix" values="0 0 0 0 0 0 0 0 0 0.0311667 0 0 0 0 0.0916667 0 0 0 0.1 0"/>
<feBlend mode="normal" in2="BackgroundImageFix" result="effect1_dropShadow"/>
<feBlend mode="normal" in="SourceGraphic" in2="effect1_dropShadow" result="shape"/>
</filter>
</defs>
</svg>
