<svg width="58" height="58" viewBox="0 0 58 58" fill="none" xmlns="http://www.w3.org/2000/svg">
<g clip-path="url(#clip0)">
<path d="M10.875 47.5781H47.125C49.6172 47.5781 51.6562 45.5391 51.6562 43.0469V14.9531C51.6562 12.4609 49.6172 10.4219 47.125 10.4219H10.875C8.38281 10.4219 6.34375 12.4609 6.34375 14.9531V43.0469C6.34375 45.5391 8.38281 47.5781 10.875 47.5781Z" fill="white"/>
<path d="M47.125 48.9375H10.875C7.6125 48.9375 4.98438 46.3094 4.98438 43.0469V20.8438C4.98438 20.0734 5.57344 19.4844 6.34375 19.4844C7.11406 19.4844 7.70312 20.0734 7.70312 20.8438V43.0469C7.70312 44.8141 9.10781 46.2188 10.875 46.2188H47.125C48.8922 46.2188 50.2969 44.7687 50.2969 43.5V23.1094C50.2969 22.3391 50.8859 21.75 51.6562 21.75C52.4266 21.75 53.0156 22.3391 53.0156 23.1094V43.5C53.0156 46.4 50.2516 48.9375 47.125 48.9375Z" fill="#3C91CE"/>
<path d="M29 31.2657C22.5656 31.2657 16.5844 28.7282 12.1438 24.061C11.6453 23.5173 11.6453 22.6563 12.1891 22.1579C12.7328 21.6595 13.5938 21.6595 14.0922 22.2032C18.0344 26.2813 23.2906 28.547 28.9547 28.547C34.6188 28.547 39.9203 26.2813 43.8172 22.2032C44.3156 21.6595 45.1766 21.6595 45.7203 22.1579C46.2641 22.6563 46.2641 23.5173 45.7656 24.061C41.4156 28.7282 35.4344 31.2657 29 31.2657Z" fill="#3C91CE"/>
<path d="M6.34375 16.3125C5.57344 16.3125 4.98438 15.7234 4.98438 14.9531C4.98438 11.6906 7.6125 9.0625 10.875 9.0625H34.4375C35.2078 9.0625 35.7969 9.65156 35.7969 10.4219C35.7969 11.1922 35.2078 11.7812 34.4375 11.7812H10.875C9.10781 11.7812 7.70312 13.1859 7.70312 14.9531C7.70312 15.7234 7.11406 16.3125 6.34375 16.3125Z" fill="#3C91CE"/>
<path d="M54.4389 16.8305C57.978 13.2914 57.978 7.55336 54.4389 4.01427C50.8998 0.475176 45.1618 0.475176 41.6228 4.01427C38.0837 7.55336 38.0837 13.2914 41.6228 16.8305C45.1618 20.3696 50.8998 20.3696 54.4389 16.8305Z" fill="#8AD4EB"/>
<path d="M51.1578 11.7812H44.8141C44.0437 11.7812 43.4547 11.1922 43.4547 10.4219C43.4547 9.65156 44.0437 9.0625 44.8141 9.0625H51.1578C51.9281 9.0625 52.5172 9.65156 52.5172 10.4219C52.5172 11.1922 51.9281 11.7812 51.1578 11.7812Z" fill="white"/>
<path d="M47.9859 14.9531C47.2156 14.9531 46.6266 14.3641 46.6266 13.5938V7.25C46.6266 6.47969 47.2156 5.89062 47.9859 5.89062C48.7562 5.89062 49.3453 6.47969 49.3453 7.25V13.5938C49.3453 14.3641 48.7562 14.9531 47.9859 14.9531Z" fill="white"/>
</g>
<defs>
<clipPath id="clip0">
<rect width="58" height="58" fill="white"/>
</clipPath>
</defs>
</svg>
