<svg width="58" height="58" viewBox="0 0 58 58" fill="none" xmlns="http://www.w3.org/2000/svg">
<path d="M15.4062 11.7812C17.9088 11.7812 19.9375 9.75254 19.9375 7.25C19.9375 4.74746 17.9088 2.71875 15.4062 2.71875C12.9037 2.71875 10.875 4.74746 10.875 7.25C10.875 9.75254 12.9037 11.7812 15.4062 11.7812Z" fill="white"/>
<path d="M15.4062 43.5C17.9088 43.5 19.9375 41.4713 19.9375 38.9688C19.9375 36.4662 17.9088 34.4375 15.4062 34.4375C12.9037 34.4375 10.875 36.4662 10.875 38.9688C10.875 41.4713 12.9037 43.5 15.4062 43.5Z" fill="white"/>
<path d="M15.4062 43.5C17.9088 43.5 19.9375 41.4713 19.9375 38.9688C19.9375 36.4662 17.9088 34.4375 15.4062 34.4375C12.9037 34.4375 10.875 36.4662 10.875 38.9688C10.875 41.4713 12.9037 43.5 15.4062 43.5Z" fill="white"/>
<path d="M15.4062 13.1406C12.1438 13.1406 9.51562 10.5125 9.51562 7.25C9.51562 3.9875 12.1438 1.35938 15.4062 1.35938C18.6687 1.35938 21.2969 3.9875 21.2969 7.25C21.2969 10.5125 18.6687 13.1406 15.4062 13.1406ZM15.4062 4.07812C13.6391 4.07812 12.2344 5.48281 12.2344 7.25C12.2344 9.01719 13.6391 10.4219 15.4062 10.4219C17.1734 10.4219 18.5781 9.01719 18.5781 7.25C18.5781 5.48281 17.1734 4.07812 15.4062 4.07812Z" fill="#A8E0EE"/>
<path d="M42.5938 27.6406C45.0963 27.6406 47.125 25.6119 47.125 23.1094C47.125 20.6068 45.0963 18.5781 42.5938 18.5781C40.0912 18.5781 38.0625 20.6068 38.0625 23.1094C38.0625 25.6119 40.0912 27.6406 42.5938 27.6406Z" fill="white"/>
<path d="M42.5938 27.6406C45.0963 27.6406 47.125 25.6119 47.125 23.1094C47.125 20.6068 45.0963 18.5781 42.5938 18.5781C40.0912 18.5781 38.0625 20.6068 38.0625 23.1094C38.0625 25.6119 40.0912 27.6406 42.5938 27.6406Z" fill="white"/>
<path d="M42.5938 17.2188C40.9172 17.2188 39.4219 17.9438 38.3344 19.0313L27.7313 12.8688C27.0969 12.5063 26.2359 12.6875 25.8734 13.3672C25.5109 14.0016 25.6922 14.8625 26.3719 15.225L36.975 21.3875C36.7937 21.9313 36.7031 22.5203 36.7031 23.1094C36.7031 23.6984 36.7937 24.2875 36.975 24.8313L19.6656 34.8906C18.5781 33.7578 17.0828 33.0781 15.4062 33.0781C12.1438 33.0781 9.51562 35.7063 9.51562 38.9688C9.51562 42.2313 12.1438 44.8594 15.4062 44.8594C18.6687 44.8594 21.2969 42.2313 21.2969 38.9688C21.2969 38.3797 21.2063 37.7906 21.025 37.2469L38.3344 27.1875C39.4219 28.3203 40.9172 29 42.5938 29C45.8563 29 48.4844 26.3719 48.4844 23.1094C48.4844 19.8469 45.8563 17.2188 42.5938 17.2188ZM15.4062 42.1406C13.6391 42.1406 12.2344 40.7359 12.2344 38.9688C12.2344 37.2016 13.6391 35.7969 15.4062 35.7969C17.1734 35.7969 18.5781 37.2016 18.5781 38.9688C18.5781 40.7359 17.1734 42.1406 15.4062 42.1406ZM42.5938 26.2813C40.8266 26.2813 39.4219 24.8766 39.4219 23.1094C39.4219 21.3422 40.8266 19.9375 42.5938 19.9375C44.3609 19.9375 45.7656 21.3422 45.7656 23.1094C45.7656 24.8766 44.3609 26.2813 42.5938 26.2813Z" fill="#3C91CE"/>
<path d="M42.1406 57.5469H11.3281C10.5578 57.5469 9.96875 56.9578 9.96875 56.1875C9.96875 55.4172 10.5578 54.8281 11.3281 54.8281H42.1406C42.9109 54.8281 43.5 55.4172 43.5 56.1875C43.5 56.9578 42.9109 57.5469 42.1406 57.5469Z" fill="#A8E0EE"/>
<path d="M50.2969 57.5469C51.0476 57.5469 51.6562 56.9383 51.6562 56.1875C51.6562 55.4367 51.0476 54.8281 50.2969 54.8281C49.5461 54.8281 48.9375 55.4367 48.9375 56.1875C48.9375 56.9383 49.5461 57.5469 50.2969 57.5469Z" fill="#A8E0EE"/>
</svg>
