<svg width="112" height="112" viewBox="0 0 112 112" fill="none" xmlns="http://www.w3.org/2000/svg">
<circle opacity="0.07" cx="56" cy="56" r="56" fill="#5893FF"/>
<g clip-path="url(#clip0)">
<path opacity="0.5" d="M42 66.6375H35.875C35.1312 66.6375 34.5625 66.0687 34.5625 65.325C34.5625 64.5812 35.1312 64.0125 35.875 64.0125H42C42.7437 64.0125 43.3125 64.5812 43.3125 65.325C43.3125 66.0687 42.7437 66.6375 42 66.6375Z" fill="#5893FF"/>
<path opacity="0.5" d="M47.6875 66.6375C47.6 66.6375 47.5125 66.6375 47.425 66.5937C47.3375 66.5937 47.25 66.55 47.1625 66.5062C47.075 66.4625 47.0312 66.4187 46.9437 66.375C46.8562 66.3312 46.8125 66.2875 46.7688 66.2C46.5063 65.9375 46.375 65.6312 46.375 65.2812C46.375 65.1937 46.375 65.1063 46.4187 65.0188C46.4187 64.9313 46.4625 64.8437 46.5062 64.7562C46.55 64.6687 46.5937 64.625 46.6375 64.5375C46.6812 64.45 46.725 64.4063 46.8125 64.3625C46.9 64.3188 46.9438 64.2312 46.9875 64.1875C47.075 64.1437 47.1188 64.1 47.2063 64.0562C47.2938 64.0125 47.3813 64.0125 47.4688 63.9687C47.9062 63.8812 48.3438 64.0125 48.65 64.3187C48.6938 64.3625 48.7812 64.45 48.825 64.4937C48.8687 64.5812 48.9125 64.625 48.9563 64.7125C49 64.8 49 64.8875 49.0437 64.975C49.0437 65.0625 49.0875 65.15 49.0875 65.2375C49.0875 65.5875 48.9562 65.9375 48.6937 66.1562C48.3875 66.5062 48.0375 66.6375 47.6875 66.6375Z" fill="#5893FF"/>
<path d="M71.75 34.35V29.0125H79.1875C79.9313 29.0125 80.5 28.4437 80.5 27.7V22.45C80.5 21.7062 79.9313 21.1375 79.1875 21.1375H70.4375C69.6937 21.1375 69.125 21.7062 69.125 22.45V42.75C67.1125 43.3187 65.625 45.1562 65.625 47.3875C65.625 50.0562 67.7687 52.2 70.4375 52.2C73.1063 52.2 75.25 50.0562 75.25 47.3875C75.25 45.2 73.7625 43.3187 71.75 42.75V36.975C76.9125 37.6312 80.9375 42.05 80.9375 47.3875V69.2625H54.6875V47.3875C54.6875 43.1 52.6313 39.2937 49.4375 36.8875H64.75C65.4938 36.8875 66.0625 36.3187 66.0625 35.575C66.0625 34.8312 65.4938 34.2625 64.75 34.2625H41.5625C34.3438 34.2625 28.4375 40.1687 28.4375 47.3875V70.575C28.4375 71.3187 29.0062 71.8875 29.75 71.8875H82.25C82.9938 71.8875 83.5625 71.3187 83.5625 70.575V47.3875C83.5625 40.6062 78.3563 35.0062 71.75 34.35ZM72.625 47.3875C72.625 48.6125 71.6625 49.575 70.4375 49.575C69.2125 49.575 68.25 48.6125 68.25 47.3875C68.25 46.1625 69.2125 45.2 70.4375 45.2C71.6625 45.2 72.625 46.1625 72.625 47.3875ZM52.0625 69.2625H31.0625V47.3875C31.0625 41.6125 35.7875 36.8875 41.5625 36.8875C47.3375 36.8875 52.0625 41.6125 52.0625 47.3875V69.2625Z" fill="#5893FF"/>
<path d="M51.8 71.7999C51.8 71.0267 52.4269 70.3999 53.2 70.3999C53.9732 70.3999 54.6 71.0267 54.6 71.7999V87.8999C54.6 88.6731 53.9732 89.2999 53.2 89.2999C52.4269 89.2999 51.8 88.6731 51.8 87.8999V71.7999Z" fill="#5893FF"/>
</g>
<defs>
<clipPath id="clip0">
<rect x="28" y="20.7" width="56" height="68.6" fill="white"/>
</clipPath>
</defs>
</svg>
