<svg width="25" height="24" viewBox="0 0 25 24" fill="none" xmlns="http://www.w3.org/2000/svg">
<path d="M23.0911 12C23.0911 17.9299 18.2842 22.7368 12.3543 22.7368C6.42501 22.7368 1.61743 17.9299 1.61743 12C1.61743 6.07071 6.42501 1.26313 12.3543 1.26313C18.2842 1.26313 23.0911 6.07071 23.0911 12Z" fill="#FFCC4D"/>
<path d="M10.7482 11.2518C10.7104 11.1665 9.80151 9.16949 7.9333 9.16949C6.06572 9.16949 5.15625 11.1665 5.11835 11.2518C5.06025 11.3825 5.09814 11.5354 5.2093 11.6251C5.32109 11.7154 5.47898 11.7179 5.59456 11.6339C5.60277 11.6282 6.39162 11.0642 7.9333 11.0642C9.46551 11.0642 10.2537 11.6206 10.2714 11.6333C10.327 11.675 10.3939 11.6958 10.4596 11.6958C10.5291 11.6958 10.5992 11.6724 10.6567 11.627C10.7691 11.5373 10.8064 11.3832 10.7482 11.2518Z" fill="#664500"/>
<path d="M20.5648 9.80099C20.5648 12.0684 18.7269 13.9062 16.4595 13.9062C14.1921 13.9062 12.3542 12.0684 12.3542 9.80099C12.3542 7.53362 14.1921 5.69572 16.4595 5.69572C18.7269 5.69572 20.5648 7.53362 20.5648 9.80099Z" fill="#F5F8FA"/>
<path d="M18.0385 9.80094C18.0385 10.6731 17.3318 11.3799 16.4596 11.3799C15.5874 11.3799 14.8806 10.6731 14.8806 9.80094C14.8806 8.92872 15.5874 8.22199 16.4596 8.22199C17.3318 8.22199 18.0385 8.92872 18.0385 9.80094Z" fill="#292F33"/>
<path d="M5.40698 15.1693C5.40698 17.6729 8.30972 20.8535 12.3544 20.8535C16.399 20.8535 19.3017 17.6956 19.3017 15.1693C19.3017 15.1693 12.7756 16.9099 5.40698 15.1693Z" fill="#664500"/>
<path d="M8.5647 16.3574V20.1993C8.5647 22.094 9.82786 23.9888 12.3542 23.9888C14.8805 23.9888 16.1436 22.094 16.1436 20.1993V16.3833C12.1697 17.1993 8.5647 16.3574 8.5647 16.3574Z" fill="#E75A70"/>
</svg>
