<svg width="25" height="24" viewBox="0 0 25 24" fill="none" xmlns="http://www.w3.org/2000/svg">
<path d="M23.0911 12C23.0911 17.9299 18.2842 22.7368 12.3543 22.7368C6.42501 22.7368 1.61743 17.9299 1.61743 12C1.61743 6.07071 6.42501 1.26313 12.3543 1.26313C18.2842 1.26313 23.0911 6.07071 23.0911 12Z" fill="#FFCC4D"/>
<path d="M15.5121 17.6842C15.5121 19.7772 14.0986 21.4736 12.3542 21.4736C10.6098 21.4736 9.19629 19.7772 9.19629 17.6842C9.19629 15.5917 10.6098 13.8947 12.3542 13.8947C14.0986 13.8947 15.5121 15.5917 15.5121 17.6842Z" fill="#664500"/>
<path d="M4.77471 7.5791C4.64335 7.5791 4.51008 7.53805 4.3964 7.45279C4.11724 7.24373 4.06103 6.84773 4.27008 6.56858C6.33029 3.82121 9.08019 3.78963 9.1964 3.78963C9.54503 3.78963 9.82798 4.07258 9.82798 4.42121C9.82798 4.76921 9.54692 5.05152 9.19892 5.05279C9.10103 5.05405 6.94482 5.1071 5.28061 7.32647C5.15619 7.49194 4.96671 7.5791 4.77471 7.5791Z" fill="#664500"/>
<path d="M19.9339 7.5791C19.7413 7.5791 19.5518 7.49194 19.4281 7.32647C17.7607 5.10268 15.6001 5.05342 15.5085 5.05279C15.1611 5.049 14.8807 4.76479 14.8826 4.41805C14.8845 4.07005 15.1649 3.78963 15.5123 3.78963C15.6285 3.78963 18.3777 3.82121 20.4386 6.56858C20.6483 6.84773 20.5914 7.24373 20.3123 7.45279C20.1986 7.53805 20.0659 7.5791 19.9339 7.5791Z" fill="#664500"/>
<path d="M9.77366 10.4208L10.9061 9.2884C11.153 9.04145 11.153 8.64229 10.9061 8.39535C10.6591 8.1484 10.26 8.1484 10.013 8.39535L8.88061 9.52777L7.74818 8.39535C7.50124 8.1484 7.10208 8.1484 6.85513 8.39535C6.60819 8.64229 6.60819 9.04145 6.85513 9.2884L7.98755 10.4208L6.85513 11.5532C6.60819 11.8002 6.60819 12.1993 6.85513 12.4463C6.97829 12.5695 7.13997 12.6313 7.30166 12.6313C7.46334 12.6313 7.62503 12.5695 7.74818 12.4463L8.88061 11.3139L10.013 12.4463C10.1362 12.5695 10.2979 12.6313 10.4596 12.6313C10.6212 12.6313 10.7829 12.5695 10.9061 12.4463C11.153 12.1993 11.153 11.8002 10.9061 11.5532L9.77366 10.4208Z" fill="#664500"/>
<path d="M16.7212 10.4208L17.8536 9.2884C18.1005 9.04145 18.1005 8.64229 17.8536 8.39535C17.6066 8.1484 17.2069 8.1484 16.9605 8.39535L15.8281 9.52777L14.6957 8.39535C14.4487 8.1484 14.049 8.1484 13.8026 8.39535C13.5557 8.64229 13.5557 9.04145 13.8026 9.2884L14.9351 10.4208L13.8026 11.5532C13.5557 11.8002 13.5557 12.1993 13.8026 12.4463C13.9258 12.5695 14.0875 12.6313 14.2492 12.6313C14.4109 12.6313 14.5725 12.5695 14.6957 12.4463L15.8281 11.3139L16.9605 12.4463C17.0837 12.5695 17.2454 12.6313 17.4071 12.6313C17.5687 12.6313 17.7304 12.5695 17.8536 12.4463C18.1005 12.1993 18.1005 11.8002 17.8536 11.5532L16.7212 10.4208Z" fill="#664500"/>
</svg>
