<svg width="25" height="24" viewBox="0 0 25 24" fill="none" xmlns="http://www.w3.org/2000/svg">
<path d="M23.0911 12C23.0911 17.9299 18.2842 22.7368 12.3543 22.7368C6.42501 22.7368 1.61743 17.9299 1.61743 12C1.61743 6.07071 6.42501 1.26313 12.3543 1.26313C18.2842 1.26313 23.0911 6.07071 23.0911 12Z" fill="#FFCC4D"/>
<path d="M18.9587 11.8719C18.9214 11.7867 18.012 9.7896 16.1437 9.7896C14.2762 9.7896 13.3667 11.7867 13.3288 11.8719C13.2707 12.0027 13.3086 12.1555 13.4197 12.2452C13.5303 12.3349 13.6888 12.338 13.8056 12.254C13.8132 12.2483 14.6027 11.6843 16.1437 11.6843C17.676 11.6843 18.4642 12.2408 18.4819 12.2534C18.5374 12.2951 18.6044 12.3159 18.6701 12.3159C18.7395 12.3159 18.8096 12.2925 18.8671 12.2471C18.9789 12.1574 19.0174 12.0033 18.9587 11.8719Z" fill="#664500"/>
<path d="M11.3798 11.8719C11.3419 11.7867 10.4331 9.7896 8.56489 9.7896C6.69731 9.7896 5.78784 11.7867 5.74994 11.8719C5.69184 12.0027 5.72973 12.1555 5.84089 12.2452C5.95205 12.3349 6.11058 12.338 6.22615 12.254C6.23436 12.2483 7.02321 11.6843 8.56489 11.6843C10.0971 11.6843 10.8853 12.2408 10.903 12.2534C10.9586 12.2951 11.0255 12.3159 11.0912 12.3159C11.1607 12.3159 11.2308 12.2925 11.2883 12.2471C11.4007 12.1574 11.4379 12.0033 11.3798 11.8719Z" fill="#664500"/>
<path d="M12.3544 14.5265C10.0661 14.5265 8.54782 14.26 6.67014 13.8949C6.2413 13.8122 5.40698 13.8949 5.40698 15.1581C5.40698 17.6844 8.30909 20.8423 12.3544 20.8423C16.399 20.8423 19.3017 17.6844 19.3017 15.1581C19.3017 13.8949 18.4674 13.8115 18.0386 13.8949C16.1609 14.26 14.6426 14.5265 12.3544 14.5265Z" fill="#664500"/>
<path d="M6.67017 15.1578C6.67017 15.1578 8.5649 15.7893 12.3544 15.7893C16.1438 15.7893 18.0386 15.1578 18.0386 15.1578C18.0386 15.1578 16.7754 17.6841 12.3544 17.6841C7.93332 17.6841 6.67017 15.1578 6.67017 15.1578Z" fill="white"/>
<path d="M23.0912 7.57892C23.0912 9.32334 21.6777 10.7368 19.9333 10.7368C18.1889 10.7368 16.7754 9.32334 16.7754 7.57892C16.7754 5.8345 19.3017 1.26313 19.9333 1.26313C20.5649 1.26313 23.0912 5.8345 23.0912 7.57892Z" fill="#5DADEC"/>
</svg>
