<svg width="25" height="24" viewBox="0 0 25 24" fill="none" xmlns="http://www.w3.org/2000/svg">
<path d="M3.51219 10.6694C3.51219 10.6694 3.45346 12.1612 4.64398 12.6071C5.69682 13.0018 6.1023 12.2143 6.1023 12.2143C6.1023 12.2143 6.06503 13.4231 7.32819 13.8703C8.51872 14.2922 9.06503 13.2652 9.06503 13.2652C9.06503 13.2652 9.25893 14.4469 10.5126 14.7917C11.568 15.0816 12.3543 14.0547 12.3543 14.0547V21.765C12.3543 22.3707 12.6966 23.3919 13.9604 23.3926C15.2236 23.3932 15.5122 22.3442 15.5122 21.765V11.3439V8.81763C15.5122 8.18605 16.1438 8.18605 16.1438 8.81763V10.5014C16.1438 12.8964 17.4309 14.3812 17.8812 14.7911C18.3316 15.2023 18.9341 15.4101 19.6623 15.2553C20.8977 14.9932 20.6286 14.0427 20.2781 13.2355C19.4337 11.2915 18.8545 8.52205 18.6783 7.21152C18.1787 3.51237 15.0095 0.658894 11.1726 0.655735C6.98777 0.653208 3.51535 4.00121 3.51219 8.18605V10.6694Z" fill="#D99E82"/>
</svg>
