<svg width="25" height="24" viewBox="0 0 25 24" fill="none" xmlns="http://www.w3.org/2000/svg">
<path d="M23.0911 12C23.0911 17.9299 18.2842 22.7368 12.3543 22.7368C6.42501 22.7368 1.61743 17.9299 1.61743 12C1.61743 6.07071 6.42501 1.26313 12.3543 1.26313C18.2842 1.26313 23.0911 6.07071 23.0911 12Z" fill="#FFCC4D"/>
<path d="M16.7754 17.0527H7.93334C7.58471 17.0527 7.30176 16.7704 7.30176 16.4212C7.30176 16.0719 7.58471 15.7896 7.93334 15.7896H16.7754C17.1247 15.7896 17.407 16.0719 17.407 16.4212C17.407 16.7704 17.1247 17.0527 16.7754 17.0527Z" fill="#664500"/>
<path d="M10.4596 12H6.03856C5.68993 12 5.40698 11.7171 5.40698 11.3684C5.40698 11.0198 5.68993 10.7368 6.03856 10.7368H10.4596C10.8082 10.7368 11.0912 11.0198 11.0912 11.3684C11.0912 11.7171 10.8082 12 10.4596 12Z" fill="#664500"/>
<path d="M18.6701 12H14.249C13.8997 12 13.6174 11.7171 13.6174 11.3684C13.6174 11.0198 13.8997 10.7368 14.249 10.7368H18.6701C19.0193 10.7368 19.3016 11.0198 19.3016 11.3684C19.3016 11.7171 19.0193 12 18.6701 12Z" fill="#664500"/>
</svg>
