<svg width="25" height="24" viewBox="0 0 25 24" fill="none" xmlns="http://www.w3.org/2000/svg">
<path d="M23.0911 12C23.0911 17.9299 18.2842 22.7368 12.3543 22.7368C6.42501 22.7368 1.61743 17.9299 1.61743 12C1.61743 6.07071 6.42501 1.26313 12.3543 1.26313C18.2842 1.26313 23.0911 6.07071 23.0911 12Z" fill="#FFCC4D"/>
<path d="M9.82806 11.0756C9.82806 12.2971 9.12132 13.2861 8.24911 13.2861C7.3769 13.2861 6.67017 12.2971 6.67017 11.0756C6.67017 9.85476 7.3769 8.86508 8.24911 8.86508C9.12132 8.86508 9.82806 9.85476 9.82806 11.0756Z" fill="#664500"/>
<path d="M18.0385 11.0756C18.0385 12.2971 17.3318 13.2861 16.4596 13.2861C15.5874 13.2861 14.8806 12.2971 14.8806 11.0756C14.8806 9.85476 15.5874 8.86508 16.4596 8.86508C17.3318 8.86508 18.0385 9.85476 18.0385 11.0756Z" fill="#664500"/>
<path d="M5.40698 15.1805C5.40698 17.6841 8.30972 20.8647 12.3544 20.8647C16.399 20.8647 19.3017 17.7069 19.3017 15.1805C19.3017 15.1805 12.7756 16.9212 5.40698 15.1805Z" fill="#664500"/>
<path d="M8.5647 16.3686V20.2105C8.5647 22.1053 9.82786 24 12.3542 24C14.8805 24 16.1436 22.1053 16.1436 20.2105V16.3945C12.1704 17.2105 8.5647 16.3686 8.5647 16.3686Z" fill="#E75A70"/>
</svg>
