<svg width="25" height="24" viewBox="0 0 25 24" fill="none" xmlns="http://www.w3.org/2000/svg">
<path d="M23.0911 12C23.0911 17.9299 18.2842 22.7368 12.3543 22.7368C6.42438 22.7368 1.61743 17.9299 1.61743 12C1.61743 6.07008 6.42438 1.26313 12.3543 1.26313C18.2842 1.26313 23.0911 6.07008 23.0911 12Z" fill="#FFCC4D"/>
<path d="M14.249 18.9472L17.4069 22.1051C18.4983 23.1965 20.5648 23.3683 21.828 22.1051C23.0911 20.842 23.0299 18.9712 21.9385 17.8792L19.3017 15.1578C17.4069 18.3157 14.249 18.9472 14.249 18.9472Z" fill="#E75A70"/>
<path d="M12.3543 20.2104C8.27366 20.2104 6.83556 18.1231 6.77619 18.0347C6.58293 17.7441 6.66124 17.3526 6.95114 17.1587C7.23977 16.966 7.62882 17.0424 7.82398 17.3279C7.87766 17.4056 9.01072 18.9473 12.3543 18.9473C17.4581 18.9473 18.6417 14.5584 18.689 14.3715C18.7762 14.0342 19.1179 13.829 19.4564 13.9149C19.7937 14.0001 19.9989 14.3418 19.9143 14.6791C19.9004 14.7347 18.461 20.2104 12.3543 20.2104Z" fill="#664500"/>
<path d="M5.40625 11.3681C5.31152 11.3681 5.21489 11.3467 5.12457 11.3018C4.81257 11.1452 4.68562 10.7656 4.84162 10.4542C4.8751 10.3879 5.67468 8.84181 7.9332 8.84181C10.193 8.84181 10.9913 10.3885 11.0241 10.4542C11.1808 10.7662 11.0538 11.1452 10.7418 11.3018C10.4317 11.4572 10.0566 11.3321 9.89804 11.0258C9.87025 10.9753 9.3732 10.105 7.9332 10.105C6.46983 10.105 5.97594 11.01 5.97215 11.0189C5.86099 11.2405 5.63804 11.3681 5.40625 11.3681Z" fill="#664500"/>
<path d="M14.8806 11.3687C14.6254 11.3687 14.3842 11.212 14.2894 10.9588C14.1669 10.6316 14.3324 10.2678 14.6583 10.1453L19.7109 8.25055C20.0381 8.12992 20.4025 8.2935 20.525 8.62002C20.6469 8.94655 20.4814 9.31097 20.1555 9.4335L15.1029 11.3282C15.029 11.3554 14.9545 11.3687 14.8806 11.3687Z" fill="#664500"/>
</svg>
