<svg width="25" height="24" viewBox="0 0 25 24" fill="none" xmlns="http://www.w3.org/2000/svg">
<path d="M23.0911 12C23.0911 17.9299 18.2842 22.7368 12.3543 22.7368C6.42438 22.7368 1.61743 17.9299 1.61743 12C1.61743 6.07008 6.42438 1.26313 12.3543 1.26313C18.2842 1.26313 23.0911 6.07008 23.0911 12Z" fill="#FFCC4D"/>
<path d="M15.8187 18.871C15.8111 18.8432 15.0949 16.1053 12.3545 16.1053C9.61277 16.1053 8.89656 18.8432 8.89025 18.871C8.85677 19.0055 8.91741 19.1432 9.03614 19.2146C9.15488 19.2853 9.30962 19.2689 9.41256 19.1767C9.41888 19.1722 10.053 18.6316 12.3545 18.6316C14.6212 18.6316 15.2705 19.1558 15.2951 19.1767C15.3551 19.2335 15.4334 19.2632 15.5124 19.2632C15.5654 19.2632 15.6191 19.2499 15.6677 19.2228C15.7915 19.152 15.8534 19.0087 15.8187 18.871Z" fill="#664500"/>
<path d="M17.2682 10.5098C17.0528 10.4511 16.8312 10.4214 16.6095 10.4214C15.1284 10.4214 14.0497 11.7225 14.0042 11.7774C13.9139 11.8886 13.9107 12.0465 13.9935 12.1621C14.0781 12.2783 14.2297 12.3218 14.3636 12.272C14.3667 12.2707 14.7255 12.1362 15.352 12.1362C15.8029 12.1362 16.2792 12.2044 16.7693 12.3383C18.2484 12.7406 18.8617 13.4865 18.8749 13.5023C18.9368 13.5806 19.0284 13.6235 19.1238 13.6235C19.1655 13.6235 19.2078 13.6147 19.2482 13.5976C19.3802 13.5408 19.4573 13.4019 19.4358 13.2604C19.4213 13.1675 19.0707 11.0012 17.2682 10.5098Z" fill="#664500"/>
<path d="M8.07601 10.4286C7.8758 10.4286 7.67432 10.4532 7.4779 10.5018C5.66527 10.9484 5.25917 13.1046 5.24274 13.1962C5.21748 13.337 5.29074 13.4766 5.42022 13.5372C5.46317 13.5574 5.50864 13.5669 5.55348 13.5669C5.64506 13.5669 5.73474 13.5271 5.79664 13.4538C5.80295 13.4463 6.43453 12.7098 7.93074 12.3416C8.38232 12.2305 8.82316 12.1743 9.24001 12.1743C9.93727 12.1743 10.3339 12.3341 10.3358 12.3347C10.3781 12.3524 10.4185 12.3599 10.4665 12.3599C10.6383 12.3675 10.788 12.2204 10.788 12.0442C10.788 11.9399 10.7375 11.8477 10.6598 11.7903C10.428 11.5155 9.42632 10.4286 8.07601 10.4286Z" fill="#664500"/>
</svg>
