<svg width="25" height="24" viewBox="0 0 25 24" fill="none" xmlns="http://www.w3.org/2000/svg">
<path d="M23.0911 12C23.0911 17.9299 18.2842 22.7368 12.3543 22.7368C6.42438 22.7368 1.61743 17.9299 1.61743 12C1.61743 6.07008 6.42438 1.26313 12.3543 1.26313C18.2842 1.26313 23.0911 6.07008 23.0911 12Z" fill="#FFCC4D"/>
<path d="M9.82804 9.47343C9.82804 10.52 9.22173 11.3682 8.47457 11.3682C7.72678 11.3682 7.12109 10.52 7.12109 9.47343C7.12109 8.4269 7.72678 7.57869 8.47457 7.57869C9.22173 7.57869 9.82804 8.4269 9.82804 9.47343Z" fill="#664500"/>
<path d="M17.4069 9.3473C17.4069 10.3244 16.8417 11.1157 16.1438 11.1157C15.4465 11.1157 14.8806 10.3244 14.8806 9.3473C14.8806 8.37088 15.4465 7.57888 16.1438 7.57888C16.8417 7.57888 17.4069 8.37088 17.4069 9.3473Z" fill="#664500"/>
<path d="M14.8805 16.4212C14.8805 18.1663 13.7487 19.5791 12.3542 19.5791C10.9584 19.5791 9.82788 18.1663 9.82788 16.4212C9.82788 14.6774 10.9584 13.2633 12.3542 13.2633C13.7487 13.2633 14.8805 14.6774 14.8805 16.4212Z" fill="#664500"/>
</svg>
