<svg width="25" height="24" viewBox="0 0 25 24" fill="none" xmlns="http://www.w3.org/2000/svg">
<path d="M23.0911 12C23.0911 17.9299 18.2842 22.7368 12.3543 22.7368C6.42438 22.7368 1.61743 17.9299 1.61743 12C1.61743 6.07008 6.42438 1.26313 12.3543 1.26313C18.2842 1.26313 23.0911 6.07008 23.0911 12Z" fill="#FFCC4D"/>
<path d="M12.3544 14.4307C10.4811 14.4307 9.23756 14.2122 7.7003 13.9134C7.34851 13.8458 6.66577 13.9134 6.66577 14.9473C6.66577 17.0164 9.0424 19.6021 12.3544 19.6021C15.6664 19.6021 18.043 17.0164 18.043 14.9473C18.043 13.9134 17.3597 13.8452 17.0085 13.9134C15.4719 14.2122 14.2283 14.4307 12.3544 14.4307Z" fill="#664500"/>
<path d="M11.5016 2.70376C10.9591 1.1684 9.27594 0.3625 7.73994 0.903763C6.80773 1.23282 6.14773 1.9844 5.89068 2.86482C5.13847 2.34061 4.15321 2.17008 3.22289 2.49787C1.68752 3.03976 0.880996 4.72418 1.42289 6.25955C1.49994 6.47745 1.60226 6.67829 1.721 6.86461C2.95321 9.12692 6.51342 10.7172 8.66963 10.7368C10.3345 9.36818 12.1092 5.8964 11.6488 3.36187C11.6248 3.14208 11.5774 2.92103 11.5016 2.70376Z" fill="#E75A70"/>
<path d="M13.2068 2.70376C13.7493 1.1684 15.4331 0.3625 16.9685 0.903763C17.9013 1.23282 18.5607 1.9844 18.8184 2.86482C19.5706 2.34061 20.5559 2.17008 21.4862 2.49787C23.0209 3.03976 23.8274 4.72418 23.2862 6.25955C23.2085 6.47745 23.1068 6.67829 22.9874 6.86461C21.7552 9.12692 18.195 10.7172 16.0388 10.7368C14.374 9.36818 12.5999 5.8964 13.0603 3.36187C13.0843 3.14208 13.1316 2.92103 13.2068 2.70376Z" fill="#E75A70"/>
</svg>
