<svg width="25" height="24" viewBox="0 0 25 24" fill="none" xmlns="http://www.w3.org/2000/svg">
<path d="M23.0911 12C23.0911 17.9299 18.2842 22.7368 12.3543 22.7368C6.42438 22.7368 1.61743 17.9299 1.61743 12C1.61743 6.07008 6.42438 1.26313 12.3543 1.26313C18.2842 1.26313 23.0911 6.07008 23.0911 12Z" fill="#FFCC4D"/>
<path fill-rule="evenodd" clip-rule="evenodd" d="M1.76922 7.59015C1.9208 7.7411 2.6768 8.1952 2.82837 8.64805C2.97995 9.10089 3.28311 11.6695 4.19132 12.4255C5.12858 13.2043 8.66101 12.9144 9.33806 12.5771C10.852 11.8224 11.0376 9.71541 11.3054 8.64805C11.4564 8.04362 12.3646 8.04362 12.3646 8.04362C12.3646 8.04362 13.2734 8.04362 13.4244 8.64741C13.6922 9.71541 13.8791 11.8224 15.3917 12.5765C16.0694 12.9144 19.6019 13.2043 20.5404 12.4255C21.4467 11.6695 21.7498 9.10089 21.9014 8.64741C22.0517 8.19457 22.809 7.7411 22.9606 7.59015C23.1128 7.4392 23.1128 6.83478 22.9606 6.6832C22.6581 6.38131 19.0865 6.11226 15.2408 6.53226C14.4734 6.61626 14.1816 6.83478 12.3646 6.83478C10.5488 6.83478 10.2557 6.61626 9.48901 6.53289C5.64458 6.11226 2.07174 6.38131 1.76922 6.6832C1.61827 6.83478 1.61827 7.4392 1.76922 7.59015Z" fill="#292F33"/>
<path d="M18.2501 15.5552C18.1377 15.4535 17.9697 15.4472 17.849 15.5369C17.8244 15.5552 15.372 17.3684 12.3543 17.3684C9.34419 17.3684 6.88356 15.5552 6.85956 15.5369C6.73893 15.4472 6.57093 15.4548 6.45851 15.5552C6.34672 15.6562 6.32145 15.823 6.39914 15.9518C6.48061 16.0876 8.43093 19.2632 12.3543 19.2632C16.2777 19.2632 18.2286 16.0876 18.3095 15.9518C18.3871 15.8223 18.3625 15.6562 18.2501 15.5552Z" fill="#664500"/>
</svg>
