<svg width="25" height="24" viewBox="0 0 25 24" fill="none" xmlns="http://www.w3.org/2000/svg">
<path d="M23.0911 12C23.0911 17.9299 18.2842 22.7368 12.3543 22.7368C6.42438 22.7368 1.61743 17.9299 1.61743 12C1.61743 6.07008 6.42438 1.26313 12.3543 1.26313C18.2842 1.26313 23.0911 6.07008 23.0911 12Z" fill="#FFCC4D"/>
<path d="M12.3544 13.8947C10.0661 13.8947 8.54782 13.6281 6.67014 13.2631C6.2413 13.1803 5.40698 13.2631 5.40698 14.5262C5.40698 17.0526 8.30909 20.2104 12.3544 20.2104C16.399 20.2104 19.3017 17.0526 19.3017 14.5262C19.3017 13.2631 18.4674 13.1797 18.0386 13.2631C16.1609 13.6281 14.6426 13.8947 12.3544 13.8947Z" fill="#664500"/>
<path d="M7.30176 8.84185C7.30176 8.84185 7.30176 7.57869 8.56492 7.57869C9.82807 7.57869 9.82807 8.84185 9.82807 8.84185V10.105C9.82807 10.105 9.82807 11.3682 8.56492 11.3682C7.30176 11.3682 7.30176 10.105 7.30176 10.105V8.84185Z" fill="#664500"/>
<path d="M14.8806 8.84185C14.8806 8.84185 14.8806 7.57869 16.1438 7.57869C17.4069 7.57869 17.4069 8.84185 17.4069 8.84185V10.105C17.4069 10.105 17.4069 11.3682 16.1438 11.3682C14.8806 11.3682 14.8806 10.105 14.8806 10.105V8.84185Z" fill="#664500"/>
<path d="M6.67017 14.5264C6.67017 14.5264 8.5649 15.158 12.3544 15.158C16.1438 15.158 18.0386 14.5264 18.0386 14.5264C18.0386 14.5264 16.7754 17.0527 12.3544 17.0527C7.93332 17.0527 6.67017 14.5264 6.67017 14.5264Z" fill="white"/>
</svg>
