<svg width="25" height="24" viewBox="0 0 25 24" fill="none" xmlns="http://www.w3.org/2000/svg">
<path d="M22.9806 11.4078L22.9901 11.2954C22.548 11.7305 21.9429 11.9996 21.2747 11.9996H21.1181C20.1871 11.9996 19.3888 11.4747 18.9758 10.7099C18.5475 11.4754 17.7391 11.9996 16.7993 11.9996H16.7513C16.0004 11.9996 15.3366 11.6617 14.8806 11.1368V11.1286C14.7631 10.9941 14.664 10.8457 14.5768 10.689C14.5515 10.6436 14.5332 10.5937 14.5105 10.5463C14.4518 10.4231 14.3993 10.2968 14.3614 10.1636C14.3286 10.0543 14.2939 9.9463 14.2768 9.83135C14.1878 9.93619 14.0899 10.0328 13.9863 10.1219C13.9421 10.1591 13.8928 10.1901 13.8467 10.2242C13.7734 10.2791 13.7021 10.336 13.6225 10.3827C13.2505 10.6044 12.8198 10.737 12.3543 10.737H11.0911H10.3547C12.0656 11.5998 12.8829 13.3922 12.8829 16.2084C12.8829 16.3827 12.7421 16.5242 12.5671 16.5242C12.3928 16.5242 12.2513 16.3827 12.2513 16.2084C12.2513 12.388 10.776 10.7579 7.31807 10.7579C7.28081 10.7579 7.2467 10.7484 7.21386 10.737H6.98586C6.81091 10.737 6.67007 10.5956 6.67007 10.4212C6.67007 10.2463 6.81091 10.1048 6.98586 10.1048H9.19638H11.0911H12.3543C13.4008 10.1048 14.249 9.25661 14.249 8.21072C14.249 7.16419 13.4008 6.31535 12.3543 6.31535H11.0911H9.19638H4.71154C4.6806 6.31535 4.65154 6.3564 4.6206 6.3583C4.55049 6.36145 4.48102 6.38419 4.41217 6.39556C4.35281 6.40504 4.2947 6.42461 4.23723 6.43977C4.17596 6.45556 4.11596 6.47766 4.05723 6.49977C3.99723 6.52124 3.93975 6.54651 3.88291 6.57367C3.82796 6.60019 3.77554 6.63051 3.72375 6.66146C3.67007 6.69367 3.61828 6.72651 3.56838 6.7644C3.51849 6.80103 3.47049 6.84209 3.42375 6.8844C3.37954 6.92356 3.33723 6.96588 3.29617 7.01009C3.2526 7.05682 3.21281 7.10545 3.17365 7.15788C3.13702 7.20651 3.10291 7.2564 3.07133 7.30819C3.03849 7.36188 3.00944 7.41682 2.98165 7.47303C2.95323 7.5324 2.92796 7.59367 2.90459 7.65682C2.89386 7.68651 2.87681 7.7143 2.86733 7.74588L1.81954 11.2019C1.72038 11.5252 1.35849 13.0057 1.42354 13.3151C1.42354 17.9503 6.88039 22.7705 13.3882 22.7705C19.6894 22.7705 22.8776 17.644 23.0153 11.3749C23.0033 11.3876 22.9926 11.3958 22.9806 11.4078Z" fill="#D99E82"/>
<path d="M23.091 9.55981C23.091 10.559 22.2813 11.3687 21.2821 11.3687H21.1104C20.1112 11.3687 19.3015 10.559 19.3015 9.55981V5.59855C19.3015 4.59939 20.1112 3.78971 21.1104 3.78971H21.2821C22.2813 3.78971 23.091 4.59939 23.091 5.59855V9.55981Z" fill="#D99E82"/>
<path d="M18.6698 9.47343C18.6698 10.52 17.8216 11.3682 16.7751 11.3682C15.7286 11.3682 14.8804 10.52 14.8804 9.47343V3.78922C14.8804 2.74269 15.7286 1.89448 16.7751 1.89448C17.8216 1.89448 18.6698 2.74269 18.6698 3.78922V9.47343Z" fill="#D99E82"/>
<path d="M12.3542 5.68409C13.1127 5.68409 13.786 6.02577 14.2489 6.55566V2.52619C14.2489 1.47966 13.4007 0.631453 12.3542 0.631453C11.3077 0.631453 10.4595 1.47966 10.4595 2.52619V5.68409H12.3542Z" fill="#D99E82"/>
<path d="M9.8278 5.68408V3.15335C9.8278 2.10934 8.98149 1.26303 7.93749 1.26303H7.92865C6.88465 1.26303 6.03833 2.10934 6.03833 3.15335V5.68408H9.8278Z" fill="#D99E82"/>
</svg>
