<svg width="44" height="44" viewBox="0 0 44 44" fill="none" xmlns="http://www.w3.org/2000/svg">
<circle cx="22" cy="22" r="22" fill="#3970D9"/>
<path d="M14.5 18.667L19.5025 13.667H28.665C29.125 13.667 29.5 14.0462 29.5 14.4937V29.507C29.4998 29.7263 29.4125 29.9366 29.2574 30.0916C29.1022 30.2466 28.8918 30.3337 28.6725 30.3337H15.3275C15.2181 30.3329 15.1099 30.3106 15.0091 30.268C14.9082 30.2254 14.8168 30.1634 14.74 30.0855C14.6631 30.0075 14.6024 29.9152 14.5612 29.8138C14.52 29.7124 14.4993 29.6039 14.5 29.4945V18.667ZM20.3334 15.3337V19.5003H16.1667V28.667H27.8334V15.3337H20.3334Z" fill="white"/>
</svg>
