<svg width="284" height="42" viewBox="0 0 284 42" fill="none" xmlns="http://www.w3.org/2000/svg">
<path fill-rule="evenodd" clip-rule="evenodd" d="M27.6021 2.35027C27.2615 2.29394 26.9398 2.52435 26.8835 2.8649C26.8776 2.90031 26.8749 2.93551 26.875 2.97023V2.97321V9.49987C26.875 10.1077 27.1164 10.6906 27.5462 11.1203C27.976 11.5501 28.5589 11.7915 29.1667 11.7915H35.5474C35.6288 11.8125 35.7157 11.8173 35.8038 11.8029C36.1445 11.7472 36.3756 11.426 36.3199 11.0853L36.3192 11.0812C36.3176 11.0695 36.3157 11.0579 36.3135 11.0464C36.1818 10.2588 35.961 9.48671 35.6543 8.74535C35.1227 7.46071 34.3433 6.29339 33.3605 5.31007C32.3776 4.32675 31.2107 3.54672 29.9263 3.01452C29.1777 2.70433 28.3978 2.48188 27.6021 2.35027Z" fill="#E7EDFD"/>
<path d="M34.1665 41.1668C34.6085 41.1668 35.0325 40.9912 35.345 40.6787C35.6576 40.3661 35.8332 39.9422 35.8332 39.5002V12.7968C35.8338 11.4887 35.5767 10.1932 35.0766 8.9844C34.5764 7.77563 33.843 6.67724 32.9182 5.75199C31.9934 4.82675 30.8954 4.09277 29.6869 3.59201C28.4784 3.09124 27.183 2.8335 25.8748 2.8335H5.83317C5.39114 2.8335 4.96722 3.00909 4.65466 3.32165C4.3421 3.63421 4.1665 4.05814 4.1665 4.50016V39.5002C4.1665 39.9422 4.3421 40.3661 4.65466 40.6787C4.96722 40.9912 5.39114 41.1668 5.83317 41.1668H34.1665Z" stroke="#6A77ED" stroke-width="1.25" stroke-linecap="round" stroke-linejoin="round"/>
<path d="M27.5 2.97314V9.49981C27.5 9.94184 27.6756 10.3658 27.9882 10.6783C28.3007 10.9909 28.7246 11.1665 29.1667 11.1665H35.7" stroke="#6A77ED" stroke-width="1.25" stroke-linecap="round" stroke-linejoin="round"/>
<path d="M20.3125 27.625V17.625" stroke="#6A77ED" stroke-width="1.25" stroke-linecap="round" stroke-linejoin="round"/>
<path d="M20.3125 17.625L16.5625 21.375" stroke="#6A77ED" stroke-width="1.25" stroke-linecap="round" stroke-linejoin="round"/>
<path d="M20.3125 17.625L24.0625 21.375" stroke="#6A77ED" stroke-width="1.25" stroke-linecap="round" stroke-linejoin="round"/>
<path d="M56.65 14C56.55 14 56.47 13.97 56.41 13.91C56.35 13.84 56.32 13.755 56.32 13.655V3.86C56.32 3.75 56.35 3.665 56.41 3.605C56.47 3.535 56.55 3.5 56.65 3.5H60.745C61.805 3.5 62.605 3.755 63.145 4.265C63.685 4.775 63.955 5.44 63.955 6.26C63.955 6.82 63.825 7.29 63.565 7.67C63.305 8.04 63 8.31 62.65 8.48C63.08 8.69 63.44 9.015 63.73 9.455C64.02 9.895 64.165 10.4 64.165 10.97C64.165 11.53 64.035 12.04 63.775 12.5C63.525 12.96 63.15 13.325 62.65 13.595C62.15 13.865 61.555 14 60.865 14H56.65ZM60.52 7.955C61.17 7.955 61.665 7.81 62.005 7.52C62.345 7.22 62.515 6.805 62.515 6.275C62.515 5.755 62.345 5.36 62.005 5.09C61.675 4.82 61.18 4.685 60.52 4.685H57.73V7.955H60.52ZM60.67 12.815C61.31 12.815 61.81 12.645 62.17 12.305C62.54 11.955 62.725 11.51 62.725 10.97C62.725 10.42 62.54 9.975 62.17 9.635C61.81 9.295 61.31 9.125 60.67 9.125H57.73V12.815H60.67ZM66.4749 14C66.3749 14 66.2899 13.97 66.2199 13.91C66.1599 13.84 66.1299 13.755 66.1299 13.655V6.56C66.1299 6.46 66.1599 6.375 66.2199 6.305C66.2899 6.235 66.3749 6.2 66.4749 6.2H67.1049C67.2149 6.2 67.2999 6.235 67.3599 6.305C67.4299 6.365 67.4649 6.45 67.4649 6.56V7.22C67.8749 6.54 68.5699 6.2 69.5499 6.2H70.1349C70.2449 6.2 70.3299 6.23 70.3899 6.29C70.4499 6.35 70.4799 6.435 70.4799 6.545V7.1C70.4799 7.2 70.4499 7.285 70.3899 7.355C70.3299 7.415 70.2449 7.445 70.1349 7.445H69.2799C68.7299 7.445 68.2949 7.605 67.9749 7.925C67.6649 8.245 67.5099 8.68 67.5099 9.23V13.655C67.5099 13.755 67.4749 13.84 67.4049 13.91C67.3349 13.97 67.2499 14 67.1499 14H66.4749ZM74.788 14.15C73.688 14.15 72.838 13.84 72.238 13.22C71.648 12.6 71.333 11.775 71.293 10.745L71.278 10.1L71.293 9.455C71.333 8.425 71.653 7.6 72.253 6.98C72.863 6.36 73.708 6.05 74.788 6.05C75.868 6.05 76.708 6.36 77.308 6.98C77.918 7.6 78.243 8.425 78.283 9.455C78.303 9.675 78.313 9.89 78.313 10.1C78.313 10.31 78.303 10.525 78.283 10.745C78.243 11.775 77.923 12.6 77.323 13.22C76.733 13.84 75.888 14.15 74.788 14.15ZM74.788 13.025C75.428 13.025 75.933 12.825 76.303 12.425C76.683 12.015 76.888 11.43 76.918 10.67C76.928 10.57 76.933 10.38 76.933 10.1C76.933 9.82 76.928 9.63 76.918 9.53C76.888 8.77 76.683 8.19 76.303 7.79C75.933 7.38 75.428 7.175 74.788 7.175C74.148 7.175 73.638 7.38 73.258 7.79C72.888 8.19 72.688 8.77 72.658 9.53L72.643 10.1L72.658 10.67C72.688 11.43 72.888 12.015 73.258 12.425C73.638 12.825 74.148 13.025 74.788 13.025ZM82.072 14C81.932 14 81.827 13.97 81.757 13.91C81.687 13.85 81.632 13.755 81.592 13.625L79.462 6.665L79.432 6.515C79.432 6.425 79.462 6.35 79.522 6.29C79.582 6.23 79.657 6.2 79.747 6.2H80.362C80.462 6.2 80.542 6.23 80.602 6.29C80.672 6.34 80.712 6.39 80.722 6.44L82.417 12.17L84.217 6.515C84.237 6.435 84.282 6.365 84.352 6.305C84.422 6.235 84.517 6.2 84.637 6.2H85.117C85.237 6.2 85.332 6.235 85.402 6.305C85.472 6.365 85.517 6.435 85.537 6.515L87.337 12.17L89.032 6.44C89.042 6.39 89.077 6.34 89.137 6.29C89.207 6.23 89.292 6.2 89.392 6.2H90.007C90.097 6.2 90.172 6.23 90.232 6.29C90.292 6.35 90.322 6.425 90.322 6.515L90.292 6.665L88.162 13.625C88.122 13.755 88.067 13.85 87.997 13.91C87.927 13.97 87.822 14 87.682 14H87.142C86.882 14 86.712 13.875 86.632 13.625L84.877 8.195L83.122 13.625C83.042 13.875 82.872 14 82.612 14H82.072ZM94.4786 14.15C93.7886 14.15 93.2036 14.04 92.7236 13.82C92.2536 13.59 91.9036 13.33 91.6736 13.04C91.4436 12.75 91.3286 12.51 91.3286 12.32C91.3286 12.22 91.3636 12.145 91.4336 12.095C91.5036 12.035 91.5786 12.005 91.6586 12.005H92.2886C92.3486 12.005 92.3936 12.015 92.4236 12.035C92.4636 12.055 92.5136 12.1 92.5736 12.17C92.8036 12.45 93.0586 12.67 93.3386 12.83C93.6286 12.99 94.0136 13.07 94.4936 13.07C95.0336 13.07 95.4636 12.97 95.7836 12.77C96.1136 12.57 96.2786 12.28 96.2786 11.9C96.2786 11.65 96.2086 11.45 96.0686 11.3C95.9286 11.15 95.6936 11.015 95.3636 10.895C95.0436 10.775 94.5636 10.645 93.9236 10.505C93.0536 10.315 92.4386 10.04 92.0786 9.68C91.7186 9.32 91.5386 8.855 91.5386 8.285C91.5386 7.915 91.6486 7.56 91.8686 7.22C92.0886 6.87 92.4136 6.59 92.8436 6.38C93.2836 6.16 93.8036 6.05 94.4036 6.05C95.0336 6.05 95.5686 6.155 96.0086 6.365C96.4586 6.575 96.7936 6.82 97.0136 7.1C97.2436 7.38 97.3586 7.615 97.3586 7.805C97.3586 7.895 97.3236 7.97 97.2536 8.03C97.1936 8.09 97.1186 8.12 97.0286 8.12H96.4586C96.3186 8.12 96.2186 8.065 96.1586 7.955C95.9886 7.765 95.8436 7.62 95.7236 7.52C95.6136 7.41 95.4486 7.32 95.2286 7.25C95.0086 7.17 94.7336 7.13 94.4036 7.13C93.9136 7.13 93.5386 7.235 93.2786 7.445C93.0186 7.645 92.8886 7.915 92.8886 8.255C92.8886 8.465 92.9436 8.645 93.0536 8.795C93.1636 8.935 93.3736 9.07 93.6836 9.2C93.9936 9.32 94.4536 9.445 95.0636 9.575C96.0136 9.775 96.6836 10.06 97.0736 10.43C97.4736 10.8 97.6736 11.275 97.6736 11.855C97.6736 12.285 97.5486 12.675 97.2986 13.025C97.0586 13.375 96.6936 13.65 96.2036 13.85C95.7236 14.05 95.1486 14.15 94.4786 14.15ZM102.516 14.15C101.496 14.15 100.681 13.835 100.071 13.205C99.4608 12.565 99.1258 11.695 99.0658 10.595L99.0508 10.085L99.0658 9.59C99.1258 8.51 99.4608 7.65 100.071 7.01C100.681 6.37 101.496 6.05 102.516 6.05C103.616 6.05 104.466 6.4 105.066 7.1C105.676 7.8 105.981 8.75 105.981 9.95V10.22C105.981 10.32 105.946 10.405 105.876 10.475C105.816 10.535 105.736 10.565 105.636 10.565H100.431V10.7C100.461 11.35 100.661 11.905 101.031 12.365C101.401 12.825 101.891 13.055 102.501 13.055C102.971 13.055 103.351 12.965 103.641 12.785C103.941 12.595 104.166 12.4 104.316 12.2C104.406 12.08 104.476 12.01 104.526 11.99C104.576 11.96 104.661 11.945 104.781 11.945H105.441C105.531 11.945 105.606 11.97 105.666 12.02C105.736 12.07 105.771 12.135 105.771 12.215C105.771 12.435 105.636 12.7 105.366 13.01C105.096 13.32 104.711 13.59 104.211 13.82C103.721 14.04 103.156 14.15 102.516 14.15ZM104.616 9.545V9.5C104.616 8.8 104.426 8.23 104.046 7.79C103.666 7.35 103.156 7.13 102.516 7.13C101.866 7.13 101.356 7.35 100.986 7.79C100.616 8.23 100.431 8.8 100.431 9.5V9.545H104.616ZM112.343 14C112.243 14 112.158 13.97 112.088 13.91C112.028 13.84 111.998 13.755 111.998 13.655V7.355H110.708C110.608 7.355 110.523 7.325 110.453 7.265C110.393 7.205 110.363 7.125 110.363 7.025V6.545C110.363 6.445 110.393 6.365 110.453 6.305C110.523 6.235 110.608 6.2 110.708 6.2H111.998V5.45C111.998 4.64 112.193 4.015 112.583 3.575C112.983 3.125 113.633 2.9 114.533 2.9H116.783C116.883 2.9 116.963 2.935 117.023 3.005C117.083 3.065 117.113 3.145 117.113 3.245V3.725C117.113 3.825 117.083 3.905 117.023 3.965C116.963 4.025 116.883 4.055 116.783 4.055H114.563C114.103 4.055 113.783 4.175 113.603 4.415C113.423 4.655 113.333 5.025 113.333 5.525V6.2H116.783C116.883 6.2 116.963 6.235 117.023 6.305C117.083 6.365 117.113 6.445 117.113 6.545V13.655C117.113 13.755 117.083 13.84 117.023 13.91C116.963 13.97 116.883 14 116.783 14H116.123C116.023 14 115.938 13.97 115.868 13.91C115.808 13.84 115.778 13.755 115.778 13.655V7.355H113.333V13.655C113.333 13.755 113.298 13.84 113.228 13.91C113.168 13.97 113.088 14 112.988 14H112.343ZM119.722 14C119.622 14 119.537 13.97 119.467 13.91C119.407 13.84 119.377 13.755 119.377 13.655V3.695C119.377 3.585 119.407 3.5 119.467 3.44C119.537 3.38 119.622 3.35 119.722 3.35H120.382C120.482 3.35 120.562 3.385 120.622 3.455C120.692 3.515 120.727 3.595 120.727 3.695V13.655C120.727 13.755 120.692 13.84 120.622 13.91C120.562 13.97 120.482 14 120.382 14H119.722ZM126.07 14.15C125.05 14.15 124.235 13.835 123.625 13.205C123.015 12.565 122.68 11.695 122.62 10.595L122.605 10.085L122.62 9.59C122.68 8.51 123.015 7.65 123.625 7.01C124.235 6.37 125.05 6.05 126.07 6.05C127.17 6.05 128.02 6.4 128.62 7.1C129.23 7.8 129.535 8.75 129.535 9.95V10.22C129.535 10.32 129.5 10.405 129.43 10.475C129.37 10.535 129.29 10.565 129.19 10.565H123.985V10.7C124.015 11.35 124.215 11.905 124.585 12.365C124.955 12.825 125.445 13.055 126.055 13.055C126.525 13.055 126.905 12.965 127.195 12.785C127.495 12.595 127.72 12.4 127.87 12.2C127.96 12.08 128.03 12.01 128.08 11.99C128.13 11.96 128.215 11.945 128.335 11.945H128.995C129.085 11.945 129.16 11.97 129.22 12.02C129.29 12.07 129.325 12.135 129.325 12.215C129.325 12.435 129.19 12.7 128.92 13.01C128.65 13.32 128.265 13.59 127.765 13.82C127.275 14.04 126.71 14.15 126.07 14.15ZM128.17 9.545V9.5C128.17 8.8 127.98 8.23 127.6 7.79C127.22 7.35 126.71 7.13 126.07 7.13C125.42 7.13 124.91 7.35 124.54 7.79C124.17 8.23 123.985 8.8 123.985 9.5V9.545H128.17Z" fill="#6F7CFF"/>
<path d="M138.216 14.15C137.116 14.15 136.266 13.84 135.666 13.22C135.076 12.6 134.761 11.775 134.721 10.745L134.706 10.1L134.721 9.455C134.761 8.425 135.081 7.6 135.681 6.98C136.291 6.36 137.136 6.05 138.216 6.05C139.296 6.05 140.136 6.36 140.736 6.98C141.346 7.6 141.671 8.425 141.711 9.455C141.731 9.675 141.741 9.89 141.741 10.1C141.741 10.31 141.731 10.525 141.711 10.745C141.671 11.775 141.351 12.6 140.751 13.22C140.161 13.84 139.316 14.15 138.216 14.15ZM138.216 13.025C138.856 13.025 139.361 12.825 139.731 12.425C140.111 12.015 140.316 11.43 140.346 10.67C140.356 10.57 140.361 10.38 140.361 10.1C140.361 9.82 140.356 9.63 140.346 9.53C140.316 8.77 140.111 8.19 139.731 7.79C139.361 7.38 138.856 7.175 138.216 7.175C137.576 7.175 137.066 7.38 136.686 7.79C136.316 8.19 136.116 8.77 136.086 9.53L136.071 10.1L136.086 10.67C136.116 11.43 136.316 12.015 136.686 12.425C137.066 12.825 137.576 13.025 138.216 13.025ZM143.98 14C143.88 14 143.795 13.97 143.725 13.91C143.665 13.84 143.635 13.755 143.635 13.655V6.56C143.635 6.46 143.665 6.375 143.725 6.305C143.795 6.235 143.88 6.2 143.98 6.2H144.61C144.72 6.2 144.805 6.235 144.865 6.305C144.935 6.365 144.97 6.45 144.97 6.56V7.22C145.38 6.54 146.075 6.2 147.055 6.2H147.64C147.75 6.2 147.835 6.23 147.895 6.29C147.955 6.35 147.985 6.435 147.985 6.545V7.1C147.985 7.2 147.955 7.285 147.895 7.355C147.835 7.415 147.75 7.445 147.64 7.445H146.785C146.235 7.445 145.8 7.605 145.48 7.925C145.17 8.245 145.015 8.68 145.015 9.23V13.655C145.015 13.755 144.98 13.84 144.91 13.91C144.84 13.97 144.755 14 144.655 14H143.98ZM155.464 14.15C154.414 14.15 153.624 13.81 153.094 13.13C152.574 12.45 152.294 11.59 152.254 10.55L152.239 10.1L152.254 9.65C152.294 8.62 152.579 7.765 153.109 7.085C153.639 6.395 154.424 6.05 155.464 6.05C156.504 6.05 157.314 6.42 157.894 7.16V3.695C157.894 3.595 157.924 3.515 157.984 3.455C158.054 3.385 158.139 3.35 158.239 3.35H158.914C159.014 3.35 159.094 3.385 159.154 3.455C159.224 3.515 159.259 3.595 159.259 3.695V13.655C159.259 13.755 159.224 13.84 159.154 13.91C159.094 13.97 159.014 14 158.914 14H158.269C158.169 14 158.089 13.97 158.029 13.91C157.969 13.84 157.939 13.755 157.939 13.655V13.01C157.369 13.77 156.544 14.15 155.464 14.15ZM155.749 12.98C156.449 12.98 156.974 12.75 157.324 12.29C157.674 11.82 157.864 11.265 157.894 10.625C157.904 10.515 157.909 10.325 157.909 10.055C157.909 9.775 157.904 9.58 157.894 9.47C157.874 8.86 157.679 8.335 157.309 7.895C156.949 7.445 156.429 7.22 155.749 7.22C155.029 7.22 154.504 7.445 154.174 7.895C153.844 8.345 153.664 8.935 153.634 9.665L153.619 10.1C153.619 12.02 154.329 12.98 155.749 12.98ZM161.866 14C161.766 14 161.681 13.97 161.611 13.91C161.551 13.84 161.521 13.755 161.521 13.655V6.56C161.521 6.46 161.551 6.375 161.611 6.305C161.681 6.235 161.766 6.2 161.866 6.2H162.496C162.606 6.2 162.691 6.235 162.751 6.305C162.821 6.365 162.856 6.45 162.856 6.56V7.22C163.266 6.54 163.961 6.2 164.941 6.2H165.526C165.636 6.2 165.721 6.23 165.781 6.29C165.841 6.35 165.871 6.435 165.871 6.545V7.1C165.871 7.2 165.841 7.285 165.781 7.355C165.721 7.415 165.636 7.445 165.526 7.445H164.671C164.121 7.445 163.686 7.605 163.366 7.925C163.056 8.245 162.901 8.68 162.901 9.23V13.655C162.901 13.755 162.866 13.84 162.796 13.91C162.726 13.97 162.641 14 162.541 14H161.866ZM169.203 14.15C168.713 14.15 168.258 14.05 167.838 13.85C167.428 13.65 167.098 13.38 166.848 13.04C166.608 12.69 166.488 12.305 166.488 11.885C166.488 11.225 166.758 10.685 167.298 10.265C167.838 9.845 168.573 9.565 169.503 9.425L171.753 9.11V8.675C171.753 7.645 171.158 7.13 169.968 7.13C169.508 7.13 169.138 7.225 168.858 7.415C168.578 7.595 168.373 7.81 168.243 8.06C168.203 8.16 168.158 8.23 168.108 8.27C168.068 8.3 168.008 8.315 167.928 8.315H167.343C167.253 8.315 167.173 8.285 167.103 8.225C167.043 8.155 167.013 8.075 167.013 7.985C167.013 7.755 167.118 7.49 167.328 7.19C167.548 6.88 167.883 6.615 168.333 6.395C168.783 6.165 169.333 6.05 169.983 6.05C171.103 6.05 171.903 6.31 172.383 6.83C172.873 7.35 173.118 8 173.118 8.78V13.655C173.118 13.755 173.083 13.84 173.013 13.91C172.953 13.97 172.873 14 172.773 14H172.113C172.013 14 171.933 13.97 171.873 13.91C171.813 13.84 171.783 13.755 171.783 13.655V12.995C171.563 13.325 171.243 13.6 170.823 13.82C170.403 14.04 169.863 14.15 169.203 14.15ZM169.503 13.055C170.163 13.055 170.703 12.84 171.123 12.41C171.543 11.98 171.753 11.355 171.753 10.535V10.115L169.998 10.37C169.278 10.47 168.733 10.64 168.363 10.88C167.993 11.12 167.808 11.42 167.808 11.78C167.808 12.19 167.973 12.505 168.303 12.725C168.643 12.945 169.043 13.055 169.503 13.055ZM178.455 17.3C177.625 17.3 176.96 17.16 176.46 16.88C175.96 16.6 175.605 16.28 175.395 15.92C175.195 15.56 175.095 15.25 175.095 14.99C175.095 14.9 175.13 14.82 175.2 14.75C175.27 14.69 175.35 14.66 175.44 14.66H176.1C176.19 14.66 176.265 14.68 176.325 14.72C176.385 14.77 176.435 14.855 176.475 14.975C176.755 15.775 177.39 16.175 178.38 16.175C179.13 16.175 179.685 16.015 180.045 15.695C180.405 15.375 180.585 14.81 180.585 14V12.965C180.005 13.705 179.195 14.075 178.155 14.075C177.095 14.075 176.3 13.735 175.77 13.055C175.25 12.375 174.975 11.515 174.945 10.475L174.93 10.055L174.945 9.65C174.975 8.62 175.25 7.765 175.77 7.085C176.3 6.395 177.095 6.05 178.155 6.05C179.205 6.05 180.025 6.435 180.615 7.205V6.56C180.615 6.46 180.645 6.375 180.705 6.305C180.775 6.235 180.86 6.2 180.96 6.2H181.605C181.705 6.2 181.785 6.235 181.845 6.305C181.915 6.375 181.95 6.46 181.95 6.56V13.835C181.95 16.145 180.785 17.3 178.455 17.3ZM178.425 12.905C179.125 12.905 179.65 12.68 180 12.23C180.36 11.77 180.555 11.22 180.585 10.58C180.595 10.49 180.6 10.315 180.6 10.055C180.6 9.805 180.595 9.635 180.585 9.545C180.555 8.905 180.36 8.36 180 7.91C179.65 7.45 179.125 7.22 178.425 7.22C177.705 7.22 177.18 7.45 176.85 7.91C176.53 8.36 176.355 8.945 176.325 9.665L176.31 10.055L176.325 10.46C176.355 11.18 176.53 11.77 176.85 12.23C177.18 12.68 177.705 12.905 178.425 12.905ZM190.062 14.15C189.572 14.15 189.117 14.05 188.697 13.85C188.287 13.65 187.957 13.38 187.707 13.04C187.467 12.69 187.347 12.305 187.347 11.885C187.347 11.225 187.617 10.685 188.157 10.265C188.697 9.845 189.432 9.565 190.362 9.425L192.612 9.11V8.675C192.612 7.645 192.017 7.13 190.827 7.13C190.367 7.13 189.997 7.225 189.717 7.415C189.437 7.595 189.232 7.81 189.102 8.06C189.062 8.16 189.017 8.23 188.967 8.27C188.927 8.3 188.867 8.315 188.787 8.315H188.202C188.112 8.315 188.032 8.285 187.962 8.225C187.902 8.155 187.872 8.075 187.872 7.985C187.872 7.755 187.977 7.49 188.187 7.19C188.407 6.88 188.742 6.615 189.192 6.395C189.642 6.165 190.192 6.05 190.842 6.05C191.962 6.05 192.762 6.31 193.242 6.83C193.732 7.35 193.977 8 193.977 8.78V13.655C193.977 13.755 193.942 13.84 193.872 13.91C193.812 13.97 193.732 14 193.632 14H192.972C192.872 14 192.792 13.97 192.732 13.91C192.672 13.84 192.642 13.755 192.642 13.655V12.995C192.422 13.325 192.102 13.6 191.682 13.82C191.262 14.04 190.722 14.15 190.062 14.15ZM190.362 13.055C191.022 13.055 191.562 12.84 191.982 12.41C192.402 11.98 192.612 11.355 192.612 10.535V10.115L190.857 10.37C190.137 10.47 189.592 10.64 189.222 10.88C188.852 11.12 188.667 11.42 188.667 11.78C188.667 12.19 188.832 12.505 189.162 12.725C189.502 12.945 189.902 13.055 190.362 13.055ZM196.494 14C196.394 14 196.309 13.97 196.239 13.91C196.179 13.84 196.149 13.755 196.149 13.655V6.545C196.149 6.445 196.179 6.365 196.239 6.305C196.309 6.235 196.394 6.2 196.494 6.2H197.139C197.249 6.2 197.334 6.23 197.394 6.29C197.454 6.35 197.484 6.435 197.484 6.545V7.205C197.784 6.835 198.129 6.55 198.519 6.35C198.919 6.15 199.414 6.05 200.004 6.05C200.964 6.05 201.709 6.36 202.239 6.98C202.769 7.59 203.034 8.4 203.034 9.41V13.655C203.034 13.755 202.999 13.84 202.929 13.91C202.869 13.97 202.789 14 202.689 14H201.999C201.899 14 201.814 13.97 201.744 13.91C201.684 13.84 201.654 13.755 201.654 13.655V9.5C201.654 8.78 201.479 8.22 201.129 7.82C200.779 7.42 200.279 7.22 199.629 7.22C198.989 7.22 198.479 7.425 198.099 7.835C197.719 8.235 197.529 8.79 197.529 9.5V13.655C197.529 13.755 197.494 13.84 197.424 13.91C197.364 13.97 197.284 14 197.184 14H196.494ZM208.052 14.15C207.002 14.15 206.212 13.81 205.682 13.13C205.162 12.45 204.882 11.59 204.842 10.55L204.827 10.1L204.842 9.65C204.882 8.62 205.167 7.765 205.697 7.085C206.227 6.395 207.012 6.05 208.052 6.05C209.092 6.05 209.902 6.42 210.482 7.16V3.695C210.482 3.595 210.512 3.515 210.572 3.455C210.642 3.385 210.727 3.35 210.827 3.35H211.502C211.602 3.35 211.682 3.385 211.742 3.455C211.812 3.515 211.847 3.595 211.847 3.695V13.655C211.847 13.755 211.812 13.84 211.742 13.91C211.682 13.97 211.602 14 211.502 14H210.857C210.757 14 210.677 13.97 210.617 13.91C210.557 13.84 210.527 13.755 210.527 13.655V13.01C209.957 13.77 209.132 14.15 208.052 14.15ZM208.337 12.98C209.037 12.98 209.562 12.75 209.912 12.29C210.262 11.82 210.452 11.265 210.482 10.625C210.492 10.515 210.497 10.325 210.497 10.055C210.497 9.775 210.492 9.58 210.482 9.47C210.462 8.86 210.267 8.335 209.897 7.895C209.537 7.445 209.017 7.22 208.337 7.22C207.617 7.22 207.092 7.445 206.762 7.895C206.432 8.345 206.252 8.935 206.222 9.665L206.207 10.1C206.207 12.02 206.917 12.98 208.337 12.98ZM220.65 14.15C219.6 14.15 218.81 13.81 218.28 13.13C217.76 12.45 217.48 11.59 217.44 10.55L217.425 10.1L217.44 9.65C217.48 8.62 217.765 7.765 218.295 7.085C218.825 6.395 219.61 6.05 220.65 6.05C221.69 6.05 222.5 6.42 223.08 7.16V3.695C223.08 3.595 223.11 3.515 223.17 3.455C223.24 3.385 223.325 3.35 223.425 3.35H224.1C224.2 3.35 224.28 3.385 224.34 3.455C224.41 3.515 224.445 3.595 224.445 3.695V13.655C224.445 13.755 224.41 13.84 224.34 13.91C224.28 13.97 224.2 14 224.1 14H223.455C223.355 14 223.275 13.97 223.215 13.91C223.155 13.84 223.125 13.755 223.125 13.655V13.01C222.555 13.77 221.73 14.15 220.65 14.15ZM220.935 12.98C221.635 12.98 222.16 12.75 222.51 12.29C222.86 11.82 223.05 11.265 223.08 10.625C223.09 10.515 223.095 10.325 223.095 10.055C223.095 9.775 223.09 9.58 223.08 9.47C223.06 8.86 222.865 8.335 222.495 7.895C222.135 7.445 221.615 7.22 220.935 7.22C220.215 7.22 219.69 7.445 219.36 7.895C219.03 8.345 218.85 8.935 218.82 9.665L218.805 10.1C218.805 12.02 219.515 12.98 220.935 12.98ZM227.051 14C226.951 14 226.866 13.97 226.796 13.91C226.736 13.84 226.706 13.755 226.706 13.655V6.56C226.706 6.46 226.736 6.375 226.796 6.305C226.866 6.235 226.951 6.2 227.051 6.2H227.681C227.791 6.2 227.876 6.235 227.936 6.305C228.006 6.365 228.041 6.45 228.041 6.56V7.22C228.451 6.54 229.146 6.2 230.126 6.2H230.711C230.821 6.2 230.906 6.23 230.966 6.29C231.026 6.35 231.056 6.435 231.056 6.545V7.1C231.056 7.2 231.026 7.285 230.966 7.355C230.906 7.415 230.821 7.445 230.711 7.445H229.856C229.306 7.445 228.871 7.605 228.551 7.925C228.241 8.245 228.086 8.68 228.086 9.23V13.655C228.086 13.755 228.051 13.84 227.981 13.91C227.911 13.97 227.826 14 227.726 14H227.051ZM235.364 14.15C234.264 14.15 233.414 13.84 232.814 13.22C232.224 12.6 231.909 11.775 231.869 10.745L231.854 10.1L231.869 9.455C231.909 8.425 232.229 7.6 232.829 6.98C233.439 6.36 234.284 6.05 235.364 6.05C236.444 6.05 237.284 6.36 237.884 6.98C238.494 7.6 238.819 8.425 238.859 9.455C238.879 9.675 238.889 9.89 238.889 10.1C238.889 10.31 238.879 10.525 238.859 10.745C238.819 11.775 238.499 12.6 237.899 13.22C237.309 13.84 236.464 14.15 235.364 14.15ZM235.364 13.025C236.004 13.025 236.509 12.825 236.879 12.425C237.259 12.015 237.464 11.43 237.494 10.67C237.504 10.57 237.509 10.38 237.509 10.1C237.509 9.82 237.504 9.63 237.494 9.53C237.464 8.77 237.259 8.19 236.879 7.79C236.509 7.38 236.004 7.175 235.364 7.175C234.724 7.175 234.214 7.38 233.834 7.79C233.464 8.19 233.264 8.77 233.234 9.53L233.219 10.1L233.234 10.67C233.264 11.43 233.464 12.015 233.834 12.425C234.214 12.825 234.724 13.025 235.364 13.025ZM241.143 16.85C241.043 16.85 240.958 16.82 240.888 16.76C240.828 16.7 240.798 16.615 240.798 16.505V6.545C240.798 6.435 240.828 6.35 240.888 6.29C240.958 6.23 241.043 6.2 241.143 6.2H241.773C241.883 6.2 241.968 6.23 242.028 6.29C242.088 6.35 242.118 6.435 242.118 6.545V7.205C242.698 6.435 243.523 6.05 244.593 6.05C245.643 6.05 246.428 6.385 246.948 7.055C247.478 7.715 247.758 8.56 247.788 9.59C247.798 9.7 247.803 9.87 247.803 10.1C247.803 10.33 247.798 10.5 247.788 10.61C247.758 11.63 247.478 12.475 246.948 13.145C246.428 13.815 245.643 14.15 244.593 14.15C243.523 14.15 242.713 13.77 242.163 13.01V16.505C242.163 16.605 242.128 16.685 242.058 16.745C241.998 16.815 241.918 16.85 241.818 16.85H241.143ZM244.308 12.98C245.028 12.98 245.553 12.755 245.883 12.305C246.213 11.855 246.393 11.265 246.423 10.535C246.433 10.435 246.438 10.29 246.438 10.1C246.438 8.18 245.728 7.22 244.308 7.22C243.608 7.22 243.078 7.455 242.718 7.925C242.368 8.385 242.183 8.93 242.163 9.56C242.153 9.67 242.148 9.865 242.148 10.145C242.148 10.425 242.153 10.62 242.163 10.73C242.183 11.34 242.373 11.87 242.733 12.32C243.103 12.76 243.628 12.98 244.308 12.98ZM253.741 14C253.641 14 253.556 13.97 253.486 13.91C253.426 13.84 253.396 13.755 253.396 13.655V3.695C253.396 3.585 253.426 3.5 253.486 3.44C253.556 3.38 253.641 3.35 253.741 3.35H254.431C254.541 3.35 254.626 3.38 254.686 3.44C254.746 3.5 254.776 3.585 254.776 3.695V7.19C255.066 6.82 255.406 6.54 255.796 6.35C256.196 6.15 256.686 6.05 257.266 6.05C258.226 6.05 258.971 6.36 259.501 6.98C260.041 7.59 260.311 8.4 260.311 9.41V13.655C260.311 13.755 260.276 13.84 260.206 13.91C260.146 13.97 260.066 14 259.966 14H259.261C259.161 14 259.076 13.97 259.006 13.91C258.946 13.84 258.916 13.755 258.916 13.655V9.5C258.916 8.78 258.741 8.22 258.391 7.82C258.041 7.42 257.536 7.22 256.876 7.22C256.236 7.22 255.726 7.425 255.346 7.835C254.966 8.235 254.776 8.79 254.776 9.5V13.655C254.776 13.755 254.741 13.84 254.671 13.91C254.611 13.97 254.531 14 254.431 14H253.741ZM265.582 14.15C264.562 14.15 263.747 13.835 263.137 13.205C262.527 12.565 262.192 11.695 262.132 10.595L262.117 10.085L262.132 9.59C262.192 8.51 262.527 7.65 263.137 7.01C263.747 6.37 264.562 6.05 265.582 6.05C266.682 6.05 267.532 6.4 268.132 7.1C268.742 7.8 269.047 8.75 269.047 9.95V10.22C269.047 10.32 269.012 10.405 268.942 10.475C268.882 10.535 268.802 10.565 268.702 10.565H263.497V10.7C263.527 11.35 263.727 11.905 264.097 12.365C264.467 12.825 264.957 13.055 265.567 13.055C266.037 13.055 266.417 12.965 266.707 12.785C267.007 12.595 267.232 12.4 267.382 12.2C267.472 12.08 267.542 12.01 267.592 11.99C267.642 11.96 267.727 11.945 267.847 11.945H268.507C268.597 11.945 268.672 11.97 268.732 12.02C268.802 12.07 268.837 12.135 268.837 12.215C268.837 12.435 268.702 12.7 268.432 13.01C268.162 13.32 267.777 13.59 267.277 13.82C266.787 14.04 266.222 14.15 265.582 14.15ZM267.682 9.545V9.5C267.682 8.8 267.492 8.23 267.112 7.79C266.732 7.35 266.222 7.13 265.582 7.13C264.932 7.13 264.422 7.35 264.052 7.79C263.682 8.23 263.497 8.8 263.497 9.5V9.545H267.682ZM271.216 14C271.116 14 271.031 13.97 270.961 13.91C270.901 13.84 270.871 13.755 270.871 13.655V6.56C270.871 6.46 270.901 6.375 270.961 6.305C271.031 6.235 271.116 6.2 271.216 6.2H271.846C271.956 6.2 272.041 6.235 272.101 6.305C272.171 6.365 272.206 6.45 272.206 6.56V7.22C272.616 6.54 273.311 6.2 274.291 6.2H274.876C274.986 6.2 275.071 6.23 275.131 6.29C275.191 6.35 275.221 6.435 275.221 6.545V7.1C275.221 7.2 275.191 7.285 275.131 7.355C275.071 7.415 274.986 7.445 274.876 7.445H274.021C273.471 7.445 273.036 7.605 272.716 7.925C272.406 8.245 272.251 8.68 272.251 9.23V13.655C272.251 13.755 272.216 13.84 272.146 13.91C272.076 13.97 271.991 14 271.891 14H271.216ZM279.454 14.15C278.434 14.15 277.619 13.835 277.009 13.205C276.399 12.565 276.064 11.695 276.004 10.595L275.989 10.085L276.004 9.59C276.064 8.51 276.399 7.65 277.009 7.01C277.619 6.37 278.434 6.05 279.454 6.05C280.554 6.05 281.404 6.4 282.004 7.1C282.614 7.8 282.919 8.75 282.919 9.95V10.22C282.919 10.32 282.884 10.405 282.814 10.475C282.754 10.535 282.674 10.565 282.574 10.565H277.369V10.7C277.399 11.35 277.599 11.905 277.969 12.365C278.339 12.825 278.829 13.055 279.439 13.055C279.909 13.055 280.289 12.965 280.579 12.785C280.879 12.595 281.104 12.4 281.254 12.2C281.344 12.08 281.414 12.01 281.464 11.99C281.514 11.96 281.599 11.945 281.719 11.945H282.379C282.469 11.945 282.544 11.97 282.604 12.02C282.674 12.07 282.709 12.135 282.709 12.215C282.709 12.435 282.574 12.7 282.304 13.01C282.034 13.32 281.649 13.59 281.149 13.82C280.659 14.04 280.094 14.15 279.454 14.15ZM281.554 9.545V9.5C281.554 8.8 281.364 8.23 280.984 7.79C280.604 7.35 280.094 7.13 279.454 7.13C278.804 7.13 278.294 7.35 277.924 7.79C277.554 8.23 277.369 8.8 277.369 9.5V9.545H281.554Z" fill="#4A5567"/>
<path d="M56.43 38C56.3433 38 56.274 37.974 56.222 37.922C56.17 37.8613 56.144 37.7877 56.144 37.701V29.212C56.144 29.1167 56.17 29.043 56.222 28.991C56.274 28.9303 56.3433 28.9 56.43 28.9H59.719C60.6983 28.9 61.4653 29.1383 62.02 29.615C62.5833 30.083 62.865 30.7677 62.865 31.669C62.865 32.5703 62.5833 33.255 62.02 33.723C61.4653 34.191 60.6983 34.425 59.719 34.425H57.379V37.701C57.379 37.7877 57.3487 37.8613 57.288 37.922C57.236 37.974 57.1667 38 57.08 38H56.43ZM59.654 33.372C60.9627 33.372 61.617 32.8043 61.617 31.669C61.617 31.1143 61.4523 30.6897 61.123 30.395C60.8023 30.1003 60.3127 29.953 59.654 29.953H57.379V33.372H59.654ZM64.7581 38C64.6715 38 64.6021 37.974 64.5501 37.922C64.4981 37.8613 64.4721 37.7877 64.4721 37.701V29.212C64.4721 29.1167 64.4981 29.043 64.5501 28.991C64.6021 28.9303 64.6715 28.9 64.7581 28.9H65.3301C65.4168 28.9 65.4818 28.9173 65.5251 28.952C65.5685 28.9867 65.6118 29.03 65.6551 29.082L70.0101 35.79V29.212C70.0101 29.1167 70.0361 29.043 70.0881 28.991C70.1488 28.9303 70.2225 28.9 70.3091 28.9H70.8941C70.9895 28.9 71.0631 28.9303 71.1151 28.991C71.1758 29.043 71.2061 29.1167 71.2061 29.212V37.688C71.2061 37.7747 71.1758 37.8483 71.1151 37.909C71.0631 37.9697 70.9938 38 70.9071 38H70.3221C70.1748 38 70.0708 37.9393 70.0101 37.818L65.6551 31.175V37.701C65.6551 37.7877 65.6248 37.8613 65.5641 37.922C65.5121 37.974 65.4428 38 65.3561 38H64.7581ZM76.7748 38.13C75.6481 38.13 74.7728 37.818 74.1488 37.194C73.5248 36.57 73.1911 35.725 73.1478 34.659C73.1391 34.399 73.1348 33.9917 73.1348 33.437C73.1348 32.8737 73.1391 32.4663 73.1478 32.215C73.1825 31.1577 73.5118 30.3213 74.1358 29.706C74.7685 29.082 75.6481 28.77 76.7748 28.77C77.5375 28.77 78.1831 28.9087 78.7118 29.186C79.2405 29.4633 79.6391 29.797 79.9078 30.187C80.1765 30.5683 80.3195 30.9237 80.3368 31.253V31.279C80.3368 31.3483 80.3065 31.409 80.2458 31.461C80.1938 31.5043 80.1331 31.526 80.0638 31.526H79.3358C79.2578 31.526 79.1971 31.5087 79.1538 31.474C79.1191 31.4393 79.0845 31.3743 79.0498 31.279C78.9111 30.8717 78.6555 30.5293 78.2828 30.252C77.9101 29.9747 77.4075 29.836 76.7748 29.836C76.0468 29.836 75.4748 30.0353 75.0588 30.434C74.6428 30.8327 74.4218 31.448 74.3958 32.28C74.3871 32.5313 74.3828 32.917 74.3828 33.437C74.3828 33.9483 74.3871 34.334 74.3958 34.594C74.4218 35.4347 74.6428 36.0543 75.0588 36.453C75.4748 36.8517 76.0468 37.051 76.7748 37.051C77.5115 37.051 78.1008 36.8517 78.5428 36.453C78.9848 36.0457 79.2058 35.439 79.2058 34.633V34.074H77.2168C77.1301 34.074 77.0565 34.0437 76.9958 33.983C76.9438 33.9223 76.9178 33.8487 76.9178 33.762V33.372C76.9178 33.2853 76.9438 33.2117 76.9958 33.151C77.0565 33.0903 77.1301 33.06 77.2168 33.06H80.1288C80.2241 33.06 80.2978 33.0903 80.3498 33.151C80.4105 33.203 80.4408 33.2767 80.4408 33.372V34.607C80.4408 35.309 80.2935 35.9287 79.9988 36.466C79.7128 36.9947 79.2925 37.4063 78.7378 37.701C78.1831 37.987 77.5288 38.13 76.7748 38.13ZM81.8459 38.975C81.7679 38.975 81.7072 38.949 81.6639 38.897C81.6292 38.845 81.6206 38.78 81.6379 38.702L81.9239 36.869C81.9586 36.6177 82.0799 36.492 82.2879 36.492H83.1199C83.1806 36.492 83.2326 36.518 83.2759 36.57C83.3192 36.6133 83.3409 36.661 83.3409 36.713C83.3409 36.7823 83.3236 36.856 83.2889 36.934L82.6129 38.676C82.5349 38.8753 82.4136 38.975 82.2489 38.975H81.8459ZM91.2207 38.13C90.2761 38.13 89.4917 37.9003 88.8677 37.441C88.2524 36.973 87.9274 36.2883 87.8927 35.387C87.8927 35.309 87.9187 35.244 87.9707 35.192C88.0227 35.1313 88.0877 35.101 88.1657 35.101H88.8287C89.0194 35.101 89.1277 35.2007 89.1537 35.4C89.2057 35.9633 89.4224 36.3793 89.8037 36.648C90.1851 36.9167 90.6617 37.051 91.2337 37.051C91.8924 37.051 92.3994 36.8343 92.7547 36.401C93.1187 35.9677 93.3007 35.3827 93.3007 34.646V29.992H88.6597C88.5731 29.992 88.4994 29.966 88.4387 29.914C88.3867 29.8533 88.3607 29.7797 88.3607 29.693V29.199C88.3607 29.1123 88.3867 29.043 88.4387 28.991C88.4994 28.9303 88.5731 28.9 88.6597 28.9H94.2367C94.3321 28.9 94.4057 28.9303 94.4577 28.991C94.5184 29.043 94.5487 29.1167 94.5487 29.212V34.672C94.5487 35.3653 94.4144 35.972 94.1457 36.492C93.8857 37.012 93.5044 37.415 93.0017 37.701C92.4991 37.987 91.9054 38.13 91.2207 38.13ZM97.0296 38C96.9429 38 96.8736 37.974 96.8216 37.922C96.7696 37.8613 96.7436 37.7877 96.7436 37.701V29.212C96.7436 29.1167 96.7696 29.043 96.8216 28.991C96.8736 28.9303 96.9429 28.9 97.0296 28.9H100.319C101.298 28.9 102.065 29.1383 102.62 29.615C103.183 30.083 103.465 30.7677 103.465 31.669C103.465 32.5703 103.183 33.255 102.62 33.723C102.065 34.191 101.298 34.425 100.319 34.425H97.9786V37.701C97.9786 37.7877 97.9483 37.8613 97.8876 37.922C97.8356 37.974 97.7663 38 97.6796 38H97.0296ZM100.254 33.372C101.562 33.372 102.217 32.8043 102.217 31.669C102.217 31.1143 102.052 30.6897 101.723 30.395C101.402 30.1003 100.912 29.953 100.254 29.953H97.9786V33.372H100.254ZM108.361 38.13C107.234 38.13 106.359 37.818 105.735 37.194C105.111 36.57 104.777 35.725 104.734 34.659C104.725 34.399 104.721 33.9917 104.721 33.437C104.721 32.8737 104.725 32.4663 104.734 32.215C104.768 31.1577 105.098 30.3213 105.722 29.706C106.354 29.082 107.234 28.77 108.361 28.77C109.123 28.77 109.769 28.9087 110.298 29.186C110.826 29.4633 111.225 29.797 111.494 30.187C111.762 30.5683 111.905 30.9237 111.923 31.253V31.279C111.923 31.3483 111.892 31.409 111.832 31.461C111.78 31.5043 111.719 31.526 111.65 31.526H110.922C110.844 31.526 110.783 31.5087 110.74 31.474C110.705 31.4393 110.67 31.3743 110.636 31.279C110.497 30.8717 110.241 30.5293 109.869 30.252C109.496 29.9747 108.993 29.836 108.361 29.836C107.633 29.836 107.061 30.0353 106.645 30.434C106.229 30.8327 106.008 31.448 105.982 32.28C105.973 32.5313 105.969 32.917 105.969 33.437C105.969 33.9483 105.973 34.334 105.982 34.594C106.008 35.4347 106.229 36.0543 106.645 36.453C107.061 36.8517 107.633 37.051 108.361 37.051C109.097 37.051 109.687 36.8517 110.129 36.453C110.571 36.0457 110.792 35.439 110.792 34.633V34.074H108.803C108.716 34.074 108.642 34.0437 108.582 33.983C108.53 33.9223 108.504 33.8487 108.504 33.762V33.372C108.504 33.2853 108.53 33.2117 108.582 33.151C108.642 33.0903 108.716 33.06 108.803 33.06H111.715C111.81 33.06 111.884 33.0903 111.936 33.151C111.996 33.203 112.027 33.2767 112.027 33.372V34.607C112.027 35.309 111.879 35.9287 111.585 36.466C111.299 36.9947 110.878 37.4063 110.324 37.701C109.769 37.987 109.115 38.13 108.361 38.13ZM113.432 38.975C113.354 38.975 113.293 38.949 113.25 38.897C113.215 38.845 113.207 38.78 113.224 38.702L113.51 36.869C113.545 36.6177 113.666 36.492 113.874 36.492H114.706C114.767 36.492 114.819 36.518 114.862 36.57C114.905 36.6133 114.927 36.661 114.927 36.713C114.927 36.7823 114.91 36.856 114.875 36.934L114.199 38.676C114.121 38.8753 114 38.975 113.835 38.975H113.432ZM120.402 38C120.315 38 120.246 37.974 120.194 37.922C120.142 37.8613 120.116 37.7877 120.116 37.701V29.212C120.116 29.1167 120.142 29.043 120.194 28.991C120.246 28.9303 120.315 28.9 120.402 28.9H123.691C124.67 28.9 125.437 29.1383 125.992 29.615C126.555 30.083 126.837 30.7677 126.837 31.669C126.837 32.5703 126.555 33.255 125.992 33.723C125.437 34.191 124.67 34.425 123.691 34.425H121.351V37.701C121.351 37.7877 121.32 37.8613 121.26 37.922C121.208 37.974 121.138 38 121.052 38H120.402ZM123.626 33.372C124.934 33.372 125.589 32.8043 125.589 31.669C125.589 31.1143 125.424 30.6897 125.095 30.395C124.774 30.1003 124.284 29.953 123.626 29.953H121.351V33.372H123.626ZM128.73 38C128.643 38 128.574 37.974 128.522 37.922C128.47 37.8613 128.444 37.7877 128.444 37.701V29.212C128.444 29.1167 128.47 29.043 128.522 28.991C128.574 28.9303 128.643 28.9 128.73 28.9H131.668C132.976 28.9 133.921 29.1947 134.502 29.784C135.082 30.3647 135.381 31.2443 135.399 32.423C135.407 32.6743 135.412 33.0123 135.412 33.437C135.412 33.8617 135.407 34.204 135.399 34.464C135.381 35.2873 135.247 35.959 134.996 36.479C134.753 36.9903 134.367 37.3717 133.839 37.623C133.31 37.8743 132.608 38 131.733 38H128.73ZM131.668 36.921C132.274 36.921 132.755 36.8387 133.111 36.674C133.475 36.5007 133.735 36.2363 133.891 35.881C134.055 35.517 134.146 35.0273 134.164 34.412C134.181 33.892 134.19 33.567 134.19 33.437C134.19 33.2983 134.181 32.9777 134.164 32.475C134.146 31.6083 133.938 30.9757 133.54 30.577C133.15 30.1697 132.504 29.966 131.603 29.966H129.666V36.921H131.668ZM137.68 38C137.593 38 137.524 37.974 137.472 37.922C137.42 37.8613 137.394 37.7877 137.394 37.701V29.212C137.394 29.1167 137.42 29.043 137.472 28.991C137.524 28.9303 137.593 28.9 137.68 28.9H142.958C143.053 28.9 143.127 28.9303 143.179 28.991C143.24 29.043 143.27 29.1167 143.27 29.212V29.693C143.27 29.7797 143.24 29.8533 143.179 29.914C143.127 29.966 143.053 29.992 142.958 29.992H138.603V33.073H142.698C142.793 33.073 142.867 33.1033 142.919 33.164C142.98 33.216 143.01 33.2853 143.01 33.372V33.866C143.01 33.9527 142.98 34.0263 142.919 34.087C142.858 34.139 142.785 34.165 142.698 34.165H138.603V37.701C138.603 37.7877 138.573 37.8613 138.512 37.922C138.451 37.974 138.378 38 138.291 38H137.68ZM150.322 38.13C149.499 38.13 148.862 37.8657 148.411 37.337C147.961 36.7997 147.735 36.089 147.735 35.205V31.539C147.735 31.4523 147.761 31.383 147.813 31.331C147.874 31.2703 147.948 31.24 148.034 31.24H148.632C148.719 31.24 148.788 31.2703 148.84 31.331C148.901 31.383 148.931 31.4523 148.931 31.539V35.14C148.931 36.4573 149.503 37.116 150.647 37.116C151.202 37.116 151.64 36.9427 151.96 36.596C152.29 36.2407 152.454 35.7553 152.454 35.14V31.539C152.454 31.4523 152.48 31.383 152.532 31.331C152.593 31.2703 152.667 31.24 152.753 31.24H153.351C153.438 31.24 153.507 31.2703 153.559 31.331C153.62 31.383 153.65 31.4523 153.65 31.539V37.701C153.65 37.7877 153.62 37.8613 153.559 37.922C153.507 37.974 153.438 38 153.351 38H152.792C152.706 38 152.632 37.974 152.571 37.922C152.519 37.8613 152.493 37.7877 152.493 37.701V37.116C152.242 37.454 151.947 37.7097 151.609 37.883C151.271 38.0477 150.842 38.13 150.322 38.13ZM155.907 40.47C155.82 40.47 155.747 40.444 155.686 40.392C155.634 40.34 155.608 40.2663 155.608 40.171V31.539C155.608 31.4437 155.634 31.37 155.686 31.318C155.747 31.266 155.82 31.24 155.907 31.24H156.453C156.548 31.24 156.622 31.266 156.674 31.318C156.726 31.37 156.752 31.4437 156.752 31.539V32.111C157.255 31.4437 157.97 31.11 158.897 31.11C159.807 31.11 160.487 31.4003 160.938 31.981C161.397 32.553 161.64 33.2853 161.666 34.178C161.675 34.2733 161.679 34.4207 161.679 34.62C161.679 34.8193 161.675 34.9667 161.666 35.062C161.64 35.946 161.397 36.6783 160.938 37.259C160.487 37.8397 159.807 38.13 158.897 38.13C157.97 38.13 157.268 37.8007 156.791 37.142V40.171C156.791 40.2577 156.761 40.327 156.7 40.379C156.648 40.4397 156.579 40.47 156.492 40.47H155.907ZM158.65 37.116C159.274 37.116 159.729 36.921 160.015 36.531C160.301 36.141 160.457 35.6297 160.483 34.997C160.492 34.9103 160.496 34.7847 160.496 34.62C160.496 32.956 159.881 32.124 158.65 32.124C158.043 32.124 157.584 32.3277 157.272 32.735C156.969 33.1337 156.808 33.606 156.791 34.152C156.782 34.2473 156.778 34.4163 156.778 34.659C156.778 34.9017 156.782 35.0707 156.791 35.166C156.808 35.6947 156.973 36.154 157.285 36.544C157.606 36.9253 158.061 37.116 158.65 37.116ZM168.834 38C167.49 38 166.819 37.2417 166.819 35.725V32.241H165.792C165.705 32.241 165.636 32.215 165.584 32.163C165.532 32.111 165.506 32.0417 165.506 31.955V31.539C165.506 31.4523 165.532 31.383 165.584 31.331C165.636 31.2703 165.705 31.24 165.792 31.24H166.819V29.069C166.819 28.9823 166.845 28.913 166.897 28.861C166.949 28.8003 167.018 28.77 167.105 28.77H167.677C167.763 28.77 167.833 28.8003 167.885 28.861C167.945 28.913 167.976 28.9823 167.976 29.069V31.24H169.588C169.674 31.24 169.744 31.2703 169.796 31.331C169.856 31.383 169.887 31.4523 169.887 31.539V31.955C169.887 32.0417 169.856 32.111 169.796 32.163C169.744 32.215 169.674 32.241 169.588 32.241H167.976V35.634C167.976 36.076 168.045 36.4097 168.184 36.635C168.331 36.8603 168.578 36.973 168.925 36.973H169.718C169.804 36.973 169.874 37.0033 169.926 37.064C169.978 37.116 170.004 37.1853 170.004 37.272V37.701C170.004 37.7877 169.978 37.8613 169.926 37.922C169.874 37.974 169.804 38 169.718 38H168.834ZM174.017 38.13C173.063 38.13 172.327 37.8613 171.807 37.324C171.295 36.7867 171.022 36.0717 170.988 35.179L170.975 34.62L170.988 34.061C171.022 33.1683 171.3 32.4533 171.82 31.916C172.348 31.3787 173.081 31.11 174.017 31.11C174.953 31.11 175.681 31.3787 176.201 31.916C176.729 32.4533 177.011 33.1683 177.046 34.061C177.063 34.2517 177.072 34.438 177.072 34.62C177.072 34.802 177.063 34.9883 177.046 35.179C177.011 36.0717 176.734 36.7867 176.214 37.324C175.702 37.8613 174.97 38.13 174.017 38.13ZM174.017 37.155C174.571 37.155 175.009 36.9817 175.33 36.635C175.659 36.2797 175.837 35.7727 175.863 35.114C175.871 35.0273 175.876 34.8627 175.876 34.62C175.876 34.3773 175.871 34.2127 175.863 34.126C175.837 33.4673 175.659 32.9647 175.33 32.618C175.009 32.2627 174.571 32.085 174.017 32.085C173.462 32.085 173.02 32.2627 172.691 32.618C172.37 32.9647 172.197 33.4673 172.171 34.126L172.158 34.62L172.171 35.114C172.197 35.7727 172.37 36.2797 172.691 36.635C173.02 36.9817 173.462 37.155 174.017 37.155ZM184.526 38C184.439 38 184.37 37.974 184.318 37.922C184.266 37.8613 184.24 37.7877 184.24 37.701V30.369L182.056 32.046C181.995 32.098 181.93 32.124 181.861 32.124C181.783 32.124 181.709 32.0807 181.64 31.994L181.328 31.591C181.284 31.5303 181.263 31.4697 181.263 31.409C181.263 31.3137 181.306 31.2357 181.393 31.175L184.214 28.991C184.309 28.9303 184.422 28.9 184.552 28.9H185.163C185.249 28.9 185.319 28.9303 185.371 28.991C185.431 29.043 185.462 29.1123 185.462 29.199V37.701C185.462 37.7877 185.431 37.8613 185.371 37.922C185.319 37.974 185.249 38 185.163 38H184.526ZM190.568 38.13C189.45 38.13 188.631 37.805 188.111 37.155C187.6 36.4963 187.327 35.6383 187.292 34.581L187.279 33.463L187.292 32.306C187.318 31.2573 187.591 30.408 188.111 29.758C188.64 29.0993 189.459 28.77 190.568 28.77C191.686 28.77 192.505 29.0993 193.025 29.758C193.554 30.408 193.831 31.2573 193.857 32.306C193.866 32.5487 193.87 32.9343 193.87 33.463C193.87 33.9743 193.866 34.347 193.857 34.581C193.822 35.6383 193.545 36.4963 193.025 37.155C192.514 37.805 191.695 38.13 190.568 38.13ZM190.568 37.051C191.235 37.051 191.738 36.83 192.076 36.388C192.414 35.946 192.592 35.322 192.609 34.516C192.618 34.2647 192.622 33.905 192.622 33.437C192.622 32.9603 192.618 32.605 192.609 32.371C192.592 31.5737 192.41 30.954 192.063 30.512C191.725 30.0613 191.227 29.836 190.568 29.836C189.909 29.836 189.411 30.0613 189.073 30.512C188.735 30.954 188.557 31.5737 188.54 32.371L188.527 33.437L188.54 34.516C188.557 35.322 188.735 35.946 189.073 36.388C189.411 36.83 189.909 37.051 190.568 37.051ZM199.16 38C199.073 38 198.999 37.974 198.939 37.922C198.887 37.8613 198.861 37.7877 198.861 37.701V31.539C198.861 31.4523 198.887 31.383 198.939 31.331C198.999 31.2703 199.073 31.24 199.16 31.24H199.706C199.792 31.24 199.862 31.2703 199.914 31.331C199.966 31.383 199.992 31.4523 199.992 31.539V31.981C200.46 31.4003 201.092 31.11 201.89 31.11C202.843 31.11 203.519 31.5087 203.918 32.306C204.126 31.942 204.42 31.6517 204.802 31.435C205.192 31.2183 205.625 31.11 206.102 31.11C206.812 31.11 207.393 31.3527 207.844 31.838C208.294 32.3233 208.52 33.0253 208.52 33.944V37.701C208.52 37.7877 208.489 37.8613 208.429 37.922C208.377 37.974 208.307 38 208.221 38H207.662C207.575 38 207.501 37.974 207.441 37.922C207.389 37.8613 207.363 37.7877 207.363 37.701V34.061C207.363 33.3677 207.22 32.8737 206.934 32.579C206.648 32.2757 206.271 32.124 205.803 32.124C205.387 32.124 205.027 32.28 204.724 32.592C204.429 32.8953 204.282 33.385 204.282 34.061V37.701C204.282 37.7877 204.251 37.8613 204.191 37.922C204.139 37.974 204.069 38 203.983 38H203.411C203.324 38 203.25 37.974 203.19 37.922C203.138 37.8613 203.112 37.7877 203.112 37.701V34.061C203.112 33.3763 202.96 32.8823 202.657 32.579C202.362 32.2757 201.994 32.124 201.552 32.124C201.136 32.124 200.776 32.2757 200.473 32.579C200.178 32.8823 200.031 33.372 200.031 34.048V37.701C200.031 37.7877 200 37.8613 199.94 37.922C199.888 37.974 199.818 38 199.732 38H199.16ZM213.703 38.13C212.767 38.13 212.052 37.8007 211.558 37.142V37.701C211.558 37.7877 211.527 37.8613 211.467 37.922C211.415 37.974 211.345 38 211.259 38H210.713C210.626 38 210.552 37.974 210.492 37.922C210.44 37.8613 210.414 37.7877 210.414 37.701V29.069C210.414 28.9737 210.44 28.9 210.492 28.848C210.552 28.796 210.626 28.77 210.713 28.77H211.298C211.384 28.77 211.454 28.8003 211.506 28.861C211.566 28.913 211.597 28.9823 211.597 29.069V32.072C212.082 31.4307 212.784 31.11 213.703 31.11C214.613 31.11 215.293 31.409 215.744 32.007C216.203 32.5963 216.446 33.3373 216.472 34.23C216.48 34.3253 216.485 34.4553 216.485 34.62C216.485 34.7847 216.48 34.9147 216.472 35.01C216.446 35.9027 216.203 36.648 215.744 37.246C215.293 37.8353 214.613 38.13 213.703 38.13ZM213.456 37.116C214.08 37.116 214.535 36.921 214.821 36.531C215.107 36.141 215.263 35.6297 215.289 34.997C215.297 34.9103 215.302 34.7847 215.302 34.62C215.302 32.956 214.686 32.124 213.456 32.124C212.866 32.124 212.411 32.319 212.091 32.709C211.779 33.0903 211.614 33.5453 211.597 34.074C211.588 34.1693 211.584 34.3383 211.584 34.581C211.584 34.815 211.588 34.9797 211.597 35.075C211.614 35.6297 211.774 36.1107 212.078 36.518C212.39 36.9167 212.849 37.116 213.456 37.116Z" fill="#9AA6B8"/>
</svg>
