<svg width="20" height="20" viewBox="0 0 20 20" fill="none" xmlns="http://www.w3.org/2000/svg">
<path d="M10 20C15.5228 20 20 15.5228 20 10C20 4.47715 15.5228 0 10 0C4.47715 0 0 4.47715 0 10C0 15.5228 4.47715 20 10 20Z" fill="#97A4BD"/>
<path d="M14.7985 14.3462V13.4985C14.7985 13.2059 14.6953 12.9177 14.5059 12.6939C14.3295 12.4831 14.1015 12.2378 13.9164 12.0958C13.0989 11.4762 11.9027 11.0803 10.4956 10.9641C9.98356 10.9211 9.79853 10.9254 9.26927 10.9856C7.58252 11.1793 6.29164 11.7645 5.62039 12.638C5.59457 12.6724 5.56875 12.7025 5.54724 12.7326C5.37942 12.9521 5.28906 13.2189 5.28906 13.4942V14.3505C5.28906 15.0777 5.87856 15.6672 6.60576 15.6672H13.4861C14.209 15.6586 14.7985 15.0691 14.7985 14.3462Z" fill="#97A4BD"/>
<path d="M9.99918 9.70343C11.2112 9.70343 12.1937 8.72093 12.1937 7.50894C12.1937 6.29696 11.2112 5.31445 9.99918 5.31445C8.78719 5.31445 7.80469 6.29696 7.80469 7.50894C7.80469 8.72093 8.78719 9.70343 9.99918 9.70343Z" fill="#97A4BD"/>
<path d="M14.7985 13.7867V12.939C14.7985 12.6464 14.6953 12.3581 14.5059 12.1343C14.3295 11.9235 14.1015 11.6782 13.9164 11.5362C13.0989 10.9166 11.9027 10.5207 10.4956 10.4046C9.98356 10.3615 9.79853 10.3658 9.26927 10.4261C7.58252 10.6197 6.29164 11.2049 5.62039 12.0784C5.59457 12.1128 5.56875 12.1429 5.54724 12.1731C5.37942 12.3925 5.28906 12.6593 5.28906 12.9347V13.791C5.28906 14.5181 5.87856 15.1076 6.60576 15.1076H13.4861C14.209 15.1033 14.7985 14.5138 14.7985 13.7867Z" fill="white"/>
<path d="M9.99918 9.14387C11.2112 9.14387 12.1937 8.16136 12.1937 6.94938C12.1937 5.73739 11.2112 4.75488 9.99918 4.75488C8.78719 4.75488 7.80469 5.73739 7.80469 6.94938C7.80469 8.16136 8.78719 9.14387 9.99918 9.14387Z" fill="white"/>
</svg>
