<svg width="14" height="14" viewBox="0 0 14 14" fill="none" xmlns="http://www.w3.org/2000/svg">
<path d="M1.78742 4.38116C2.27275 3.41472 3.0173 2.60229 3.93783 2.03468C4.85837 1.46707 5.91862 1.16665 7.00008 1.16699C8.57217 1.16699 9.89283 1.74449 10.9026 2.68658L9.23017 4.35958C8.62525 3.78149 7.85642 3.48691 7.00008 3.48691C5.4805 3.48691 4.19425 4.51358 3.73633 5.89199C3.61967 6.24199 3.55317 6.61533 3.55317 7.00033C3.55317 7.38533 3.61967 7.75866 3.73633 8.10866C4.19483 9.48766 5.4805 10.5137 7.00008 10.5137C7.78467 10.5137 8.45258 10.3067 8.97525 9.95666C9.27825 9.75716 9.53766 9.49829 9.73778 9.1957C9.93791 8.89311 10.0746 8.55307 10.1396 8.19616H7.00008V5.93983H12.4939C12.5627 6.32133 12.6001 6.71916 12.6001 7.13274C12.6001 8.90958 11.9642 10.4052 10.8606 11.4202C9.89575 12.3116 8.57508 12.8337 7.00008 12.8337C6.23395 12.834 5.47527 12.6833 4.7674 12.3902C4.05953 12.0972 3.41634 11.6675 2.87461 11.1258C2.33287 10.5841 1.9032 9.94088 1.61016 9.23301C1.31712 8.52514 1.16644 7.76646 1.16675 7.00033C1.16675 6.05883 1.39192 5.16866 1.78742 4.38116Z" fill="white"/>
</svg>
