<svg width="20" height="20" viewBox="0 0 20 20" fill="none" xmlns="http://www.w3.org/2000/svg">
<path fill-rule="evenodd" clip-rule="evenodd" d="M10 20C4.477 20 0 15.523 0 10C0 4.477 4.477 0 10 0C15.523 0 20 4.477 20 10C20 15.523 15.523 20 10 20ZM9.70987 13.2929C9.31936 13.6835 8.68615 13.6835 8.29561 13.293L5.46677 10.4641C5.0763 10.0737 5.0763 9.4406 5.46677 9.05014C5.85723 8.65967 6.4903 8.65967 6.88077 9.05014L8.2956 10.465C8.68614 10.8555 9.31936 10.8555 9.70987 10.4649L13.9518 6.22226C14.3422 5.83173 14.9753 5.83171 15.3658 6.22219C15.7563 6.61264 15.7563 7.24566 15.3659 7.63613L9.70987 13.2929Z" fill="#65C692"/>
</svg>
