<svg width="20" height="20" viewBox="0 0 20 20" fill="none" xmlns="http://www.w3.org/2000/svg">
<path fill-rule="evenodd" clip-rule="evenodd" d="M15.1852 4.54757C15.172 4.54757 15.1631 4.54757 15.1499 4.54757C14.9288 4.54757 14.7254 4.636 14.5751 4.77306C14.3319 4.96318 14.1772 5.25942 14.1772 5.59102V8.06699V9.77806C13.9826 10.5783 13.6643 9.77806 13.6643 9.77806V5.68829V3.21232C13.6643 2.64638 13.2045 2.17772 12.6385 2.16445C12.6297 2.16445 12.6253 2.16445 12.6164 2.16445C12.0416 2.16445 11.5685 2.63754 11.5685 3.21232V5.68829V9.7029C11.4005 10.4413 10.9938 9.66311 10.9938 9.66311V8.60198V4.57852V2.10255C10.9938 1.52777 10.5207 1.05469 9.9459 1.05469C9.37112 1.05469 8.89803 1.52777 8.89803 2.10255V4.57852V9.47741V9.77806C8.50453 10.428 8.17293 9.8488 8.17293 9.8488V8.6285V6.08179V3.60582C8.17293 3.03104 7.69984 2.55796 7.12506 2.55796C7.1118 2.55796 7.09853 2.55796 7.08527 2.55796C7.072 2.55796 7.06316 2.55796 7.0499 2.55796C6.82883 2.55796 6.62545 2.64638 6.47512 2.78345C6.23194 2.97356 6.07719 3.2698 6.07719 3.6014V6.07737V8.62408V9.65426V9.8886L6.09488 9.90186C6.47512 12.453 6.62987 11.666 8.22598 12.705C8.99088 13.2002 9.59219 13.7396 9.89726 15.265C10.2023 16.7904 9.43744 16.0299 9.43744 16.0299C7.42129 11.5997 5.86497 15.2119 4.90111 9.25192C4.74636 8.28806 3.49069 8.87168 3.29615 10.4368C2.73463 15.0483 5.90034 19.62 10.503 19.62C16.9936 19.62 16.2552 13.1472 16.2552 13.1472V12.9659V10.8038V8.06257V5.5866C16.2552 5.01182 15.7821 4.53873 15.2073 4.53873C15.1941 4.53873 15.1808 4.53873 15.1675 4.53873L15.1852 4.54757Z" fill="#B4C0D4"/>
</svg>
