<svg width="44" height="44" viewBox="0 0 44 44" fill="none" xmlns="http://www.w3.org/2000/svg">
<circle cx="22" cy="22" r="22" fill="#97A4BD"/>
<path d="M17.833 29.4844C16.6947 29.397 15.6132 28.9522 14.7427 28.2134C13.8723 27.4747 13.2576 26.4798 12.9862 25.3709C12.7149 24.262 12.8009 23.0957 13.232 22.0385C13.663 20.9814 14.417 20.0875 15.3864 19.4844C15.5926 17.8761 16.3779 16.3981 17.5951 15.327C18.8124 14.2559 20.3783 13.665 21.9997 13.665C23.6211 13.665 25.187 14.2559 26.4043 15.327C27.6215 16.3981 28.4068 17.8761 28.613 19.4844C29.5824 20.0875 30.3364 20.9814 30.7674 22.0385C31.1985 23.0957 31.2845 24.262 31.0132 25.3709C30.7418 26.4798 30.1271 27.4747 29.2567 28.2134C28.3862 28.9522 27.3047 29.397 26.1664 29.4844V29.5002H17.833V29.4844ZM22.833 22.0002V18.6669H21.1664V22.0002H18.6664L21.9997 26.1669L25.333 22.0002H22.833Z" fill="white"/>
</svg>
