<svg width="20" height="20" viewBox="0 0 20 20" fill="none" xmlns="http://www.w3.org/2000/svg">
<path d="M10 20C4.477 20 0 15.523 0 10C0 4.477 4.477 0 10 0C15.523 0 20 4.477 20 10C20 15.523 15.523 20 10 20Z" fill="#97A4BD"/>
<path d="M9 15V9.24615C9 8.69387 9.44772 8.24615 10 8.24615C10.5523 8.24615 11 8.69387 11 9.24615V15C11 15.5523 10.5523 16 10 16C9.44772 16 9 15.5523 9 15Z" fill="white"/>
<path d="M9 5.58462V5C9 4.44772 9.44772 4 10 4C10.5523 4 11 4.44771 11 5V5.58462C11 6.1369 10.5523 6.58462 10 6.58462C9.44772 6.58462 9 6.1369 9 5.58462Z" fill="white"/>
</svg>
