<svg width="21" height="19" viewBox="0 0 21 19" fill="none" xmlns="http://www.w3.org/2000/svg">
<path fill-rule="evenodd" clip-rule="evenodd" d="M12.7499 3.4001C13.0813 3.4001 13.3499 3.66873 13.3499 4.0001V16.0001C13.3499 16.3315 13.0813 16.6001 12.7499 16.6001H5.2499C4.91853 16.6001 4.6499 16.3315 4.6499 16.0001V4.0001C4.6499 3.66873 4.91853 3.4001 5.2499 3.4001H12.7499ZM15.1499 4.0001C15.1499 2.67461 14.0754 1.6001 12.7499 1.6001H5.2499C3.92442 1.6001 2.8499 2.67461 2.8499 4.0001V16.0001C2.8499 17.3256 3.92442 18.4001 5.2499 18.4001H12.7499C14.0754 18.4001 15.1499 17.3256 15.1499 16.0001V4.0001Z" fill="#3198F5"/>
<path d="M8.0999 14.1998C8.0999 14.6969 8.50285 15.0998 8.9999 15.0998C9.49696 15.0998 9.8999 14.6969 9.8999 14.1998C9.8999 13.7027 9.49696 13.2998 8.9999 13.2998C8.50285 13.2998 8.0999 13.7027 8.0999 14.1998Z" fill="#3198F5"/>
</svg>
