<svg width="16" height="16" viewBox="0 0 16 16" fill="none" xmlns="http://www.w3.org/2000/svg">
<path d="M5.33333 2.66671H14V4.00004H5.33333V2.66671ZM3 4.33337C2.73478 4.33337 2.48043 4.22802 2.29289 4.04048C2.10536 3.85294 2 3.59859 2 3.33337C2 3.06816 2.10536 2.8138 2.29289 2.62627C2.48043 2.43873 2.73478 2.33337 3 2.33337C3.26522 2.33337 3.51957 2.43873 3.70711 2.62627C3.89464 2.8138 4 3.06816 4 3.33337C4 3.59859 3.89464 3.85294 3.70711 4.04048C3.51957 4.22802 3.26522 4.33337 3 4.33337ZM3 9.00004C2.73478 9.00004 2.48043 8.89469 2.29289 8.70715C2.10536 8.51961 2 8.26526 2 8.00004C2 7.73483 2.10536 7.48047 2.29289 7.29293C2.48043 7.1054 2.73478 7.00004 3 7.00004C3.26522 7.00004 3.51957 7.1054 3.70711 7.29293C3.89464 7.48047 4 7.73483 4 8.00004C4 8.26526 3.89464 8.51961 3.70711 8.70715C3.51957 8.89469 3.26522 9.00004 3 9.00004ZM3 13.6C2.73478 13.6 2.48043 13.4947 2.29289 13.3071C2.10536 13.1196 2 12.8653 2 12.6C2 12.3348 2.10536 12.0805 2.29289 11.8929C2.48043 11.7054 2.73478 11.6 3 11.6C3.26522 11.6 3.51957 11.7054 3.70711 11.8929C3.89464 12.0805 4 12.3348 4 12.6C4 12.8653 3.89464 13.1196 3.70711 13.3071C3.51957 13.4947 3.26522 13.6 3 13.6ZM5.33333 7.33337H14V8.66671H5.33333V7.33337ZM5.33333 12H14V13.3334H5.33333V12Z" fill="#56627F"/>
</svg>
