<svg width="42" height="42" viewBox="0 0 42 42" fill="none" xmlns="http://www.w3.org/2000/svg">
<path d="M21 41C32.0457 41 41 32.0457 41 21C41 9.9543 32.0457 1 21 1C9.9543 1 1 9.9543 1 21C1 32.0457 9.9543 41 21 41Z" stroke="#E8EEF9" stroke-width="2"/>
<path d="M1.63623 26.0046C2.57395 29.6328 4.5122 32.9246 7.23001 35.5048C9.94783 38.0849 13.3359 39.8495 17.0079 40.5975C20.68 41.3455 24.4884 41.0468 27.9989 39.7354C31.5094 38.424 34.5809 36.1526 36.8632 33.1803C39.1454 30.2079 40.5467 26.6542 40.9072 22.9241C41.2677 19.194 40.573 15.4376 38.9022 12.0832C37.2315 8.72879 34.6518 5.91127 31.4575 3.9518C28.2631 1.99234 24.5824 0.969781 20.8351 1.00068" stroke="#5893FF" stroke-width="2" stroke-linecap="round"/>
<path d="M20.293 18.6431C20.6835 19.0336 21.3167 19.0336 21.7072 18.6431L26.068 14.2823C26.4585 13.8918 27.0917 13.8918 27.4822 14.2823L27.7177 14.5178C28.1082 14.9083 28.1082 15.5414 27.7177 15.932L23.3569 20.2928C22.9664 20.6833 22.9664 21.3164 23.3569 21.707L27.7177 26.0678C28.1082 26.4583 28.1082 27.0914 27.7177 27.482L27.4822 27.7174C27.0917 28.1079 26.4585 28.1079 26.068 27.7174L21.7072 23.3566C21.3167 22.9661 20.6835 22.9661 20.293 23.3566L15.9322 27.7174C15.5417 28.1079 14.9085 28.1079 14.518 27.7174L14.2825 27.482C13.892 27.0914 13.892 26.4583 14.2825 26.0678L18.6433 21.707C19.0339 21.3164 19.0339 20.6833 18.6433 20.2928L14.2825 15.932C13.892 15.5414 13.892 14.9083 14.2825 14.5178L14.518 14.2823C14.9085 13.8918 15.5417 13.8918 15.9322 14.2823L20.293 18.6431Z" fill="#5893FF"/>
</svg>
