<svg width="21" height="29" viewBox="0 0 21 29" fill="none" xmlns="http://www.w3.org/2000/svg">
<path opacity="0.6" d="M7.38853 27.6462C6.72869 28.0371 5.97314 28.2437 5.20304 28.2437C2.86208 28.2437 0.964355 26.3753 0.964355 24.0705L0.964355 3.94531L18.0893 14.1696C18.6769 14.5204 19.169 15.0065 19.5233 15.5862C20.7303 17.561 20.0828 20.1252 18.077 21.3136L7.38853 27.6462Z" fill="white"/>
<path opacity="0.94" fill-rule="evenodd" clip-rule="evenodd" d="M0.964355 19.4637L0.964355 4.17377C0.964355 3.40178 1.18185 2.64492 1.59266 1.98736C2.81914 0.0242161 5.42981 -0.588335 7.42377 0.619188L13.8832 4.53096C14.4489 4.87353 14.9249 5.34219 15.2728 5.89913C16.4993 7.86228 15.8771 10.4326 13.8832 11.6401L0.964355 19.4637Z" fill="white"/>
</svg>
