<svg width="18" height="18" viewBox="0 0 18 18" fill="none" xmlns="http://www.w3.org/2000/svg">
<path fill-rule="evenodd" clip-rule="evenodd" d="M2.99985 3.9001C2.67191 3.9001 2.39985 4.17215 2.39985 4.5001V13.5001C2.39985 13.828 2.67191 14.1001 2.99985 14.1001H14.9999C15.3278 14.1001 15.5999 13.828 15.5999 13.5001V4.5001C15.5999 4.17215 15.3278 3.9001 14.9999 3.9001H2.99985ZM0.599854 4.5001C0.599854 3.17804 1.6778 2.1001 2.99985 2.1001H14.9999C16.3219 2.1001 17.3999 3.17804 17.3999 4.5001V13.5001C17.3999 14.8222 16.3219 15.9001 14.9999 15.9001H2.99985C1.6778 15.9001 0.599854 14.8222 0.599854 13.5001V4.5001Z" fill="#3198F5"/>
<path fill-rule="evenodd" clip-rule="evenodd" d="M0.762622 3.98406C1.04767 3.57685 1.60884 3.47782 2.01605 3.76287L8.99993 8.65158L15.9838 3.76287C16.391 3.47782 16.9522 3.57685 17.2372 3.98406C17.5223 4.39126 17.4233 4.95244 17.016 5.23748L9.51605 10.4875C9.20616 10.7044 8.7937 10.7044 8.48381 10.4875L0.983815 5.23748C0.57661 4.95244 0.477579 4.39126 0.762622 3.98406Z" fill="#3198F5"/>
</svg>
