<svg width="14" height="14" viewBox="0 0 14 14" fill="none" xmlns="http://www.w3.org/2000/svg">
<path d="M1.3085 3.99779L6.70258 0.763795C6.79324 0.709398 6.89698 0.680664 7.00271 0.680664C7.10843 0.680664 7.21217 0.709398 7.30283 0.763795L12.6917 3.99838C12.7349 4.02429 12.7707 4.06096 12.7955 4.10482C12.8204 4.14867 12.8334 4.19822 12.8334 4.24863V11.6663C12.8334 11.821 12.772 11.9694 12.6626 12.0788C12.5532 12.1882 12.4048 12.2496 12.2501 12.2496H1.75008C1.59537 12.2496 1.447 12.1882 1.3376 12.0788C1.22821 11.9694 1.16675 11.821 1.16675 11.6663V4.24804C1.16674 4.19764 1.17979 4.14809 1.20463 4.10423C1.22948 4.06037 1.26526 4.0237 1.3085 3.99779ZM2.33341 4.74388V11.083H11.6667V4.74329L7.00242 1.94329L2.33341 4.74329V4.74388ZM7.03508 7.99013L10.1244 5.38671L10.8757 6.27921L7.04325 9.50913L3.12908 6.28329L3.87108 5.38263L7.03508 7.99013Z" fill="#B4C0D4"/>
</svg>
