<svg width="19" height="20" viewBox="0 0 19 20" fill="none" xmlns="http://www.w3.org/2000/svg">
<path d="M14.1711 9.42816C14.3073 9.42816 14.4434 9.42816 14.5795 9.42816C14.6661 9.24253 14.6661 8.97027 14.5795 8.66089C14.4929 8.203 14.3568 7.89362 14.0845 7.93075C13.8122 7.98025 13.8122 8.33913 13.8989 8.79702C13.936 9.06928 14.035 9.29203 14.1711 9.42816Z" fill="#97A4BD"/>
<path d="M11.7644 9.83679C11.9501 9.92342 12.0862 9.97292 12.1233 9.92342C12.1728 9.87392 12.1233 9.83679 12.0738 9.73779C11.9872 9.55216 11.7521 9.41604 11.5788 9.32941C11.1209 9.14378 10.6259 9.19328 10.2175 9.51504C10.0814 9.60167 9.94527 9.73779 9.99477 9.83679C9.99477 9.88629 10.0443 9.8863 10.0814 9.8863C10.168 9.8863 10.5764 9.70067 11.0343 9.66354C11.3065 9.65116 11.5788 9.75017 11.7644 9.83679Z" fill="#97A4BD"/>
<path d="M11.3616 10.058C11.0894 10.1075 10.9532 10.1941 10.8666 10.2807C10.78 10.3673 10.7305 10.4168 10.7305 10.4663V10.5158H10.78C10.8295 10.5158 10.9656 10.4663 10.9656 10.4663C11.3245 10.3302 11.5596 10.3302 11.7824 10.3797C11.9185 10.3797 11.968 10.4292 12.0051 10.3797C12.0051 10.3797 12.0051 10.3302 12.0051 10.2931C11.9927 10.157 11.7205 10.0208 11.3616 10.058Z" fill="#97A4BD"/>
<path d="M13.3459 10.8766C13.5315 10.9632 13.7047 10.9261 13.8037 10.7899C13.8532 10.6538 13.7542 10.4682 13.581 10.3816C13.3954 10.2949 13.2221 10.3321 13.1231 10.4682C13.0241 10.6043 13.1602 10.7899 13.3459 10.8766Z" fill="#97A4BD"/>
<path d="M14.4715 9.88672C14.3353 9.88672 14.1992 10.0228 14.1992 10.2456C14.1992 10.4312 14.2858 10.6045 14.4715 10.6045C14.6076 10.6045 14.7437 10.4684 14.7437 10.2456C14.7066 10.06 14.6076 9.88672 14.4715 9.88672Z" fill="#97A4BD"/>
<path d="M4.88377 13.4144C4.83427 13.3649 4.79715 13.3649 4.74765 13.4144C4.69814 13.4144 4.66102 13.4144 4.61152 13.4144C4.52489 13.4144 4.42589 13.3649 4.38876 13.2783C4.35164 13.1917 4.33926 13.0556 4.38876 12.8699L4.43826 12.7833C4.57439 12.511 4.76002 12.1027 4.52489 11.6943C4.33926 11.3725 4.11651 11.1993 3.79475 11.1498C3.47299 11.1003 3.16361 11.2364 2.97798 11.4715C2.65622 11.8304 2.61909 12.2883 2.65622 12.4615C2.65622 12.511 2.70572 12.5482 2.74285 12.5482C2.79235 12.5482 2.87898 12.4987 2.92848 12.3625V12.313C2.92848 12.2264 2.97798 12.1274 3.0646 11.9913C3.15123 11.8552 3.28736 11.7685 3.42349 11.7685C3.55962 11.719 3.74525 11.7685 3.88137 11.8552C4.10413 11.9913 4.20313 12.2635 4.10413 12.5358C3.968 12.6719 3.9185 12.8947 3.9185 13.1298C3.968 13.5382 4.24026 13.7238 4.46301 13.761C4.68577 13.761 4.8714 13.6248 4.8714 13.5382C4.9209 13.4639 4.88377 13.4639 4.88377 13.4144Z" fill="#97A4BD"/>
<path d="M18.0528 12.6457C18.0528 12.5962 18.0033 12.4229 17.9166 12.1507L17.731 11.7423C18.0528 11.2844 18.0528 10.8389 18.0033 10.6161C17.9538 10.3439 17.8176 10.0716 17.5949 9.79938C17.3721 9.52712 16.8276 9.25486 16.147 9.06924L15.7881 8.98261C15.7881 8.98261 15.7881 8.11634 15.7386 7.75745C15.7386 7.4852 15.6891 7.07681 15.553 6.66843C15.4168 6.12391 15.1446 5.6289 14.7857 5.30714C15.6891 4.35425 16.2831 3.26522 16.2831 2.36182C16.2831 0.641654 14.1546 0.0971409 11.4815 1.18617L10.937 1.40892C10.937 1.40892 9.94695 0.418899 9.89745 0.418899C6.96451 -2.20466 -2.4036 8.25247 0.578852 10.7894L1.20999 11.3339C1.02436 11.7918 0.987237 12.2868 1.02436 12.8313C1.11099 13.512 1.48225 14.1926 2.01439 14.7371C2.5589 15.2321 3.27667 15.5539 4.00681 15.5539C5.18246 18.2765 7.85553 19.8976 10.9741 19.9966C14.3278 20.0833 17.1741 18.4992 18.3498 15.69C18.4364 15.5044 18.7582 14.601 18.7582 13.7842C18.8324 12.9551 18.3745 12.6457 18.0528 12.6457ZM4.29144 14.7743C4.20482 14.7743 4.06869 14.8238 3.96968 14.7743C2.97966 14.7247 1.84113 13.8214 1.75451 12.7323C1.66788 11.5567 2.24952 10.6533 3.33854 10.4181C3.47467 10.3686 3.6108 10.3686 3.79643 10.3686C4.39045 10.4181 5.29384 10.8637 5.5166 12.1754C5.68985 13.413 5.42997 14.5886 4.29144 14.7743ZM3.16529 9.70038C2.48465 9.8365 1.90301 10.1954 1.53175 10.7399C1.309 10.5543 0.90061 10.1954 0.851109 10.0593C0.257094 8.97023 1.48225 6.80456 2.34852 5.61653C4.42757 2.63408 7.73178 0.369398 9.22919 0.765408C9.50144 0.852035 10.3182 1.80493 10.3182 1.80493C10.3182 1.80493 8.78368 2.6712 7.37289 3.84686C5.4671 5.25764 4.01919 7.3862 3.16529 9.70038ZM13.8452 14.3164L13.8947 14.2669C13.8947 14.2174 13.8452 14.2174 13.8452 14.2174C13.8452 14.2174 12.2611 14.4401 10.7637 13.8956C10.9494 13.3511 11.3577 13.5367 12.026 13.6233C13.2017 13.71 14.2907 13.5367 15.058 13.3016C15.7386 13.116 16.642 12.7076 17.3226 12.1754C17.5454 12.6704 17.6444 13.2645 17.6444 13.2645C17.6444 13.2645 17.83 13.215 17.9662 13.314C18.1023 13.4006 18.1889 13.5862 18.1518 14.0441C18.0157 14.9475 17.6073 15.6281 17.0256 16.3088C16.6667 16.7172 16.1594 17.0761 15.6272 17.3483C15.355 17.4844 15.0332 17.6206 14.7238 17.7072C12.2735 18.4745 9.83558 17.6577 9.06831 15.8014C9.01881 15.6653 8.93218 15.5291 8.93218 15.3435C8.61042 14.1184 8.88268 12.6704 9.79845 11.767C9.84795 11.7175 9.88508 11.6309 9.88508 11.5443C9.88508 11.4577 9.83558 11.4082 9.79845 11.3587C9.47669 10.9008 8.40004 10.1335 8.6228 8.6361C8.75893 7.54707 9.71182 6.8293 10.5657 6.86643H10.7885C11.1474 6.86643 11.5186 6.95306 11.7785 6.95306C12.2735 6.95306 12.7685 6.90356 13.313 6.45805C13.4987 6.32192 13.6348 6.18579 13.9071 6.13629C13.9566 6.13629 13.9937 6.08679 14.1298 6.13629C14.2659 6.13629 14.4021 6.18579 14.4887 6.27242C14.9466 6.59417 14.9837 7.26244 15.0332 7.80695C15.0332 8.12871 15.0827 8.84648 15.0827 9.03211C15.1322 9.48999 15.2188 9.57662 15.4911 9.66325C15.6272 9.71275 15.7633 9.74988 15.949 9.79938C16.543 9.98501 16.9019 10.1211 17.1246 10.3439C17.2608 10.48 17.3103 10.6161 17.3474 10.7523C17.434 11.2473 16.939 11.8784 15.7138 12.4724C14.3526 13.1036 12.7685 13.2397 11.6424 13.1036L11.234 13.0541C10.3306 12.918 9.83558 14.0936 10.3677 14.8609C10.7266 15.3559 11.6795 15.7271 12.5829 15.7271C14.7609 15.7271 16.4316 14.8237 17.0256 14.007L17.0751 13.9204C17.1246 13.8708 17.0751 13.8337 17.0256 13.8709C16.5306 14.2297 14.2659 15.591 11.8651 15.1826C11.8651 15.1826 11.5929 15.1331 11.3206 15.0465C11.0979 14.9599 10.6895 14.7742 10.5905 14.3164C12.62 14.9104 13.8452 14.3164 13.8452 14.3164ZM7.05113 5.6289C7.78128 4.76263 8.7218 3.99536 9.53857 3.58697C9.58807 3.58697 9.58807 3.58698 9.58807 3.63648C9.53857 3.77261 9.40244 3.99536 9.36532 4.18099C9.36532 4.23049 9.41482 4.23049 9.41482 4.23049C9.90983 3.87161 10.8132 3.50035 11.5929 3.46322C11.6424 3.46322 11.6424 3.51273 11.6424 3.51273C11.5062 3.59935 11.4196 3.73548 11.2835 3.87161C11.2835 3.87161 11.2835 3.92111 11.333 3.92111C11.8775 3.92111 12.6448 4.10674 13.1398 4.41612C13.1893 4.41612 13.1398 4.50275 13.0903 4.50275C12.323 4.31712 11.0979 4.18099 9.78608 4.50275C8.61042 4.77501 7.74415 5.23289 7.11301 5.6784C7.05113 5.66603 7.01401 5.66603 7.05113 5.6289Z" fill="#97A4BD"/>
</svg>
