<svg width="14" height="17" viewBox="0 0 14 17" fill="none" xmlns="http://www.w3.org/2000/svg">
<path d="M0.494 1.14479L12.802 7.91412C12.8543 7.9429 12.8978 7.98517 12.9282 8.03654C12.9586 8.0879 12.9746 8.14646 12.9746 8.20612C12.9746 8.26579 12.9586 8.32435 12.9282 8.37571C12.8978 8.42708 12.8543 8.46935 12.802 8.49812L0.494 15.2675C0.443249 15.2954 0.386099 15.3096 0.328182 15.3087C0.270265 15.3078 0.213582 15.2918 0.163718 15.2624C0.113854 15.2329 0.072531 15.1909 0.0438223 15.1406C0.0151136 15.0903 9.91698e-06 15.0334 0 14.9755V1.43679C9.91698e-06 1.37887 0.0151136 1.32195 0.0438223 1.27164C0.072531 1.22133 0.113854 1.17937 0.163718 1.1499C0.213582 1.12042 0.270265 1.10445 0.328182 1.10356C0.386099 1.10266 0.443249 1.11687 0.494 1.14479ZM1.33333 8.87279V13.2841L10.5667 8.20612L1.33333 3.12812V7.53946H4.66667V8.87279H1.33333Z" fill="#B4C0D4"/>
</svg>
