<svg width="17" height="17" viewBox="0 0 17 17" fill="none" xmlns="http://www.w3.org/2000/svg">
<g opacity="0.6">
<path d="M8.50008 1.50001C7.25261 1.49821 6.02739 1.83029 4.95157 2.46177C3.87574 3.09326 2.98851 4.00115 2.38194 5.09122C1.77538 6.18129 1.47159 7.41383 1.50209 8.66092C1.53259 9.90802 1.89628 11.1242 2.55541 12.1833L1.50201 15.4691L4.81608 14.444C5.73653 15.0165 6.77736 15.3674 7.85655 15.4691C8.93574 15.5708 10.0238 15.4205 11.035 15.03C12.0462 14.6395 12.9529 14.0195 13.6836 13.2188C14.4143 12.4182 14.9491 11.4587 15.2458 10.4162C15.5426 9.37361 15.5931 8.27637 15.3935 7.21094C15.1939 6.14551 14.7495 5.14099 14.0955 4.27655C13.4415 3.4121 12.5957 2.71136 11.6247 2.22954C10.6537 1.74772 9.58405 1.49798 8.50008 1.50001Z" stroke="#ffffff" stroke-width="1.3" stroke-linecap="round" stroke-linejoin="round"/>
<path d="M8.50008 1.50001C7.25261 1.49821 6.02739 1.83029 4.95157 2.46177C3.87574 3.09326 2.98851 4.00115 2.38194 5.09122C1.77538 6.18129 1.47159 7.41383 1.50209 8.66092C1.53259 9.90802 1.89628 11.1242 2.55541 12.1833L1.50201 15.4691L4.81608 14.444C5.73653 15.0165 6.77736 15.3674 7.85655 15.4691C8.93574 15.5708 10.0238 15.4205 11.035 15.03C12.0462 14.6395 12.9529 14.0195 13.6836 13.2188C14.4143 12.4182 14.9491 11.4587 15.2458 10.4162C15.5426 9.37361 15.5931 8.27637 15.3935 7.21094C15.1939 6.14551 14.7495 5.14099 14.0955 4.27655C13.4415 3.4121 12.5957 2.71136 11.6247 2.22954C10.6537 1.74772 9.58405 1.49798 8.50008 1.50001Z" stroke="#ffffff" stroke-opacity="0.3" stroke-width="1.3" stroke-linecap="round" stroke-linejoin="round"/>
<path d="M5.55078 7.5C5.40245 7.5 5.25744 7.54399 5.1341 7.6264C5.01077 7.70881 4.91464 7.82594 4.85787 7.96299C4.80111 8.10003 4.78625 8.25083 4.81519 8.39632C4.84413 8.5418 4.91556 8.67544 5.02045 8.78033C5.12534 8.88522 5.25898 8.95665 5.40446 8.98559C5.54995 9.01453 5.70075 8.99968 5.83779 8.94291C5.97484 8.88614 6.09197 8.79001 6.17438 8.66668C6.25679 8.54334 6.30078 8.39834 6.30078 8.25C6.30078 8.05109 6.22176 7.86032 6.08111 7.71967C5.94046 7.57902 5.74969 7.5 5.55078 7.5Z" fill="#ffffff"/>
<path d="M8.55078 7.5C8.40245 7.5 8.25744 7.54399 8.1341 7.6264C8.01077 7.70881 7.91464 7.82594 7.85787 7.96299C7.80111 8.10003 7.78625 8.25083 7.81519 8.39632C7.84413 8.5418 7.91556 8.67544 8.02045 8.78033C8.12534 8.88522 8.25898 8.95665 8.40446 8.98559C8.54995 9.01453 8.70075 8.99968 8.83779 8.94291C8.97484 8.88614 9.09197 8.79001 9.17438 8.66668C9.25679 8.54334 9.30078 8.39834 9.30078 8.25C9.30078 8.05109 9.22176 7.86032 9.08111 7.71967C8.94046 7.57902 8.74969 7.5 8.55078 7.5Z" fill="#ffffff"/>
<path d="M11.5508 7.5C11.4024 7.5 11.2574 7.54399 11.1341 7.6264C11.0108 7.70881 10.9146 7.82594 10.8579 7.96299C10.8011 8.10003 10.7863 8.25083 10.8152 8.39632C10.8441 8.5418 10.9156 8.67544 11.0205 8.78033C11.1253 8.88522 11.259 8.95665 11.4045 8.98559C11.55 9.01453 11.7008 8.99968 11.8378 8.94291C11.9748 8.88614 12.092 8.79001 12.1744 8.66668C12.2568 8.54334 12.3008 8.39834 12.3008 8.25C12.3008 8.05109 12.2218 7.86032 12.0811 7.71967C11.9405 7.57902 11.7497 7.5 11.5508 7.5Z" fill="#ffffff"/>
</g>
</svg>
