<svg width="13" height="13" viewBox="0 0 13 13" fill="none" xmlns="http://www.w3.org/2000/svg">
<path fill-rule="evenodd" clip-rule="evenodd" d="M8.63761 0.635742C9.86798 0.635742 10.483 0.635742 11.1453 0.845383C11.8684 1.10892 12.4379 1.67914 12.7011 2.40316C12.9104 3.06624 12.9104 3.68228 12.9104 4.91414V8.62897C12.9104 9.86094 12.9104 10.4768 12.7011 11.14C12.4379 11.864 11.8684 12.4342 11.1453 12.6976C10.483 12.9074 9.86798 12.9074 8.63761 12.9074H4.92762C3.69725 12.9074 3.08212 12.9074 2.41991 12.6976C1.69682 12.4342 1.12734 11.864 0.864153 11.14C0.654785 10.4768 0.654785 9.86094 0.654785 8.62897V4.91414C0.654785 3.68228 0.654785 3.06624 0.864153 2.40316C1.12734 1.67914 1.69682 1.10892 2.41991 0.845383C3.08212 0.635742 3.69725 0.635742 4.92762 0.635742H8.63761Z" fill="#4CDD86"/>
<path fill-rule="evenodd" clip-rule="evenodd" d="M11.277 6.61885C11.277 8.68032 9.26512 10.3515 6.7833 10.3515C6.49286 10.3515 6.20885 10.3286 5.93376 10.2849C5.6649 10.2557 5.51505 10.2774 5.24858 10.36C5.15387 10.3893 5.04322 10.4485 4.91641 10.5164C4.63232 10.6685 4.26712 10.8641 3.81825 10.8641C3.8098 10.8641 3.83823 10.8359 3.8869 10.7876C4.04805 10.6278 4.43104 10.2481 4.43104 9.9437V9.79987C3.14618 9.14295 2.28955 7.964 2.28955 6.61885C2.28955 4.55738 4.30147 2.88623 6.7833 2.88623C9.26512 2.88623 11.277 4.55738 11.277 6.61885Z" fill="white"/>
</svg>
