<svg width="77" height="28" viewBox="0 0 77 28" fill="none" xmlns="http://www.w3.org/2000/svg">
<path d="M13.3385 13.2928C12.9479 13.6833 12.9479 14.3164 13.3385 14.707L17.6993 19.0678C18.0898 19.4583 18.0898 20.0914 17.6993 20.482L17.4638 20.7174C17.0733 21.1079 16.4401 21.1079 16.0496 20.7174L10.0391 14.707C9.64861 14.3164 9.64861 13.6833 10.0391 13.2928L16.0496 7.2823C16.4401 6.89178 17.0733 6.89178 17.4638 7.2823L17.6993 7.51775C18.0898 7.90828 18.0898 8.54144 17.6993 8.93197L13.3385 13.2928Z" fill="#B4C0D4"/>
<path d="M30.54 19C30.4467 19 30.372 18.972 30.316 18.916C30.26 18.8507 30.232 18.7713 30.232 18.678V9.536C30.232 9.43333 30.26 9.354 30.316 9.298C30.372 9.23267 30.4467 9.2 30.54 9.2H34.362C35.3513 9.2 36.098 9.438 36.602 9.914C37.106 10.39 37.358 11.0107 37.358 11.776C37.358 12.2987 37.2367 12.7373 36.994 13.092C36.7513 13.4373 36.4667 13.6893 36.14 13.848C36.5413 14.044 36.8773 14.3473 37.148 14.758C37.4187 15.1687 37.554 15.64 37.554 16.172C37.554 16.6947 37.4327 17.1707 37.19 17.6C36.9567 18.0293 36.6067 18.37 36.14 18.622C35.6733 18.874 35.118 19 34.474 19H30.54ZM34.152 13.358C34.7587 13.358 35.2207 13.2227 35.538 12.952C35.8553 12.672 36.014 12.2847 36.014 11.79C36.014 11.3047 35.8553 10.936 35.538 10.684C35.23 10.432 34.768 10.306 34.152 10.306H31.548V13.358H34.152ZM34.292 17.894C34.8893 17.894 35.356 17.7353 35.692 17.418C36.0373 17.0913 36.21 16.676 36.21 16.172C36.21 15.6587 36.0373 15.2433 35.692 14.926C35.356 14.6087 34.8893 14.45 34.292 14.45H31.548V17.894H34.292ZM41.4039 19.14C40.9466 19.14 40.5219 19.0467 40.1299 18.86C39.7472 18.6733 39.4392 18.4213 39.2059 18.104C38.9819 17.7773 38.8699 17.418 38.8699 17.026C38.8699 16.41 39.1219 15.906 39.6259 15.514C40.1299 15.122 40.8159 14.8607 41.6839 14.73L43.7839 14.436V14.03C43.7839 13.0687 43.2286 12.588 42.1179 12.588C41.6886 12.588 41.3432 12.6767 41.0819 12.854C40.8206 13.022 40.6292 13.2227 40.5079 13.456C40.4706 13.5493 40.4286 13.6147 40.3819 13.652C40.3446 13.68 40.2886 13.694 40.2139 13.694H39.6679C39.5839 13.694 39.5092 13.666 39.4439 13.61C39.3879 13.5447 39.3599 13.47 39.3599 13.386C39.3599 13.1713 39.4579 12.924 39.6539 12.644C39.8592 12.3547 40.1719 12.1073 40.5919 11.902C41.0119 11.6873 41.5252 11.58 42.1319 11.58C43.1772 11.58 43.9239 11.8227 44.3719 12.308C44.8292 12.7933 45.0579 13.4 45.0579 14.128V18.678C45.0579 18.7713 45.0252 18.8507 44.9599 18.916C44.9039 18.972 44.8292 19 44.7359 19H44.1199C44.0266 19 43.9519 18.972 43.8959 18.916C43.8399 18.8507 43.8119 18.7713 43.8119 18.678V18.062C43.6066 18.37 43.3079 18.6267 42.9159 18.832C42.5239 19.0373 42.0199 19.14 41.4039 19.14ZM41.6839 18.118C42.2999 18.118 42.8039 17.9173 43.1959 17.516C43.5879 17.1147 43.7839 16.5313 43.7839 15.766V15.374L42.1459 15.612C41.4739 15.7053 40.9652 15.864 40.6199 16.088C40.2746 16.312 40.1019 16.592 40.1019 16.928C40.1019 17.3107 40.2559 17.6047 40.5639 17.81C40.8812 18.0153 41.2546 18.118 41.6839 18.118ZM49.9972 19.14C48.9985 19.14 48.2192 18.86 47.6592 18.3C47.0992 17.7307 46.8052 16.9373 46.7772 15.92L46.7632 15.36L46.7772 14.8C46.8052 13.7827 47.0992 12.994 47.6592 12.434C48.2192 11.8647 48.9985 11.58 49.9972 11.58C50.6692 11.58 51.2338 11.7013 51.6912 11.944C52.1578 12.1773 52.5032 12.4713 52.7272 12.826C52.9605 13.1807 53.0865 13.5353 53.1052 13.89C53.1145 13.974 53.0818 14.0487 53.0072 14.114C52.9418 14.1793 52.8672 14.212 52.7832 14.212H52.1672C52.0738 14.212 52.0038 14.1933 51.9572 14.156C51.9105 14.1093 51.8638 14.03 51.8172 13.918C51.6492 13.4607 51.4158 13.1387 51.1172 12.952C50.8278 12.756 50.4592 12.658 50.0112 12.658C49.4232 12.658 48.9565 12.84 48.6112 13.204C48.2658 13.568 48.0792 14.1233 48.0512 14.87L48.0372 15.36L48.0512 15.85C48.0792 16.5967 48.2658 17.152 48.6112 17.516C48.9565 17.88 49.4232 18.062 50.0112 18.062C50.4685 18.062 50.8418 17.9687 51.1312 17.782C51.4205 17.586 51.6492 17.2593 51.8172 16.802C51.8638 16.69 51.9105 16.6153 51.9572 16.578C52.0038 16.5313 52.0738 16.508 52.1672 16.508H52.7832C52.8672 16.508 52.9418 16.5407 53.0072 16.606C53.0818 16.6713 53.1145 16.746 53.1052 16.83C53.0865 17.1753 52.9605 17.5253 52.7272 17.88C52.5032 18.2347 52.1578 18.5333 51.6912 18.776C51.2338 19.0187 50.6692 19.14 49.9972 19.14ZM55.1184 19C55.0251 19 54.9458 18.972 54.8804 18.916C54.8244 18.8507 54.7964 18.7713 54.7964 18.678V9.382C54.7964 9.27933 54.8244 9.2 54.8804 9.144C54.9458 9.088 55.0251 9.06 55.1184 9.06H55.7204C55.8138 9.06 55.8884 9.09267 55.9444 9.158C56.0098 9.214 56.0424 9.28867 56.0424 9.382V14.268L58.8424 11.958C58.9824 11.8553 59.0804 11.79 59.1364 11.762C59.1924 11.734 59.2811 11.72 59.4024 11.72H60.1024C60.1864 11.72 60.2518 11.748 60.2984 11.804C60.3544 11.8507 60.3824 11.9207 60.3824 12.014C60.3824 12.098 60.3311 12.1867 60.2284 12.28L56.9524 14.968L60.5784 18.44C60.6811 18.5427 60.7324 18.6313 60.7324 18.706C60.7324 18.79 60.7044 18.86 60.6484 18.916C60.6018 18.972 60.5364 19 60.4524 19H59.7664C59.6264 19 59.5238 18.986 59.4584 18.958C59.4024 18.93 59.3184 18.8647 59.2064 18.762L56.0424 15.766V18.678C56.0424 18.7713 56.0098 18.8507 55.9444 18.916C55.8884 18.972 55.8138 19 55.7204 19H55.1184Z" fill="#7B89A6"/>
<path d="M77 6.5C77 6.22386 76.7761 6 76.5 6C76.2239 6 76 6.22386 76 6.5V21.5C76 21.7761 76.2239 22 76.5 22C76.7761 22 77 21.7761 77 21.5V6.5Z" fill="#EFF3FC"/>
</svg>
