<svg width="20" height="20" viewBox="0 0 20 20" fill="none" xmlns="http://www.w3.org/2000/svg">
<path fill-rule="evenodd" clip-rule="evenodd" d="M10.0007 11.6667C10.9211 11.6667 11.6673 10.9205 11.6673 10C11.6673 9.07954 10.9211 8.33334 10.0007 8.33334C9.08018 8.33334 8.33398 9.07954 8.33398 10C8.33398 10.9205 9.08018 11.6667 10.0007 11.6667Z" fill="#C4CFE1"/>
<path fill-rule="evenodd" clip-rule="evenodd" d="M10.0007 4.99999C10.9211 4.99999 11.6673 4.2538 11.6673 3.33332C11.6673 2.41285 10.9211 1.66666 10.0007 1.66666C9.08018 1.66666 8.33398 2.41285 8.33398 3.33332C8.33398 4.2538 9.08018 4.99999 10.0007 4.99999Z" fill="#C4CFE1"/>
<path fill-rule="evenodd" clip-rule="evenodd" d="M10.0007 18.3333C10.9211 18.3333 11.6673 17.5871 11.6673 16.6667C11.6673 15.7462 10.9211 15 10.0007 15C9.08018 15 8.33398 15.7462 8.33398 16.6667C8.33398 17.5871 9.08018 18.3333 10.0007 18.3333Z" fill="#C4CFE1"/>
</svg>
