<svg width="16" height="16" viewBox="0 0 16 16" fill="none" xmlns="http://www.w3.org/2000/svg">
<g opacity="0.5">
<path fill-rule="evenodd" clip-rule="evenodd" d="M7.4667 7.99997C7.4667 8.01838 7.48162 8.0333 7.50003 8.0333C7.51844 8.0333 7.53337 8.01838 7.53337 7.99997C7.53337 7.98156 7.51844 7.96663 7.50003 7.96663C7.48162 7.96663 7.4667 7.98156 7.4667 7.99997ZM7.50003 9.6333C6.59797 9.6333 5.8667 8.90203 5.8667 7.99997C5.8667 7.0979 6.59797 6.36663 7.50003 6.36663C8.4021 6.36663 9.13337 7.0979 9.13337 7.99997C9.13337 8.90203 8.4021 9.6333 7.50003 9.6333Z" fill="white"/>
<path fill-rule="evenodd" clip-rule="evenodd" d="M7.4667 2.16696C7.4667 2.18537 7.48162 2.20029 7.50003 2.20029C7.51844 2.20029 7.53337 2.18537 7.53337 2.16696C7.53337 2.14855 7.51844 2.13363 7.50003 2.13363C7.48162 2.13363 7.4667 2.14855 7.4667 2.16696ZM7.50003 3.80029C6.59797 3.80029 5.8667 3.06902 5.8667 2.16696C5.8667 1.26489 6.59797 0.533626 7.50003 0.533626C8.4021 0.533626 9.13337 1.26489 9.13337 2.16696C9.13337 3.06902 8.4021 3.80029 7.50003 3.80029Z" fill="white"/>
<path fill-rule="evenodd" clip-rule="evenodd" d="M7.4667 13.8335C7.4667 13.8519 7.48162 13.8668 7.50003 13.8668C7.51844 13.8668 7.53337 13.8519 7.53337 13.8335C7.53337 13.8151 7.51844 13.8001 7.50003 13.8001C7.48162 13.8001 7.4667 13.8151 7.4667 13.8335ZM7.50003 15.4668C6.59797 15.4668 5.8667 14.7355 5.8667 13.8335C5.8667 12.9314 6.59797 12.2001 7.50003 12.2001C8.4021 12.2001 9.13337 12.9314 9.13337 13.8335C9.13337 14.7355 8.4021 15.4668 7.50003 15.4668Z" fill="white"/>
</g>
</svg>
