<svg width="64" height="64" viewBox="0 0 64 64" fill="none" xmlns="http://www.w3.org/2000/svg">
<path d="M7 57.5H47C49.75 57.5 52 55.25 52 52.5V21.5C52 18.75 49.75 16.5 47 16.5H7C4.25 16.5 2 18.75 2 21.5V52.5C2 55.25 4.25 57.5 7 57.5Z" fill="white"/>
<path d="M47 59H7C3.4 59 0.5 56.1 0.5 52.5V28C0.5 27.15 1.15 26.5 2 26.5C2.85 26.5 3.5 27.15 3.5 28V52.5C3.5 54.45 5.05 56 7 56H47C48.95 56 50.5 54.4 50.5 53V28C50.5 27.15 51.15 26.5 52 26.5C52.85 26.5 53.5 27.15 53.5 28V53C53.5 56.2 50.45 59 47 59Z" fill="#67BAE4"/>
<path d="M27 39.5C19.9 39.5 13.3 36.7 8.40001 31.55C7.85001 30.95 7.85001 30 8.45001 29.45C9.05001 28.9 10 28.9 10.55 29.5C14.9 34 20.7 36.5 26.95 36.5C33.2 36.5 39.05 34 43.35 29.5C43.9 28.9 44.85 28.9 45.45 29.45C46.05 30 46.05 30.95 45.5 31.55C40.7 36.7 34.1 39.5 27 39.5Z" fill="#67BAE4"/>
<path d="M52 23C51.15 23 50.5 22.35 50.5 21.5C50.5 19.55 48.95 18 47 18H7C5.05 18 3.5 19.55 3.5 21.5C3.5 22.35 2.85 23 2 23C1.15 23 0.5 22.35 0.5 21.5C0.5 17.9 3.4 15 7 15H47C50.6 15 53.5 17.9 53.5 21.5C53.5 22.35 52.85 23 52 23Z" fill="#67BAE4"/>
<path d="M62 48C61.15 48 60.5 47.35 60.5 46.5V18C60.5 17.15 61.15 16.5 62 16.5C62.85 16.5 63.5 17.15 63.5 18V46.5C63.5 47.35 62.85 48 62 48Z" fill="#56627F"/>
<path d="M62 13C61.15 13 60.5 12.35 60.5 11.5C60.5 9.55 58.95 8 57 8H17C16.15 8 15.5 7.35 15.5 6.5C15.5 5.65 16.15 5 17 5H57C60.6 5 63.5 7.9 63.5 11.5C63.5 12.35 62.85 13 62 13Z" fill="#56627F"/>
</svg>
