<svg width="61" height="60" viewBox="0 0 61 60" fill="none" xmlns="http://www.w3.org/2000/svg">
<rect x="0.455078" y="30.1121" width="42.1832" height="42.1832" rx="16" transform="rotate(-45 0.455078 30.1121)" fill="#F4AF5E"/>
<path d="M21.8675 25.7114L29.5734 21.0914C29.7029 21.0137 29.8511 20.9727 30.0021 20.9727C30.1532 20.9727 30.3014 21.0137 30.4309 21.0914L38.1292 25.7122C38.191 25.7493 38.2421 25.8016 38.2776 25.8643C38.3131 25.927 38.3317 25.9977 38.3317 26.0697V36.6664C38.3317 36.8874 38.2439 37.0994 38.0876 37.2557C37.9313 37.412 37.7194 37.4997 37.4984 37.4997H22.4984C22.2774 37.4997 22.0654 37.412 21.9091 37.2557C21.7528 37.0994 21.665 36.8874 21.665 36.6664V26.0689C21.665 25.9969 21.6837 25.9261 21.7192 25.8635C21.7547 25.8008 21.8058 25.7484 21.8675 25.7114ZM35.2867 26.8697L30.0492 31.4022L24.7042 26.8647L23.6259 28.1347L30.0592 33.5972L36.3767 28.1306L35.2867 26.8697Z" fill="white"/>
</svg>
