<svg width="44" height="44" viewBox="0 0 44 44" fill="none" xmlns="http://www.w3.org/2000/svg">
<circle cx="22" cy="22" r="22" fill="#97A4BD"/>
<path d="M13.667 14.5H29.6153C29.6884 14.4999 29.7601 14.519 29.8235 14.5553C29.8868 14.5917 29.9395 14.6441 29.9762 14.7072C30.0129 14.7703 30.0324 14.842 30.0327 14.9151C30.033 14.9881 30.0141 15.0599 29.9778 15.1233L27.0003 20.3333L29.9778 25.5433C30.0141 25.6068 30.033 25.6786 30.0327 25.7516C30.0324 25.8247 30.0129 25.8963 29.9762 25.9595C29.9395 26.0226 29.8868 26.075 29.8235 26.1113C29.7601 26.1477 29.6884 26.1668 29.6153 26.1667H15.3337V30.3333H13.667V14.5Z" fill="white"/>
</svg>
