<svg width="16" height="16" viewBox="0 0 16 16" fill="none" xmlns="http://www.w3.org/2000/svg">
<path fill-rule="evenodd" clip-rule="evenodd" d="M7.98828 1C6.11294 1 4.53749 2.41009 4.33039 4.27397L3.93233 7.85655C3.89942 8.15273 4.13126 8.41177 4.42927 8.41177H11.5473C11.8453 8.41177 12.0771 8.15273 12.0442 7.85655L11.6462 4.27397C11.4391 2.41009 9.86363 1 7.98828 1ZM2.63529 8.41187C1.95305 8.41187 1.39999 8.96493 1.39999 9.64716C1.39999 10.3294 1.95305 10.8825 2.63529 10.8825H13.3412C14.0234 10.8825 14.5765 10.3294 14.5765 9.64716C14.5765 8.96493 14.0234 8.41187 13.3412 8.41187H2.63529Z" fill="white"/>
<rect opacity="0.6" x="6.34113" y="11.7061" width="3.29412" height="3.29412" rx="1.64706" fill="white"/>
</svg>
