<svg width="20" height="20" viewBox="0 0 20 20" fill="none" xmlns="http://www.w3.org/2000/svg">
<path d="M10.0001 1.6665C14.6017 1.6665 18.3334 4.9815 18.3334 9.074C18.3328 10.3017 17.8447 11.4789 16.9765 12.3469C16.1084 13.2149 14.9311 13.7027 13.7034 13.7032H12.0651C11.2967 13.7032 10.6759 14.324 10.6759 15.0923C10.6759 15.444 10.8151 15.7682 11.0276 16.009C11.2501 16.259 11.3892 16.5832 11.3892 16.944C11.3892 17.7132 10.7501 18.3332 10.0001 18.3332C5.39842 18.3332 1.66675 14.6015 1.66675 9.99984C1.66675 5.39817 5.39842 1.6665 10.0001 1.6665ZM6.25008 9.99984C6.5816 9.99984 6.89954 9.86814 7.13397 9.63372C7.36839 9.3993 7.50008 9.08136 7.50008 8.74984C7.50008 8.41832 7.36839 8.10037 7.13397 7.86595C6.89954 7.63153 6.5816 7.49984 6.25008 7.49984C5.91856 7.49984 5.60062 7.63153 5.3662 7.86595C5.13178 8.10037 5.00008 8.41832 5.00008 8.74984C5.00008 9.08136 5.13178 9.3993 5.3662 9.63372C5.60062 9.86814 5.91856 9.99984 6.25008 9.99984ZM13.7501 9.99984C14.0816 9.99984 14.3995 9.86814 14.634 9.63372C14.8684 9.3993 15.0001 9.08136 15.0001 8.74984C15.0001 8.41832 14.8684 8.10037 14.634 7.86595C14.3995 7.63153 14.0816 7.49984 13.7501 7.49984C13.4186 7.49984 13.1006 7.63153 12.8662 7.86595C12.6318 8.10037 12.5001 8.41832 12.5001 8.74984C12.5001 9.08136 12.6318 9.3993 12.8662 9.63372C13.1006 9.86814 13.4186 9.99984 13.7501 9.99984ZM10.0001 7.49984C10.3316 7.49984 10.6495 7.36814 10.884 7.13372C11.1184 6.8993 11.2501 6.58136 11.2501 6.24984C11.2501 5.91832 11.1184 5.60037 10.884 5.36595C10.6495 5.13153 10.3316 4.99984 10.0001 4.99984C9.66856 4.99984 9.35062 5.13153 9.1162 5.36595C8.88178 5.60037 8.75008 5.91832 8.75008 6.24984C8.75008 6.58136 8.88178 6.8993 9.1162 7.13372C9.35062 7.36814 9.66856 7.49984 10.0001 7.49984Z" fill="#B4C0D4"/>
</svg>
