<svg width="16" height="16" viewBox="0 0 16 16" fill="none" xmlns="http://www.w3.org/2000/svg">
<path d="M14 12.6667H15.3334V14H0.666687V12.6667H2.00002V2.66667C2.00002 2.48986 2.07026 2.32029 2.19528 2.19526C2.32031 2.07024 2.48988 2 2.66669 2H9.33335C9.51016 2 9.67973 2.07024 9.80476 2.19526C9.92978 2.32029 10 2.48986 10 2.66667V12.6667H12.6667V7.33333H11.3334V6H13.3334C13.5102 6 13.6797 6.07024 13.8048 6.19526C13.9298 6.32029 14 6.48986 14 6.66667V12.6667ZM3.33335 3.33333V12.6667H8.66669V3.33333H3.33335ZM4.66669 7.33333H7.33335V8.66667H4.66669V7.33333ZM4.66669 4.66667H7.33335V6H4.66669V4.66667Z" fill="#687693"/>
</svg>
