<svg width="14" height="14" viewBox="0 0 14 14" fill="none" xmlns="http://www.w3.org/2000/svg">
<path d="M6.9987 13.6576C3.3167 13.6576 0.332031 10.6729 0.332031 6.99089C0.332031 4.00555 2.29403 1.47889 4.9987 0.629552V2.04555C3.85265 2.51092 2.9039 3.36002 2.31474 4.44763C1.72558 5.53524 1.53262 6.79376 1.76887 8.00792C2.00512 9.22208 2.65589 10.3164 3.60987 11.1038C4.56386 11.8911 5.76177 12.3225 6.9987 12.3242C8.06122 12.3242 9.09953 12.0069 9.98059 11.413C10.8617 10.8192 11.5453 9.97577 11.944 8.99089H13.36C12.5107 11.6956 9.98403 13.6576 6.9987 13.6576ZM13.632 7.65755H6.33203V0.357552C6.55136 0.335552 6.77403 0.324219 6.9987 0.324219C10.6807 0.324219 13.6654 3.30889 13.6654 6.99089C13.6654 7.21555 13.654 7.43822 13.632 7.65755ZM7.66536 1.69889V6.32422H12.2907C12.1423 5.14929 11.6073 4.05711 10.7699 3.21971C9.93248 2.38231 8.84029 1.84728 7.66536 1.69889Z" fill="#4489F2"/>
</svg>
