<svg width="20" height="20" viewBox="0 0 20 20" fill="none" xmlns="http://www.w3.org/2000/svg">
<path d="M16.1465 10.3466L7.314 16.235C7.25126 16.2767 7.17836 16.3007 7.10308 16.3043C7.0278 16.3079 6.95295 16.291 6.8865 16.2554C6.82006 16.2199 6.76451 16.1669 6.72577 16.1023C6.68702 16.0376 6.66654 15.9637 6.6665 15.8883V4.11164C6.66654 4.03627 6.68702 3.96233 6.72577 3.89768C6.76451 3.83303 6.82006 3.7801 6.8865 3.74452C6.95295 3.70895 7.0278 3.69207 7.10308 3.69567C7.17836 3.69927 7.25126 3.72322 7.314 3.76498L16.1465 9.65331C16.2036 9.69136 16.2504 9.74291 16.2827 9.80338C16.3151 9.86386 16.332 9.93139 16.332 9.99997C16.332 10.0686 16.3151 10.1361 16.2827 10.1966C16.2504 10.257 16.2036 10.3086 16.1465 10.3466Z" fill="#4F8AF4"/>
</svg>
