<svg width="11" height="11" viewBox="0 0 11 11" fill="none" xmlns="http://www.w3.org/2000/svg">
<path d="M5.5 10.5C2.7385 10.5 0.5 8.2615 0.5 5.5C0.5 2.7385 2.7385 0.5 5.5 0.5C8.2615 0.5 10.5 2.7385 10.5 5.5C10.5 8.2615 8.2615 10.5 5.5 10.5ZM4.811 3.7075C4.78091 3.68742 4.74593 3.67588 4.7098 3.67411C4.67367 3.67234 4.63774 3.6804 4.60582 3.69743C4.57391 3.71446 4.54721 3.73984 4.52858 3.77084C4.50994 3.80185 4.50007 3.83733 4.5 3.8735V7.1265C4.50007 7.16267 4.50994 7.19815 4.52858 7.22916C4.54721 7.26016 4.57391 7.28554 4.60582 7.30257C4.63774 7.3196 4.67367 7.32766 4.7098 7.32589C4.74593 7.32412 4.78091 7.31258 4.811 7.2925L7.2505 5.6665C7.27793 5.64824 7.30043 5.62349 7.31599 5.59444C7.33155 5.5654 7.33969 5.53295 7.33969 5.5C7.33969 5.46705 7.33155 5.4346 7.31599 5.40556C7.30043 5.37651 7.27793 5.35176 7.2505 5.3335L4.8105 3.7075H4.811Z" fill="#67B7E4"/>
</svg>
