<svg width="16" height="16" viewBox="0 0 16 16" fill="none" xmlns="http://www.w3.org/2000/svg">
<path d="M11.5354 8.06667C11.5354 8.40001 11.2688 8.66668 10.9354 8.66668H8.53542V10.9333C8.53542 11.2667 8.26875 11.5333 7.93542 11.5333C7.60208 11.5333 7.33542 11.2667 7.33542 10.9333V8.66668H5.06875C4.73542 8.66668 4.46875 8.40001 4.46875 8.06667C4.46875 7.73334 4.73542 7.46668 5.06875 7.46668H7.33542V5.06667C7.33542 4.73334 7.60208 4.46667 7.93542 4.46667C8.26875 4.46667 8.53542 4.73334 8.53542 5.06667V7.46668H10.9354C11.2688 7.46668 11.5354 7.73334 11.5354 8.06667Z" fill="#4489F2"/>
</svg>
