<svg width="250" height="53" viewBox="0 0 250 53" fill="none" xmlns="http://www.w3.org/2000/svg">
<path fill-rule="evenodd" clip-rule="evenodd" d="M34.8574 15.5165C34.8574 14.0175 36.0726 12.8022 37.5717 12.8022C39.0708 12.8022 40.286 14.0175 40.286 15.5165V50.2863C40.286 51.7853 39.0708 53.0005 37.5717 53.0005C36.0726 53.0005 34.8574 51.7853 34.8574 50.2863V15.5165Z" fill="#B4C0D4"/>
<path fill-rule="evenodd" clip-rule="evenodd" d="M17.4287 10.3954C17.4287 8.89638 18.6439 7.68115 20.143 7.68115C21.6421 7.68115 22.8573 8.89638 22.8573 10.3954V50.286C22.8573 51.785 21.6421 53.0003 20.143 53.0003C18.6439 53.0003 17.4287 51.785 17.4287 50.286V10.3954Z" fill="#B4C0D4"/>
<path fill-rule="evenodd" clip-rule="evenodd" d="M0 23.1974C0 21.6984 1.21523 20.4832 2.71429 20.4832C4.21335 20.4832 5.42857 21.6984 5.42857 23.1974V50.286C5.42857 51.785 4.21335 53.0002 2.71429 53.0002C1.21523 53.0002 0 51.785 0 50.286V23.1974Z" fill="#B4C0D4"/>
<path fill-rule="evenodd" clip-rule="evenodd" d="M69.7148 19.6127C69.7148 18.1137 70.9301 16.8984 72.4291 16.8984C73.9282 16.8984 75.1434 18.1137 75.1434 19.6127V50.2858C75.1434 51.7849 73.9282 53.0001 72.4291 53.0001C70.9301 53.0001 69.7148 51.7849 69.7148 50.2858V19.6127Z" fill="#B4C0D4"/>
<path fill-rule="evenodd" clip-rule="evenodd" d="M104.572 20.6371C104.572 19.1381 105.787 17.9229 107.287 17.9229C108.786 17.9229 110.001 19.1381 110.001 20.6371V50.2861C110.001 51.7851 108.786 53.0003 107.287 53.0003C105.787 53.0003 104.572 51.7851 104.572 50.2861V20.6371Z" fill="#B4C0D4"/>
<path fill-rule="evenodd" clip-rule="evenodd" d="M139.43 12.956C139.43 11.4569 140.645 10.2417 142.144 10.2417C143.643 10.2417 144.858 11.4569 144.858 12.956V50.2861C144.858 51.7852 143.643 53.0004 142.144 53.0004C140.645 53.0004 139.43 51.7852 139.43 50.2861V12.956Z" fill="#B4C0D4"/>
<path fill-rule="evenodd" clip-rule="evenodd" d="M174.287 15.5165C174.287 14.0175 175.502 12.8022 177.001 12.8022C178.5 12.8022 179.716 14.0175 179.716 15.5165V50.2863C179.716 51.7853 178.5 53.0005 177.001 53.0005C175.502 53.0005 174.287 51.7853 174.287 50.2863V15.5165Z" fill="#B4C0D4"/>
<path fill-rule="evenodd" clip-rule="evenodd" d="M209.145 28.3183C209.145 26.8192 210.36 25.604 211.859 25.604C213.358 25.604 214.573 26.8192 214.573 28.3183V50.286C214.573 51.7851 213.358 53.0003 211.859 53.0003C210.36 53.0003 209.145 51.7851 209.145 50.286L209.145 28.3183Z" fill="#B4C0D4"/>
<path fill-rule="evenodd" clip-rule="evenodd" d="M244.002 12.956C244.002 11.4569 245.217 10.2417 246.716 10.2417C248.215 10.2417 249.431 11.4569 249.431 12.956V50.2861C249.431 51.7852 248.215 53.0004 246.716 53.0004C245.217 53.0004 244.002 51.7852 244.002 50.2861V12.956Z" fill="#B4C0D4"/>
<path fill-rule="evenodd" clip-rule="evenodd" d="M52.2861 2.71428C52.2861 1.21522 53.5014 0 55.0004 0C56.4995 0 57.7147 1.21523 57.7147 2.71429V50.286C57.7147 51.7851 56.4995 53.0003 55.0004 53.0003C53.5014 53.0003 52.2861 51.7851 52.2861 50.286V2.71428Z" fill="#B4C0D4"/>
<path fill-rule="evenodd" clip-rule="evenodd" d="M87.1436 7.83489C87.1436 6.33583 88.3588 5.12061 89.8578 5.12061C91.3569 5.12061 92.5721 6.33583 92.5721 7.83489V50.2858C92.5721 51.7849 91.3569 53.0001 89.8578 53.0001C88.3588 53.0001 87.1436 51.7849 87.1436 50.2858V7.83489Z" fill="#B4C0D4"/>
<path fill-rule="evenodd" clip-rule="evenodd" d="M122.001 2.71428C122.001 1.21522 123.216 0 124.715 0C126.214 0 127.43 1.21523 127.43 2.71429V50.286C127.43 51.7851 126.214 53.0003 124.715 53.0003C123.216 53.0003 122.001 51.7851 122.001 50.286L122.001 2.71428Z" fill="#B4C0D4"/>
<path fill-rule="evenodd" clip-rule="evenodd" d="M156.858 15.5165C156.858 14.0175 158.074 12.8022 159.573 12.8022C161.072 12.8022 162.287 14.0175 162.287 15.5165V50.2863C162.287 51.7853 161.072 53.0005 159.573 53.0005C158.074 53.0005 156.858 51.7853 156.858 50.2863V15.5165Z" fill="#B4C0D4"/>
<path fill-rule="evenodd" clip-rule="evenodd" d="M191.716 23.1977C191.716 21.6986 192.931 20.4834 194.43 20.4834C195.929 20.4834 197.144 21.6986 197.144 23.1977V50.2862C197.144 51.7853 195.929 53.0005 194.43 53.0005C192.931 53.0005 191.716 51.7853 191.716 50.2862V23.1977Z" fill="#B4C0D4"/>
<path fill-rule="evenodd" clip-rule="evenodd" d="M226.573 20.6371C226.573 19.1381 227.788 17.9229 229.288 17.9229C230.787 17.9229 232.002 19.1381 232.002 20.6371V50.2861C232.002 51.7851 230.787 53.0003 229.288 53.0003C227.788 53.0003 226.573 51.7851 226.573 50.2861V20.6371Z" fill="#B4C0D4"/>
</svg>
