<svg width="38" height="38" viewBox="0 0 38 38" fill="none" xmlns="http://www.w3.org/2000/svg">
<path d="M19 0.666748C29.12 0.666748 37.3333 8.88008 37.3333 19.0001C37.3333 29.1201 29.12 37.3334 19 37.3334C8.88001 37.3334 0.666672 29.1201 0.666672 19.0001C0.666672 8.88008 8.88001 0.666748 19 0.666748ZM8.04217 25.2627C10.7335 29.2777 14.7742 31.8334 19.2933 31.8334C23.8107 31.8334 27.8532 29.2796 30.5427 25.2627C27.4915 22.4112 23.4696 20.8276 19.2933 20.8334C15.1165 20.8271 11.0938 22.4107 8.04217 25.2627V25.2627ZM19 17.1667C20.4587 17.1667 21.8576 16.5873 22.8891 15.5558C23.9205 14.5244 24.5 13.1254 24.5 11.6667C24.5 10.2081 23.9205 8.80911 22.8891 7.77766C21.8576 6.74621 20.4587 6.16675 19 6.16675C17.5413 6.16675 16.1424 6.74621 15.1109 7.77766C14.0795 8.80911 13.5 10.2081 13.5 11.6667C13.5 13.1254 14.0795 14.5244 15.1109 15.5558C16.1424 16.5873 17.5413 17.1667 19 17.1667V17.1667Z" fill="white"/>
</svg>
