<svg width="12" height="13" viewBox="0 0 12 13" fill="none" xmlns="http://www.w3.org/2000/svg">
<path d="M6 11.7109C3.2385 11.7109 1 9.47244 1 6.71094C1 3.94944 3.2385 1.71094 6 1.71094C8.7615 1.71094 11 3.94944 11 6.71094C11 9.47244 8.7615 11.7109 6 11.7109ZM6 8.21094C6.39782 8.21094 6.77936 8.0529 7.06066 7.7716C7.34196 7.49029 7.5 7.10876 7.5 6.71094C7.5 6.31311 7.34196 5.93158 7.06066 5.65028C6.77936 5.36897 6.39782 5.21094 6 5.21094C5.60218 5.21094 5.22064 5.36897 4.93934 5.65028C4.65804 5.93158 4.5 6.31311 4.5 6.71094C4.5 7.10876 4.65804 7.49029 4.93934 7.7716C5.22064 8.0529 5.60218 8.21094 6 8.21094Z" fill="#6F7CFF"/>
</svg>
