<svg width="250" height="250" viewBox="0 0 250 250" fill="none" xmlns="http://www.w3.org/2000/svg">
<path d="M250 0H0V250H250V0Z" fill="white"/>
<path d="M216.709 207.931C216.552 208.135 215.449 208.339 213.086 208.576C196.563 210.224 177.028 209.714 160.033 209.714C128.111 209.731 96.1691 209.375 64.2667 209.375C44.3572 209.035 21.1787 208.152 40.9109 206.963C63.3411 205.604 87.6618 205.808 110.348 205.638C130.907 205.485 151.467 205.604 172.006 205.961C175.492 206.012 217.536 206.81 216.709 207.931Z" fill="#E8EEF9"/>
<path d="M203.799 163.02L142.417 149.734C139.935 149.192 138.35 146.731 138.892 144.27L156.537 62.7811C157.08 60.2991 159.541 58.714 162.002 59.2563L223.384 72.5422C225.866 73.0845 227.451 75.5457 226.909 78.0068L209.285 159.495C208.743 161.977 206.281 163.563 203.799 163.02Z" fill="#E5E5E5"/>
<path d="M204.634 164.897L143.252 151.611C140.77 151.069 139.185 148.608 139.727 146.147L157.372 64.6581C157.914 62.1761 160.375 60.5909 162.837 61.1332L224.219 74.4192C226.701 74.9615 228.286 77.4226 227.744 79.8838L210.12 161.372C209.577 163.854 207.116 165.44 204.634 164.897Z" fill="white"/>
<path d="M204.926 164.584C202.048 163.959 199.19 163.333 196.312 162.728C189.805 161.31 183.297 159.912 176.79 158.494C169.928 157.013 163.066 155.532 156.204 154.031C152.178 153.155 148.153 152.279 144.128 151.423C143.794 151.361 143.46 151.298 143.147 151.194C140.978 150.506 139.852 148.253 140.269 146.084C140.415 145.333 140.582 144.603 140.749 143.873C141.687 139.535 142.626 135.197 143.564 130.858C145.004 124.226 146.443 117.593 147.882 110.961C149.425 103.827 150.969 96.6944 152.512 89.5612C153.764 83.8255 154.994 78.0898 156.246 72.3333C156.788 69.7887 157.268 67.2024 157.914 64.6579C158.436 62.5096 160.354 61.0704 162.586 61.4667C162.816 61.5084 163.045 61.571 163.254 61.6127C164.776 61.9464 166.319 62.2802 167.842 62.6139C173.765 63.8862 179.689 65.1793 185.591 66.4516C192.662 67.9741 199.733 69.5176 206.782 71.0401C211.788 72.1247 216.815 73.2093 221.82 74.2938C222.738 74.5024 223.76 74.6067 224.636 74.9613C226.659 75.7538 227.639 77.9021 227.243 79.9878C227.201 80.2381 227.139 80.4676 227.097 80.697C226.325 84.2218 225.575 87.7258 224.803 91.2507C223.447 97.5287 222.091 103.807 220.715 110.105C219.171 117.259 217.607 124.413 216.064 131.567C214.708 137.804 213.373 144.04 212.017 150.255C211.267 153.739 210.516 157.243 209.744 160.726C209.702 160.955 209.661 161.164 209.598 161.393C209.056 163.604 207.074 164.981 204.801 164.563C204.321 164.48 203.779 165.127 204.446 165.252C207.408 165.794 210.036 163.917 210.662 161.039C210.912 159.954 211.141 158.849 211.371 157.764C212.435 152.8 213.519 147.857 214.583 142.893C216.105 135.864 217.628 128.856 219.151 121.827C220.694 114.736 222.217 107.623 223.76 100.532C224.907 95.2344 226.054 89.9367 227.201 84.6598C227.869 81.5938 229.475 77.6101 226.638 75.1698C225.533 74.2313 224.177 74.0436 222.801 73.7307C220.84 73.3136 218.859 72.8756 216.898 72.4584C210.391 71.0401 203.883 69.6427 197.376 68.2244C190.347 66.7019 183.318 65.1793 176.289 63.6567C172.097 62.7599 167.905 61.8422 163.712 60.9453C161.23 60.403 158.623 61.0287 157.33 63.4273C156.871 64.2824 156.725 65.3044 156.517 66.2639C155.62 70.4144 154.723 74.5441 153.826 78.6947C152.387 85.3898 150.927 92.085 149.488 98.7592C147.903 106.038 146.338 113.317 144.753 120.617C143.481 126.52 142.209 132.423 140.916 138.325C140.352 140.953 139.706 143.56 139.205 146.188C138.663 149.025 140.498 151.423 143.21 152.028C144.524 152.32 145.838 152.591 147.152 152.883C152.992 154.156 158.832 155.407 164.672 156.679C171.909 158.244 179.167 159.808 186.405 161.393C191.598 162.519 196.792 163.646 201.985 164.772C202.757 164.939 203.549 165.106 204.321 165.273C204.759 165.314 205.531 164.709 204.926 164.584Z" fill="#56627F"/>
<path d="M159.833 137.241C163.817 138.096 167.821 138.972 171.805 139.827C178.125 141.204 184.445 142.56 190.785 143.936C192.245 144.249 193.705 144.562 195.165 144.896C195.52 144.979 196.354 144.437 195.77 144.291C191.786 143.436 187.782 142.56 183.798 141.704C177.478 140.328 171.159 138.972 164.818 137.596C163.358 137.283 161.898 136.97 160.438 136.636C160.083 136.574 159.249 137.116 159.833 137.241Z" fill="#56627F"/>
<path d="M159.207 140.244C163.191 141.1 167.196 141.976 171.179 142.831C177.499 144.207 183.819 145.563 190.159 146.94C191.619 147.252 193.079 147.565 194.539 147.899C194.956 147.982 195.728 147.378 195.123 147.252C191.14 146.397 187.135 145.521 183.151 144.666C176.832 143.29 170.512 141.934 164.171 140.557C162.711 140.244 161.251 139.932 159.791 139.598C159.374 139.494 158.602 140.119 159.207 140.244Z" fill="#56627F"/>
<path d="M158.477 143.56C163.65 144.687 168.843 145.813 174.016 146.918C174.412 147.002 175.205 146.418 174.6 146.272C169.427 145.146 164.234 144.019 159.061 142.914C158.665 142.83 157.873 143.435 158.477 143.56Z" fill="#56627F"/>
<path d="M84.4969 71.3742V146.23C84.4969 148.045 85.9777 149.526 87.7923 149.526H155.036C156.85 149.526 158.331 148.045 158.331 146.23V134.571L158.268 128.147V57.0454C158.268 55.2309 156.788 53.75 154.973 53.75H102.079L84.4969 71.3742Z" fill="#E5E5E5"/>
<path d="M85.5401 73.0427V147.899C85.5401 149.713 87.021 151.194 88.8355 151.194H156.079C157.893 151.194 159.374 149.713 159.374 147.899V136.24L159.312 129.816V58.7139C159.312 56.8993 157.831 55.4185 156.016 55.4185H103.123L85.5401 73.0427Z" fill="white"/>
<path d="M156.079 151.528H88.8563C86.8541 151.528 85.2272 149.901 85.2272 147.899V73.0427V73.0218C85.2272 72.9384 85.2689 72.855 85.3315 72.7924L102.914 55.189C102.977 55.1264 103.06 55.0847 103.143 55.0847H156.058C158.06 55.0847 159.687 56.7116 159.687 58.7139V129.816L159.75 136.24V147.92C159.729 149.901 158.102 151.528 156.079 151.528ZM85.8738 73.1678V147.92C85.8738 149.547 87.2086 150.881 88.8355 150.881H156.079C157.706 150.881 159.04 149.547 159.04 147.92V136.261L158.978 129.837V58.7139C158.978 57.087 157.643 55.7521 156.016 55.7521H103.248L85.8738 73.1678Z" fill="#56627F"/>
<path d="M99.6604 73.3765H85.4985C85.3733 73.3765 85.2482 73.293 85.1856 73.1679C85.1439 73.0428 85.1647 72.8968 85.2482 72.8133L102.872 55.1891C102.977 55.0848 103.102 55.0639 103.227 55.1265C103.352 55.1682 103.436 55.2934 103.436 55.4394V69.6013C103.456 71.6662 101.746 73.3765 99.6604 73.3765ZM86.291 72.709H99.6396C101.371 72.709 102.768 71.3116 102.768 69.5805V56.2319L86.291 72.709Z" fill="#56627F"/>
<path d="M109.797 130.838C114.03 130.838 118.244 130.838 122.478 130.838C129.173 130.838 135.868 130.838 142.563 130.838C144.106 130.838 145.671 130.838 147.214 130.838C147.631 130.838 148.278 130.212 147.59 130.212C143.356 130.212 139.142 130.212 134.908 130.212C128.213 130.212 121.518 130.212 114.823 130.212C113.28 130.212 111.715 130.212 110.172 130.212C109.776 130.233 109.129 130.838 109.797 130.838Z" fill="#56627F"/>
<path d="M109.797 133.946C114.031 133.946 118.244 133.946 122.478 133.946C129.173 133.946 135.868 133.946 142.563 133.946C144.107 133.946 145.671 133.946 147.215 133.946C147.59 133.946 148.278 133.403 147.611 133.403C143.377 133.403 139.164 133.403 134.93 133.403C128.235 133.403 121.539 133.403 114.844 133.403C113.301 133.403 111.737 133.403 110.193 133.403C109.818 133.383 109.109 133.946 109.797 133.946Z" fill="#56627F"/>
<path d="M109.797 137.491C115.282 137.491 120.768 137.491 126.253 137.491C126.649 137.491 127.317 136.886 126.629 136.886C121.143 136.886 115.658 136.886 110.172 136.886C109.776 136.886 109.129 137.491 109.797 137.491Z" fill="#56627F"/>
<path d="M142.357 114.795C151.594 105.559 151.594 90.5833 142.357 81.3467C133.12 72.1102 118.145 72.1102 108.908 81.3468C99.6718 90.5833 99.6718 105.559 108.908 114.795C118.145 124.032 133.12 124.032 142.357 114.795Z" fill="#AFB4FA"/>
<path d="M130.154 98.4471C132.552 96.8619 134.096 94.1088 134.033 91.0428C133.929 86.2457 129.966 82.4288 125.169 82.5331C120.372 82.6374 116.555 86.6002 116.659 91.3974C116.722 94.4842 118.39 97.1539 120.831 98.6556C114.135 100.428 108.859 105.664 107.002 112.275C111.361 117.969 118.265 121.578 125.961 121.411C133.658 121.265 140.415 117.364 144.545 111.524C142.397 104.954 136.932 99.9488 130.154 98.4471Z" fill="#E3E3E3"/>
<path d="M130.446 98.4053C132.698 96.9036 134.137 93.4831 134.117 92.2734C134.012 87.7474 130.842 84.1599 126.337 84.2434C121.811 84.3268 118.223 87.7891 118.307 92.3151C118.369 95.2142 119.934 97.7379 122.228 99.1353C115.929 100.804 110.465 107.687 108.713 113.902C112.801 119.242 119.829 121.515 127.088 121.369C134.346 121.223 140.686 117.573 144.566 112.067C142.543 105.914 136.807 99.8236 130.446 98.4053Z" fill="white"/>
<path d="M130.55 98.4887C133.178 96.6741 134.742 93.6707 134.512 90.4587C134.304 87.4761 132.531 84.7647 129.903 83.3464C124.668 80.5099 117.577 83.5759 116.325 89.4576C115.553 93.1284 117.201 96.8201 120.33 98.8224C120.476 98.6973 120.601 98.5513 120.747 98.4261C115.449 99.8861 110.861 103.348 108.191 108.166C107.523 109.355 106.856 110.69 106.564 112.025C106.439 112.63 106.898 112.922 107.294 113.402C107.795 113.986 108.337 114.549 108.9 115.091C111.027 117.135 113.53 118.762 116.242 119.867C121.665 122.099 127.838 122.182 133.365 120.243C136.056 119.304 138.6 117.865 140.79 116.03C141.875 115.133 142.876 114.132 143.773 113.047C144.107 112.651 144.878 111.962 145.004 111.441C145.108 111.024 144.566 110.064 144.378 109.647C141.854 103.828 136.619 99.615 130.466 98.1758C130.195 98.1133 129.298 98.5304 129.841 98.6555C134.93 99.8235 139.414 103.056 142.146 107.52C142.772 108.542 143.293 109.626 143.731 110.753C144.023 111.545 143.836 111.837 143.335 112.463C142.897 113.026 142.417 113.568 141.938 114.09C140.081 116.05 137.891 117.677 135.451 118.866C130.279 121.411 124.167 121.786 118.682 120.013C116.117 119.179 113.718 117.886 111.591 116.238C110.61 115.466 109.693 114.632 108.858 113.714C108.504 113.318 107.857 112.797 107.649 112.296C107.398 111.691 107.941 110.732 108.17 110.169C110.402 104.642 115.136 100.408 120.872 98.8224C120.914 98.8015 121.519 98.5721 121.289 98.4261C116.346 95.2976 115.679 87.935 120.476 84.3059C125.335 80.635 132.302 83.9513 133.365 89.7078C133.991 93.0658 132.531 96.4447 129.736 98.3636C129.319 98.6973 130.341 98.6555 130.55 98.4887Z" fill="#56627F"/>
<path d="M148.758 97.5501C148.925 107.228 143.085 116.238 134.012 119.784C124.897 123.329 114.26 120.514 107.982 113.068C101.767 105.684 100.766 94.943 105.5 86.5376C110.297 78.0487 120.184 73.4393 129.778 75.2122C140.499 77.1727 148.445 86.7253 148.758 97.5501C148.779 98.0924 149.801 97.9673 149.78 97.4875C149.488 87.4553 142.939 78.445 133.365 75.2747C123.834 72.1044 113.03 75.2956 106.752 83.117C100.411 91.0218 99.7647 102.41 105.208 110.982C110.631 119.492 121.039 123.705 130.863 121.536C140.54 119.387 148.174 111.232 149.551 101.388C149.738 100.095 149.801 98.8015 149.78 97.4875C149.78 96.9244 148.758 97.0704 148.758 97.5501Z" fill="#56627F"/>
<path opacity="0.6" d="M200.645 121.538C209.882 112.301 209.882 97.326 200.645 88.0894C191.409 78.8528 176.433 78.8529 167.197 88.0894C157.96 97.326 157.96 112.301 167.197 121.538C176.433 130.775 191.409 130.775 200.645 121.538Z" fill="#C6CAFC"/>
<path d="M188.24 106.227C190.93 105.226 193.079 102.911 193.725 99.9076C194.726 95.2148 191.744 90.5845 187.051 89.5834C182.358 88.5822 177.728 91.5648 176.727 96.2576C176.08 99.2819 177.081 102.264 179.125 104.267C172.201 104.454 165.881 108.334 162.544 114.341C165.485 120.869 171.366 125.979 178.896 127.585C186.425 129.212 193.892 126.98 199.252 122.225C198.668 115.363 194.476 109.231 188.24 106.227Z" fill="#E3E3E3"/>
<path d="M188.532 106.248C191.056 105.31 193.267 102.306 193.517 101.118C194.456 96.6958 192.203 92.4618 187.781 91.5233C183.36 90.5847 179.063 93.1084 178.124 97.5301C177.52 100.367 178.458 103.182 180.377 105.08C173.87 105.268 166.966 110.691 163.816 116.364C166.57 122.517 172.889 126.334 179.981 127.856C187.072 129.379 194.101 127.272 199.127 122.809C198.585 116.322 194.393 109.085 188.532 106.248Z" fill="white"/>
<path d="M188.428 106.394C191.265 105.289 193.475 102.973 194.185 99.97C194.873 96.9874 193.955 93.7963 191.765 91.648C187.51 87.4766 180.023 88.728 177.144 93.8589C175.205 97.3212 175.893 101.618 178.646 104.433C178.876 104.287 179.105 104.141 179.314 103.995C173.807 104.204 168.51 106.519 164.776 110.586C163.858 111.587 163.045 112.693 162.336 113.861C161.919 114.57 162.169 114.799 162.544 115.529C162.878 116.197 163.254 116.843 163.65 117.469C165.131 119.805 167.008 121.87 169.219 123.539C173.891 127.084 179.835 128.774 185.675 128.252C188.637 127.981 191.536 127.189 194.205 125.875C195.519 125.228 196.792 124.477 197.96 123.601C198.398 123.288 199.42 122.725 199.67 122.225C199.879 121.807 199.628 121.015 199.566 120.556C198.523 114.236 194.393 108.813 188.658 105.998C188.407 105.873 187.469 106.269 187.844 106.436C192.453 108.709 196.041 112.735 197.73 117.594C198.127 118.741 198.419 119.93 198.606 121.119C198.731 121.933 198.752 122.266 198.106 122.788C197.584 123.205 197.063 123.601 196.521 123.977C194.018 125.687 191.16 126.876 188.199 127.46C182.734 128.503 176.936 127.418 172.18 124.54C170.032 123.247 168.113 121.599 166.507 119.68C165.756 118.783 165.068 117.845 164.442 116.843C164.13 116.343 163.838 115.821 163.566 115.279C163.441 115.05 163.212 114.737 163.17 114.466C163.066 113.903 163.525 113.423 163.817 112.985C167.196 107.917 172.827 104.705 178.938 104.496C179.063 104.496 179.856 104.308 179.606 104.058C175.413 99.7614 176.665 91.9609 182.651 89.9795C188.199 88.1649 193.83 93.1497 193.392 98.802C193.142 102.035 191.077 104.871 188.053 106.06C187.406 106.311 188.011 106.561 188.428 106.394Z" fill="#56627F"/>
<path d="M206.553 109.731C204.488 119.2 196.604 126.667 186.926 127.877C177.27 129.087 167.717 123.956 163.316 115.3C158.894 106.623 160.48 95.7986 167.175 88.728C173.849 81.6783 184.465 79.6343 193.309 83.5763C203.278 88.0189 208.722 99.1149 206.553 109.731C206.449 110.253 207.471 110.148 207.575 109.669C209.598 99.8032 205.176 89.458 196.521 84.2438C187.886 79.0503 176.623 79.8221 168.781 86.1418C160.897 92.4823 157.747 103.453 161.189 112.985C164.609 122.454 173.786 128.836 183.84 128.857C193.788 128.899 203.07 122.517 206.553 113.193C206.991 112.046 207.304 110.878 207.575 109.669C207.679 109.147 206.657 109.251 206.553 109.731Z" fill="#56627F"/>
<path d="M109.671 150.381L46.7038 166.9C44.2635 167.546 41.719 166.066 41.0933 163.625L19.1516 80.1134C18.505 77.6731 19.9859 75.1286 22.4262 74.5029L85.3937 57.984C87.834 57.3375 90.3786 58.8183 91.0043 61.2586L112.925 144.77C113.593 147.211 112.112 149.734 109.671 150.381Z" fill="#E5E5E5"/>
<path d="M112.175 151.424L49.2072 167.943C46.767 168.589 44.2224 167.108 43.5967 164.668L21.655 81.1561C21.0084 78.7159 22.4893 76.1713 24.9296 75.5456L87.8972 59.0268C90.3374 58.3802 92.882 59.861 93.5077 62.3013L115.429 145.813C116.096 148.253 114.615 150.777 112.175 151.424Z" fill="white"/>
<path d="M112.07 151.09C109.129 151.862 106.168 152.634 103.227 153.405C96.6152 155.137 90.0035 156.868 83.3918 158.62C76.3421 160.476 69.2924 162.311 62.2427 164.168C58.0713 165.273 53.8999 166.358 49.7284 167.463C49.5199 167.526 49.3113 167.588 49.1027 167.63C46.8084 168.172 44.7019 166.691 44.0762 164.501C43.8467 163.73 43.659 162.937 43.4713 162.165C42.3033 157.681 41.1145 153.197 39.9465 148.692C38.1527 141.871 36.359 135.03 34.5653 128.21C32.6673 120.952 30.7485 113.693 28.8505 106.435C27.3071 100.554 25.7636 94.6718 24.2202 88.7901C23.5528 86.2038 22.8019 83.6384 22.1762 81.0521C21.6548 78.8413 22.7811 76.5261 25.0336 75.8587C25.2631 75.7961 25.4716 75.7336 25.7011 75.6919C27.2445 75.2956 28.767 74.8784 30.3105 74.4821C36.359 72.897 42.4076 71.3119 48.4353 69.7267C55.6518 67.8287 62.8684 65.9307 70.1058 64.0327C75.2784 62.677 80.4718 61.3213 85.6444 59.9447C86.5621 59.7153 87.5006 59.3607 88.4184 59.2356C90.5666 58.9436 92.4438 60.4453 93.0278 62.4684C93.0904 62.7187 93.1529 62.969 93.2364 63.2402C94.1958 66.8693 95.1343 70.4776 96.0938 74.1067C97.7832 80.5307 99.4726 86.9755 101.162 93.3995C103.102 100.741 105.021 108.104 106.96 115.445C108.629 121.807 110.297 128.168 111.966 134.53C112.905 138.096 113.843 141.663 114.761 145.209C114.823 145.438 114.886 145.647 114.928 145.876C115.47 148.129 114.323 150.423 112.07 151.09C111.465 151.278 111.632 151.925 112.237 151.737C115.136 150.882 116.575 148.149 115.845 145.271C115.533 144.103 115.241 142.935 114.928 141.767C113.572 136.636 112.237 131.505 110.881 126.395C109.004 119.2 107.106 112.004 105.229 104.829C103.31 97.5292 101.391 90.2292 99.4726 82.9293C98.0752 77.569 96.6569 72.2296 95.2595 66.8693C94.9049 65.5344 94.5503 64.1787 94.1958 62.8439C93.6326 60.7373 92.3395 58.9853 90.0244 58.589C88.6478 58.3596 87.3129 58.8185 85.9989 59.173C83.9549 59.7153 81.9318 60.2367 79.8878 60.779C73.2344 62.531 66.581 64.2622 59.9276 66.0142C52.711 67.9121 45.5153 69.7893 38.2987 71.6873C34.0022 72.8136 29.7056 73.9399 25.4091 75.0661C22.8853 75.7336 20.7579 77.6107 20.9665 80.4473C21.0291 81.3233 21.3419 82.1993 21.5713 83.0544C22.6976 87.3718 23.8448 91.6893 24.9711 96.0067C26.7856 102.91 28.6002 109.814 30.4148 116.718C32.3753 124.143 34.315 131.589 36.2756 139.014C37.8607 145.021 39.425 151.028 41.0102 157.035C41.6985 159.621 42.3033 162.228 43.0542 164.793C43.9093 167.713 46.8084 168.902 49.6033 168.193C50.9799 167.839 52.3773 167.463 53.7539 167.109C59.7398 165.544 65.7258 163.959 71.7118 162.395C79.1369 160.455 86.5621 158.495 93.9872 156.555C99.2849 155.157 104.603 153.781 109.901 152.383C110.694 152.175 111.465 151.966 112.258 151.758C112.863 151.57 112.696 150.923 112.07 151.09Z" fill="#56627F"/>
<path d="M57.9671 143.853C62.0342 142.789 66.1014 141.726 70.1685 140.641C76.6551 138.931 83.1208 137.241 89.6073 135.531C91.0882 135.135 92.569 134.759 94.0499 134.363C94.6547 134.196 94.5296 133.696 93.9247 133.862C89.8576 134.926 85.7905 135.99 81.7233 137.074C75.2368 138.785 68.7711 140.474 62.2845 142.184C60.8037 142.581 59.3228 142.956 57.842 143.352C57.2371 143.519 57.3623 144.02 57.9671 143.853Z" fill="#56627F"/>
<path d="M58.7804 146.94C62.8475 145.876 66.9146 144.813 70.9818 143.728C77.4683 142.018 83.934 140.328 90.4206 138.618C91.9015 138.222 93.3823 137.846 94.8632 137.45C95.468 137.283 95.322 136.678 94.6963 136.845C90.6292 137.909 86.562 138.973 82.4949 140.057C76.0083 141.767 69.5426 143.457 63.0561 145.167C61.5752 145.563 60.0944 145.939 58.6135 146.335C58.0087 146.481 58.1547 147.107 58.7804 146.94Z" fill="#56627F"/>
<path d="M59.6565 150.298C64.9542 148.901 70.2519 147.524 75.5287 146.127C76.1336 145.96 75.9876 145.418 75.3827 145.564C70.085 146.961 64.7873 148.338 59.5105 149.735C58.9056 149.923 59.0516 150.465 59.6565 150.298Z" fill="#56627F"/>
<path opacity="0.6" d="M83.625 123.183C92.8616 113.946 92.8616 98.9705 83.625 89.734C74.3885 80.4974 59.413 80.4974 50.1764 89.734C40.9399 98.9705 40.9399 113.946 50.1764 123.183C59.413 132.419 74.3884 132.419 83.625 123.183Z" fill="#C6CAFC"/>
<path d="M71.399 105.831C73.3805 103.745 74.2982 100.741 73.5473 97.738C72.4002 93.0661 67.6865 90.2295 63.0145 91.3766C58.3425 92.5238 55.5059 97.2375 56.6531 101.909C57.3831 104.913 59.5939 107.145 62.3262 108.062C56.1942 111.274 52.1896 117.531 51.8351 124.393C57.3413 128.982 64.8708 130.984 72.3376 129.128C79.8253 127.272 85.561 121.995 88.2724 115.383C84.7684 109.481 78.3236 105.81 71.399 105.831Z" fill="#E3E3E3"/>
<path d="M71.6702 105.726C73.5265 103.766 74.1939 100.095 73.902 98.9268C72.7965 94.5468 68.9171 91.7311 64.5371 92.8157C60.1571 93.9002 57.404 98.0717 58.4886 102.452C59.1768 105.267 61.2626 107.374 63.828 108.25C58.0506 111.274 54.2337 119.179 53.8791 125.645C59.0517 129.962 66.3934 130.63 73.4431 128.878C80.4719 127.146 85.8739 122.182 88.4394 115.946C85.1231 110.377 78.1777 105.705 71.6702 105.726Z" fill="white"/>
<path d="M71.8575 105.81C74.2352 103.203 74.986 99.4694 73.5678 96.2157C72.4206 93.5669 70.0012 91.6689 67.1855 91.0849C61.3664 89.8752 55.4638 94.5472 55.9018 100.596C56.1521 104.141 58.5924 107.103 61.9086 108.292C61.9504 108.188 61.9712 108.063 62.0129 107.958C57.1324 110.565 53.4198 115.05 51.9807 120.41C51.8138 121.036 51.6678 121.682 51.5635 122.329C51.4801 122.809 51.1255 124.06 51.3341 124.498C51.5218 124.915 52.3144 125.332 52.6898 125.603C53.3781 126.083 54.0664 126.542 54.7964 126.959C57.4244 128.461 60.3444 129.441 63.3478 129.858C69.0626 130.63 75.0069 129.253 79.8249 126.104C82.1192 124.602 84.1423 122.725 85.79 120.535C86.6034 119.451 87.3334 118.283 87.9592 117.073C88.1886 116.614 88.7726 115.821 88.7726 115.321C88.7726 114.925 88.0217 114.069 87.7923 113.777C84.038 108.584 77.9478 105.601 71.5863 105.581C71.2526 105.581 70.5018 106.081 71.1692 106.081C76.446 106.102 81.5352 108.313 85.1852 112.151C85.6023 112.589 86.0194 113.068 86.3949 113.548C86.7703 114.028 87.4169 114.695 87.6046 115.279C87.7923 115.884 87.2917 116.593 87.0206 117.115C86.7286 117.719 86.3949 118.303 86.0403 118.867C84.6846 121.036 82.9743 122.996 80.9929 124.602C76.6129 128.148 70.9606 129.942 65.3292 129.525C62.4301 129.316 59.5935 128.544 56.9864 127.272C55.7975 126.688 54.6712 126.021 53.6075 125.249C53.0027 124.811 52.3978 124.519 52.3561 123.726C52.3144 123.038 52.5229 122.266 52.6481 121.62C53.7744 115.905 57.4661 110.941 62.5969 108.209C62.7012 108.146 62.9306 107.958 62.7012 107.875C57.3409 105.977 55.1092 99.3026 58.5506 94.6515C62.2215 89.7083 69.8343 90.8137 72.4206 96.2366C73.964 99.4694 73.2966 103.245 70.8981 105.852C70.6895 106.102 71.6698 106.019 71.8575 105.81Z" fill="#56627F"/>
<path d="M89.3358 100.846C91.6092 110.19 87.9384 120.201 79.971 125.687C71.8784 131.256 60.8659 130.922 53.0444 125.019C45.2856 119.179 41.9068 108.73 44.8267 99.4486C47.705 90.2714 56.1522 83.6597 65.7881 83.2009C76.759 82.7003 86.6244 90.2923 89.3358 100.846C89.4609 101.347 90.4621 101.075 90.3369 100.575C87.8341 90.8554 79.4287 83.5555 69.4381 82.5335C59.4059 81.5115 49.5405 86.9969 45.1396 96.0697C40.7179 105.184 42.6368 116.405 49.8325 123.518C56.9864 130.609 68.0824 132.444 77.1761 128.169C86.1864 123.956 91.8178 114.278 90.9626 104.371C90.8584 103.099 90.6289 101.826 90.3369 100.575C90.2118 100.074 89.2107 100.345 89.3358 100.846Z" fill="#56627F"/>
<path d="M192.537 178.976H58.697C56.0065 178.976 53.8373 176.807 53.8373 174.116V154.907C53.8373 152.216 56.0065 150.047 58.697 150.047H192.537C195.228 150.047 197.397 152.216 197.397 154.907V174.116C197.397 176.807 195.228 178.976 192.537 178.976Z" fill="white"/>
<path d="M192.724 178.642C191.056 178.642 189.387 178.642 187.719 178.642C183.276 178.642 178.813 178.642 174.37 178.642C167.988 178.642 161.605 178.642 155.223 178.642C147.736 178.642 140.269 178.642 132.781 178.642C125.043 178.642 117.326 178.642 109.588 178.642C102.476 178.642 95.3633 178.642 88.2511 178.642C82.5362 178.642 76.8214 178.642 71.1065 178.642C67.6651 178.642 64.2237 178.642 60.7614 178.642C60.1566 178.642 59.5517 178.663 58.9468 178.642C57.1949 178.6 55.6097 177.683 54.8171 176.077C54.2957 175.034 54.3374 173.949 54.3374 172.823C54.3374 166.858 54.2331 160.893 54.3374 154.949C54.3791 152.321 56.2563 150.381 58.8843 150.381C59.7603 150.381 60.6154 150.381 61.4914 150.381C65.35 150.381 69.2294 150.381 73.088 150.381C79.0531 150.381 85.0391 150.381 91.0042 150.381C98.3042 150.381 105.583 150.381 112.883 150.381C120.621 150.381 128.38 150.381 136.118 150.381C143.481 150.381 150.843 150.381 158.206 150.381C164.338 150.381 170.47 150.381 176.602 150.381C180.669 150.381 184.715 150.381 188.782 150.381C191.744 150.381 195.331 149.901 196.625 153.405C196.979 154.365 196.896 155.366 196.896 156.367C196.896 157.848 196.896 159.329 196.896 160.83C196.896 164.418 196.896 168.005 196.896 171.592C196.896 172.427 196.917 173.261 196.896 174.095C196.854 176.577 195.144 178.6 192.599 178.663C192.057 178.684 191.807 179.351 192.495 179.33C194.81 179.268 196.958 177.85 197.688 175.597C197.98 174.658 197.939 173.657 197.939 172.677C197.939 169.215 197.939 165.773 197.939 162.311C197.939 159.829 198.001 157.347 197.939 154.865C197.876 151.841 195.477 149.734 192.537 149.713C190.18 149.693 187.802 149.713 185.445 149.713C180.377 149.713 175.288 149.713 170.219 149.713C163.357 149.713 156.516 149.713 149.654 149.713C141.896 149.713 134.137 149.713 126.357 149.713C118.536 149.713 110.714 149.713 102.914 149.713C96.0099 149.713 89.0854 149.713 82.1817 149.713C77.03 149.713 71.8783 149.713 66.7265 149.713C64.2237 149.713 61.7208 149.713 59.218 149.713C56.6943 149.713 54.2957 151.027 53.5449 153.572C53.2737 154.49 53.3363 155.47 53.3363 156.409C53.3363 157.931 53.3363 159.475 53.3363 160.997C53.3363 164.626 53.3363 168.234 53.3363 171.864C53.3363 172.635 53.3154 173.386 53.3363 174.158C53.378 176.431 54.8171 178.434 57.028 179.101C57.8831 179.351 58.7591 179.33 59.6351 179.33C60.8448 179.33 62.0337 179.33 63.2434 179.33C67.7068 179.33 72.1911 179.33 76.6545 179.33C83.1828 179.33 89.6902 179.33 96.2185 179.33C103.831 179.33 111.465 179.33 119.078 179.33C126.941 179.33 134.804 179.33 142.667 179.33C149.905 179.33 157.142 179.33 164.379 179.33C170.053 179.33 175.705 179.33 181.378 179.33C184.611 179.33 187.844 179.33 191.077 179.33C191.494 179.33 191.932 179.33 192.349 179.33C192.808 179.31 193.392 178.642 192.724 178.642Z" fill="#56627F"/>
<path d="M82.7664 156.493L85.0189 161.039C85.1023 161.206 85.2692 161.331 85.4569 161.352L90.4835 162.082C90.9632 162.145 91.1509 162.729 90.7963 163.083L87.1672 166.629C87.0212 166.754 86.9586 166.963 87.0003 167.151L87.8555 172.156C87.9389 172.636 87.4383 172.991 87.0212 172.761L82.5161 170.404C82.3492 170.321 82.1406 170.321 81.9738 170.404L77.4687 172.761C77.0515 172.991 76.5509 172.615 76.6344 172.156L77.4895 167.151C77.5312 166.963 77.4687 166.775 77.3227 166.629L73.6935 163.083C73.3389 162.75 73.5475 162.166 74.0064 162.082L79.0329 161.352C79.2206 161.331 79.3875 161.206 79.4709 161.039L81.7235 156.493C81.9321 156.075 82.5369 156.075 82.7664 156.493Z" fill="#FFDD85"/>
<path d="M104.499 155.679L106.981 160.706C107.065 160.893 107.253 161.019 107.461 161.06L113.009 161.874C113.531 161.957 113.739 162.604 113.364 162.958L109.359 166.859C109.213 167.005 109.13 167.213 109.171 167.422L110.11 172.949C110.193 173.47 109.651 173.867 109.171 173.616L104.207 171.009C104.02 170.905 103.79 170.905 103.603 171.009L98.6386 173.616C98.1589 173.867 97.6166 173.47 97.7 172.949L98.6386 167.422C98.6803 167.213 98.5969 167.005 98.4509 166.859L94.4463 162.958C94.0709 162.583 94.2795 161.936 94.8009 161.874L100.349 161.06C100.557 161.039 100.745 160.893 100.829 160.706L103.311 155.679C103.582 155.199 104.27 155.199 104.499 155.679Z" fill="#FFDD85"/>
<path d="M126.149 156.493L128.402 161.039C128.485 161.206 128.652 161.331 128.84 161.352L133.866 162.082C134.346 162.145 134.534 162.729 134.179 163.083L130.55 166.629C130.404 166.754 130.341 166.963 130.383 167.151L131.238 172.156C131.322 172.636 130.821 172.991 130.404 172.761L125.899 170.404C125.732 170.321 125.523 170.321 125.357 170.404L120.851 172.761C120.434 172.991 119.934 172.615 120.017 172.156L120.872 167.151C120.914 166.963 120.851 166.775 120.705 166.629L117.076 163.083C116.722 162.75 116.93 162.166 117.389 162.082L122.416 161.352C122.603 161.331 122.77 161.206 122.854 161.039L125.106 156.493C125.315 156.075 125.941 156.075 126.149 156.493Z" fill="#FFDD85"/>
<path d="M147.841 156.493L150.093 161.039C150.177 161.206 150.343 161.331 150.531 161.352L155.558 162.082C156.037 162.145 156.225 162.729 155.871 163.083L152.241 166.629C152.095 166.754 152.033 166.963 152.075 167.151L152.93 172.156C153.013 172.636 152.513 172.991 152.095 172.761L147.59 170.404C147.423 170.321 147.215 170.321 147.048 170.404L142.543 172.761C142.126 172.991 141.625 172.615 141.709 172.156L142.564 167.151C142.605 166.963 142.543 166.775 142.397 166.629L138.768 163.083C138.413 162.75 138.622 162.166 139.081 162.082L144.107 161.352C144.295 161.331 144.462 161.206 144.545 161.039L146.798 156.493C147.006 156.075 147.632 156.075 147.841 156.493Z" fill="#EFEFEF"/>
<path d="M169.532 156.493L171.784 161.039C171.868 161.206 172.035 161.331 172.222 161.352L177.249 162.082C177.729 162.145 177.916 162.729 177.562 163.083L173.933 166.629C173.787 166.754 173.724 166.963 173.766 167.151L174.621 172.156C174.704 172.636 174.204 172.991 173.787 172.761L169.282 170.404C169.115 170.321 168.906 170.321 168.739 170.404L164.234 172.761C163.817 172.991 163.316 172.615 163.4 172.156L164.255 167.151C164.297 166.963 164.234 166.775 164.088 166.629L160.459 163.083C160.104 162.75 160.313 162.166 160.772 162.082L165.798 161.352C165.986 161.331 166.153 161.206 166.236 161.039L168.489 156.493C168.698 156.075 169.323 156.075 169.532 156.493Z" fill="#EFEFEF"/>
<path d="M229.266 92.0432L225.72 109.25C225.532 110.126 224.719 110.689 223.884 110.523C221.11 109.959 218.336 109.375 215.563 108.812C211.892 108.061 208.221 107.311 204.55 106.539C203.215 106.268 200.65 106.33 200.65 106.33C200.65 106.33 201.964 105.308 202.193 105.058C202.402 104.808 202.589 104.599 202.673 104.328C202.819 103.807 202.881 103.285 203.007 102.764C203.215 101.763 205.968 88.3098 206.177 87.3086C206.365 86.4326 207.178 85.8695 208.012 86.0363L228.098 90.166C228.911 90.3329 229.453 91.188 229.266 92.0432Z" fill="#E5E5E5"/>
<path d="M228.306 92.5437L224.761 109.751C224.573 110.627 223.76 111.19 222.925 111.023C220.151 110.46 217.377 109.876 214.603 109.313C210.932 108.562 207.262 107.811 203.591 107.039C202.256 106.768 199.69 106.831 199.69 106.831C199.69 106.831 201.004 105.809 201.234 105.559C201.442 105.308 201.63 105.1 201.714 104.829C201.86 104.307 201.922 103.786 202.047 103.264C202.256 102.263 205.009 88.8102 205.218 87.8091C205.405 86.9331 206.219 86.37 207.053 86.5368L227.138 90.6665C227.952 90.8334 228.494 91.6677 228.306 92.5437Z" fill="#E3E3E3"/>
<path d="M226.846 93.3572L223.509 109.605C223.342 110.418 222.571 110.961 221.778 110.794C219.15 110.251 216.501 109.709 213.873 109.167C210.39 108.458 206.907 107.728 203.403 107.019C202.131 106.748 199.69 106.831 199.69 106.831C199.69 106.831 200.942 105.872 201.15 105.621C201.359 105.392 201.526 105.204 201.609 104.933C201.755 104.453 201.818 103.932 201.922 103.452C202.11 102.514 204.738 89.8115 204.926 88.8521C205.092 88.0387 205.864 87.4964 206.657 87.6633L225.72 91.5844C226.513 91.7512 227.013 92.5438 226.846 93.3572Z" fill="white"/>
<path d="M227.848 92.5854C227.076 96.3813 226.283 100.177 225.512 103.973C225.136 105.788 224.802 107.623 224.385 109.438C224.364 109.542 224.344 109.667 224.323 109.772C223.885 111.273 222.049 110.481 220.923 110.251C218.337 109.73 215.75 109.188 213.164 108.666C208.742 107.748 204.258 106.414 199.732 106.518C199.816 106.685 199.899 106.852 199.982 107.039C200.525 106.601 201.13 106.205 201.609 105.684C202.298 104.933 202.339 103.952 202.548 103.014C202.798 101.762 203.069 100.511 203.32 99.2596C204.029 95.7973 204.738 92.3142 205.468 88.8519C205.53 88.4974 205.593 88.1219 205.676 87.7882C205.906 86.9957 206.49 86.8079 207.178 86.9122C208.179 87.0582 209.16 87.3085 210.14 87.5171C213.581 88.2262 217.002 88.9354 220.443 89.6236C222.07 89.9574 223.718 90.2911 225.345 90.6248C226.471 90.8751 228.056 90.9168 227.848 92.5854C227.785 93.0234 228.703 92.8982 228.765 92.5019C228.953 91.0419 227.91 90.4579 226.68 90.2076C225.449 89.9574 224.239 89.7071 223.009 89.4568C219.338 88.7059 215.667 87.9551 211.996 87.1834C210.682 86.9122 209.368 86.6411 208.054 86.3699C207.032 86.1614 206.031 85.9945 205.238 86.8705C204.529 87.6631 204.467 89.2482 204.258 90.2494C203.862 92.1682 203.466 94.1079 203.069 96.0268C202.652 98.0291 202.256 100.031 201.839 102.013C201.734 102.472 201.651 102.951 201.547 103.41C201.359 104.349 201.213 105.12 200.462 105.746C200.108 106.038 199.753 106.33 199.398 106.601C199.086 106.852 199.315 107.123 199.649 107.123C203.987 107.018 208.284 108.312 212.497 109.188C215.208 109.751 217.899 110.293 220.61 110.856C222.3 111.211 224.615 111.941 225.22 109.688C225.595 108.332 225.783 106.914 226.075 105.558C226.617 102.91 227.159 100.261 227.702 97.6119C228.056 95.9016 228.411 94.1914 228.765 92.4811C228.849 92.0848 227.931 92.1891 227.848 92.5854Z" fill="#56627F"/>
<path d="M215.959 94.5046L216.773 97.1535C216.794 97.2578 216.877 97.3412 216.981 97.362L219.63 98.1963C219.88 98.2797 219.922 98.6135 219.714 98.7595L217.44 100.345C217.357 100.407 217.294 100.511 217.315 100.616L217.336 103.39C217.336 103.661 217.044 103.807 216.835 103.64L214.624 101.971C214.541 101.909 214.437 101.888 214.333 101.93L211.705 102.806C211.454 102.889 211.225 102.66 211.308 102.409L212.205 99.8023C212.247 99.698 212.226 99.5938 212.163 99.5103L210.516 97.2786C210.37 97.07 210.516 96.778 210.766 96.778L213.54 96.8198C213.644 96.8198 213.749 96.778 213.811 96.6946L215.417 94.442C215.542 94.1918 215.876 94.2543 215.959 94.5046Z" fill="#FFDD85"/>
</svg>
