<svg width="250" height="250" viewBox="0 0 250 250" fill="none" xmlns="http://www.w3.org/2000/svg">
<path d="M250 0H0V250H250V0Z" fill="white"/>
<path d="M179.08 70.2912V171.374C179.08 173.958 176.914 176.041 174.247 176.041H75.6012C72.9345 176.041 70.7678 173.958 70.7678 171.374V154.875L70.8512 145.791V45.2912C70.8512 42.7078 73.0178 40.6245 75.6845 40.6245H171.539C175.705 40.6245 179.101 43.8953 179.101 47.937V65.5203L179.08 70.2912Z" fill="#EFEFEF"/>
<path d="M176.039 69.8538V171.479C176.039 174 173.955 176.021 171.372 176.021H75.4137C72.8304 176.021 70.7471 173.979 70.7471 171.479V155.396L70.8304 146.521V48.4997C70.8304 45.9788 72.9137 43.958 75.4971 43.958H171.851C174.164 43.958 176.039 45.7497 176.039 47.958V69.8538Z" fill="#F9F9F9"/>
<path d="M178.581 70.4373C178.581 74.6457 178.581 78.8748 178.581 83.0831C178.581 92.854 178.581 102.604 178.581 112.375C178.581 123.25 178.581 134.104 178.581 144.979C178.581 152.604 178.581 160.25 178.581 167.875C178.581 169.083 178.623 170.291 178.581 171.521C178.518 173.937 176.685 175.812 174.248 175.833C173.664 175.833 173.102 175.833 172.518 175.833C165.664 175.833 158.81 175.833 151.956 175.833C141.248 175.833 130.539 175.833 119.831 175.833C109.852 175.833 99.8518 175.833 89.8726 175.833C85.2059 175.833 80.5184 175.958 75.8309 175.833C73.1018 175.75 71.2684 173.604 71.2476 170.958C71.2268 168.958 71.2476 166.958 71.2476 164.979C71.2476 161.354 71.2268 157.729 71.2476 154.104C71.2893 149.354 71.3309 144.604 71.3309 139.854C71.3309 131.458 71.3309 123.062 71.3309 114.666C71.3309 103.687 71.3309 92.729 71.3309 81.7498C71.3309 72.5831 71.3309 63.4165 71.3309 54.2498C71.3309 51.7706 71.3309 49.2707 71.3309 46.7915C71.3309 46.2915 71.3309 45.7915 71.3309 45.2915C71.3726 42.9373 73.0601 40.9581 75.4976 40.8956C80.2684 40.7706 85.0809 40.8956 89.8518 40.8956C99.9559 40.8956 110.06 40.8956 120.164 40.8956C130.727 40.8956 141.31 40.8956 151.873 40.8956C158.06 40.8956 164.248 40.8956 170.435 40.8956C170.893 40.8956 171.352 40.8748 171.789 40.9165C175.602 41.1873 178.518 44.3748 178.581 48.1665C178.643 52.4582 178.581 56.729 178.581 61.0206C178.581 64.1248 178.581 67.2707 178.581 70.4373C178.581 70.6457 179.581 70.4998 179.581 70.1665C179.581 66.7706 179.581 63.354 179.581 59.9581C179.581 57.229 179.581 54.4998 179.581 51.7707C179.581 50.2707 179.685 48.729 179.56 47.2498C179.268 43.5415 176.06 40.729 172.435 40.4373C171.935 40.3957 171.414 40.4165 170.914 40.4165C168.664 40.4165 166.435 40.4165 164.185 40.4165C155.018 40.4165 145.852 40.4165 136.664 40.4165C125.602 40.4165 114.539 40.4165 103.477 40.4165C95.4976 40.4165 87.5393 40.4165 79.5601 40.4165C78.3309 40.4165 77.1018 40.3957 75.8726 40.4165C72.9976 40.479 70.3934 42.4582 70.3101 45.4582C70.3101 45.854 70.3101 46.2498 70.3101 46.6457C70.3101 53.0623 70.3101 59.479 70.3101 65.8956C70.3101 76.6665 70.3101 87.4165 70.3101 98.1873C70.3101 108.562 70.3101 118.916 70.3101 129.291C70.3101 134.75 70.3101 140.187 70.3101 145.646C70.3101 152.5 70.2268 159.375 70.2268 166.229C70.2268 167.979 70.1851 169.729 70.2268 171.458C70.2893 174.312 72.6226 176.229 75.3726 176.271C76.7268 176.291 78.1018 176.271 79.4559 176.271C87.4768 176.271 95.5184 176.271 103.539 176.271C114.643 176.271 125.727 176.271 136.831 176.271C146.185 176.271 155.56 176.271 164.914 176.271C167.435 176.271 169.977 176.271 172.498 176.271C172.977 176.271 173.435 176.271 173.914 176.271C176.31 176.229 178.768 174.875 179.393 172.396C179.727 171.062 179.539 169.437 179.539 168.083C179.539 165.021 179.539 161.937 179.539 158.875C179.539 149.041 179.539 139.229 179.539 129.396C179.539 118.333 179.539 107.291 179.539 96.229C179.539 88.6456 179.539 81.0415 179.539 73.4582C179.539 72.354 179.539 71.2498 179.539 70.1457C179.581 69.9582 178.581 70.104 178.581 70.4373Z" fill="#56627F"/>
<path d="M170.06 75.3748V162.979C170.06 165.208 168.248 167.021 166.019 167.021H83.8102C81.5811 167.021 79.7686 165.208 79.7686 162.979V148.687L79.8311 140.812V53.7082C79.8311 51.479 81.6436 49.6665 83.8727 49.6665H163.748C167.227 49.6665 170.039 52.4998 170.039 55.9998V71.2498L170.06 75.3748Z" fill="#F9F9F9"/>
<path d="M167.518 74.9995V163.083C167.518 165.27 165.768 167.02 163.623 167.02H83.6434C81.4976 167.02 79.7476 165.25 79.7476 163.083V149.145L79.8101 141.458V56.4995C79.8101 54.312 81.5601 52.562 83.7059 52.562H163.998C165.935 52.562 167.498 54.1037 167.498 56.0203L167.518 74.9995Z" fill="white"/>
<path d="M169.56 77.479C169.56 80.3331 169.56 83.2081 169.56 86.0623C169.56 92.8956 169.56 99.729 169.56 106.562C169.56 114.812 169.56 123.062 169.56 131.312C169.56 138.437 169.56 145.541 169.56 152.666C169.56 156.104 169.622 159.541 169.56 162.979C169.518 164.896 168.289 166.729 166.247 166.791C166.018 166.791 165.789 166.791 165.581 166.791C164.018 166.791 162.476 166.791 160.914 166.791C154.643 166.791 148.351 166.791 142.081 166.791C133.872 166.791 125.685 166.791 117.476 166.791C110.101 166.791 102.726 166.791 95.3514 166.791C91.6431 166.791 87.9347 166.854 84.2472 166.791C82.7472 166.771 81.3722 166 80.7056 164.604C80.1639 163.479 80.3097 162.166 80.3097 160.958C80.3097 157.25 80.3097 153.541 80.3097 149.833C80.3097 146.354 80.3722 142.896 80.3722 139.416C80.3722 134.875 80.3722 130.333 80.3722 125.791C80.3722 118.166 80.3722 110.541 80.3722 102.937C80.3722 94.7706 80.3722 86.604 80.3722 78.4373C80.3722 72.1665 80.3722 65.8748 80.3722 59.604C80.3722 57.9373 80.3722 56.2706 80.3722 54.604C80.3722 54.2915 80.3722 53.9581 80.3722 53.6456C80.4139 51.7498 81.6847 49.9581 83.7264 49.8956C87.8514 49.7915 91.9764 49.8956 96.1014 49.8956C104.122 49.8956 112.122 49.8956 120.143 49.8956C126.664 49.8956 133.164 49.8956 139.685 49.8956C140.706 49.8956 141.726 49.8956 142.726 49.8956C143.039 49.8956 143.81 49.4373 143.143 49.4373C139.185 49.4373 135.226 49.4373 131.268 49.4373C123.143 49.4373 115.039 49.4373 106.914 49.4373C100.289 49.4373 93.6431 49.4373 87.0181 49.4373C85.7681 49.4373 84.3931 49.2915 83.1431 49.5415C81.0181 49.9581 79.4347 51.6665 79.3722 53.854C79.3722 54.104 79.3722 54.354 79.3722 54.604C79.3722 58.8956 79.3722 63.1665 79.3722 67.4581C79.3722 75.0623 79.3722 82.6456 79.3722 90.2498C79.3722 98.5831 79.3722 106.896 79.3722 115.229C79.3722 121.708 79.3722 128.208 79.3722 134.687C79.3722 137.479 79.3722 140.291 79.3514 143.083C79.2889 149.375 79.3097 155.666 79.3097 161.958C79.3097 163.458 79.3722 164.875 80.5181 166.021C81.4139 166.916 82.5806 167.25 83.8097 167.25C85.0389 167.271 86.2681 167.25 87.4972 167.25C93.4764 167.25 99.4556 167.25 105.456 167.25C113.726 167.25 121.997 167.25 130.247 167.25C137.893 167.25 145.518 167.25 153.164 167.25C157.268 167.25 161.351 167.271 165.456 167.25C168.101 167.229 170.518 165.666 170.601 162.812C170.622 161.875 170.601 160.916 170.601 159.979C170.601 154.479 170.601 148.979 170.601 143.479C170.601 135.375 170.601 127.291 170.601 119.187C170.601 111.187 170.601 103.166 170.601 95.1665C170.601 89.9165 170.601 84.6873 170.601 79.4373C170.601 78.6873 170.601 77.9373 170.601 77.2081C170.56 76.9998 169.56 77.1456 169.56 77.479Z" fill="#56627F"/>
<path d="M111.309 125.666H93.4963C92.4338 125.666 91.5796 124.812 91.5796 123.749V109.083C91.5796 108.02 92.4338 107.166 93.4963 107.166H111.309C112.371 107.166 113.225 108.02 113.225 109.083V123.749C113.246 124.791 112.371 125.666 111.309 125.666Z" fill="#C6CAFC"/>
<path d="M98.995 110.541C106.932 110.541 114.87 110.541 122.828 110.541C123.953 110.541 125.057 110.541 126.182 110.541C126.599 110.541 127.245 109.916 126.557 109.916C118.62 109.916 110.682 109.916 102.724 109.916C101.599 109.916 100.495 109.916 99.37 109.916C98.9533 109.916 98.3075 110.541 98.995 110.541Z" fill="#56627F"/>
<path d="M92.3697 118.166C99.828 118.166 107.266 118.166 114.724 118.166C126.578 118.166 138.432 118.166 150.286 118.166C152.974 118.166 155.661 118.166 158.37 118.166C158.724 118.166 159.453 117.625 158.766 117.625C151.307 117.625 143.87 117.625 136.411 117.625C124.557 117.625 112.703 117.625 100.849 117.625C98.1614 117.625 95.4739 117.625 92.7655 117.625C92.4114 117.625 91.703 118.166 92.3697 118.166Z" fill="#56627F"/>
<path d="M91.9531 123.374C99.4531 123.374 106.953 123.374 114.453 123.374C126.391 123.374 138.349 123.374 150.286 123.374C153.016 123.374 155.745 123.374 158.474 123.374C158.682 123.374 159.599 122.979 159.141 122.979C151.641 122.979 144.141 122.979 136.641 122.979C124.703 122.979 112.745 122.979 100.807 122.979C98.0781 122.979 95.349 122.979 92.6198 122.979C92.4115 122.979 91.4948 123.374 91.9531 123.374Z" fill="#56627F"/>
<path d="M91.974 128.52C96.5781 128.52 101.182 128.52 105.786 128.52C113.12 128.52 120.474 128.52 127.807 128.52C129.495 128.52 131.203 128.52 132.891 128.52C133.12 128.52 134.036 128.104 133.536 128.104C128.932 128.104 124.328 128.104 119.724 128.104C112.391 128.104 105.036 128.104 97.7031 128.104C96.0156 128.104 94.3073 128.104 92.6198 128.104C92.3906 128.104 91.474 128.52 91.974 128.52Z" fill="#56627F"/>
<path d="M111.246 94.9787H93.8296C92.6629 94.9787 91.7046 94.0203 91.7046 92.8537V78.562C91.7046 77.3953 92.6629 76.437 93.8296 76.437H111.246C112.413 76.437 113.371 77.3953 113.371 78.562V92.8537C113.35 94.0412 112.413 94.9787 111.246 94.9787Z" fill="#C6CAFC"/>
<path d="M98.7671 79.937C106.934 79.937 115.08 79.937 123.246 79.937C124.392 79.937 125.538 79.937 126.663 79.937C127.246 79.937 127.434 79.187 126.746 79.187C118.58 79.187 110.434 79.187 102.267 79.187C101.121 79.187 99.9754 79.187 98.8504 79.187C98.2879 79.187 98.1004 79.937 98.7671 79.937Z" fill="#56627F"/>
<path d="M92.3712 87.5202C99.8295 87.5202 107.267 87.5202 114.725 87.5202C126.58 87.5202 138.434 87.5202 150.288 87.5202C152.975 87.5202 155.663 87.5202 158.371 87.5202C158.767 87.5202 159.434 86.916 158.746 86.916C151.288 86.916 143.85 86.916 136.392 86.916C124.538 86.916 112.684 86.916 100.83 86.916C98.142 86.916 95.4545 86.916 92.7462 86.916C92.3503 86.916 91.7045 87.5202 92.3712 87.5202Z" fill="#56627F"/>
<path d="M92.2461 92.8745C99.7461 92.8745 107.246 92.8745 114.746 92.8745C126.684 92.8745 138.642 92.8745 150.579 92.8745C153.309 92.8745 156.038 92.8745 158.767 92.8745C159.35 92.8745 159.538 92.1245 158.85 92.1245C151.35 92.1245 143.85 92.1245 136.35 92.1245C124.413 92.1245 112.454 92.1245 100.517 92.1245C97.7878 92.1245 95.0586 92.1245 92.3294 92.1245C91.7669 92.1245 91.5586 92.8745 92.2461 92.8745Z" fill="#56627F"/>
<path d="M92.0794 97.8953C96.6836 97.8953 101.288 97.8953 105.892 97.8953C113.225 97.8953 120.579 97.8953 127.913 97.8953C129.6 97.8953 131.309 97.8953 132.996 97.8953C133.35 97.8953 134.079 97.3745 133.392 97.3745C128.788 97.3745 124.184 97.3745 119.579 97.3745C112.246 97.3745 104.892 97.3745 97.5586 97.3745C95.8711 97.3745 94.1628 97.3745 92.4753 97.3745C92.1419 97.3745 91.4128 97.8953 92.0794 97.8953Z" fill="#56627F"/>
<path d="M157.413 80.0203C167.205 80.0203 175.143 72.0827 175.143 62.2912C175.143 52.4996 167.205 44.562 157.413 44.562C147.622 44.562 139.684 52.4996 139.684 62.2912C139.684 72.0827 147.622 80.0203 157.413 80.0203Z" fill="#AFB4FA"/>
<path d="M216.709 195.431C216.551 195.635 215.448 195.839 213.085 196.076C196.563 197.724 177.028 197.214 160.033 197.214C128.111 197.231 96.1687 196.875 64.2663 196.875C44.3568 196.535 21.1783 195.652 40.9106 194.463C63.3407 193.104 87.6614 193.308 110.348 193.138C130.907 192.985 151.466 193.104 172.006 193.461C175.492 193.512 217.536 194.31 216.709 195.431Z" fill="#E8EEF9"/>
<path d="M162.657 61.9727C162.657 62.4588 162.268 62.8477 161.782 62.8477H158.282V66.1532C158.282 66.6393 157.893 67.0282 157.407 67.0282C156.921 67.0282 156.532 66.6393 156.532 66.1532V62.8477H153.227C152.74 62.8477 152.352 62.4588 152.352 61.9727C152.352 61.4865 152.74 61.0977 153.227 61.0977H156.532V57.5977C156.532 57.1115 156.921 56.7227 157.407 56.7227C157.893 56.7227 158.282 57.1115 158.282 57.5977V61.0977H161.782C162.268 61.0977 162.657 61.4865 162.657 61.9727Z" fill="white"/>
<path d="M126.931 136.81L134.994 153.039C135.306 153.643 135.89 154.081 136.556 154.164L154.494 156.727C156.202 156.977 156.89 159.06 155.66 160.268L142.723 172.956C142.244 173.435 142.015 174.123 142.14 174.789L145.265 192.643C145.556 194.331 143.785 195.643 142.264 194.831L126.202 186.435C125.598 186.123 124.869 186.123 124.265 186.435L108.223 194.935C106.702 195.748 104.91 194.456 105.202 192.748L108.223 174.873C108.327 174.206 108.119 173.518 107.619 173.039L94.5978 160.435C93.3687 159.248 94.0353 157.143 95.7437 156.893L113.681 154.227C114.348 154.123 114.931 153.706 115.244 153.081L123.223 136.81C123.952 135.268 126.16 135.268 126.931 136.81Z" fill="#FFCF72"/>
<path d="M126.598 140.873L133.66 155.081C133.931 155.623 134.431 155.998 135.035 156.081L150.744 158.31C152.244 158.518 152.827 160.352 151.764 161.414L140.431 172.518C139.994 172.935 139.806 173.539 139.91 174.123L142.639 189.768C142.889 191.248 141.348 192.393 140.014 191.685L125.952 184.331C125.431 184.06 124.785 184.06 124.264 184.331L110.244 191.768C108.91 192.477 107.348 191.352 107.598 189.852L110.244 174.206C110.348 173.623 110.139 173.018 109.723 172.602L98.327 161.56C97.2436 160.518 97.827 158.685 99.327 158.456L115.035 156.123C115.619 156.039 116.139 155.664 116.41 155.123L123.389 140.873C123.994 139.518 125.931 139.518 126.598 140.873Z" fill="#FFE49D"/>
<path d="M126.286 137.039C127.744 139.998 129.223 142.935 130.682 145.893C131.598 147.748 132.536 149.623 133.453 151.477C133.994 152.56 134.432 154.018 135.723 154.393C136.682 154.685 137.786 154.706 138.786 154.852C140.973 155.164 143.182 155.477 145.369 155.789C147.473 156.081 149.598 156.393 151.703 156.685C152.869 156.852 154.661 156.789 155.348 157.935C156.286 159.498 154.807 160.602 153.828 161.581C152.369 162.998 150.932 164.414 149.473 165.852C147.036 168.248 144.411 170.518 142.119 173.06C141.161 174.102 141.515 175.248 141.723 176.477C142.078 178.456 142.411 180.435 142.765 182.414C143.369 185.852 144.203 189.352 144.578 192.81C144.723 194.102 143.869 195.31 142.473 194.706C142.057 194.518 141.661 194.268 141.244 194.06C139.494 193.143 137.744 192.227 135.994 191.31C132.848 189.664 129.744 187.914 126.536 186.373C125.265 185.768 124.14 186.268 123.015 186.852C121.411 187.706 119.828 188.539 118.223 189.393C116.161 190.477 114.119 191.56 112.057 192.664C110.723 193.373 109.411 194.185 108.036 194.789C107.015 195.227 105.932 194.727 105.598 193.623C105.453 193.102 105.557 192.602 105.64 192.102C105.932 190.414 106.203 188.727 106.494 187.018C107.161 183.102 107.807 179.206 108.473 175.289C108.661 174.164 108.328 173.331 107.536 172.56C106.348 171.414 105.161 170.248 103.953 169.102C101.078 166.31 98.2026 163.518 95.3068 160.727C94.911 160.352 94.536 159.998 94.3693 159.456C94.0776 158.435 94.6193 157.373 95.661 157.143C97.036 156.831 98.4943 156.727 99.911 156.518C104.078 155.893 108.223 155.289 112.39 154.664C113.64 154.477 114.869 154.289 115.557 153.06C116.119 152.039 116.578 150.956 117.098 149.914C118.994 146.06 120.869 142.206 122.765 138.352C122.994 137.893 123.203 137.435 123.432 136.977C124.161 135.706 125.598 135.81 126.286 137.039C126.432 137.31 127.39 136.956 127.286 136.768C126.223 134.893 123.473 135.31 122.536 137.06C121.89 138.268 121.328 139.539 120.723 140.768C118.828 144.623 116.953 148.477 115.057 152.331C114.911 152.643 114.765 152.956 114.598 153.248C114.161 154.039 113.619 154.102 112.89 154.206C111.057 154.477 109.223 154.748 107.39 155.018C103.557 155.581 99.7026 156.102 95.8901 156.727C93.9735 157.039 92.3901 158.956 93.9943 160.685C94.7443 161.498 95.5985 162.248 96.411 163.018C99.5568 166.081 102.723 169.123 105.869 172.185C106.765 173.06 107.744 173.768 107.578 175.185C107.39 176.643 107.078 178.102 106.848 179.56C106.14 183.748 105.432 187.914 104.744 192.102C104.682 192.456 104.598 192.831 104.578 193.206C104.515 194.518 105.619 195.477 106.89 195.498C108.098 195.498 109.286 194.664 110.307 194.123C114.223 192.06 118.14 189.977 122.036 187.914C123.078 187.352 124.411 186.248 125.64 186.748C126.848 187.227 128.015 187.998 129.182 188.602C133.015 190.602 136.828 192.602 140.661 194.602C141.911 195.248 143.14 195.789 144.515 194.956C146.015 194.039 145.64 192.581 145.411 191.164C144.661 186.852 143.911 182.539 143.161 178.227C142.953 177.081 142.682 175.914 142.557 174.768C142.411 173.268 143.869 172.289 144.828 171.352C147.994 168.248 151.161 165.143 154.328 162.039C155.078 161.31 156.411 160.352 156.661 159.268C157.098 157.373 155.39 156.706 153.911 156.498C149.723 155.893 145.515 155.31 141.328 154.706C139.869 154.498 138.39 154.373 136.953 154.081C135.578 153.81 135.203 152.581 134.64 151.477C132.682 147.539 130.723 143.602 128.765 139.643C128.286 138.685 127.828 137.748 127.348 136.789C127.161 136.498 126.203 136.831 126.286 137.039Z" fill="#56627F"/>
</svg>
