<svg width="125" height="124" viewBox="0 0 125 124" fill="none" xmlns="http://www.w3.org/2000/svg">
<circle cx="62.5" cy="62" r="62" fill="#F6F9FE"/>
<path d="M47.3645 53.1875L61.235 44.8715C61.4681 44.7316 61.7349 44.6577 62.0068 44.6577C62.2786 44.6577 62.5454 44.7316 62.7785 44.8715L76.6355 53.189C76.7467 53.2556 76.8387 53.3499 76.9026 53.4627C76.9665 53.5755 77 53.7029 77 53.8325V72.9065C77 73.3043 76.842 73.6858 76.5607 73.9671C76.2794 74.2484 75.8978 74.4065 75.5 74.4065H48.5C48.1022 74.4065 47.7206 74.2484 47.4393 73.9671C47.158 73.6858 47 73.3043 47 72.9065V53.831C47 53.7014 47.0335 53.574 47.0974 53.4612C47.1613 53.3484 47.2533 53.2541 47.3645 53.1875ZM50 55.106V71.4065H74V55.1045L62.006 47.9045L50 55.1045V55.106ZM62.09 63.4535L70.034 56.759L71.966 59.054L62.111 67.3595L52.046 59.0645L53.954 56.7485L62.09 63.4535Z" fill="#97A4BD"/>
</svg>
