<svg width="133" height="133" viewBox="0 0 133 133" fill="none" xmlns="http://www.w3.org/2000/svg">
<circle cx="66" cy="67" r="65" stroke="#E8EEF9" stroke-width="2"/>
<path d="M131 64C131 55.858 129.396 47.7958 126.281 40.2736C123.165 32.7514 118.598 25.9166 112.841 20.1594C107.083 14.4021 100.249 9.83526 92.7264 6.71947C85.2042 3.60368 77.142 2 69 2" stroke="#8C95F8" stroke-width="3" stroke-linecap="round"/>
<path d="M54.04 60C53.9067 60 53.7933 59.96 53.7 59.88C53.62 59.7867 53.58 59.6733 53.58 59.54V56.62H47.08C46.9467 56.62 46.8333 56.58 46.74 56.5C46.66 56.4067 46.62 56.2933 46.62 56.16V55.42C46.62 55.2333 46.6933 55.0333 46.84 54.82L52.86 46.34C52.9267 46.2333 53.0267 46.1533 53.16 46.1C53.2933 46.0333 53.44 46 53.6 46H54.96C55.1067 46 55.22 46.04 55.3 46.12C55.38 46.2 55.42 46.3133 55.42 46.46V54.94H57.24C57.3733 54.94 57.48 54.9867 57.56 55.08C57.6533 55.16 57.7 55.2667 57.7 55.4V56.16C57.7 56.2933 57.6533 56.4067 57.56 56.5C57.48 56.58 57.3733 56.62 57.24 56.62H55.42V59.54C55.42 59.6733 55.3733 59.7867 55.28 59.88C55.2 59.96 55.0933 60 54.96 60H54.04ZM48.7 54.98H53.6V48.02L48.7 54.98ZM64.1833 60.2C63.1833 60.2 62.3166 60.02 61.5833 59.66C60.8499 59.3 60.2899 58.8333 59.9033 58.26C59.5166 57.6733 59.3099 57.0467 59.2833 56.38V56.34C59.2833 56.2333 59.3233 56.1467 59.4033 56.08C59.4833 56.0133 59.5766 55.98 59.6833 55.98H60.6633C60.9433 55.98 61.1233 56.1267 61.2033 56.42C61.4033 57.14 61.7699 57.68 62.3033 58.04C62.8499 58.3867 63.4766 58.56 64.1833 58.56C65.0899 58.56 65.8433 58.2867 66.4433 57.74C67.0433 57.18 67.3433 56.4133 67.3433 55.44C67.3433 54.5467 67.0433 53.84 66.4433 53.32C65.8433 52.7867 65.0899 52.52 64.1833 52.52C63.7033 52.52 63.3166 52.58 63.0233 52.7C62.7299 52.82 62.4299 52.9933 62.1233 53.22C61.9499 53.3533 61.8033 53.4533 61.6833 53.52C61.5766 53.5733 61.4566 53.6 61.3233 53.6H60.3633C60.2433 53.6 60.1366 53.56 60.0433 53.48C59.9499 53.3867 59.9099 53.28 59.9233 53.16L60.5433 46.5C60.5833 46.1667 60.7499 46 61.0433 46H67.9633C68.1099 46 68.2233 46.04 68.3033 46.12C68.3833 46.2 68.4233 46.3133 68.4233 46.46V47.2C68.4233 47.3333 68.3766 47.44 68.2833 47.52C68.2033 47.6 68.0966 47.64 67.9633 47.64H62.2033L61.8433 51.66C62.4833 51.2067 63.3433 50.98 64.4233 50.98C65.3166 50.98 66.1299 51.16 66.8633 51.52C67.5966 51.8667 68.1766 52.38 68.6033 53.06C69.0433 53.74 69.2633 54.5467 69.2633 55.48C69.2633 56.4667 69.0433 57.32 68.6033 58.04C68.1766 58.7467 67.5766 59.2867 66.8033 59.66C66.0433 60.02 65.1699 60.2 64.1833 60.2ZM74.0592 53.02C73.1926 53.02 72.5059 52.7933 71.9992 52.34C71.5059 51.8733 71.2392 51.2333 71.1992 50.42C71.1859 50.1933 71.1792 49.9 71.1792 49.54C71.1792 49.1533 71.1859 48.84 71.1992 48.6C71.2392 47.7733 71.4992 47.12 71.9792 46.64C72.4592 46.1467 73.1526 45.9 74.0592 45.9C74.9659 45.9 75.6592 46.1467 76.1392 46.64C76.6326 47.12 76.8992 47.7733 76.9392 48.6C76.9659 49.08 76.9792 49.3933 76.9792 49.54C76.9792 49.6733 76.9659 49.9667 76.9392 50.42C76.8992 51.2333 76.6259 51.8733 76.1192 52.34C75.6126 52.7933 74.9259 53.02 74.0592 53.02ZM72.3792 60C72.2592 60 72.1592 59.9667 72.0792 59.9C71.9992 59.82 71.9592 59.72 71.9592 59.6C71.9592 59.52 71.9859 59.4467 72.0392 59.38L81.9192 46.38C82.0259 46.2333 82.1192 46.1333 82.1992 46.08C82.2926 46.0267 82.4192 46 82.5792 46H83.2192C83.3392 46 83.4326 46.04 83.4992 46.12C83.5792 46.1867 83.6192 46.28 83.6192 46.4C83.6192 46.48 83.5926 46.5533 83.5392 46.62L73.6792 59.62C73.5726 59.7533 73.4726 59.8533 73.3792 59.92C73.2992 59.9733 73.1792 60 73.0192 60H72.3792ZM74.0592 51.8C74.5392 51.8 74.8926 51.66 75.1192 51.38C75.3459 51.1 75.4792 50.7533 75.5192 50.34C75.5459 49.86 75.5592 49.58 75.5592 49.5C75.5592 49.38 75.5459 49.1067 75.5192 48.68C75.4926 48.2667 75.3592 47.92 75.1192 47.64C74.8926 47.3467 74.5392 47.2 74.0592 47.2C73.5792 47.2 73.2259 47.3467 72.9992 47.64C72.7726 47.92 72.6459 48.2667 72.6192 48.68C72.6059 48.8933 72.5992 49.1667 72.5992 49.5C72.5992 49.82 72.6059 50.1 72.6192 50.34C72.6592 50.74 72.7859 51.0867 72.9992 51.38C73.2259 51.66 73.5792 51.8 74.0592 51.8ZM81.4992 60.12C80.6326 60.12 79.9459 59.8733 79.4392 59.38C78.9459 58.8867 78.6792 58.2333 78.6392 57.42C78.6126 57.02 78.5992 56.7533 78.5992 56.62C78.5992 56.4867 78.6126 56.1533 78.6392 55.62C78.6792 54.7933 78.9392 54.14 79.4192 53.66C79.8992 53.1667 80.5926 52.92 81.4992 52.92C82.4059 52.92 83.0992 53.1667 83.5792 53.66C84.0726 54.14 84.3392 54.7933 84.3792 55.62C84.4059 56.1 84.4192 56.4067 84.4192 56.54C84.4192 56.6733 84.4059 56.9667 84.3792 57.42C84.3392 58.2333 84.0659 58.8867 83.5592 59.38C83.0526 59.8733 82.3659 60.12 81.4992 60.12ZM81.4992 58.82C81.9792 58.82 82.3326 58.68 82.5592 58.4C82.7859 58.12 82.9192 57.7733 82.9592 57.36C82.9859 56.88 82.9992 56.5933 82.9992 56.5C82.9992 56.3933 82.9859 56.1267 82.9592 55.7C82.9326 55.2867 82.7992 54.94 82.5592 54.66C82.3326 54.3667 81.9792 54.22 81.4992 54.22C81.0192 54.22 80.6659 54.3667 80.4392 54.66C80.2126 54.94 80.0859 55.2867 80.0592 55.7C80.0459 55.9133 80.0392 56.18 80.0392 56.5C80.0392 56.8333 80.0459 57.12 80.0592 57.36C80.0859 57.76 80.2126 58.1067 80.4392 58.4C80.6659 58.68 81.0192 58.82 81.4992 58.82Z" fill="#151A25"/>
<path d="M33.056 84.12C31.992 84.12 31.18 83.832 30.62 83.256C30.068 82.672 29.772 81.876 29.732 80.868C29.724 80.652 29.72 80.3 29.72 79.812C29.72 79.316 29.724 78.956 29.732 78.732C29.772 77.724 30.068 76.932 30.62 76.356C31.18 75.772 31.992 75.48 33.056 75.48C33.768 75.48 34.372 75.608 34.868 75.864C35.364 76.112 35.736 76.44 35.984 76.848C36.24 77.256 36.38 77.692 36.404 78.156C36.404 78.228 36.376 78.288 36.32 78.336C36.272 78.376 36.212 78.396 36.14 78.396H35.54C35.46 78.396 35.396 78.376 35.348 78.336C35.3 78.296 35.264 78.228 35.24 78.132C35.104 77.516 34.856 77.084 34.496 76.836C34.144 76.588 33.664 76.464 33.056 76.464C31.664 76.464 30.94 77.24 30.884 78.792C30.876 79.008 30.872 79.34 30.872 79.788C30.872 80.236 30.876 80.576 30.884 80.808C30.94 82.352 31.664 83.124 33.056 83.124C33.656 83.124 34.136 83 34.496 82.752C34.856 82.504 35.104 82.076 35.24 81.468C35.264 81.372 35.3 81.304 35.348 81.264C35.396 81.224 35.46 81.204 35.54 81.204H36.14C36.212 81.204 36.272 81.228 36.32 81.276C36.376 81.316 36.404 81.372 36.404 81.444C36.38 81.908 36.24 82.344 35.984 82.752C35.736 83.16 35.364 83.492 34.868 83.748C34.372 83.996 33.768 84.12 33.056 84.12ZM41.5165 84.12C40.4765 84.12 39.6725 83.848 39.1045 83.304C38.5365 82.752 38.2365 81.924 38.2045 80.82C38.1965 80.58 38.1925 80.24 38.1925 79.8C38.1925 79.36 38.1965 79.024 38.2045 78.792C38.2365 77.704 38.5445 76.88 39.1285 76.32C39.7205 75.76 40.5165 75.48 41.5165 75.48C42.5165 75.48 43.3085 75.76 43.8925 76.32C44.4765 76.88 44.7845 77.704 44.8165 78.792C44.8325 79.256 44.8405 79.592 44.8405 79.8C44.8405 80 44.8325 80.34 44.8165 80.82C44.7845 81.924 44.4845 82.752 43.9165 83.304C43.3565 83.848 42.5565 84.12 41.5165 84.12ZM41.5165 83.124C42.1565 83.124 42.6685 82.932 43.0525 82.548C43.4365 82.156 43.6445 81.56 43.6765 80.76C43.6925 80.28 43.7005 79.96 43.7005 79.8C43.7005 79.624 43.6925 79.304 43.6765 78.84C43.6445 78.04 43.4365 77.444 43.0525 77.052C42.6685 76.66 42.1565 76.464 41.5165 76.464C40.8765 76.464 40.3605 76.66 39.9685 77.052C39.5845 77.444 39.3805 78.04 39.3565 78.84C39.3485 79.072 39.3445 79.392 39.3445 79.8C39.3445 80.2 39.3485 80.52 39.3565 80.76C39.3805 81.56 39.5845 82.156 39.9685 82.548C40.3525 82.932 40.8685 83.124 41.5165 83.124ZM47.3701 84C47.2901 84 47.2221 83.976 47.1661 83.928C47.1181 83.872 47.0941 83.804 47.0941 83.724V75.888C47.0941 75.8 47.1181 75.732 47.1661 75.684C47.2141 75.628 47.2821 75.6 47.3701 75.6H47.9341C48.0781 75.6 48.1781 75.66 48.2341 75.78L50.7901 80.688L53.3701 75.78C53.4341 75.66 53.5301 75.6 53.6581 75.6H54.2221C54.3101 75.6 54.3781 75.628 54.4261 75.684C54.4741 75.732 54.4981 75.8 54.4981 75.888V83.724C54.4981 83.804 54.4701 83.872 54.4141 83.928C54.3661 83.976 54.3021 84 54.2221 84H53.6701C53.5901 84 53.5261 83.976 53.4781 83.928C53.4301 83.872 53.4061 83.804 53.4061 83.724V77.76L51.3541 81.732C51.2741 81.9 51.1461 81.984 50.9701 81.984H50.6101C50.4421 81.984 50.3141 81.9 50.2261 81.732L48.1861 77.76V83.724C48.1861 83.804 48.1581 83.872 48.1021 83.928C48.0541 83.976 47.9901 84 47.9101 84H47.3701ZM57.3538 84C57.2738 84 57.2098 83.976 57.1618 83.928C57.1138 83.872 57.0898 83.804 57.0898 83.724V75.888C57.0898 75.8 57.1138 75.732 57.1618 75.684C57.2098 75.628 57.2738 75.6 57.3538 75.6H60.3898C61.2938 75.6 62.0018 75.82 62.5138 76.26C63.0338 76.692 63.2938 77.324 63.2938 78.156C63.2938 78.988 63.0338 79.62 62.5138 80.052C62.0018 80.484 61.2938 80.7 60.3898 80.7H58.2298V83.724C58.2298 83.804 58.2018 83.872 58.1458 83.928C58.0978 83.976 58.0338 84 57.9538 84H57.3538ZM60.3298 79.728C61.5378 79.728 62.1418 79.204 62.1418 78.156C62.1418 77.644 61.9898 77.252 61.6858 76.98C61.3898 76.708 60.9378 76.572 60.3298 76.572H58.2298V79.728H60.3298ZM65.5212 84C65.4412 84 65.3772 83.976 65.3292 83.928C65.2812 83.872 65.2572 83.804 65.2572 83.724V75.876C65.2572 75.796 65.2812 75.732 65.3292 75.684C65.3772 75.628 65.4412 75.6 65.5212 75.6H66.1212C66.2012 75.6 66.2652 75.628 66.3132 75.684C66.3612 75.732 66.3852 75.796 66.3852 75.876V82.992H70.3932C70.4812 82.992 70.5492 83.02 70.5972 83.076C70.6532 83.124 70.6812 83.188 70.6812 83.268V83.724C70.6812 83.804 70.6532 83.872 70.5972 83.928C70.5412 83.976 70.4732 84 70.3932 84H65.5212ZM72.7278 84C72.6478 84 72.5838 83.976 72.5358 83.928C72.4878 83.872 72.4638 83.804 72.4638 83.724V75.888C72.4638 75.8 72.4878 75.732 72.5358 75.684C72.5838 75.628 72.6478 75.6 72.7278 75.6H77.6598C77.7478 75.6 77.8158 75.628 77.8638 75.684C77.9198 75.732 77.9478 75.8 77.9478 75.888V76.32C77.9478 76.4 77.9198 76.464 77.8638 76.512C77.8158 76.56 77.7478 76.584 77.6598 76.584H73.5678V79.26H77.3958C77.4838 79.26 77.5518 79.288 77.5998 79.344C77.6558 79.392 77.6838 79.46 77.6838 79.548V79.956C77.6838 80.036 77.6558 80.104 77.5998 80.16C77.5518 80.208 77.4838 80.232 77.3958 80.232H73.5678V83.004H77.7558C77.8438 83.004 77.9118 83.032 77.9598 83.088C78.0158 83.136 78.0438 83.204 78.0438 83.292V83.724C78.0438 83.804 78.0158 83.872 77.9598 83.928C77.9038 83.976 77.8358 84 77.7558 84H72.7278ZM82.3214 84C82.2414 84 82.1734 83.976 82.1174 83.928C82.0694 83.872 82.0454 83.804 82.0454 83.724V76.632H79.7294C79.6494 76.632 79.5814 76.608 79.5254 76.56C79.4774 76.504 79.4534 76.436 79.4534 76.356V75.888C79.4534 75.8 79.4774 75.732 79.5254 75.684C79.5814 75.628 79.6494 75.6 79.7294 75.6H85.4894C85.5774 75.6 85.6454 75.628 85.6934 75.684C85.7414 75.732 85.7654 75.8 85.7654 75.888V76.356C85.7654 76.436 85.7374 76.504 85.6814 76.56C85.6334 76.608 85.5694 76.632 85.4894 76.632H83.1854V83.724C83.1854 83.804 83.1574 83.872 83.1014 83.928C83.0454 83.976 82.9774 84 82.8974 84H82.3214ZM87.8792 84C87.7992 84 87.7352 83.976 87.6872 83.928C87.6392 83.872 87.6152 83.804 87.6152 83.724V75.888C87.6152 75.8 87.6392 75.732 87.6872 75.684C87.7352 75.628 87.7992 75.6 87.8792 75.6H92.8112C92.8992 75.6 92.9672 75.628 93.0152 75.684C93.0712 75.732 93.0992 75.8 93.0992 75.888V76.32C93.0992 76.4 93.0712 76.464 93.0152 76.512C92.9672 76.56 92.8992 76.584 92.8112 76.584H88.7192V79.26H92.5472C92.6352 79.26 92.7032 79.288 92.7512 79.344C92.8072 79.392 92.8352 79.46 92.8352 79.548V79.956C92.8352 80.036 92.8072 80.104 92.7512 80.16C92.7032 80.208 92.6352 80.232 92.5472 80.232H88.7192V83.004H92.9072C92.9952 83.004 93.0632 83.032 93.1112 83.088C93.1672 83.136 93.1952 83.204 93.1952 83.292V83.724C93.1952 83.804 93.1672 83.872 93.1112 83.928C93.0552 83.976 92.9872 84 92.9072 84H87.8792ZM95.6248 84C95.5448 84 95.4808 83.976 95.4328 83.928C95.3848 83.872 95.3608 83.804 95.3608 83.724V75.888C95.3608 75.8 95.3848 75.732 95.4328 75.684C95.4808 75.628 95.5448 75.6 95.6248 75.6H98.3368C99.5448 75.6 100.417 75.872 100.953 76.416C101.489 76.952 101.765 77.764 101.781 78.852C101.789 79.084 101.793 79.396 101.793 79.788C101.793 80.18 101.789 80.496 101.781 80.736C101.765 81.496 101.641 82.116 101.409 82.596C101.185 83.068 100.829 83.42 100.341 83.652C99.8528 83.884 99.2048 84 98.3968 84H95.6248ZM98.3368 83.004C98.8968 83.004 99.3408 82.928 99.6688 82.776C100.005 82.616 100.245 82.372 100.389 82.044C100.541 81.708 100.625 81.256 100.641 80.688C100.657 80.208 100.665 79.908 100.665 79.788C100.665 79.66 100.657 79.364 100.641 78.9C100.625 78.1 100.433 77.516 100.065 77.148C99.7048 76.772 99.1088 76.584 98.2768 76.584H96.4888V83.004H98.3368Z" fill="#7B89A6"/>
</svg>
