<svg width="16" height="16" viewBox="0 0 16 16" fill="none" xmlns="http://www.w3.org/2000/svg">
<path fill-rule="evenodd" clip-rule="evenodd" d="M8.00016 14.6668C4.31816 14.6668 1.3335 11.6822 1.3335 8.00016C1.3335 4.31816 4.31816 1.3335 8.00016 1.3335C11.6822 1.3335 14.6668 4.31816 14.6668 8.00016C14.6668 11.6822 11.6822 14.6668 8.00016 14.6668ZM8.04245 9.95971C7.65193 10.3503 7.01873 10.3503 6.62818 9.95976L4.97801 8.30959C4.7177 8.04928 4.7177 7.62723 4.97801 7.36692C5.23832 7.10661 5.66036 7.10661 5.92067 7.36692L6.62817 8.07442C7.01872 8.46497 7.65193 8.46494 8.04245 8.07435L10.6347 5.48167C10.895 5.22132 11.3171 5.2213 11.5774 5.48163C11.8377 5.74192 11.8377 6.16394 11.5774 6.42425L8.04245 9.95971Z" fill="#8C95F8"/>
</svg>
