<svg width="96" height="97" viewBox="0 0 96 97" fill="none" xmlns="http://www.w3.org/2000/svg">
<circle opacity="0.2" cx="48" cy="48.9199" r="47.5" stroke="#D5DFEF"/>
<ellipse cx="47.9438" cy="48.8628" rx="38.4565" ry="38.4566" stroke="#F6F9FE" stroke-width="5" stroke-linecap="round"/>
<path d="M10.7793 58.7499C12.6224 65.6786 16.3657 71.9541 21.5866 76.8679C26.8076 81.7817 33.2982 85.1382 40.3257 86.5584C47.3533 87.9786 54.638 87.406 61.3573 84.9051C68.0767 82.4043 73.9631 78.0749 78.3521 72.4057C82.7411 66.7364 85.4579 59.9531 86.1958 52.8216C86.9336 45.69 85.6632 38.4942 82.5278 32.0464C79.3925 25.5987 74.5171 20.1558 68.4521 16.3323C62.3871 12.5088 55.374 10.4569 48.2045 10.4082" stroke="#7ECD99" stroke-width="5" stroke-linecap="round"/>
<path d="M38.7457 56C38.5857 56 38.4497 55.952 38.3377 55.856C38.2417 55.744 38.1937 55.608 38.1937 55.448V51.944H30.3937C30.2337 51.944 30.0977 51.896 29.9857 51.8C29.8897 51.688 29.8417 51.552 29.8417 51.392V50.504C29.8417 50.28 29.9297 50.04 30.1057 49.784L37.3297 39.608C37.4097 39.48 37.5297 39.384 37.6897 39.32C37.8497 39.24 38.0257 39.2 38.2177 39.2H39.8497C40.0257 39.2 40.1617 39.248 40.2577 39.344C40.3537 39.44 40.4017 39.576 40.4017 39.752V49.928H42.5857C42.7457 49.928 42.8737 49.984 42.9697 50.096C43.0817 50.192 43.1377 50.32 43.1377 50.48V51.392C43.1377 51.552 43.0817 51.688 42.9697 51.8C42.8737 51.896 42.7457 51.944 42.5857 51.944H40.4017V55.448C40.4017 55.608 40.3457 55.744 40.2337 55.856C40.1377 55.952 40.0097 56 39.8497 56H38.7457ZM32.3377 49.976H38.2177V41.624L32.3377 49.976ZM45.7426 56C45.5826 56 45.4466 55.952 45.3346 55.856C45.2386 55.744 45.1906 55.608 45.1906 55.448V53.792C45.1906 53.632 45.2386 53.496 45.3346 53.384C45.4466 53.272 45.5826 53.216 45.7426 53.216H47.3986C47.5586 53.216 47.6866 53.272 47.7826 53.384C47.8946 53.496 47.9506 53.632 47.9506 53.792V55.448C47.9506 55.608 47.8946 55.744 47.7826 55.856C47.6866 55.952 47.5586 56 47.3986 56H45.7426ZM56.6626 56.24C55.4146 56.24 54.3346 56.04 53.4226 55.64C52.5106 55.224 51.8146 54.688 51.3346 54.032C50.8706 53.376 50.6226 52.696 50.5906 51.992C50.5906 51.848 50.6386 51.736 50.7346 51.656C50.8306 51.56 50.9506 51.512 51.0946 51.512H52.1746C52.3506 51.512 52.4946 51.552 52.6066 51.632C52.7186 51.696 52.8066 51.832 52.8706 52.04C53.0786 52.856 53.5266 53.432 54.2146 53.768C54.9186 54.104 55.7426 54.272 56.6866 54.272C57.8386 54.272 58.7506 54 59.4226 53.456C60.1106 52.896 60.4546 52.104 60.4546 51.08C60.4546 49.128 59.2626 48.152 56.8786 48.152H54.6226C54.4626 48.152 54.3266 48.104 54.2146 48.008C54.1186 47.896 54.0706 47.76 54.0706 47.6V46.976C54.0706 46.736 54.1586 46.528 54.3346 46.352L59.0146 41.168H51.9106C51.7506 41.168 51.6146 41.12 51.5026 41.024C51.4066 40.928 51.3586 40.8 51.3586 40.64V39.776C51.3586 39.6 51.4066 39.464 51.5026 39.368C51.6146 39.256 51.7506 39.2 51.9106 39.2H61.4146C61.5906 39.2 61.7266 39.256 61.8226 39.368C61.9346 39.464 61.9906 39.6 61.9906 39.776V40.568C61.9906 40.744 61.9106 40.928 61.7506 41.12L57.0706 46.376H57.4546C59.0866 46.424 60.3746 46.848 61.3186 47.648C62.2786 48.448 62.7586 49.616 62.7586 51.152C62.7586 52.208 62.4946 53.12 61.9666 53.888C61.4546 54.64 60.7346 55.224 59.8066 55.64C58.8786 56.04 57.8306 56.24 56.6626 56.24Z" fill="#242B3D"/>
</svg>
