<svg width="20" height="20" viewBox="0 0 20 20" fill="none" xmlns="http://www.w3.org/2000/svg">
<g clip-path="url(#clip0)">
<path d="M3.75008 1.66663H16.2501C17.3992 1.66663 18.3334 2.60087 18.3334 3.74996V16.25C18.3334 17.399 17.3992 18.3333 16.2501 18.3333H3.75008C2.60099 18.3333 1.66675 17.399 1.66675 16.25V3.74996C1.66675 2.60087 2.60099 1.66663 3.75008 1.66663Z" fill="#18A581"/>
<path d="M10.0001 5.83325C8.14941 5.83325 6.76053 6.29853 5.37164 7.68742H3.05566C3.05566 7.68742 3.05566 8.38186 3.98275 8.6145C3.56608 9.18047 3.05566 10.1666 3.05566 10.927C3.05566 12.8367 4.38553 14.1666 6.29525 14.1666C7.37858 14.1666 8.43761 13.5589 9.07303 12.7777L10.0001 14.1666L10.9272 12.7777C11.5626 13.5589 12.6216 14.1666 13.705 14.1666C15.6147 14.1666 16.9446 12.8367 16.9446 10.927C16.9446 10.1666 16.4341 9.18395 16.0175 8.61103C16.9446 8.37839 16.9446 7.68395 16.9446 7.68395H14.6286C13.2397 6.29506 11.8508 5.83325 10.0001 5.83325ZM10.0001 6.29506C12.3161 6.29506 13.705 7.68395 13.705 7.68395C11.8508 7.68395 10.0001 9.99992 10.0001 12.3159C10.0001 9.99992 8.14941 7.68742 6.29525 7.68742C6.29525 7.68395 7.68414 6.29506 10.0001 6.29506ZM6.29525 8.61103C7.57303 8.61103 8.61122 9.64575 8.61122 10.927C8.61122 12.2048 7.5765 13.243 6.29525 13.243C5.014 13.243 3.97928 12.2083 3.97928 10.927C3.98275 9.64922 5.01747 8.61103 6.29525 8.61103ZM13.705 8.61103C14.9827 8.61103 16.0209 9.64575 16.0209 10.927C16.0209 12.2048 14.9862 13.243 13.705 13.243C12.4237 13.243 11.389 12.2048 11.389 10.927C11.389 9.64922 12.4237 8.61103 13.705 8.61103ZM6.29525 9.53811C5.52789 9.53811 4.90636 10.1596 4.90636 10.927C4.90636 11.6944 5.52789 12.3159 6.29525 12.3159C7.06261 12.3159 7.68414 11.6944 7.68414 10.927C7.68414 10.1596 7.06261 9.53811 6.29525 9.53811ZM13.705 9.53811C12.9376 9.53811 12.3161 10.1596 12.3161 10.927C12.3161 11.6944 12.9376 12.3159 13.705 12.3159C14.4723 12.3159 15.0939 11.6944 15.0939 10.927C15.0939 10.1596 14.4723 9.53811 13.705 9.53811ZM6.29525 9.99992C6.80566 9.99992 7.22233 10.4166 7.22233 10.927C7.22233 11.4374 6.80566 11.8541 6.29525 11.8541C5.78483 11.8541 5.36816 11.4409 5.36816 10.927C5.37164 10.4166 5.78483 9.99992 6.29525 9.99992ZM13.705 9.99992C14.2154 9.99992 14.6321 10.4166 14.6321 10.927C14.6321 11.4374 14.2154 11.8541 13.705 11.8541C13.1946 11.8541 12.7779 11.4374 12.7779 10.927C12.7779 10.4166 13.1911 9.99992 13.705 9.99992ZM6.29525 10.4617C6.0383 10.4617 5.83344 10.6701 5.83344 10.9235C5.83344 11.1805 6.04178 11.3853 6.29525 11.3853C6.55219 11.3853 6.75705 11.177 6.75705 10.9235C6.76053 10.6701 6.55219 10.4617 6.29525 10.4617ZM13.705 10.4617C13.448 10.4617 13.2432 10.6701 13.2432 10.9235C13.2432 11.1805 13.4515 11.3853 13.705 11.3853C13.9619 11.3853 14.1668 11.177 14.1668 10.9235C14.1668 10.6701 13.9584 10.4617 13.705 10.4617Z" fill="white"/>
</g>
<defs>
<clipPath id="clip0">
<rect width="16.6667" height="16.6667" fill="white" transform="translate(1.66675 1.66663)"/>
</clipPath>
</defs>
</svg>
