<svg width="32" height="32" viewBox="0 0 32 32" fill="none" xmlns="http://www.w3.org/2000/svg">
<path d="M5.23405 15.4566C4.75798 16.2188 4.55841 18.616 4.72432 20.2053C4.78202 20.7294 4.8782 21.167 5.01525 21.4291C5.20519 21.7897 5.52498 22.0061 5.88804 22.0182C6.12126 22.0302 6.26793 21.9893 10.6559 20.5779C10.6559 20.5779 12.6059 19.9552 12.6155 19.9504C13.1012 19.8254 13.4306 19.3782 13.4618 18.8083C13.4931 18.2217 13.1925 17.7047 12.6924 17.5196C12.6924 17.5196 11.3171 16.9594 11.3147 16.9594C6.59733 15.0142 6.38574 14.9373 6.14771 14.9349C5.78224 14.9229 5.46006 15.1056 5.23405 15.4566ZM15.7845 29.9526C15.8614 29.7314 15.871 29.5799 15.883 24.9683C15.883 24.9683 15.8927 22.9318 15.8951 22.9102C15.9263 22.4101 15.6041 21.9556 15.0752 21.7513C14.5294 21.5421 13.9427 21.6719 13.6133 22.0807C13.6133 22.0807 12.6516 23.2227 12.6467 23.2227C9.34313 27.1034 9.20368 27.2837 9.12433 27.5121C9.07384 27.6468 9.05701 27.7911 9.07144 27.9353C9.09067 28.1421 9.18444 28.3441 9.33832 28.534C10.1053 29.4453 13.7792 30.7965 14.9525 30.5945C15.3637 30.5248 15.6594 30.2964 15.7845 29.9526ZM23.2404 28.3489C24.3489 27.9065 26.7653 24.8337 26.936 23.6483C26.9961 23.2372 26.8663 22.8813 26.5825 22.6553C26.3974 22.5159 26.2555 22.4606 21.8675 21.0203C21.8675 21.0203 19.944 20.3856 19.9176 20.3736C19.4511 20.1932 18.9198 20.3615 18.5639 20.8015C18.1912 21.2536 18.1359 21.8523 18.4341 22.3019L19.2083 23.5618C21.8122 27.791 22.0118 28.0892 22.1994 28.2359C22.4879 28.4643 22.8557 28.5027 23.2404 28.3489ZM20.9731 17.4619C25.9574 16.2549 26.1522 16.19 26.3469 16.0601C26.6499 15.8558 26.8013 15.5167 26.7749 15.1032C26.7749 15.0912 26.7773 15.0767 26.7749 15.0623C26.6475 13.8361 24.5027 10.6527 23.4448 10.1358C23.0697 9.95542 22.6947 9.96744 22.3845 10.1766C22.1921 10.3017 22.0503 10.4916 19.3814 14.1438C19.3814 14.1438 18.1768 15.786 18.1624 15.8029C17.845 16.19 17.8402 16.743 18.1504 17.219C18.4726 17.7119 19.016 17.95 19.5137 17.8129C19.5137 17.8129 19.4944 17.849 19.4896 17.8538C19.7349 17.76 20.1725 17.6518 20.9731 17.4619ZM15.9696 13.3456C15.883 11.3692 15.2892 2.5716 15.2194 2.16526C15.1185 1.79499 14.8299 1.53291 14.4164 1.42712C13.1421 1.11214 8.27799 2.47542 7.37635 3.40351C7.08542 3.70646 6.97963 4.07673 7.06618 4.40613C7.20804 4.69706 13.2358 14.1799 13.2358 14.1799C14.1254 15.6249 14.854 15.3989 15.092 15.3244C15.3276 15.2547 16.0514 15.0286 15.9696 13.3456Z" fill="#DF3832"/>
</svg>
