<svg width="16" height="16" viewBox="0 0 16 16" fill="none" xmlns="http://www.w3.org/2000/svg">
<path d="M8.66667 2.70341C11.6667 3.03475 14 5.57808 14 8.66675V14.6667H2V8.66675C2 5.57808 4.33333 3.03475 7.33333 2.70341V0.666748H8.66667V2.70341ZM8 12.0001C8.88406 12.0001 9.7319 11.6489 10.357 11.0238C10.9821 10.3986 11.3333 9.5508 11.3333 8.66675C11.3333 7.78269 10.9821 6.93485 10.357 6.30973C9.7319 5.6846 8.88406 5.33342 8 5.33342C7.11595 5.33342 6.2681 5.6846 5.64298 6.30973C5.01786 6.93485 4.66667 7.78269 4.66667 8.66675C4.66667 9.5508 5.01786 10.3986 5.64298 11.0238C6.2681 11.6489 7.11595 12.0001 8 12.0001ZM8 10.6667C7.46957 10.6667 6.96086 10.456 6.58579 10.081C6.21071 9.70589 6 9.19718 6 8.66675C6 8.13632 6.21071 7.62761 6.58579 7.25253C6.96086 6.87746 7.46957 6.66675 8 6.66675C8.53043 6.66675 9.03914 6.87746 9.41421 7.25253C9.78929 7.62761 10 8.13632 10 8.66675C10 9.19718 9.78929 9.70589 9.41421 10.081C9.03914 10.456 8.53043 10.6667 8 10.6667ZM8 9.33342C8.17681 9.33342 8.34638 9.26318 8.4714 9.13815C8.59643 9.01313 8.66667 8.84356 8.66667 8.66675C8.66667 8.48994 8.59643 8.32037 8.4714 8.19534C8.34638 8.07032 8.17681 8.00008 8 8.00008C7.82319 8.00008 7.65362 8.07032 7.5286 8.19534C7.40357 8.32037 7.33333 8.48994 7.33333 8.66675C7.33333 8.84356 7.40357 9.01313 7.5286 9.13815C7.65362 9.26318 7.82319 9.33342 8 9.33342Z" fill="white"/>
</svg>
