<svg width="64" height="64" viewBox="0 0 64 64" fill="none" xmlns="http://www.w3.org/2000/svg">
<path d="M57 54.5L47 44.5H12C9.25 44.5 7 42.25 7 39.5V7C7 4.25 9.25 2 12 2H52C54.75 2 57 4.25 57 7V54.5Z" fill="white"/>
<path d="M57 56C56.6 56 56.25 55.85 55.95 55.55L46.4 46H12C8.4 46 5.5 43.1 5.5 39.5V7C5.5 3.4 8.4 0.5 12 0.5H52C55.6 0.5 58.5 3.4 58.5 7V54.5C58.5 55.1 58.15 55.65 57.55 55.9C57.4 55.95 57.2 56 57 56ZM12 3.5C10.05 3.5 8.5 5.05 8.5 7V39.5C8.5 41.45 10.05 43 12 43H47C47.4 43 47.8 43.15 48.05 43.45L55.5 50.9V7C55.5 5.05 53.95 3.5 52 3.5H12Z" fill="#8FAEFC"/>
<path d="M57 63.5H19.5C18.65 63.5 18 62.85 18 62C18 61.15 18.65 60.5 19.5 60.5H57C57.85 60.5 58.5 61.15 58.5 62C58.5 62.85 57.85 63.5 57 63.5Z" fill="#A6BFFF"/>
<path d="M44 21H20C19.15 21 18.5 20.35 18.5 19.5C18.5 18.65 19.15 18 20 18H44C44.85 18 45.5 18.65 45.5 19.5C45.5 20.35 44.85 21 44 21Z" fill="#5D82F1"/>
<path d="M36.5 28.5H20C19.15 28.5 18.5 27.85 18.5 27C18.5 26.15 19.15 25.5 20 25.5H36.5C37.35 25.5 38 26.15 38 27C38 27.85 37.35 28.5 36.5 28.5Z" fill="#5D82F1"/>
<path d="M44 28.5C44.8284 28.5 45.5 27.8284 45.5 27C45.5 26.1716 44.8284 25.5 44 25.5C43.1716 25.5 42.5 26.1716 42.5 27C42.5 27.8284 43.1716 28.5 44 28.5Z" fill="#5D82F1"/>
<path d="M12 63.5C12.8284 63.5 13.5 62.8284 13.5 62C13.5 61.1716 12.8284 60.5 12 60.5C11.1716 60.5 10.5 61.1716 10.5 62C10.5 62.8284 11.1716 63.5 12 63.5Z" fill="#A6BFFF"/>
</svg>
