<svg width="91" height="90" viewBox="0 0 91 90" fill="none" xmlns="http://www.w3.org/2000/svg">
<path fill-rule="evenodd" clip-rule="evenodd" d="M45 88C68.7482 88 88 68.7482 88 45C88 21.2518 68.7482 2 45 2C21.2518 2 2 21.2518 2 45C2 68.7482 21.2518 88 45 88Z" stroke="#E8EEF9" stroke-width="4" stroke-linecap="round"/>
<path d="M4 55.6678C8.72192 74.2557 25.4963 88 45.4653 88C69.0989 88 88.2577 68.7482 88.2577 45C88.2577 21.2518 69.0989 2 45.4653 2" stroke="#94D9A3" stroke-width="4" stroke-linecap="round"/>
<path d="M35.4284 37.8255C34.5324 37.8255 33.7431 37.6549 33.0604 37.3135C32.3884 36.9722 31.8658 36.5029 31.4924 35.9055C31.1298 35.3082 30.9484 34.6362 30.9484 33.8895C30.9484 32.9509 31.3644 31.9162 32.1964 30.7855L35.1084 26.7855C35.1938 26.6789 35.2738 26.5989 35.3484 26.5455C35.4231 26.4922 35.5298 26.4655 35.6684 26.4655H37.1884C37.2844 26.4655 37.3591 26.5029 37.4124 26.5775C37.4764 26.6415 37.5084 26.7215 37.5084 26.8175C37.5084 26.8922 37.4871 26.9615 37.4444 27.0255L35.2044 30.1135C35.3751 30.0709 35.5991 30.0495 35.8764 30.0495C36.5911 30.0602 37.2471 30.2362 37.8444 30.5775C38.4524 30.9082 38.9324 31.3615 39.2844 31.9375C39.6471 32.5135 39.8284 33.1535 39.8284 33.8575C39.8284 34.5829 39.6471 35.2495 39.2844 35.8575C38.9324 36.4549 38.4204 36.9349 37.7484 37.2975C37.0871 37.6495 36.3138 37.8255 35.4284 37.8255ZM35.3964 35.9695C35.9938 35.9695 36.5004 35.7882 36.9164 35.4255C37.3324 35.0522 37.5404 34.5402 37.5404 33.8895C37.5404 33.2495 37.3324 32.7482 36.9164 32.3855C36.5111 32.0122 36.0044 31.8255 35.3964 31.8255C34.7991 31.8255 34.2924 32.0122 33.8764 32.3855C33.4711 32.7482 33.2684 33.2495 33.2684 33.8895C33.2684 34.5402 33.4711 35.0522 33.8764 35.4255C34.2924 35.7882 34.7991 35.9695 35.3964 35.9695ZM45.1873 37.8255C44.238 37.8255 43.4326 37.6762 42.7713 37.3775C42.1206 37.0789 41.63 36.7055 41.2993 36.2575C40.9793 35.7989 40.8086 35.3295 40.7873 34.8495C40.7873 34.7535 40.8193 34.6735 40.8833 34.6095C40.9473 34.5455 41.0273 34.5135 41.1233 34.5135H42.5953C42.83 34.5135 42.99 34.6202 43.0753 34.8335C43.31 35.5909 44.014 35.9695 45.1873 35.9695C45.838 35.9695 46.3446 35.8202 46.7073 35.5215C47.0806 35.2229 47.2673 34.7962 47.2673 34.2415C47.2673 33.6869 47.0966 33.2869 46.7553 33.0415C46.4246 32.7855 45.934 32.6575 45.2833 32.6575H43.6353C43.5286 32.6575 43.438 32.6202 43.3633 32.5455C43.2886 32.4709 43.2513 32.3802 43.2513 32.2735V31.5855C43.2513 31.3829 43.3206 31.2229 43.4593 31.1055L46.3073 28.3215H41.7473C41.63 28.3215 41.534 28.2842 41.4593 28.2095C41.3846 28.1349 41.3473 28.0442 41.3473 27.9375V26.8655C41.3473 26.7482 41.3846 26.6522 41.4593 26.5775C41.534 26.5029 41.63 26.4655 41.7473 26.4655H48.6273C48.7446 26.4655 48.8406 26.5029 48.9153 26.5775C48.99 26.6522 49.0273 26.7482 49.0273 26.8655V27.8415C49.0273 28.0229 48.958 28.1722 48.8193 28.2895L46.0673 31.1215L46.2593 31.1375C47.2833 31.2229 48.094 31.5322 48.6913 32.0655C49.2993 32.5989 49.6033 33.3615 49.6033 34.3535C49.6033 35.0575 49.4113 35.6709 49.0273 36.1935C48.654 36.7162 48.1313 37.1215 47.4593 37.4095C46.798 37.6869 46.0406 37.8255 45.1873 37.8255ZM53.2011 32.0975C52.4971 32.0975 51.9317 31.9109 51.5051 31.5375C51.0891 31.1642 50.8597 30.6575 50.8171 30.0175C50.8064 29.8362 50.8011 29.5962 50.8011 29.2975C50.8011 28.9775 50.8064 28.7215 50.8171 28.5295C50.8597 27.8682 51.0837 27.3455 51.4891 26.9615C51.8944 26.5775 52.4651 26.3855 53.2011 26.3855C53.9371 26.3855 54.5077 26.5775 54.9131 26.9615C55.3291 27.3455 55.5584 27.8682 55.6011 28.5295C55.6224 28.9135 55.6331 29.1695 55.6331 29.2975C55.6331 29.4149 55.6224 29.6549 55.6011 30.0175C55.5584 30.6575 55.3237 31.1642 54.8971 31.5375C54.4811 31.9109 53.9157 32.0975 53.2011 32.0975ZM51.9051 37.6655C51.7984 37.6655 51.7131 37.6389 51.6491 37.5855C51.5851 37.5215 51.5531 37.4415 51.5531 37.3455C51.5531 37.2815 51.5744 37.2229 51.6171 37.1695L59.5051 26.7695C59.5904 26.6629 59.6704 26.5882 59.7451 26.5455C59.8197 26.4922 59.9264 26.4655 60.0651 26.4655H60.9131C61.0197 26.4655 61.0997 26.4975 61.1531 26.5615C61.2171 26.6149 61.2491 26.6895 61.2491 26.7855C61.2491 26.8495 61.2277 26.9082 61.1851 26.9615L53.2971 37.3615C53.2117 37.4682 53.1317 37.5482 53.0571 37.6015C52.9824 37.6442 52.8811 37.6655 52.7531 37.6655H51.9051ZM53.2011 30.8975C53.5104 30.8975 53.7344 30.8069 53.8731 30.6255C54.0224 30.4442 54.1131 30.2149 54.1451 29.9375C54.1664 29.5749 54.1771 29.3509 54.1771 29.2655C54.1771 29.1482 54.1664 28.9295 54.1451 28.6095C54.1237 28.3322 54.0384 28.1029 53.8891 27.9215C53.7397 27.7295 53.5104 27.6335 53.2011 27.6335C52.9024 27.6335 52.6784 27.7295 52.5291 27.9215C52.3797 28.1029 52.2944 28.3322 52.2731 28.6095C52.2624 28.7695 52.2571 28.9882 52.2571 29.2655C52.2571 29.5322 52.2624 29.7562 52.2731 29.9375C52.2944 30.2042 52.3744 30.4335 52.5131 30.6255C52.6624 30.8069 52.8917 30.8975 53.2011 30.8975ZM59.6011 37.7615C58.8971 37.7615 58.3317 37.5695 57.9051 37.1855C57.4891 36.7909 57.2597 36.2682 57.2171 35.6175C57.2064 35.4362 57.2011 35.1962 57.2011 34.8975C57.2011 34.5882 57.2064 34.3375 57.2171 34.1455C57.2597 33.4842 57.4837 32.9615 57.8891 32.5775C58.2944 32.1935 58.8651 32.0015 59.6011 32.0015C60.3477 32.0015 60.9237 32.1935 61.3291 32.5775C61.7344 32.9615 61.9584 33.4842 62.0011 34.1455C62.0224 34.5295 62.0331 34.7802 62.0331 34.8975C62.0331 35.0149 62.0224 35.2549 62.0011 35.6175C61.9584 36.2682 61.7237 36.7909 61.2971 37.1855C60.8811 37.5695 60.3157 37.7615 59.6011 37.7615ZM59.6011 36.5135C59.9211 36.5135 60.1504 36.4229 60.2891 36.2415C60.4384 36.0495 60.5237 35.8202 60.5451 35.5535C60.5664 35.1909 60.5771 34.9615 60.5771 34.8655C60.5771 34.7589 60.5664 34.5455 60.5451 34.2255C60.5237 33.9482 60.4384 33.7189 60.2891 33.5375C60.1397 33.3455 59.9104 33.2495 59.6011 33.2495C59.3024 33.2495 59.0784 33.3455 58.9291 33.5375C58.7797 33.7189 58.6944 33.9482 58.6731 34.2255C58.6624 34.3855 58.6571 34.5989 58.6571 34.8655C58.6571 35.1429 58.6624 35.3722 58.6731 35.5535C58.6944 35.8202 58.7744 36.0495 58.9131 36.2415C59.0624 36.4229 59.2917 36.5135 59.6011 36.5135Z" fill="#333D54"/>
<path d="M18.5009 53.6655C18.4209 53.6655 18.3529 53.6415 18.2969 53.5935C18.2489 53.5375 18.2249 53.4695 18.2249 53.3895V45.4215C18.2249 45.3335 18.2489 45.2655 18.2969 45.2175C18.3529 45.1695 18.4209 45.1455 18.5009 45.1455H19.0289C19.1089 45.1455 19.1729 45.1735 19.2209 45.2295C19.2769 45.2775 19.3049 45.3415 19.3049 45.4215V53.3895C19.3049 53.4695 19.2769 53.5375 19.2209 53.5935C19.1729 53.6415 19.1089 53.6655 19.0289 53.6655H18.5009ZM23.5795 53.7855C22.7635 53.7855 22.1115 53.5335 21.6235 53.0295C21.1355 52.5175 20.8675 51.8215 20.8195 50.9415L20.8075 50.5335L20.8195 50.1375C20.8675 49.2735 21.1355 48.5855 21.6235 48.0735C22.1115 47.5615 22.7635 47.3055 23.5795 47.3055C24.4595 47.3055 25.1395 47.5855 25.6195 48.1455C26.1075 48.7055 26.3515 49.4655 26.3515 50.4255V50.6415C26.3515 50.7215 26.3235 50.7895 26.2675 50.8455C26.2195 50.8935 26.1555 50.9175 26.0755 50.9175H21.9115V51.0255C21.9355 51.5455 22.0955 51.9895 22.3915 52.3575C22.6875 52.7255 23.0795 52.9095 23.5675 52.9095C23.9435 52.9095 24.2475 52.8375 24.4795 52.6935C24.7195 52.5415 24.8995 52.3855 25.0195 52.2255C25.0915 52.1295 25.1475 52.0735 25.1875 52.0575C25.2275 52.0335 25.2955 52.0215 25.3915 52.0215H25.9195C25.9915 52.0215 26.0515 52.0415 26.0995 52.0815C26.1555 52.1215 26.1835 52.1735 26.1835 52.2375C26.1835 52.4135 26.0755 52.6255 25.8595 52.8735C25.6435 53.1215 25.3355 53.3375 24.9355 53.5215C24.5435 53.6975 24.0915 53.7855 23.5795 53.7855ZM25.2595 50.1015V50.0655C25.2595 49.5055 25.1075 49.0495 24.8035 48.6975C24.4995 48.3455 24.0915 48.1695 23.5795 48.1695C23.0595 48.1695 22.6515 48.3455 22.3555 48.6975C22.0595 49.0495 21.9115 49.5055 21.9115 50.0655V50.1015H25.2595ZM29.5386 53.7855C29.1466 53.7855 28.7826 53.7055 28.4466 53.5455C28.1186 53.3855 27.8546 53.1695 27.6546 52.8975C27.4626 52.6175 27.3666 52.3095 27.3666 51.9735C27.3666 51.4455 27.5826 51.0135 28.0146 50.6775C28.4466 50.3415 29.0346 50.1175 29.7786 50.0055L31.5786 49.7535V49.4055C31.5786 48.5815 31.1026 48.1695 30.1506 48.1695C29.7826 48.1695 29.4866 48.2455 29.2626 48.3975C29.0386 48.5415 28.8746 48.7135 28.7706 48.9135C28.7386 48.9935 28.7026 49.0495 28.6626 49.0815C28.6306 49.1055 28.5826 49.1175 28.5186 49.1175H28.0506C27.9786 49.1175 27.9146 49.0935 27.8586 49.0455C27.8106 48.9895 27.7866 48.9255 27.7866 48.8535C27.7866 48.6695 27.8706 48.4575 28.0386 48.2175C28.2146 47.9695 28.4826 47.7575 28.8426 47.5815C29.2026 47.3975 29.6426 47.3055 30.1626 47.3055C31.0586 47.3055 31.6986 47.5135 32.0826 47.9295C32.4746 48.3455 32.6706 48.8655 32.6706 49.4895V53.3895C32.6706 53.4695 32.6426 53.5375 32.5866 53.5935C32.5386 53.6415 32.4746 53.6655 32.3946 53.6655H31.8666C31.7866 53.6655 31.7226 53.6415 31.6746 53.5935C31.6266 53.5375 31.6026 53.4695 31.6026 53.3895V52.8615C31.4266 53.1255 31.1706 53.3455 30.8346 53.5215C30.4986 53.6975 30.0666 53.7855 29.5386 53.7855ZM29.7786 52.9095C30.3066 52.9095 30.7386 52.7375 31.0746 52.3935C31.4106 52.0495 31.5786 51.5495 31.5786 50.8935V50.5575L30.1746 50.7615C29.5986 50.8415 29.1626 50.9775 28.8666 51.1695C28.5706 51.3615 28.4226 51.6015 28.4226 51.8895C28.4226 52.2175 28.5546 52.4695 28.8186 52.6455C29.0906 52.8215 29.4106 52.9095 29.7786 52.9095ZM36.6882 53.7855C35.8482 53.7855 35.2162 53.5135 34.7922 52.9695C34.3762 52.4255 34.1522 51.7375 34.1202 50.9055L34.1082 50.5455L34.1202 50.1855C34.1522 49.3615 34.3802 48.6775 34.8042 48.1335C35.2282 47.5815 35.8562 47.3055 36.6882 47.3055C37.5202 47.3055 38.1682 47.6015 38.6322 48.1935V45.4215C38.6322 45.3415 38.6562 45.2775 38.7042 45.2295C38.7602 45.1735 38.8282 45.1455 38.9082 45.1455H39.4482C39.5282 45.1455 39.5922 45.1735 39.6402 45.2295C39.6962 45.2775 39.7242 45.3415 39.7242 45.4215V53.3895C39.7242 53.4695 39.6962 53.5375 39.6402 53.5935C39.5922 53.6415 39.5282 53.6655 39.4482 53.6655H38.9322C38.8522 53.6655 38.7882 53.6415 38.7402 53.5935C38.6922 53.5375 38.6682 53.4695 38.6682 53.3895V52.8735C38.2122 53.4815 37.5522 53.7855 36.6882 53.7855ZM36.9162 52.8495C37.4762 52.8495 37.8962 52.6655 38.1762 52.2975C38.4562 51.9215 38.6082 51.4775 38.6322 50.9655C38.6402 50.8775 38.6442 50.7255 38.6442 50.5095C38.6442 50.2855 38.6402 50.1295 38.6322 50.0415C38.6162 49.5535 38.4602 49.1335 38.1642 48.7815C37.8762 48.4215 37.4602 48.2415 36.9162 48.2415C36.3402 48.2415 35.9202 48.4215 35.6562 48.7815C35.3922 49.1415 35.2482 49.6135 35.2242 50.1975L35.2122 50.5455C35.2122 52.0815 35.7802 52.8495 36.9162 52.8495ZM46.6224 53.7855C46.0704 53.7855 45.6024 53.6975 45.2184 53.5215C44.8424 53.3375 44.5624 53.1295 44.3784 52.8975C44.1944 52.6655 44.1024 52.4735 44.1024 52.3215C44.1024 52.2415 44.1304 52.1815 44.1864 52.1415C44.2424 52.0935 44.3024 52.0695 44.3664 52.0695H44.8704C44.9184 52.0695 44.9544 52.0775 44.9784 52.0935C45.0104 52.1095 45.0504 52.1455 45.0984 52.2015C45.2824 52.4255 45.4864 52.6015 45.7104 52.7295C45.9424 52.8575 46.2504 52.9215 46.6344 52.9215C47.0664 52.9215 47.4104 52.8415 47.6664 52.6815C47.9304 52.5215 48.0624 52.2895 48.0624 51.9855C48.0624 51.7855 48.0064 51.6255 47.8944 51.5055C47.7824 51.3855 47.5944 51.2775 47.3304 51.1815C47.0744 51.0855 46.6904 50.9815 46.1784 50.8695C45.4824 50.7175 44.9904 50.4975 44.7024 50.2095C44.4144 49.9215 44.2704 49.5495 44.2704 49.0935C44.2704 48.7975 44.3584 48.5135 44.5344 48.2415C44.7104 47.9615 44.9704 47.7375 45.3144 47.5695C45.6664 47.3935 46.0824 47.3055 46.5624 47.3055C47.0664 47.3055 47.4944 47.3895 47.8464 47.5575C48.2064 47.7255 48.4744 47.9215 48.6504 48.1455C48.8344 48.3695 48.9264 48.5575 48.9264 48.7095C48.9264 48.7815 48.8984 48.8415 48.8424 48.8895C48.7944 48.9375 48.7344 48.9615 48.6624 48.9615H48.2064C48.0944 48.9615 48.0144 48.9175 47.9664 48.8295C47.8304 48.6775 47.7144 48.5615 47.6184 48.4815C47.5304 48.3935 47.3984 48.3215 47.2224 48.2655C47.0464 48.2015 46.8264 48.1695 46.5624 48.1695C46.1704 48.1695 45.8704 48.2535 45.6624 48.4215C45.4544 48.5815 45.3504 48.7975 45.3504 49.0695C45.3504 49.2375 45.3944 49.3815 45.4824 49.5015C45.5704 49.6135 45.7384 49.7215 45.9864 49.8255C46.2344 49.9215 46.6024 50.0215 47.0904 50.1255C47.8504 50.2855 48.3864 50.5135 48.6984 50.8095C49.0184 51.1055 49.1784 51.4855 49.1784 51.9495C49.1784 52.2935 49.0784 52.6055 48.8784 52.8855C48.6864 53.1655 48.3944 53.3855 48.0024 53.5455C47.6184 53.7055 47.1584 53.7855 46.6224 53.7855ZM53.0761 53.7855C52.2201 53.7855 51.5521 53.5455 51.0721 53.0655C50.5921 52.5775 50.3401 51.8975 50.3161 51.0255L50.3041 50.5455L50.3161 50.0655C50.3401 49.1935 50.5921 48.5175 51.0721 48.0375C51.5521 47.5495 52.2201 47.3055 53.0761 47.3055C53.6521 47.3055 54.1361 47.4095 54.5281 47.6175C54.9281 47.8175 55.2241 48.0695 55.4161 48.3735C55.6161 48.6775 55.7241 48.9815 55.7401 49.2855C55.7481 49.3575 55.7201 49.4215 55.6561 49.4775C55.6001 49.5335 55.5361 49.5615 55.4641 49.5615H54.9361C54.8561 49.5615 54.7961 49.5455 54.7561 49.5135C54.7161 49.4735 54.6761 49.4055 54.6361 49.3095C54.4921 48.9175 54.2921 48.6415 54.0361 48.4815C53.7881 48.3135 53.4721 48.2295 53.0881 48.2295C52.5841 48.2295 52.1841 48.3855 51.8881 48.6975C51.5921 49.0095 51.4321 49.4855 51.4081 50.1255L51.3961 50.5455L51.4081 50.9655C51.4321 51.6055 51.5921 52.0815 51.8881 52.3935C52.1841 52.7055 52.5841 52.8615 53.0881 52.8615C53.4801 52.8615 53.8001 52.7815 54.0481 52.6215C54.2961 52.4535 54.4921 52.1735 54.6361 51.7815C54.6761 51.6855 54.7161 51.6215 54.7561 51.5895C54.7961 51.5495 54.8561 51.5295 54.9361 51.5295H55.4641C55.5361 51.5295 55.6001 51.5575 55.6561 51.6135C55.7201 51.6695 55.7481 51.7335 55.7401 51.8055C55.7241 52.1015 55.6161 52.4015 55.4161 52.7055C55.2241 53.0095 54.9281 53.2655 54.5281 53.4735C54.1361 53.6815 53.6521 53.7855 53.0761 53.7855ZM59.7098 53.7855C58.8298 53.7855 58.1498 53.5375 57.6698 53.0415C57.1978 52.5455 56.9458 51.8855 56.9138 51.0615L56.9018 50.5455L56.9138 50.0295C56.9458 49.2055 57.2018 48.5455 57.6818 48.0495C58.1698 47.5535 58.8458 47.3055 59.7098 47.3055C60.5738 47.3055 61.2458 47.5535 61.7258 48.0495C62.2138 48.5455 62.4738 49.2055 62.5058 50.0295C62.5218 50.2055 62.5298 50.3775 62.5298 50.5455C62.5298 50.7135 62.5218 50.8855 62.5058 51.0615C62.4738 51.8855 62.2178 52.5455 61.7378 53.0415C61.2658 53.5375 60.5898 53.7855 59.7098 53.7855ZM59.7098 52.8855C60.2218 52.8855 60.6258 52.7255 60.9218 52.4055C61.2258 52.0775 61.3898 51.6095 61.4138 51.0015C61.4218 50.9215 61.4258 50.7695 61.4258 50.5455C61.4258 50.3215 61.4218 50.1695 61.4138 50.0895C61.3898 49.4815 61.2258 49.0175 60.9218 48.6975C60.6258 48.3695 60.2218 48.2055 59.7098 48.2055C59.1978 48.2055 58.7898 48.3695 58.4858 48.6975C58.1898 49.0175 58.0298 49.4815 58.0058 50.0895L57.9938 50.5455L58.0058 51.0015C58.0298 51.6095 58.1898 52.0775 58.4858 52.4055C58.7898 52.7255 59.1978 52.8855 59.7098 52.8855ZM64.321 53.6655C64.241 53.6655 64.173 53.6415 64.117 53.5935C64.069 53.5375 64.045 53.4695 64.045 53.3895V47.7135C64.045 47.6335 64.069 47.5655 64.117 47.5095C64.173 47.4535 64.241 47.4255 64.321 47.4255H64.825C64.913 47.4255 64.981 47.4535 65.029 47.5095C65.085 47.5575 65.113 47.6255 65.113 47.7135V48.2415C65.441 47.6975 65.997 47.4255 66.781 47.4255H67.249C67.337 47.4255 67.405 47.4495 67.453 47.4975C67.501 47.5455 67.525 47.6135 67.525 47.7015V48.1455C67.525 48.2255 67.501 48.2935 67.453 48.3495C67.405 48.3975 67.337 48.4215 67.249 48.4215H66.565C66.125 48.4215 65.777 48.5495 65.521 48.8055C65.273 49.0615 65.149 49.4095 65.149 49.8495V53.3895C65.149 53.4695 65.121 53.5375 65.065 53.5935C65.009 53.6415 64.941 53.6655 64.861 53.6655H64.321ZM70.9115 53.7855C70.0955 53.7855 69.4435 53.5335 68.9555 53.0295C68.4675 52.5175 68.1995 51.8215 68.1515 50.9415L68.1395 50.5335L68.1515 50.1375C68.1995 49.2735 68.4675 48.5855 68.9555 48.0735C69.4435 47.5615 70.0955 47.3055 70.9115 47.3055C71.7915 47.3055 72.4715 47.5855 72.9515 48.1455C73.4395 48.7055 73.6835 49.4655 73.6835 50.4255V50.6415C73.6835 50.7215 73.6555 50.7895 73.5995 50.8455C73.5515 50.8935 73.4875 50.9175 73.4075 50.9175H69.2435V51.0255C69.2675 51.5455 69.4275 51.9895 69.7235 52.3575C70.0195 52.7255 70.4115 52.9095 70.8995 52.9095C71.2755 52.9095 71.5795 52.8375 71.8115 52.6935C72.0515 52.5415 72.2315 52.3855 72.3515 52.2255C72.4235 52.1295 72.4795 52.0735 72.5195 52.0575C72.5595 52.0335 72.6275 52.0215 72.7235 52.0215H73.2515C73.3235 52.0215 73.3835 52.0415 73.4315 52.0815C73.4875 52.1215 73.5155 52.1735 73.5155 52.2375C73.5155 52.4135 73.4075 52.6255 73.1915 52.8735C72.9755 53.1215 72.6675 53.3375 72.2675 53.5215C71.8755 53.6975 71.4235 53.7855 70.9115 53.7855ZM72.5915 50.1015V50.0655C72.5915 49.5055 72.4395 49.0495 72.1355 48.6975C71.8315 48.3455 71.4235 48.1695 70.9115 48.1695C70.3915 48.1695 69.9835 48.3455 69.6875 48.6975C69.3915 49.0495 69.2435 49.5055 69.2435 50.0655V50.1015H72.5915Z" fill="#7B89A6"/>
</svg>
