<svg width="21" height="20" viewBox="0 0 21 20" fill="none" xmlns="http://www.w3.org/2000/svg">
<path d="M9.41675 1.6665C13.5567 1.6665 16.9167 5.0265 16.9167 9.1665C16.9167 13.3065 13.5567 16.6665 9.41675 16.6665C5.27675 16.6665 1.91675 13.3065 1.91675 9.1665C1.91675 5.0265 5.27675 1.6665 9.41675 1.6665ZM9.41675 14.9998C12.6392 14.9998 15.2501 12.389 15.2501 9.1665C15.2501 5.94317 12.6392 3.33317 9.41675 3.33317C6.19341 3.33317 3.58341 5.94317 3.58341 9.1665C3.58341 12.389 6.19341 14.9998 9.41675 14.9998ZM16.4876 15.059L18.8451 17.4157L17.6659 18.5948L15.3092 16.2373L16.4876 15.059Z" fill="#B4C0D4"/>
</svg>
