<svg width="14" height="17" viewBox="0 0 14 17" fill="none" xmlns="http://www.w3.org/2000/svg">
<path d="M0.494 1.14967L12.802 7.91901C12.8543 7.94778 12.8978 7.99006 12.9282 8.04142C12.9586 8.09278 12.9746 8.15135 12.9746 8.21101C12.9746 8.27067 12.9586 8.32924 12.9282 8.3806C12.8978 8.43196 12.8543 8.47423 12.802 8.50301L0.494 15.2723C0.443249 15.3003 0.386099 15.3145 0.328182 15.3136C0.270265 15.3127 0.213582 15.2967 0.163718 15.2672C0.113854 15.2378 0.072531 15.1958 0.0438223 15.1455C0.0151136 15.0952 9.91698e-06 15.0383 0 14.9803V1.44167C9.91698e-06 1.38375 0.0151136 1.32683 0.0438223 1.27652C0.072531 1.22621 0.113854 1.18425 0.163718 1.15478C0.213582 1.12531 0.270265 1.10933 0.328182 1.10844C0.386099 1.10754 0.443249 1.12176 0.494 1.14967ZM1.33333 8.87767V13.289L10.5667 8.21101L1.33333 3.13301V7.54434H4.66667V8.87767H1.33333Z" fill="#B4C0D4"/>
</svg>
