<svg width="20" height="20" viewBox="0 0 20 20" fill="none" xmlns="http://www.w3.org/2000/svg">
<path d="M7.23824 3.33348L9.41074 1.16098C9.56701 1.00476 9.77893 0.916992 9.9999 0.916992C10.2209 0.916992 10.4328 1.00476 10.5891 1.16098L12.7616 3.33348H15.8332C16.0543 3.33348 16.2662 3.42128 16.4225 3.57756C16.5788 3.73384 16.6666 3.9458 16.6666 4.16681V7.23848L18.8391 9.41098C18.9953 9.56726 19.0831 9.77918 19.0831 10.0001C19.0831 10.2211 18.9953 10.433 18.8391 10.5893L16.6666 12.7618V15.8335C16.6666 16.0545 16.5788 16.2665 16.4225 16.4227C16.2662 16.579 16.0543 16.6668 15.8332 16.6668H12.7616L10.5891 18.8393C10.4328 18.9955 10.2209 19.0833 9.9999 19.0833C9.77893 19.0833 9.56701 18.9955 9.41074 18.8393L7.23824 16.6668H4.16657C3.94556 16.6668 3.7336 16.579 3.57731 16.4227C3.42103 16.2665 3.33324 16.0545 3.33324 15.8335V12.7618L1.16074 10.5893C1.00451 10.433 0.916748 10.2211 0.916748 10.0001C0.916748 9.77918 1.00451 9.56726 1.16074 9.41098L3.33324 7.23848V4.16681C3.33324 3.9458 3.42103 3.73384 3.57731 3.57756C3.7336 3.42128 3.94556 3.33348 4.16657 3.33348H7.23824ZM9.9999 12.5001C10.6629 12.5001 11.2988 12.2368 11.7677 11.7679C12.2365 11.2991 12.4999 10.6632 12.4999 10.0001C12.4999 9.33711 12.2365 8.70122 11.7677 8.23238C11.2988 7.76354 10.6629 7.50015 9.9999 7.50015C9.33686 7.50015 8.70098 7.76354 8.23214 8.23238C7.7633 8.70122 7.4999 9.33711 7.4999 10.0001C7.4999 10.6632 7.7633 11.2991 8.23214 11.7679C8.70098 12.2368 9.33686 12.5001 9.9999 12.5001Z" fill="#B4C0D4"/>
</svg>
