<svg width="14" height="14" viewBox="0 0 14 14" fill="none" xmlns="http://www.w3.org/2000/svg">
<path d="M1.94941 9.91656C1.70281 9.49014 1.51113 9.03425 1.37891 8.55973C1.66667 8.41337 1.90834 8.19026 2.07717 7.91509C2.24601 7.63991 2.33544 7.32339 2.33556 7.00055C2.33568 6.6777 2.24649 6.36112 2.07786 6.08581C1.90923 5.81051 1.66773 5.58722 1.38007 5.44065C1.64376 4.48718 2.14583 3.61654 2.83899 2.91073C3.10971 3.08674 3.42385 3.18441 3.74664 3.19294C4.06944 3.20146 4.3883 3.12051 4.66793 2.95905C4.94757 2.79758 5.17708 2.5619 5.33106 2.27807C5.48505 1.99424 5.5575 1.67335 5.54041 1.3509C6.4983 1.10334 7.50346 1.10374 8.46116 1.35206C8.44421 1.67451 8.51681 1.99536 8.67091 2.2791C8.82501 2.56285 9.05462 2.79842 9.33431 2.95977C9.614 3.12111 9.93287 3.20192 10.2556 3.19327C10.5784 3.18461 10.8925 3.08683 11.1632 2.91073C11.5009 3.2549 11.8007 3.64631 12.0527 4.08323C12.3053 4.52015 12.4943 4.97573 12.6232 5.44006C12.3355 5.58642 12.0938 5.80953 11.925 6.08471C11.7561 6.35989 11.6667 6.6764 11.6666 6.99925C11.6665 7.32209 11.7557 7.63868 11.9243 7.91398C12.0929 8.18928 12.3344 8.41257 12.6221 8.55915C12.3584 9.51261 11.8563 10.3833 11.1632 11.0891C10.8924 10.9131 10.5783 10.8154 10.2555 10.8069C9.93271 10.7983 9.61385 10.8793 9.33421 11.0407C9.05458 11.2022 8.82507 11.4379 8.67108 11.7217C8.5171 12.0055 8.44464 12.3264 8.46174 12.6489C7.50384 12.8965 6.49869 12.896 5.54099 12.6477C5.55793 12.3253 5.48534 12.0044 5.33124 11.7207C5.17713 11.4369 4.94753 11.2014 4.66784 11.04C4.38815 10.8787 4.06927 10.7979 3.7465 10.8065C3.42372 10.8152 3.10963 10.913 2.83899 11.0891C2.49423 10.7373 2.19534 10.3433 1.94941 9.91656ZM5.25107 10.0309C5.87269 10.3894 6.34007 10.9648 6.56357 11.6467C6.85466 11.6741 7.14691 11.6747 7.43799 11.6473C7.66164 10.9653 8.12924 10.3899 8.75107 10.0315C9.37245 9.67196 10.1047 9.55459 10.8073 9.7019C10.9765 9.4639 11.1223 9.21015 11.2437 8.94473C10.765 8.41007 10.5006 7.71752 10.5011 6.9999C10.5011 6.2649 10.7752 5.57831 11.2437 5.05506C11.1215 4.78973 10.975 4.53627 10.8062 4.2979C10.104 4.44508 9.3722 4.32792 8.75107 3.9689C8.12946 3.61036 7.66208 3.03497 7.43857 2.35306C7.14749 2.32565 6.85524 2.32506 6.56416 2.35248C6.34051 3.03448 5.87291 3.60989 5.25107 3.96831C4.6297 4.32783 3.89743 4.4452 3.19482 4.2979C3.02599 4.53606 2.8799 4.78957 2.75849 5.05506C3.23716 5.58972 3.50159 6.28227 3.50107 6.9999C3.50107 7.7349 3.22691 8.42148 2.75849 8.94473C2.88068 9.21006 3.02714 9.46353 3.19599 9.7019C3.89816 9.55472 4.62994 9.67187 5.25107 10.0309ZM7.00107 8.7499C6.53694 8.7499 6.09183 8.56552 5.76364 8.23733C5.43545 7.90915 5.25107 7.46403 5.25107 6.9999C5.25107 6.53577 5.43545 6.09065 5.76364 5.76246C6.09183 5.43427 6.53694 5.2499 7.00107 5.2499C7.4652 5.2499 7.91032 5.43427 8.23851 5.76246C8.5667 6.09065 8.75107 6.53577 8.75107 6.9999C8.75107 7.46403 8.5667 7.90915 8.23851 8.23733C7.91032 8.56552 7.4652 8.7499 7.00107 8.7499ZM7.00107 7.58323C7.15578 7.58323 7.30416 7.52177 7.41355 7.41238C7.52295 7.30298 7.58441 7.15461 7.58441 6.9999C7.58441 6.84519 7.52295 6.69681 7.41355 6.58742C7.30416 6.47802 7.15578 6.41656 7.00107 6.41656C6.84636 6.41656 6.69799 6.47802 6.58859 6.58742C6.4792 6.69681 6.41774 6.84519 6.41774 6.9999C6.41774 7.15461 6.4792 7.30298 6.58859 7.41238C6.69799 7.52177 6.84636 7.58323 7.00107 7.58323Z" fill="#7B89A6"/>
</svg>
