<svg width="16" height="18" viewBox="0 0 16 18" fill="none" xmlns="http://www.w3.org/2000/svg">
<g filter="url(#filter0_dd)">
<path fill-rule="evenodd" clip-rule="evenodd" d="M3.73413 14.2548C4.20394 13.8857 4.78409 13.6851 5.38155 13.6851H11.333C13.174 13.6851 14.6663 12.1927 14.6663 10.3518V5.79036C14.6663 3.94941 13.174 2.45703 11.333 2.45703L4.66634 2.45704C2.82539 2.45704 1.33301 3.94942 1.33301 5.79037V15.4555C1.33301 15.7336 1.65356 15.8894 1.87227 15.7176L3.73413 14.2548ZM7.99967 7.1237C7.63148 7.1237 7.33301 7.42217 7.33301 7.79036C7.33301 8.15855 7.63148 8.45703 7.99967 8.45703C8.36786 8.45703 8.66634 8.15855 8.66634 7.79036C8.66634 7.42217 8.36786 7.1237 7.99967 7.1237ZM5.33301 7.1237C4.96482 7.1237 4.66634 7.42217 4.66634 7.79036C4.66634 8.15855 4.96482 8.45703 5.33301 8.45703C5.7012 8.45703 5.99967 8.15855 5.99967 7.79036C5.99967 7.42217 5.7012 7.1237 5.33301 7.1237ZM10.6663 7.1237C10.2982 7.1237 9.99967 7.42217 9.99967 7.79036C9.99967 8.15855 10.2982 8.45703 10.6663 8.45703C11.0345 8.45703 11.333 8.15855 11.333 7.79036C11.333 7.42217 11.0345 7.1237 10.6663 7.1237Z" fill="white"/>
</g>
<defs>
<filter id="filter0_dd" x="-1" y="-0.542969" width="18" height="19" filterUnits="userSpaceOnUse" color-interpolation-filters="sRGB">
<feFlood flood-opacity="0" result="BackgroundImageFix"/>
<feColorMatrix in="SourceAlpha" type="matrix" values="0 0 0 0 0 0 0 0 0 0 0 0 0 0 0 0 0 0 127 0"/>
<feOffset dy="2"/>
<feColorMatrix type="matrix" values="0 0 0 0 0 0 0 0 0 0.153 0 0 0 0 0.45 0 0 0 0.01 0"/>
<feBlend mode="normal" in2="BackgroundImageFix" result="effect1_dropShadow"/>
<feColorMatrix in="SourceAlpha" type="matrix" values="0 0 0 0 0 0 0 0 0 0 0 0 0 0 0 0 0 0 127 0"/>
<feOffset/>
<feGaussianBlur stdDeviation="0.5"/>
<feColorMatrix type="matrix" values="0 0 0 0 0 0 0 0 0 0.152941 0 0 0 0 0.45098 0 0 0 0.01 0"/>
<feBlend mode="normal" in2="effect1_dropShadow" result="effect2_dropShadow"/>
<feBlend mode="normal" in="SourceGraphic" in2="effect2_dropShadow" result="shape"/>
</filter>
</defs>
</svg>
