<svg width="28" height="28" viewBox="0 0 28 28" fill="none" xmlns="http://www.w3.org/2000/svg">
<path fill-rule="evenodd" clip-rule="evenodd" d="M23.3333 2.33333H19.8333V0H17.5V2.33333H10.5V0H8.16667V2.33333H4.66667C4.35725 2.33333 4.0605 2.45625 3.84171 2.67504C3.62292 2.89383 3.5 3.19058 3.5 3.5V24.5C3.5 24.8094 3.62292 25.1062 3.84171 25.325C4.0605 25.5438 4.35725 25.6667 4.66667 25.6667H23.3333C23.6428 25.6667 23.9395 25.5438 24.1583 25.325C24.3771 25.1062 24.5 24.8094 24.5 24.5V3.5C24.5 3.19058 24.3771 2.89383 24.1583 2.67504C23.9395 2.45625 23.6428 2.33333 23.3333 2.33333ZM19.8333 7V4.66667H22.1667V23.3333H5.83333V4.66667H8.16667V7H10.5V4.66667H17.5V7H19.8333ZM19.8333 9.33333H8.16667V11.6667H19.8333V9.33333ZM19.8333 14H8.16667V16.3333H19.8333V14ZM8.16667 18.6667H15.1667V21H8.16667V18.6667Z" fill="#71BE9B"/>
</svg>
