<svg width="58" height="58" viewBox="0 0 58 58" fill="none" xmlns="http://www.w3.org/2000/svg">
<g clip-path="url(#clip0)">
<path d="M45.8108 47.85C42.4577 42.0047 36.2046 38.0625 28.9999 38.0625C21.7952 38.0625 15.5421 42.0047 12.189 47.85L12.2343 49.3906H45.7655L45.8108 47.85Z" fill="white"/>
<path d="M52.173 54.4393C55.7121 50.9003 55.7121 45.1622 52.173 41.6232C48.6339 38.0841 42.8959 38.0841 39.3568 41.6232C35.8177 45.1622 35.8177 50.9003 39.3568 54.4393C42.8959 57.9784 48.6339 57.9784 52.173 54.4393Z" fill="#96D0A5"/>
<path d="M48.8921 49.3906H42.5483C41.778 49.3906 41.189 48.8016 41.189 48.0312C41.189 47.2609 41.778 46.6719 42.5483 46.6719H48.8921C49.6624 46.6719 50.2515 47.2609 50.2515 48.0312C50.2515 48.8016 49.6624 49.3906 48.8921 49.3906Z" fill="white"/>
<path d="M35.7063 40.6453C35.5703 40.6453 35.3891 40.6 35.2531 40.5547C33.2594 39.8297 31.175 39.4219 29 39.4219C28.2297 39.4219 27.6406 38.8328 27.6406 38.0625C27.6406 37.2922 28.2297 36.7031 29 36.7031C31.4922 36.7031 33.8938 37.1563 36.2047 37.9719C36.9297 38.2438 37.2469 39.0141 37.0203 39.7391C36.7937 40.2828 36.25 40.6453 35.7063 40.6453Z" fill="#50A98F"/>
<path d="M12.189 49.2094C11.9625 49.2094 11.7359 49.1641 11.5093 49.0281C10.875 48.6656 10.6484 47.85 11.0109 47.1703C14.6812 40.7359 21.5687 36.7031 29 36.7031C29.7703 36.7031 30.3593 37.2922 30.3593 38.0625C30.3593 38.8328 29.7703 39.4219 29 39.4219C22.5656 39.4219 16.5843 42.9109 13.3671 48.5297C13.1406 48.9375 12.6875 49.2094 12.189 49.2094Z" fill="#50A98F"/>
<path d="M29 31.7188C34.0051 31.7188 38.0625 27.6613 38.0625 22.6562C38.0625 17.6512 34.0051 13.5938 29 13.5938C23.9949 13.5938 19.9375 17.6512 19.9375 22.6562C19.9375 27.6613 23.9949 31.7188 29 31.7188Z" fill="white"/>
<path d="M29 33.0781C23.2453 33.0781 18.5781 28.4109 18.5781 22.6562C18.5781 16.9016 23.2453 12.2344 29 12.2344C34.7547 12.2344 39.4219 16.9016 39.4219 22.6562C39.4219 28.4109 34.7547 33.0781 29 33.0781ZM29 14.9531C24.7406 14.9531 21.2969 18.3969 21.2969 22.6562C21.2969 26.9156 24.7406 30.3594 29 30.3594C33.2594 30.3594 36.7031 26.9156 36.7031 22.6562C36.7031 18.3969 33.2594 14.9531 29 14.9531Z" fill="#50A98F"/>
<path d="M45.7202 52.5625C44.9499 52.5625 44.3608 51.9734 44.3608 51.2031V44.8594C44.3608 44.0891 44.9499 43.5 45.7202 43.5C46.4905 43.5 47.0796 44.0891 47.0796 44.8594V51.2031C47.0796 51.9734 46.4905 52.5625 45.7202 52.5625Z" fill="white"/>
</g>
<defs>
<clipPath id="clip0">
</clipPath>
</defs>
</svg>
