<svg width="250" height="250" viewBox="0 0 250 250" fill="none" xmlns="http://www.w3.org/2000/svg">
<path d="M250 0H0V250H250V0Z" fill="white"/>
<path d="M81.069 54.3746H175.004C176.409 54.3746 177.548 55.5142 177.548 56.9184V179.885C177.548 181.289 176.409 182.429 175.004 182.429H81.069C79.6648 182.429 78.5253 181.289 78.5253 179.885V56.9184C78.5253 55.5142 79.6648 54.3746 81.069 54.3746Z" fill="#F6F9FE"/>
<path d="M177.046 100.639C177.046 104.414 177.046 108.189 177.046 111.962C177.046 112.248 178.052 112.066 178.052 111.693C178.052 107.918 178.052 104.143 178.052 100.371C178.052 100.085 177.046 100.264 177.046 100.639Z" fill="#56627F"/>
<path d="M79.0272 57.0644C79.0918 55.804 79.8168 54.7332 81.171 54.6478C81.3564 54.6353 81.5481 54.6478 81.7335 54.6478C82.5877 54.6478 83.4439 54.6478 84.2981 54.6478C87.6127 54.6478 90.9252 54.6478 94.2397 54.6478C104.746 54.6478 115.252 54.6478 125.758 54.6478C136.608 54.6478 147.461 54.6478 158.311 54.6478C163.698 54.6478 169.136 54.429 174.519 54.6478C176.556 54.7311 177.046 56.4394 177.046 58.0999C177.046 60.1603 177.046 62.2228 177.046 64.2832C177.046 69.254 177.046 74.2249 177.046 79.1978C177.046 79.5332 177.046 79.8707 177.046 80.2061C177.046 80.4915 178.052 80.3103 178.052 79.9374C178.052 75.8728 178.052 71.8082 178.052 67.7436C178.052 65.0853 178.052 62.4269 178.052 59.7686C178.052 58.4332 178.344 56.5624 177.546 55.4019C176.367 53.6853 173.754 54.1082 171.938 54.1082C168.569 54.1082 165.202 54.1082 161.833 54.1082C151.05 54.1082 140.267 54.1082 129.483 54.1082C118.456 54.1082 107.431 54.1082 96.4043 54.1082C92.7606 54.1082 89.1189 54.1082 85.4752 54.1082C84.0314 54.1082 82.5127 53.9707 81.071 54.1311C79.4335 54.3144 78.1064 55.5269 78.021 57.204C78.0043 57.5853 79.0127 57.3811 79.0272 57.0644Z" fill="#56627F"/>
<path d="M177.046 166.173C177.046 168.721 177.046 171.266 177.046 173.814C177.046 175.375 177.046 176.933 177.046 178.493C177.046 179.989 177.073 182.052 174.992 182.158C174.638 182.177 173.921 182.735 174.594 182.702C176.542 182.604 178.027 181.348 178.052 179.343C178.069 177.946 178.052 176.548 178.052 175.152C178.052 172.068 178.052 168.987 178.052 165.904C178.052 165.618 177.046 165.8 177.046 166.173Z" fill="#56627F"/>
<path d="M177.046 135.614C177.046 138.61 177.046 141.606 177.046 144.602C177.046 144.887 178.052 144.706 178.052 144.333C178.052 141.337 178.052 138.341 178.052 135.346C178.052 135.06 177.046 135.241 177.046 135.614Z" fill="#56627F"/>
<path d="M158.029 128.608V118.487C158.029 115.89 160.135 113.781 162.735 113.781H178.263C180.86 113.781 182.969 115.887 182.969 118.487V128.608C182.969 131.206 180.863 133.315 178.263 133.315H162.735C160.135 133.312 158.029 131.206 158.029 128.608Z" fill="white"/>
<path d="M175.238 114.035C177.271 114.035 179.302 113.846 180.908 115.369C182.336 116.723 182.467 118.433 182.467 120.252C182.467 122.092 182.467 123.931 182.467 125.771C182.467 127.204 182.656 128.85 182.094 130.204C181.402 131.873 179.869 133.017 178.046 133.056C177.246 133.075 176.444 133.056 175.644 133.056C175.304 133.056 174.563 133.569 175.238 133.569C177.3 133.569 179.358 133.725 181.144 132.481C182.983 131.2 183.473 129.289 183.473 127.181C183.473 125.077 183.473 122.973 183.473 120.869C183.473 119.052 183.608 117.269 182.469 115.706C180.783 113.392 178.192 113.525 175.646 113.525C175.304 113.525 174.563 114.035 175.238 114.035Z" fill="#56627F"/>
<path d="M76.5567 58.8894H170.492C171.896 58.8894 173.036 60.029 173.036 61.4332V184.4C173.036 185.804 171.896 186.944 170.492 186.944H76.5567C75.1526 186.944 74.013 185.804 74.013 184.4V61.4332C74.0109 60.029 75.1505 58.8894 76.5567 58.8894Z" fill="#F6F9FE"/>
<path d="M74.5127 61.5769C74.6606 58.6561 77.4481 59.1603 79.4627 59.1603C82.5148 59.1603 85.5669 59.1603 88.6189 59.1603C98.4564 59.1603 108.294 59.1603 118.131 59.1603C128.727 59.1603 139.321 59.1603 149.917 59.1603C156.29 59.1603 162.663 59.1603 169.036 59.1603C169.381 59.1603 169.731 59.1415 170.077 59.1603C172.684 59.2936 172.531 61.829 172.531 63.6936C172.531 68.4519 172.531 73.2103 172.531 77.9686C172.531 78.3603 172.531 78.7499 172.531 79.1415C172.531 79.4269 173.538 79.2457 173.538 78.8728C173.538 74.679 173.538 70.4853 173.538 66.2915C173.538 64.7082 173.606 63.1082 173.538 61.5249C173.459 59.6853 171.994 58.6415 170.259 58.6186C164.688 58.5478 159.111 58.6186 153.54 58.6186C142.838 58.6186 132.136 58.6186 121.434 58.6186C111.148 58.6186 100.863 58.6186 90.5773 58.6186C87.2398 58.6186 83.9023 58.6186 80.5648 58.6186C79.1919 58.6186 77.6502 58.429 76.2856 58.6832C74.7585 58.9686 73.5898 60.1374 73.5106 61.7144C73.4898 62.0999 74.4981 61.8957 74.5127 61.5769Z" fill="#56627F"/>
<path d="M172.532 167.073C172.532 172.371 172.532 177.669 172.532 182.967C172.532 184.471 172.563 186.567 170.478 186.673C170.123 186.692 169.407 187.25 170.08 187.217C171.94 187.123 173.503 185.935 173.538 183.973C173.557 182.956 173.538 181.935 173.538 180.919C173.538 177.204 173.538 173.49 173.538 169.775C173.538 168.783 173.538 167.794 173.538 166.802C173.538 166.517 172.532 166.698 172.532 167.073Z" fill="#56627F"/>
<path d="M172.532 102.21C172.532 106.833 172.532 111.458 172.532 116.081C172.532 123.45 172.532 130.819 172.532 138.185C172.532 139.875 172.532 141.565 172.532 143.254C172.532 143.54 173.538 143.358 173.538 142.985C173.538 138.362 173.538 133.737 173.538 129.115C173.538 121.746 173.538 114.377 173.538 107.01C173.538 105.321 173.538 103.631 173.538 101.942C173.538 101.656 172.532 101.835 172.532 102.21Z" fill="#56627F"/>
<path d="M153.515 95.8005V85.6796C153.515 83.0817 155.621 80.9734 158.221 80.9734H173.748C176.346 80.9734 178.454 83.0796 178.454 85.6796V95.8005C178.454 98.3984 176.348 100.507 173.748 100.507H158.221C155.621 100.505 153.515 98.3984 153.515 95.8005Z" fill="white"/>
<path d="M170.723 81.2274C172.756 81.2274 174.788 81.0378 176.394 82.5608C177.821 83.9149 177.952 85.6253 177.952 87.4441C177.952 89.2837 177.952 91.1233 177.952 92.9628C177.952 94.3962 178.142 96.042 177.579 97.3962C176.888 99.0649 175.354 100.209 173.531 100.248C172.731 100.267 171.929 100.248 171.129 100.248C170.79 100.248 170.048 100.761 170.723 100.761C172.786 100.761 174.844 100.917 176.629 99.6732C178.469 98.392 178.959 96.4816 178.959 94.3732C178.959 92.2691 178.959 90.1649 178.959 88.0608C178.959 86.2441 179.094 84.4607 177.954 82.8982C176.269 80.5837 173.677 80.717 171.131 80.717C170.79 80.717 170.05 81.2274 170.723 81.2274Z" fill="#56627F"/>
<path d="M153.515 160.206V150.085C153.515 147.487 155.621 145.379 158.221 145.379H173.748C176.346 145.379 178.454 147.485 178.454 150.085V160.206C178.454 162.804 176.348 164.912 173.748 164.912H158.221C155.621 164.912 153.515 162.804 153.515 160.206Z" fill="white"/>
<path d="M170.723 145.635C172.756 145.635 174.788 145.445 176.394 146.968C177.821 148.323 177.952 150.033 177.952 151.852C177.952 153.691 177.952 155.531 177.952 157.37C177.952 158.804 178.142 160.45 177.579 161.804C176.888 163.473 175.354 164.616 173.531 164.656C172.731 164.675 171.929 164.656 171.129 164.656C170.79 164.656 170.048 165.168 170.723 165.168C172.786 165.168 174.844 165.325 176.629 164.081C178.469 162.8 178.959 160.889 178.959 158.781C178.959 156.677 178.959 154.573 178.959 152.468C178.959 150.652 179.094 148.868 177.954 147.306C176.269 144.991 173.677 145.125 171.131 145.125C170.79 145.123 170.05 145.635 170.723 145.635Z" fill="#56627F"/>
<path d="M166.063 191.388H72.1274C70.7232 191.388 69.5836 190.248 69.5836 188.844V65.8771C69.5836 64.473 70.7232 63.3334 72.1274 63.3334H166.063C167.467 63.3334 168.607 64.473 168.607 65.8771V188.844C168.607 190.248 167.467 191.388 166.063 191.388Z" fill="white"/>
<path d="M70.0003 156.298C70.0003 149.719 70.0003 143.142 70.0003 136.562C70.0003 126.087 70.0003 115.612 70.0003 105.137C70.0003 102.748 70.0003 100.358 70.0003 97.9666C70.0003 97.6812 68.994 97.8625 68.994 98.2354C68.994 104.815 68.994 111.392 68.994 117.971C68.994 128.446 68.994 138.921 68.994 149.396C68.994 151.785 68.994 154.175 68.994 156.567C68.994 156.852 70.0003 156.673 70.0003 156.298Z" fill="#56627F"/>
<path d="M70.0004 93.4541C70.0004 86.8062 70.0004 80.1562 70.0004 73.5083C70.0004 71.0312 69.8754 68.5187 70.0004 66.0437C70.1233 63.5895 72.0296 63.675 73.7588 63.675C78.8921 63.675 84.0234 63.675 89.1567 63.675C97.4817 63.675 105.809 63.675 114.134 63.675C122.896 63.675 131.659 63.675 140.421 63.675C146.965 63.675 153.509 63.675 160.05 63.675C161.65 63.675 163.253 63.675 164.853 63.675C165.088 63.675 165.325 63.6625 165.561 63.675C167.096 63.7541 167.994 65.0145 168.015 66.4541C168.063 69.477 168.015 72.5041 168.015 75.527C168.015 82.077 168.015 88.627 168.015 95.177C168.015 103.687 168.015 112.2 168.015 120.71C168.015 129.619 168.015 138.527 168.015 147.435C168.015 155.202 168.015 162.969 168.015 170.735C168.015 175.731 168.015 180.727 168.015 185.723C168.015 186.704 168.044 187.69 168.015 188.671C167.978 189.908 167.317 191.083 165.946 191.19C165.669 191.21 165.382 191.19 165.103 191.19C160.544 191.19 155.986 191.19 151.428 191.19C143.38 191.19 135.334 191.19 127.286 191.19C118.434 191.19 109.582 191.19 100.728 191.19C93.7546 191.19 86.7796 191.19 79.8067 191.19C77.8629 191.19 75.9192 191.19 73.9754 191.19C73.5358 191.19 73.0963 191.202 72.6588 191.19C71.1463 191.148 70.065 190.094 69.9983 188.56C69.8942 186.117 69.9983 183.648 69.9983 181.202C69.9983 176.875 69.9983 172.546 69.9983 168.219C69.9983 166.01 69.9983 163.8 69.9983 161.592C69.9983 161.306 68.9921 161.487 68.9921 161.86C68.9921 168.673 68.9921 175.487 68.9921 182.3C68.9921 183.925 68.9921 185.548 68.9921 187.173C68.9921 188.037 68.8629 189.098 69.2088 189.912C70.0109 191.798 71.8421 191.733 73.5192 191.733C78.6213 191.733 83.7233 191.733 88.8254 191.733C97.2963 191.733 105.765 191.733 114.236 191.733C123.119 191.733 132.003 191.733 140.886 191.733C147.444 191.733 154.005 191.733 160.563 191.733C163.332 191.733 168.948 192.64 169.021 188.479C169.073 185.531 169.021 182.577 169.021 179.627C169.021 172.981 169.021 166.335 169.021 159.687C169.021 151.004 169.021 142.321 169.021 133.637C169.021 124.573 169.021 115.508 169.021 106.444C169.021 98.6541 169.021 90.8645 169.021 83.075C169.021 78.227 169.021 73.3791 169.021 68.5312C169.021 67.7104 169.053 66.8833 169.021 66.0625C168.955 64.3375 167.628 63.2 165.948 63.1354C165.675 63.125 165.398 63.1354 165.125 63.1354C160.455 63.1354 155.786 63.1354 151.115 63.1354C142.863 63.1354 134.611 63.1354 126.361 63.1354C117.369 63.1354 108.378 63.1354 99.3858 63.1354C92.515 63.1354 85.6442 63.1354 78.7713 63.1354C76.9879 63.1354 75.2046 63.1354 73.4213 63.1354C71.3421 63.1354 69.0796 63.7604 68.99 66.3041C68.9025 68.7895 68.99 71.2958 68.99 73.7812C68.99 78.1812 68.99 82.5812 68.99 86.9812C68.99 89.2291 68.99 91.477 68.99 93.725C68.9942 94.0083 70.0004 93.827 70.0004 93.4541Z" fill="#56627F"/>
<path d="M119.009 132.577C132.72 132.577 143.836 121.462 143.836 107.75C143.836 94.0384 132.72 82.923 119.009 82.923C105.297 82.923 94.1816 94.0384 94.1816 107.75C94.1816 121.462 105.297 132.577 119.009 132.577Z" fill="#ABDCB3"/>
<path d="M123.755 108.258C126.301 106.645 127.996 103.808 128.007 100.57C128.023 95.5288 123.948 91.4288 118.907 91.4122C113.865 91.3955 109.765 95.4705 109.748 100.512C109.738 103.75 111.415 106.598 113.953 108.225C106.88 109.929 101.226 115.279 99.0985 122.183C103.528 128.256 110.686 132.214 118.778 132.239C126.869 132.264 134.053 128.352 138.521 122.308C136.438 115.393 130.817 110.006 123.755 108.258Z" fill="white"/>
<path d="M138.425 120.464C135.903 114.304 130.613 109.683 124.161 108.035C124.157 108.129 124.155 108.22 124.15 108.314C126.982 106.454 128.7 103.273 128.494 99.8601C128.307 96.7684 126.519 93.9413 123.838 92.4059C118.469 89.3288 111.084 92.3038 109.534 98.3413C108.542 102.202 110.192 106.225 113.482 108.414C113.619 108.281 113.757 108.148 113.894 108.016C107.344 109.645 101.896 114.208 99.2567 120.435C99.1484 120.691 100.13 120.587 100.257 120.287C102.746 114.418 107.807 109.985 114.009 108.441C114.059 108.429 114.644 108.191 114.421 108.043C109.267 104.612 108.809 96.8476 113.971 93.1684C119.109 89.508 126.248 93.0621 127.35 99.0059C128.019 102.612 126.4 106.208 123.359 108.206C123.261 108.27 123.188 108.443 123.348 108.485C129.717 110.112 134.928 114.654 137.417 120.737C137.544 121.039 138.534 120.729 138.425 120.464Z" fill="#56627F"/>
<path d="M143.327 107.785C143.269 117.875 137.002 127.175 127.484 130.706C117.859 134.277 106.763 131.179 100.267 123.266C93.7961 115.381 92.9086 103.987 98.0982 95.2019C103.317 86.3686 113.794 81.7436 123.838 83.7998C133.654 85.8082 141.398 93.9957 143.007 103.858C143.221 105.158 143.319 106.469 143.327 107.785C143.329 108.319 144.35 108.173 144.348 107.712C144.288 97.1852 137.621 87.5873 127.673 84.0248C117.748 80.4707 106.332 83.5769 99.5607 91.6457C92.7232 99.7936 91.7857 111.712 97.3003 120.816C102.784 129.869 113.623 134.51 123.971 132.45C134.177 130.419 142.348 122.016 144.025 111.737C144.242 110.404 144.342 109.06 144.35 107.71C144.35 107.181 143.329 107.325 143.327 107.785Z" fill="#56627F"/>
<path d="M92.9315 160.644C98.8065 160.644 104.684 160.644 110.559 160.644C119.886 160.644 129.211 160.644 138.538 160.644C140.688 160.644 142.838 160.644 144.988 160.644C145.544 160.644 145.775 159.956 145.09 159.956C139.215 159.956 133.338 159.956 127.463 159.956C118.136 159.956 108.811 159.956 99.4836 159.956C97.3336 159.956 95.1836 159.956 93.0336 159.956C92.4773 159.954 92.244 160.644 92.9315 160.644Z" fill="#56627F"/>
<path d="M92.793 172.638C96.8785 172.638 100.965 172.638 105.051 172.638C111.537 172.638 118.022 172.638 124.508 172.638C126.003 172.638 127.498 172.638 128.993 172.638C129.286 172.638 129.725 172.013 129.252 172.013C125.167 172.013 121.08 172.013 116.994 172.013C110.508 172.013 104.024 172.013 97.5376 172.013C96.0425 172.013 94.5474 172.013 93.0523 172.013C92.7596 172.015 92.3221 172.638 92.793 172.638Z" fill="#56627F"/>
<path d="M77.1317 94.5983C78.2422 93.2858 80.1151 94.1504 80.2672 95.7337C80.4442 97.5754 78.3942 98.3983 77.2005 97.0129C76.9463 96.7171 75.9817 97.092 76.2713 97.4275C77.8234 99.2275 81.2547 98.3462 81.2901 95.7941C81.3255 93.0879 77.8171 92.6004 76.313 94.3816C75.9171 94.8483 76.8817 94.8941 77.1317 94.5983Z" fill="#56627F"/>
<path d="M77.213 157.669C78.3464 156.465 80.1235 157.396 80.2672 158.904C80.3255 159.519 80.1005 160.175 79.6276 160.582C78.8089 161.288 77.7568 160.867 77.1547 160.123C76.911 159.821 75.9443 160.19 76.2255 160.538C77.7443 162.415 81.2547 161.546 81.288 158.963C81.3234 156.307 77.9485 155.794 76.3901 157.45C75.9755 157.894 76.9505 157.948 77.213 157.669Z" fill="#56627F"/>
<path d="M66.5233 94.5332C66.6233 96.6187 70.2587 96.552 71.6712 96.5707C73.6087 96.5978 75.5628 96.4645 77.4837 96.2041C78.0295 96.1291 78.2649 95.3978 77.5795 95.4895C76.0399 95.6999 74.4795 95.8166 72.9274 95.852C71.8899 95.8749 67.6233 96.1624 67.542 94.4499C67.517 93.9353 66.5024 94.0999 66.5233 94.5332Z" fill="#56627F"/>
<path d="M66.5233 157.602C66.6233 159.687 70.2587 159.621 71.6712 159.639C73.6087 159.666 75.5628 159.533 77.4837 159.271C78.0295 159.196 78.2649 158.464 77.5795 158.556C76.0399 158.766 74.4795 158.883 72.9274 158.919C71.8899 158.941 67.6233 159.229 67.542 157.516C67.517 157.004 66.5024 157.171 66.5233 157.602Z" fill="#56627F"/>
<path d="M195.615 210.512C195.489 210.675 194.608 210.838 192.72 211.028C179.52 212.344 163.913 211.937 150.335 211.937C124.832 211.951 99.3122 211.666 73.8244 211.666C57.9181 211.394 39.4 210.689 55.1647 209.739C73.0849 208.653 92.5155 208.816 110.64 208.68C127.066 208.558 143.491 208.653 159.901 208.938C162.686 208.979 196.276 209.617 195.615 210.512Z" fill="#E8EEF9"/>
<path d="M95.0696 152.297H93.9764L92.8888 152.292C92.6324 152.292 92.453 152.275 92.3505 152.242C92.1637 152.176 92.0703 152.037 92.0703 151.825C92.0703 151.455 92.3578 151.27 92.9327 151.27L93.1964 151.275L93.4216 151.286C93.4216 151.111 93.4052 150.851 93.3722 150.506C93.3429 150.162 93.3282 149.904 93.3282 149.732C93.3282 149.267 93.3704 148.56 93.4546 147.611C93.5352 146.678 93.5736 145.969 93.5699 145.486C93.0792 145.866 92.7661 146.057 92.6306 146.057C92.4841 146.057 92.356 146.002 92.2461 145.892C92.1399 145.782 92.0868 145.656 92.0868 145.513C92.0868 145.341 92.2443 145.132 92.5592 144.887C92.757 144.748 93.0371 144.524 93.3997 144.217C93.7219 143.891 94.0295 143.728 94.3225 143.728C94.5679 143.728 94.6906 143.869 94.6906 144.151C94.6906 144.235 94.6796 144.361 94.6576 144.53C94.6356 144.695 94.6246 144.819 94.6246 144.903C94.6246 145.024 94.6301 145.207 94.6411 145.453C94.6558 145.698 94.6631 145.881 94.6631 146.002C94.6631 146.419 94.6191 147.042 94.5312 147.87C94.4434 148.697 94.3994 149.318 94.3994 149.732C94.3994 149.944 94.4141 150.202 94.4434 150.506C94.4727 150.81 94.4891 151.059 94.4928 151.253L95.0696 151.242C95.2234 151.242 95.3497 151.294 95.4486 151.396C95.5511 151.495 95.6024 151.62 95.6024 151.77C95.6024 151.924 95.5511 152.05 95.4486 152.149C95.3497 152.248 95.2234 152.297 95.0696 152.297Z" fill="#687693"/>
<path d="M99.5905 152.544C99.0375 152.544 98.5413 152.429 98.1018 152.198C97.6074 151.931 97.2742 151.556 97.1021 151.072C97.0801 151.006 97.0691 150.942 97.0691 150.88C97.0691 150.733 97.124 150.613 97.2339 150.517C97.3474 150.418 97.4774 150.369 97.6239 150.369C97.7704 150.369 97.8967 150.437 98.0029 150.572L98.2556 150.951C98.3875 151.131 98.5651 151.266 98.7885 151.358C99.0118 151.446 99.2792 151.49 99.5905 151.49C99.9896 151.49 100.339 151.365 100.64 151.116C100.958 150.852 101.118 150.53 101.118 150.149C101.118 149.596 100.914 149.155 100.508 148.825C100.149 148.54 99.6729 148.366 99.0796 148.304C98.6731 148.263 98.4698 148.099 98.4698 147.809C98.4698 147.593 98.6292 147.428 98.9478 147.315L100.261 146.991C100.513 146.899 100.704 146.776 100.832 146.623C100.96 146.465 101.026 146.275 101.03 146.051C101.037 145.729 100.912 145.469 100.656 145.271C100.389 145.066 100.013 144.964 99.53 144.964C99.281 144.964 99.0393 145.024 98.8049 145.145L98.1842 145.535C98.0634 145.612 97.9663 145.65 97.8931 145.65C97.7466 145.65 97.6202 145.595 97.514 145.486C97.4115 145.372 97.3602 145.244 97.3602 145.101C97.3602 144.812 97.6404 144.533 98.2007 144.266C98.6877 144.028 99.0887 143.909 99.4037 143.909C100.191 143.909 100.815 144.083 101.277 144.431C101.771 144.804 102.018 145.337 102.018 146.029C102.018 146.89 101.671 147.458 100.975 147.732C100.912 147.758 100.841 147.784 100.76 147.809C101.248 147.989 101.612 148.258 101.854 148.617C102.095 148.972 102.216 149.417 102.216 149.952C102.216 150.673 101.962 151.286 101.453 151.792C100.944 152.293 100.323 152.544 99.5905 152.544Z" fill="#687693"/>
<path d="M106.221 152.638C105.181 152.638 104.415 152.253 103.925 151.484C103.859 151.378 103.826 151.275 103.826 151.177C103.826 151.034 103.882 150.911 103.996 150.808C104.109 150.702 104.238 150.649 104.38 150.649C104.531 150.649 104.673 150.73 104.809 150.891C105.003 151.125 105.15 151.275 105.248 151.341C105.486 151.502 105.811 151.583 106.221 151.583C106.854 151.583 107.38 151.341 107.797 150.858C108.196 150.396 108.396 149.842 108.396 149.193C108.396 148.659 108.308 148.225 108.132 147.892C107.905 147.47 107.556 147.26 107.083 147.26C106.691 147.26 106.371 147.313 106.122 147.419C105.924 147.503 105.724 147.648 105.523 147.853L104.924 148.507C104.763 148.672 104.598 148.754 104.43 148.754C104.283 148.754 104.159 148.703 104.056 148.6C103.954 148.494 103.903 148.368 103.903 148.221C103.903 148.148 103.932 147.822 103.99 147.243C104.115 146.09 104.177 145.332 104.177 144.969C104.177 144.841 104.144 144.702 104.078 144.552C104.016 144.398 103.985 144.284 103.985 144.211C103.985 143.988 104.177 143.876 104.562 143.876C104.635 143.876 104.745 143.883 104.891 143.898C105.042 143.909 105.153 143.915 105.226 143.915C105.439 143.915 105.757 143.907 106.182 143.893C106.607 143.878 106.926 143.871 107.138 143.871C107.237 143.871 107.387 143.874 107.589 143.882C107.79 143.889 107.94 143.893 108.039 143.893C108.109 143.893 108.209 143.88 108.341 143.854C108.473 143.825 108.572 143.81 108.638 143.81C108.781 143.81 108.907 143.863 109.017 143.969C109.127 144.076 109.182 144.198 109.182 144.338C109.182 144.748 108.748 144.953 107.88 144.953C107.766 144.953 107.623 144.949 107.451 144.942C107.279 144.934 107.175 144.931 107.138 144.931L106.21 144.947L105.281 144.975C105.281 145.14 105.214 145.749 105.078 146.804C105.58 146.405 106.248 146.205 107.083 146.205C107.889 146.205 108.504 146.52 108.929 147.15C109.288 147.685 109.467 148.366 109.467 149.193C109.467 150.182 109.178 150.997 108.599 151.638C107.999 152.304 107.206 152.638 106.221 152.638Z" fill="#687693"/>
</svg>
