<svg width="16" height="16" viewBox="0 0 16 16" fill="none" xmlns="http://www.w3.org/2000/svg">
<path d="M8.24425 11.737L8.00002 11.6003L7.7558 11.737L3.99965 13.8396L4.83844 9.61744L4.89298 9.34292L4.68748 9.1529L1.52672 6.23019L5.80158 5.7232L6.07948 5.69024L6.19671 5.43612L8.00002 1.52699L9.80334 5.43612L9.92056 5.69024L10.1985 5.7232L14.4733 6.23019L11.3126 9.1529L11.1071 9.34292L11.1616 9.61744L12.0004 13.8396L8.24425 11.737ZM11.3218 12.1325L10.7437 9.22501L12.9202 7.21173L13.7159 6.47576L12.6396 6.34815L9.69551 5.99911L8.45406 3.30728L7.99997 2.32267L7.54597 3.30732L6.30454 5.99972L3.36059 6.34814L2.28398 6.47556L3.07984 7.21173L5.25638 9.22501L4.67829 12.1325L4.46688 13.1958L5.41289 12.6663L8.00002 11.2183L10.5872 12.6663L11.5332 13.1958L11.3218 12.1325Z" fill="#07080A" stroke="#687693"/>
</svg>
