<svg width="24" height="24" viewBox="0 0 24 24" fill="none" xmlns="http://www.w3.org/2000/svg">
<path d="M11.5243 2.04348C11.674 1.58283 12.3257 1.58283 12.4754 2.04348L14.2952 7.6442C14.4001 7.96726 14.1593 8.29871 13.8196 8.29871H10.1801C9.84039 8.29871 9.59958 7.96726 9.70455 7.6442L11.5243 2.04348Z" fill="#6F7CFF"/>
<path d="M13.4075 19.0397C13.1327 18.84 13.1327 18.4303 13.4075 18.2307L16.3517 16.0916C16.6265 15.8919 17.0162 16.0185 17.1211 16.3416L18.9407 21.9418C19.0904 22.4024 18.5632 22.7855 18.1713 22.5008L13.4075 19.0397Z" fill="#6F7CFF"/>
<path d="M22.7551 10.2032C23.1469 9.91851 22.9455 9.29871 22.4612 9.29871H1.53884C1.05448 9.29871 0.853093 9.91851 1.24495 10.2032L7.12251 14.4735C7.29776 14.6008 7.37109 14.8265 7.30415 15.0325L5.05912 21.942C4.90944 22.4027 5.43668 22.7857 5.82854 22.501L22.7551 10.2032Z" fill="#6F7CFF"/>
</svg>
