<svg width="173" height="163" viewBox="0 0 173 163" fill="none" xmlns="http://www.w3.org/2000/svg">
<path d="M146.615 161.429C146.489 161.592 145.608 161.755 143.72 161.945C130.52 163.261 114.913 162.854 101.335 162.854C75.8313 162.868 50.312 162.583 24.8242 162.583C8.91789 162.311 -9.60012 161.606 6.16458 160.656C24.0847 159.57 43.5153 159.733 61.64 159.597C78.0655 159.475 94.491 159.57 110.901 159.855C113.685 159.896 147.276 160.534 146.615 161.429Z" fill="#E8EEF9"/>
<path d="M109.493 33.4815C114.859 36.3468 121.707 36.7353 127.656 35.8612C132.901 35.0841 138.462 33.0687 141.983 28.9165C143.561 27.0467 144.654 24.7885 145.018 22.3603C145.382 19.9078 145.309 17.4067 145.455 14.9299C145.601 12.4289 145.771 9.75782 146.912 7.47529C148.563 4.10007 152.473 3.71155 155.848 4.44002C162.234 5.8241 167.018 10.632 171.437 15.1242C171.631 15.3427 172.7 14.9056 172.554 14.7357C168.839 10.9719 165.075 7.23247 160.122 5.09564C155.581 3.15306 148.126 2.54601 145.649 7.91238C143.585 12.4046 144.508 17.6981 143.877 22.4574C143.1 28.358 138.243 32.4374 132.853 34.2828C129.623 35.3998 126.151 35.8369 122.751 35.7883C118.623 35.7155 114.301 35.0599 110.61 33.093C110.319 32.923 109.372 33.4087 109.493 33.4815Z" fill="#56627F"/>
<path d="M122.581 67.3066L123.431 32.5102C122.532 26.2454 117.433 21.1461 111.168 20.272L76.3717 21.1704C74.7934 20.9519 73.215 21.4618 72.1223 22.5545L2.11679 92.6572C0.125652 94.6483 0.247063 97.975 2.35961 100.063L43.785 141.416C45.8976 143.528 49.2242 143.625 51.1911 141.634L121.221 71.5317C122.289 70.4633 122.799 68.9092 122.581 67.3066ZM104.612 39.0907C101.892 36.3953 101.892 32.0003 104.612 29.2807C107.307 26.5611 111.702 26.5611 114.422 29.2807C117.142 32.0003 117.142 36.3711 114.422 39.0907C111.727 41.8103 107.332 41.8103 104.612 39.0907Z" fill="#A5CEFF"/>
<path d="M72.1227 22.5545L2.45712 92.3172C0.465984 94.3084 0.587395 97.635 2.69995 99.7233L41.5515 138.502C43.664 140.615 46.9907 140.712 48.9575 138.721L118.623 68.9578C119.716 67.8651 120.226 66.311 119.983 64.7084L123.407 32.4859C122.508 26.2211 117.409 21.1218 111.144 20.2477L76.3478 21.1461C74.7938 20.9519 73.2154 21.4618 72.1227 22.5545ZM102.305 28.5279C105.438 25.3955 110.513 25.3955 113.645 28.5279C113.767 28.6493 113.912 28.795 114.034 28.9407C114.155 29.0621 114.301 29.1592 114.422 29.3049C117.142 32.0003 117.142 36.3953 114.422 39.115C114.301 39.2364 114.179 39.3578 114.034 39.4792C113.912 39.6249 113.791 39.7463 113.645 39.892C110.513 43.0244 105.438 43.0244 102.305 39.892C99.1974 36.7353 99.1974 31.6603 102.305 28.5279Z" fill="#DBEBFF"/>
<path d="M74.3566 24.7885L4.78818 94.6726C2.79704 96.6637 2.91845 99.9904 5.031 102.079L41.6728 138.648C43.7854 140.76 47.112 140.857 49.0789 138.866L118.647 68.982C119.74 67.8893 120.25 66.3353 120.007 64.7327L123.407 32.4859C122.508 26.2211 117.409 21.1218 111.144 20.2477L78.606 23.4044C77.0277 23.1858 75.4493 23.6958 74.3566 24.7885ZM102.305 28.5279C105.438 25.3955 110.513 25.3955 113.645 28.5279C113.767 28.6493 113.912 28.795 114.034 28.9407C114.155 29.0621 114.301 29.1592 114.422 29.3049C117.142 32.0003 117.142 36.3953 114.422 39.1149C114.301 39.2364 114.179 39.3578 114.034 39.4792C113.912 39.6249 113.791 39.7463 113.645 39.892C110.513 43.0244 105.438 43.0244 102.305 39.892C99.1973 36.7353 99.1973 31.6603 102.305 28.5279Z" fill="white"/>
<path d="M123.164 67.258C123.309 61.6245 123.431 55.991 123.577 50.3333C123.674 46.3753 123.771 42.4173 123.868 38.435C123.917 36.4682 124.111 34.4285 124.014 32.4616C123.771 27.2652 119.279 22.5059 114.641 20.709C112.261 19.7863 110.318 19.8834 107.866 19.9563C100.144 20.1505 92.4225 20.3448 84.7008 20.5633C82.1026 20.6362 79.5287 20.709 76.9305 20.7576C75.5464 20.7819 74.2594 20.709 72.9725 21.4132C72.3654 21.7289 71.8555 22.166 71.3941 22.6516C68.8445 25.1769 66.2949 27.7509 63.7695 30.3005C58.7917 35.2783 53.8139 40.2805 48.836 45.2583C42.8626 51.2317 36.8892 57.2051 30.94 63.1786C25.428 68.6906 19.9159 74.2027 14.4039 79.739C10.7858 83.3571 7.16777 86.9751 3.54972 90.5932C2.91838 91.2245 2.28704 91.8316 1.67999 92.4872C-0.602536 94.9154 -0.165455 98.3149 2.06851 100.573C5.63799 104.167 9.25603 107.736 12.8255 111.33C18.7018 117.206 24.6024 123.083 30.4787 128.959C34.5095 132.99 38.5403 136.996 42.5712 141.027C44.5866 143.043 47.2819 144.233 50.0987 142.897C51.1671 142.387 51.9684 141.489 52.794 140.663C56.0235 137.434 59.2288 134.228 62.4583 130.999C67.7761 125.657 73.1182 120.315 78.436 114.997C84.458 108.975 90.4799 102.953 96.5019 96.9065C101.698 91.7101 106.895 86.4895 112.091 81.2931C115.054 78.3307 118.016 75.3682 120.978 72.4058C122.435 70.9489 123.407 69.3705 123.164 67.1609C123.115 66.6995 121.95 66.9666 121.998 67.4765C122.241 69.6862 121.148 71.0217 119.764 72.4058C118.599 73.5713 117.433 74.7369 116.268 75.9024C111.994 80.1761 107.745 84.4498 103.471 88.6992C97.8132 94.3569 92.1554 100.015 86.4977 105.697C80.7671 111.452 75.0122 117.182 69.2816 122.937C64.8623 127.356 60.4429 131.776 56.0235 136.195C54.2509 137.968 52.5269 139.789 50.7057 141.513C48.7631 143.334 46.0435 142.824 44.2224 141.1C43.8824 140.76 43.5425 140.42 43.2025 140.08C41.5513 138.429 39.9002 136.802 38.2733 135.151C32.834 129.712 27.3948 124.297 21.9556 118.858C16.8806 113.783 11.7814 108.708 6.70641 103.633C5.51658 102.443 4.30246 101.253 3.11264 100.039C1.07293 97.9749 0.53873 94.8668 2.69984 92.6329C4.90952 90.3746 7.16776 88.1407 9.42601 85.9067C14.1125 81.2202 18.7989 76.5338 23.4854 71.823C29.3131 65.9953 35.1166 60.1676 40.9443 54.3641C46.4806 48.8278 52.017 43.2915 57.5533 37.7308C61.5113 33.7728 65.445 29.8391 69.403 25.8811C70.3257 24.9341 71.2727 24.0114 72.1955 23.0644C72.3412 22.9187 72.4626 22.773 72.6083 22.6516C73.8466 21.4861 75.2793 21.5346 76.8576 21.5103C83.3895 21.3404 89.9457 21.1704 96.4777 21.0004C100.071 20.9033 103.689 20.8061 107.283 20.709C108.327 20.6847 109.347 20.6605 110.391 20.6362C111.654 20.6119 112.868 20.9761 114.058 21.4618C118.429 23.2101 122.654 27.848 122.848 32.753C122.921 34.9869 122.727 37.2695 122.678 39.5034C122.484 47.1766 122.29 54.8498 122.12 62.5229C122.071 64.1256 122.047 65.7282 121.998 67.3308C121.974 67.9136 123.164 67.7193 123.164 67.258Z" fill="#56627F"/>
<path d="M105.171 38.8478C102.864 36.4196 102.475 32.6316 104.637 29.9362C106.968 27.0467 111.29 26.901 113.888 29.4992C116.243 31.8545 116.535 35.764 114.422 38.4107C112.067 41.3732 107.818 41.3732 105.171 38.8478C104.831 38.5321 103.714 38.9935 104.078 39.3335C108.789 43.8014 117.312 40.5718 117.045 33.7971C116.753 26.8767 107.648 24.6184 103.568 29.8148C101.31 32.6801 101.601 36.711 104.102 39.3335C104.394 39.6734 105.511 39.2363 105.171 38.8478Z" fill="#56627F"/>
<path d="M45.5822 134.083C45.5579 134.083 45.5336 134.083 45.5093 134.083C44.5138 133.913 43.6153 133.451 42.8869 132.723L42.7169 132.553C42.5226 132.359 42.5226 132.067 42.7169 131.873C42.9111 131.679 43.2025 131.679 43.3968 131.873L43.5667 132.043C44.1495 132.626 44.878 132.99 45.655 133.136C45.9221 133.184 46.0921 133.427 46.0435 133.694C46.0193 133.913 45.825 134.083 45.5822 134.083ZM48.3746 133.524C48.2289 133.524 48.059 133.451 47.9618 133.306C47.8161 133.087 47.8647 132.771 48.1075 132.626C48.2775 132.504 48.4475 132.383 48.5932 132.213L50.1229 130.683C50.3172 130.489 50.6086 130.489 50.8028 130.683C50.9971 130.877 50.9971 131.169 50.8028 131.363L49.2731 132.917C49.0788 133.111 48.8603 133.281 48.6417 133.451C48.5689 133.5 48.4717 133.524 48.3746 133.524ZM41.0171 130.659C40.8957 130.659 40.7743 130.61 40.6772 130.513L38.6132 128.449C38.4189 128.255 38.4189 127.964 38.6132 127.769C38.8074 127.575 39.0988 127.575 39.2931 127.769L41.3571 129.833C41.5513 130.027 41.5513 130.319 41.3571 130.513C41.2599 130.61 41.1385 130.659 41.0171 130.659ZM52.5512 129.445C52.4297 129.445 52.3083 129.396 52.2112 129.299C52.017 129.105 52.017 128.813 52.2112 128.619L54.2752 126.555C54.4694 126.361 54.7608 126.361 54.9551 126.555C55.1494 126.749 55.1494 127.041 54.9551 127.235L52.8911 129.299C52.794 129.396 52.6726 129.445 52.5512 129.445ZM36.8891 126.531C36.7677 126.531 36.6463 126.482 36.5492 126.385L34.4852 124.321C34.291 124.127 34.291 123.836 34.4852 123.641C34.6795 123.447 34.9709 123.447 35.1651 123.641L37.2291 125.705C37.4234 125.9 37.4234 126.191 37.2291 126.385C37.132 126.482 37.0106 126.531 36.8891 126.531ZM56.6549 125.317C56.5334 125.317 56.412 125.268 56.3149 125.171C56.1206 124.977 56.1206 124.685 56.3149 124.491L58.3789 122.427C58.5731 122.233 58.8645 122.233 59.0588 122.427C59.253 122.621 59.253 122.913 59.0588 123.107L56.9948 125.171C56.8977 125.268 56.7763 125.317 56.6549 125.317ZM32.7612 122.427C32.6398 122.427 32.5184 122.379 32.4212 122.281L30.3572 120.217C30.163 120.023 30.163 119.732 30.3572 119.538C30.5515 119.343 30.8429 119.343 31.0371 119.538L33.1011 121.602C33.2954 121.796 33.2954 122.087 33.1011 122.281C33.0283 122.379 32.8826 122.427 32.7612 122.427ZM60.7828 121.213C60.6614 121.213 60.54 121.164 60.4429 121.067C60.2486 120.873 60.2486 120.582 60.4429 120.387L62.5069 118.323C62.7011 118.129 62.9925 118.129 63.1868 118.323C63.381 118.518 63.381 118.809 63.1868 119.003L61.1228 121.067C61.0256 121.164 60.9042 121.213 60.7828 121.213ZM28.6332 118.299C28.5118 118.299 28.3904 118.251 28.2933 118.154L26.2293 116.09C26.035 115.895 26.035 115.604 26.2293 115.41C26.4235 115.215 26.7149 115.215 26.9092 115.41L28.9732 117.474C29.1674 117.668 29.1674 117.959 28.9732 118.154C28.9003 118.251 28.7789 118.299 28.6332 118.299ZM64.8865 117.085C64.7651 117.085 64.6437 117.037 64.5466 116.939C64.3523 116.745 64.3523 116.454 64.5466 116.259L66.6105 114.196C66.8048 114.001 67.0962 114.001 67.2904 114.196C67.4847 114.39 67.4847 114.681 67.2904 114.875L65.2265 116.939C65.1536 117.037 65.0322 117.085 64.8865 117.085ZM24.5295 114.196C24.4081 114.196 24.2867 114.147 24.1896 114.05L22.1256 111.986C21.9313 111.792 21.9313 111.5 22.1256 111.306C22.3198 111.112 22.6112 111.112 22.8055 111.306L24.8695 113.37C25.0637 113.564 25.0637 113.856 24.8695 114.05C24.7723 114.147 24.6509 114.196 24.5295 114.196ZM69.0145 112.957C68.8931 112.957 68.7717 112.909 68.6745 112.811C68.4803 112.617 68.4803 112.326 68.6745 112.132L70.7385 110.068C70.9328 109.873 71.2242 109.873 71.4184 110.068C71.6127 110.262 71.6127 110.553 71.4184 110.747L69.3544 112.811C69.2573 112.909 69.1359 112.957 69.0145 112.957ZM20.4015 110.068C20.2801 110.068 20.1587 110.019 20.0616 109.922L17.9976 107.858C17.8034 107.664 17.8034 107.372 17.9976 107.178C18.1919 106.984 18.4833 106.984 18.6775 107.178L20.7415 109.242C20.9358 109.436 20.9358 109.728 20.7415 109.922C20.6444 110.019 20.523 110.068 20.4015 110.068ZM73.1425 108.829C73.021 108.829 72.8996 108.781 72.8025 108.683C72.6082 108.489 72.6082 108.198 72.8025 108.004L74.8665 105.94C75.0608 105.745 75.3521 105.745 75.5464 105.94C75.7406 106.134 75.7406 106.425 75.5464 106.619L73.4824 108.683C73.3853 108.781 73.2639 108.829 73.1425 108.829ZM16.2736 105.964C16.1522 105.964 16.0308 105.915 15.9336 105.818L13.8696 103.754C13.6754 103.56 13.6754 103.269 13.8696 103.074C14.0639 102.88 14.3553 102.88 14.5495 103.074L16.6135 105.138C16.8078 105.332 16.8078 105.624 16.6135 105.818C16.5164 105.915 16.395 105.964 16.2736 105.964ZM77.2461 104.701C77.1247 104.701 77.0033 104.653 76.9062 104.555C76.7119 104.361 76.7119 104.07 76.9062 103.876L78.9702 101.812C79.1644 101.617 79.4558 101.617 79.6501 101.812C79.8443 102.006 79.8443 102.297 79.6501 102.491L77.5861 104.555C77.5132 104.653 77.3676 104.701 77.2461 104.701ZM12.1456 101.836C12.0242 101.836 11.9028 101.787 11.8057 101.69L11.0286 100.913C10.543 100.427 10.1787 99.8447 9.93592 99.2134C9.8388 98.9706 9.96021 98.6792 10.203 98.582C10.4459 98.4849 10.7372 98.6063 10.8344 98.8492C11.0286 99.3591 11.32 99.8204 11.7085 100.209L12.4856 100.986C12.6798 101.18 12.6798 101.472 12.4856 101.666C12.3884 101.787 12.267 101.836 12.1456 101.836ZM81.3741 100.597C81.2527 100.597 81.1313 100.549 81.0342 100.452C80.8399 100.258 80.8399 99.9661 81.0342 99.7719L83.0981 97.7079C83.2924 97.5136 83.5838 97.5136 83.778 97.7079C83.9723 97.9021 83.9723 98.1935 83.778 98.3878L81.7141 100.452C81.6169 100.549 81.4955 100.597 81.3741 100.597ZM10.3487 96.688C10.3002 96.688 10.2273 96.688 10.1787 96.6638C9.93592 96.5666 9.79023 96.2995 9.88736 96.0324C10.1059 95.4739 10.4216 94.964 10.8586 94.5269L11.7814 93.6042C11.9756 93.4099 12.267 93.4099 12.4613 93.6042C12.6555 93.7984 12.6555 94.0899 12.4613 94.2841L11.5385 95.2068C11.1986 95.5468 10.9558 95.9353 10.8101 96.3724C10.7372 96.5666 10.543 96.688 10.3487 96.688ZM85.5021 96.4695C85.3807 96.4695 85.2593 96.4209 85.1621 96.3238C84.9679 96.1295 84.9679 95.8382 85.1621 95.6439L87.2261 93.5799C87.4204 93.3857 87.7118 93.3857 87.906 93.5799C88.1003 93.7742 88.1003 94.0656 87.906 94.2598L85.842 96.3238C85.7449 96.4209 85.6235 96.4695 85.5021 96.4695ZM14.1853 92.3658C14.0639 92.3658 13.9425 92.3172 13.8454 92.2201C13.6511 92.0259 13.6511 91.7345 13.8454 91.5402L15.9093 89.4762C16.1036 89.282 16.395 89.282 16.5892 89.4762C16.7835 89.6705 16.7835 89.9619 16.5892 90.1561L14.5253 92.2201C14.4524 92.3172 14.3067 92.3658 14.1853 92.3658ZM89.6058 92.3415C89.4844 92.3415 89.363 92.293 89.2658 92.1958C89.0716 92.0016 89.0716 91.7102 89.2658 91.5159L91.3298 89.4519C91.5241 89.2577 91.8155 89.2577 92.0097 89.4519C92.204 89.6462 92.204 89.9376 92.0097 90.1318L89.9457 92.1958C89.8486 92.293 89.7272 92.3415 89.6058 92.3415ZM18.3133 88.2378C18.1919 88.2378 18.0705 88.1893 17.9733 88.0921C17.7791 87.8979 17.7791 87.6065 17.9733 87.4122L20.0373 85.3482C20.2316 85.154 20.523 85.154 20.7172 85.3482C20.9115 85.5425 20.9115 85.8339 20.7172 86.0282L18.6532 88.0921C18.5561 88.1893 18.4347 88.2378 18.3133 88.2378ZM93.7337 88.2136C93.6123 88.2136 93.4909 88.165 93.3938 88.0679C93.1995 87.8736 93.1995 87.5822 93.3938 87.388L95.4578 85.324C95.652 85.1297 95.9434 85.1297 96.1377 85.324C96.3319 85.5182 96.3319 85.8096 96.1377 86.0039L94.0737 88.0679C93.9766 88.165 93.8551 88.2136 93.7337 88.2136ZM22.4412 84.1341C22.3198 84.1341 22.1984 84.0856 22.1013 83.9884C21.907 83.7942 21.907 83.5028 22.1013 83.3085L24.1653 81.2446C24.3595 81.0503 24.6509 81.0503 24.8452 81.2446C25.0394 81.4388 25.0394 81.7302 24.8452 81.9245L22.7812 83.9884C22.6841 84.0856 22.5627 84.1341 22.4412 84.1341ZM97.8374 84.0856C97.716 84.0856 97.5946 84.037 97.4975 83.9399C97.3032 83.7456 97.3032 83.4542 97.4975 83.26L99.5615 81.196C99.7557 81.0017 100.047 81.0017 100.241 81.196C100.436 81.3903 100.436 81.6816 100.241 81.8759L98.1774 83.9399C98.1045 84.0613 97.9831 84.0856 97.8374 84.0856ZM26.5449 80.0062C26.4235 80.0062 26.3021 79.9576 26.205 79.8605C26.0107 79.6662 26.0107 79.3748 26.205 79.1806L28.269 77.1166C28.4632 76.9223 28.7546 76.9223 28.9489 77.1166C29.1431 77.3108 29.1431 77.6022 28.9489 77.7965L26.8849 79.8605C26.7878 79.9576 26.6663 80.0062 26.5449 80.0062ZM101.965 79.9819C101.844 79.9819 101.723 79.9333 101.625 79.8362C101.431 79.6419 101.431 79.3505 101.625 79.1563L103.689 77.0923C103.884 76.898 104.175 76.898 104.369 77.0923C104.564 77.2866 104.564 77.5779 104.369 77.7722L102.305 79.8362C102.208 79.9333 102.087 79.9819 101.965 79.9819ZM30.6729 75.8782C30.5515 75.8782 30.4301 75.8296 30.333 75.7325C30.1387 75.5382 30.1387 75.2469 30.333 75.0526L32.3969 72.9886C32.5912 72.7944 32.8826 72.7944 33.0768 72.9886C33.2711 73.1829 33.2711 73.4743 33.0768 73.6685L31.0129 75.7325C30.9157 75.8296 30.7943 75.8782 30.6729 75.8782ZM106.093 75.8539C105.972 75.8539 105.851 75.8054 105.753 75.7082C105.559 75.514 105.559 75.2226 105.753 75.0283L107.817 72.9643C108.012 72.7701 108.303 72.7701 108.497 72.9643C108.692 73.1586 108.692 73.45 108.497 73.6442L106.433 75.7082C106.336 75.8054 106.215 75.8539 106.093 75.8539ZM34.7766 71.7502C34.6552 71.7502 34.5338 71.7017 34.4366 71.6045C34.2424 71.4103 34.2424 71.1189 34.4366 70.9246L36.5006 68.8606C36.6949 68.6664 36.9863 68.6664 37.1805 68.8606C37.3748 69.0549 37.3748 69.3463 37.1805 69.5405L35.1166 71.6045C35.0437 71.7017 34.9223 71.7502 34.7766 71.7502ZM110.197 71.7259C110.076 71.7259 109.954 71.6774 109.857 71.5802C109.663 71.386 109.663 71.0946 109.857 70.9003L111.921 68.8363C112.115 68.6421 112.407 68.6421 112.601 68.8363C112.795 69.0306 112.795 69.322 112.601 69.5163L110.537 71.5802C110.464 71.6774 110.318 71.7259 110.197 71.7259ZM38.9046 67.6222C38.7832 67.6222 38.6617 67.5737 38.5646 67.4766C38.3704 67.2823 38.3704 66.9909 38.5646 66.7966L40.6286 64.7327C40.8229 64.5384 41.1143 64.5384 41.3085 64.7327C41.5028 64.9269 41.5028 65.2183 41.3085 65.4126L39.2445 67.4766C39.1474 67.5737 39.026 67.6222 38.9046 67.6222ZM114.325 67.598C114.204 67.598 114.082 67.5494 113.985 67.4523C113.791 67.258 113.791 66.9666 113.985 66.7724L114.471 66.2867C114.932 65.8254 115.223 65.2426 115.369 64.587C115.418 64.3199 115.685 64.1499 115.928 64.1985C116.195 64.247 116.365 64.5141 116.316 64.7569C116.146 65.6068 115.758 66.3596 115.151 66.9423L114.665 67.428C114.568 67.5494 114.446 67.598 114.325 67.598ZM43.0325 63.5186C42.9111 63.5186 42.7897 63.47 42.6926 63.3729C42.4983 63.1786 42.4983 62.8872 42.6926 62.693L44.7566 60.629C44.9508 60.4347 45.2422 60.4347 45.4365 60.629C45.6307 60.8232 45.6307 61.1146 45.4365 61.3089L43.3725 63.3729C43.2754 63.47 43.1539 63.5186 43.0325 63.5186ZM115.903 62.2802C115.903 62.2802 115.879 62.2802 115.903 62.2802C115.612 62.2802 115.418 62.0616 115.418 61.7945L115.491 58.8806C115.491 58.6135 115.709 58.395 115.976 58.395C116.243 58.395 116.462 58.6135 116.438 58.8806L116.365 61.7945C116.365 62.0616 116.17 62.2802 115.903 62.2802ZM47.1362 59.3906C47.0148 59.3906 46.8934 59.342 46.7963 59.2449C46.602 59.0506 46.602 58.7592 46.7963 58.565L48.8603 56.501C49.0545 56.3067 49.3459 56.3067 49.5402 56.501C49.7344 56.6953 49.7344 56.9866 49.5402 57.1809L47.4762 59.2449C47.4033 59.342 47.2576 59.3906 47.1362 59.3906ZM116.049 56.4524C116.049 56.4524 116.025 56.4524 116.049 56.4524C115.758 56.4524 115.563 56.2339 115.563 55.9668L115.636 53.0529C115.636 52.7858 115.855 52.5673 116.122 52.5673C116.389 52.5673 116.608 52.7858 116.583 53.0529L116.51 55.9668C116.51 56.2339 116.292 56.4524 116.049 56.4524ZM51.2642 55.2626C51.1428 55.2626 51.0214 55.214 50.9242 55.1169C50.73 54.9227 50.73 54.6313 50.9242 54.437L52.9882 52.373C53.1825 52.1788 53.4739 52.1788 53.6681 52.373C53.8624 52.5673 53.8624 52.8587 53.6681 53.0529L51.6042 55.1169C51.507 55.214 51.3856 55.2626 51.2642 55.2626ZM55.3922 51.1346C55.2708 51.1346 55.1493 51.0861 55.0522 50.9889C54.858 50.7947 54.858 50.5033 55.0522 50.309L57.1162 48.245C57.3105 48.0508 57.6018 48.0508 57.7961 48.245C57.9904 48.4393 57.9904 48.7307 57.7961 48.925L55.7321 50.9889C55.635 51.0861 55.5136 51.1346 55.3922 51.1346ZM116.195 50.6247C116.17 50.6247 116.17 50.6247 116.195 50.6247C115.903 50.6247 115.709 50.4062 115.709 50.1391L115.782 47.2252C115.782 46.9581 116.001 46.7396 116.268 46.7396C116.535 46.7396 116.753 46.9581 116.729 47.2252L116.656 50.1391C116.656 50.4062 116.438 50.6247 116.195 50.6247ZM59.4959 47.0309C59.3744 47.0309 59.253 46.9824 59.1559 46.8852C58.9617 46.691 58.9617 46.3996 59.1559 46.2053L61.2199 44.1414C61.4142 43.9471 61.7055 43.9471 61.8998 44.1414C62.0941 44.3356 62.0941 44.627 61.8998 44.8213L59.8358 46.8852C59.7387 46.9824 59.6173 47.0309 59.4959 47.0309ZM116.34 44.797C116.316 44.797 116.316 44.797 116.34 44.797C116.049 44.797 115.855 44.5784 115.855 44.3113L115.928 41.3975C115.928 41.1304 116.146 40.9118 116.413 40.9118C116.413 40.9118 116.413 40.9118 116.438 40.9118C116.705 40.9118 116.923 41.1304 116.899 41.3975L116.826 44.3113C116.802 44.5784 116.583 44.797 116.34 44.797ZM63.6238 42.903C63.5024 42.903 63.381 42.8544 63.2839 42.7573C63.0896 42.563 63.0896 42.2716 63.2839 42.0774L65.3479 40.0134C65.5421 39.8191 65.8335 39.8191 66.0278 40.0134C66.222 40.2076 66.222 40.499 66.0278 40.6933L63.9638 42.7573C63.8667 42.8544 63.7452 42.903 63.6238 42.903ZM67.7275 38.775C67.6061 38.775 67.4847 38.7264 67.3876 38.6293C67.1933 38.435 67.1933 38.1437 67.3876 37.9494L69.4516 35.8854C69.6458 35.6911 69.9372 35.6911 70.1315 35.8854C70.3257 36.0797 70.3257 36.3711 70.1315 36.5653L68.0675 38.6293C67.9946 38.7264 67.8732 38.775 67.7275 38.775ZM71.8555 34.647C71.7341 34.647 71.6127 34.5985 71.5155 34.5013C71.3213 34.3071 71.3213 34.0157 71.5155 33.8214L73.5795 31.7574C73.7738 31.5632 74.0652 31.5632 74.2594 31.7574C74.4537 31.9517 74.4537 32.2431 74.2594 32.4373L72.1955 34.5013C72.0983 34.5985 71.9769 34.647 71.8555 34.647ZM75.9835 30.519C75.8621 30.519 75.7406 30.4705 75.6435 30.3734C75.4493 30.1791 75.4493 29.8877 75.6435 29.6934L76.7362 28.6007C77.1004 28.2365 77.5375 27.9451 77.9989 27.7266C78.2417 27.6295 78.5331 27.7266 78.6302 27.9694C78.7274 28.2122 78.6302 28.5036 78.3874 28.6007C78.0232 28.7707 77.6832 28.9893 77.4161 29.2807L76.3234 30.3734C76.2263 30.4705 76.1049 30.519 75.9835 30.519ZM81.0584 28.3579C80.7913 28.3579 80.5728 28.1394 80.5728 27.8966C80.5728 27.6295 80.7671 27.4109 81.0342 27.3866L83.948 27.3138C84.2151 27.3138 84.4337 27.508 84.458 27.7752C84.458 28.0423 84.2637 28.2608 83.9966 28.2851L81.0584 28.3579ZM86.8862 28.2122C86.6191 28.2122 86.4005 27.9937 86.4005 27.7509C86.4005 27.4838 86.5948 27.2652 86.8619 27.2409L89.7757 27.1681C90.0429 27.1681 90.2614 27.3624 90.2857 27.6295C90.2857 27.8966 90.0914 28.1151 89.8243 28.1394L86.8862 28.2122ZM92.7139 28.0665C92.4468 28.0665 92.2283 27.848 92.2283 27.6052C92.2283 27.3381 92.4225 27.1195 92.6896 27.0953L95.6035 27.0224C95.8706 26.9981 96.0891 27.2167 96.1134 27.4838C96.1134 27.7509 95.9191 27.9694 95.652 27.9937L92.7139 28.0665ZM98.5416 27.8966C98.2745 27.8966 98.056 27.678 98.056 27.4352C98.056 27.1681 98.2502 26.9496 98.5173 26.9253L101.431 26.8524C101.698 26.8281 101.917 27.0467 101.941 27.3138C101.941 27.5809 101.747 27.7994 101.48 27.8237L98.5416 27.8966Z" fill="#EFF3FC"/>
<path d="M167.794 0.72469C168.158 1.23462 168.11 1.98736 167.891 2.54585C167.017 4.75553 163.958 5.79966 161.942 6.50384C146.814 11.7002 129.962 8.51927 115.053 14.517C111.192 16.071 107.064 18.2807 105.243 22.2144C103.155 26.7309 105.389 31.1745 109.493 33.5056C109.784 33.6756 110.731 33.19 110.61 33.1171C106.7 30.8832 104.418 26.7066 106.263 22.3358C108.036 18.135 112.431 15.8525 116.486 14.3713C124.985 11.2389 134.236 11.1903 143.123 10.3161C149.655 9.66053 156.43 8.8835 162.671 6.64954C164.807 5.89679 167.721 4.8041 168.863 2.66726C169.202 2.03593 169.397 1.08892 168.935 0.4333C168.765 0.117632 167.721 0.603279 167.794 0.72469Z" fill="#56627F"/>
</svg>
