<svg width="44" height="44" viewBox="0 0 44 44" fill="none" xmlns="http://www.w3.org/2000/svg">
<circle cx="22" cy="22" r="22" fill="#4489F2"/>
<path d="M21.0835 13.75L29.3327 14.9292L30.511 23.1792L22.851 30.8392C22.6948 30.9954 22.4828 31.0832 22.2619 31.0832C22.0409 31.0832 21.829 30.9954 21.6727 30.8392L13.4227 22.5892C13.2665 22.4329 13.1787 22.221 13.1787 22C13.1787 21.779 13.2665 21.5671 13.4227 21.4108L21.0835 13.75ZM23.4402 20.8217C23.595 20.9764 23.7788 21.0991 23.981 21.1829C24.1832 21.2666 24.4 21.3097 24.6188 21.3096C24.8377 21.3096 25.0544 21.2664 25.2566 21.1826C25.4588 21.0988 25.6425 20.976 25.7973 20.8213C25.952 20.6665 26.0748 20.4827 26.1585 20.2805C26.2422 20.0782 26.2853 19.8615 26.2852 19.6426C26.2852 19.4237 26.2421 19.207 26.1583 19.0048C26.0745 18.8026 25.9517 18.6189 25.7969 18.4642C25.6421 18.3094 25.4583 18.1867 25.2561 18.103C25.0539 18.0192 24.8371 17.9762 24.6182 17.9762C24.1762 17.9763 23.7523 18.152 23.4398 18.4646C23.1273 18.7772 22.9517 19.2012 22.9518 19.6432C22.9519 20.0853 23.1276 20.5092 23.4402 20.8217Z" fill="white"/>
</svg>
