<svg width="17" height="17" viewBox="0 0 17 17" fill="none" xmlns="http://www.w3.org/2000/svg">
<path d="M1.83317 6.50007H3.83317V14.5001H1.83317C1.65636 14.5001 1.48679 14.4298 1.36177 14.3048C1.23674 14.1798 1.1665 14.0102 1.1665 13.8334V7.16674C1.1665 6.98993 1.23674 6.82036 1.36177 6.69534C1.48679 6.57031 1.65636 6.50007 1.83317 6.50007ZM5.36184 5.63807L9.6285 1.37141C9.68521 1.31454 9.76055 1.28005 9.84065 1.2743C9.92076 1.26854 10.0002 1.2919 10.0645 1.34007L10.6332 1.76674C10.7911 1.8853 10.9104 2.04798 10.976 2.23424C11.0416 2.42051 11.0506 2.62204 11.0018 2.81341L10.2332 5.83341H14.4998C14.8535 5.83341 15.1926 5.97388 15.4426 6.22393C15.6927 6.47398 15.8332 6.81312 15.8332 7.16674V8.56941C15.8334 8.74365 15.7994 8.91624 15.7332 9.07741L13.6698 14.0874C13.6195 14.2096 13.534 14.314 13.4242 14.3875C13.3144 14.4609 13.1853 14.5001 13.0532 14.5001H5.83317C5.65636 14.5001 5.48679 14.4298 5.36177 14.3048C5.23674 14.1798 5.1665 14.0102 5.1665 13.8334V6.10941C5.16654 5.93261 5.2368 5.76307 5.36184 5.63807Z" fill="#B4C0D4"/>
</svg>
