<svg width="16" height="16" viewBox="0 0 16 16" fill="none" xmlns="http://www.w3.org/2000/svg">
<path d="M1.33341 6.00007H3.33341V14.0001H1.33341C1.1566 14.0001 0.987034 13.9298 0.86201 13.8048C0.736986 13.6798 0.666748 13.5102 0.666748 13.3334V6.66674C0.666748 6.48993 0.736986 6.32036 0.86201 6.19534C0.987034 6.07031 1.1566 6.00007 1.33341 6.00007ZM4.86208 5.13807L9.12875 0.871408C9.18546 0.814537 9.26079 0.780052 9.34089 0.774295C9.421 0.768539 9.50049 0.791897 9.56475 0.840074L10.1334 1.26674C10.2913 1.3853 10.4106 1.54798 10.4763 1.73424C10.5419 1.92051 10.5508 2.12204 10.5021 2.31341L9.73342 5.33341H14.0001C14.3537 5.33341 14.6928 5.47388 14.9429 5.72393C15.1929 5.97398 15.3334 6.31312 15.3334 6.66674V8.06941C15.3336 8.24365 15.2996 8.41624 15.2334 8.57741L13.1701 13.5874C13.1197 13.7096 13.0343 13.814 12.9245 13.8875C12.8147 13.9609 12.6855 14.0001 12.5534 14.0001H5.33342C5.1566 14.0001 4.98703 13.9298 4.86201 13.8048C4.73699 13.6798 4.66675 13.5102 4.66675 13.3334V5.60941C4.66679 5.43261 4.73705 5.26307 4.86208 5.13807Z" fill="#B4C0D4"/>
</svg>
