<svg width="28" height="28" viewBox="0 0 28 28" fill="none" xmlns="http://www.w3.org/2000/svg">
<path d="M19.8333 2.33333H23.3333C23.6428 2.33333 23.9395 2.45625 24.1583 2.67504C24.3771 2.89383 24.5 3.19058 24.5 3.5V24.5C24.5 24.8094 24.3771 25.1062 24.1583 25.325C23.9395 25.5438 23.6428 25.6667 23.3333 25.6667H4.66667C4.35725 25.6667 4.0605 25.5438 3.84171 25.325C3.62292 25.1062 3.5 24.8094 3.5 24.5V3.5C3.5 3.19058 3.62292 2.89383 3.84171 2.67504C4.0605 2.45625 4.35725 2.33333 4.66667 2.33333H8.16667V0H10.5V2.33333H17.5V0H19.8333V2.33333ZM19.8333 4.66667V7H17.5V4.66667H10.5V7H8.16667V4.66667H5.83333V23.3333H22.1667V4.66667H19.8333ZM8.16667 9.33333H19.8333V11.6667H8.16667V9.33333ZM8.16667 14H19.8333V16.3333H8.16667V14Z" fill="#56ACD8"/>
</svg>
