<svg width="64" height="64" viewBox="0 0 64 64" fill="none" xmlns="http://www.w3.org/2000/svg">
<path d="M50.5502 52.8C46.8502 46.35 39.9502 42 32.0002 42C24.0502 42 17.1502 46.35 13.4502 52.8L13.5002 54.5H50.5002L50.5502 52.8Z" fill="white"/>
<path d="M32 35C37.5228 35 42 30.5228 42 25C42 19.4772 37.5228 15 32 15C26.4772 15 22 19.4772 22 25C22 30.5228 26.4772 35 32 35Z" fill="white"/>
<path d="M32 36.5C25.65 36.5 20.5 31.35 20.5 25C20.5 18.65 25.65 13.5 32 13.5C38.35 13.5 43.5 18.65 43.5 25C43.5 31.35 38.35 36.5 32 36.5ZM32 16.5C27.3 16.5 23.5 20.3 23.5 25C23.5 29.7 27.3 33.5 32 33.5C36.7 33.5 40.5 29.7 40.5 25C40.5 20.3 36.7 16.5 32 16.5Z" fill="#B4C0D4"/>
<path d="M13.4499 54.3C13.1999 54.3 12.9499 54.25 12.6999 54.1C11.9999 53.7 11.7499 52.8 12.1499 52.05C16.1999 44.95 23.7999 40.5 31.9999 40.5C40.1999 40.5 47.7999 44.95 51.8499 52.05C52.2499 52.75 51.9999 53.7 51.2999 54.1C50.5999 54.5 49.6499 54.25 49.2499 53.55C45.6999 47.35 39.0999 43.5 31.9999 43.5C24.8999 43.5 18.2999 47.35 14.7499 53.55C14.4999 54 13.9999 54.3 13.4499 54.3Z" fill="#B4C0D4"/>
</svg>
