<svg width="16" height="16" viewBox="0 0 16 16" fill="none" xmlns="http://www.w3.org/2000/svg">
<path d="M8.00003 11.333C10.4414 11.333 12.5767 12.383 13.738 13.9497L12.51 14.5303C11.5647 13.4103 9.89803 12.6663 8.00003 12.6663C6.10203 12.6663 4.43536 13.4103 3.49003 14.5303L2.2627 13.949C3.42403 12.3823 5.5587 11.333 8.00003 11.333ZM8.00003 1.33301C8.88408 1.33301 9.73193 1.6842 10.3571 2.30932C10.9822 2.93444 11.3334 3.78229 11.3334 4.66634V6.66634C11.3334 7.5504 10.9822 8.39824 10.3571 9.02336C9.73193 9.64849 8.88408 9.99967 8.00003 9.99967C7.11597 9.99967 6.26813 9.64849 5.64301 9.02336C5.01788 8.39824 4.6667 7.5504 4.6667 6.66634V4.66634C4.6667 3.78229 5.01788 2.93444 5.64301 2.30932C6.26813 1.6842 7.11597 1.33301 8.00003 1.33301Z" fill="white"/>
</svg>
