<svg width="43" height="40" viewBox="0 0 43 40" fill="none" xmlns="http://www.w3.org/2000/svg">
<g clip-path="url(#clip0)">
<path d="M0 20C0 8.95431 8.95431 0 20 0H45V40H20C8.9543 40 0 31.0457 0 20Z" fill="#C4CFE1"/>
<g filter="url(#filter0_d)">
<path d="M22 10C27.52 10 32 14.48 32 20C32 25.52 27.52 30 22 30C16.48 30 12 25.52 12 20C12 14.48 16.48 10 22 10ZM16.023 23.416C17.491 25.606 19.695 27 22.16 27C24.624 27 26.829 25.607 28.296 23.416C26.6317 21.8606 24.4379 20.9968 22.16 21C19.8817 20.9966 17.6875 21.8604 16.023 23.416ZM22 19C22.7956 19 23.5587 18.6839 24.1213 18.1213C24.6839 17.5587 25 16.7956 25 16C25 15.2044 24.6839 14.4413 24.1213 13.8787C23.5587 13.3161 22.7956 13 22 13C21.2044 13 20.4413 13.3161 19.8787 13.8787C19.3161 14.4413 19 15.2044 19 16C19 16.7956 19.3161 17.5587 19.8787 18.1213C20.4413 18.6839 21.2044 19 22 19Z" fill="white"/>
</g>
</g>
<defs>
<filter id="filter0_d" x="11" y="10" width="22" height="22" filterUnits="userSpaceOnUse" color-interpolation-filters="sRGB">
<feFlood flood-opacity="0" result="BackgroundImageFix"/>
<feColorMatrix in="SourceAlpha" type="matrix" values="0 0 0 0 0 0 0 0 0 0 0 0 0 0 0 0 0 0 127 0"/>
<feOffset dy="1"/>
<feGaussianBlur stdDeviation="0.5"/>
<feColorMatrix type="matrix" values="0 0 0 0 0 0 0 0 0 0.153 0 0 0 0 0.45 0 0 0 0.05 0"/>
<feBlend mode="normal" in2="BackgroundImageFix" result="effect1_dropShadow"/>
<feBlend mode="normal" in="SourceGraphic" in2="effect1_dropShadow" result="shape"/>
</filter>
<clipPath id="clip0">
<rect width="43" height="40" fill="white"/>
</clipPath>
</defs>
</svg>
