<svg width="28" height="28" viewBox="0 0 28 28" fill="none" xmlns="http://www.w3.org/2000/svg">
<circle cx="14" cy="14" r="14" fill="#F4AF5E"/>
<circle cx="14" cy="14" r="13.5" stroke="black" stroke-opacity="0.05"/>
<path d="M8.82613 11.2709L13.7298 8.33094C13.8123 8.28149 13.9066 8.25537 14.0027 8.25537C14.0988 8.25537 14.1931 8.28149 14.2755 8.33094L19.1745 11.2715C19.2138 11.295 19.2463 11.3284 19.2689 11.3682C19.2915 11.4081 19.3033 11.4532 19.3033 11.499V18.2423C19.3033 18.383 19.2475 18.5178 19.148 18.6173C19.0486 18.7167 18.9137 18.7726 18.773 18.7726H9.22757C9.08692 18.7726 8.95204 18.7167 8.85259 18.6173C8.75314 18.5178 8.69727 18.383 8.69727 18.2423V11.4984C8.69726 11.4526 8.70912 11.4076 8.73171 11.3677C8.75429 11.3278 8.78682 11.2945 8.82613 11.2709ZM17.3656 12.0081L14.0326 14.8924L10.6313 12.0049L9.94507 12.8131L14.039 16.2892L18.0592 12.8104L17.3656 12.0081Z" fill="white"/>
</svg>
