<svg width="28" height="28" viewBox="0 0 28 28" fill="none" xmlns="http://www.w3.org/2000/svg">
<circle cx="14" cy="14" r="14" fill="#60BC94"/>
<circle cx="14" cy="14" r="13.5" stroke="black" stroke-opacity="0.05"/>
<path fill-rule="evenodd" clip-rule="evenodd" d="M14.0003 19.3028C11.0714 19.3028 8.69727 16.9287 8.69727 13.9998C8.69727 11.0709 11.0714 8.69678 14.0003 8.69678C16.9292 8.69678 19.3033 11.0709 19.3033 13.9998C19.3033 16.9287 16.9292 19.3028 14.0003 19.3028ZM14.1786 15.4139C13.788 15.8045 13.1548 15.8045 12.7643 15.4139L11.5963 14.2459C11.3892 14.0389 11.3892 13.7032 11.5963 13.4961C11.8034 13.289 12.1391 13.289 12.3462 13.4961L12.7643 13.9142C13.1548 14.3048 13.7881 14.3047 14.1786 13.9142L16.0959 11.9965C16.303 11.7894 16.6387 11.7893 16.8458 11.9964C17.0529 12.2035 17.0529 12.5392 16.8458 12.7462L14.1786 15.4139Z" fill="white"/>
</svg>
