<svg width="14" height="14" viewBox="0 0 14 14" fill="none" xmlns="http://www.w3.org/2000/svg">
<path d="M1.75008 1.75H12.2501C12.4048 1.75 12.5532 1.81146 12.6626 1.92085C12.772 2.03025 12.8334 2.17862 12.8334 2.33333V11.6667C12.8334 11.8214 12.772 11.9697 12.6626 12.0791C12.5532 12.1885 12.4048 12.25 12.2501 12.25H1.75008C1.59537 12.25 1.447 12.1885 1.3376 12.0791C1.22821 11.9697 1.16675 11.8214 1.16675 11.6667V2.33333C1.16675 2.17862 1.22821 2.03025 1.3376 1.92085C1.447 1.81146 1.59537 1.75 1.75008 1.75ZM11.6667 5.83333H2.33341V11.0833H11.6667V5.83333ZM2.91675 3.5V4.66667H4.08342V3.5H2.91675ZM5.25008 3.5V4.66667H6.41675V3.5H5.25008Z" fill="white"/>
</svg>
