<svg width="16" height="17" viewBox="0 0 16 17" fill="none" xmlns="http://www.w3.org/2000/svg">
<path d="M11.7689 5.15605C11.7689 5.15605 11.6408 4.93617 11.3748 4.91435C11.0816 4.88936 10.9009 5.24301 10.9009 5.24301L9.15187 7.98602C9.15187 7.98602 8.99717 8.25892 9.1435 8.50581C9.3024 8.77409 9.74026 8.69579 9.74026 8.69579L12.8357 7.79431C12.8357 7.79431 13.2576 7.62326 13.3179 7.39558C13.3769 7.16747 13.2482 6.8924 13.2482 6.8924L11.7689 5.15605Z" fill="#B4C0D4"/>
<path d="M7.76897 7.41096C8.13352 7.32168 8.19139 6.79394 8.19139 6.79394L8.16657 2.40213C8.16657 2.40213 8.11158 1.86066 7.86739 1.71374C7.48423 1.48201 7.37079 1.60308 7.26097 1.61897L4.69095 2.57086C4.69095 2.57086 4.43911 2.65379 4.30822 2.86283C4.12103 3.15971 4.49828 3.59384 4.49828 3.59384L7.16976 7.22214C7.16976 7.22214 7.43328 7.49345 7.76897 7.41096Z" fill="#B4C0D4"/>
<path d="M2.77503 9.78344C2.77503 9.78344 2.74819 10.166 2.84748 10.3398C2.98848 10.5865 3.45203 10.4148 3.45203 10.4148L6.67682 9.70442C6.80209 9.62034 7.02189 9.61282 7.03401 9.16483C7.04325 8.82634 6.62588 8.62279 6.62588 8.62279L3.86348 7.23214C3.86348 7.23214 3.45405 7.06384 3.25518 7.18129C3.10307 7.27101 2.96813 7.43281 2.955 7.57641L2.77503 9.78344Z" fill="#B4C0D4"/>
<path d="M7.9779 10.5181C7.70096 10.3764 7.3696 10.6701 7.3696 10.6701L5.21031 13.0389C5.21031 13.0389 4.94101 13.4008 5.00942 13.6235C5.07393 13.8318 5.18087 13.9357 5.33197 14.0088L7.50064 14.6908C7.50064 14.6908 7.76345 14.7451 7.9626 14.6876C8.24532 14.6063 8.19308 14.1651 8.19308 14.1651L8.24215 10.9578C8.24215 10.9578 8.23118 10.6487 7.9779 10.5181Z" fill="#B4C0D4"/>
<path d="M12.7971 10.7456L9.69469 9.75286C9.6944 9.75286 9.39061 9.67268 9.18813 9.87638C8.9679 10.0973 9.15407 10.5 9.15407 10.5L10.8117 13.2582C10.8117 13.2582 11.0839 13.6217 11.3199 13.6217C11.5565 13.6217 11.7906 13.428 11.7906 13.428L13.101 11.5612C13.101 11.5612 13.2331 11.3258 13.2361 11.1195C13.2409 10.8263 12.7971 10.7456 12.7971 10.7456Z" fill="#B4C0D4"/>
</svg>
