<svg width="48" height="48" viewBox="0 0 48 48" fill="none" xmlns="http://www.w3.org/2000/svg">
<path d="M48 40C48 41.105 47.105 42 46 42H2C0.895 42 0 41.105 0 40V8C0 6.895 0.895 6 2 6H46C47.105 6 48 6.895 48 8V40Z" fill="#CE2029"/>
<path d="M21.4901 35.383C21.6461 35.756 22.0101 36 22.4141 36H25.5861C25.9901 36 26.3541 35.756 26.5101 35.383C26.6641 35.009 26.5791 34.579 26.2931 34.293L24.0001 32L21.7071 34.293C21.4211 34.579 21.3361 35.009 21.4901 35.383Z" fill="black"/>
<path d="M26 18V16C26 14.896 26.896 14 28 14C29.104 14 30 13.104 30 12H26C24.896 12 24 12.896 24 14C24 12.896 23.104 12 22 12H18C18 13.104 18.896 14 20 14C21.104 14 22 14.896 22 16V18H10C10 19.105 10.896 20 12 20H22V22H12C12 23.105 12.896 24 14 24H22V26H14C14 27.104 14.896 28 16 28H22V30H16C16 31.105 16.896 32 18 32H22H24H26H30C31.104 32 32 31.105 32 30H26V28H32C33.104 28 34 27.104 34 26H26V24H34C35.104 24 36 23.105 36 22H26V20H36C37.104 20 38 19.105 38 18H26Z" fill="black"/>
</svg>
