<svg width="48" height="48" viewBox="0 0 48 48" fill="none" xmlns="http://www.w3.org/2000/svg">
<path d="M24 42H2C0.895 42 0 41.105 0 40V8C0 6.895 0.895 6 2 6H24V42Z" fill="#0C7439"/>
<path d="M48 6H24V42H48V6Z" fill="#E6E6E6"/>
<path d="M31.1989 22.665L29.9709 20L28.7409 22.665H25.9409L27.9879 24.782L27.2049 27.959L29.9709 26.388L32.7369 27.959L31.9539 24.782L33.9999 22.665H31.1989Z" fill="#BD283B"/>
<path d="M28 32C23.582 32 20 28.418 20 24C20 19.582 23.582 16 28 16C28.864 16 29.682 16.172 30.461 16.426C28.715 14.935 26.477 14 24 14C18.478 14 14 18.478 14 24C14 29.522 18.478 34 24 34C26.477 34 28.715 33.065 30.462 31.574C29.682 31.827 28.864 32 28 32Z" fill="#BD283B"/>
</svg>
