<svg width="48" height="48" viewBox="0 0 48 48" fill="none" xmlns="http://www.w3.org/2000/svg">
<path d="M48 40C48 41.105 47.105 42 46 42H2C0.895 42 0 41.105 0 40V24H48V40Z" fill="#3C3C3C"/>
<path d="M48 24H0V8C0 6.895 0.895 6 2 6H46C47.105 6 48 6.895 48 8V24Z" fill="#D21E29"/>
<path d="M36.0001 36.3569L27.1351 28.0999C27.6321 27.6979 28.1091 27.2579 28.5411 26.7579C30.4611 24.5329 31.4011 21.6959 31.1871 18.7659C30.9731 15.8339 29.6301 13.1639 27.4061 11.2429L26.0991 12.7589C27.9181 14.3289 29.0171 16.5149 29.1931 18.9109C29.3681 21.3089 28.5991 23.6319 27.0281 25.4499C26.6111 25.9319 26.1511 26.3559 25.6621 26.7289L18.4381 19.9999L17.0751 21.4629L23.8471 27.7699C20.7661 29.1269 17.0491 28.7229 14.3341 26.3789L13.0271 27.8949C15.1021 29.6859 17.6611 30.5629 20.2091 30.5629C22.0151 30.5629 23.8091 30.1099 25.4261 29.2409L34.6381 37.8209L36.0001 36.3569Z" fill="#FFFF00"/>
<path d="M24.256 12.648H21.348L20.128 10L18.906 12.648H16L18.124 14.841L17.338 18.03L20.128 16.446L22.918 18.03L22.132 14.841L24.256 12.648Z" fill="#FFFF00"/>
</svg>
