<svg width="48" height="48" viewBox="0 0 48 48" fill="none" xmlns="http://www.w3.org/2000/svg">
<path d="M20 22H0V8C0 6.895 0.895 6 2 6H20V22Z" fill="#E6E6E6"/>
<path d="M46 6H20V22H0V40C0 41.105 0.895 42 2 42H46C47.105 42 48 41.105 48 40V24V8C48 6.895 47.105 6 46 6Z" fill="#0402FB"/>
<path d="M20 12H15.377L19.068 9.266L17.879 7.66L12.018 12H12V6H8V11.365L2.996 7.66L1.807 9.266L5.498 12H0V16H6.617L1.807 19.563L2.996 21.17L8 17.465V22H12V16.816L17.879 21.17L19.068 19.563L14.258 16H20V12Z" fill="#FF0000"/>
<path d="M28.828 18.344L29.752 20.941L32.242 19.758L31.059 22.248L33.656 23.172L31.059 24.096L32.242 26.586L29.752 25.402L28.828 28L27.904 25.402L25.414 26.586L26.598 24.096L24 23.172L26.598 22.248L25.414 19.758L27.904 20.941L28.828 18.344Z" fill="white"/>
<path d="M40.828 14L41.369 15.521L42.83 14.828L42.135 16.287L43.656 16.828L42.135 17.369L42.83 18.828L41.369 18.135L40.828 19.656L40.287 18.135L38.828 18.828L39.521 17.369L38 16.828L39.521 16.287L38.828 14.828L40.287 15.521L40.828 14Z" fill="white"/>
<path d="M18.0001 31.1721L18.5411 32.6931L20.0001 32.0001L19.3071 33.4591L20.8281 34.0001L19.3071 34.5411L20.0001 36.0001L18.5411 35.3071L18.0001 36.8281L17.4591 35.3071L16.0001 36.0001L16.6931 34.5411L15.1721 34.0001L16.6931 33.4591L16.0001 32.0001L17.4591 32.6931L18.0001 31.1721Z" fill="white"/>
<path d="M34.828 32L35.369 33.521L36.83 32.828L36.135 34.287L37.656 34.828L36.135 35.369L36.83 36.828L35.369 36.135L34.828 37.656L34.287 36.135L32.828 36.828L33.521 35.369L32 34.828L33.521 34.287L32.828 32.828L34.287 33.521L34.828 32Z" fill="white"/>
</svg>
