<svg width="48" height="48" viewBox="0 0 48 48" fill="none" xmlns="http://www.w3.org/2000/svg">
<path d="M48 18H0V8C0 6.895 0.895 6 2 6H46C47.105 6 48 6.895 48 8V18Z" fill="#1799C1"/>
<path d="M48 18H0V30H48V18Z" fill="#DD0C39"/>
<path d="M48 40C48 41.105 47.105 42 46 42H2C0.895 42 0 41.105 0 40V30H48V40Z" fill="#19AD67"/>
<path d="M26 28C23.791 28 22 26.209 22 24C22 21.791 23.791 20 26 20C26.165 20 26.322 20.029 26.482 20.049C25.384 18.803 23.793 18 22 18C18.687 18 16 20.688 16 24C16 27.313 18.687 30 22 30C23.793 30 25.384 29.197 26.482 27.951C26.322 27.971 26.165 28 26 28Z" fill="white"/>
<path d="M31.357 22.643L31.235 23.721L32 24.482L31.084 25.059L30.964 26.133L29.941 25.777L29.025 26.354L28.669 25.33L27.647 24.973L28.224 24.059L27.865 23.037L28.94 22.914L29.517 22L30.281 22.766L31.357 22.643Z" fill="white"/>
</svg>
