<svg width="48" height="48" viewBox="0 0 48 48" fill="none" xmlns="http://www.w3.org/2000/svg">
<path d="M48 40C48 41.105 47.105 42 46 42H2C0.895 42 0 41.105 0 40V38H48V40Z" fill="#D1142A"/>
<path d="M48 10H0V38H48V10Z" fill="#033E8A"/>
<path d="M48 10H0V8C0 6.895 0.895 6 2 6H46C47.105 6 48 6.895 48 8V10Z" fill="#D1142A"/>
<path d="M24 32C28.4183 32 32 28.4183 32 24C32 19.5817 28.4183 16 24 16C19.5817 16 16 19.5817 16 24C16 28.4183 19.5817 32 24 32Z" fill="white"/>
<path d="M24 20C24.5523 20 25 19.5523 25 19C25 18.4477 24.5523 18 24 18C23.4477 18 23 18.4477 23 19C23 19.5523 23.4477 20 24 20Z" fill="#7AC943"/>
<path d="M24 30C24.5523 30 25 29.5523 25 29C25 28.4477 24.5523 28 24 28C23.4477 28 23 28.4477 23 29C23 29.5523 23.4477 30 24 30Z" fill="#7AC943"/>
<path d="M28.1927 21.0974C28.5766 20.6995 28.5655 20.0661 28.168 19.6827C27.7706 19.2992 27.1372 19.3109 26.7533 19.7088C26.3695 20.1067 26.3806 20.74 26.778 21.1235C27.1755 21.507 27.8089 21.4953 28.1927 21.0974Z" fill="#7AC943"/>
<path d="M21.2455 28.2935C21.6295 27.8966 21.619 27.2635 21.2221 26.8795C20.8252 26.4955 20.1921 26.506 19.8081 26.9029C19.4241 27.2998 19.4346 27.9329 19.8315 28.3169C20.2284 28.7009 20.8615 28.6904 21.2455 28.2935Z" fill="#7AC943"/>
<path d="M29.0315 24.8245C29.5839 24.8046 30.0156 24.341 29.9957 23.7891C29.9757 23.2372 29.5117 22.806 28.9593 22.8259C28.4068 22.8459 27.9751 23.3095 27.9951 23.8614C28.015 24.4133 28.479 24.8445 29.0315 24.8245Z" fill="#7AC943"/>
<path d="M19.0366 25.1763C19.5886 25.1574 20.0207 24.6942 20.0018 24.1417C19.9829 23.5892 19.5201 23.1566 18.9682 23.1755C18.4162 23.1944 17.9841 23.6576 18.003 24.2101C18.0219 24.7626 18.4847 25.1952 19.0366 25.1763Z" fill="#7AC943"/>
<path d="M28.4586 28.0162C28.8283 27.606 28.7952 26.9734 28.3845 26.6033C27.9739 26.2331 27.3413 26.2657 26.9715 26.6759C26.6017 27.0861 26.6349 27.7187 27.0455 28.0889C27.4562 28.459 28.0888 28.4265 28.4586 28.0162Z" fill="#7AC943"/>
<path d="M21.0246 21.3241C21.3948 20.9135 21.3626 20.2811 20.9528 19.9117C20.5429 19.5423 19.9107 19.5758 19.5405 19.9864C19.1704 20.3971 19.2026 21.0294 19.6124 21.3988C20.0222 21.7682 20.6545 21.7347 21.0246 21.3241Z" fill="#7AC943"/>
<path d="M26 22H22V26H26V22Z" fill="#B5B994"/>
</svg>
