<svg width="48" height="48" viewBox="0 0 48 48" fill="none" xmlns="http://www.w3.org/2000/svg">
<path d="M32 6H16V42H32V6Z" fill="#E6E6E6"/>
<path d="M48 40C48 41.105 47.105 42 46 42H32V6H46C47.105 6 48 6.895 48 8V40Z" fill="#FE0000"/>
<path d="M16 42H2C0.895 42 0 41.105 0 40V8C0 6.895 0.895 6 2 6H16V42Z" fill="#FE0000"/>
<path fill-rule="evenodd" clip-rule="evenodd" d="M24.875 30.688C24.875 30.688 24.439 27.354 24.659 27.389C26.499 27.674 27.366 27.807 27.366 27.807C26.412 26.005 28.809 25.133 30.041 24.085C29.086 23.762 29.216 23.88 29.831 21.587C27.837 22.22 28 22.035 27.577 21.046C27.577 21.046 27.422 21.223 26.174 22.632C25.996 22.833 25.698 22.699 25.76 22.392C26.41 19.177 26.443 19.046 26.443 19.046C25.177 19.81 25.224 19.854 25.024 19.459C24.329 18.104 24 17.438 24 17.438C24 17.438 23.671 18.105 22.976 19.458C22.775 19.852 22.822 19.809 21.556 19.045C21.556 19.045 21.588 19.176 22.239 22.391C22.302 22.698 22.003 22.833 21.825 22.631C20.577 21.222 20.423 21.045 20.423 21.045C19.999 22.035 20.164 22.219 18.169 21.586C18.784 23.879 18.914 23.761 17.959 24.084C19.192 25.132 21.589 26.004 20.634 27.806C20.634 27.806 21.501 27.673 23.341 27.388C23.561 27.353 23.188 30.75 23.188 30.75L24.875 30.688Z" fill="#FE0000"/>
</svg>
