<svg width="48" height="48" viewBox="0 0 48 48" fill="none" xmlns="http://www.w3.org/2000/svg">
<path d="M48 40C48 41.105 47.105 42 46 42H2C0.895 42 0 41.105 0 40V34H48V40Z" fill="#2E3094"/>
<path d="M48 32H0V34H48V32Z" fill="white"/>
<path d="M48 30H0V32H48V30Z" fill="#D1142A"/>
<path d="M48 28H0V30H48V28Z" fill="white"/>
<path d="M48 28H0V8C0 6.895 0.895 6 2 6H46C47.105 6 48 6.895 48 8V28Z" fill="#2E3094"/>
<path d="M16.145 21.299H14.684L14.073 19.969L13.46 21.299H12L13.066 22.399L12.672 24L14.072 23.205L15.472 24L15.078 22.398L16.145 21.299Z" fill="#E8D313"/>
<path d="M16.145 35.33H14.684L14.072 34L13.459 35.33H12L13.066 36.43L12.671 38.032L14.071 37.237L15.471 38.032L15.077 36.43L16.145 35.33Z" fill="#E8D313"/>
<path d="M20.9121 24.9L19.8611 23.884L20.3471 22.501L18.9801 23.032L17.9291 22.02L17.9331 23.551L16.5381 24.43L18.0971 24.828L18.5521 26.375L19.3801 24.947L20.9121 24.9Z" fill="#E8D313"/>
<path d="M11.166 34.9921L10.115 33.9781L10.599 32.5951L9.23404 33.1261L8.18304 32.1121L8.18704 33.6431L6.79004 34.5221L8.35104 34.9221L8.80404 36.4671L9.63204 35.0391L11.166 34.9921Z" fill="#E8D313"/>
<path d="M21.84 30.8029L21.789 29.3419L23.102 28.6859L21.748 28.1179L21.695 26.6589L20.632 27.7639L19.019 27.4279L19.865 28.7949L19.117 30.2249L20.705 29.7739L21.84 30.8029Z" fill="#E8D313"/>
<path d="M7.82012 31.2909L7.76712 29.8319L9.07812 29.1739L7.72612 28.6079L7.67312 27.1489L6.61212 28.2529L4.99512 27.9169L5.84312 29.2879L5.09312 30.7139L6.68112 30.2629L7.82012 31.2909Z" fill="#E8D313"/>
<path d="M18.4061 35.6929L19.3871 34.6049L20.7851 35.0449L20.2071 33.6969L21.1841 32.6109L19.6511 32.6679L18.7231 31.3069L18.3831 32.8769L16.8521 33.3849L18.3051 34.1619L18.4061 35.6929Z" fill="#E8D313"/>
<path d="M7.98407 26.305L8.95907 25.219L10.3591 25.654L9.78107 24.31L10.7541 23.224L9.22707 23.279L8.29707 21.916L7.95307 23.49L6.42407 23.994L7.87907 24.773L7.98407 26.305Z" fill="#E8D313"/>
</svg>
