<svg width="48" height="48" viewBox="0 0 48 48" fill="none" xmlns="http://www.w3.org/2000/svg">
<path d="M20 42H2C0.895 42 0 41.105 0 40V34H20V42Z" fill="#FCCE07"/>
<path d="M20 24H0V34H20V24Z" fill="#289941"/>
<path d="M20 14H0V24H20V14Z" fill="#E6E6E6"/>
<path d="M20 14H0V8C0 6.895 0.895 6 2 6H20V14Z" fill="#283B7F"/>
<path d="M28 42H46C47.105 42 48 41.105 48 40V34H28V42Z" fill="#FCCE07"/>
<path d="M48 24H28V34H48V24Z" fill="#289941"/>
<path d="M48 14H28V24H48V14Z" fill="#E6E6E6"/>
<path d="M28 14H48V8C48 6.895 47.105 6 46 6H28V14Z" fill="#283B7F"/>
<path d="M28 6H20V42H28V6Z" fill="#D51F36"/>
<path d="M7.99998 9.33H6.53998L5.92798 8L5.31398 9.33H3.85498L4.92098 10.43L4.52698 12.032L5.92698 11.237L7.32698 12.032L6.93398 10.43L7.99998 9.33Z" fill="#F6D031"/>
</svg>
