<svg width="48" height="48" viewBox="0 0 48 48" fill="none" xmlns="http://www.w3.org/2000/svg">
<path d="M16 28L8 36H48V28H16Z" fill="#E6E6E6"/>
<path d="M8 12L16 20H48V12H8Z" fill="#E6E6E6"/>
<path d="M46 6H2L8 12H48V8C48 6.896 47.104 6 46 6Z" fill="#002A90"/>
<path d="M16 20L20 24L16 28H48V20H16Z" fill="#002A90"/>
<path d="M8 36L2 42H46C47.104 42 48 41.104 48 40V36H8Z" fill="#002A90"/>
<path d="M2 6C0.896 6 0 6.895 0 8V24V40C0 41.105 0.896 42 2 42L20 24L2 6Z" fill="#BE1C2B"/>
<path d="M12.367 22.5429H9.42L8.184 19.8589L6.946 22.5429H4L6.152 24.7699L5.355 27.9999L8.183 26.3949L11.012 27.9999L10.215 24.7699L12.367 22.5429Z" fill="white"/>
</svg>
