<svg width="48" height="48" viewBox="0 0 48 48" fill="none" xmlns="http://www.w3.org/2000/svg">
<path d="M48 40C48 41.105 47.105 42 46 42H2C0.895 42 0 41.105 0 40V8C0 6.895 0.895 6 2 6H46C47.105 6 48 6.895 48 8V40Z" fill="#E6E6E6"/>
<path d="M34 16V18H32V16H30V18H28V16H26V18H22V16H20V18H18V16H16V18H14V16C12.895 16 12 16.896 12 18V22C12 23.104 12.895 24 14 24V22H16V24H18V22H20V24H22V22H26V24H28V22H30V24H32V22H34V24C35.105 24 36 23.104 36 22V18C36 16.896 35.105 16 34 16Z" fill="#ED8000"/>
<path d="M10 30H22V28H12C10.895 28 10 28.895 10 30Z" fill="#11674A"/>
<path d="M26 30H38C38 28.895 37.105 28 36 28H26V30Z" fill="#11674A"/>
</svg>
