<svg width="48" height="48" viewBox="0 0 48 48" fill="none" xmlns="http://www.w3.org/2000/svg">
<path d="M48 40C48 41.105 47.105 42 46 42H2L22 24H48V40Z" fill="#15AB48"/>
<path d="M48 24H22L2 6H46C47.105 6 48 6.895 48 8V24Z" fill="#6FB2DC"/>
<path d="M2 6C0.895 6 0 6.895 0 8V24V40C0 41.105 0.895 42 2 42L22 24L2 6Z" fill="#E6E6E6"/>
<path d="M14.369 22.5429H11.422L10.184 19.8589L8.948 22.5429H6L8.152 24.7699L7.357 27.9999L10.183 26.3949L13.012 27.9999L12.215 24.7699L14.369 22.5429Z" fill="#D21F22"/>
</svg>
