<svg width="48" height="48" viewBox="0 0 48 48" fill="none" xmlns="http://www.w3.org/2000/svg">
<path d="M48 40C48 41.105 47.105 42 46 42H2C0.895 42 0 41.105 0 40V38L48 30V40Z" fill="#1799B3"/>
<path d="M48 30L0 38V10L48 18V30Z" fill="#D1142A"/>
<path d="M48 18L0 10V8C0 6.895 0.895 6 2 6H46C47.105 6 48 6.895 48 8V18Z" fill="#439845"/>
<path d="M10 16C6.141 16 3 19.141 3 23C3 26.859 6.141 30 10 30C13.859 30 17 26.859 17 23C17 19.141 13.859 16 10 16ZM10 28C7.242 28 5 25.758 5 23C5 20.242 7.242 18 10 18C12.758 18 15 20.242 15 23C15 25.758 12.758 28 10 28Z" fill="#FFFF00"/>
</svg>
