<svg width="48" height="48" viewBox="0 0 48 48" fill="none" xmlns="http://www.w3.org/2000/svg">
<path d="M0 8.00008V40.0001C0 41.1051 0.895 42.0001 2 42.0001H46C46.584 42.0001 47.104 41.7461 47.47 41.3471L0.53 6.65308C0.204 7.00908 0 7.47908 0 8.00008Z" fill="#FDDF00"/>
<path d="M48 8C48 6.895 47.105 6 46 6H2.00003C1.41603 6 0.896029 6.254 0.530029 6.653L47.47 41.347C47.796 40.991 48 40.521 48 40V8Z" fill="#008A2A"/>
<path d="M30.1839 21.9499H25.8279L23.9999 17.9839L22.1699 21.9509H17.8169L20.9979 25.2419L19.8199 30.0169L23.9999 27.6429L28.1799 30.0159L27.0019 25.2409L30.1839 21.9499Z" fill="#DD0A07"/>
</svg>
