<svg width="48" height="48" viewBox="0 0 48 48" fill="none" xmlns="http://www.w3.org/2000/svg">
<path d="M48 40C48 41.105 47.105 42 46 42H2C0.895 42 0 41.105 0 40V32H48V40Z" fill="#DB000B"/>
<path d="M48 32H0V8C0 6.895 0.895 6 2 6H46C47.105 6 48 6.895 48 8V32Z" fill="#E6E6E6"/>
<path d="M34 18H36V16H28V18H30V24H26V14H28V12H20V14H22V24H18V18H20V16H12V18H14V24V28H12V30H36V28H34V24V18Z" fill="#FF0000"/>
<path d="M26 26H22V30H26V26Z" fill="#1E1E1E"/>
<path d="M26 32H22V38H26V32Z" fill="#F6D800"/>
</svg>
