<svg width="48" height="48" viewBox="0 0 48 48" fill="none" xmlns="http://www.w3.org/2000/svg">
<path d="M16 6H2C0.895 6 0 6.895 0 8V40C0 41.105 0.895 42 2 42H16V6Z" fill="#CB2322"/>
<path d="M48 24H16V6H46C47.105 6 48 6.895 48 8V24Z" fill="#F8CC15"/>
<path d="M48 40C48 41.105 47.105 42 46 42H16V24H48V40Z" fill="#078754"/>
<path d="M12.1839 22.5429H9.23792L7.99992 19.8589L6.76192 22.5429H3.81592L5.96792 24.7699L5.17192 27.9999L7.99992 26.3949L10.8279 27.9999L10.0309 24.7699L12.1839 22.5429Z" fill="#000105"/>
</svg>
