<svg width="48" height="48" viewBox="0 0 48 48" fill="none" xmlns="http://www.w3.org/2000/svg">
<path d="M48 40C48 41.105 47.105 42 46 42H2C0.895 42 0 41.105 0 40V30H48V40Z" fill="black"/>
<path d="M48 18H0V30H48V18Z" fill="#E6E6E6"/>
<path d="M48 18H0V8C0 6.895 0.895 6 2 6H46C47.105 6 48 6.895 48 8V18Z" fill="#CC162C"/>
<path d="M14 22H12V28H14V22Z" fill="#22B573"/>
<path d="M14 22H8V24H14V22Z" fill="#22B573"/>
<path d="M16 26H8V28H16V26Z" fill="#22B573"/>
<path d="M12 20H10V24H12V20Z" fill="#22B573"/>
<path d="M20 26V20H18V26V28H20H22V26H20Z" fill="#22B573"/>
<path d="M8 22H6V24H8V22Z" fill="#22B573"/>
<path d="M38 20H36V26H34V20H32V26H30V22H28V26H26V28H28H30H32H34H36H38H40V26H38V20Z" fill="#22B573"/>
<path d="M42 22H40V24H42V22Z" fill="#22B573"/>
</svg>
