<svg width="48" height="48" viewBox="0 0 48 48" fill="none" xmlns="http://www.w3.org/2000/svg">
<path d="M48 40C48 41.105 47.105 42 46 42H2C0.895 42 0 41.105 0 40V8C0 6.895 0.895 6 2 6H46C47.105 6 48 6.895 48 8V40Z" fill="#01B1C8"/>
<path d="M24 28C27.3137 28 30 25.3137 30 22C30 18.6863 27.3137 16 24 16C20.6863 16 18 18.6863 18 22C18 25.3137 20.6863 28 24 28Z" fill="#F8CC15"/>
<path d="M24 32C17.935 32 13 27.065 13 21C13 20.447 13.447 20 14 20C14.553 20 15 20.447 15 21C15 25.963 19.037 30 24 30C28.963 30 33 25.963 33 21C33 20.447 33.447 20 34 20C34.553 20 35 20.447 35 21C35 27.065 30.065 32 24 32Z" fill="#F8CC15"/>
</svg>
