<svg width="48" height="48" viewBox="0 0 48 48" fill="none" xmlns="http://www.w3.org/2000/svg">
<path d="M48 40C48 41.105 47.105 42 46 42H2C0.895 42 0 41.105 0 40H48Z" fill="#040385"/>
<path d="M48 38H0V40H48V38Z" fill="#E6E6E6"/>
<path d="M48 36H0V38H48V36Z" fill="#040385"/>
<path d="M48 34H0V36H48V34Z" fill="#E6E6E6"/>
<path d="M48 30H0V32H48V30Z" fill="#E6E6E6"/>
<path d="M48 32H0V34H48V32Z" fill="#040385"/>
<path d="M0 30H48V8C48 6.895 47.105 6 46 6H2C0.895 6 0 6.895 0 8V30Z" fill="#FC0204"/>
<path d="M34 30C34 24.478 29.522 20 24 20C18.478 20 14 24.478 14 30H34Z" fill="#FFD416"/>
<path d="M18 16C16.896 16 16 16.896 16 18H30C30 16.896 29.104 16 28 16H24V12H26C27.104 12 28 11.104 28 10H22V12H16C16 13.104 16.896 14 18 14H20V16H18Z" fill="#FFD416"/>
</svg>
