<svg width="48" height="48" viewBox="0 0 48 48" fill="none" xmlns="http://www.w3.org/2000/svg">
<path d="M48 40C48 41.105 47.105 42 46 42H2C0.895 42 0 41.105 0 40V8C0 6.895 0.895 6 2 6H46C47.105 6 48 6.895 48 8V40Z" fill="#E6E6E6"/>
<path d="M13.1974 11.3983L7.20337 19.4033L8.80517 20.6027L14.7992 12.5977L13.1974 11.3983Z" fill="black"/>
<path d="M34.8008 11.3995L33.2 12.6001L39.2 20.6001L40.8008 19.3995L34.8008 11.3995Z" fill="black"/>
<path d="M8.80075 27.3995L7.19995 28.6001L13.2 36.6001L14.8008 35.3995L8.80075 27.3995Z" fill="black"/>
<path d="M39.1986 27.3988L33.2046 35.4038L34.8064 36.6032L40.8004 28.5982L39.1986 27.3988Z" fill="black"/>
<path d="M34 24C34 21.238 31.7621 19 29.0001 19C26.2381 19 24.0001 21.238 24.0001 24C24.0001 26.762 21.7621 29 19.0001 29C16.5841 29 14.5681 27.287 14.1021 25.008C14.6131 30.051 18.8221 34 24.0001 34C29.1781 34 33.387 30.051 33.898 25.008C33.965 24.682 34 24.346 34 24Z" fill="#053676"/>
<path d="M24 14C18.822 14 14.613 17.949 14.102 22.992C14.035 23.318 14 23.654 14 24C14 26.762 16.238 29 19 29C21.762 29 24 26.762 24 24C24 21.238 26.238 19 29 19C31.416 19 33.432 20.713 33.898 22.992C33.387 17.949 29.178 14 24 14Z" fill="#BA0831"/>
</svg>
