<svg width="48" height="48" viewBox="0 0 48 48" fill="none" xmlns="http://www.w3.org/2000/svg">
<path d="M48 40C48 41.105 47.105 42 46 42H2C0.895 42 0 41.105 0 40V8C0 6.895 0.895 6 2 6H46C47.105 6 48 6.895 48 8V40Z" fill="#0142A6"/>
<path d="M26.1281 15.2249H24.6291L24.0001 13.8589L23.3701 15.2239H21.8721L22.9671 16.3559L22.5621 17.9999L24.0001 17.1839L25.4381 17.9999L25.0331 16.3559L26.1281 15.2249Z" fill="white"/>
<path d="M33.1549 15.2251H31.6559L31.0269 13.8601L30.3969 15.2251H28.8989L29.9939 16.3571L29.5889 18.0001L31.0279 17.1841L32.4659 18.0001L32.0609 16.3561L33.1549 15.2251Z" fill="white"/>
<path d="M40.256 15.2251H38.757L38.128 13.8601L37.498 15.2251H36L37.095 16.3571L36.689 18.0001L38.128 17.1841L39.566 18.0001L39.161 16.3561L40.256 15.2251Z" fill="white"/>
<path d="M19.101 15.2251H17.602L16.973 13.8601L16.343 15.2251H14.845L15.94 16.3571L15.534 18.0001L16.972 17.1841L18.411 18.0001L18.006 16.3561L19.101 15.2251Z" fill="white"/>
<path d="M12.256 15.2251H10.757L10.128 13.8601L9.498 15.2251H8L9.095 16.3571L8.689 18.0001L10.128 17.1841L11.566 18.0001L11.161 16.3561L12.256 15.2251Z" fill="white"/>
<path d="M24 34C27.3137 34 30 31.3137 30 28C30 24.6863 27.3137 22 24 22C20.6863 22 18 24.6863 18 28C18 31.3137 20.6863 34 24 34Z" fill="#F5CB07"/>
</svg>
