<svg width="48" height="48" viewBox="0 0 48 48" fill="none" xmlns="http://www.w3.org/2000/svg">
<path d="M48 40C48 41.105 47.105 42 46 42H2C0.895 42 0 41.105 0 40V8C0 6.895 0.895 6 2 6H46C47.105 6 48 6.895 48 8V40Z" fill="#CC162C"/>
<path d="M24 30C27.3137 30 30 27.3137 30 24C30 20.6863 27.3137 18 24 18C20.6863 18 18 20.6863 18 24C18 27.3137 20.6863 30 24 30Z" fill="#FDE233"/>
<path d="M24 12C17.373 12 12 17.371 12 24C12 30.629 17.373 36 24 36C30.627 36 36 30.629 36 24C36 17.371 30.627 12 24 12ZM24 34C18.478 34 14 29.523 14 24C14 18.477 18.478 14 24 14C29.522 14 34 18.477 34 24C34 29.523 29.522 34 24 34Z" fill="#FDE233"/>
</svg>
