<svg width="48" height="48" viewBox="0 0 48 48" fill="none" xmlns="http://www.w3.org/2000/svg">
<path d="M48 16H0V8C0 6.895 0.895 6 2 6H46C47.105 6 48 6.895 48 8V16Z" fill="#27378F"/>
<path d="M48 16H0V32H48V16Z" fill="#E6E6E6"/>
<path d="M48 40C48 41.105 47.105 42 46 42H2C0.895 42 0 41.105 0 40V32H48V40Z" fill="#029544"/>
<path d="M29.4769 29.986L26.5939 24.992C27.4469 24.26 27.9999 23.184 27.9999 21.969C27.9999 19.758 26.2109 17.969 23.9999 17.969C21.7889 17.969 19.9999 19.758 19.9999 21.969C19.9999 23.184 20.5529 24.26 21.4059 24.992L18.5229 29.986H29.4769Z" fill="#4D4D4D"/>
</svg>
