<svg width="48" height="48" viewBox="0 0 48 48" fill="none" xmlns="http://www.w3.org/2000/svg">
<path d="M48 40C48 41.105 47.105 42 46 42H2C0.895 42 0 41.105 0 40V8C0 6.895 0.895 6 2 6H46C47.105 6 48 6.895 48 8V40Z" fill="#C0272C"/>
<path d="M32.3609 21.0411H26.4699L23.9999 15.6831L21.5279 21.0411H15.6379L19.9419 25.4941L18.3509 31.9471L23.9999 28.7391L29.6479 31.9471L28.0569 25.4941L32.3609 21.0411ZM26.5939 27.9121L23.9999 26.4381L21.4059 27.9121L22.1489 24.8981L20.3529 23.0411H22.8069L23.9999 20.4581L25.1909 23.0411H27.6459L25.8499 24.8981L26.5939 27.9121Z" fill="#484C29"/>
</svg>
