<svg width="48" height="48" viewBox="0 0 48 48" fill="none" xmlns="http://www.w3.org/2000/svg">
<path d="M32 6H16V42H32V6Z" fill="#F5E303"/>
<path d="M48 40C48 41.105 47.105 42 46 42H32V6H46C47.105 6 48 6.895 48 8V40Z" fill="#EE1E2E"/>
<path d="M16 42H2C0.895 42 0 41.105 0 40V8C0 6.895 0.895 6 2 6H16V42Z" fill="#2B3384"/>
<path d="M30 20H26V18C26 16.896 25.105 16 24 16H22C20.895 16 20 16.896 20 18H22V20H18V26.93C18 27.599 18.334 28.223 18.891 28.594L24 32L29.109 28.594C29.666 28.223 30 27.599 30 26.93V20Z" fill="#685A11"/>
</svg>
