<svg width="48" height="48" viewBox="0 0 48 48" fill="none" xmlns="http://www.w3.org/2000/svg">
<path d="M48 40C48 41.105 47.105 42 46 42H32V6H46C47.105 6 48 6.895 48 8V40Z" fill="#C22A34"/>
<path d="M16 42H2C0.895 42 0 41.105 0 40V8C0 6.895 0.895 6 2 6H16V42Z" fill="#C22A34"/>
<path d="M32 6H16V42H32V6Z" fill="#0A5395"/>
<path d="M10 18V20H6V18H4V30H6V28H10V30H12V18H10ZM10 26H6V22H10V26Z" fill="#F8CE2F"/>
<path d="M8 18C9.104 18 10 17.105 10 16C10 14.895 8 12 8 12C8 12 6 14.895 6 16C6 17.105 6.896 18 8 18Z" fill="#F8CE2F"/>
</svg>
