<svg width="48" height="48" viewBox="0 0 48 48" fill="none" xmlns="http://www.w3.org/2000/svg">
<path d="M48 40C48 41.105 47.105 42 46 42H2C0.895 42 0 41.105 0 40V30H48V40Z" fill="#FBE201"/>
<path d="M48 18H0V30H48V18Z" fill="#424041"/>
<path d="M48 18H0V8C0 6.895 0.895 6 2 6H46C47.105 6 48 6.895 48 8V18Z" fill="#0F736B"/>
<path d="M48 28H0V30H48V28Z" fill="white"/>
<path d="M48 18H0V20H48V18Z" fill="white"/>
<path d="M2 6C0.896 6 0 6.895 0 8V24V40C0 41.105 0.896 42 2 42L22 24L2 6Z" fill="#E52635"/>
<path d="M14.369 22.5429H11.421L10.185 19.8589L8.948 22.5429H6L8.153 24.7699L7.357 27.9999L10.184 26.3949L13.012 27.9999L12.216 24.7699L14.369 22.5429Z" fill="#FFCE19"/>
</svg>
