<svg width="48" height="48" viewBox="0 0 48 48" fill="none" xmlns="http://www.w3.org/2000/svg">
<path d="M48 40C48 41.105 47.105 42 46 42H2C0.895 42 0 41.105 0 40V26H48V40Z" fill="#040385"/>
<path d="M48 22H0V26H48V22Z" fill="#FBFD02"/>
<path d="M48 22H0V8C0 6.895 0.895 6 2 6H46C47.105 6 48 6.895 48 8V22Z" fill="#040385"/>
<path d="M8.00008 29.0569L8.85508 31.4629L11.1621 30.3659L10.0651 32.6729L12.4721 33.5279L10.0651 34.3839L11.1621 36.6899L8.85508 35.5939L8.00008 37.9999L7.14508 35.5939L4.83808 36.6899L5.93508 34.3839L3.52808 33.5279L5.93508 32.6729L4.83808 30.3659L7.14508 31.4629L8.00008 29.0569Z" fill="#FBFD02"/>
</svg>
