<svg width="48" height="48" viewBox="0 0 48 48" fill="none" xmlns="http://www.w3.org/2000/svg">
<path d="M20 22H0V8C0 6.895 0.895 6 2 6H20V22Z" fill="#E6E6E6"/>
<path d="M46 6H20V22H0V40C0 41.105 0.895 42 2 42H46C47.105 42 48 41.105 48 40V24V8C48 6.895 47.105 6 46 6Z" fill="#0402FB"/>
<path d="M20 12H15.377L19.068 9.266L17.879 7.66L12.018 12H12V6H8V11.365L2.996 7.66L1.807 9.266L5.498 12H0V16H6.617L1.807 19.563L2.996 21.17L8 17.465V22H12V16.816L17.879 21.17L19.068 19.563L14.258 16H20V12Z" fill="#FF0000"/>
<path d="M36.5 16.922H34.395L33.51 15L32.623 16.922H30.52L32.057 18.508L31.489 20.821L33.511 19.674L35.532 20.821L34.962 18.508L36.5 16.922Z" fill="#FF0000"/>
<path d="M36.5 33.922H34.395L33.51 32L32.623 33.922H30.52L32.057 35.508L31.489 37.821L33.511 36.674L35.532 37.821L34.962 35.508L36.5 33.922Z" fill="#FF0000"/>
<path d="M41.982 24.8519H39.877L38.992 22.9299L38.105 24.8519H36L37.539 26.4379L36.971 28.7499L38.992 27.6019L41.013 28.7499L40.443 26.4379L41.982 24.8519Z" fill="#FF0000"/>
<path d="M31.0001 24.8519H28.8951L28.0101 22.9299L27.1231 24.8519H25.0181L26.5571 26.4379L25.9891 28.7499L28.0101 27.6019L30.0311 28.7499L29.4611 26.4379L31.0001 24.8519Z" fill="#FF0000"/>
</svg>
