<svg width="48" height="48" viewBox="0 0 48 48" fill="none" xmlns="http://www.w3.org/2000/svg">
<path d="M48 8C48 6.895 47.105 6 46 6H2L48 38V8Z" fill="#FC0204"/>
<path d="M2 6C0.895 6 0 6.895 0 8V40C0 41.105 0.895 42 2 42H46C47.105 42 48 41.105 48 40V38L2 6Z" fill="black"/>
<path d="M18.3871 28.813L18.9571 26.5L16.9361 27.648L14.9141 26.5L15.4821 28.813L13.9431 30.399H16.0481L16.9351 32.321L17.8201 30.399H19.9251L18.3871 28.813Z" fill="white"/>
<path d="M10.916 24.016L11.287 22.5L9.963 23.252L8.635 22.5L9.008 24.016L8 25.059H9.383L9.963 26.319L10.545 25.059H11.926L10.916 24.016Z" fill="white"/>
<path d="M16.916 22.016L17.287 20.5L15.963 21.252L14.635 20.5L15.008 22.016L14 23.059H15.383L15.963 24.319L16.545 23.059H17.926L16.916 22.016Z" fill="white"/>
<path d="M6.916 28.1969L7.287 26.6809L5.963 27.4329L4.635 26.6809L5.008 28.1969L4 29.2399H5.383L5.963 30.4999L6.545 29.2399H7.926L6.916 28.1969Z" fill="white"/>
<path d="M14.4429 36.0779H12.3379L11.4529 37.9999L10.5659 36.0779H8.46289L9.99989 34.4919L9.43189 32.1799L11.4529 33.3259L13.4749 32.1799L12.9039 34.4919L14.4429 36.0779Z" fill="white"/>
<path d="M40 14H36V10H32C30.895 10 30 10.895 30 12V14H26C24.895 14 24 14.895 24 16H30V18C30 19.105 30.895 20 32 20H36V16H40V18C41.105 18 42 17.105 42 16C42 14.895 41.105 14 40 14Z" fill="#FFFF00"/>
</svg>
