<svg width="48" height="48" viewBox="0 0 48 48" fill="none" xmlns="http://www.w3.org/2000/svg">
<path d="M34 6H14V42H34V6Z" fill="#FFD10A"/>
<path d="M48 40C48 41.105 47.105 42 46 42H34V6H46C47.105 6 48 6.895 48 8V40Z" fill="#009E61"/>
<path d="M14 42H2C0.895 42 0 41.105 0 40V8C0 6.895 0.895 6 2 6H14V42Z" fill="#0073C6"/>
<path d="M23.9983 23.3342L20.6655 26.668L23.9993 30.0008L27.3321 26.667L23.9983 23.3342Z" fill="#009E61"/>
<path d="M27.9998 19.3322L24.666 22.665L27.9988 25.9988L31.3326 22.666L27.9998 19.3322Z" fill="#009E61"/>
<path d="M20 19.3322L16.6663 22.665L19.9991 25.9988L23.3328 22.666L20 19.3322Z" fill="#009E61"/>
</svg>
