<svg width="48" height="48" viewBox="0 0 48 48" fill="none" xmlns="http://www.w3.org/2000/svg">
<path d="M20 22H0V8C0 6.895 0.895 6 2 6H20V22Z" fill="#040385"/>
<path d="M46 6H20V22H0V40C0 41.105 0.895 42 2 42H46C47.105 42 48 41.105 48 40V24V8C48 6.895 47.105 6 46 6Z" fill="#FC0204"/>
<path d="M17.66 10.1889H15.388L14.433 8.11694L13.48 10.1889H11.207L12.867 11.8999L12.254 14.3939L14.434 13.1559L16.616 14.3939L16 11.8999L17.66 10.1889Z" fill="white"/>
<path d="M8.00009 11.537H6.31609L5.60709 10L4.89809 11.537H3.21509L4.44609 12.806L3.99109 14.656L5.60809 13.738L7.22509 14.656L6.77009 12.806L8.00009 11.537Z" fill="white"/>
<path d="M16 17.0269H14.342L13.645 15.5129L12.948 17.0269H11.29L12.501 18.2729L12.056 20.0929L13.646 19.1909L15.238 20.0929L14.787 18.2729L16 17.0269Z" fill="white"/>
<path d="M10.0001 17.7231H8.77106L8.25506 16.6021L7.73606 17.7231H6.50806L7.40806 18.6511L7.07206 20.0001L8.25606 19.3301L9.43606 20.0001L9.10406 18.6501L10.0001 17.7231Z" fill="white"/>
</svg>
