<svg width="48" height="48" viewBox="0 0 48 48" fill="none" xmlns="http://www.w3.org/2000/svg">
<path d="M48 24H0V8C0 6.895 0.895 6 2 6H46C47.105 6 48 6.895 48 8V24Z" fill="#E6E6E6"/>
<path d="M48 40C48 41.105 47.105 42 46 42H2C0.895 42 0 41.105 0 40V24H48V40Z" fill="#0082D0"/>
<path d="M28 20H26V18H28V16H20V18H22V20H20C18.895 20 18 20.896 18 22V28L24 32L30 28V22C30 20.896 29.105 20 28 20Z" fill="#F5E303"/>
<path d="M16 20H14V28H16V20Z" fill="#006600"/>
<path d="M34 20H32V28H34V20Z" fill="#006600"/>
</svg>
