<svg width="48" height="48" viewBox="0 0 48 48" fill="none" xmlns="http://www.w3.org/2000/svg">
<path d="M32 6H16V42H32V6Z" fill="#EBCA19"/>
<path d="M48 40C48 41.105 47.105 42 46 42H32V6H46C47.105 6 48 6.895 48 8V40Z" fill="#DD2027"/>
<path d="M16 42H2C0.895 42 0 41.105 0 40V8C0 6.895 0.895 6 2 6H16V42Z" fill="#0D8643"/>
<path d="M30.305 21.7231H25.864L24 17.6841L22.137 21.7231H17.696L20.94 25.0821L19.741 29.9471L24.001 27.5271L28.261 29.9471L27.062 25.0821L30.305 21.7231Z" fill="#0D8643"/>
</svg>
