<svg width="48" height="48" viewBox="0 0 48 48" fill="none" xmlns="http://www.w3.org/2000/svg">
<path d="M48 40C48 41.105 47.105 42 46 42H2C0.895 42 0 41.105 0 40V24H48V40Z" fill="#E6E6E6"/>
<path d="M48 24H0V8C0 6.895 0.895 6 2 6H46C47.105 6 48 6.895 48 8V24Z" fill="#EA2C3F"/>
<path d="M8 16C8 13.393 9.675 11.195 12 10.367C11.371 10.145 10.705 10 10 10C6.687 10 4 12.688 4 16C4 19.313 6.687 22 10 22C10.705 22 11.371 21.855 12 21.633C9.675 20.805 8 18.607 8 16Z" fill="white"/>
<path d="M19 12C19.5523 12 20 11.5523 20 11C20 10.4477 19.5523 10 19 10C18.4477 10 18 10.4477 18 11C18 11.5523 18.4477 12 19 12Z" fill="white"/>
<path d="M19 20C19.5523 20 20 19.5523 20 19C20 18.4477 19.5523 18 19 18C18.4477 18 18 18.4477 18 19C18 19.5523 18.4477 20 19 20Z" fill="white"/>
<path d="M15 18.002C15.5523 18.002 16 17.5538 16 17.001C16 16.4482 15.5523 16 15 16C14.4477 16 14 16.4482 14 17.001C14 17.5538 14.4477 18.002 15 18.002Z" fill="white"/>
<path d="M23 14.001C23.5523 14.001 24 13.5529 24 13C24 12.4472 23.5523 11.999 23 11.999C22.4477 11.999 22 12.4472 22 13C22 13.5529 22.4477 14.001 23 14.001Z" fill="white"/>
<path d="M22.9991 18C23.5525 18 24.0011 17.5523 24.0011 17C24.0011 16.4477 23.5525 16 22.9991 16C22.4457 16 21.9971 16.4477 21.9971 17C21.9971 17.5523 22.4457 18 22.9991 18Z" fill="white"/>
<path d="M15 14.002C15.5529 14.002 16.001 13.5542 16.001 13.002C16.001 12.4497 15.5529 12.002 15 12.002C14.4472 12.002 13.999 12.4497 13.999 13.002C13.999 13.5542 14.4472 14.002 15 14.002Z" fill="white"/>
</svg>
