<svg width="48" height="48" viewBox="0 0 48 48" fill="none" xmlns="http://www.w3.org/2000/svg">
<path d="M4 42H2C0.895 42 0 41.105 0 40V36L44 6H46C47.105 6 48 6.895 48 8V12L4 42Z" fill="#FAFD00"/>
<path d="M46 42H4L48 12V40C48 41.105 47.105 42 46 42Z" fill="#048204"/>
<path d="M2 6H44L0 36V8C0 6.895 0.895 6 2 6Z" fill="#040385"/>
<path d="M14.5181 10.422H12.4121L11.5271 8.5L10.6411 10.422H8.53711L10.0741 12.008L9.50611 14.32L11.5271 13.174L13.5491 14.32L12.9791 12.008L14.5181 10.422Z" fill="white"/>
<path d="M7.99997 17.26H6.61897L6.03697 16L5.45697 17.26H4.07397L5.08197 18.303L4.70897 19.819L6.03697 19.067L7.36097 19.819L6.98997 18.303L7.99997 17.26Z" fill="white"/>
<path d="M12 21.4409H10.619L10.037 20.1809L9.45697 21.4409H8.07397L9.08197 22.4839L8.70897 23.9999L10.037 23.2479L11.361 23.9999L10.99 22.4839L12 21.4409Z" fill="white"/>
<path d="M20.0001 16.1019H17.8951L17.0101 14.1799L16.1231 16.1019H14.0181L15.5571 17.6879L14.9881 19.9999L17.0101 18.8519L19.0311 19.9999L18.4611 17.6879L20.0001 16.1019Z" fill="white"/>
</svg>
