<svg width="48" height="48" viewBox="0 0 48 48" fill="none" xmlns="http://www.w3.org/2000/svg">
<path d="M48 14H0V8C0 6.895 0.895 6 2 6H46C47.105 6 48 6.895 48 8V14Z" fill="#3C5BBC"/>
<path d="M48 40C48 41.105 47.105 42 46 42H2C0.895 42 0 41.105 0 40V34H48V40Z" fill="#3C5BBC"/>
<path d="M48 16H0V32H48V16Z" fill="#BD1D27"/>
<path d="M48 14H0V16H48V14Z" fill="#FFDB00"/>
<path d="M48 32H0V34H48V32Z" fill="#FFDB00"/>
<path d="M22 26H10V28H22V26Z" fill="#FFDB00"/>
<path d="M22 20H10V22H22V20Z" fill="#FFDB00"/>
<path d="M38 26H26V28H38V26Z" fill="#FFDB00"/>
<path d="M38 20H26V22H38V20Z" fill="#FFDB00"/>
<path d="M18 24C18 27.314 20.687 30 24 30V18C20.687 18 18 20.686 18 24Z" fill="#3C3C3C"/>
<path d="M30 24C30 27.314 27.313 30 24 30V18C27.313 18 30 20.686 30 24Z" fill="white"/>
</svg>
