<svg width="48" height="48" viewBox="0 0 48 48" fill="none" xmlns="http://www.w3.org/2000/svg">
<path d="M48 40C48 41.105 47.105 42 46 42H2C0.895 42 0 41.105 0 40V34H48V40Z" fill="#0D6849"/>
<path d="M48 18H0V30H48V18Z" fill="#1D266B"/>
<path d="M48 14H14V6H46C47.105 6 48 6.895 48 8V14Z" fill="#0D6849"/>
<path d="M48 28H0V34H48V28Z" fill="#F8D406"/>
<path d="M48 14H14V20H48V14Z" fill="#F8D406"/>
<path d="M48 20H0V28H48V20Z" fill="#0D6849"/>
<path d="M14 20H0V8C0 6.895 0.895 6 2 6H14V20Z" fill="#D52027"/>
<path d="M10.7541 12.305H8.29111L7.26011 10.063L6.22711 12.305H3.76611L5.56511 14.161L4.89911 16.86L7.26011 15.52L9.62111 16.86L8.95511 14.16L10.7541 12.305Z" fill="white"/>
</svg>
