<svg width="48" height="48" viewBox="0 0 48 48" fill="none" xmlns="http://www.w3.org/2000/svg">
<path d="M48 39.834C48 40.939 47.105 41.834 46 41.834H2C0.895 41.834 0 40.939 0 39.834V7.83398C0 6.72898 0.895 5.83398 2 5.83398H46C47.105 5.83398 48 6.72898 48 7.83398V39.834Z" fill="#E6E6E6"/>
<path d="M46 6H12L48 30V8C48 6.896 47.105 6 46 6Z" fill="#D90E2B"/>
<path d="M2 42H36L0 18V40C0 41.104 0.895 42 2 42Z" fill="#D90E2B"/>
<path d="M43.211 42H46C47.105 42 48 41.104 48 40V34.807L4.789 6H2C0.895 6 0 6.896 0 8V13.193L43.211 42Z" fill="#1C1C1C"/>
</svg>
