<svg width="48" height="48" viewBox="0 0 48 48" fill="none" xmlns="http://www.w3.org/2000/svg">
<path d="M48 40C48 41.105 47.105 42 46 42H2C0.895 42 0 41.105 0 40V8C0 6.895 0.895 6 2 6H46C47.105 6 48 6.895 48 8V40Z" fill="#E31E25"/>
<path d="M24 36C30.6274 36 36 30.6274 36 24C36 17.3726 30.6274 12 24 12C17.3726 12 12 17.3726 12 24C12 30.6274 17.3726 36 24 36Z" fill="white"/>
<path d="M27.199 30.4C23.666 30.4 20.799 27.534 20.799 24C20.799 20.466 23.666 17.6 27.199 17.6C27.892 17.6 28.545 17.739 29.17 17.942C27.771 16.748 25.98 16 24 16C19.58 16 16 19.582 16 24C16 28.418 19.58 32 24 32C25.98 32 27.771 31.252 29.17 30.059C28.545 30.262 27.893 30.4 27.199 30.4Z" fill="#E31E25"/>
<path d="M29.258 22.706L28.029 20.041L26.799 22.706H24L26.047 24.823L25.264 28L28.03 26.429L30.795 28L30.012 24.823L32.059 22.706H29.258Z" fill="#E31E25"/>
</svg>
