<svg width="48" height="48" viewBox="0 0 48 48" fill="none" xmlns="http://www.w3.org/2000/svg">
<path d="M48 40C48 41.105 47.105 42 46 42H2C0.895 42 0 41.105 0 40V8C0 6.895 0.895 6 2 6H46C47.105 6 48 6.895 48 8V40Z" fill="#E40A18"/>
<path d="M22 34C16.477 34 12 29.522 12 24C12 18.478 16.477 14 22 14C23.256 14 24.445 14.258 25.553 14.681C23.49 13.007 20.863 12 18 12C11.373 12 6 17.373 6 24C6 30.627 11.373 36 18 36C20.863 36 23.49 34.993 25.553 33.319C24.445 33.742 23.256 34 22 34Z" fill="white"/>
<path d="M32.3131 22.024L30.4671 18.02L28.6191 22.024H24.4121L27.4881 25.206L26.3101 29.979L30.4661 27.618L34.6221 29.979L33.4441 25.206L36.5201 22.024H32.3131Z" fill="white"/>
</svg>
