<svg width="48" height="48" viewBox="0 0 48 48" fill="none" xmlns="http://www.w3.org/2000/svg">
<path d="M20 22H0V8C0 6.895 0.895 6 2 6H20V22Z" fill="#070084"/>
<path d="M46 6H20V22H0V40C0 41.105 0.896 42 2 42H46C47.104 42 48 41.105 48 40V24V8C48 6.895 47.104 6 46 6Z" fill="#0482FB"/>
<path d="M20 12H15.377L19.068 9.266L17.878 7.66L12.018 12H12V6H8V11.365L2.997 7.66L1.807 9.266L5.498 12H0V16H6.617L1.807 19.563L2.997 21.17L8 17.465V22H12V16.816L17.878 21.17L19.068 19.563L14.258 16H20V12Z" fill="#FF0000"/>
<path d="M34.911 24.9341H32.638L31.684 22.8621L30.73 24.9341H28.458L30.118 26.6451L29.504 29.1391L31.685 27.9011L33.866 29.1391L33.252 26.6451L34.911 24.9341Z" fill="#F6D031"/>
<path d="M28.036 27.6249H26.35L25.642 26.0879L24.934 27.6249H23.248L24.479 28.8949L24.024 30.7449L25.641 29.8269L27.258 30.7449L26.803 28.8949L28.036 27.6249Z" fill="#F6D031"/>
<path d="M21.964 29.3129H20.859L20.394 28.3049L19.929 29.3129H18.823L19.631 30.1469L19.333 31.3599L20.394 30.7579L21.455 31.3599L21.157 30.1469L21.964 29.3129Z" fill="#F6D031"/>
<path d="M17.464 30.225H16.359L15.894 29.217L15.429 30.225H14.323L15.131 31.059L14.833 32.272L15.894 31.671L16.955 32.272L16.657 31.059L17.464 30.225Z" fill="#F6D031"/>
<path d="M42.9811 29.5549H40.7091L39.7551 27.4829L38.8011 29.5549H36.5291L38.1891 31.2659L37.5751 33.7599L39.7561 32.5219L41.9371 33.7599L41.3231 31.2659L42.9811 29.5549Z" fill="#F6D031"/>
<path d="M36.1061 32.246H34.4201L33.7121 30.709L33.0041 32.246H31.3191L32.5501 33.516L32.0951 35.366L33.7121 34.448L35.3291 35.366L34.8741 33.516L36.1061 32.246Z" fill="#F6D031"/>
<path d="M30.034 33.934H28.929L28.464 32.926L27.999 33.934H26.894L27.702 34.768L27.404 35.981L28.464 35.38L29.525 35.981L29.227 34.768L30.034 33.934Z" fill="#F6D031"/>
<path d="M25.534 34.8459H24.429L23.964 33.8379L23.499 34.8459H22.394L23.202 35.6799L22.904 36.8929L23.964 36.2909L25.025 36.8929L24.727 35.6799L25.534 34.8459Z" fill="#F6D031"/>
</svg>
