<svg width="48" height="48" viewBox="0 0 48 48" fill="none" xmlns="http://www.w3.org/2000/svg">
<path d="M46 6H2C0.896 6 0 6.896 0 8V40C0 41.104 0.896 42 2 42H46C47.104 42 48 41.104 48 40V8C48 6.896 47.104 6 46 6Z" fill="#002781"/>
<path d="M48 8C48 6.896 47.104 6 46 6H40.839L28 15.876V6H20V15.876L7.161 6H2C0.896 6 0 6.896 0 8V10.586L12.239 20H0V28H12.239L0 37.415V40C0 41.104 0.896 42 2 42H7.161L20 32.124V42H28V32.124L40.839 42H46C47.104 42 48 41.104 48 40V37.415L35.761 28H48V20H35.761L48 10.586V8Z" fill="#E6E6E6"/>
<path d="M48 22H26V6H22V22H0V26H22V42H26V26H48V22Z" fill="#D10D24"/>
<path d="M47.0009 6.30688L29.2 19.9999H32.4799L48 8.06188V7.99988C48 7.26788 47.587 6.65588 47.0009 6.30688Z" fill="#D10D24"/>
<path d="M32.4799 28H29.2L47.0009 41.693C47.587 41.344 48 40.732 48 40V39.938L32.4799 28Z" fill="#D10D24"/>
<path d="M15.52 28L0 39.938V40C0 40.732 0.413 41.344 0.999 41.693L18.8 28H15.52Z" fill="#D10D24"/>
<path d="M15.52 19.9999H18.8L0.999 6.30688C0.413 6.65588 0 7.26788 0 7.99988V8.06188L15.52 19.9999Z" fill="#D10D24"/>
</svg>
