<svg width="48" height="48" viewBox="0 0 48 48" fill="none" xmlns="http://www.w3.org/2000/svg">
<path d="M48 8C48 6.895 47.105 6 46 6H20V26H0V40C0 41.105 0.895 42 2 42H46C47.105 42 48 41.105 48 40V8Z" fill="#B41F30"/>
<path d="M48 10H20V14H48V10Z" fill="#E6E6E6"/>
<path d="M48 18H20V22H48V18Z" fill="#E6E6E6"/>
<path d="M0 26V30H48V26H20H0Z" fill="#E6E6E6"/>
<path d="M48 34H0V38H48V34Z" fill="#E6E6E6"/>
<path d="M20 26H0V8C0 6.895 0.895 6 2 6H20V26Z" fill="#00256A"/>
<path d="M10 13.9221L9.36704 15.2901H7.86304L8.96304 16.4301L8.55704 18.0781L10 17.2601L11.443 18.0781L11.037 16.4301L12.137 15.2901H10.631L10 13.9221Z" fill="white"/>
<path d="M5.10695 9.02905L4.47495 10.3971H2.97095L4.06995 11.5371L3.66395 13.1851L5.10695 12.3671L6.55095 13.1851L6.14395 11.5371L7.24395 10.3971H5.73795L5.10695 9.02905Z" fill="white"/>
<path d="M14.8931 9.02905L15.5251 10.3971H17.0291L15.9301 11.5371L16.3361 13.1851L14.8931 12.3671L13.4491 13.1851L13.8561 11.5371L12.7561 10.3971H14.2621L14.8931 9.02905Z" fill="white"/>
<path d="M5.10695 22.9709L4.47495 21.6029H2.97095L4.06995 20.4629L3.66395 18.8149L5.10695 19.6329L6.55095 18.8149L6.14395 20.4629L7.24395 21.6029H5.73795L5.10695 22.9709Z" fill="white"/>
<path d="M14.8931 22.9709L15.5251 21.6029H17.0291L15.9301 20.4629L16.3361 18.8149L14.8931 19.6329L13.4491 18.8149L13.8561 20.4629L12.7561 21.6029H14.2621L14.8931 22.9709Z" fill="white"/>
</svg>
