<svg width="48" height="48" viewBox="0 0 48 48" fill="none" xmlns="http://www.w3.org/2000/svg">
<path d="M48 40C48 41.105 47.105 42 46 42H2L6 38H48V40Z" fill="#3C9038"/>
<path d="M6 38H48V32H12L6 38Z" fill="#F8D406"/>
<path d="M48 32H12L18 26H48V32Z" fill="#D12325"/>
<path d="M18 22H48V16H12L18 22Z" fill="#D12325"/>
<path d="M6 10H48V8C48 6.895 47.105 6 46 6H2L6 10Z" fill="#3C9038"/>
<path d="M48 16H12L6 10H48V16Z" fill="#F8D406"/>
<path d="M48 26H18L20 24L18 22H48V26Z" fill="#443A17"/>
<path d="M2 6C0.895 6 0 6.895 0 8V24V40C0 41.105 0.895 42 2 42L20 24L2 6Z" fill="#E6E6E6"/>
<path d="M14 21.525H10.127L8.50596 18L6.88096 21.525H3.01196L5.83996 24.443L4.79296 28.687L8.50596 26.579L12.219 28.687L11.172 24.443L14 21.525Z" fill="#D12325"/>
<path d="M8.5061 27.125C10.3872 27.125 11.9121 25.6001 11.9121 23.719C11.9121 21.8379 10.3872 20.313 8.5061 20.313C6.62502 20.313 5.1001 21.8379 5.1001 23.719C5.1001 25.6001 6.62502 27.125 8.5061 27.125Z" fill="#FFFF00"/>
</svg>
