<svg width="16" height="16" viewBox="0 0 16 16" fill="none" xmlns="http://www.w3.org/2000/svg">
<path d="M13.3333 14.6663H2.66667C2.48986 14.6663 2.32029 14.5961 2.19526 14.4711C2.07024 14.3461 2 14.1765 2 13.9997V1.99967C2 1.82286 2.07024 1.65329 2.19526 1.52827C2.32029 1.40325 2.48986 1.33301 2.66667 1.33301H13.3333C13.5101 1.33301 13.6797 1.40325 13.8047 1.52827C13.9298 1.65329 14 1.82286 14 1.99967V13.9997C14 14.1765 13.9298 14.3461 13.8047 14.4711C13.6797 14.5961 13.5101 14.6663 13.3333 14.6663ZM12.6667 13.333V2.66634H3.33333V13.333H12.6667ZM5.33333 4.66634H10.6667V5.99967H5.33333V4.66634ZM5.33333 7.33301H10.6667V8.66634H5.33333V7.33301ZM5.33333 9.99967H8.66667V11.333H5.33333V9.99967Z" fill="#687693"/>
</svg>
