<?xml version="1.0" encoding="UTF-8"?>
<svg width="16px" height="16px" viewBox="0 0 16 16" version="1.1" xmlns="http://www.w3.org/2000/svg" xmlns:xlink="http://www.w3.org/1999/xlink">
    <!-- Generator: Sketch 52.2 (67145) - http://www.bohemiancoding.com/sketch -->
    <title>Inbox_Default</title>
    <desc>Created with Sketch.</desc>
    <defs>
        <linearGradient x1="6.72283212%" y1="84.6486649%" x2="100%" y2="9.36374193%" id="linearGradient-1">
            <stop stop-color="#5E6893" offset="0%"></stop>
            <stop stop-color="#5E6893" stop-opacity="0.5" offset="100%"></stop>
        </linearGradient>
        <path d="M16,5.27401247 C16,5.25654886 16,5.22162162 16,5.204158 C16,5.18669439 16,5.16923077 15.9826087,5.13430353 C15.9826087,5.11683992 15.9652174,5.08191268 15.9652174,5.06444906 C15.9652174,5.04698545 15.9478261,5.02952183 15.9478261,4.99459459 C15.9304348,4.97713098 15.9304348,4.95966736 15.9130435,4.94220374 C15.8956522,4.92474012 15.8782609,4.90727651 15.8782609,4.87234927 C15.8782609,4.87234927 15.8608696,4.85488565 15.8608696,4.85488565 L12.1043478,0.261954262 C11.9652174,0.0873180873 11.773913,0 11.5652174,0 L4.43478261,0 C4.22608696,0 4.03478261,0.0873180873 3.89565217,0.261954262 L0.156521739,4.85488565 C0.156521739,4.85488565 0.139130435,4.87234927 0.139130435,4.87234927 C0.12173913,4.88981289 0.104347826,4.90727651 0.104347826,4.94220374 C0.0869565217,4.95966736 0.0869565217,4.97713098 0.0695652174,4.99459459 C0.052173913,5.01205821 0.052173913,5.02952183 0.052173913,5.06444906 C0.052173913,5.08191268 0.0347826087,5.0993763 0.0347826087,5.13430353 C0.0347826087,5.15176715 0.0173913043,5.16923077 0.0173913043,5.204158 C0.0173913043,5.22162162 0.0173913043,5.25654886 0.0173913043,5.27401247 C0.0173913043,5.29147609 0.0173913043,5.29147609 0.0173913043,5.30893971 L0.0173913043,11.5609148 C-5.41233725e-16,12.3118503 0.626086957,12.9230769 1.39130435,12.9230769 L14.6086957,12.9230769 C15.373913,12.9230769 16,12.3118503 16,11.5434511 L16,5.29147609 C16,5.29147609 16,5.27401247 16,5.27401247 Z" id="path-2"></path>
        <filter x="-1.6%" y="-1.9%" width="103.1%" height="103.9%" filterUnits="objectBoundingBox" id="filter-3">
            <feOffset dx="0" dy="0.5" in="SourceAlpha" result="shadowOffsetInner1"></feOffset>
            <feComposite in="shadowOffsetInner1" in2="SourceAlpha" operator="arithmetic" k2="-1" k3="1" result="shadowInnerInner1"></feComposite>
            <feColorMatrix values="0 0 0 0 1   0 0 0 0 1   0 0 0 0 1  0 0 0 0.0880321558 0" type="matrix" in="shadowInnerInner1"></feColorMatrix>
        </filter>
        <linearGradient x1="50%" y1="9.1824051%" x2="50%" y2="218.114672%" id="linearGradient-4">
            <stop stop-color="#BCC6EF" offset="0%"></stop>
            <stop stop-color="#BCC6EF" stop-opacity="0.5" offset="100%"></stop>
        </linearGradient>
        <path d="M13.5789474,13 L2.42105263,13 C1.08394218,13 6.07838013e-16,11.9160578 4.4408921e-16,10.5789474 L0,6 L3.34736842,6 L5.17894737,8.1875 C5.38947368,8.45 5.70526316,8.625 6.04210526,8.625 L9.95789474,8.625 C10.2947368,8.625 10.5894737,8.428125 10.8210526,8.1875 L12.6526316,6 L16,6 L16,10.5789474 C16,11.9160578 14.9160578,13 13.5789474,13 Z" id="path-5"></path>
        <filter x="-3.1%" y="-7.1%" width="106.2%" height="128.6%" filterUnits="objectBoundingBox" id="filter-6">
            <feOffset dx="0" dy="1" in="SourceAlpha" result="shadowOffsetOuter1"></feOffset>
            <feColorMatrix values="0 0 0 0 0   0 0 0 0 0   0 0 0 0 0  0 0 0 0.2 0" type="matrix" in="shadowOffsetOuter1"></feColorMatrix>
        </filter>
    </defs>
    <g id="Inbox_Default" stroke="none" stroke-width="1" fill="none" fill-rule="evenodd">
        <g id="inbox" transform="translate(0.000000, 1.500000)">
            <g id="XMLID_1997_-Copy" opacity="0.6">
                <use fill="url(#linearGradient-1)" fill-rule="evenodd" xlink:href="#path-2"></use>
                <use fill="black" fill-opacity="1" filter="url(#filter-3)" xlink:href="#path-2"></use>
            </g>
            <g id="XMLID_1997_">
                <use fill="black" fill-opacity="1" filter="url(#filter-6)" xlink:href="#path-5"></use>
                <use fill="url(#linearGradient-4)" fill-rule="evenodd" xlink:href="#path-5"></use>
            </g>
        </g>
    </g>
</svg>