<?xml version="1.0" encoding="UTF-8"?>
<svg width="16px" height="16px" viewBox="0 0 16 16" version="1.1" xmlns="http://www.w3.org/2000/svg" xmlns:xlink="http://www.w3.org/1999/xlink">
    <!-- Generator: Sketch 52.2 (67145) - http://www.bohemiancoding.com/sketch -->
    <title>List_Color</title>
    <desc>Created with Sketch.</desc>
    <defs>
        <linearGradient x1="0%" y1="100%" x2="100%" y2="0%" id="linearGradient-1">
            <stop stop-color="#5869EB" offset="0%"></stop>
            <stop stop-color="#6190FA" offset="100%"></stop>
        </linearGradient>
    </defs>
    <g id="List_Color" stroke="none" stroke-width="1" fill="none" fill-rule="evenodd">
        <g id="Group" transform="translate(1.000000, 2.000000)" fill="url(#linearGradient-1)">
            <path d="M8.73333333,2.4 L5.06666667,2.4 C4.42233446,2.4 3.9,1.8627417 3.9,1.2 C3.9,0.5372583 4.42233446,0 5.06666667,0 L8.73333333,0 C9.37766554,0 9.9,0.5372583 9.9,1.2 C9.9,1.8627417 9.37766554,2.4 8.73333333,2.4 Z" id="Path"></path>
            <path d="M12.7333333,6.9 L5.06666667,6.9 C4.42233446,6.9 3.9,6.3627417 3.9,5.7 C3.9,5.0372583 4.42233446,4.5 5.06666667,4.5 L12.7333333,4.5 C13.3776655,4.5 13.9,5.0372583 13.9,5.7 C13.9,6.3627417 13.3776655,6.9 12.7333333,6.9 Z" id="Path-Copy"></path>
            <path d="M12.7333333,11.4 L5.06666667,11.4 C4.42233446,11.4 3.9,10.8627417 3.9,10.2 C3.9,9.5372583 4.42233446,9 5.06666667,9 L12.7333333,9 C13.3776655,9 13.9,9.5372583 13.9,10.2 C13.9,10.8627417 13.3776655,11.4 12.7333333,11.4 Z" id="Path-Copy-2"></path>
            <circle id="Oval" opacity="0.4" cx="1.2" cy="1.2" r="1.2"></circle>
            <circle id="Oval" opacity="0.4" cx="1.2" cy="5.7" r="1.2"></circle>
            <circle id="Oval-Copy" opacity="0.4" cx="1.2" cy="10.2" r="1.2"></circle>
        </g>
    </g>
</svg>