<?xml version="1.0" encoding="UTF-8"?>
<svg width="16px" height="16px" viewBox="0 0 16 16" version="1.1" xmlns="http://www.w3.org/2000/svg" xmlns:xlink="http://www.w3.org/1999/xlink">
    <!-- Generator: Sketch 52.2 (67145) - http://www.bohemiancoding.com/sketch -->
    <title>Media_Color</title>
    <desc>Created with Sketch.</desc>
    <defs>
        <linearGradient x1="97.048862%" y1="2.95113801%" x2="0%" y2="100%" id="linearGradient-1">
            <stop stop-color="#F0598C" offset="0%"></stop>
            <stop stop-color="#9E42AC" offset="100%"></stop>
        </linearGradient>
        <rect id="path-2" x="0" y="1" width="16" height="14"></rect>
        <path d="M6.13307862,4 C6.73297638,4 7.21886642,4.52327001 7.21886642,5.16931847 C7.21886642,5.81536692 6.73297638,6.33863693 6.13307862,6.33863693 C5.53318085,6.33863693 5.04729081,5.81536692 5.04729081,5.16931847 C5.04729081,4.52327001 5.53318085,4 6.13307862,4 Z M12.7930587,11.5642058 L3.69811592,11.5642058 C3.53252864,11.5642058 3.44108493,11.3710721 3.54241445,11.2406442 L6.00892338,8.05017641 C6.08800984,7.947339 6.24123986,7.947339 6.32032632,8.05017641 L7.33609302,9.36448861 L9.25888255,6.87632505 C9.33796901,6.77348765 9.49119902,6.77348765 9.57028548,6.87632505 L12.9438172,11.2406442 C13.0500897,11.3710721 12.9561745,11.5642058 12.7930587,11.5642058 Z" id="path-4"></path>
        <filter x="-2.6%" y="-3.3%" width="105.3%" height="113.2%" filterUnits="objectBoundingBox" id="filter-5">
            <feOffset dx="0" dy="0.5" in="SourceAlpha" result="shadowOffsetOuter1"></feOffset>
            <feColorMatrix values="0 0 0 0 0   0 0 0 0 0   0 0 0 0 0  0 0 0 0.2 0" type="matrix" in="shadowOffsetOuter1"></feColorMatrix>
        </filter>
    </defs>
    <g id="Media_Color" stroke="none" stroke-width="1" fill="none" fill-rule="evenodd">
        <mask id="mask-3" fill="white">
            <use xlink:href="#path-2"></use>
        </mask>
        <use id="Mask" fill="url(#linearGradient-1)" xlink:href="#path-2"></use>
        <g id="Shape" mask="url(#mask-3)">
            <use fill="black" fill-opacity="1" filter="url(#filter-5)" xlink:href="#path-4"></use>
            <use fill="#FFFFFF" fill-rule="evenodd" xlink:href="#path-4"></use>
        </g>
    </g>
</svg>