<?xml version="1.0" encoding="UTF-8"?>
<svg width="16px" height="16px" viewBox="0 0 16 16" version="1.1" xmlns="http://www.w3.org/2000/svg" xmlns:xlink="http://www.w3.org/1999/xlink">
    <!-- Generator: Sketch 52.2 (67145) - http://www.bohemiancoding.com/sketch -->
    <title>NPS_Active</title>
    <desc>Created with Sketch.</desc>
    <defs>
        <path d="M7.33607943,14.9721117 L6.76393202,15.1734597 C6.03423107,15.4302533 5.22294714,15.1666512 4.78354618,14.5299933 L4.43901858,14.0307996 C4.18026918,13.6558918 3.801289,13.3805466 3.36477254,13.2503141 L2.78354618,13.0769083 C2.0422662,12.8557512 1.54086515,12.1656319 1.55960042,11.3922915 L1.57429046,10.785927 C1.58532307,10.3305311 1.44056553,9.88501321 1.16396499,9.52307502 L0.7956684,9.04115045 C0.325953143,8.4265172 0.325953143,7.5734828 0.7956684,6.95884955 L1.16396499,6.47692498 C1.44056553,6.11498679 1.58532307,5.66946888 1.57429046,5.21407301 L1.55960042,4.60770854 C1.54086515,3.8343681 2.0422662,3.14424877 2.78354618,2.92309173 L3.36477254,2.74968586 C3.801289,2.61945343 4.18026918,2.34410822 4.43901858,1.96920042 L4.78354618,1.47000667 C5.22294714,0.833348794 6.03423107,0.569746666 6.76393202,0.826540304 L7.33607943,1.02788829 C7.76577737,1.17910598 8.23422263,1.17910598 8.66392057,1.02788829 L9.23606798,0.826540304 C9.96576893,0.569746666 10.7770529,0.833348794 11.2164538,1.47000667 L11.5609814,1.96920042 C11.8197308,2.34410822 12.198711,2.61945343 12.6352275,2.74968586 L13.2164538,2.92309173 C13.9577338,3.14424877 14.4591348,3.8343681 14.4403996,4.60770854 L14.4257095,5.21407301 C14.4146769,5.66946888 14.5594345,6.11498679 14.836035,6.47692498 L15.2043316,6.95884955 C15.6740469,7.5734828 15.6740469,8.4265172 15.2043316,9.04115045 L14.836035,9.52307502 C14.5594345,9.88501321 14.4146769,10.3305311 14.4257095,10.785927 L14.4403996,11.3922915 C14.4591348,12.1656319 13.9577338,12.8557512 13.2164538,13.0769083 L12.6352275,13.2503141 C12.198711,13.3805466 11.8197308,13.6558918 11.5609814,14.0307996 L11.2164538,14.5299933 C10.7770529,15.1666512 9.96576893,15.4302533 9.23606798,15.1734597 L8.66392057,14.9721117 C8.23422263,14.820894 7.76577737,14.820894 7.33607943,14.9721117 Z M4.44338196,5.93606136 C4.44338196,6.60261192 4.96571642,7.14295791 5.61004862,7.14295791 C6.25438083,7.14295791 6.77671529,6.60261192 6.77671529,5.93606136 C6.77671529,5.2695108 6.25438083,4.72916481 5.61004862,4.72916481 C4.96571642,4.72916481 4.44338196,5.2695108 4.44338196,5.93606136 Z M7.94338196,11.7291648 L7.94338196,11.7231303 C10.0900486,11.6265786 11.1750486,9.75588894 10.8250486,9.18261308 C10.4750486,8.60933722 9.99088196,9.1765786 9.40754862,9.46623377 C9.0160975,9.66025754 8.59236036,9.77496563 8.15921529,9.80416481 C8.14171529,9.80416481 7.94338196,9.80416481 7.94338196,9.80416481 C7.43702005,9.80042863 6.93747159,9.68307352 6.47921529,9.46019929 C6.21088196,9.32744067 5.63921529,8.88088894 5.36504862,8.94726825 C4.32671529,9.21278549 5.61004862,11.7291648 7.94338196,11.7291648 Z M10.2767153,7.14295791 C10.9210475,7.14295791 11.443382,6.60261192 11.443382,5.93606136 C11.443382,5.2695108 10.9210475,4.72916481 10.2767153,4.72916481 C9.63238308,4.72916481 9.11004862,5.2695108 9.11004862,5.93606136 C9.11004862,6.60261192 9.63238308,7.14295791 10.2767153,7.14295791 Z" id="path-1"></path>
        <filter x="-3.3%" y="-3.4%" width="106.6%" height="106.9%" filterUnits="objectBoundingBox" id="filter-3">
            <feOffset dx="0" dy="1" in="SourceAlpha" result="shadowOffsetInner1"></feOffset>
            <feComposite in="shadowOffsetInner1" in2="SourceAlpha" operator="arithmetic" k2="-1" k3="1" result="shadowInnerInner1"></feComposite>
            <feColorMatrix values="0 0 0 0 1   0 0 0 0 1   0 0 0 0 1  0 0 0 0.1 0" type="matrix" in="shadowInnerInner1"></feColorMatrix>
        </filter>
    </defs>
    <g id="NPS_Active" stroke="none" stroke-width="1" fill="none" fill-rule="evenodd">
        <g id="happy-sun">
            <mask id="mask-2" fill="white">
                <use xlink:href="#path-1"></use>
            </mask>
            <g id="Combined-Shape">
                <use fill="#FFFFFF" fill-rule="evenodd" xlink:href="#path-1"></use>
                <use fill="black" fill-opacity="1" filter="url(#filter-3)" xlink:href="#path-1"></use>
            </g>
        </g>
    </g>
</svg>