<?xml version="1.0" encoding="UTF-8"?>
<svg width="16px" height="16px" viewBox="0 0 16 16" version="1.1" xmlns="http://www.w3.org/2000/svg" xmlns:xlink="http://www.w3.org/1999/xlink">
    <!-- Generator: Sketch 52.2 (67145) - http://www.bohemiancoding.com/sketch -->
    <title>Off Site Boost_Color</title>
    <desc>Created with Sketch.</desc>
    <defs>
        <linearGradient x1="100%" y1="0%" x2="0%" y2="100%" id="linearGradient-1">
            <stop stop-color="#B36DF5" offset="0%"></stop>
            <stop stop-color="#7745E3" offset="100%"></stop>
        </linearGradient>
        <path d="M4.2006439,6.79240638 C3.78330156,6.3509342 3.80286266,5.65472747 4.24433484,5.23738513 C4.68580702,4.82004279 5.38201375,4.83960389 5.7993561,5.28107607 C6.49603551,6.01803599 7.21333605,6.35781498 8,6.35781498 C8.78666395,6.35781498 9.50396449,6.01803599 10.2006439,5.28107607 C10.6179862,4.83960389 11.314193,4.82004279 11.7556652,5.23738513 C12.1971373,5.65472747 12.2166984,6.3509342 11.7993561,6.79240638 C10.7048339,7.95021147 9.42213448,8.55781498 8,8.55781498 C6.57786552,8.55781498 5.29516607,7.95021147 4.2006439,6.79240638 Z" id="path-2"></path>
        <filter x="-3.0%" y="-6.9%" width="106.1%" height="127.6%" filterUnits="objectBoundingBox" id="filter-3">
            <feOffset dx="0" dy="0.5" in="SourceAlpha" result="shadowOffsetOuter1"></feOffset>
            <feColorMatrix values="0 0 0 0 0   0 0 0 0 0   0 0 0 0 0  0 0 0 0.2 0" type="matrix" in="shadowOffsetOuter1"></feColorMatrix>
        </filter>
    </defs>
    <g id="Off-Site-Boost_Color" stroke="none" stroke-width="1" fill="none" fill-rule="evenodd">
        <g id="Group" transform="translate(0.000000, 1.000000)">
            <path d="M15.9872238,8.19848103 L16.0000313,13.0129232 C16.0019118,13.7198155 15.4303868,14.2943894 14.7234945,14.2962699 C14.4308176,14.2970485 14.1467139,14.1974984 13.9185337,14.0142112 L11.9730749,12.4515093 L3.83983885,12.4515093 C1.71915441,12.4515093 -1.84380269e-16,10.7323549 -4.4408921e-16,8.61167043 L-4.4408921e-16,4.13983885 C-7.03798151e-16,2.01915441 1.71915441,0.3 3.83983885,0.3 L12.1473849,0.3 C14.2680693,0.3 15.9872238,2.01915441 15.9872238,4.13983885 L15.9872238,8.19848103 Z" id="Combined-Shape" fill="url(#linearGradient-1)" fill-rule="nonzero"></path>
            <g id="Path">
                <use fill="black" fill-opacity="1" filter="url(#filter-3)" xlink:href="#path-2"></use>
                <use fill="#FFFFFF" fill-rule="evenodd" xlink:href="#path-2"></use>
            </g>
        </g>
    </g>
</svg>