<?xml version="1.0" encoding="UTF-8"?>
<svg width="16px" height="16px" viewBox="0 0 16 16" version="1.1" xmlns="http://www.w3.org/2000/svg" xmlns:xlink="http://www.w3.org/1999/xlink">
    <!-- Generator: Sketch 52.2 (67145) - http://www.bohemiancoding.com/sketch -->
    <title>On Site Boost_Light</title>
    <desc>Created with Sketch.</desc>
    <defs>
        <path d="M8,16 C3.581722,16 0,12.418278 0,8 C0,3.581722 3.581722,0 8,0 C12.418278,0 16,3.581722 16,8 C16,12.418278 12.418278,16 8,16 Z M10.8225524,8.5824 L11.9695732,7.4732 C12.4206535,7.0368 12.1715934,6.2764 11.5483129,6.1864 L9.9632318,5.958 C9.71543164,5.9224 9.50123148,5.768 9.3907714,5.5452 L8.68181088,4.1204 C8.5423708,3.84 8.2710506,3.7 7.9997304,3.7 C7.7288302,3.7 7.45751,3.84 7.31806992,4.1204 L6.6091094,5.5452 C6.49864932,5.768 6.2844492,5.9224 6.036649,5.958 L4.45156788,6.1864 C3.82828744,6.2764 3.57922728,7.0368 4.0303076,7.4732 L5.1773284,8.5824 C5.35666852,8.7556 5.4381486,9.0052 5.39614856,9.25 L5.12524836,10.8164 C5.04082832,11.304 5.4314286,11.7 5.87452888,11.7 C5.99128896,11.7 6.11182908,11.6724 6.22858916,11.6116 L7.64609016,10.872 C7.75697024,10.8144 7.87835032,10.7856 7.9997304,10.7856 C8.12153048,10.7856 8.24291056,10.8144 8.35379064,10.872 L9.77129164,11.6116 C9.88805176,11.6724 10.0085918,11.7 10.1253519,11.7 C10.5684522,11.7 10.9590525,11.304 10.8746324,10.8164 L10.6037322,9.25 C10.5617322,9.0052 10.6432123,8.7556 10.8225524,8.5824 Z" id="path-1"></path>
        <filter x="-3.1%" y="-3.1%" width="106.2%" height="106.2%" filterUnits="objectBoundingBox" id="filter-2">
            <feOffset dx="0" dy="1" in="SourceAlpha" result="shadowOffsetInner1"></feOffset>
            <feComposite in="shadowOffsetInner1" in2="SourceAlpha" operator="arithmetic" k2="-1" k3="1" result="shadowInnerInner1"></feComposite>
            <feColorMatrix values="0 0 0 0 1   0 0 0 0 1   0 0 0 0 1  0 0 0 0.1 0" type="matrix" in="shadowInnerInner1"></feColorMatrix>
        </filter>
    </defs>
    <g id="On-Site-Boost_Light" stroke="none" stroke-width="1" fill="none" fill-rule="evenodd">
        <g id="Group">
            <g id="Combined-Shape">
                <use fill="#FFFFFF" fill-rule="evenodd" xlink:href="#path-1"></use>
                <use fill="black" fill-opacity="1" filter="url(#filter-2)" xlink:href="#path-1"></use>
            </g>
        </g>
    </g>
</svg>