<?xml version="1.0" encoding="UTF-8"?>
<svg width="16px" height="16px" viewBox="0 0 16 16" version="1.1" xmlns="http://www.w3.org/2000/svg" xmlns:xlink="http://www.w3.org/1999/xlink">
    <!-- Generator: Sketch 52.2 (67145) - http://www.bohemiancoding.com/sketch -->
    <title>Referral_Active</title>
    <desc>Created with Sketch.</desc>
    <defs>
        <path d="M9.62379763,0.426676442 L13.8762024,2.83429828 C14.8810118,3.4032002 15.5,4.45457431 15.5,5.59237816 L15.5,10.4076218 C15.5,11.5454257 14.8810118,12.5967998 13.8762024,13.1657017 L9.62379763,15.5733236 C8.61898816,16.1422255 7.38101184,16.1422255 6.37620237,15.5733236 L2.12379763,13.1657017 C1.11898816,12.5967998 0.5,11.5454257 0.5,10.4076218 L0.5,5.59237816 C0.5,4.45457431 1.11898816,3.4032002 2.12379763,2.83429828 L6.37620237,0.426676442 C7.38101184,-0.142225481 8.61898816,-0.142225481 9.62379763,0.426676442 Z M7.99999993,9.03045901 L7.99999993,11.4418975 C7.99999993,11.6029806 8.13058355,11.7335642 8.2916666,11.7335642 C8.36215838,11.7335642 8.43026503,11.7080347 8.48338784,11.6616983 L12.4154646,8.23194518 C12.5368572,8.12606043 12.5494289,7.94181571 12.4435442,7.82042311 C12.4350324,7.8106647 12.4258802,7.80148391 12.4161484,7.79294181 L8.48407165,4.34156071 C8.36300944,4.23529834 8.17872646,4.24729597 8.07246408,4.36835818 C8.02575606,4.42157151 7.99999993,4.48995857 7.99999993,4.56076322 L7.99999993,6.98879233 L4.98407164,4.34156071 C4.86300944,4.23529834 4.67872645,4.24729597 4.57246406,4.36835818 C4.52575609,4.42157151 4.49999994,4.48995857 4.49999994,4.56076322 L4.49999994,11.4418975 C4.49999994,11.6029806 4.63058354,11.7335642 4.79166661,11.7335642 C4.86215836,11.7335642 4.93026503,11.7080347 4.98338786,11.6616983 L7.99999993,9.03045901 Z" id="path-1"></path>
        <filter x="-3.3%" y="-3.1%" width="106.7%" height="106.2%" filterUnits="objectBoundingBox" id="filter-2">
            <feOffset dx="0" dy="1" in="SourceAlpha" result="shadowOffsetInner1"></feOffset>
            <feComposite in="shadowOffsetInner1" in2="SourceAlpha" operator="arithmetic" k2="-1" k3="1" result="shadowInnerInner1"></feComposite>
            <feColorMatrix values="0 0 0 0 1   0 0 0 0 1   0 0 0 0 1  0 0 0 0.1 0" type="matrix" in="shadowInnerInner1"></feColorMatrix>
        </filter>
    </defs>
    <g id="Referral_Active" stroke="none" stroke-width="1" fill="none" fill-rule="evenodd">
        <g id="Combined-Shape">
            <use fill="#FFFFFF" fill-rule="evenodd" xlink:href="#path-1"></use>
            <use fill="black" fill-opacity="1" filter="url(#filter-2)" xlink:href="#path-1"></use>
        </g>
    </g>
</svg>